
<svg width="318" height="332" viewBox="0 0 318 332" fill="none" xmlns="http://www.w3.org/2000/svg">
<path d="M130.418 29.3089C130.418 29.3089 160.132 23.0208 187.168 29.3089C203.704 33.1534 238.525 42.2701 246.749 62.9338C254.972 83.5975 215.394 101.227 234.837 122.189C243.225 131.233 283.478 143.158 281.214 201.816C278.95 260.474 219.973 296.23 138.012 294.637C56.0507 293.043 8.73228 215.229 40.4305 176.909C72.1288 138.59 85.7773 138.477 71.4101 107.269C57.0428 76.0611 76.9878 38.2397 130.418 29.3089Z" fill="#92E3A9"/>
<path opacity="0.7" d="M130.418 29.3089C130.418 29.3089 160.132 23.0208 187.168 29.3089C203.704 33.1534 238.525 42.2701 246.749 62.9338C254.972 83.5975 215.394 101.227 234.837 122.189C243.225 131.233 283.478 143.158 281.214 201.816C278.95 260.474 219.973 296.23 138.012 294.637C56.0507 293.043 8.73228 215.229 40.4305 176.909C72.1288 138.59 85.7773 138.477 71.4101 107.269C57.0428 76.0611 76.9878 38.2397 130.418 29.3089Z" fill="white"/>
<path d="M210.249 111.532H107.751L94.9612 45.1055H223.039L210.249 111.532Z" fill="#263238"/>
<path d="M104.577 47.2637L85.701 181.279H232.299L213.423 47.2637" fill="#92E3A9"/>
<mask id="mask0_493_6561" style="mask-type:luminance" maskUnits="userSpaceOnUse" x="85" y="47" width="148" height="135">
<path d="M104.577 47.2637L85.701 181.279H232.299L213.423 47.2637" fill="white"/>
</mask>
<g mask="url(#mask0_493_6561)">
<path opacity="0.3" d="M232.299 181.279H85.701L93.5938 125.237H224.406L232.299 181.279Z" fill="black" fill-opacity="0.7"/>
</g>
<path d="M104.577 47.2637L85.701 181.279H232.299L213.423 47.2637" stroke="#263238" stroke-linecap="round" stroke-linejoin="round"/>
<path d="M209.435 47.2637H108.565L91.0752 181.279H226.925L209.435 47.2637Z" fill="#263238"/>
<path d="M199.469 57.4758H144.715L144.079 56.015C143.909 55.6185 143.632 55.2822 143.282 55.0465C142.932 54.8108 142.524 54.686 142.108 54.687H129.693C129.356 54.687 129.032 54.8269 128.794 55.076C128.555 55.325 128.421 55.6628 128.421 56.015V57.5024H118.531C118.353 57.5027 118.177 57.5443 118.015 57.6242C117.854 57.7041 117.712 57.8203 117.599 57.9644C117.486 58.1085 117.405 58.277 117.361 58.4577C117.318 58.6384 117.314 58.8269 117.348 59.0097L125.438 101.008H192.562L200.652 59.0097C200.691 58.825 200.69 58.6336 200.648 58.4496C200.607 58.2655 200.527 58.0935 200.413 57.9462C200.299 57.7989 200.156 57.6802 199.992 57.5988C199.829 57.5174 199.65 57.4753 199.469 57.4758Z" fill="#BFBFBF" stroke="#263238" stroke-linecap="round" stroke-linejoin="round"/>
<path d="M201.536 60.6963L200.836 64.3217L193.649 101.632C193.546 102.192 193.259 102.697 192.838 103.061C192.416 103.424 191.887 103.623 191.341 103.624H126.659C126.113 103.623 125.584 103.424 125.162 103.061C124.741 102.697 124.454 102.192 124.351 101.632L117.024 63.4386L116.496 60.6963C116.462 60.5152 116.466 60.3284 116.508 60.1491C116.55 59.9698 116.63 59.8024 116.741 59.6586C116.852 59.5149 116.991 59.3983 117.15 59.3172C117.309 59.236 117.483 59.1923 117.66 59.189H200.34C200.52 59.1874 200.697 59.2276 200.86 59.3066C201.023 59.3856 201.167 59.5015 201.281 59.6459C201.396 59.7902 201.478 59.9594 201.522 60.1411C201.566 60.3228 201.571 60.5125 201.536 60.6963Z" fill="white"/>
<mask id="mask1_493_6561" style="mask-type:luminance" maskUnits="userSpaceOnUse" x="116" y="59" width="86" height="45">
<path d="M201.536 60.6963L200.836 64.3217L193.649 101.632C193.546 102.192 193.259 102.697 192.838 103.061C192.416 103.424 191.887 103.623 191.341 103.624H126.659C126.113 103.623 125.584 103.424 125.162 103.061C124.741 102.697 124.454 102.192 124.351 101.632L117.024 63.4386L116.496 60.6963C116.462 60.5152 116.466 60.3284 116.508 60.1491C116.55 59.9698 116.63 59.8024 116.741 59.6586C116.852 59.5149 116.991 59.3983 117.15 59.3172C117.309 59.236 117.483 59.1923 117.66 59.189H200.34C200.52 59.1874 200.697 59.2276 200.86 59.3066C201.023 59.3856 201.167 59.5015 201.281 59.6459C201.396 59.7902 201.478 59.9594 201.522 60.1411C201.566 60.3228 201.571 60.5125 201.536 60.6963Z" fill="white"/>
</mask>
<g mask="url(#mask1_493_6561)">
<path opacity="0.4" d="M200.836 64.3216L193.649 101.632C193.546 102.192 193.259 102.697 192.838 103.061C192.416 103.424 191.887 103.623 191.341 103.624H126.659C126.113 103.623 125.584 103.424 125.162 103.061C124.741 102.697 124.454 102.192 124.351 101.632L117.024 63.4385L200.836 64.3216Z" fill="#92E3A9"/>
</g>
<path d="M201.536 60.6963L200.836 64.3217L193.649 101.632C193.546 102.192 193.259 102.697 192.838 103.061C192.416 103.424 191.887 103.623 191.341 103.624H126.659C126.113 103.623 125.584 103.424 125.162 103.061C124.741 102.697 124.454 102.192 124.351 101.632L117.024 63.4386L116.496 60.6963C116.462 60.5152 116.466 60.3284 116.508 60.1491C116.55 59.9698 116.63 59.8024 116.741 59.6586C116.852 59.5149 116.991 59.3983 117.15 59.3172C117.309 59.236 117.483 59.1923 117.66 59.189H200.34C200.52 59.1874 200.697 59.2276 200.86 59.3066C201.023 59.3856 201.167 59.5015 201.281 59.6459C201.396 59.7902 201.478 59.9594 201.522 60.1411C201.566 60.3228 201.571 60.5125 201.536 60.6963Z" stroke="#263238" stroke-linecap="round" stroke-linejoin="round"/>
<path d="M200.442 67.1504H144.372L143.736 65.6962C143.556 65.2971 143.271 64.9599 142.914 64.7246C142.557 64.4893 142.142 64.3656 141.72 64.3682H129C128.663 64.3682 128.339 64.5081 128.1 64.7572C127.862 65.0062 127.728 65.344 127.728 65.6962V67.1836H117.552C117.372 67.1812 117.193 67.2207 117.029 67.2992C116.866 67.3778 116.721 67.4934 116.605 67.6377C116.489 67.782 116.406 67.9514 116.361 68.1335C116.315 68.3157 116.309 68.506 116.343 68.6908L124.611 110.563H193.344L201.612 68.6908C201.651 68.507 201.65 68.3164 201.609 68.133C201.569 67.9496 201.489 67.7779 201.377 67.6304C201.265 67.4829 201.123 67.3633 200.961 67.2803C200.8 67.1972 200.622 67.1529 200.442 67.1504Z" fill="#BFBFBF" stroke="#263238" stroke-linecap="round" stroke-linejoin="round"/>
<path d="M202.553 70.4835L201.854 74.0292L194.482 111.3C194.369 111.866 194.072 112.374 193.64 112.737C193.209 113.1 192.671 113.296 192.117 113.292H125.883C125.329 113.296 124.791 113.1 124.36 112.737C123.928 112.374 123.631 111.866 123.518 111.3L116.121 73.9031L115.447 70.4835C115.413 70.2987 115.419 70.1083 115.464 69.9261C115.509 69.744 115.592 69.5746 115.708 69.4303C115.824 69.286 115.969 69.1704 116.133 69.0918C116.296 69.0133 116.475 68.9738 116.655 68.9762H201.345C201.525 68.9738 201.704 69.0133 201.867 69.0918C202.031 69.1704 202.176 69.286 202.292 69.4303C202.408 69.5746 202.491 69.744 202.536 69.9261C202.581 70.1083 202.587 70.2987 202.553 70.4835Z" fill="white"/>
<mask id="mask2_493_6561" style="mask-type:luminance" maskUnits="userSpaceOnUse" x="115" y="68" width="88" height="46">
<path d="M202.553 70.4835L201.854 74.0292L194.482 111.3C194.369 111.866 194.072 112.374 193.64 112.737C193.209 113.1 192.671 113.296 192.117 113.292H125.883C125.329 113.296 124.791 113.1 124.36 112.737C123.928 112.374 123.631 111.866 123.518 111.3L116.121 73.9031L115.447 70.4835C115.413 70.2987 115.419 70.1083 115.464 69.9261C115.509 69.744 115.592 69.5746 115.708 69.4303C115.824 69.286 115.969 69.1704 116.133 69.0918C116.296 69.0133 116.475 68.9738 116.655 68.9762H201.345C201.525 68.9738 201.704 69.0133 201.867 69.0918C202.031 69.1704 202.176 69.286 202.292 69.4303C202.408 69.5746 202.491 69.744 202.536 69.9261C202.581 70.1083 202.587 70.2987 202.553 70.4835Z" fill="white"/>
</mask>
<g mask="url(#mask2_493_6561)">
<path opacity="0.4" d="M201.854 74.029L194.482 111.299C194.369 111.866 194.072 112.374 193.64 112.737C193.209 113.1 192.671 113.296 192.117 113.291H125.883C125.329 113.296 124.791 113.1 124.36 112.737C123.928 112.374 123.631 111.866 123.518 111.299L116.121 73.9028L201.854 74.029Z" fill="#92E3A9"/>
</g>
<path d="M202.553 70.4835L201.854 74.0292L194.482 111.3C194.369 111.866 194.072 112.374 193.64 112.737C193.209 113.1 192.671 113.296 192.117 113.292H125.883C125.329 113.296 124.791 113.1 124.36 112.737C123.928 112.374 123.631 111.866 123.518 111.3L116.121 73.9031L115.447 70.4835C115.413 70.2987 115.419 70.1083 115.464 69.9261C115.509 69.744 115.592 69.5746 115.708 69.4303C115.824 69.286 115.969 69.1704 116.133 69.0918C116.296 69.0133 116.475 68.9738 116.655 68.9762H201.345C201.525 68.9738 201.704 69.0133 201.867 69.0918C202.031 69.1704 202.176 69.286 202.292 69.4303C202.408 69.5746 202.491 69.744 202.536 69.9261C202.581 70.1083 202.587 70.2987 202.553 70.4835Z" stroke="#263238" stroke-linecap="round" stroke-linejoin="round"/>
<path d="M201.408 76.8247H144.035L143.399 75.3706C143.212 74.9678 142.918 74.6289 142.554 74.3938C142.189 74.1586 141.767 74.0368 141.338 74.0426H128.288C128.117 74.0373 127.948 74.0677 127.789 74.132C127.63 74.1964 127.486 74.2933 127.363 74.4172C127.241 74.541 127.144 74.6892 127.078 74.853C127.011 75.0168 126.977 75.1928 126.977 75.3706V76.8513H116.592C116.41 76.8453 116.229 76.8818 116.062 76.9582C115.896 77.0346 115.747 77.1489 115.628 77.2927C115.51 77.4366 115.423 77.6063 115.375 77.7896C115.327 77.9728 115.319 78.165 115.351 78.3519L123.829 120.098H194.171L202.649 78.3519C202.685 78.1631 202.68 77.968 202.635 77.7813C202.589 77.5947 202.503 77.4214 202.383 77.2744C202.264 77.1274 202.114 77.0106 201.945 76.9327C201.777 76.8548 201.593 76.8179 201.408 76.8247Z" fill="#BFBFBF" stroke="#263238" stroke-linecap="round" stroke-linejoin="round"/>
<path d="M202.337 78.7704H115.663C115.482 78.7644 115.302 78.8007 115.136 78.8768C114.97 78.9528 114.823 79.0666 114.704 79.2098C114.586 79.3531 114.5 79.5221 114.452 79.7046C114.405 79.887 114.397 80.0783 114.429 80.2644L122.697 120.961C122.819 121.533 123.125 122.043 123.566 122.406C124.006 122.769 124.553 122.962 125.114 122.953H192.892C193.453 122.962 194 122.769 194.441 122.406C194.881 122.043 195.188 121.533 195.309 120.961L203.577 80.2644C203.61 80.0777 203.602 79.8859 203.554 79.7029C203.506 79.5199 203.419 79.3505 203.3 79.2072C203.181 79.0638 203.033 78.9501 202.866 78.8746C202.699 78.799 202.519 78.7634 202.337 78.7704Z" fill="white" stroke="#263238" stroke-linecap="round" stroke-linejoin="round"/>
<path d="M202.382 84.507H143.691L143.024 83.0595C142.827 82.6545 142.526 82.3153 142.153 82.0805C141.781 81.8457 141.353 81.7248 140.919 81.7315H127.563C127.39 81.7216 127.217 81.7486 127.054 81.8108C126.892 81.8731 126.743 81.9693 126.618 82.0937C126.492 82.218 126.392 82.3678 126.324 82.5338C126.255 82.6999 126.22 82.8788 126.221 83.0595V84.5402H115.618C115.435 84.5306 115.252 84.5641 115.082 84.6382C114.913 84.7124 114.761 84.8253 114.639 84.9687C114.517 85.1121 114.427 85.2823 114.377 85.4667C114.326 85.6511 114.316 85.8451 114.346 86.0342L123.015 127.66H194.979L203.647 86.0342C203.683 85.8432 203.677 85.6462 203.629 85.4581C203.581 85.2699 203.493 85.0956 203.371 84.9484C203.249 84.8012 203.097 84.685 202.925 84.6085C202.754 84.532 202.568 84.4973 202.382 84.507Z" fill="#BFBFBF" stroke="#263238" stroke-linecap="round" stroke-linejoin="round"/>
<path d="M203.329 86.5656H114.671C114.487 86.5559 114.304 86.5894 114.135 86.6636C113.965 86.7378 113.814 86.8507 113.692 86.9941C113.57 87.1375 113.48 87.3077 113.429 87.4921C113.378 87.6765 113.368 87.8704 113.399 88.0596L121.851 128.637C121.99 129.207 122.31 129.711 122.76 130.066C123.21 130.421 123.762 130.605 124.325 130.589H193.649C194.213 130.605 194.765 130.421 195.215 130.066C195.664 129.711 195.985 129.207 196.123 128.637L204.576 88.0596C204.606 87.8727 204.596 87.6812 204.547 87.4988C204.498 87.3164 204.41 87.1477 204.291 87.0048C204.172 86.8619 204.024 86.7484 203.857 86.6724C203.691 86.5965 203.511 86.56 203.329 86.5656Z" fill="white" stroke="#263238" stroke-linecap="round" stroke-linejoin="round"/>
<path d="M203.348 92.1898H143.348L142.668 90.7423C142.461 90.3341 142.151 89.9938 141.77 89.7593C141.389 89.5248 140.953 89.4053 140.511 89.4143H126.882C126.537 89.3962 126.2 89.5217 125.943 89.7632C125.687 90.0047 125.533 90.3425 125.515 90.7025V92.1766H114.652C114.471 92.1752 114.292 92.214 114.127 92.2905C113.962 92.367 113.814 92.4793 113.694 92.62C113.573 92.7608 113.483 92.9267 113.429 93.1066C113.375 93.2866 113.358 93.4766 113.38 93.6639L122.246 135.164H195.78L204.646 93.6639C204.666 93.4754 204.647 93.2846 204.59 93.1043C204.534 92.924 204.441 92.7585 204.318 92.6188C204.195 92.4792 204.045 92.3686 203.878 92.2946C203.71 92.2206 203.53 92.1849 203.348 92.1898Z" fill="#BFBFBF" stroke="#263238" stroke-linecap="round" stroke-linejoin="round"/>
<path d="M204.315 94.3674H113.685C113.502 94.3592 113.32 94.3934 113.152 94.4676C112.984 94.5418 112.833 94.6542 112.711 94.7965C112.59 94.9388 112.5 95.1076 112.448 95.2906C112.397 95.4736 112.385 95.6663 112.413 95.8548L114.537 105.815L121.05 136.312C121.201 136.889 121.535 137.396 121.997 137.75C122.458 138.105 123.021 138.286 123.594 138.264H194.444C195.017 138.286 195.58 138.105 196.041 137.75C196.503 137.396 196.837 136.889 196.988 136.312L200.168 121.352L205.612 95.8614C205.642 95.6702 205.631 95.4743 205.578 95.2883C205.526 95.1024 205.434 94.9313 205.309 94.7877C205.184 94.6441 205.03 94.5317 204.858 94.4589C204.686 94.3862 204.5 94.3549 204.315 94.3674Z" fill="white"/>
<mask id="mask3_493_6561" style="mask-type:luminance" maskUnits="userSpaceOnUse" x="112" y="94" width="94" height="45">
<path d="M204.315 94.3674H113.685C113.502 94.3592 113.32 94.3934 113.152 94.4676C112.984 94.5418 112.833 94.6542 112.711 94.7965C112.59 94.9388 112.5 95.1076 112.448 95.2906C112.397 95.4736 112.385 95.6663 112.413 95.8548L114.537 105.815L121.05 136.312C121.201 136.889 121.535 137.396 121.997 137.75C122.458 138.105 123.021 138.286 123.594 138.264H194.444C195.017 138.286 195.58 138.105 196.041 137.75C196.503 137.396 196.837 136.889 196.988 136.312L200.168 121.352L205.612 95.8614C205.642 95.6702 205.631 95.4743 205.578 95.2883C205.526 95.1024 205.434 94.9313 205.309 94.7877C205.184 94.6441 205.03 94.5317 204.858 94.4589C204.686 94.3862 204.5 94.3549 204.315 94.3674Z" fill="white"/>
</mask>
<g mask="url(#mask3_493_6561)">
<path opacity="0.4" d="M114.512 105.808L121.024 136.306C121.176 136.883 121.51 137.389 121.971 137.744C122.433 138.098 122.996 138.279 123.568 138.258H194.444C195.017 138.279 195.58 138.098 196.041 137.744C196.503 137.389 196.837 136.883 196.988 136.306L200.168 121.346L114.512 105.808Z" fill="#92E3A9"/>
</g>
<path d="M204.315 94.3674H113.685C113.502 94.3592 113.32 94.3934 113.152 94.4676C112.984 94.5418 112.833 94.6542 112.711 94.7965C112.59 94.9388 112.5 95.1076 112.448 95.2906C112.397 95.4736 112.385 95.6663 112.413 95.8548L114.537 105.815L121.05 136.312C121.201 136.889 121.535 137.396 121.997 137.75C122.458 138.105 123.021 138.286 123.594 138.264H194.444C195.017 138.286 195.58 138.105 196.041 137.75C196.503 137.396 196.837 136.889 196.988 136.312L200.168 121.352L205.612 95.8614C205.642 95.6702 205.631 95.4743 205.578 95.2883C205.526 95.1024 205.434 94.9313 205.309 94.7877C205.184 94.6441 205.03 94.5317 204.858 94.4589C204.686 94.3862 204.5 94.3549 204.315 94.3674Z" stroke="#263238" stroke-linecap="round" stroke-linejoin="round"/>
<path d="M141.046 139.699L140.244 138.305C139.982 137.902 139.621 137.579 139.2 137.369C138.779 137.159 138.312 137.07 137.847 137.11L123.041 137.82C122.684 137.805 122.335 137.935 122.069 138.183C121.802 138.43 121.637 138.776 121.61 139.148L121.673 140.609L109.869 141.173C108.966 141.213 108.317 141.957 108.533 142.707L119.981 183.211L199.888 179.373L207.718 137.959C207.858 137.189 207.152 136.512 206.242 136.558L141.046 139.699Z" fill="#BFBFBF" stroke="#263238" stroke-linecap="round" stroke-linejoin="round"/>
<path d="M208.862 140.549L207.972 145.316L201.249 180.927C201.083 181.528 200.732 182.055 200.251 182.427C199.769 182.799 199.184 182.995 198.585 182.985L121.584 186.677C120.988 186.745 120.388 186.606 119.875 186.282C119.362 185.958 118.966 185.467 118.748 184.884L108.12 147.235L107.605 145.409C107.395 144.659 108.044 143.915 108.947 143.875L207.406 139.148C208.303 139.108 209.009 139.785 208.862 140.549Z" fill="white"/>
<mask id="mask4_493_6561" style="mask-type:luminance" maskUnits="userSpaceOnUse" x="107" y="139" width="102" height="48">
<path d="M208.862 140.549L207.972 145.316L201.249 180.927C201.083 181.528 200.732 182.055 200.251 182.427C199.769 182.799 199.184 182.995 198.585 182.985L121.584 186.677C120.988 186.745 120.388 186.606 119.875 186.282C119.362 185.958 118.966 185.467 118.748 184.884L108.12 147.235L107.605 145.409C107.395 144.659 108.044 143.915 108.947 143.875L207.406 139.148C208.303 139.108 209.009 139.785 208.862 140.549Z" fill="white"/>
</mask>
<g mask="url(#mask4_493_6561)">
<path opacity="0.4" d="M207.972 145.316L201.249 180.927C201.083 181.528 200.732 182.055 200.251 182.427C199.769 182.799 199.184 182.995 198.585 182.985L121.584 186.677C120.988 186.745 120.388 186.606 119.875 186.282C119.362 185.958 118.966 185.467 118.748 184.884L108.12 147.235L207.972 145.316Z" fill="#92E3A9"/>
</g>
<path d="M208.862 140.549L207.972 145.316L201.249 180.927C201.083 181.528 200.732 182.055 200.251 182.427C199.769 182.799 199.184 182.995 198.585 182.985L121.584 186.677C120.988 186.745 120.388 186.606 119.875 186.282C119.362 185.958 118.966 185.467 118.748 184.884L108.12 147.235L107.605 145.409C107.395 144.659 108.044 143.915 108.947 143.875L207.406 139.148C208.303 139.108 209.009 139.785 208.862 140.549Z" stroke="#263238" stroke-linecap="round" stroke-linejoin="round"/>
<path d="M142.744 148.942L142.063 147.481C141.829 147.051 141.491 146.692 141.082 146.44C140.674 146.189 140.21 146.053 139.736 146.047L124.656 145.223C124.295 145.166 123.926 145.258 123.629 145.48C123.332 145.702 123.13 146.036 123.066 146.412L122.996 147.866L110.963 147.202C110.041 147.149 109.316 147.82 109.456 148.583L117.234 189.944L198.725 194.393L210.586 154.108C210.802 153.357 210.147 152.614 209.225 152.567L142.744 148.942Z" fill="#BFBFBF" stroke="#263238" stroke-linecap="round" stroke-linejoin="round"/>
<path d="M211.508 156.916L209.6 163.477L199.971 196.185C199.739 196.77 199.33 197.26 198.806 197.579C198.282 197.898 197.673 198.029 197.071 197.952L118.544 193.669C117.938 193.678 117.346 193.481 116.857 193.107C116.368 192.733 116.009 192.203 115.835 191.597L109.188 156.226L108.26 151.279C108.114 150.515 108.845 149.845 109.767 149.898L210.147 155.376C211.069 155.429 211.731 156.173 211.508 156.916Z" fill="white"/>
<mask id="mask5_493_6561" style="mask-type:luminance" maskUnits="userSpaceOnUse" x="108" y="149" width="104" height="49">
<path d="M211.508 156.916L209.6 163.477L199.971 196.185C199.739 196.77 199.33 197.26 198.806 197.579C198.282 197.898 197.673 198.029 197.071 197.952L118.544 193.669C117.938 193.678 117.346 193.481 116.857 193.107C116.368 192.733 116.009 192.203 115.835 191.597L109.188 156.226L108.26 151.279C108.114 150.515 108.845 149.845 109.767 149.898L210.147 155.376C211.069 155.429 211.731 156.173 211.508 156.916Z" fill="white"/>
</mask>
<g mask="url(#mask5_493_6561)">
<path opacity="0.4" d="M209.575 163.477L199.946 196.186C199.714 196.771 199.305 197.26 198.781 197.579C198.257 197.898 197.647 198.029 197.046 197.952L118.519 193.669C117.913 193.678 117.32 193.481 116.831 193.107C116.342 192.734 115.984 192.203 115.809 191.597L109.163 156.226L209.575 163.477Z" fill="#92E3A9"/>
</g>
<path d="M211.508 156.916L209.6 163.477L199.971 196.185C199.739 196.77 199.33 197.26 198.806 197.579C198.282 197.898 197.673 198.029 197.071 197.952L118.544 193.669C117.938 193.678 117.346 193.481 116.857 193.107C116.368 192.733 116.009 192.203 115.835 191.597L109.188 156.226L108.26 151.279C108.114 150.515 108.845 149.845 109.767 149.898L210.147 155.376C211.069 155.429 211.731 156.173 211.508 156.916Z" stroke="#263238" stroke-linecap="round" stroke-linejoin="round"/>
<path d="M141.294 159.533L140.556 158.112C140.295 157.689 139.933 157.344 139.506 157.111C139.079 156.878 138.602 156.766 138.12 156.784H122.672C122.306 156.742 121.939 156.851 121.649 157.088C121.359 157.325 121.169 157.671 121.12 158.052V159.499H108.832C107.891 159.499 107.185 160.203 107.37 160.96L117.393 201.71H200.607L210.63 160.96C210.815 160.203 210.109 159.499 209.168 159.499L141.294 159.533Z" fill="#BFBFBF" stroke="#263238" stroke-linecap="round" stroke-linejoin="round"/>
<path d="M199.068 205.501H118.932C117.546 205.501 116.343 204.698 116.07 203.589L106.276 163.862C106.085 163.105 106.791 162.401 107.738 162.401H210.262C211.209 162.401 211.915 163.105 211.724 163.862L201.955 203.589C201.682 204.698 200.48 205.501 199.068 205.501Z" fill="white" stroke="#263238" stroke-linecap="round" stroke-linejoin="round"/>
<path d="M140.95 169.207L140.168 167.793C139.893 167.374 139.521 167.035 139.086 166.808C138.65 166.582 138.167 166.475 137.681 166.498H121.972C121.602 166.453 121.229 166.56 120.934 166.796C120.638 167.033 120.442 167.381 120.388 167.766V169.207H107.866C106.899 169.207 106.18 169.911 106.371 170.668L116.592 211.292H201.408L211.629 170.648C211.82 169.891 211.101 169.187 210.134 169.187L140.95 169.207Z" fill="#BFBFBF" stroke="#263238" stroke-linecap="round" stroke-linejoin="round"/>
<path d="M199.869 215.136H118.131C116.719 215.136 115.498 214.333 115.218 213.224L105.252 173.623C105.067 172.866 105.786 172.162 106.746 172.162H211.254C212.214 172.162 212.933 172.866 212.748 173.623L202.782 213.224C202.502 214.359 201.281 215.136 199.869 215.136Z" fill="white" stroke="#263238" stroke-linecap="round" stroke-linejoin="round"/>
<path d="M216.475 260.932H101.525L76.3645 186.438H241.635L216.475 260.932Z" fill="#92E3A9"/>
<mask id="mask6_493_6561" style="mask-type:luminance" maskUnits="userSpaceOnUse" x="76" y="186" width="166" height="75">
<path d="M216.475 260.932H101.525L76.3645 186.438H241.635L216.475 260.932Z" fill="white"/>
</mask>
<g mask="url(#mask6_493_6561)">
<path opacity="0.3" d="M216.475 260.932H101.525L76.3645 186.438H241.635L216.475 260.932Z" fill="black" fill-opacity="0.7"/>
</g>
<path d="M216.475 260.932H101.525L76.3645 186.438H241.635L216.475 260.932Z" stroke="#263238" stroke-linecap="round" stroke-linejoin="round"/>
<path d="M239.448 176.63H78.5524L76.3645 186.438H241.635L239.448 176.63Z" fill="#92E3A9" stroke="#263238" stroke-linecap="round" stroke-linejoin="round"/>
<path d="M119.104 220.567L117.495 236.47H200.505L198.896 220.567H195.233L196.276 231.915H121.724L122.767 220.567H119.104Z" fill="#BFBFBF" stroke="#263238" stroke-linecap="round" stroke-linejoin="round"/>
<path d="M199.882 240.122H118.118L117.495 236.47H200.505L199.882 240.122Z" fill="#757575" stroke="#263238" stroke-linecap="round" stroke-linejoin="round"/>
<path d="M195.233 220.567L194.724 224.784L195.233 231.915H196.276L195.233 220.567Z" fill="#757575" stroke="#263238" stroke-linecap="round" stroke-linejoin="round"/>
<path d="M122.767 220.567L123.282 224.784L122.767 231.915H121.724L122.767 220.567Z" fill="#757575" stroke="#263238" stroke-linecap="round" stroke-linejoin="round"/>
<path d="M185.75 212.586H132.25L129.699 199.094H188.301L185.75 212.586Z" fill="white" stroke="#263238" stroke-linecap="round" stroke-linejoin="round"/>
<path d="M147.819 207.792L148.175 202.075H149.803L150.28 210.01H149.231L148.856 204.406L148.493 210.01H147.438L146.166 204.486L146.643 210.01H145.644L144.906 202.075H146.534L147.819 207.792Z" fill="#263238"/>
<path d="M152.004 207.474L150.268 202.075H151.495L152.538 205.794L153.257 202.075H154.376L153.104 207.474L153.206 210.01H152.093L152.004 207.474Z" fill="#263238"/>
<path d="M157.728 205.707H159.21V206.836H157.747V210.01H156.634L156.507 202.075H159.636V203.264H157.728V205.707Z" fill="#263238"/>
<path d="M160.221 202.075H161.391L161.271 210.01H160.158L160.221 202.075Z" fill="#263238"/>
<path d="M162.25 202.075H163.452L163.255 208.928H165.093L165.048 210.01H162.11L162.25 202.075Z" fill="#263238"/>
<path d="M166.855 205.521H168.426L168.356 206.657H166.791L166.67 208.928H168.578L168.508 210.01H165.481L165.837 202.075H169.017L168.934 203.264H166.925L166.855 205.521Z" fill="#263238"/>
<path d="M171.37 201.982C172.515 201.982 173.03 202.739 172.909 204.06V204.313H171.815L171.847 203.974C171.898 203.39 171.701 203.164 171.332 203.164C170.963 203.164 170.734 203.39 170.696 203.974C170.658 204.558 170.842 205.003 171.536 205.727C172.407 206.643 172.649 207.294 172.566 208.177C172.451 209.405 171.822 210.096 170.734 210.096C169.647 210.096 169.125 209.432 169.208 208.177L169.246 207.706H170.314L170.27 208.257C170.225 208.808 170.435 209 170.791 209C171.148 209 171.389 208.808 171.427 208.257C171.466 207.706 171.288 207.274 170.601 206.564C169.717 205.647 169.456 204.983 169.526 204.06C169.589 202.739 170.232 201.982 171.37 201.982Z" fill="#263238"/>
<path d="M162.581 82.0236L162.059 80.4632C161.89 80.0188 161.607 79.6313 161.242 79.3433C160.876 79.0552 160.442 78.8776 159.986 78.8298L145.841 76.9241C145.49 76.8539 145.126 76.9318 144.829 77.1408C144.532 77.3498 144.327 77.673 144.258 78.0396L144.073 79.5336L132.803 78.0197C132.616 77.9787 132.422 77.9824 132.236 78.0305C132.05 78.0786 131.877 78.1699 131.73 78.2975C131.582 78.4252 131.465 78.5859 131.385 78.7678C131.306 78.9496 131.266 79.1479 131.27 79.3477L135.284 122.601L211.604 132.873L225.99 92.0965C226.042 91.9047 226.051 91.7032 226.019 91.5069C225.986 91.3107 225.911 91.1246 225.8 90.9626C225.688 90.8007 225.544 90.6669 225.376 90.5712C225.209 90.4755 225.023 90.4204 224.832 90.41L162.581 82.0236Z" fill="white"/>
<mask id="mask7_493_6561" style="mask-type:luminance" maskUnits="userSpaceOnUse" x="131" y="76" width="96" height="57">
<path d="M162.581 82.0236L162.059 80.4632C161.89 80.0188 161.607 79.6313 161.242 79.3433C160.876 79.0552 160.442 78.8776 159.986 78.8298L145.841 76.9241C145.49 76.8539 145.126 76.9318 144.829 77.1408C144.532 77.3498 144.327 77.673 144.258 78.0396L144.073 79.5336L132.803 78.0197C132.616 77.9787 132.422 77.9824 132.236 78.0305C132.05 78.0786 131.877 78.1699 131.73 78.2975C131.582 78.4252 131.465 78.5859 131.385 78.7678C131.306 78.9496 131.266 79.1479 131.27 79.3477L135.284 122.601L211.604 132.873L225.99 92.0965C226.042 91.9047 226.051 91.7032 226.019 91.5069C225.986 91.3107 225.911 91.1246 225.8 90.9626C225.688 90.8007 225.544 90.6669 225.376 90.5712C225.209 90.4755 225.023 90.4204 224.832 90.41L162.581 82.0236Z" fill="white"/>
</mask>
<g mask="url(#mask7_493_6561)">
<path opacity="0.4" d="M162.581 82.0236L162.059 80.4632C161.89 80.0188 161.607 79.6313 161.242 79.3433C160.876 79.0552 160.442 78.8776 159.986 78.8298L145.841 76.9241C145.49 76.8539 145.126 76.9318 144.829 77.1408C144.532 77.3498 144.327 77.673 144.258 78.0396L144.073 79.5336L132.803 78.0197C132.616 77.9787 132.422 77.9824 132.236 78.0305C132.05 78.0786 131.877 78.1699 131.73 78.2975C131.582 78.4252 131.465 78.5859 131.385 78.7678C131.306 78.9496 131.266 79.1479 131.27 79.3477L135.284 122.601L211.604 132.873L225.99 92.0965C226.042 91.9047 226.051 91.7032 226.019 91.5069C225.986 91.3107 225.911 91.1246 225.8 90.9626C225.688 90.8007 225.544 90.6669 225.376 90.5712C225.209 90.4755 225.023 90.4204 224.832 90.41L162.581 82.0236Z" fill="#92E3A9"/>
</g>
<path d="M162.581 82.0236L162.059 80.4632C161.89 80.0188 161.607 79.6313 161.242 79.3433C160.876 79.0552 160.442 78.8776 159.986 78.8298L145.841 76.9241C145.49 76.8539 145.126 76.9318 144.829 77.1408C144.532 77.3498 144.327 77.673 144.258 78.0396L144.073 79.5336L132.803 78.0197C132.616 77.9787 132.422 77.9824 132.236 78.0305C132.05 78.0786 131.877 78.1699 131.73 78.2975C131.582 78.4252 131.465 78.5859 131.385 78.7678C131.306 78.9496 131.266 79.1479 131.27 79.3477L135.284 122.601L211.604 132.873L225.99 92.0965C226.042 91.9047 226.051 91.7032 226.019 91.5069C225.986 91.3107 225.911 91.1246 225.8 90.9626C225.688 90.8007 225.544 90.6669 225.376 90.5712C225.209 90.4755 225.023 90.4204 224.832 90.41L162.581 82.0236Z" stroke="#263238" stroke-linecap="round" stroke-linejoin="round"/>
<path d="M226.721 94.5469L213.696 131.472L212.691 134.314C212.456 134.88 212.045 135.348 211.525 135.642C211.005 135.936 210.406 136.039 209.823 135.934L136.269 126.027C135.68 125.973 135.125 125.714 134.694 125.291C134.263 124.869 133.98 124.307 133.891 123.697L129.979 81.5325C129.975 81.3327 130.014 81.1344 130.094 80.9526C130.174 80.7707 130.291 80.61 130.439 80.4823C130.586 80.3547 130.759 80.2634 130.945 80.2153C131.131 80.1672 131.325 80.1635 131.512 80.2045L194.107 88.6307L225.564 92.8604C225.754 92.8708 225.94 92.9259 226.108 93.0216C226.275 93.1173 226.42 93.2511 226.531 93.4131C226.642 93.575 226.717 93.7611 226.75 93.9574C226.783 94.1536 226.773 94.3551 226.721 94.5469Z" fill="white"/>
<mask id="mask8_493_6561" style="mask-type:luminance" maskUnits="userSpaceOnUse" x="129" y="80" width="98" height="56">
<path d="M226.721 94.5469L213.696 131.472L212.691 134.314C212.456 134.88 212.045 135.348 211.525 135.642C211.005 135.936 210.406 136.039 209.823 135.934L136.269 126.027C135.68 125.973 135.125 125.714 134.694 125.291C134.263 124.869 133.98 124.307 133.891 123.697L129.979 81.5325C129.975 81.3327 130.014 81.1344 130.094 80.9526C130.174 80.7707 130.291 80.61 130.439 80.4823C130.586 80.3547 130.759 80.2634 130.945 80.2153C131.131 80.1672 131.325 80.1635 131.512 80.2045L194.107 88.6307L225.564 92.8604C225.754 92.8708 225.94 92.9259 226.108 93.0216C226.275 93.1173 226.42 93.2511 226.531 93.4131C226.642 93.575 226.717 93.7611 226.75 93.9574C226.783 94.1536 226.773 94.3551 226.721 94.5469Z" fill="white"/>
</mask>
<g mask="url(#mask8_493_6561)">
<path opacity="0.3" d="M226.721 94.547L213.696 131.472C204.468 129.195 204.118 123.192 202.572 120.084C200.868 116.658 190.062 114.839 187.041 114.288C184.02 113.737 182.182 110.543 182.182 110.543C179.46 102.575 193.668 95.6028 193.668 95.6028C193.389 94.5072 193.802 90.9149 194.101 88.644L225.557 92.8737C225.747 92.8837 225.932 92.9379 226.099 93.0324C226.266 93.1269 226.411 93.2592 226.523 93.4197C226.634 93.5802 226.71 93.7648 226.744 93.9598C226.779 94.1549 226.771 94.3555 226.721 94.547Z" fill="black" fill-opacity="0.7"/>
</g>
<path d="M226.721 94.5469L213.696 131.472L212.691 134.314C212.456 134.88 212.045 135.348 211.525 135.642C211.005 135.936 210.406 136.039 209.823 135.934L136.269 126.027C135.68 125.973 135.125 125.714 134.694 125.291C134.263 124.869 133.98 124.307 133.891 123.697L129.979 81.5325C129.975 81.3327 130.014 81.1344 130.094 80.9526C130.174 80.7707 130.291 80.61 130.439 80.4823C130.586 80.3547 130.759 80.2634 130.945 80.2153C131.131 80.1672 131.325 80.1635 131.512 80.2045L194.107 88.6307L225.564 92.8604C225.754 92.8708 225.94 92.9259 226.108 93.0216C226.275 93.1173 226.42 93.2511 226.531 93.4131C226.642 93.575 226.717 93.7611 226.75 93.9574C226.783 94.1536 226.773 94.3551 226.721 94.5469Z" stroke="#263238" stroke-linecap="round" stroke-linejoin="round"/>
<path d="M143.812 92.8936L144.817 118.989L153.874 120.211L154.942 94.2083L143.812 92.8936Z" fill="#92E3A9" stroke="#263238" stroke-linecap="round" stroke-linejoin="round"/>
<path d="M149.339 117.07C149.454 116.608 149.475 116.127 149.399 115.656C149.323 115.186 149.153 114.738 148.9 114.341C148.386 113.552 147.767 112.844 147.062 112.236C148.113 112.865 149.275 113.267 150.478 113.418C150.478 112.057 149.206 111.114 148.118 110.397C148.367 110.296 148.634 110.254 148.901 110.275C149.167 110.295 149.425 110.378 149.657 110.516C149.673 110.305 149.64 110.093 149.562 109.898C149.483 109.703 149.361 109.53 149.206 109.394C149.346 109.52 149.562 109.321 149.555 109.135C149.521 108.949 149.445 108.773 149.333 108.624C149.162 108.222 149.094 107.78 149.136 107.342C149.136 105.782 149.18 104.215 149.199 102.654C149.221 102.797 149.281 102.93 149.374 103.038C149.466 103.145 149.587 103.222 149.721 103.259C149.721 102.641 149.651 102.024 149.594 101.406C149.454 99.8457 149.314 98.2787 149.167 96.7183" stroke="#263238" stroke-linecap="round" stroke-linejoin="round"/>
<path d="M293.196 177.739C293.196 177.739 241.871 129.799 238.602 126.777C235.333 123.756 232.941 123.889 231.18 122.05C229.418 120.21 228.534 118.902 221.366 119.028C214.198 119.155 204.633 115.091 202.496 113.643C200.359 112.196 197.338 113.252 195.322 112.435C193.306 111.618 188.154 112.335 185.006 112.435C181.858 112.535 181.61 109.181 182.869 105.37C184.128 101.559 193.681 99.2014 194.953 99.985C196.225 100.768 201.243 98.5441 201.243 98.5441C200.486 95.7818 200.741 89.0821 200.741 89.0821C200.741 89.0821 195.456 86.7182 193.446 85.9347C191.897 85.4471 190.275 85.2692 188.663 85.4102C188.663 85.4102 189.299 82.3956 190.298 81.2734C191.296 80.1513 196.085 79.1022 200.741 75.6892C205.396 72.2762 208.29 71.4861 209.009 71.745C209.727 72.004 214.923 73.5843 216.31 73.5843C217.696 73.5843 219.706 72.2563 221.716 72.668C223.726 73.0797 227.376 76.3466 229.011 76.7383C230.645 77.1301 231.148 77.4886 233.291 77.4886C234.232 77.4886 238.074 80.4169 238.074 80.4169C239.682 80.7376 241.246 81.2662 242.729 81.9906C245.114 83.1725 247.633 88.8231 248.765 90.6624C249.897 92.5017 250.037 96.9638 250.037 96.9638C250.037 96.9638 253.058 98.6702 254.19 101.034C255.322 103.398 297.012 126.777 297.012 126.777C297.012 126.777 303.582 153.663 293.196 177.739Z" fill="white"/>
<path opacity="0.4" d="M256.651 143.59C247.455 134.998 239.823 127.88 238.627 126.777C235.352 123.756 232.967 123.889 231.205 122.05C229.443 120.21 228.559 118.902 221.392 119.028C214.224 119.155 204.658 115.091 202.521 113.643C200.385 112.196 197.364 113.252 195.347 112.435C193.331 111.618 188.18 112.335 185.031 112.435C181.883 112.535 181.635 109.181 182.895 105.37C184.154 101.559 193.707 99.2014 194.979 99.985C196.251 100.768 201.269 98.5441 201.269 98.5441C200.512 95.7818 200.766 89.0821 200.766 89.0821C200.766 89.0821 195.481 86.7182 193.471 85.9347C191.923 85.4471 190.3 85.2692 188.688 85.4102C188.688 85.4102 189.324 82.3956 190.323 81.2734C191.322 80.1513 196.111 79.1022 200.766 75.6892C205.422 72.2762 208.315 71.4861 209.034 71.745C209.753 72.004 214.949 73.5843 216.335 73.5843C217.385 73.5843 218.803 72.8274 220.31 72.6348C219.089 73.3453 218.243 74.6998 218.472 75.4236C218.835 76.5657 219.859 79.474 219.916 79.6599C219.643 79.381 213.047 72.5817 208.786 72.9336C205.104 73.2324 201.364 79.7064 201.994 84.4606C202.623 89.2149 201.097 89.2149 201.924 92.7606C202.75 96.3064 203.501 101.3 202.242 103.272C200.982 105.244 198.47 101.738 198.47 101.738C197.527 102.278 196.736 103.068 196.178 104.029C195.62 104.989 195.314 106.086 195.29 107.209C195.29 111.021 199.106 111.28 201.358 111.678C203.609 112.076 211.915 116.824 217.588 117.076L223.261 117.322C223.261 117.322 219.986 112.674 221.353 112.435C222.721 112.196 226.887 112.621 229.621 117.083C232.356 121.545 234.455 122.534 239.524 124.726C242.52 125.981 250.419 134.885 256.651 143.59Z" fill="#92E3A9"/>
<path opacity="0.4" d="M281.786 118.125C281.017 117.747 256.346 105.609 255.106 103.796C253.866 101.984 252.339 101.539 250.953 99.7126C249.566 97.8866 244.917 96.7047 244.288 94.2081C243.658 91.7114 242.901 84.1352 241.744 83.1989C240.792 82.4701 239.784 81.8259 238.729 81.2733L240.599 86.1405C240.599 86.1405 236.338 79.8391 235.326 79.6665C234.315 79.4938 236.42 84.2481 236.236 84.102C236.051 83.9559 231.434 79.454 227.567 76.041C228.026 76.3301 228.52 76.5534 229.036 76.705C230.677 77.0968 231.173 77.4553 233.317 77.4553C234.258 77.4553 238.099 80.3836 238.099 80.3836C239.708 80.7043 241.272 81.2329 242.755 81.9573C245.14 83.1392 247.658 88.7898 248.79 90.6291C249.923 92.4684 250.062 96.9305 250.062 96.9305C250.062 96.9305 253.083 98.6369 254.216 101.001C254.896 102.435 269.772 111.206 281.786 118.125Z" fill="#92E3A9"/>
<path d="M293.196 177.739C293.196 177.739 241.871 129.799 238.602 126.777C235.333 123.756 232.941 123.889 231.18 122.05C229.418 120.21 228.534 118.902 221.366 119.028C214.198 119.155 204.633 115.091 202.496 113.643C200.359 112.196 197.338 113.252 195.322 112.435C193.306 111.618 188.154 112.335 185.006 112.435C181.858 112.535 181.61 109.181 182.869 105.37C184.128 101.559 193.681 99.2014 194.953 99.985C196.225 100.768 201.243 98.5441 201.243 98.5441C200.486 95.7818 200.741 89.0821 200.741 89.0821C200.741 89.0821 195.456 86.7182 193.446 85.9347C191.897 85.4471 190.275 85.2692 188.663 85.4102C188.663 85.4102 189.299 82.3956 190.298 81.2734C191.296 80.1513 196.085 79.1022 200.741 75.6892C205.396 72.2762 208.29 71.4861 209.009 71.745C209.727 72.004 214.923 73.5843 216.31 73.5843C217.696 73.5843 219.706 72.2563 221.716 72.668C223.726 73.0797 227.376 76.3466 229.011 76.7383C230.645 77.1301 231.148 77.4886 233.291 77.4886C234.232 77.4886 238.074 80.4169 238.074 80.4169C239.682 80.7376 241.246 81.2662 242.729 81.9906C245.114 83.1725 247.633 88.8231 248.765 90.6624C249.897 92.5017 250.037 96.9638 250.037 96.9638C250.037 96.9638 253.058 98.6702 254.19 101.034C255.322 103.398 297.012 126.777 297.012 126.777" stroke="#263238" stroke-linecap="round" stroke-linejoin="round"/>
<path d="M200.76 89.0823C200.76 89.0823 201.345 83.9163 200.76 83.1992" stroke="#263238" stroke-linecap="round" stroke-linejoin="round"/>
<path d="M216.272 76.4331C216.272 76.4331 224.832 83.9961 225.5 84.4609" stroke="#263238" stroke-linecap="round" stroke-linejoin="round"/>
<path d="M224.311 73.8896C225.487 74.6532 234.977 83.438 238.08 85.4499" stroke="#263238" stroke-linecap="round" stroke-linejoin="round"/>
<path d="M250.075 96.9441C249.153 96.3797 246.717 95.1513 246.469 94.1885" stroke="#263238" stroke-linecap="round" stroke-linejoin="round"/>
<path d="M201.262 98.5439C201.262 98.5439 201.765 100.689 201.262 101.738" stroke="#263238" stroke-linecap="round" stroke-linejoin="round"/>
<path d="M193.713 105.33C193.713 105.33 192.543 108.743 195.309 111.021" stroke="#263238" stroke-linecap="round" stroke-linejoin="round"/>
<path d="M205.123 72.9336C204.241 73.8986 203.656 75.1175 203.444 76.4329" stroke="#263238" stroke-linecap="round" stroke-linejoin="round"/>
<path d="M192.072 83.1992C192.35 83.9901 192.785 84.7107 193.348 85.3138C193.912 85.9168 194.591 86.3887 195.341 86.6985" stroke="#263238" stroke-linecap="round" stroke-linejoin="round"/>
<path d="M229.691 120.589C228.056 118.113 226.258 115.759 224.311 113.544" stroke="#263238" stroke-linecap="round" stroke-linejoin="round"/>
</svg>
