
<svg width="440" height="441" viewBox="0 0 440 441" fill="none" xmlns="http://www.w3.org/2000/svg">
<path d="M75.732 139.471C60.6559 158.169 50.962 185.643 58.3137 208.655C70.8755 247.983 124.182 250.947 160.692 255.498C185.854 258.638 210.872 276.886 232.392 288.211C261.072 303.311 307.208 327.134 340.286 311.663C367.704 298.848 382.445 267.846 390.858 242.127C404.042 201.854 405.313 153.274 376.614 118.188C337.552 70.5599 269.217 78.4979 212.44 86.6476C174.439 92.1072 137.499 97.4257 103.714 116.009C92.8062 122.057 83.2976 130.03 75.732 139.471Z" fill="#92E3A9"/>
<path opacity="0.4" d="M75.732 139.471C60.6559 158.169 50.962 185.643 58.3137 208.655C70.8755 247.983 124.182 250.947 160.692 255.498C185.854 258.638 210.872 276.886 232.392 288.211C261.072 303.311 307.208 327.134 340.286 311.663C367.704 298.848 382.445 267.846 390.858 242.127C404.042 201.854 405.313 153.274 376.614 118.188C337.552 70.5599 269.217 78.4979 212.44 86.6476C174.439 92.1072 137.499 97.4257 103.714 116.009C92.8062 122.057 83.2976 130.03 75.732 139.471Z" fill="white"/>
<path d="M31.6986 364.169C31.6986 367.309 118.991 369.858 226.723 369.858C334.454 369.858 421.747 367.309 421.747 364.169C421.747 361.029 334.454 358.48 226.77 358.48C119.087 358.48 31.6986 361.029 31.6986 364.169Z" fill="#92E3A9"/>
<path opacity="0.6" d="M31.6986 364.169C31.6986 367.309 118.991 369.858 226.723 369.858C334.454 369.858 421.747 367.309 421.747 364.169C421.747 361.029 334.454 358.48 226.77 358.48C119.087 358.48 31.6986 361.029 31.6986 364.169Z" fill="white"/>
<path d="M248.73 82.3789H75.5504V285.045H248.73V82.3789Z" fill="white" stroke="#263238" stroke-width="0.75" stroke-linecap="round" stroke-linejoin="round"/>
<path d="M248.73 82.3789H75.5504V94.4711H248.73V82.3789Z" fill="#263238" stroke="#263238" stroke-width="0.75" stroke-linecap="round" stroke-linejoin="round"/>
<path d="M109.756 223.728H80.4833V281.049H109.756V223.728Z" fill="#92E3A9"/>
<path opacity="0.6" d="M109.756 223.728H80.4833V281.049H109.756V223.728Z" fill="white"/>
<path d="M141.677 223.728H112.404V281.049H141.677V223.728Z" fill="#92E3A9"/>
<path opacity="0.6" d="M141.677 223.728H112.404V281.049H141.677V223.728Z" fill="white"/>
<path d="M175.596 223.728H146.323V281.049H175.596V223.728Z" fill="#92E3A9"/>
<path opacity="0.6" d="M175.596 223.728H146.323V281.049H175.596V223.728Z" fill="white"/>
<path d="M209.505 223.728H180.232V281.049H209.505V223.728Z" fill="#92E3A9"/>
<path opacity="0.6" d="M209.505 223.728H180.232V281.049H209.505V223.728Z" fill="white"/>
<path d="M244.246 223.728H214.973V281.049H244.246V223.728Z" fill="white" stroke="#263238" stroke-width="0.75" stroke-linecap="round" stroke-linejoin="round"/>
<path d="M243.778 87.1594H80.4929V101.051H243.778V87.1594Z" fill="#92E3A9"/>
<path opacity="0.6" d="M243.778 87.1594H80.4929V101.051H243.778V87.1594Z" fill="white"/>
<path d="M241.483 89.8582H83.4278V96.0057H241.483V89.8582Z" fill="white"/>
<path d="M241.474 89.8582H223.577V96.0057H241.474V89.8582Z" fill="#263238" stroke="#263238" stroke-width="0.75" stroke-linecap="round" stroke-linejoin="round"/>
<path d="M153.168 113.505H119.708C119.366 113.505 119.037 113.379 118.795 113.156C118.553 112.933 118.417 112.63 118.417 112.314C118.417 111.998 118.553 111.695 118.795 111.472C119.037 111.249 119.366 111.123 119.708 111.123H153.168C153.51 111.123 153.839 111.249 154.081 111.472C154.323 111.695 154.459 111.998 154.459 112.314C154.459 112.63 154.323 112.933 154.081 113.156C153.839 113.379 153.51 113.505 153.168 113.505Z" fill="#263238"/>
<path d="M153.168 121.804H119.708C119.53 121.818 119.35 121.798 119.181 121.745C119.012 121.692 118.856 121.607 118.725 121.495C118.593 121.384 118.488 121.248 118.416 121.097C118.344 120.946 118.306 120.783 118.306 120.618C118.306 120.453 118.344 120.29 118.416 120.139C118.488 119.988 118.593 119.852 118.725 119.741C118.856 119.629 119.012 119.544 119.181 119.491C119.35 119.438 119.53 119.417 119.708 119.432H153.168C153.49 119.457 153.79 119.593 154.008 119.813C154.226 120.033 154.348 120.32 154.348 120.618C154.348 120.916 154.226 121.203 154.008 121.423C153.79 121.643 153.49 121.779 153.168 121.804Z" fill="#263238"/>
<path d="M153.168 130.113H119.708C119.366 130.113 119.037 129.987 118.795 129.764C118.553 129.541 118.417 129.238 118.417 128.922C118.417 128.606 118.553 128.303 118.795 128.08C119.037 127.857 119.366 127.731 119.708 127.731H153.168C153.51 127.731 153.839 127.857 154.081 128.08C154.323 128.303 154.459 128.606 154.459 128.922C154.459 129.238 154.323 129.541 154.081 129.764C153.839 129.987 153.51 130.113 153.168 130.113Z" fill="#263238"/>
<path d="M153.168 138.412H83.7242C83.4023 138.387 83.1025 138.251 82.8841 138.031C82.6657 137.811 82.5445 137.524 82.5445 137.226C82.5445 136.928 82.6657 136.641 82.8841 136.421C83.1025 136.201 83.4023 136.065 83.7242 136.04H153.168C153.49 136.065 153.79 136.201 154.008 136.421C154.226 136.641 154.348 136.928 154.348 137.226C154.348 137.524 154.226 137.811 154.008 138.031C153.79 138.251 153.49 138.387 153.168 138.412Z" fill="#263238"/>
<path d="M153.168 146.721H83.7242C83.3819 146.721 83.0536 146.595 82.8116 146.372C82.5695 146.149 82.4336 145.846 82.4336 145.53C82.4336 145.214 82.5695 144.911 82.8116 144.688C83.0536 144.465 83.3819 144.339 83.7242 144.339H153.168C153.51 144.339 153.839 144.465 154.081 144.688C154.323 144.911 154.459 145.214 154.459 145.53C154.459 145.846 154.323 146.149 154.081 146.372C153.839 146.595 153.51 146.721 153.168 146.721Z" fill="#263238"/>
<path d="M153.168 155.029H83.7242C83.3819 155.029 83.0536 154.904 82.8116 154.681C82.5695 154.457 82.4336 154.154 82.4336 153.839C82.4336 153.523 82.5695 153.22 82.8116 152.997C83.0536 152.773 83.3819 152.648 83.7242 152.648H153.168C153.51 152.648 153.839 152.773 154.081 152.997C154.323 153.22 154.459 153.523 154.459 153.839C154.459 154.154 154.323 154.457 154.081 154.681C153.839 154.904 153.51 155.029 153.168 155.029Z" fill="#263238"/>
<path d="M153.168 163.329H83.7242C83.4023 163.303 83.1025 163.167 82.8841 162.948C82.6657 162.728 82.5445 162.441 82.5445 162.143C82.5445 161.845 82.6657 161.557 82.8841 161.338C83.1025 161.118 83.4023 160.982 83.7242 160.956H153.168C153.49 160.982 153.79 161.118 154.008 161.338C154.226 161.557 154.348 161.845 154.348 162.143C154.348 162.441 154.226 162.728 154.008 162.948C153.79 163.167 153.49 163.303 153.168 163.329Z" fill="#263238"/>
<path d="M153.168 170.711H83.7242C83.4023 170.686 83.1025 170.549 82.8841 170.33C82.6657 170.11 82.5445 169.823 82.5445 169.525C82.5445 169.227 82.6657 168.94 82.8841 168.72C83.1025 168.5 83.4023 168.364 83.7242 168.339H153.168C153.49 168.364 153.79 168.5 154.008 168.72C154.226 168.94 154.348 169.227 154.348 169.525C154.348 169.823 154.226 170.11 154.008 170.33C153.79 170.549 153.49 170.686 153.168 170.711Z" fill="#263238"/>
<path d="M153.168 179.046H83.7242C83.3819 179.046 83.0536 178.921 82.8116 178.697C82.5695 178.474 82.4336 178.171 82.4336 177.855C82.4336 177.54 82.5695 177.237 82.8116 177.014C83.0536 176.79 83.3819 176.665 83.7242 176.665H153.168C153.51 176.665 153.839 176.79 154.081 177.014C154.323 177.237 154.459 177.54 154.459 177.855C154.459 178.171 154.323 178.474 154.081 178.697C153.839 178.921 153.51 179.046 153.168 179.046Z" fill="#263238"/>
<path d="M153.168 187.319H83.7242C83.4023 187.294 83.1025 187.158 82.8841 186.938C82.6657 186.718 82.5445 186.431 82.5445 186.133C82.5445 185.835 82.6657 185.548 82.8841 185.328C83.1025 185.108 83.4023 184.972 83.7242 184.947H153.168C153.49 184.972 153.79 185.108 154.008 185.328C154.226 185.548 154.348 185.835 154.348 186.133C154.348 186.431 154.226 186.718 154.008 186.938C153.79 187.158 153.49 187.294 153.168 187.319Z" fill="#263238"/>
<path d="M153.168 195.628H83.7242C83.3819 195.628 83.0536 195.502 82.8116 195.279C82.5695 195.056 82.4336 194.753 82.4336 194.437C82.4336 194.121 82.5695 193.818 82.8116 193.595C83.0536 193.372 83.3819 193.246 83.7242 193.246H153.168C153.51 193.246 153.839 193.372 154.081 193.595C154.323 193.818 154.459 194.121 154.459 194.437C154.459 194.753 154.323 195.056 154.081 195.279C153.839 195.502 153.51 195.628 153.168 195.628Z" fill="#263238"/>
<path d="M153.168 203.927H83.7242C83.4023 203.902 83.1025 203.766 82.8841 203.546C82.6657 203.326 82.5445 203.039 82.5445 202.741C82.5445 202.443 82.6657 202.156 82.8841 201.936C83.1025 201.716 83.4023 201.58 83.7242 201.555H153.168C153.49 201.58 153.79 201.716 154.008 201.936C154.226 202.156 154.348 202.443 154.348 202.741C154.348 203.039 154.226 203.326 154.008 203.546C153.79 203.766 153.49 203.902 153.168 203.927Z" fill="#263238"/>
<path d="M153.168 212.236H83.7242C83.4023 212.21 83.1025 212.074 82.8841 211.855C82.6657 211.635 82.5445 211.348 82.5445 211.05C82.5445 210.752 82.6657 210.464 82.8841 210.245C83.1025 210.025 83.4023 209.889 83.7242 209.863H153.168C153.49 209.889 153.79 210.025 154.008 210.245C154.226 210.464 154.348 210.752 154.348 211.05C154.348 211.348 154.226 211.635 154.008 211.855C153.79 212.074 153.49 212.21 153.168 212.236Z" fill="#263238"/>
<path d="M242.554 113.505H173.139C172.797 113.505 172.468 113.379 172.226 113.156C171.984 112.933 171.848 112.63 171.848 112.314C171.848 111.998 171.984 111.695 172.226 111.472C172.468 111.249 172.797 111.123 173.139 111.123H242.554C242.896 111.123 243.225 111.249 243.467 111.472C243.709 111.695 243.845 111.998 243.845 112.314C243.845 112.63 243.709 112.933 243.467 113.156C243.225 113.379 242.896 113.505 242.554 113.505Z" fill="#263238"/>
<path d="M242.554 121.804H173.139C172.961 121.818 172.781 121.798 172.612 121.745C172.443 121.692 172.287 121.607 172.155 121.495C172.024 121.384 171.918 121.248 171.846 121.097C171.774 120.946 171.737 120.783 171.737 120.618C171.737 120.453 171.774 120.29 171.846 120.139C171.918 119.988 172.024 119.852 172.155 119.741C172.287 119.629 172.443 119.544 172.612 119.491C172.781 119.438 172.961 119.417 173.139 119.432H242.554C242.732 119.417 242.912 119.438 243.081 119.491C243.25 119.544 243.406 119.629 243.537 119.741C243.669 119.852 243.774 119.988 243.846 120.139C243.918 120.29 243.956 120.453 243.956 120.618C243.956 120.783 243.918 120.946 243.846 121.097C243.774 121.248 243.669 121.384 243.537 121.495C243.406 121.607 243.25 121.692 243.081 121.745C242.912 121.798 242.732 121.818 242.554 121.804Z" fill="#263238"/>
<path d="M242.554 130.113H173.139C172.797 130.113 172.468 129.987 172.226 129.764C171.984 129.541 171.848 129.238 171.848 128.922C171.848 128.606 171.984 128.303 172.226 128.08C172.468 127.857 172.797 127.731 173.139 127.731H242.554C242.896 127.731 243.225 127.857 243.467 128.08C243.709 128.303 243.845 128.606 243.845 128.922C243.845 129.238 243.709 129.541 243.467 129.764C243.225 129.987 242.896 130.113 242.554 130.113Z" fill="#263238"/>
<path d="M242.554 138.412H173.139C172.961 138.427 172.781 138.406 172.612 138.353C172.443 138.3 172.287 138.215 172.155 138.103C172.024 137.992 171.918 137.856 171.846 137.705C171.774 137.554 171.737 137.391 171.737 137.226C171.737 137.061 171.774 136.898 171.846 136.747C171.918 136.596 172.024 136.46 172.155 136.349C172.287 136.237 172.443 136.152 172.612 136.099C172.781 136.046 172.961 136.026 173.139 136.04H242.554C242.732 136.026 242.912 136.046 243.081 136.099C243.25 136.152 243.406 136.237 243.537 136.349C243.669 136.46 243.774 136.596 243.846 136.747C243.918 136.898 243.956 137.061 243.956 137.226C243.956 137.391 243.918 137.554 243.846 137.705C243.774 137.856 243.669 137.992 243.537 138.103C243.406 138.215 243.25 138.3 243.081 138.353C242.912 138.406 242.732 138.427 242.554 138.412Z" fill="#263238"/>
<path d="M242.554 146.721H173.139C172.797 146.721 172.468 146.595 172.226 146.372C171.984 146.149 171.848 145.846 171.848 145.53C171.848 145.214 171.984 144.911 172.226 144.688C172.468 144.465 172.797 144.339 173.139 144.339H242.554C242.896 144.339 243.225 144.465 243.467 144.688C243.709 144.911 243.845 145.214 243.845 145.53C243.845 145.846 243.709 146.149 243.467 146.372C243.225 146.595 242.896 146.721 242.554 146.721Z" fill="#263238"/>
<path d="M242.554 155.029H173.139C172.969 155.029 172.802 154.999 172.645 154.939C172.488 154.879 172.346 154.791 172.226 154.681C172.106 154.57 172.011 154.439 171.946 154.294C171.882 154.15 171.848 153.995 171.848 153.839C171.848 153.682 171.882 153.527 171.946 153.383C172.011 153.239 172.106 153.107 172.226 152.997C172.346 152.886 172.488 152.798 172.645 152.739C172.802 152.679 172.969 152.648 173.139 152.648H242.554C242.723 152.648 242.891 152.679 243.048 152.739C243.204 152.798 243.347 152.886 243.467 152.997C243.586 153.107 243.681 153.239 243.746 153.383C243.811 153.527 243.845 153.682 243.845 153.839C243.845 153.995 243.811 154.15 243.746 154.294C243.681 154.439 243.586 154.57 243.467 154.681C243.347 154.791 243.204 154.879 243.048 154.939C242.891 154.999 242.723 155.029 242.554 155.029Z" fill="#263238"/>
<path d="M242.554 163.329H173.139C172.961 163.343 172.781 163.323 172.612 163.27C172.443 163.217 172.287 163.132 172.155 163.02C172.024 162.908 171.918 162.773 171.846 162.622C171.774 162.471 171.737 162.308 171.737 162.143C171.737 161.978 171.774 161.814 171.846 161.663C171.918 161.512 172.024 161.377 172.155 161.265C172.287 161.154 172.443 161.069 172.612 161.015C172.781 160.962 172.961 160.942 173.139 160.956H242.554C242.732 160.942 242.912 160.962 243.081 161.015C243.25 161.069 243.406 161.154 243.537 161.265C243.669 161.377 243.774 161.512 243.846 161.663C243.918 161.814 243.956 161.978 243.956 162.143C243.956 162.308 243.918 162.471 243.846 162.622C243.774 162.773 243.669 162.908 243.537 163.02C243.406 163.132 243.25 163.217 243.081 163.27C242.912 163.323 242.732 163.343 242.554 163.329Z" fill="#263238"/>
<path d="M243.806 168.912H173.062V214.432H243.806V168.912Z" fill="#92E3A9"/>
<path opacity="0.6" d="M243.806 168.912H173.062V214.432H243.806V168.912Z" fill="white"/>
<path d="M107.93 115.86C108.126 115.307 108.229 114.73 108.236 114.149C108.236 112.023 105.903 111.899 103.599 111.899H103.026V111.397H113.016V111.899C110.416 111.899 109.498 113.425 108.657 115.71L103.341 130.404C102.94 131.489 102.605 132.3 101.353 132.3H101.248L96.5537 118.268L92.1561 130.404C91.745 131.489 91.4104 132.3 90.158 132.3H90.072L83.2462 111.899H80.8466V111.397H89.6322V111.899H87.1371L92.2039 127.996H92.4046L96.2286 117.262L94.4409 111.899H92.0414V111.397H100.827V111.899H98.3223L103.399 127.996H103.599L107.93 115.86Z" fill="#263238"/>
<path d="M268.529 106.193H196.427V284.63H268.529V106.193Z" fill="#92E3A9"/>
<path opacity="0.4" d="M268.529 106.193H196.427V284.63H268.529V106.193Z" fill="white"/>
<path d="M374.998 99.5161H201.819V302.182H374.998V99.5161Z" fill="white" stroke="#263238" stroke-width="0.75" stroke-linecap="round" stroke-linejoin="round"/>
<path d="M374.998 99.5161H201.819V111.608H374.998V99.5161Z" fill="#263238" stroke="#263238" stroke-width="0.75" stroke-linecap="round" stroke-linejoin="round"/>
<path d="M320.965 128.217H260.154V233.095H320.965V128.217Z" fill="#92E3A9"/>
<path opacity="0.6" d="M320.965 128.217H260.154V233.095H320.965V128.217Z" fill="white"/>
<path d="M370.056 240.857H206.771V298.178H370.056V240.857Z" fill="#92E3A9"/>
<path opacity="0.6" d="M370.056 240.857H206.771V298.178H370.056V240.857Z" fill="white"/>
<path d="M370.056 104.297H206.771V118.188H370.056V104.297Z" fill="#92E3A9"/>
<path opacity="0.6" d="M370.056 104.297H206.771V118.188H370.056V104.297Z" fill="white"/>
<path d="M367.761 106.996H209.706V113.143H367.761V106.996Z" fill="white"/>
<path d="M367.752 106.996H349.855V113.143H367.752V106.996Z" fill="#263238" stroke="#263238" stroke-width="0.75" stroke-linecap="round" stroke-linejoin="round"/>
<path d="M249.934 130.633H208.262C208.084 130.647 207.905 130.627 207.735 130.574C207.566 130.521 207.411 130.436 207.279 130.324C207.147 130.213 207.042 130.077 206.97 129.926C206.898 129.775 206.861 129.612 206.861 129.447C206.861 129.282 206.898 129.119 206.97 128.968C207.042 128.817 207.147 128.681 207.279 128.569C207.411 128.458 207.566 128.373 207.735 128.32C207.905 128.266 208.084 128.246 208.262 128.261H249.934C250.113 128.246 250.292 128.266 250.461 128.32C250.631 128.373 250.786 128.458 250.918 128.569C251.05 128.681 251.155 128.817 251.227 128.968C251.299 129.119 251.336 129.282 251.336 129.447C251.336 129.612 251.299 129.775 251.227 129.926C251.155 130.077 251.05 130.213 250.918 130.324C250.786 130.436 250.631 130.521 250.461 130.574C250.292 130.627 250.113 130.647 249.934 130.633Z" fill="#263238"/>
<path d="M249.934 138.941H208.262C207.92 138.941 207.592 138.816 207.35 138.593C207.108 138.369 206.972 138.067 206.972 137.751C206.972 137.435 207.108 137.132 207.35 136.909C207.592 136.686 207.92 136.56 208.262 136.56H249.934C250.277 136.56 250.605 136.686 250.847 136.909C251.089 137.132 251.225 137.435 251.225 137.751C251.225 138.067 251.089 138.369 250.847 138.593C250.605 138.816 250.277 138.941 249.934 138.941Z" fill="#263238"/>
<path d="M249.934 147.241H208.262C208.084 147.255 207.905 147.235 207.735 147.182C207.566 147.129 207.411 147.044 207.279 146.932C207.147 146.821 207.042 146.685 206.97 146.534C206.898 146.383 206.861 146.22 206.861 146.055C206.861 145.89 206.898 145.727 206.97 145.576C207.042 145.425 207.147 145.289 207.279 145.178C207.411 145.066 207.566 144.981 207.735 144.928C207.905 144.875 208.084 144.854 208.262 144.869H249.934C250.113 144.854 250.292 144.875 250.461 144.928C250.631 144.981 250.786 145.066 250.918 145.178C251.05 145.289 251.155 145.425 251.227 145.576C251.299 145.727 251.336 145.89 251.336 146.055C251.336 146.22 251.299 146.383 251.227 146.534C251.155 146.685 251.05 146.821 250.918 146.932C250.786 147.044 250.631 147.129 250.461 147.182C250.292 147.235 250.113 147.255 249.934 147.241Z" fill="#263238"/>
<path d="M249.934 155.55H208.262C208.093 155.55 207.925 155.519 207.768 155.459C207.612 155.399 207.47 155.311 207.35 155.201C207.23 155.09 207.135 154.959 207.07 154.815C207.005 154.67 206.972 154.515 206.972 154.359C206.972 154.203 207.005 154.048 207.07 153.903C207.135 153.759 207.23 153.628 207.35 153.517C207.47 153.406 207.612 153.319 207.768 153.259C207.925 153.199 208.093 153.168 208.262 153.168H249.934C250.277 153.168 250.605 153.294 250.847 153.517C251.089 153.74 251.225 154.043 251.225 154.359C251.225 154.675 251.089 154.978 250.847 155.201C250.605 155.424 250.277 155.55 249.934 155.55Z" fill="#263238"/>
<path d="M249.934 163.849H208.262C208.084 163.863 207.905 163.843 207.735 163.79C207.566 163.737 207.411 163.652 207.279 163.54C207.147 163.429 207.042 163.293 206.97 163.142C206.898 162.991 206.861 162.828 206.861 162.663C206.861 162.498 206.898 162.335 206.97 162.184C207.042 162.033 207.147 161.897 207.279 161.785C207.411 161.674 207.566 161.589 207.735 161.536C207.905 161.483 208.084 161.462 208.262 161.477H249.934C250.113 161.462 250.292 161.483 250.461 161.536C250.631 161.589 250.786 161.674 250.918 161.785C251.05 161.897 251.155 162.033 251.227 162.184C251.299 162.335 251.336 162.498 251.336 162.663C251.336 162.828 251.299 162.991 251.227 163.142C251.155 163.293 251.05 163.429 250.918 163.54C250.786 163.652 250.631 163.737 250.461 163.79C250.292 163.843 250.113 163.863 249.934 163.849Z" fill="#263238"/>
<path d="M249.934 172.158H208.262C208.084 172.172 207.905 172.152 207.735 172.099C207.566 172.045 207.411 171.96 207.279 171.849C207.147 171.737 207.042 171.602 206.97 171.451C206.898 171.3 206.861 171.136 206.861 170.971C206.861 170.806 206.898 170.643 206.97 170.492C207.042 170.341 207.147 170.206 207.279 170.094C207.411 169.983 207.566 169.897 207.735 169.844C207.905 169.791 208.084 169.771 208.262 169.785H249.934C250.113 169.771 250.292 169.791 250.461 169.844C250.631 169.897 250.786 169.983 250.918 170.094C251.05 170.206 251.155 170.341 251.227 170.492C251.299 170.643 251.336 170.806 251.336 170.971C251.336 171.136 251.299 171.3 251.227 171.451C251.155 171.602 251.05 171.737 250.918 171.849C250.786 171.96 250.631 172.045 250.461 172.099C250.292 172.152 250.113 172.172 249.934 172.158Z" fill="#263238"/>
<path d="M249.934 180.466H208.262C208.093 180.466 207.925 180.435 207.768 180.375C207.612 180.316 207.47 180.228 207.35 180.117C207.23 180.007 207.135 179.876 207.07 179.731C207.005 179.587 206.972 179.432 206.972 179.275C206.972 179.119 207.005 178.964 207.07 178.82C207.135 178.675 207.23 178.544 207.35 178.433C207.47 178.323 207.612 178.235 207.768 178.175C207.925 178.116 208.093 178.085 208.262 178.085H249.934C250.277 178.085 250.605 178.21 250.847 178.433C251.089 178.657 251.225 178.96 251.225 179.275C251.225 179.591 251.089 179.894 250.847 180.117C250.605 180.341 250.277 180.466 249.934 180.466Z" fill="#263238"/>
<path d="M249.934 187.866H208.262C207.92 187.866 207.592 187.741 207.35 187.517C207.108 187.294 206.972 186.991 206.972 186.675C206.972 186.36 207.108 186.057 207.35 185.833C207.592 185.61 207.92 185.485 208.262 185.485H249.934C250.277 185.485 250.605 185.61 250.847 185.833C251.089 186.057 251.225 186.36 251.225 186.675C251.225 186.991 251.089 187.294 250.847 187.517C250.605 187.741 250.277 187.866 249.934 187.866Z" fill="#263238"/>
<path d="M249.934 196.148H208.262C208.084 196.162 207.905 196.142 207.735 196.089C207.566 196.036 207.411 195.951 207.279 195.839C207.147 195.728 207.042 195.592 206.97 195.441C206.898 195.29 206.861 195.127 206.861 194.962C206.861 194.797 206.898 194.634 206.97 194.482C207.042 194.331 207.147 194.196 207.279 194.084C207.411 193.973 207.566 193.888 207.735 193.835C207.905 193.781 208.084 193.761 208.262 193.775H249.934C250.113 193.761 250.292 193.781 250.461 193.835C250.631 193.888 250.786 193.973 250.918 194.084C251.05 194.196 251.155 194.331 251.227 194.482C251.299 194.634 251.336 194.797 251.336 194.962C251.336 195.127 251.299 195.29 251.227 195.441C251.155 195.592 251.05 195.728 250.918 195.839C250.786 195.951 250.631 196.036 250.461 196.089C250.292 196.142 250.113 196.162 249.934 196.148Z" fill="#263238"/>
<path d="M249.934 204.457H208.262C207.92 204.457 207.592 204.331 207.35 204.108C207.108 203.885 206.972 203.582 206.972 203.266C206.972 202.95 207.108 202.647 207.35 202.424C207.592 202.201 207.92 202.075 208.262 202.075H249.934C250.277 202.075 250.605 202.201 250.847 202.424C251.089 202.647 251.225 202.95 251.225 203.266C251.225 203.582 251.089 203.885 250.847 204.108C250.605 204.331 250.277 204.457 249.934 204.457Z" fill="#263238"/>
<path d="M249.934 212.756H208.262C208.084 212.77 207.905 212.75 207.735 212.697C207.566 212.644 207.411 212.559 207.279 212.447C207.147 212.336 207.042 212.2 206.97 212.049C206.898 211.898 206.861 211.735 206.861 211.57C206.861 211.405 206.898 211.242 206.97 211.091C207.042 210.94 207.147 210.804 207.279 210.692C207.411 210.581 207.566 210.496 207.735 210.443C207.905 210.39 208.084 210.369 208.262 210.384H249.934C250.113 210.369 250.292 210.39 250.461 210.443C250.631 210.496 250.786 210.581 250.918 210.692C251.05 210.804 251.155 210.94 251.227 211.091C251.299 211.242 251.336 211.405 251.336 211.57C251.336 211.735 251.299 211.898 251.227 212.049C251.155 212.2 251.05 212.336 250.918 212.447C250.786 212.559 250.631 212.644 250.461 212.697C250.292 212.75 250.113 212.77 249.934 212.756Z" fill="#263238"/>
<path d="M249.934 221.065H208.262C207.92 221.065 207.592 220.939 207.35 220.716C207.108 220.492 206.972 220.19 206.972 219.874C206.972 219.558 207.108 219.255 207.35 219.032C207.592 218.809 207.92 218.683 208.262 218.683H249.934C250.277 218.683 250.605 218.809 250.847 219.032C251.089 219.255 251.225 219.558 251.225 219.874C251.225 220.19 251.089 220.492 250.847 220.716C250.605 220.939 250.277 221.065 249.934 221.065Z" fill="#263238"/>
<path d="M249.934 229.364H208.262C208.084 229.378 207.905 229.358 207.735 229.305C207.566 229.252 207.411 229.167 207.279 229.055C207.147 228.944 207.042 228.808 206.97 228.657C206.898 228.506 206.861 228.343 206.861 228.178C206.861 228.013 206.898 227.85 206.97 227.699C207.042 227.548 207.147 227.412 207.279 227.301C207.411 227.189 207.566 227.104 207.735 227.051C207.905 226.998 208.084 226.978 208.262 226.992H249.934C250.113 226.978 250.292 226.998 250.461 227.051C250.631 227.104 250.786 227.189 250.918 227.301C251.05 227.412 251.155 227.548 251.227 227.699C251.299 227.85 251.336 228.013 251.336 228.178C251.336 228.343 251.299 228.506 251.227 228.657C251.155 228.808 251.05 228.944 250.918 229.055C250.786 229.167 250.631 229.252 250.461 229.305C250.292 229.358 250.113 229.378 249.934 229.364Z" fill="#263238"/>
<path d="M249.934 237.673H208.262C208.084 237.687 207.905 237.667 207.735 237.614C207.566 237.56 207.411 237.475 207.279 237.364C207.147 237.252 207.042 237.117 206.97 236.966C206.898 236.815 206.861 236.651 206.861 236.486C206.861 236.321 206.898 236.158 206.97 236.007C207.042 235.856 207.147 235.72 207.279 235.609C207.411 235.497 207.566 235.412 207.735 235.359C207.905 235.306 208.084 235.286 208.262 235.3H249.934C250.113 235.286 250.292 235.306 250.461 235.359C250.631 235.412 250.786 235.497 250.918 235.609C251.05 235.72 251.155 235.856 251.227 236.007C251.299 236.158 251.336 236.321 251.336 236.486C251.336 236.651 251.299 236.815 251.227 236.966C251.155 237.117 251.05 237.252 250.918 237.364C250.786 237.475 250.631 237.56 250.461 237.614C250.292 237.667 250.113 237.687 249.934 237.673Z" fill="#263238"/>
<path d="M369.74 130.633H328.116C327.938 130.647 327.758 130.627 327.589 130.574C327.42 130.521 327.264 130.436 327.133 130.324C327.001 130.213 326.896 130.077 326.824 129.926C326.752 129.775 326.714 129.612 326.714 129.447C326.714 129.282 326.752 129.119 326.824 128.968C326.896 128.817 327.001 128.681 327.133 128.569C327.264 128.458 327.42 128.373 327.589 128.32C327.758 128.266 327.938 128.246 328.116 128.261H369.788C369.966 128.246 370.146 128.266 370.315 128.32C370.484 128.373 370.64 128.458 370.771 128.569C370.903 128.681 371.009 128.817 371.08 128.968C371.152 129.119 371.19 129.282 371.19 129.447C371.19 129.612 371.152 129.775 371.08 129.926C371.009 130.077 370.903 130.213 370.771 130.324C370.64 130.436 370.484 130.521 370.315 130.574C370.146 130.627 369.966 130.647 369.788 130.633H369.74Z" fill="#263238"/>
<path d="M369.74 138.941H328.116C327.947 138.941 327.779 138.911 327.622 138.851C327.466 138.791 327.323 138.703 327.203 138.593C327.084 138.482 326.989 138.351 326.924 138.206C326.859 138.062 326.825 137.907 326.825 137.751C326.825 137.594 326.859 137.44 326.924 137.295C326.989 137.151 327.084 137.019 327.203 136.909C327.323 136.798 327.466 136.711 327.622 136.651C327.779 136.591 327.947 136.56 328.116 136.56H369.788C370.13 136.56 370.459 136.686 370.701 136.909C370.943 137.132 371.079 137.435 371.079 137.751C371.079 138.067 370.943 138.369 370.701 138.593C370.459 138.816 370.13 138.941 369.788 138.941H369.74Z" fill="#263238"/>
<path d="M369.74 147.241H328.116C327.938 147.255 327.758 147.235 327.589 147.182C327.42 147.129 327.264 147.044 327.133 146.932C327.001 146.821 326.896 146.685 326.824 146.534C326.752 146.383 326.714 146.22 326.714 146.055C326.714 145.89 326.752 145.727 326.824 145.576C326.896 145.425 327.001 145.289 327.133 145.178C327.264 145.066 327.42 144.981 327.589 144.928C327.758 144.875 327.938 144.854 328.116 144.869H369.788C369.966 144.854 370.146 144.875 370.315 144.928C370.484 144.981 370.64 145.066 370.771 145.178C370.903 145.289 371.009 145.425 371.08 145.576C371.152 145.727 371.19 145.89 371.19 146.055C371.19 146.22 371.152 146.383 371.08 146.534C371.009 146.685 370.903 146.821 370.771 146.932C370.64 147.044 370.484 147.129 370.315 147.182C370.146 147.235 369.966 147.255 369.788 147.241H369.74Z" fill="#263238"/>
<path d="M369.74 155.55H328.116C327.947 155.55 327.779 155.519 327.622 155.459C327.466 155.399 327.323 155.311 327.203 155.201C327.084 155.09 326.989 154.959 326.924 154.815C326.859 154.67 326.825 154.515 326.825 154.359C326.825 154.203 326.859 154.048 326.924 153.903C326.989 153.759 327.084 153.628 327.203 153.517C327.323 153.406 327.466 153.319 327.622 153.259C327.779 153.199 327.947 153.168 328.116 153.168H369.788C370.13 153.168 370.459 153.294 370.701 153.517C370.943 153.74 371.079 154.043 371.079 154.359C371.079 154.675 370.943 154.978 370.701 155.201C370.459 155.424 370.13 155.55 369.788 155.55H369.74Z" fill="#263238"/>
<path d="M369.74 163.849H328.116C327.938 163.863 327.758 163.843 327.589 163.79C327.42 163.737 327.264 163.652 327.133 163.54C327.001 163.429 326.896 163.293 326.824 163.142C326.752 162.991 326.714 162.828 326.714 162.663C326.714 162.498 326.752 162.335 326.824 162.184C326.896 162.033 327.001 161.897 327.133 161.785C327.264 161.674 327.42 161.589 327.589 161.536C327.758 161.483 327.938 161.462 328.116 161.477H369.788C369.966 161.462 370.146 161.483 370.315 161.536C370.484 161.589 370.64 161.674 370.771 161.785C370.903 161.897 371.009 162.033 371.08 162.184C371.152 162.335 371.19 162.498 371.19 162.663C371.19 162.828 371.152 162.991 371.08 163.142C371.009 163.293 370.903 163.429 370.771 163.54C370.64 163.652 370.484 163.737 370.315 163.79C370.146 163.843 369.966 163.863 369.788 163.849H369.74Z" fill="#263238"/>
<path d="M369.74 172.158H328.116C327.938 172.172 327.758 172.152 327.589 172.099C327.42 172.045 327.264 171.96 327.133 171.849C327.001 171.737 326.896 171.602 326.824 171.451C326.752 171.3 326.714 171.136 326.714 170.971C326.714 170.806 326.752 170.643 326.824 170.492C326.896 170.341 327.001 170.206 327.133 170.094C327.264 169.983 327.42 169.897 327.589 169.844C327.758 169.791 327.938 169.771 328.116 169.785H369.788C369.966 169.771 370.146 169.791 370.315 169.844C370.484 169.897 370.64 169.983 370.771 170.094C370.903 170.206 371.009 170.341 371.08 170.492C371.152 170.643 371.19 170.806 371.19 170.971C371.19 171.136 371.152 171.3 371.08 171.451C371.009 171.602 370.903 171.737 370.771 171.849C370.64 171.96 370.484 172.045 370.315 172.099C370.146 172.152 369.966 172.172 369.788 172.158H369.74Z" fill="#263238"/>
<path d="M369.74 180.466H328.116C327.947 180.466 327.779 180.435 327.622 180.375C327.466 180.316 327.323 180.228 327.203 180.117C327.084 180.007 326.989 179.876 326.924 179.731C326.859 179.587 326.825 179.432 326.825 179.275C326.825 179.119 326.859 178.964 326.924 178.82C326.989 178.675 327.084 178.544 327.203 178.433C327.323 178.323 327.466 178.235 327.622 178.175C327.779 178.116 327.947 178.085 328.116 178.085H369.788C370.13 178.085 370.459 178.21 370.701 178.433C370.943 178.657 371.079 178.96 371.079 179.275C371.079 179.591 370.943 179.894 370.701 180.117C370.459 180.341 370.13 180.466 369.788 180.466H369.74Z" fill="#263238"/>
<path d="M370.084 186.04H327.074V231.56H370.084V186.04Z" fill="#92E3A9"/>
<path opacity="0.6" d="M370.084 186.04H327.074V231.56H370.084V186.04Z" fill="white"/>
<path d="M391.527 268.472C391.269 259.511 392.025 244.217 383.497 237.92C376.012 232.389 370.19 239.895 368.096 245.946C363 260.631 363.545 315.897 364.865 327.028C364.865 327.028 363.564 315.88 354.071 320.66C344.578 325.44 358.851 350.533 358.851 350.533C358.851 350.533 347.628 342.966 342.446 349.334C337.265 355.702 348.928 362.881 348.928 362.881C348.928 362.881 338.135 360.094 338.135 362.881C338.135 365.668 341.586 368.059 351.519 369.258H405.055C405.055 369.258 413.659 364.848 411.967 360.094C410.275 355.34 401.135 358.092 401.135 358.092C401.135 358.092 414.949 342.56 414.08 335.786C413.21 329.013 395.514 336.977 395.514 336.977C395.514 336.977 409.338 304.713 406.747 290.372C404.701 279.074 395.199 286.844 390.027 291.148C391.243 283.644 391.745 276.057 391.527 268.472Z" fill="#92E3A9"/>
<path opacity="0.1" d="M391.527 268.472C391.269 259.511 392.025 244.217 383.497 237.92C376.012 232.389 370.19 239.895 368.096 245.946C363 260.631 363.545 315.897 364.865 327.028C364.865 327.028 363.564 315.88 354.071 320.66C344.578 325.44 358.851 350.533 358.851 350.533C358.851 350.533 347.628 342.966 342.446 349.334C337.265 355.702 348.928 362.881 348.928 362.881C348.928 362.881 338.135 360.094 338.135 362.881C338.135 365.668 341.586 368.059 351.519 369.258H405.055C405.055 369.258 413.659 364.848 411.967 360.094C410.275 355.34 401.135 358.092 401.135 358.092C401.135 358.092 414.949 342.56 414.08 335.786C413.21 329.013 395.514 336.977 395.514 336.977C395.514 336.977 409.338 304.713 406.747 290.372C404.701 279.074 395.199 286.844 390.027 291.148C391.243 283.644 391.745 276.057 391.527 268.472Z" fill="black"/>
<path d="M374.31 368.191L378.249 259.308" stroke="#92E3A9" stroke-width="1.72695" stroke-linecap="round" stroke-linejoin="round"/>
<path d="M376.518 323.05L396.814 305.516" stroke="#92E3A9" stroke-width="1.72695" stroke-linecap="round" stroke-linejoin="round"/>
<path d="M386.021 315.077L390.332 303.928" stroke="#92E3A9" stroke-width="1.72695" stroke-linecap="round" stroke-linejoin="round"/>
<path d="M359.683 336.589L374.931 351.592" stroke="#92E3A9" stroke-width="1.72695" stroke-linecap="round" stroke-linejoin="round"/>
<path d="M401.135 345.356L375.228 357.704" stroke="#92E3A9" stroke-width="1.72695" stroke-linecap="round" stroke-linejoin="round"/>
<path d="M388.076 351.442L396.814 352.13" stroke="#92E3A9" stroke-width="1.72695" stroke-linecap="round" stroke-linejoin="round"/>
<path d="M196.752 369.682C196.752 372.963 162.862 375.626 121.066 375.626C79.2692 375.626 45.3694 372.98 45.3694 369.682C45.3694 366.383 79.2596 363.737 121.066 363.737C162.871 363.737 196.752 366.4 196.752 369.682Z" fill="#263238"/>
<path d="M83.38 260.499C83.38 260.499 89.2307 257.765 91.7737 260.111C94.3166 262.457 93.2937 287.559 94.0585 295.532C94.5218 300.287 95.4725 304.992 96.8978 309.582C96.8978 309.582 88.5042 308.18 82.1468 305.172C82.1468 305.172 76.5542 280.123 83.38 260.499Z" fill="#263238" stroke="#263238" stroke-width="0.75" stroke-linecap="round" stroke-linejoin="round"/>
<path d="M199.869 317.344C199.181 317.343 198.513 317.128 197.974 316.733C197.436 316.338 197.058 315.787 196.901 315.169C196.745 314.55 196.82 313.902 197.114 313.328C197.408 312.754 197.904 312.289 198.521 312.007L226.159 300.541L247.611 277.777C248.132 277.206 248.878 276.85 249.684 276.786C250.49 276.722 251.29 276.957 251.908 277.437C252.527 277.918 252.913 278.606 252.982 279.349C253.051 280.093 252.798 280.831 252.277 281.402L230.413 304.616C230.151 304.913 229.825 305.156 229.457 305.331L201.236 317.052C200.812 317.25 200.343 317.35 199.869 317.344Z" fill="white" stroke="#263238" stroke-width="0.75" stroke-linecap="round" stroke-linejoin="round"/>
<path d="M218.769 307.403L221.799 306.133" stroke="#263238" stroke-width="0.75" stroke-linecap="round" stroke-linejoin="round"/>
<path d="M204.792 313.269L216.771 308.241" stroke="#263238" stroke-width="0.75" stroke-linecap="round" stroke-linejoin="round"/>
<path d="M245.757 285.212L237.774 293.538" stroke="#263238" stroke-width="0.75" stroke-linecap="round" stroke-linejoin="round"/>
<path d="M236.483 294.729L234.677 296.625" stroke="#263238" stroke-width="0.75" stroke-linecap="round" stroke-linejoin="round"/>
<path d="M203.549 327.457C206.93 314.302 198.112 301.11 183.854 297.991C169.596 294.872 155.297 303.007 151.916 316.161C148.535 329.316 157.353 342.508 171.611 345.627C185.869 348.746 200.168 340.611 203.549 327.457Z" fill="#92E3A9" stroke="#263238" stroke-width="0.747671" stroke-linecap="round" stroke-linejoin="round"/>
<path d="M111.419 231.208C111.419 231.208 115.243 239.481 116.047 241.095C116.85 242.709 117.614 243.15 117.433 243.661C117.251 244.173 115.301 244.764 115.301 244.764C115.572 247.309 115.093 249.875 113.915 252.19C112.003 255.718 108.274 257.562 107.911 259.776C107.697 261.904 107.665 264.045 107.815 266.179L102.175 261.91C102.175 261.91 103.743 257.729 102.357 254.66C101.181 252.148 99.0868 250.097 96.439 248.865C93.1423 246.869 90.7964 243.787 89.8808 240.248C89.0491 236.147 91.6303 231.798 95.0528 228.729C98.4752 225.66 105.225 226.26 105.97 226.515C106.716 226.771 104.116 224.751 106.429 224.293C108.743 223.834 110.129 226.939 110.253 227.45C110.377 227.962 111.085 225.236 111.831 227.027C112.576 228.817 111.419 231.208 111.419 231.208Z" fill="white"/>
<mask id="mask0_433_6414" style="mask-type:luminance" maskUnits="userSpaceOnUse" x="89" y="224" width="29" height="43">
<path d="M111.419 231.208C111.419 231.208 115.243 239.481 116.047 241.095C116.85 242.709 117.614 243.15 117.433 243.661C117.251 244.173 115.301 244.764 115.301 244.764C115.572 247.309 115.093 249.875 113.915 252.19C112.003 255.718 108.274 257.562 107.911 259.776C107.697 261.904 107.665 264.045 107.815 266.179L102.175 261.91C102.175 261.91 103.743 257.729 102.357 254.66C101.181 252.148 99.0868 250.097 96.439 248.865C93.1423 246.869 90.7964 243.787 89.8808 240.248C89.0491 236.147 91.6303 231.798 95.0528 228.729C98.4752 225.66 105.225 226.26 105.97 226.515C106.716 226.771 104.116 224.751 106.429 224.293C108.743 223.834 110.129 226.939 110.253 227.45C110.377 227.962 111.085 225.236 111.831 227.027C112.576 228.817 111.419 231.208 111.419 231.208Z" fill="white"/>
</mask>
<g mask="url(#mask0_433_6414)">
<g style="mix-blend-mode:multiply" opacity="0.5">
<path d="M104.527 263.718C104.493 263.126 104.42 262.537 104.307 261.954C103.934 260.402 106.219 255.568 106.926 249.879C107.634 244.19 102.806 236.244 102.806 236.244L99.2687 226.78C97.6978 227.09 96.2435 227.778 95.0528 228.773C91.6303 231.842 89.0491 236.191 89.8808 240.292C90.7964 243.831 93.1423 246.913 96.439 248.909C99.0868 250.141 101.181 252.192 102.357 254.704C103.743 257.773 102.175 261.954 102.175 261.954L104.527 263.718Z" fill="#92E3A9"/>
</g>
</g>
<path d="M111.419 231.208C111.419 231.208 115.243 239.481 116.047 241.095C116.85 242.709 117.614 243.15 117.433 243.661C117.251 244.173 115.301 244.764 115.301 244.764C115.572 247.309 115.093 249.875 113.915 252.19C112.003 255.718 108.274 257.562 107.911 259.776C107.697 261.904 107.665 264.045 107.815 266.179L102.175 261.91C102.175 261.91 103.743 257.729 102.357 254.66C101.181 252.148 99.0868 250.097 96.439 248.865C93.1423 246.869 90.7964 243.787 89.8808 240.248C89.0491 236.147 91.6303 231.798 95.0528 228.729C98.4752 225.66 105.225 226.26 105.97 226.515C106.716 226.771 104.116 224.751 106.429 224.293C108.743 223.834 110.129 226.939 110.253 227.45C110.377 227.962 111.085 225.236 111.831 227.027C112.576 228.817 111.419 231.208 111.419 231.208Z" stroke="#263238" stroke-width="0.75" stroke-linecap="round" stroke-linejoin="round"/>
<path d="M111.783 235.609C111.783 235.609 110.11 235.185 109.555 236.491C109.381 236.79 109.283 237.121 109.268 237.461C109.253 237.8 109.322 238.138 109.469 238.449" stroke="#263238" stroke-width="0.75" stroke-linecap="round" stroke-linejoin="round"/>
<path d="M113.733 248.609C113.733 248.609 112.07 249.377 111.047 248.354" stroke="#263238" stroke-width="0.75" stroke-linecap="round" stroke-linejoin="round"/>
<path d="M110.473 241.456L102.768 244.534" stroke="#263238" stroke-width="0.75" stroke-linecap="round" stroke-linejoin="round"/>
<path d="M99.546 248.274C98.5057 249.688 98.02 251.387 98.1693 253.09C98.3988 256.001 98.3223 259.97 96.7066 259.617C95.091 259.264 97.4714 254.792 97.4714 252.949C97.376 251.544 97.027 250.164 96.439 248.865" stroke="#263238" stroke-width="0.75" stroke-linecap="round" stroke-linejoin="round"/>
<path d="M116.094 239.216L114.278 239.939" stroke="#263238" stroke-width="0.75" stroke-linecap="round" stroke-linejoin="round"/>
<path d="M113.121 240.874C113.36 241.624 113.36 242.285 113.121 242.347C112.882 242.409 112.5 241.853 112.261 241.103C112.022 240.354 112.031 239.692 112.261 239.622C112.49 239.551 112.892 240.116 113.121 240.874Z" fill="#263238"/>
<path d="M114.087 240.874C114.727 242.638 114.565 244.27 113.723 244.534C112.882 244.799 111.678 243.573 111.037 241.818C110.397 240.063 110.559 238.413 111.4 238.149C112.242 237.884 113.446 239.11 114.087 240.874Z" stroke="#263238" stroke-width="0.75" stroke-linecap="round" stroke-linejoin="round"/>
<path d="M101.315 247.71C101.315 247.71 99.7945 246.016 101.162 246.157C101.591 246.239 101.988 246.427 102.311 246.7C102.635 246.973 102.872 247.322 102.997 247.71" stroke="#263238" stroke-width="0.5" stroke-linecap="round" stroke-linejoin="round"/>
<path d="M144.057 276.666L138.694 280.167L139.526 284.26L145.635 282.046L144.057 276.666Z" fill="white" stroke="#263238" stroke-width="0.75" stroke-linecap="round" stroke-linejoin="round"/>
<path d="M139.249 279.144L141.658 287.417C141.658 287.417 125.444 294.244 122.241 296.352C119.039 298.46 116.505 297.887 116.505 297.887L114.383 288.326C114.383 288.326 116.687 289.349 121.591 287.391C126.496 285.433 139.249 279.144 139.249 279.144Z" fill="white" stroke="#263238" stroke-width="0.75" stroke-linecap="round" stroke-linejoin="round"/>
<path d="M147.212 300.674C146.886 300.642 146.583 300.504 146.359 300.284C146.134 300.064 146.003 299.776 145.988 299.474L143.847 266.743C143.825 266.57 143.842 266.395 143.897 266.228C143.952 266.061 144.044 265.907 144.166 265.774C144.289 265.641 144.439 265.533 144.609 265.457C144.779 265.38 144.964 265.336 145.152 265.328C145.341 265.321 145.529 265.349 145.706 265.411C145.882 265.473 146.043 265.568 146.178 265.69C146.313 265.812 146.419 265.958 146.49 266.12C146.561 266.281 146.595 266.454 146.591 266.629L148.732 299.351C148.741 299.518 148.714 299.685 148.653 299.842C148.592 299.999 148.498 300.144 148.377 300.267C148.255 300.391 148.108 300.492 147.944 300.563C147.781 300.634 147.603 300.675 147.422 300.683L147.212 300.674Z" fill="#263238" stroke="#263238" stroke-width="0.75" stroke-linecap="round" stroke-linejoin="round"/>
<path d="M143.13 275.89C142.789 275.876 142.466 275.747 142.223 275.526C141.98 275.306 141.835 275.01 141.814 274.696C141.794 274.382 141.901 274.072 142.114 273.827C142.327 273.581 142.631 273.418 142.967 273.367L148.331 272.767C148.517 272.733 148.708 272.734 148.894 272.771C149.079 272.808 149.254 272.88 149.408 272.982C149.562 273.084 149.692 273.215 149.788 273.366C149.885 273.516 149.947 273.684 149.97 273.857C149.993 274.031 149.977 274.207 149.923 274.375C149.868 274.543 149.777 274.699 149.655 274.832C149.532 274.966 149.381 275.075 149.211 275.152C149.041 275.229 148.855 275.273 148.665 275.281L143.302 275.881L143.13 275.89Z" fill="white" stroke="#263238" stroke-width="0.75" stroke-linecap="round" stroke-linejoin="round"/>
<path d="M143.407 278.447C143.067 278.434 142.744 278.305 142.501 278.084C142.258 277.864 142.112 277.568 142.092 277.254C142.071 276.94 142.178 276.63 142.391 276.385C142.604 276.139 142.908 275.975 143.245 275.925L148.608 275.325C148.97 275.288 149.333 275.383 149.62 275.591C149.906 275.799 150.092 276.103 150.137 276.436C150.159 276.601 150.145 276.768 150.096 276.927C150.048 277.087 149.966 277.236 149.855 277.366C149.744 277.496 149.606 277.605 149.45 277.686C149.293 277.767 149.121 277.819 148.942 277.839L143.579 278.439L143.407 278.447Z" fill="white" stroke="#263238" stroke-width="0.75" stroke-linecap="round" stroke-linejoin="round"/>
<path d="M143.704 280.776C143.368 280.775 143.045 280.655 142.802 280.442C142.558 280.229 142.412 279.939 142.392 279.63C142.373 279.32 142.482 279.016 142.697 278.778C142.912 278.541 143.217 278.388 143.551 278.35L148.684 277.777C148.857 277.756 149.033 277.767 149.202 277.809C149.37 277.851 149.528 277.923 149.666 278.022C149.804 278.121 149.92 278.244 150.006 278.384C150.092 278.524 150.147 278.678 150.168 278.838C150.189 278.998 150.175 279.16 150.127 279.315C150.08 279.47 149.999 279.615 149.891 279.741C149.782 279.867 149.647 279.972 149.494 280.05C149.342 280.128 149.173 280.177 149 280.194L143.866 280.767L143.704 280.776Z" fill="white" stroke="#263238" stroke-width="0.75" stroke-linecap="round" stroke-linejoin="round"/>
<path d="M144.564 283.007C144.3 282.983 144.055 282.868 143.878 282.685C143.7 282.502 143.604 282.265 143.608 282.019C143.555 281.755 143.608 281.482 143.757 281.251C143.907 281.021 144.143 280.848 144.421 280.767L148.053 280.229C148.57 280.167 149.009 280.599 149.086 281.217C149.144 281.481 149.092 281.756 148.942 281.988C148.792 282.22 148.553 282.391 148.273 282.469L144.65 282.998L144.564 283.007Z" fill="white" stroke="#263238" stroke-width="0.75" stroke-linecap="round" stroke-linejoin="round"/>
<path d="M142.595 278.977C142.579 279.217 142.468 279.444 142.283 279.615C142.098 279.786 141.852 279.888 141.591 279.903C141.308 279.974 141.007 279.947 140.744 279.827C140.481 279.706 140.276 279.501 140.166 279.25L139.325 275.951C139.21 275.484 139.641 275.025 140.281 274.919C140.563 274.852 140.861 274.881 141.121 275.001C141.381 275.121 141.585 275.324 141.696 275.572L142.547 278.88C142.547 278.88 142.585 278.941 142.595 278.977Z" fill="white" stroke="#263238" stroke-width="0.75" stroke-linecap="round" stroke-linejoin="round"/>
<path d="M100.139 259.352C100.139 259.352 106.706 263.021 109.756 267.625C112.806 272.229 115.396 279.091 116.878 285.115C118.36 291.139 119.555 306.865 120.482 310.111C120.931 311.833 121.615 313.496 122.519 315.059C117.168 316.892 111.485 317.76 105.779 317.617C96.7162 317.273 95.33 315.227 95.33 315.227C95.33 315.227 92.2804 296.634 92.5576 281.87C92.8348 267.105 100.139 259.352 100.139 259.352Z" fill="white"/>
<mask id="mask1_433_6414" style="mask-type:luminance" maskUnits="userSpaceOnUse" x="92" y="259" width="31" height="59">
<path d="M100.139 259.352C100.139 259.352 106.706 263.021 109.756 267.625C112.806 272.229 115.396 279.091 116.878 285.115C118.36 291.139 119.555 306.865 120.482 310.111C120.931 311.833 121.615 313.496 122.519 315.059C117.168 316.892 111.485 317.76 105.779 317.617C96.7162 317.273 95.33 315.227 95.33 315.227C95.33 315.227 92.2804 296.634 92.5576 281.87C92.8348 267.105 100.139 259.352 100.139 259.352Z" fill="white"/>
</mask>
<g mask="url(#mask1_433_6414)">
<g style="mix-blend-mode:multiply" opacity="0.5">
<path d="M96.2669 276.066C96.2669 276.066 95.3109 277.451 96.0757 273.826C96.6945 271.29 97.7021 268.849 99.068 266.576L103.552 271.233L106.362 271.409L105.617 272.617L111.037 275.722L108.465 272.926L108.647 268.657L104.307 269.892C104.307 269.892 101.496 265.235 100.751 263.718C100.253 262.677 101.917 261.795 103.083 261.328C102.138 260.649 101.155 260.016 100.139 259.431C100.139 259.431 92.8348 267.193 92.5576 281.949C92.3377 293.653 94.2115 307.756 94.9954 313.101L109.335 312.369L96.2669 276.066Z" fill="#92E3A9"/>
</g>
</g>
<path d="M100.139 259.352C100.139 259.352 106.706 263.021 109.756 267.625C112.806 272.229 115.396 279.091 116.878 285.115C118.36 291.139 119.555 306.865 120.482 310.111C120.931 311.833 121.615 313.496 122.519 315.059C117.168 316.892 111.485 317.76 105.779 317.617C96.7162 317.273 95.33 315.227 95.33 315.227C95.33 315.227 92.2804 296.634 92.5576 281.87C92.8348 267.105 100.139 259.352 100.139 259.352Z" stroke="#263238" stroke-width="0.75" stroke-linecap="round" stroke-linejoin="round"/>
<path d="M98.198 262.342L105.043 269.927L108.647 268.648L108.465 272.917L113.915 278.977" stroke="#263238" stroke-width="0.75" stroke-linecap="round" stroke-linejoin="round"/>
<path d="M93.9916 278.421C93.9916 278.421 94.7564 285.477 97.0412 287.153" stroke="#263238" stroke-width="0.5" stroke-linecap="round" stroke-linejoin="round"/>
<path d="M94.4505 286.032C94.4505 286.032 95.4065 288.678 97.806 289.56" stroke="#263238" stroke-width="0.5" stroke-linecap="round" stroke-linejoin="round"/>
<path d="M114.297 282.222L110.33 283.634L110.941 285.186L114.603 283.916" stroke="#263238" stroke-width="0.5" stroke-linecap="round" stroke-linejoin="round"/>
<path d="M141.055 308.797C140.727 308.796 140.41 308.688 140.161 308.49C139.912 308.293 139.748 308.02 139.698 307.721L134.746 278.051C134.719 277.886 134.727 277.717 134.771 277.555C134.814 277.393 134.892 277.241 135 277.106C135.107 276.972 135.242 276.858 135.397 276.772C135.552 276.686 135.724 276.629 135.903 276.604C136.082 276.579 136.264 276.587 136.44 276.627C136.615 276.667 136.781 276.739 136.926 276.838C137.072 276.937 137.195 277.062 137.288 277.205C137.382 277.348 137.443 277.506 137.47 277.671L142.423 307.342C142.475 307.675 142.383 308.013 142.166 308.284C141.95 308.555 141.626 308.736 141.266 308.788L141.055 308.797Z" fill="#263238" stroke="#263238" stroke-width="0.75" stroke-linecap="round" stroke-linejoin="round"/>
<path d="M111.419 231.208C111.419 231.208 112.528 228.817 111.792 227.027C111.056 225.236 110.311 227.962 110.215 227.45C110.119 226.939 108.743 223.869 106.391 224.293C104.039 224.716 106.668 226.771 105.932 226.515C105.196 226.26 98.437 225.633 95.0145 228.729C91.592 231.825 89.0108 236.147 89.8426 240.248C90.7582 243.787 93.1041 246.869 96.4007 248.865C98.1311 249.684 99.6404 250.85 100.817 252.278C101.811 251.542 102.718 250.711 103.523 249.8C103.042 249.942 102.532 249.977 102.034 249.903C101.536 249.83 101.064 249.65 100.655 249.377C99.1731 248.433 98.437 245.708 100.292 244.34C102.146 242.973 103.934 246.078 103.934 246.078C105.846 247.022 105.129 244.543 104.393 243.432C103.657 242.321 104.67 241.121 104.947 239.507C105.225 237.893 102.825 237.284 103.102 235.662C103.38 234.039 111.419 231.208 111.419 231.208Z" fill="#263238" stroke="#263238" stroke-width="0.75" stroke-linecap="round" stroke-linejoin="round"/>
<path d="M106.965 232.354C106.965 232.354 103.609 230.802 101.468 233.236C99.3261 235.67 99.7945 239.719 98.112 242.109C97.7185 242.768 97.1713 243.337 96.5099 243.776C95.8486 244.216 95.0896 244.514 94.288 244.649" stroke="white" stroke-width="0.5" stroke-linecap="round" stroke-linejoin="round"/>
<path d="M92.309 240.389C93.3197 240.489 94.3328 240.22 95.1314 239.64C95.93 239.06 96.4508 238.214 96.5824 237.284C97.3472 233.756 101.62 228.694 105.903 228.553C110.186 228.411 109.871 231.199 109.871 231.199" stroke="white" stroke-width="0.5" stroke-linecap="round" stroke-linejoin="round"/>
<path d="M129.268 289.464L131.945 287.841C131.945 287.841 134.258 283.916 134.44 283.66C134.622 283.404 140.272 280.846 140.73 281.19C140.991 281.4 141.193 281.664 141.321 281.96C141.449 282.256 141.499 282.575 141.467 282.893C141.285 283.325 140.635 283.775 140.635 284.18C140.635 284.586 141.381 287.841 141.381 288.696C141.381 289.552 137.557 290.998 136.017 291.43C134.478 291.863 132.413 291.854 131.945 292.198L130.654 293.133L129.268 289.464Z" fill="white" stroke="#263238" stroke-width="0.75" stroke-linecap="round" stroke-linejoin="round"/>
<path d="M98.198 272.238C98.198 272.238 95.7984 272.829 96.6302 279.056C97.4619 285.283 104.211 306.266 106.611 308.832C109.01 311.399 132.423 297.058 132.423 297.058L129.555 288.864C129.555 288.864 113.743 294.579 112.452 294.835C111.161 295.091 107.452 276.498 106.161 274.196" fill="white"/>
<mask id="mask2_433_6414" style="mask-type:luminance" maskUnits="userSpaceOnUse" x="96" y="272" width="37" height="38">
<path d="M98.198 272.238C98.198 272.238 95.7984 272.829 96.6302 279.056C97.4619 285.283 104.211 306.266 106.611 308.832C109.01 311.399 132.423 297.058 132.423 297.058L129.555 288.864C129.555 288.864 113.743 294.579 112.452 294.835C111.161 295.091 107.452 276.498 106.161 274.196" fill="white"/>
</mask>
<g mask="url(#mask2_433_6414)">
<g style="mix-blend-mode:multiply" opacity="0.5">
<path d="M131.993 295.867C127.127 297.287 115.865 300.524 114.402 300.383C112.49 300.215 111.974 299.174 110.846 297.799C109.718 296.423 108.045 301.935 106.544 302.455C105.043 302.976 106.171 296.281 106.735 294.861C107.299 293.441 105.425 295.558 105.425 295.558C105.425 295.558 101.687 288.502 99.8136 283.651C98.6258 280.484 97.6896 277.242 97.0126 273.949L96.5919 274.902C96.3806 276.268 96.3806 277.655 96.5919 279.021C97.4236 285.248 104.173 306.23 106.573 308.797C108.972 311.364 132.385 297.022 132.385 297.022L131.993 295.867Z" fill="#92E3A9"/>
</g>
</g>
<path d="M98.198 272.238C98.198 272.238 95.7984 272.829 96.6302 279.056C97.4619 285.283 104.211 306.266 106.611 308.832C109.01 311.399 132.423 297.058 132.423 297.058L129.555 288.864C129.555 288.864 113.743 294.579 112.452 294.835C111.161 295.091 107.452 276.498 106.161 274.196" stroke="#263238" stroke-width="0.75" stroke-linecap="round" stroke-linejoin="round"/>
<path d="M112.442 294.835C111.5 295.398 110.691 296.131 110.065 296.991C109.439 297.85 109.008 298.818 108.8 299.836" stroke="#263238" stroke-width="0.5" stroke-linecap="round" stroke-linejoin="round"/>
<path d="M108.953 296.731C108.311 297.323 107.804 298.027 107.462 298.803C107.121 299.579 106.951 300.41 106.965 301.247" stroke="#263238" stroke-width="0.5" stroke-linecap="round" stroke-linejoin="round"/>
<path d="M85.1199 303.664C85.1199 303.664 82.577 295.84 82.9116 279.576C83.2462 263.312 84.2691 261.751 83.4182 260.499C82.5674 259.246 67.1662 267.616 55.6942 279.814C48.3904 287.611 39.0598 299.157 38.448 317.344C37.9413 331.888 45.4364 343.645 50.1399 346.899C58.2754 352.527 69.3842 352.138 70.5696 352.138H184.104C184.104 352.138 191.389 349.792 193.081 343.698C194.773 337.603 200.538 320.237 188.511 299.439C180.615 285.794 166.476 271.136 164.095 272.229C161.715 273.323 152.824 288.987 140.711 298.813C129.268 308.1 107.49 314.918 85.1199 303.664Z" fill="#92E3A9" stroke="#263238" stroke-width="0.75" stroke-linecap="round" stroke-linejoin="round"/>
<path d="M188.54 299.439C186.848 296.528 184.879 293.574 182.804 290.734C176.169 292.842 159.535 299.139 150.3 311.716C142.375 322.512 147.642 339.641 164.162 352.138H184.114C184.114 352.138 191.398 349.792 193.091 343.689C194.783 337.585 200.538 320.237 188.54 299.439Z" fill="white" stroke="#263238" stroke-width="0.75" stroke-linecap="round" stroke-linejoin="round"/>
<path d="M192.182 332.346C192.004 333.875 191.739 335.442 191.389 337.048" stroke="#263238" stroke-width="0.75" stroke-linecap="round" stroke-linejoin="round"/>
<path d="M186.494 302.094C186.494 302.094 193.368 313.022 192.488 328.959" stroke="#263238" stroke-width="0.75" stroke-linecap="round" stroke-linejoin="round"/>
<path d="M82.424 349.916V334.278C73.581 331.632 67.8737 328.492 62.5488 325.546C54.9008 321.322 49.5472 309.935 53.1417 302.561C56.4399 295.752 65.5697 292.709 70.4262 295.752C75.1657 298.626 80.0604 301.275 85.0912 303.69C85.0912 303.69 82.5483 295.867 82.8829 279.603C83.2175 263.339 84.2404 261.778 83.3896 260.525C82.5387 259.273 67.1376 267.643 55.6656 279.841C48.3904 287.611 39.0598 299.157 38.448 317.344C37.9413 331.888 45.4364 343.645 50.1399 346.9C58.2754 352.527 69.3842 352.139 70.5696 352.139H82.424C82.424 351.336 82.424 350.586 82.424 349.916Z" fill="white" stroke="#263238" stroke-width="0.75" stroke-linecap="round" stroke-linejoin="round"/>
<path d="M42.0521 320.404C42.1387 322.329 42.3622 324.248 42.7213 326.146" stroke="#263238" stroke-width="0.75" stroke-linecap="round" stroke-linejoin="round"/>
<path d="M69.3842 272.309C66.6309 274.584 62.5201 277.257 59.9676 279.982C52.6542 287.779 42.664 298.919 42.033 317.105" stroke="#263238" stroke-width="0.75" stroke-linecap="round" stroke-linejoin="round"/>
<path d="M108.848 350.26C108.848 358.859 94.5078 359.644 76.7262 359.644C58.9446 359.644 44.6046 359.327 44.6046 350.26C44.6046 337.736 58.9446 325.564 76.7262 325.564C94.5078 325.564 108.848 337.736 108.848 350.26Z" fill="#92E3A9" stroke="#263238" stroke-width="0.75" stroke-linecap="round" stroke-linejoin="round"/>
<path d="M76.688 325.555C60.2735 325.555 46.7556 335.98 44.815 347.455C46.727 354.679 60.2735 354.952 76.688 354.952C93.1025 354.952 106.582 354.282 108.551 347.402C106.62 335.945 93.1121 325.555 76.688 325.555Z" fill="#263238" stroke="#263238" stroke-width="0.75" stroke-linecap="round" stroke-linejoin="round"/>
<path d="M191.896 351.177C191.896 358.965 178.875 359.68 162.814 359.68C146.753 359.68 133.723 359.397 133.723 351.177C133.723 339.843 146.744 328.801 162.814 328.801C178.884 328.801 191.896 339.843 191.896 351.177Z" fill="#92E3A9" stroke="#263238" stroke-width="0.75" stroke-linecap="round" stroke-linejoin="round"/>
<path d="M162.814 328.801C147.948 328.801 135.702 338.247 133.952 348.646C135.702 355.181 147.948 355.428 162.814 355.428C177.68 355.428 189.878 354.82 191.666 348.593C189.878 338.221 177.651 328.801 162.814 328.801Z" fill="#263238" stroke="#263238" stroke-width="0.75" stroke-linecap="round" stroke-linejoin="round"/>
<path d="M276.052 258.426C274.915 258.034 273.994 257.241 273.49 256.222C272.987 255.204 272.942 254.042 273.366 252.993L286.272 221.161C286.482 220.64 286.802 220.162 287.212 219.755C287.623 219.348 288.116 219.019 288.664 218.788C289.212 218.556 289.805 218.427 290.407 218.407C291.009 218.386 291.61 218.476 292.175 218.67C292.74 218.864 293.258 219.159 293.7 219.537C294.141 219.916 294.497 220.371 294.748 220.877C294.999 221.383 295.139 221.929 295.161 222.485C295.183 223.041 295.086 223.595 294.876 224.116L281.97 255.948C281.76 256.47 281.439 256.949 281.027 257.357C280.615 257.764 280.12 258.093 279.57 258.323C279.02 258.554 278.426 258.681 277.822 258.699C277.219 258.717 276.617 258.624 276.052 258.426Z" fill="white" stroke="#263238" stroke-width="0.75" stroke-linecap="round" stroke-linejoin="round"/>
<path d="M290.908 226.895L283.662 244.464" stroke="#263238" stroke-width="0.75" stroke-linecap="round" stroke-linejoin="round"/>
<path d="M256.416 306.936C255.415 306.592 254.497 306.069 253.714 305.397C252.932 304.725 252.301 303.918 251.857 303.021C251.413 302.124 251.165 301.155 251.127 300.17C251.089 299.184 251.262 298.202 251.636 297.278L270.058 251.829C270.819 249.963 272.352 248.453 274.319 247.63C276.287 246.807 278.528 246.739 280.55 247.441C282.572 248.142 284.209 249.557 285.101 251.372C285.993 253.187 286.067 255.255 285.306 257.121L266.846 302.526C266.092 304.383 264.571 305.89 262.617 306.716C260.663 307.542 258.433 307.621 256.416 306.936Z" fill="#263238" stroke="#263238" stroke-width="0.75" stroke-linecap="round" stroke-linejoin="round"/>
<path d="M324.799 139.515C315.614 136.346 305.618 135.761 296.073 137.834C286.528 139.907 277.864 144.545 271.176 151.161C264.488 157.777 260.077 166.074 258.5 175.002C256.924 183.931 258.252 193.091 262.318 201.323C266.384 209.556 273.004 216.491 281.342 221.252C289.68 226.013 299.361 228.386 309.16 228.07C318.96 227.755 328.438 224.766 336.397 219.481C344.355 214.196 350.436 206.853 353.871 198.379C358.474 187.017 357.997 174.432 352.545 163.394C347.094 152.355 337.113 143.766 324.799 139.515ZM293.069 217.783C285.476 215.162 278.895 210.522 274.16 204.451C269.425 198.38 266.747 191.149 266.466 183.674C266.185 176.198 268.313 168.814 272.58 162.454C276.848 156.094 283.064 151.045 290.442 147.944C297.82 144.843 306.029 143.831 314.03 145.034C322.032 146.238 329.468 149.603 335.396 154.705C341.325 159.807 345.481 166.417 347.338 173.697C349.195 180.978 348.671 188.604 345.831 195.61C342.02 205.004 334.321 212.618 324.426 216.776C314.532 220.934 303.253 221.296 293.069 217.783Z" fill="#263238" stroke="#263238" stroke-width="0.75" stroke-linecap="round" stroke-linejoin="round"/>
<path d="M274.188 168.462C276.177 164.415 279.016 160.773 282.541 157.745C286.066 154.717 290.206 152.364 294.723 150.822" stroke="#263238" stroke-width="0.75" stroke-linecap="round" stroke-linejoin="round"/>
<path d="M270.909 182.468C270.899 179.037 271.46 175.625 272.572 172.352" stroke="#263238" stroke-width="0.75" stroke-linecap="round" stroke-linejoin="round"/>
<path d="M260.431 191.8C257.963 181.309 259.699 170.349 265.318 160.95C270.937 151.55 280.058 144.347 290.992 140.677C301.926 137.006 313.931 137.116 324.784 140.985C335.637 144.855 344.602 152.223 350.018 161.723" stroke="white" stroke-miterlimit="10"/>
<path d="M355.199 177.07C356.601 187.639 353.837 198.321 347.412 207.167C340.987 216.012 331.329 222.431 320.201 225.254C309.072 228.076 297.215 227.113 286.792 222.541C276.369 217.968 268.075 210.091 263.423 200.346" stroke="white" stroke-miterlimit="10"/>
<path d="M351.949 165.56C353.197 168.367 354.129 171.284 354.731 174.266" stroke="white" stroke-miterlimit="10"/>
<path d="M114.928 338.291C122.547 338.291 128.723 332.593 128.723 325.564C128.723 318.535 122.547 312.837 114.928 312.837C107.309 312.837 101.133 318.535 101.133 325.564C101.133 332.593 107.309 338.291 114.928 338.291Z" fill="#263238"/>
<path d="M114.928 336.307C121.359 336.307 126.572 331.497 126.572 325.564C126.572 319.631 121.359 314.821 114.928 314.821C108.497 314.821 103.284 319.631 103.284 325.564C103.284 331.497 108.497 336.307 114.928 336.307Z" fill="white" stroke="#263238" stroke-width="0.75" stroke-linecap="round" stroke-linejoin="round"/>
<path d="M111.391 328.739C111.29 328.644 111.233 328.515 111.233 328.382C111.233 328.248 111.29 328.12 111.391 328.025L114.546 325.114C114.649 325.021 114.788 324.969 114.933 324.969C115.077 324.969 115.216 325.021 115.32 325.114C115.373 325.161 115.414 325.217 115.443 325.279C115.472 325.341 115.486 325.408 115.486 325.476C115.486 325.543 115.472 325.61 115.443 325.672C115.414 325.734 115.373 325.79 115.32 325.837L112.175 328.739C112.124 328.788 112.063 328.826 111.996 328.853C111.928 328.879 111.856 328.893 111.783 328.893C111.71 328.893 111.637 328.879 111.57 328.853C111.503 328.826 111.442 328.788 111.391 328.739Z" fill="#263238"/>
<path d="M106.592 333.167C106.498 333.084 106.423 332.985 106.372 332.875C106.321 332.765 106.294 332.647 106.294 332.527C106.294 332.408 106.321 332.289 106.372 332.179C106.423 332.069 106.498 331.97 106.592 331.888L111.085 327.742C111.174 327.654 111.282 327.584 111.402 327.536C111.522 327.488 111.652 327.463 111.783 327.463C111.914 327.463 112.043 327.488 112.163 327.536C112.283 327.584 112.391 327.654 112.481 327.742C112.575 327.825 112.65 327.924 112.701 328.034C112.752 328.144 112.778 328.262 112.778 328.382C112.778 328.501 112.752 328.62 112.701 328.73C112.65 328.84 112.575 328.939 112.481 329.021L107.987 333.167C107.898 333.255 107.79 333.325 107.67 333.373C107.55 333.421 107.42 333.446 107.29 333.446C107.159 333.446 107.029 333.421 106.909 333.373C106.789 333.325 106.681 333.255 106.592 333.167Z" fill="#263238"/>
<path d="M123.207 325.74C124.046 324.967 124.618 323.982 124.85 322.909C125.082 321.836 124.964 320.724 124.511 319.713C124.057 318.702 123.289 317.837 122.303 317.229C121.317 316.621 120.158 316.297 118.972 316.297C117.786 316.297 116.627 316.621 115.641 317.229C114.655 317.837 113.887 318.702 113.433 319.713C112.98 320.724 112.862 321.836 113.094 322.909C113.326 323.982 113.898 324.967 114.737 325.74C115.861 326.775 117.384 327.357 118.972 327.357C120.56 327.357 122.083 326.775 123.207 325.74Z" fill="#263238"/>
<path d="M122.06 324.673C122.668 324.11 123.082 323.393 123.249 322.613C123.416 321.834 123.328 321.026 122.998 320.292C122.668 319.557 122.109 318.93 121.392 318.489C120.676 318.048 119.833 317.812 118.972 317.812C118.11 317.812 117.268 318.048 116.552 318.489C115.835 318.93 115.276 319.557 114.946 320.292C114.615 321.026 114.528 321.834 114.695 322.613C114.862 323.393 115.276 324.11 115.884 324.673C116.289 325.048 116.77 325.345 117.3 325.548C117.83 325.751 118.398 325.856 118.972 325.856C119.546 325.856 120.114 325.751 120.644 325.548C121.174 325.345 121.655 325.048 122.06 324.673Z" fill="white"/>
<path d="M286.052 280.176C286.052 281.297 285.57 282.371 284.711 283.164C283.852 283.956 282.687 284.401 281.473 284.401H249.189C248.57 284.427 247.953 284.337 247.373 284.137C246.793 283.937 246.264 283.63 245.816 283.235C245.369 282.841 245.012 282.367 244.769 281.842C244.526 281.317 244.4 280.752 244.4 280.181C244.4 279.61 244.526 279.044 244.769 278.519C245.012 277.994 245.369 277.52 245.816 277.126C246.264 276.731 246.793 276.425 247.373 276.224C247.953 276.024 248.57 275.934 249.189 275.96H281.473C282.686 275.96 283.849 276.404 284.707 277.195C285.566 277.985 286.049 279.057 286.052 280.176Z" fill="#92E3A9" stroke="#263238" stroke-width="0.75" stroke-linecap="round" stroke-linejoin="round"/>
<path d="M266.731 283.096C268.136 283.096 269.274 282.045 269.274 280.749C269.274 279.454 268.136 278.403 266.731 278.403C265.327 278.403 264.188 279.454 264.188 280.749C264.188 282.045 265.327 283.096 266.731 283.096Z" fill="white" stroke="#263238" stroke-width="0.75" stroke-linecap="round" stroke-linejoin="round"/>
<path d="M228.08 308.285C231.501 308.285 234.275 305.727 234.275 302.57C234.275 299.414 231.501 296.855 228.08 296.855C224.659 296.855 221.885 299.414 221.885 302.57C221.885 305.727 224.659 308.285 228.08 308.285Z" fill="#92E3A9" stroke="#263238" stroke-width="0.75" stroke-linecap="round" stroke-linejoin="round"/>
<path d="M230.403 302.57C230.405 302.146 230.271 301.731 230.016 301.377C229.762 301.023 229.4 300.747 228.976 300.584C228.552 300.42 228.084 300.376 227.633 300.458C227.182 300.54 226.767 300.743 226.441 301.043C226.115 301.342 225.893 301.724 225.802 302.14C225.712 302.556 225.757 302.987 225.933 303.379C226.109 303.772 226.406 304.107 226.789 304.343C227.171 304.579 227.62 304.704 228.08 304.704C228.695 304.704 229.284 304.48 229.719 304.08C230.155 303.68 230.401 303.137 230.403 302.57Z" fill="white" stroke="#263238" stroke-width="0.75" stroke-linecap="round" stroke-linejoin="round"/>
<path d="M249.189 285.997C252.61 285.997 255.384 283.439 255.384 280.282C255.384 277.126 252.61 274.567 249.189 274.567C245.767 274.567 242.994 277.126 242.994 280.282C242.994 283.439 245.767 285.997 249.189 285.997Z" fill="#92E3A9" stroke="#263238" stroke-width="0.75" stroke-linecap="round" stroke-linejoin="round"/>
<path d="M249.189 282.487C250.509 282.487 251.579 281.5 251.579 280.282C251.579 279.064 250.509 278.077 249.189 278.077C247.869 278.077 246.799 279.064 246.799 280.282C246.799 281.5 247.869 282.487 249.189 282.487Z" fill="white" stroke="#263238" stroke-width="0.75" stroke-linecap="round" stroke-linejoin="round"/>
</svg>
