<svg width="363" height="256" viewBox="0 0 363 256" fill="none" xmlns="http://www.w3.org/2000/svg">
<path d="M327.188 252.001C330.66 252.001 338.307 223.122 339.184 220.081C347.042 193.085 350.225 165.016 348.602 137.013C346.475 102.279 342.526 64.4961 322.006 37.6497C280.429 -16.8075 203.09 -9.94473 163.779 43.7733C152.156 59.6409 140.004 75.9117 124.38 86.3949C106.629 98.3565 85.7367 96.7353 66.6841 104.144C37.7363 115.4 15.2551 154.62 16.0189 191.092C16.6352 220.627 35.5489 250.506 61.5455 252.664C86.4571 254.731 327.084 252.001 327.188 252.001Z" fill="#92E3A9"/>
<path opacity="0.7" d="M327.188 252.001C330.66 252.001 338.307 223.122 339.184 220.081C347.042 193.085 350.225 165.016 348.602 137.013C346.475 102.279 342.526 64.4961 322.006 37.6497C280.429 -16.8075 203.09 -9.94473 163.779 43.7733C152.156 59.6409 140.004 75.9117 124.38 86.3949C106.629 98.3565 85.7367 96.7353 66.6841 104.144C37.7363 115.4 15.2551 154.62 16.0189 191.092C16.6352 220.627 35.5489 250.506 61.5455 252.664C86.4571 254.731 327.084 252.001 327.188 252.001Z" fill="white"/>
<path d="M288.823 29.6192C285.351 27.8048 283.823 29.3168 282.573 27.8048C281.323 26.2928 286.045 22.3616 276.636 18.422C276.636 18.422 276.011 9.95481 263.191 9.65241C250.37 9.35001 253.816 18.1196 250.379 20.2364C246.942 22.3532 246.039 19.0268 242.567 21.152C239.095 23.2772 240.692 27.5024 237.88 28.1072C235.067 28.712 231.309 25.3856 227.872 27.5024C224.434 29.6192 224.4 31.4336 222.872 31.4336C221.344 31.4336 218.185 30.224 216.31 31.4336C214.435 32.6432 212.248 34.1552 212.248 34.1552H291.322C291.322 34.1552 292.26 31.4336 288.823 29.6192Z" fill="white"/>
<path d="M139.718 31.3328C137.556 30.1904 136.567 31.1396 135.786 30.1904C135.004 29.2412 137.947 26.7716 132.044 24.3104C132.044 24.3104 131.654 18.9848 123.599 18.7916C115.544 18.5984 117.696 24.1172 115.535 25.4528C113.374 26.7884 112.784 24.6884 110.622 26.024C108.461 27.3596 109.442 30.0224 107.671 30.4004C105.9 30.7784 103.548 28.7204 101.387 30.0224C99.2254 31.3244 99.2167 32.492 98.2359 32.492C97.255 32.492 95.2847 31.7276 94.1129 32.492L91.5522 34.172H141.289C141.289 34.172 141.879 32.4752 139.718 31.3328Z" fill="#92E3A9"/>
<path d="M139.718 31.3328C137.556 30.1904 136.567 31.1396 135.786 30.1904C135.004 29.2412 137.947 26.7716 132.044 24.3104C132.044 24.3104 131.654 18.9848 123.599 18.7916C115.544 18.5984 117.696 24.1172 115.535 25.4528C113.374 26.7884 112.784 24.6884 110.622 26.024C108.461 27.3596 109.442 30.0224 107.671 30.4004C105.9 30.7784 103.548 28.7204 101.387 30.0224C99.2254 31.3244 99.2167 32.492 98.2359 32.492C97.255 32.492 95.2847 31.7276 94.1129 32.492L91.5522 34.172H141.289C141.289 34.172 141.879 32.4752 139.718 31.3328Z" fill="#92E3A9"/>
<path opacity="0.7" d="M139.718 31.3328C137.556 30.1904 136.567 31.1396 135.786 30.1904C135.004 29.2412 137.947 26.7716 132.044 24.3104C132.044 24.3104 131.654 18.9848 123.599 18.7916C115.544 18.5984 117.696 24.1172 115.535 25.4528C113.374 26.7884 112.784 24.6884 110.622 26.024C108.461 27.3596 109.442 30.0224 107.671 30.4004C105.9 30.7784 103.548 28.7204 101.387 30.0224C99.2254 31.3244 99.2167 32.492 98.2359 32.492C97.255 32.492 95.2847 31.7276 94.1129 32.492L91.5522 34.172H141.289C141.289 34.172 141.879 32.4752 139.718 31.3328Z" fill="white"/>
<path d="M362.967 250.521H20.42V255.888H362.967V250.521Z" fill="#263238"/>
<path d="M349.08 171.317C347.344 156.667 341.667 157.306 339.896 142.656C338.125 128.006 343.759 127.368 341.988 112.718C340.217 98.0687 334.575 98.7071 332.796 84.0575C331.016 69.4079 336.667 68.7695 334.888 54.1199C333.108 39.4703 327.475 40.1087 325.704 25.4675L324.836 28.4327C323.1 40.1927 318.135 40.7975 316.929 54.4727C315.627 69.1727 321.269 69.6431 319.984 84.3515C318.7 99.0599 313.04 98.5895 311.721 113.298C310.401 128.006 316.061 128.468 314.776 143.177C313.492 157.885 307.832 157.457 306.521 172.123C305.972 176.898 306.42 181.732 307.841 186.336C309.013 188.965 313.96 198.692 323.934 201.515C324.567 201.692 325.21 201.833 325.861 201.935V251.058H328.143V202.111C337.309 202.17 343.403 193.426 348.029 186.109L348.09 186.017C349.458 181.234 349.795 176.231 349.08 171.317ZM338.768 165.521L327.44 185.866V201.17H326.468V185.882L313.856 165.84C313.789 165.728 313.769 165.595 313.801 165.47C313.834 165.344 313.916 165.236 314.03 165.168C314.146 165.103 314.284 165.086 314.414 165.119C314.544 165.152 314.655 165.233 314.724 165.344L326.503 184.051V126.36C326.415 126.331 326.336 126.278 326.277 126.209L316.2 113.609C316.16 113.56 316.131 113.504 316.114 113.444C316.098 113.384 316.093 113.321 316.101 113.26C316.109 113.198 316.13 113.138 316.161 113.084C316.193 113.031 316.236 112.983 316.286 112.945C316.337 112.907 316.395 112.879 316.457 112.863C316.519 112.846 316.584 112.842 316.647 112.85C316.711 112.857 316.772 112.877 316.828 112.908C316.884 112.939 316.933 112.98 316.972 113.029L326.52 124.932V70.0799L319.741 56.9591C319.691 56.8442 319.69 56.715 319.737 56.5989C319.784 56.4828 319.876 56.389 319.993 56.3375C320.103 56.2915 320.227 56.2866 320.341 56.3239C320.455 56.3611 320.55 56.4378 320.609 56.5391L326.512 67.9715V48.8531C326.512 48.7284 326.563 48.6087 326.654 48.5205C326.745 48.4323 326.869 48.3827 326.998 48.3827C327.127 48.3827 327.25 48.4323 327.341 48.5205C327.432 48.6087 327.484 48.7284 327.484 48.8531V67.4507L331.424 57.8075C331.448 57.7496 331.483 57.6967 331.527 57.6519C331.572 57.607 331.625 57.5711 331.684 57.5461C331.743 57.5212 331.806 57.5077 331.87 57.5064C331.934 57.5051 331.998 57.5161 332.058 57.5387C332.118 57.5613 332.173 57.5951 332.219 57.6382C332.265 57.6813 332.302 57.7327 332.328 57.7897C332.354 57.8466 332.368 57.9079 332.369 57.9701C332.371 58.0322 332.359 58.094 332.336 58.1519L327.484 70.0295V124.285L336.711 113.693C336.752 113.645 336.802 113.606 336.858 113.578C336.915 113.549 336.977 113.531 337.041 113.526C337.104 113.52 337.169 113.527 337.23 113.546C337.291 113.564 337.347 113.594 337.396 113.634C337.445 113.674 337.486 113.722 337.515 113.777C337.545 113.832 337.563 113.892 337.569 113.954C337.574 114.015 337.567 114.077 337.548 114.136C337.529 114.195 337.498 114.25 337.457 114.298L327.484 125.755V183.875L337.952 165.067C338.014 164.958 338.118 164.877 338.242 164.843C338.366 164.808 338.499 164.822 338.611 164.882C338.665 164.914 338.712 164.956 338.749 165.005C338.786 165.055 338.812 165.111 338.827 165.17C338.841 165.229 338.844 165.291 338.834 165.351C338.823 165.411 338.801 165.469 338.768 165.521Z" fill="#263238"/>
<path d="M355.468 251.041L352.76 250.201C351.362 249.79 350.902 248.563 349.513 246.11C348.125 243.658 344.41 247.337 341.623 247.337C338.837 247.337 342.083 244.472 340.695 242.02C339.306 239.567 335.591 242.431 332.344 241.608C329.098 240.785 333.733 233.426 329.098 233.838C328.23 233.914 327.596 234.577 327.11 235.602C326.668 234.577 326.086 233.922 325.305 233.838C321.078 233.426 325.305 240.793 322.345 241.608C319.385 242.423 316.009 239.567 314.741 242.02C313.474 244.472 316.425 247.337 313.873 247.337C311.321 247.337 307.954 243.658 306.686 246.11C305.419 248.563 304.994 249.79 303.726 250.201L301.261 251.041H355.468Z" fill="#263238"/>
<path d="M115.9 131.072V131.03H115.848V130.988C114.641 130.871 102.151 129.838 90.7541 135.566C95.7865 129.445 98.1057 121.643 97.2033 113.869C94.4604 87.2411 68.4899 71.9951 66.4935 70.8611V70.7939H66.3719V70.9199C64.3669 72.0539 38.405 87.2999 35.6534 113.928C35.0655 119.083 35.8856 124.296 38.0317 129.048C23.4146 120.589 6.36709 122.017 4.79601 122.16H4.62241V122.21C3.84989 123.89 -5.90643 146.638 5.81157 165.89C16.297 183.136 38.2835 178.583 44.2553 176.962C49.2723 182.06 58.4211 193.661 62.4833 213.476H56.7892L59.5408 250.991H72.3525L75.104 213.527H68.3944C71.4682 200.101 77.0134 187.319 84.7649 175.794C90.7367 177.239 106.925 179.675 114.902 166.554C124.415 150.888 116.49 132.475 115.9 131.072ZM66.0247 130.93L52.4839 112.727C52.4552 112.689 52.4344 112.647 52.4228 112.602C52.4112 112.556 52.4089 112.509 52.4162 112.463C52.4235 112.417 52.4401 112.373 52.4651 112.333C52.4902 112.293 52.5231 112.259 52.5621 112.231C52.6416 112.175 52.741 112.151 52.8386 112.165C52.9362 112.179 53.024 112.23 53.0829 112.307L66.0074 129.72V111.299L52.4666 93.1043C52.4081 93.0274 52.3835 92.9312 52.3981 92.8367C52.4128 92.7423 52.4655 92.6573 52.5447 92.6003C52.626 92.5468 52.7255 92.5256 52.8225 92.5412C52.9195 92.5569 53.0066 92.6081 53.0655 92.6843L66.0247 110.114V83.2343C66.0418 83.1407 66.0955 83.0569 66.1747 83.0006C66.254 82.9443 66.3526 82.9197 66.4501 82.9319C66.5292 82.9423 66.6026 82.9775 66.659 83.0321C66.7155 83.0867 66.7519 83.1578 66.7625 83.2343V109.182L80.8241 91.9199C80.884 91.847 80.9708 91.7992 81.0662 91.7867C81.1617 91.7742 81.2584 91.7978 81.3363 91.8527C81.4103 91.9119 81.458 91.9965 81.4693 92.0888C81.4806 92.1811 81.4547 92.274 81.397 92.3483L66.7452 110.4V128.88L80.8068 111.618C80.8365 111.58 80.8737 111.549 80.9162 111.525C80.9587 111.502 81.0057 111.487 81.0543 111.482C81.1029 111.476 81.1521 111.48 81.1991 111.493C81.246 111.507 81.2897 111.529 81.3276 111.559C81.3652 111.588 81.3966 111.623 81.4201 111.664C81.4435 111.704 81.4584 111.749 81.4641 111.795C81.4697 111.841 81.4659 111.887 81.4529 111.932C81.4399 111.977 81.418 112.018 81.3883 112.055L66.7452 130.031V145.621L80.8068 128.368C80.8667 128.295 80.9534 128.247 81.0489 128.234C81.1443 128.222 81.2411 128.245 81.3189 128.3C81.393 128.36 81.4406 128.444 81.4519 128.536C81.4633 128.629 81.4374 128.722 81.3797 128.796L66.7452 146.772V147.116H65.556L52.4579 129.476C52.3994 129.399 52.3748 129.303 52.3894 129.209C52.4041 129.114 52.4568 129.029 52.536 128.972C52.6173 128.919 52.7168 128.898 52.8138 128.913C52.9108 128.929 52.9979 128.98 53.0568 129.056L66.0074 146.52V130.896L66.0247 130.93ZM44.4723 175.357L43.1443 173.593L24.0483 168.452C23.9767 168.425 23.9182 168.373 23.8839 168.306C23.8496 168.239 23.842 168.163 23.8624 168.091C23.8828 168.019 23.9299 167.957 23.9946 167.917C24.0594 167.877 24.1372 167.861 24.2132 167.873L42.554 172.812L34.5945 162.278L15.5419 157.138C15.4627 157.116 15.3955 157.065 15.3549 156.996C15.3143 156.927 15.3035 156.845 15.3249 156.768C15.3471 156.694 15.3988 156.631 15.4686 156.593C15.5385 156.555 15.621 156.546 15.6981 156.566L34.0042 161.506L24.5951 149.04L5.49909 143.899C5.46169 143.89 5.42649 143.874 5.3956 143.852C5.36472 143.83 5.33878 143.802 5.31933 143.77C5.29989 143.738 5.28734 143.702 5.28243 143.665C5.27752 143.628 5.28036 143.591 5.29077 143.555C5.30086 143.517 5.31854 143.482 5.3428 143.451C5.36707 143.42 5.39743 143.394 5.43214 143.374C5.46685 143.355 5.50521 143.342 5.54501 143.337C5.58481 143.332 5.62525 143.335 5.66401 143.345L23.9701 148.284L10.7765 130.762C10.7286 130.697 10.7091 130.616 10.7221 130.538C10.7351 130.459 10.7796 130.389 10.846 130.342C10.9088 130.296 10.9871 130.276 11.0647 130.286C11.1423 130.295 11.2132 130.333 11.2626 130.392L24.9597 148.519L24.8295 130.56C24.8221 130.521 24.823 130.48 24.8322 130.441C24.8415 130.402 24.8588 130.366 24.8831 130.334C24.9075 130.301 24.9384 130.274 24.9739 130.254C25.0095 130.234 25.0489 130.221 25.0899 130.216C25.1298 130.208 25.1709 130.209 25.2106 130.217C25.2503 130.226 25.2878 130.242 25.321 130.265C25.3542 130.287 25.3823 130.316 25.4038 130.35C25.4252 130.383 25.4395 130.42 25.4457 130.459C25.4546 130.492 25.4546 130.527 25.4457 130.56L25.628 149.309L35.0285 161.766L34.8983 143.798C34.8909 143.759 34.8918 143.719 34.901 143.68C34.9103 143.641 34.9276 143.604 34.9519 143.572C34.9763 143.54 35.0072 143.513 35.0427 143.492C35.0783 143.472 35.1177 143.459 35.1587 143.454C35.1986 143.447 35.2397 143.447 35.2794 143.456C35.3191 143.464 35.3566 143.48 35.3898 143.503C35.423 143.526 35.4511 143.555 35.4726 143.588C35.494 143.621 35.5083 143.659 35.5145 143.698C35.5234 143.731 35.5234 143.765 35.5145 143.798L35.6534 162.564L43.4654 173.064L43.3265 155.096C43.3309 155.018 43.3654 154.945 43.4234 154.89C43.4813 154.836 43.5583 154.804 43.639 154.802C43.7196 154.802 43.7969 154.833 43.8538 154.888C43.9108 154.944 43.9428 155.018 43.9428 155.096L44.0817 173.854L45.2188 175.357H44.4723ZM46.6423 175.357C49.4199 171.266 57.4402 157.835 52.6489 144.907C56.3732 147.286 60.3585 149.258 64.5318 150.787V209.117C60.131 191.242 51.8416 180.557 46.7985 175.357H46.6423ZM67.4743 205.522V151.056C71.4464 149.655 75.2548 147.853 78.8364 145.68C71.1893 157.541 79.7044 171.241 82.0133 174.475C75.588 184.061 70.6869 194.527 67.4743 205.522ZM115.145 148.662L99.6858 152.862L92.0474 162.942L106.899 158.927C106.931 158.918 106.965 158.915 106.999 158.92C107.032 158.924 107.065 158.934 107.094 158.951C107.123 158.967 107.148 158.989 107.169 159.015C107.189 159.042 107.203 159.071 107.211 159.103C107.227 159.164 107.218 159.229 107.186 159.284C107.154 159.339 107.1 159.379 107.038 159.397L91.57 163.597L85.1207 172.14L99.9722 168.133C100.035 168.118 100.103 168.126 100.159 168.158C100.216 168.189 100.258 168.24 100.276 168.301C100.292 168.363 100.284 168.43 100.251 168.486C100.219 168.542 100.166 168.584 100.102 168.604L84.6433 172.804L83.8274 173.879C83.6799 173.795 83.5323 173.719 83.4021 173.627L83.8621 173.014L83.975 157.793C83.9771 157.729 84.0044 157.668 84.0511 157.623C84.0979 157.578 84.1606 157.551 84.2267 157.549C84.2935 157.549 84.3575 157.575 84.4047 157.62C84.4519 157.666 84.4784 157.728 84.4784 157.793L84.3743 172.367L90.8235 163.832L90.9363 148.612C90.9363 148.547 90.9629 148.485 91.0101 148.439C91.0573 148.394 91.1213 148.368 91.1881 148.368C91.2541 148.37 91.3169 148.396 91.3637 148.442C91.4104 148.487 91.4376 148.548 91.4398 148.612L91.3269 163.194L98.9567 153.114L99.0695 137.885C99.0804 137.829 99.111 137.779 99.1562 137.742C99.2014 137.706 99.2582 137.686 99.3169 137.686C99.3756 137.686 99.4324 137.706 99.4776 137.742C99.5228 137.779 99.5534 137.829 99.5643 137.885L99.408 152.4L110.518 137.692C110.558 137.641 110.617 137.608 110.681 137.598C110.746 137.589 110.812 137.604 110.866 137.641C110.892 137.659 110.914 137.681 110.931 137.707C110.949 137.733 110.961 137.762 110.966 137.793C110.972 137.823 110.971 137.854 110.964 137.885C110.958 137.915 110.945 137.943 110.926 137.969L100.189 152.19L115.032 148.2C115.095 148.184 115.162 148.193 115.219 148.225C115.276 148.256 115.318 148.307 115.336 148.368C115.355 148.425 115.35 148.487 115.323 148.54C115.295 148.594 115.247 148.634 115.188 148.654L115.145 148.662Z" fill="#263238"/>
<path d="M263.373 79.7315L261.073 73.0619L256.23 66.6443L253.452 74.1287L259.797 82.2011L263.373 79.7315Z" fill="white"/>
<path d="M259.71 82.7807L252.966 74.2043L256.091 65.7539L261.49 72.9359L263.885 79.8995L259.71 82.7807ZM253.912 74.0615L259.866 81.6215L262.835 79.5719L260.656 73.2635L256.316 67.5263L253.912 74.0615Z" fill="#263238"/>
<path d="M297.659 100.463L278.355 101.118C277.642 101.144 276.936 100.973 276.32 100.623C275.705 100.273 275.206 99.7597 274.883 99.1438L263.373 79.7314C263.373 79.7314 260.057 81.4618 259.797 82.201C259.537 82.9402 267.488 101.605 270.899 109.921C271.184 110.622 271.69 111.218 272.344 111.626C272.997 112.034 273.767 112.234 274.544 112.197L296.132 111.357" fill="#92E3A9"/>
<path d="M274.388 112.634C273.554 112.638 272.738 112.4 272.045 111.951C271.352 111.502 270.813 110.862 270.499 110.114C269.805 108.434 268.928 106.301 267.965 103.991C260.439 85.8216 259.224 82.5876 259.389 82.1004C259.667 81.2604 262.123 79.9416 263.165 79.3956L263.538 79.2024L275.256 98.9676C275.543 99.5148 275.985 99.9715 276.531 100.284C277.077 100.596 277.704 100.752 278.338 100.732L297.642 100.076V100.916L278.338 101.572C277.542 101.596 276.756 101.403 276.069 101.013C275.383 100.624 274.824 100.054 274.458 99.3708L263.174 80.3364C262.09 80.8576 261.09 81.5282 260.205 82.3272C260.439 83.646 265.413 95.6748 268.737 103.68C269.692 105.99 270.578 108.115 271.272 109.804C271.524 110.423 271.969 110.951 272.547 111.313C273.125 111.674 273.805 111.852 274.492 111.82L296.079 110.98V111.82L274.492 112.66L274.388 112.634Z" fill="#263238"/>
<path d="M264.672 82.9165L261.65 84.1294L261.899 84.7114L264.922 83.4985L264.672 82.9165Z" fill="#263238"/>
<path d="M271.949 115.91H89.4086V249.445H271.949V115.91Z" fill="#92E3A9"/>
<path d="M271.949 249.84H89.4085C89.2934 249.84 89.1831 249.796 89.1017 249.717C89.0203 249.638 88.9745 249.531 88.9745 249.42V115.86C88.9745 115.749 89.0203 115.642 89.1017 115.563C89.1831 115.484 89.2934 115.44 89.4085 115.44H271.949C272.063 115.444 272.171 115.49 272.251 115.568C272.332 115.645 272.379 115.75 272.383 115.86V249.42C272.383 249.531 272.337 249.638 272.256 249.717C272.174 249.796 272.064 249.84 271.949 249.84ZM89.8599 249H271.532V116.28H89.8599V249Z" fill="#263238"/>
<path d="M89.4086 115.91L170.358 39.4031C172.821 37.3842 175.938 36.265 179.165 36.2404C182.393 36.2158 185.527 37.2875 188.022 39.2688L271.949 115.91H89.4086Z" fill="#92E3A9"/>
<path d="M271.949 116.33H89.4083C89.3224 116.331 89.2382 116.307 89.1669 116.26C89.0956 116.214 89.0406 116.147 89.009 116.07C88.9766 115.992 88.9683 115.907 88.9852 115.825C89.0022 115.743 89.0437 115.667 89.1045 115.608L170.054 39.1091C172.591 37.0204 175.806 35.8595 179.137 35.8287C182.468 35.798 185.704 36.8995 188.282 38.9411L272.226 115.608C272.291 115.665 272.335 115.74 272.354 115.823C272.373 115.906 272.364 115.992 272.331 116.07C272.299 116.144 272.247 116.208 272.179 116.254C272.111 116.3 272.031 116.327 271.949 116.33ZM90.476 115.49H270.855L187.727 39.5711C185.31 37.6582 182.277 36.6263 179.156 36.6555C176.034 36.6847 173.022 37.773 170.644 39.7307L90.476 115.49Z" fill="#263238"/>
<path d="M256.811 52.1711H104.547V176.525H256.811V52.1711Z" fill="white"/>
<path d="M256.811 176.936H104.547C104.431 176.936 104.321 176.892 104.24 176.813C104.158 176.735 104.113 176.628 104.113 176.516V52.1964C104.113 52.085 104.158 51.9781 104.24 51.8994C104.321 51.8206 104.431 51.7764 104.547 51.7764H256.811C256.926 51.7764 257.037 51.8206 257.118 51.8994C257.199 51.9781 257.245 52.085 257.245 52.1964V176.516C257.245 176.628 257.199 176.735 257.118 176.813C257.037 176.892 256.926 176.936 256.811 176.936ZM104.981 176.096H256.377V52.6164H104.981V176.096Z" fill="#263238"/>
<path d="M250.136 168.956H111.256C111.169 168.956 111.085 168.923 111.023 168.863C110.961 168.803 110.926 168.722 110.926 168.637V60.0503C110.929 59.9671 110.964 59.8881 111.026 59.83C111.088 59.7719 111.17 59.7395 111.256 59.7395H250.136C250.22 59.7436 250.299 59.7776 250.359 59.835C250.418 59.8925 250.453 59.9692 250.457 60.0503V168.637C250.457 168.72 250.424 168.8 250.364 168.86C250.304 168.92 250.222 168.954 250.136 168.956ZM111.56 168.36H249.806V60.3695H111.56V168.36Z" fill="#92E3A9"/>
<path d="M245.701 166.008H115.657C115.427 166.008 115.206 165.919 115.043 165.762C114.88 165.604 114.789 165.391 114.789 165.168V63.528C114.789 63.3052 114.88 63.0915 115.043 62.934C115.206 62.7765 115.427 62.688 115.657 62.688H245.701C245.931 62.688 246.152 62.7765 246.314 62.934C246.477 63.0915 246.569 63.3052 246.569 63.528V165.168C246.569 165.391 246.477 165.604 246.314 165.762C246.152 165.919 245.931 166.008 245.701 166.008ZM116.525 164.328H244.833V64.368H116.525V164.328Z" fill="#92E3A9"/>
<path d="M175.627 99.1523C176.269 100.135 176.938 100.631 177.632 100.631V100.706C177.181 100.706 176.591 101.093 175.896 101.866C175.896 102.076 175.818 102.176 175.653 102.176C175.653 101.782 175.393 101.446 174.855 101.168C174.33 100.927 173.75 100.82 173.171 100.858H155.281L153.597 101.479L153.354 101.714H153.224C153.085 101.628 152.965 101.516 152.871 101.385C152.777 101.253 152.711 101.105 152.677 100.949C152.643 100.792 152.642 100.631 152.673 100.474C152.704 100.317 152.768 100.167 152.859 100.034C152.953 99.8929 153.078 99.7726 153.224 99.6815H153.38C153.893 100.045 154.488 100.284 155.116 100.379L155.281 100.538H173.709C174.985 100.32 175.627 99.8915 175.627 99.1523ZM178.518 98.6147C179.221 98.6147 179.785 99.1019 180.193 100.085V100.244H179.958C178.83 99.8915 178.274 99.4799 178.274 99.0011V98.8415L178.518 98.6147ZM179.872 101.135H180.037L180.193 101.294C180.193 101.723 179.741 102.21 178.83 102.764H178.752C178.474 102.764 178.309 102.689 178.274 102.538V102.227C178.654 101.694 179.222 101.315 179.872 101.16V101.135ZM182.918 98.6147L183.083 98.8415V99.0011C183.083 99.3623 182.597 99.7739 181.642 100.244H181.156V100.085C181.156 99.6563 181.582 99.1943 182.441 98.6903L182.918 98.6147ZM181.321 101.135C181.702 101.158 182.067 101.296 182.363 101.53C182.84 101.798 183.083 102.084 183.083 102.37V102.529C183.031 102.68 182.866 102.756 182.597 102.756H182.519C182.023 102.51 181.608 102.135 181.321 101.672L181.156 101.437V101.286L181.321 101.135ZM185.722 99.1188C185.722 99.858 186.364 100.32 187.649 100.522H206.077C206.423 100.271 206.842 100.133 207.274 100.127L207.995 99.6647H208.16C208.332 99.7751 208.473 99.9249 208.57 100.101C208.668 100.277 208.719 100.473 208.719 100.673C208.719 100.872 208.668 101.069 208.57 101.245C208.473 101.421 208.332 101.57 208.16 101.681H207.995C207.366 101.268 206.657 100.983 205.912 100.841H188.204C186.902 100.841 186.069 101.21 185.722 101.933V102.16C185.054 101.32 184.498 100.841 184.038 100.841C184.038 100.74 183.934 100.69 183.726 100.69C183.726 100.589 183.908 100.538 184.281 100.538C184.909 100.264 185.399 99.7593 185.644 99.1355L185.722 99.1188Z" fill="#92E3A9"/>
<path d="M89.4086 116.675L180.679 183.438L271.94 116.675V250.201H89.4086V116.675Z" fill="#92E3A9"/>
<path d="M271.949 250.621H89.4085C89.2934 250.621 89.1831 250.577 89.1017 250.498C89.0203 250.419 88.9745 250.313 88.9745 250.201V116.641C88.9793 116.565 89.0041 116.491 89.0464 116.426C89.0887 116.361 89.1472 116.308 89.2165 116.271C89.2858 116.234 89.3637 116.215 89.4428 116.215C89.5219 116.215 89.5997 116.235 89.669 116.272L180.679 182.842L271.68 116.28C271.77 116.211 271.884 116.18 271.998 116.192C272.112 116.205 272.216 116.261 272.287 116.347C272.348 116.421 272.382 116.513 272.383 116.608V250.168C272.389 250.223 272.384 250.279 272.367 250.332C272.351 250.385 272.324 250.434 272.287 250.477C272.251 250.52 272.206 250.556 272.156 250.582C272.105 250.608 272.049 250.624 271.992 250.63L271.949 250.621ZM89.8425 249.781H271.515V117.515L180.939 183.774C180.863 183.827 180.772 183.856 180.679 183.856C180.585 183.856 180.494 183.827 180.418 183.774L89.8599 117.515L89.8425 249.781Z" fill="#263238"/>
<path d="M89.4086 250.201L167.989 174.156H193.36L271.94 250.201H89.4086Z" fill="#92E3A9"/>
<path d="M271.949 250.621H89.4086C89.3242 250.62 89.2417 250.596 89.171 250.552C89.1002 250.507 89.0441 250.444 89.0094 250.369C88.9745 250.292 88.965 250.206 88.982 250.124C88.9991 250.041 89.042 249.965 89.1048 249.907L167.685 173.862C167.724 173.822 167.771 173.789 167.823 173.768C167.875 173.746 167.932 173.735 167.989 173.736H193.36C193.417 173.735 193.474 173.746 193.526 173.768C193.578 173.789 193.625 173.822 193.664 173.862L272.253 249.907C272.312 249.968 272.352 250.043 272.369 250.125C272.386 250.207 272.379 250.291 272.348 250.369C272.314 250.444 272.257 250.507 272.187 250.552C272.116 250.596 272.034 250.62 271.949 250.621ZM90.4589 249.781H270.899L193.152 174.576H168.171L90.4589 249.781Z" fill="#263238"/>
<path d="M292.538 91.1303L292.286 98.2115L301.01 96.8675L301.313 84.5195L292.538 91.1303Z" fill="white"/>
<path d="M291.835 98.7072L292.104 90.9204L301.774 83.646L301.435 97.2288L291.835 98.7072ZM292.963 91.3404L292.738 97.716L300.55 96.5064L300.819 85.3932L292.963 91.3404Z" fill="#263238"/>
<path d="M285.16 248.504C284.978 248.01 284.83 247.505 284.717 246.992L284.223 243.439L277.799 242.448L272.444 246.136L269.041 247.95H268.972C268.135 248.278 267.335 248.689 266.585 249.176C266.021 249.655 266.298 250.193 267.991 250.193H284.813C284.813 250.193 285.629 249.731 285.16 248.504Z" fill="white"/>
<path d="M284.9 250.621H267.965C266.793 250.621 266.099 250.369 265.908 249.874C265.848 249.69 265.851 249.493 265.917 249.311C265.982 249.129 266.107 248.973 266.272 248.866C267.058 248.348 267.899 247.914 268.781 247.572H268.876L272.209 245.8L277.669 242.036L284.613 243.112L285.143 246.967C285.258 247.447 285.4 247.921 285.568 248.387C285.769 248.757 285.825 249.185 285.726 249.593C285.627 250 285.38 250.359 285.03 250.604L284.9 250.621ZM266.732 249.622C267.13 249.746 267.547 249.8 267.965 249.781H284.639C284.769 249.655 284.995 249.319 284.735 248.656C284.543 248.142 284.386 247.618 284.266 247.085L283.815 243.809L277.886 242.885L272.678 246.48L269.093 248.362C268.308 248.664 267.558 249.044 266.854 249.496C266.807 249.529 266.769 249.572 266.741 249.622H266.732Z" fill="#263238"/>
<path d="M285.264 249H266.845C266.742 249.06 266.647 249.131 266.559 249.21C265.995 249.689 266.272 250.226 267.965 250.226H284.787C284.981 250.089 285.13 249.9 285.215 249.682C285.3 249.464 285.317 249.227 285.264 249Z" fill="white"/>
<path d="M284.9 250.621H267.965C266.793 250.621 266.099 250.369 265.908 249.873C265.848 249.69 265.851 249.492 265.917 249.311C265.982 249.129 266.107 248.973 266.272 248.865C266.378 248.778 266.491 248.699 266.611 248.63L266.715 248.555H285.637L285.698 248.916C285.769 249.231 285.741 249.56 285.617 249.859C285.494 250.158 285.28 250.415 285.004 250.596L284.9 250.621ZM266.732 249.621C267.13 249.746 267.547 249.8 267.965 249.781H284.631C284.735 249.674 284.805 249.54 284.83 249.395H266.975L266.845 249.495C266.799 249.529 266.76 249.572 266.732 249.621Z" fill="#263238"/>
<path d="M313.5 248.504C313.32 248.009 313.169 247.504 313.049 246.992L312.563 243.439L306.14 242.448L300.784 246.136L297.381 247.95H297.312C296.472 248.278 295.669 248.689 294.916 249.176C294.352 249.655 294.639 250.193 296.322 250.193H313.144C313.144 250.193 313.986 249.731 313.5 248.504Z" fill="white"/>
<path d="M313.266 250.621H296.322C295.151 250.621 294.465 250.369 294.265 249.874C294.205 249.69 294.208 249.493 294.274 249.311C294.34 249.129 294.465 248.973 294.63 248.866C295.415 248.348 296.256 247.914 297.138 247.572H297.243L300.567 245.8L306.035 242.036L312.979 243.112L313.509 246.967C313.621 247.447 313.76 247.921 313.926 248.387C314.13 248.756 314.189 249.186 314.09 249.594C313.99 250.002 313.741 250.362 313.387 250.604L313.266 250.621ZM295.099 249.622C295.492 249.75 295.908 249.804 296.322 249.781H312.997C313.127 249.655 313.361 249.319 313.092 248.656C312.909 248.141 312.755 247.616 312.632 247.085L312.172 243.809L306.244 242.885L301.036 246.48L297.451 248.362C296.666 248.664 295.915 249.044 295.211 249.496C295.167 249.532 295.129 249.574 295.099 249.622Z" fill="#263238"/>
<path d="M313.63 249H295.211C295.108 249.062 295.009 249.133 294.916 249.21C294.352 249.689 294.639 250.226 296.322 250.226H313.144C313.34 250.09 313.49 249.901 313.576 249.683C313.662 249.465 313.681 249.228 313.63 249Z" fill="white"/>
<path d="M313.266 250.621H296.322C295.151 250.621 294.465 250.369 294.265 249.873C294.205 249.69 294.208 249.492 294.274 249.311C294.34 249.129 294.465 248.973 294.63 248.865C294.735 248.778 294.849 248.699 294.968 248.63L295.081 248.555H314.004L314.056 248.916C314.129 249.23 314.103 249.558 313.98 249.858C313.858 250.158 313.645 250.415 313.37 250.596L313.266 250.621ZM295.099 249.621C295.492 249.75 295.908 249.804 296.322 249.781H312.997C313.1 249.674 313.17 249.539 313.196 249.395H295.342L295.203 249.495C295.159 249.532 295.121 249.574 295.09 249.621H295.099Z" fill="#263238"/>
<path d="M282.799 144.445L282.027 153.685C282.027 153.685 276.688 190.443 276.94 194.669C277.192 198.894 277.808 242.49 277.808 242.49L284.231 243.481L291.453 195.122L301.591 145.982L282.799 144.445Z" fill="#92E3A9"/>
<path d="M284.57 243.96L277.348 242.801V242.448C277.348 242.011 276.775 198.827 276.523 194.652C276.272 190.477 281.393 155.088 281.61 153.584L282.408 143.991L302.086 145.554L301.991 146.016L291.844 195.164L284.57 243.96ZM278.216 242.087L283.841 242.927L290.993 194.988L301.044 146.268L283.207 144.84L282.469 153.618C282.417 154.013 277.14 190.41 277.383 194.543C277.626 198.675 278.147 237.92 278.216 242.087Z" fill="#263238"/>
<path d="M282.287 241.532L281.688 241.44C281.688 241.306 284.466 227.622 284.466 220.255C284.466 212.888 284.466 205.849 286.323 198.928C288.155 192.14 290.663 178.146 290.663 178.003L291.305 178.112C291.305 178.255 288.806 192.266 286.965 199.112C285.125 205.958 285.16 212.88 285.16 220.28C285.16 227.681 282.313 241.44 282.287 241.532Z" fill="#263238"/>
<path d="M295.836 142.177C300.081 140.035 304.638 138.599 305.923 141.463C308.527 147.184 305.41 155.886 305.41 155.886L307.728 195.988L312.337 243.464L305.089 243.397C305.089 243.397 295.724 202.54 294.187 200.053C292.651 197.567 290.212 162.598 290.212 162.598L285.351 158.28" fill="#92E3A9"/>
<path d="M312.849 243.884L304.777 243.809L304.699 243.481C301.47 229.377 295.038 202.187 293.849 200.263C292.321 197.802 290.125 167.1 289.83 162.791L285.056 158.591L285.637 157.969L290.672 162.379V162.547C291.644 176.567 293.493 198.054 294.586 199.818C296.088 202.246 304.508 238.819 305.463 242.96L311.886 243.019L307.32 195.979L304.959 155.76V155.676C304.959 155.592 307.954 147.058 305.48 141.564C305.369 141.288 305.196 141.04 304.974 140.837C304.751 140.633 304.486 140.48 304.195 140.388C302.615 139.842 299.777 140.573 295.993 142.479L295.593 141.732C299.647 139.682 302.642 138.968 304.49 139.598C304.892 139.729 305.26 139.942 305.569 140.223C305.878 140.505 306.12 140.847 306.278 141.228C308.778 146.806 306.131 154.928 305.801 155.869L308.153 195.895L312.849 243.884Z" fill="#263238"/>
<path d="M309.169 241.205C309.169 241.037 307.285 224.027 304.534 211.914C302.451 202.733 302.607 202.178 302.798 201.347C302.912 200.965 302.962 200.568 302.945 200.171V198.491C302.997 195.635 303.075 191.317 302.32 188.906C301.166 185.168 300.584 179.834 300.428 172.594H301.079C301.192 179.776 301.808 185.051 302.945 188.738C303.726 191.258 303.648 195.618 303.596 198.508V200.188C303.611 200.641 303.555 201.094 303.431 201.531C303.24 202.22 303.084 202.758 305.167 211.796C307.928 223.943 309.794 240.986 309.82 241.196L309.169 241.205Z" fill="#263238"/>
<path d="M301.123 167.948H300.472V165.748C300.732 153.862 300.55 152.543 300.472 152.4L300.767 152.291L300.472 152.148L300.845 151.98C301.175 152.056 301.392 152.106 301.088 165.764C301.14 166.512 301.131 167.243 301.123 167.948Z" fill="#263238"/>
<path d="M286.896 158.775C286.849 158.774 286.802 158.764 286.759 158.745C286.716 158.727 286.677 158.7 286.644 158.666L285.143 156.986C285.104 156.947 285.077 156.897 285.067 156.844C285.056 156.79 285.061 156.735 285.082 156.684L286.071 153.803L286.271 149.603C286.272 149.561 286.282 149.52 286.3 149.482C286.317 149.444 286.343 149.41 286.374 149.382C286.406 149.354 286.443 149.332 286.483 149.318C286.524 149.304 286.567 149.298 286.61 149.3C286.694 149.305 286.774 149.34 286.832 149.399C286.89 149.459 286.922 149.538 286.922 149.619L286.714 153.819C286.722 153.85 286.722 153.882 286.714 153.912L285.768 156.659L287.156 158.229C287.216 158.288 287.249 158.366 287.249 158.448C287.249 158.53 287.216 158.608 287.156 158.666C287.124 158.702 287.084 158.73 287.039 158.749C286.994 158.768 286.945 158.777 286.896 158.775Z" fill="#263238"/>
<path d="M291.297 154.29C286.445 154.29 284.474 152.442 284.353 152.35C284.324 152.322 284.301 152.288 284.285 152.251C284.269 152.215 284.261 152.175 284.261 152.135C284.261 152.096 284.269 152.056 284.285 152.019C284.301 151.983 284.324 151.949 284.353 151.921C284.413 151.864 284.494 151.832 284.578 151.832C284.663 151.832 284.744 151.864 284.804 151.921C284.804 151.921 287.321 154.24 293.597 153.534C293.638 153.528 293.68 153.53 293.72 153.54C293.76 153.55 293.798 153.568 293.831 153.592C293.865 153.616 293.892 153.647 293.913 153.681C293.934 153.716 293.948 153.755 293.953 153.794C293.965 153.876 293.944 153.958 293.894 154.025C293.843 154.091 293.768 154.135 293.684 154.147C292.892 154.241 292.095 154.289 291.297 154.29Z" fill="#263238"/>
<path d="M300.055 150.031C304.95 149.107 305.263 147.772 306.938 146.671C306.955 144.885 306.61 143.113 305.923 141.455C304.638 138.59 300.081 140.027 295.836 142.169L293.84 145.319L282.842 144.479L282.495 148.679C288.148 150.501 294.175 150.965 300.055 150.031Z" fill="#263238"/>
<path d="M283.893 147.335L283.789 148.998L286.584 149.62L286.792 147.444L283.893 147.335Z" fill="white"/>
<path d="M286.896 150.014L283.476 149.25L283.615 147.007L287.174 147.141L286.896 150.014ZM284.153 148.754L286.314 149.233L286.462 147.746L284.231 147.662L284.153 148.754Z" fill="#263238"/>
<path d="M303.379 149.796L302.902 145.671L304.325 145.209L305.037 148.88" fill="#92E3A9"/>
<path d="M302.945 149.846L302.433 145.377L304.655 144.655L305.463 148.805L304.612 148.956L303.987 145.764L303.371 145.957L303.805 149.754L302.945 149.846Z" fill="#263238"/>
<path d="M292.469 151.182L291.514 146.36H293.883L294.838 150.493" fill="#92E3A9"/>
<path d="M292.035 151.258L290.993 145.94H294.239L295.263 150.401L294.413 150.577L293.536 146.78H292.043L292.894 151.098L292.035 151.258Z" fill="#263238"/>
<path d="M289.847 98.2452C289.847 98.2452 285.238 103.285 283.398 105.377C281.558 107.468 281.558 129.737 281.558 133.021C281.558 136.306 279.718 145.193 282.79 146.974C285.863 148.754 304.595 148.166 306.435 145.193C308.275 142.219 309.499 106.553 309.195 103.302C308.891 100.051 306.114 97.422 303.987 96.4644C301.86 95.5068 289.847 98.2452 289.847 98.2452Z" fill="white"/>
<path d="M291.132 148.393C287.443 148.393 283.875 148.091 282.565 147.335C279.961 145.831 280.516 140.186 280.907 136.062C281.02 134.827 281.124 133.769 281.124 133.021C281.124 123.412 281.376 106.981 283.068 105.108C284.891 103.05 289.474 98.0184 289.526 97.968L289.613 97.8672H289.752C290.993 97.5816 301.904 95.1204 304.152 96.1116C306.643 97.2204 309.316 100.034 309.629 103.285C309.941 106.536 308.7 142.387 306.808 145.428C305.523 147.511 298.189 148.133 295.099 148.309C293.84 148.36 292.469 148.393 291.132 148.393ZM290.082 98.64C289.422 99.3624 285.403 103.781 283.728 105.671C282.66 106.88 281.992 117.364 281.992 133.038C281.992 133.828 281.888 134.903 281.775 136.154C281.428 139.834 280.907 145.394 283.016 146.629C284.361 147.41 289.535 147.772 295.047 147.469C300.923 147.142 305.35 146.15 306.061 145C307.797 142.16 309.065 106.586 308.761 103.361C308.457 100.135 305.619 97.6824 303.787 96.8676C302.338 96.1956 294.847 97.548 290.082 98.64Z" fill="#263238"/>
<mask id="mask0_0_1" style="mask-type:luminance" maskUnits="userSpaceOnUse" x="281" y="96" width="29" height="52">
<mask id="mask1_0_1" style="mask-type:luminance" maskUnits="userSpaceOnUse" x="281" y="96" width="29" height="52">
<path d="M289.847 98.2452C289.847 98.2452 285.238 103.285 283.398 105.377C281.558 107.468 281.558 129.737 281.558 133.021C281.558 136.306 279.718 145.193 282.79 146.974C285.863 148.754 304.595 148.166 306.435 145.193C308.275 142.219 309.499 106.553 309.195 103.302C308.891 100.051 306.114 97.422 303.987 96.4644C301.86 95.5068 289.847 98.2452 289.847 98.2452Z" fill="white"/>
</mask>
<g mask="url(#mask1_0_1)">
<path d="M291.132 148.393C287.443 148.393 283.875 148.091 282.565 147.335C279.961 145.831 280.516 140.186 280.907 136.062C281.02 134.827 281.124 133.769 281.124 133.021C281.124 123.412 281.375 106.981 283.068 105.108C284.891 103.05 289.474 98.0184 289.526 97.968L289.613 97.8672H289.752C290.993 97.5816 301.904 95.1204 304.152 96.1116C306.643 97.2204 309.316 100.034 309.629 103.285C309.941 106.536 308.7 142.387 306.808 145.428C305.523 147.511 298.189 148.133 295.099 148.309C293.84 148.36 292.469 148.393 291.132 148.393ZM290.082 98.64C289.422 99.3624 285.403 103.781 283.728 105.671C282.66 106.88 281.992 117.364 281.992 133.038C281.992 133.828 281.888 134.903 281.775 136.154C281.428 139.834 280.907 145.394 283.016 146.629C284.361 147.41 289.535 147.772 295.046 147.469C300.923 147.142 305.35 146.15 306.061 145C307.797 142.16 309.065 106.586 308.761 103.361C308.457 100.135 305.619 97.6824 303.787 96.8676C302.338 96.1956 294.847 97.548 290.082 98.64Z" fill="white"/>
</g>
</mask>
<g mask="url(#mask0_0_1)">
<path d="M303.97 96.4644C303.716 96.3622 303.445 96.3053 303.171 96.2964L301.843 96.9684C301.843 96.9684 305.523 99.7236 306.183 103.932C306.801 107.907 306.746 111.953 306.018 115.91C305.35 120.287 294.639 115.91 296.652 117.532C298.666 119.153 306.2 121.908 306.521 123.361C306.843 124.814 302.841 127.25 301.313 127.41C299.786 127.57 302.32 130.812 303.831 133.567C305.341 136.322 304.829 140.203 301.313 142.807C297.798 145.411 289.752 146.722 286.262 146.856C285.125 146.898 284.414 147.142 284.214 147.469C289.569 148.62 304.759 147.872 306.409 145.21C308.257 142.236 309.473 106.57 309.169 103.319C308.865 100.068 306.114 97.422 303.97 96.4644Z" fill="#92E3A9"/>
</g>
<path d="M299.282 120.866C294.335 119.371 290.012 115.179 290.012 115.179C291.105 120.14 294.086 124.52 298.362 127.452" fill="white"/>
<path d="M298.362 127.763C298.294 127.765 298.226 127.744 298.171 127.704C293.841 124.71 290.818 120.263 289.691 115.23C289.679 115.164 289.689 115.097 289.72 115.038C289.752 114.978 289.802 114.931 289.865 114.902C289.924 114.87 289.993 114.858 290.06 114.867C290.127 114.876 290.19 114.906 290.238 114.953C290.238 114.995 294.578 119.153 299.387 120.564C299.467 120.591 299.534 120.647 299.573 120.721C299.612 120.794 299.62 120.88 299.595 120.959C299.584 120.999 299.565 121.036 299.539 121.068C299.512 121.1 299.479 121.127 299.442 121.147C299.405 121.167 299.363 121.179 299.321 121.182C299.279 121.186 299.236 121.182 299.196 121.169C296.006 120.058 293.076 118.345 290.576 116.129C291.84 120.595 294.653 124.505 298.545 127.2C298.579 127.223 298.609 127.252 298.632 127.286C298.655 127.32 298.67 127.358 298.678 127.398C298.685 127.438 298.684 127.479 298.674 127.519C298.665 127.558 298.647 127.595 298.623 127.628C298.594 127.67 298.555 127.704 298.51 127.727C298.465 127.751 298.414 127.763 298.362 127.763Z" fill="#263238"/>
<path d="M303.049 93.1968L288.311 96.4644L287.391 100.622L303.97 96.4644L303.049 93.1968Z" fill="white"/>
<path d="M286.818 101.202L287.946 96.1114L303.388 92.6926L304.534 96.7666L286.818 101.202ZM288.675 96.817L287.964 100.051L303.44 96.1618L302.746 93.6922L288.675 96.817Z" fill="#263238"/>
<path d="M260.57 74.2801L256.603 72.0625C256.603 72.0625 255.066 71.8693 255.735 73.5409L259.693 76.4977" fill="white"/>
<path d="M259.684 76.9343C259.59 76.9362 259.498 76.9065 259.424 76.8503L255.457 73.8851C255.394 73.8403 255.346 73.7791 255.318 73.7087C255.181 73.4601 255.114 73.1812 255.123 72.8998C255.132 72.6183 255.218 72.344 255.37 72.1043C255.533 71.9377 255.734 71.8106 255.958 71.7333C256.181 71.6559 256.42 71.6305 256.655 71.6591C256.712 71.6669 256.768 71.6839 256.82 71.7095L260.787 73.9355C260.842 73.9558 260.893 73.9868 260.935 74.0267C260.978 74.0666 261.011 74.1145 261.034 74.1675C261.057 74.2205 261.068 74.2774 261.067 74.3347C261.066 74.392 261.053 74.4486 261.029 74.5008C261.004 74.5531 260.969 74.6 260.925 74.6386C260.882 74.6773 260.83 74.7068 260.774 74.7255C260.718 74.7441 260.659 74.7515 260.6 74.7471C260.541 74.7427 260.483 74.7266 260.431 74.6999L260.353 74.6579L256.516 72.4907C256.36 72.476 256.204 72.5213 256.082 72.6167C255.995 72.7259 256.013 72.9779 256.125 73.2971L259.988 76.1867C260.033 76.219 260.072 76.2597 260.1 76.3065C260.129 76.3532 260.148 76.405 260.157 76.4589C260.165 76.5128 260.162 76.5678 260.148 76.6205C260.133 76.6733 260.109 76.7228 260.075 76.7663C260.029 76.8228 259.969 76.8676 259.901 76.8968C259.833 76.9261 259.759 76.939 259.684 76.9343Z" fill="#263238"/>
<path d="M259.988 80.0675C259.806 79.6083 259.532 79.1887 259.181 78.8327L258.443 78.0599L254.415 73.2299C254.415 73.2299 253.166 72.3899 253.443 74.1707L255.943 78.8663L251.499 74.8427C251.499 74.8427 250.631 74.1707 250.631 75.1031C250.631 76.0355 254.658 80.2103 254.658 80.2103L250.214 78.1943C250.214 78.1943 249.242 78.8663 249.937 79.5383C250.631 80.2103 254.381 81.5543 254.381 81.5543L251.048 81.4199C251.048 81.4199 250.075 82.2599 250.77 82.4951C251.464 82.7303 255.353 83.5703 255.353 83.5703C255.848 83.9743 256.412 84.2926 257.019 84.5111L257.992 86.2583L261.724 84.4439L259.988 80.0675Z" fill="white"/>
<path d="M258.035 86.6448C257.957 86.6442 257.881 86.6236 257.814 86.5853C257.747 86.5469 257.691 86.4921 257.653 86.4264L256.785 84.8136C256.209 84.6016 255.673 84.301 255.197 83.9232C254.415 83.7552 251.343 83.0832 250.683 82.8564C250.554 82.8117 250.44 82.7356 250.35 82.6356C250.26 82.5356 250.199 82.4149 250.171 82.2852C250.084 81.7476 250.666 81.2184 250.839 81.0672C250.926 81.0007 251.033 80.9651 251.143 80.9664H251.959C251.156 80.6712 250.4 80.2698 249.711 79.7736C249.581 79.66 249.48 79.5192 249.416 79.3619C249.351 79.2047 249.324 79.0352 249.338 78.8664C249.417 78.4327 249.67 78.0465 250.041 77.7912C250.102 77.7461 250.175 77.7183 250.252 77.7109C250.328 77.7035 250.405 77.7167 250.475 77.7492L252.966 78.8832C251.69 77.4636 250.275 75.7416 250.275 75.036C250.254 74.8692 250.284 74.7 250.363 74.5502C250.442 74.4005 250.566 74.2771 250.718 74.196C250.91 74.1441 251.113 74.1416 251.306 74.1888C251.499 74.2359 251.676 74.3311 251.82 74.4648L254.424 76.8504L253.07 74.3304C253.061 74.2888 253.061 74.246 253.07 74.2044C253.07 73.9272 252.896 73.0704 253.461 72.7176C253.663 72.6268 253.887 72.5914 254.109 72.6151C254.331 72.6387 254.542 72.7207 254.719 72.852C254.755 72.8755 254.787 72.9037 254.815 72.936L258.842 77.7744C258.87 77.8106 258.894 77.8501 258.912 77.892L259.545 78.5556C259.92 78.9526 260.215 79.4142 260.413 79.9164L262.193 84.2592C262.235 84.3565 262.236 84.4655 262.198 84.564C262.159 84.6624 262.083 84.7428 261.984 84.7884L258.252 86.6112C258.182 86.6353 258.109 86.6467 258.035 86.6448ZM251.03 82.092C251.751 82.3356 254.459 82.932 255.483 83.1252C255.593 83.1472 255.69 83.2107 255.752 83.3016C256.193 83.6418 256.688 83.9086 257.219 84.0912C257.314 84.126 257.394 84.1912 257.445 84.276L258.217 85.6704L261.221 84.2088L259.58 80.2188C259.408 79.8143 259.164 79.4419 258.86 79.1184L258.113 78.3456C258.07 78.2966 258.037 78.2394 258.018 78.1776L254.129 73.5156C254.044 73.4725 253.954 73.4414 253.86 73.4232C253.825 73.615 253.825 73.8111 253.86 74.0028L256.325 78.648C256.372 78.7346 256.386 78.8346 256.363 78.9301C256.341 79.0255 256.284 79.1102 256.204 79.1688C256.126 79.2333 256.028 79.2687 255.926 79.2687C255.824 79.2687 255.725 79.2333 255.648 79.1688L251.204 75.1368L251.1 75.0696C251.1 75.5904 253.157 77.976 255.006 79.8912C255.046 79.9303 255.079 79.9767 255.101 80.0279C255.123 80.0791 255.134 80.134 255.134 80.1894C255.134 80.2449 255.123 80.2998 255.101 80.3509C255.079 80.4021 255.046 80.4486 255.006 80.4876C254.944 80.5467 254.865 80.5858 254.78 80.5993C254.694 80.6129 254.606 80.6003 254.528 80.5632L250.345 78.6648C250.257 78.7503 250.197 78.8581 250.171 78.9756C250.181 79.0656 250.224 79.149 250.292 79.2108C251.643 80.0025 253.082 80.6449 254.58 81.126C254.677 81.1617 254.758 81.2292 254.809 81.3167C254.86 81.4042 254.877 81.5062 254.858 81.6048C254.838 81.7026 254.782 81.7901 254.701 81.8516C254.62 81.9132 254.518 81.9448 254.415 81.9408L251.265 81.8148C251.174 81.8966 251.095 81.9899 251.03 82.092Z" fill="#263238"/>
<path d="M302.824 112.08L274.379 118.649C273.24 118.841 272.066 118.646 271.058 118.097C270.05 117.547 269.27 116.676 268.85 115.633L258.035 86.2331L261.767 84.4187L274.058 103.823C274.415 104.455 274.972 104.959 275.647 105.261C276.322 105.564 277.08 105.648 277.808 105.503L294.83 100.841" fill="white"/>
<path d="M273.537 119.094C272.439 119.094 271.365 118.774 270.458 118.174C269.55 117.575 268.851 116.724 268.451 115.734L257.497 86.0399L261.924 83.8811L274.432 103.621C274.736 104.184 275.222 104.636 275.815 104.909C276.409 105.182 277.078 105.26 277.721 105.133L294.708 100.463L294.942 101.303L277.921 105.965C277.095 106.13 276.236 106.032 275.471 105.687C274.706 105.342 274.077 104.768 273.676 104.05L261.602 84.9899L258.573 86.4683L269.258 115.44C269.643 116.39 270.355 117.183 271.274 117.683C272.193 118.184 273.262 118.362 274.301 118.187L302.72 111.618L302.919 112.458L274.484 119.035C274.17 119.08 273.854 119.099 273.537 119.094Z" fill="#263238"/>
<mask id="mask2_0_1" style="mask-type:luminance" maskUnits="userSpaceOnUse" x="258" y="84" width="45" height="35">
<mask id="mask3_0_1" style="mask-type:luminance" maskUnits="userSpaceOnUse" x="258" y="84" width="45" height="35">
<path d="M302.824 112.08L274.379 118.649C273.24 118.841 272.066 118.646 271.058 118.097C270.05 117.547 269.27 116.676 268.85 115.633L258.035 86.2331L261.767 84.4187L274.058 103.823C274.415 104.455 274.972 104.959 275.647 105.261C276.322 105.564 277.08 105.648 277.808 105.503L294.83 100.841" fill="white"/>
</mask>
<g mask="url(#mask3_0_1)">
<path d="M273.538 119.094C272.439 119.094 271.366 118.774 270.458 118.174C269.551 117.575 268.851 116.724 268.451 115.734L257.497 86.0399L261.924 83.8811L274.432 103.621C274.736 104.184 275.222 104.636 275.815 104.909C276.409 105.182 277.078 105.26 277.721 105.133L294.708 100.463L294.942 101.303L277.921 105.965C277.095 106.13 276.236 106.032 275.471 105.687C274.706 105.342 274.077 104.768 273.676 104.05L261.603 84.9899L258.573 86.4683L269.258 115.44C269.643 116.39 270.355 117.183 271.274 117.683C272.193 118.184 273.262 118.362 274.301 118.187L302.72 111.618L302.919 112.458L274.484 119.035C274.17 119.08 273.854 119.099 273.538 119.094Z" fill="white"/>
</g>
</mask>
<g mask="url(#mask2_0_1)">
<path d="M262.028 97.9426C262.028 97.9426 270.89 114.129 274.241 115.263C277.591 116.397 284.613 113.97 284.613 113.97C284.613 113.97 274.909 113.13 278.251 112.836C281.593 112.542 285.446 113.323 291.809 111.87C298.171 110.417 301.357 107.67 299.673 110.408C297.989 113.147 288.623 114.944 285.282 116.078C281.94 117.212 274.57 118.993 272.4 118.665C271.715 118.519 271.072 118.225 270.521 117.804C269.969 117.384 269.523 116.849 269.215 116.238L262.028 97.9426Z" fill="#92E3A9"/>
</g>
<path d="M263.716 87.6964L259.385 89.7952L259.677 90.3585L264.008 88.2597L263.716 87.6964Z" fill="#263238"/>
<path d="M305.836 79.4545C306.239 79.3907 306.652 79.4554 307.014 79.6387C307.375 79.822 307.666 80.114 307.841 80.4708C308.079 80.9415 308.192 81.4625 308.17 81.9863C308.147 82.5101 307.989 83.02 307.711 83.4697C306.357 85.7712 303.136 86.586 303.136 86.586C303.136 86.586 300.081 90.8533 297.06 92.0041C294.04 93.1549 289.127 93.4153 287.729 87.4093C287.122 84.7717 288.918 73.9693 288.918 73.9693C288.972 73.1817 289.187 72.4123 289.551 71.7058C289.915 70.9992 290.419 70.3696 291.036 69.8532C293.05 68.3664 297.737 68.0892 300.419 68.9208C303.102 69.7524 304.759 72.1632 305.497 74.0196C305.973 75.3896 306.168 76.8363 306.07 78.2784L305.784 79.488L305.836 79.4545Z" fill="white"/>
<path d="M293.632 93.0792C292.593 93.0959 291.567 92.8621 290.646 92.3988C288.962 91.5588 287.825 89.8788 287.278 87.5016C286.653 84.8136 288.38 74.3303 288.458 73.8851C288.514 73.0431 288.745 72.2206 289.137 71.467C289.529 70.7135 290.075 70.0445 290.741 69.5003C292.911 67.9043 297.781 67.6524 300.524 68.5092C303.77 69.5172 305.341 72.5747 305.862 73.8431C306.367 75.2737 306.573 76.7869 306.469 78.2951L306.305 79.0259C306.714 79.0513 307.108 79.1823 307.447 79.4054C307.786 79.6285 308.057 79.9355 308.231 80.2944C308.497 80.822 308.623 81.405 308.599 81.9913C308.575 82.5776 308.401 83.1489 308.093 83.6544C306.817 85.8048 304.091 86.7203 303.397 86.9303C302.859 87.6611 300.064 91.2899 297.182 92.3735C296.052 92.8127 294.849 93.0517 293.632 93.0792ZM296.809 68.862C294.699 68.862 292.469 69.282 291.271 70.164C290.124 71.1316 289.422 72.5003 289.318 73.9692C289.318 74.1204 287.53 84.7884 288.12 87.3168C288.615 89.4504 289.604 90.912 291.054 91.6596C293.224 92.7768 295.845 92.004 296.869 91.6175C299.76 90.5256 302.746 86.3927 302.78 86.3507L302.867 86.2248L303.023 86.1827C303.023 86.1827 306.088 85.3428 307.363 83.2596C307.611 82.8697 307.752 82.4249 307.772 81.9676C307.791 81.5103 307.69 81.0557 307.476 80.6472C307.337 80.3742 307.111 80.1517 306.831 80.0125C306.552 79.8734 306.233 79.8249 305.923 79.8744L305.211 79.9835L305.645 78.1692C305.717 76.8118 305.529 75.4532 305.089 74.1623C304.603 73.0031 303.18 70.206 300.281 69.3072C299.154 68.9877 297.983 68.8375 296.809 68.862Z" fill="#263238"/>
<path d="M295.776 79.446C295.672 79.8744 295.776 80.286 295.984 80.286C296.192 80.286 296.47 80.034 296.574 79.6056C296.678 79.1772 296.574 78.7656 296.366 78.7656C296.158 78.7656 295.88 79.0176 295.776 79.446Z" fill="#263238"/>
<path d="M291.062 78.5892C290.958 79.0092 291.062 79.4292 291.271 79.4292C291.479 79.4292 291.757 79.1772 291.861 78.7572C291.965 78.3372 291.861 77.9172 291.653 77.9172C291.444 77.9172 291.167 78.1608 291.062 78.5892Z" fill="#263238"/>
<path d="M298.727 77.9255C298.658 77.9255 298.59 77.9066 298.532 77.871C298.473 77.8353 298.427 77.7843 298.397 77.7239C298.162 77.3354 297.832 77.0092 297.435 76.7747C297.038 76.5401 296.587 76.4045 296.123 76.3799C296.074 76.3767 296.026 76.3641 295.982 76.343C295.938 76.3218 295.899 76.2924 295.866 76.2565C295.834 76.2206 295.809 76.1789 295.794 76.1337C295.778 76.0886 295.772 76.0409 295.776 75.9935C295.787 75.8977 295.835 75.8096 295.911 75.7471C295.987 75.6847 296.084 75.6526 296.184 75.6575C296.777 75.6913 297.352 75.8691 297.855 76.1744C298.359 76.4798 298.775 76.9028 299.065 77.4047C299.088 77.4455 299.103 77.4902 299.107 77.5364C299.112 77.5826 299.108 77.6292 299.094 77.6737C299.081 77.7182 299.058 77.7596 299.028 77.7956C298.997 77.8316 298.96 77.8614 298.918 77.8835C298.859 77.9145 298.793 77.929 298.727 77.9255Z" fill="#263238"/>
<path d="M289.891 76.9512C289.79 76.9507 289.693 76.9115 289.622 76.842C289.587 76.8085 289.559 76.7685 289.54 76.7246C289.521 76.6806 289.511 76.6334 289.511 76.5858C289.511 76.5382 289.521 76.4911 289.54 76.4471C289.559 76.4031 289.587 76.3632 289.622 76.3296C290.007 75.9451 290.506 75.6855 291.05 75.5862C291.594 75.487 292.156 75.553 292.66 75.7752C292.702 75.7988 292.74 75.8303 292.77 75.868C292.801 75.9057 292.823 75.9489 292.836 75.995C292.849 76.0411 292.852 76.0892 292.846 76.1365C292.839 76.1839 292.823 76.2295 292.798 76.2708C292.754 76.3484 292.681 76.407 292.595 76.435C292.508 76.463 292.413 76.4584 292.33 76.422C291.962 76.2692 291.555 76.2283 291.163 76.3048C290.77 76.3813 290.411 76.5716 290.134 76.8504C290.069 76.9123 289.982 76.9482 289.891 76.9512Z" fill="#263238"/>
<path d="M293.059 83.0832C292.737 83.0755 292.425 82.9723 292.166 82.7875C291.907 82.6027 291.712 82.3452 291.609 82.05C291.462 81.4872 291.852 81.0924 292.199 80.748C292.475 80.5281 292.68 80.2367 292.79 79.908C292.972 79.068 293.198 77.5224 293.198 77.514C293.205 77.4666 293.221 77.4209 293.246 77.3796C293.271 77.3383 293.304 77.3022 293.344 77.2734C293.383 77.2445 293.428 77.2235 293.476 77.2114C293.524 77.1994 293.574 77.1966 293.623 77.2032C293.672 77.2098 293.719 77.2257 293.762 77.25C293.805 77.2743 293.842 77.3064 293.872 77.3446C293.901 77.3829 293.923 77.4264 293.936 77.4727C293.948 77.5191 293.951 77.5674 293.944 77.6148C293.944 77.682 293.71 79.1604 293.519 80.0508C293.39 80.5184 293.118 80.9372 292.738 81.252C292.434 81.5544 292.295 81.7056 292.33 81.8568C292.443 82.2852 293.111 82.344 293.111 82.3524C293.16 82.3556 293.208 82.3682 293.252 82.3893C293.296 82.4105 293.335 82.4399 293.367 82.4758C293.4 82.5117 293.424 82.5534 293.44 82.5985C293.455 82.6437 293.462 82.6914 293.458 82.7388C293.456 82.7863 293.444 82.8328 293.423 82.8758C293.402 82.9188 293.373 82.9574 293.337 82.9894C293.3 83.0214 293.258 83.0462 293.212 83.0622C293.166 83.0783 293.117 83.0855 293.067 83.0832H293.059Z" fill="#263238"/>
<path d="M294.968 86.04C294.607 86.0404 294.247 85.9895 293.901 85.8888C293.854 85.8745 293.811 85.8514 293.773 85.8208C293.736 85.7903 293.705 85.7529 293.682 85.7108C293.66 85.6686 293.646 85.6226 293.642 85.5753C293.637 85.5281 293.643 85.4805 293.658 85.4352C293.69 85.3432 293.757 85.267 293.847 85.223C293.936 85.179 294.04 85.1708 294.135 85.2C294.469 85.3038 294.823 85.3372 295.172 85.2981C295.52 85.259 295.857 85.1482 296.158 84.9732C296.197 84.9445 296.242 84.9236 296.289 84.9117C296.337 84.8998 296.387 84.897 296.435 84.9037C296.484 84.9103 296.531 84.9262 296.574 84.9503C296.616 84.9745 296.653 85.0066 296.683 85.0446C296.712 85.0827 296.734 85.126 296.746 85.1721C296.759 85.2183 296.761 85.2663 296.755 85.3135C296.748 85.3607 296.731 85.4061 296.706 85.4472C296.681 85.4882 296.648 85.5241 296.609 85.5528C296.129 85.8798 295.555 86.0504 294.968 86.04Z" fill="#263238"/>
<path d="M302.798 66.4007C302.798 66.4007 299.065 63.2759 295.498 63.2759C291.93 63.2759 289.057 65.2499 286.818 65.4095C284.578 65.5691 283.085 63.6035 281.723 66.2495C280.36 68.8955 285.455 73.3055 288.849 73.9691C292.243 74.6327 296.991 73.6415 298.354 73.4735C299.651 73.3811 300.954 73.3811 302.251 73.4735C302.251 73.4735 301.235 76.5899 302.251 77.5811C302.611 77.8556 302.904 78.2033 303.109 78.5996C303.315 78.9959 303.428 79.4311 303.44 79.8743C303.501 80.5923 303.614 81.3052 303.779 82.0079L304.794 82.3355L305.306 80.5295C306.681 79.11 307.619 77.3469 308.014 75.4391C308.527 72.4907 305.983 69.5591 305.983 69.5591L302.798 66.4007Z" fill="#263238"/>
<path d="M292.451 73.0956C291.12 73.0958 289.791 72.9947 288.476 72.7932C288.429 72.785 288.387 72.7593 288.359 72.7216C288.332 72.6839 288.321 72.6372 288.328 72.5916C288.33 72.5687 288.337 72.5465 288.349 72.5262C288.36 72.506 288.375 72.4883 288.394 72.4741C288.413 72.4599 288.434 72.4496 288.457 72.4438C288.48 72.438 288.504 72.4369 288.528 72.4404C288.58 72.4404 294.326 73.4736 298.762 71.6928C299.968 71.214 300.654 70.5672 300.81 69.7608C301.114 68.2152 299.352 66.552 299.334 66.5352C299.316 66.5187 299.301 66.4986 299.291 66.4762C299.28 66.4537 299.275 66.4295 299.275 66.405C299.275 66.3805 299.28 66.3563 299.291 66.3339C299.301 66.3115 299.316 66.2914 299.334 66.2748C299.371 66.2424 299.419 66.2244 299.469 66.2244C299.519 66.2244 299.567 66.2424 299.604 66.2748C299.682 66.342 301.531 68.0892 301.183 69.828C301.035 70.3534 300.749 70.8325 300.351 71.2184C299.954 71.6042 299.46 71.8835 298.918 72.0288C296.852 72.7779 294.657 73.1399 292.451 73.0956Z" fill="white"/>
<path d="M301.652 73.5492C301.606 73.5496 301.561 73.5336 301.525 73.5042C301.49 73.4749 301.467 73.4341 301.461 73.3896C301.456 73.3418 301.471 73.2941 301.501 73.2565C301.532 73.2188 301.577 73.1943 301.626 73.188C301.687 73.188 303.093 73.0116 303.822 71.0376C303.913 70.689 303.921 70.3251 303.845 69.9731C303.77 69.6211 303.614 69.2901 303.388 69.0048C302.641 67.8669 301.612 66.9283 300.393 66.2748C300.343 66.2748 300.294 66.2553 300.258 66.2207C300.223 66.186 300.202 66.139 300.202 66.09C300.202 66.0432 300.222 65.9983 300.256 65.9652C300.29 65.9322 300.336 65.9136 300.385 65.9136C300.784 65.9136 302.477 67.1064 303.483 68.4924C303.814 68.8484 304.049 69.2772 304.168 69.7413C304.288 70.2055 304.288 70.6909 304.169 71.1552C303.353 73.3644 301.73 73.5492 301.661 73.5492H301.652Z" fill="white"/>
<path d="M142.966 95V83.7186H143.788V95H142.966ZM147.719 95V83.7186H148.412L156.454 93.9847H156.084V83.7186H156.906V95H156.229L148.171 84.7339H148.541V95H147.719ZM163.862 95L158.834 83.7186H159.737L164.539 94.5004H164.04L168.858 83.7186H169.713L164.684 95H163.862ZM171.532 95V83.7186H172.354V95H171.532Z" fill="#263238"/>
<path d="M178.126 95V84.4599H174.064V83.7186H183.009V84.4599H178.948V95H178.126ZM182.595 95L187.785 83.7186H188.607L193.796 95H192.91L188.01 84.2343H188.365L183.482 95H182.595ZM184.497 91.8251L184.771 91.1321H191.524L191.798 91.8251H184.497Z" fill="#263238"/>
<path d="M197.126 95V84.4599H193.064V83.7186H202.009V84.4599H197.948V95H197.126ZM204.047 95V83.7186H204.869V95H204.047ZM213.587 95.0806C212.749 95.0806 211.97 94.9409 211.25 94.6616C210.541 94.3715 209.918 93.9686 209.381 93.4528C208.854 92.9264 208.446 92.3193 208.156 91.6317C207.866 90.9333 207.721 90.1758 207.721 89.3593C207.721 88.5427 207.866 87.7906 208.156 87.103C208.446 86.4046 208.854 85.7976 209.381 85.2818C209.918 84.7554 210.541 84.3525 211.25 84.0731C211.97 83.783 212.749 83.638 213.587 83.638C214.425 83.638 215.199 83.783 215.908 84.0731C216.628 84.3525 217.251 84.75 217.777 85.2657C218.304 85.7815 218.712 86.3885 219.002 87.0869C219.303 87.7745 219.453 88.532 219.453 89.3593C219.453 90.1866 219.303 90.9494 219.002 91.6478C218.712 92.3354 218.304 92.9371 217.777 93.4528C217.251 93.9686 216.628 94.3715 215.908 94.6616C215.199 94.9409 214.425 95.0806 213.587 95.0806ZM213.587 94.3231C214.307 94.3231 214.973 94.1996 215.585 93.9524C216.198 93.7053 216.73 93.3561 217.181 92.9049C217.632 92.4536 217.981 91.9272 218.228 91.3255C218.486 90.7238 218.615 90.0684 218.615 89.3593C218.615 88.6394 218.486 87.984 218.228 87.3931C217.981 86.7914 217.632 86.2649 217.181 85.8137C216.73 85.3624 216.198 85.0132 215.585 84.7661C214.973 84.519 214.307 84.3954 213.587 84.3954C212.867 84.3954 212.201 84.519 211.589 84.7661C210.976 85.0132 210.439 85.3624 209.977 85.8137C209.526 86.2649 209.171 86.7914 208.913 87.3931C208.666 87.984 208.543 88.6394 208.543 89.3593C208.543 90.0684 208.666 90.7238 208.913 91.3255C209.171 91.9272 209.526 92.4536 209.977 92.9049C210.439 93.3561 210.976 93.7053 211.589 93.9524C212.201 94.1996 212.867 94.3231 213.587 94.3231ZM222.304 95V83.7186H222.997L231.039 93.9847H230.669V83.7186H231.49V95H230.814L222.755 84.7339H223.126V95H222.304Z" fill="#263238"/>
</svg>
