<svg width="402" height="422" viewBox="0 0 402 422" fill="none" xmlns="http://www.w3.org/2000/svg">
<path d="M379.118 234.303C379.118 234.303 381.619 132.255 324.342 84.4C273.778 42.1325 202.938 34.4352 153.894 84.8895C136.439 102.858 126.485 133.681 104.85 146.375C80.5447 160.613 47.8782 169.796 30.4234 216.022C12.9685 262.248 29.9168 314.812 66.3541 338.14C102.791 361.468 154.368 323.834 204.497 313.124C254.627 302.414 371.601 361.004 379.118 234.303Z" fill="#92E3A9"/>
<path opacity="0.7" d="M379.118 234.303C379.118 234.303 381.619 132.255 324.342 84.4C273.778 42.1325 202.938 34.4352 153.894 84.8895C136.439 102.858 126.485 133.681 104.85 146.375C80.5447 160.613 47.8782 169.796 30.4234 216.022C12.9685 262.248 29.9168 314.812 66.3541 338.14C102.791 361.468 154.368 323.834 204.497 313.124C254.627 302.414 371.601 361.004 379.118 234.303Z" fill="white"/>
<path opacity="0.3" d="M309.082 58.1685C309.082 58.1685 309.082 35.8953 284.632 35.3805C263.825 34.9754 262.924 52.3365 260.649 60.5655C258.373 68.7945 254.651 60.5655 245.887 62.4982C237.124 64.431 237.124 73.639 235.733 79.4542C234.342 85.2693 228.336 78.492 221.904 80.4417C215.472 82.3913 212.216 89.6413 210.833 92.5531C209.45 95.4649 199.931 91.0592 194.327 93.2029C188.723 95.3467 182.685 104.656 182.685 104.656H346.444C346.444 104.656 352.876 88.6791 341.837 78.0194C330.798 67.3597 323.385 74.1454 316.462 70.761C309.54 67.3765 309.082 58.1685 309.082 58.1685Z" stroke="black" stroke-miterlimit="10"/>
<path opacity="0.3" d="M86.9928 142.906C86.9928 142.906 86.9928 129.301 72.0706 129.005C59.3674 128.761 58.8367 139.353 57.4217 144.383C56.0066 149.413 53.7635 144.383 48.4088 145.565C43.0542 146.746 43.0622 152.367 42.218 155.912C41.3738 159.457 37.7076 155.321 33.768 156.503C29.8284 157.684 27.8506 162.124 27.0064 163.896C26.1622 165.669 20.3492 162.985 16.9322 164.293C13.5152 165.601 9.82489 171.332 9.82489 171.332H109.81C109.81 171.332 113.75 161.575 106.996 155.068C100.243 148.561 95.7403 152.705 91.5032 150.637C87.2662 148.569 86.9928 142.906 86.9928 142.906Z" stroke="black" stroke-miterlimit="10"/>
<g opacity="0.3">
<path d="M75.8654 251.588H67.8254V259.04H75.8654V251.588Z" stroke="black" stroke-miterlimit="10"/>
<path d="M62.3904 256.103H59.1262V259.041H62.3904V256.103Z" stroke="black" stroke-miterlimit="10"/>
<path d="M389.546 298.641H359.066V239.51H361.101V233.391H289.673V239.51H292.149V327.447H273.416V138.787H209.177V281.466H185.684V265.666H191.834V258.99H140.475V163.28H143.795V158.267H81.4533V163.28H85.9235V259.15H36.6463V327.725H10.7736" stroke="black" stroke-miterlimit="10"/>
<path d="M275.973 136.728H206.314V138.779H275.973V136.728Z" stroke="black" stroke-miterlimit="10"/>
<path d="M99.3503 168.842H91.5032V176.565H99.3503V168.842Z" stroke="black" stroke-miterlimit="10"/>
<path d="M110.856 168.842H103.008V176.565H110.856V168.842Z" stroke="black" stroke-miterlimit="10"/>
<path d="M122.361 168.842H114.514V176.565H122.361V168.842Z" stroke="black" stroke-miterlimit="10"/>
<path d="M133.874 168.842H126.027V176.565H133.874V168.842Z" stroke="black" stroke-miterlimit="10"/>
<path d="M99.3503 181.08H91.5032V188.803H99.3503V181.08Z" stroke="black" stroke-miterlimit="10"/>
<path d="M110.856 181.08H103.008V188.803H110.856V181.08Z" stroke="black" stroke-miterlimit="10"/>
<path d="M122.361 181.08H114.514V188.803H122.361V181.08Z" stroke="black" stroke-miterlimit="10"/>
<path d="M133.874 181.08H126.027V188.803H133.874V181.08Z" stroke="black" stroke-miterlimit="10"/>
<path d="M99.3503 193.327H91.5032V201.049H99.3503V193.327Z" stroke="black" stroke-miterlimit="10"/>
<path d="M110.856 193.327H103.008V201.049H110.856V193.327Z" stroke="black" stroke-miterlimit="10"/>
<path d="M122.361 193.327H114.514V201.049H122.361V193.327Z" stroke="black" stroke-miterlimit="10"/>
<path d="M133.874 193.327H126.027V201.049H133.874V193.327Z" stroke="black" stroke-miterlimit="10"/>
<path d="M99.3503 205.565H91.5032V213.287H99.3503V205.565Z" stroke="black" stroke-miterlimit="10"/>
<path d="M110.856 205.565H103.008V213.287H110.856V205.565Z" stroke="black" stroke-miterlimit="10"/>
<path d="M122.361 205.565H114.514V213.287H122.361V205.565Z" stroke="black" stroke-miterlimit="10"/>
<path d="M133.874 205.565H126.027V213.287H133.874V205.565Z" stroke="black" stroke-miterlimit="10"/>
<path d="M99.3503 217.811H91.5032V225.534H99.3503V217.811Z" stroke="black" stroke-miterlimit="10"/>
<path d="M110.856 217.811H103.008V225.534H110.856V217.811Z" stroke="black" stroke-miterlimit="10"/>
<path d="M122.361 217.811H114.514V225.534H122.361V217.811Z" stroke="black" stroke-miterlimit="10"/>
<path d="M133.874 217.811H126.027V225.534H133.874V217.811Z" stroke="black" stroke-miterlimit="10"/>
<path d="M99.3503 230.057H91.5032V237.78H99.3503V230.057Z" stroke="black" stroke-miterlimit="10"/>
<path d="M110.856 230.057H103.008V237.78H110.856V230.057Z" stroke="black" stroke-miterlimit="10"/>
<path d="M122.361 230.057H114.514V237.78H122.361V230.057Z" stroke="black" stroke-miterlimit="10"/>
<path d="M133.874 230.057H126.027V237.78H133.874V230.057Z" stroke="black" stroke-miterlimit="10"/>
<path d="M99.3503 242.296H91.5032V250.018H99.3503V242.296Z" stroke="black" stroke-miterlimit="10"/>
<path d="M110.856 242.296H103.008V250.018H110.856V242.296Z" stroke="black" stroke-miterlimit="10"/>
<path d="M122.361 242.296H114.514V250.018H122.361V242.296Z" stroke="black" stroke-miterlimit="10"/>
<path d="M133.874 242.296H126.027V250.018H133.874V242.296Z" stroke="black" stroke-miterlimit="10"/>
<path d="M99.3503 254.542H91.5032V262.265H99.3503V254.542Z" stroke="black" stroke-miterlimit="10"/>
<path d="M110.856 254.542H103.008V262.265H110.856V254.542Z" stroke="black" stroke-miterlimit="10"/>
<path d="M122.361 254.542H114.514V262.265H122.361V254.542Z" stroke="black" stroke-miterlimit="10"/>
<path d="M133.874 254.542H126.027V262.265H133.874V254.542Z" stroke="black" stroke-miterlimit="10"/>
<path d="M99.3503 265.733H91.5032V273.456H99.3503V265.733Z" stroke="black" stroke-miterlimit="10"/>
<path d="M110.856 265.733H103.008V273.456H110.856V265.733Z" stroke="black" stroke-miterlimit="10"/>
<path d="M122.361 265.733H114.514V273.456H122.361V265.733Z" stroke="black" stroke-miterlimit="10"/>
<path d="M133.874 265.733H126.027V273.456H133.874V265.733Z" stroke="black" stroke-miterlimit="10"/>
<path d="M99.3503 277.98H91.5032V285.702H99.3503V277.98Z" stroke="black" stroke-miterlimit="10"/>
<path d="M110.856 277.98H103.008V285.702H110.856V277.98Z" stroke="black" stroke-miterlimit="10"/>
<path d="M122.361 277.98H114.514V285.702H122.361V277.98Z" stroke="black" stroke-miterlimit="10"/>
<path d="M133.874 277.98H126.027V285.702H133.874V277.98Z" stroke="black" stroke-miterlimit="10"/>
<path d="M99.3503 290.218H91.5032V297.94H99.3503V290.218Z" stroke="black" stroke-miterlimit="10"/>
<path d="M110.856 290.218H103.008V297.94H110.856V290.218Z" stroke="black" stroke-miterlimit="10"/>
<path d="M122.361 290.218H114.514V297.94H122.361V290.218Z" stroke="black" stroke-miterlimit="10"/>
<path d="M133.874 290.218H126.027V297.94H133.874V290.218Z" stroke="black" stroke-miterlimit="10"/>
<path d="M99.3503 302.464H91.5032V310.187H99.3503V302.464Z" stroke="black" stroke-miterlimit="10"/>
<path d="M110.856 302.464H103.008V310.187H110.856V302.464Z" stroke="black" stroke-miterlimit="10"/>
<path d="M122.361 302.464H114.514V310.187H122.361V302.464Z" stroke="black" stroke-miterlimit="10"/>
<path d="M133.874 302.464H126.027V310.187H133.874V302.464Z" stroke="black" stroke-miterlimit="10"/>
<path d="M99.3503 314.711H91.5032V322.433H99.3503V314.711Z" stroke="black" stroke-miterlimit="10"/>
<path d="M110.856 314.711H103.008V322.433H110.856V314.711Z" stroke="black" stroke-miterlimit="10"/>
<path d="M122.361 314.711H114.514V322.433H122.361V314.711Z" stroke="black" stroke-miterlimit="10"/>
<path d="M133.874 314.711H126.027V322.433H133.874V314.711Z" stroke="black" stroke-miterlimit="10"/>
<path d="M99.3503 326.949H91.5032V334.671H99.3503V326.949Z" stroke="black" stroke-miterlimit="10"/>
<path d="M110.856 326.949H103.008V334.671H110.856V326.949Z" stroke="black" stroke-miterlimit="10"/>
<path d="M122.361 326.949H114.514V334.671H122.361V326.949Z" stroke="black" stroke-miterlimit="10"/>
<path d="M133.874 326.949H126.027V334.671H133.874V326.949Z" stroke="black" stroke-miterlimit="10"/>
<path d="M99.3503 339.195H91.5032V346.918H99.3503V339.195Z" stroke="black" stroke-miterlimit="10"/>
<path d="M110.856 339.195H103.008V346.918H110.856V339.195Z" stroke="black" stroke-miterlimit="10"/>
<path d="M122.361 339.195H114.514V346.918H122.361V339.195Z" stroke="black" stroke-miterlimit="10"/>
<path d="M133.874 339.195H126.027V346.918H133.874V339.195Z" stroke="black" stroke-miterlimit="10"/>
<path d="M99.3503 351.433H91.5032V359.156H99.3503V351.433Z" stroke="black" stroke-miterlimit="10"/>
<path d="M110.856 351.433H103.008V359.156H110.856V351.433Z" stroke="black" stroke-miterlimit="10"/>
<path d="M122.361 351.433H114.514V359.156H122.361V351.433Z" stroke="black" stroke-miterlimit="10"/>
<path d="M133.874 351.433H126.027V359.156H133.874V351.433Z" stroke="black" stroke-miterlimit="10"/>
<path d="M144.294 265.733H136.447V273.456H144.294V265.733Z" stroke="black" stroke-miterlimit="10"/>
<path d="M155.807 265.733H147.96V273.456H155.807V265.733Z" stroke="black" stroke-miterlimit="10"/>
<path d="M167.312 265.733H159.465V273.456H167.312V265.733Z" stroke="black" stroke-miterlimit="10"/>
<path d="M178.818 265.733H170.971V273.456H178.818V265.733Z" stroke="black" stroke-miterlimit="10"/>
<path d="M144.294 277.98H136.447V285.702H144.294V277.98Z" stroke="black" stroke-miterlimit="10"/>
<path d="M155.807 277.98H147.96V285.702H155.807V277.98Z" stroke="black" stroke-miterlimit="10"/>
<path d="M167.312 277.98H159.465V285.702H167.312V277.98Z" stroke="black" stroke-miterlimit="10"/>
<path d="M178.818 277.98H170.971V285.702H178.818V277.98Z" stroke="black" stroke-miterlimit="10"/>
<path d="M144.294 290.218H136.447V297.94H144.294V290.218Z" stroke="black" stroke-miterlimit="10"/>
<path d="M155.807 290.218H147.96V297.94H155.807V290.218Z" stroke="black" stroke-miterlimit="10"/>
<path d="M167.312 290.218H159.465V297.94H167.312V290.218Z" stroke="black" stroke-miterlimit="10"/>
<path d="M178.818 290.218H170.971V297.94H178.818V290.218Z" stroke="black" stroke-miterlimit="10"/>
<path d="M144.294 302.464H136.447V310.187H144.294V302.464Z" stroke="black" stroke-miterlimit="10"/>
<path d="M155.807 302.464H147.96V310.187H155.807V302.464Z" stroke="black" stroke-miterlimit="10"/>
<path d="M167.312 302.464H159.465V310.187H167.312V302.464Z" stroke="black" stroke-miterlimit="10"/>
<path d="M178.818 302.464H170.971V310.187H178.818V302.464Z" stroke="black" stroke-miterlimit="10"/>
<path d="M144.294 314.711H136.447V322.433H144.294V314.711Z" stroke="black" stroke-miterlimit="10"/>
<path d="M155.807 314.711H147.96V322.433H155.807V314.711Z" stroke="black" stroke-miterlimit="10"/>
<path d="M167.312 314.711H159.465V322.433H167.312V314.711Z" stroke="black" stroke-miterlimit="10"/>
<path d="M178.818 314.711H170.971V322.433H178.818V314.711Z" stroke="black" stroke-miterlimit="10"/>
<path d="M144.294 326.949H136.447V334.671H144.294V326.949Z" stroke="black" stroke-miterlimit="10"/>
<path d="M155.807 326.949H147.96V334.671H155.807V326.949Z" stroke="black" stroke-miterlimit="10"/>
<path d="M167.312 326.949H159.465V334.671H167.312V326.949Z" stroke="black" stroke-miterlimit="10"/>
<path d="M178.818 326.949H170.971V334.671H178.818V326.949Z" stroke="black" stroke-miterlimit="10"/>
<path d="M144.294 339.195H136.447V346.918H144.294V339.195Z" stroke="black" stroke-miterlimit="10"/>
<path d="M155.807 339.195H147.96V346.918H155.807V339.195Z" stroke="black" stroke-miterlimit="10"/>
<path d="M167.312 339.195H159.465V346.918H167.312V339.195Z" stroke="black" stroke-miterlimit="10"/>
<path d="M178.818 339.195H170.971V346.918H178.818V339.195Z" stroke="black" stroke-miterlimit="10"/>
<path d="M144.294 351.433H136.447V359.156H144.294V351.433Z" stroke="black" stroke-miterlimit="10"/>
<path d="M155.807 351.433H147.96V359.156H155.807V351.433Z" stroke="black" stroke-miterlimit="10"/>
<path d="M167.312 351.433H159.465V359.156H167.312V351.433Z" stroke="black" stroke-miterlimit="10"/>
<path d="M178.818 351.433H170.971V359.156H178.818V351.433Z" stroke="black" stroke-miterlimit="10"/>
<path d="M53.7635 265.733H45.9164V273.456H53.7635V265.733Z" stroke="black" stroke-miterlimit="10"/>
<path d="M65.2768 265.733H57.4297V273.456H65.2768V265.733Z" stroke="black" stroke-miterlimit="10"/>
<path d="M76.782 265.733H68.935V273.456H76.782V265.733Z" stroke="black" stroke-miterlimit="10"/>
<path d="M88.2873 265.733H80.4402V273.456H88.2873V265.733Z" stroke="black" stroke-miterlimit="10"/>
<path d="M53.7635 277.98H45.9164V285.702H53.7635V277.98Z" stroke="black" stroke-miterlimit="10"/>
<path d="M65.2768 277.98H57.4297V285.702H65.2768V277.98Z" stroke="black" stroke-miterlimit="10"/>
<path d="M76.782 277.98H68.935V285.702H76.782V277.98Z" stroke="black" stroke-miterlimit="10"/>
<path d="M88.2873 277.98H80.4402V285.702H88.2873V277.98Z" stroke="black" stroke-miterlimit="10"/>
<path d="M53.7635 290.218H45.9164V297.94H53.7635V290.218Z" stroke="black" stroke-miterlimit="10"/>
<path d="M65.2768 290.218H57.4297V297.94H65.2768V290.218Z" stroke="black" stroke-miterlimit="10"/>
<path d="M76.782 290.218H68.935V297.94H76.782V290.218Z" stroke="black" stroke-miterlimit="10"/>
<path d="M88.2873 290.218H80.4402V297.94H88.2873V290.218Z" stroke="black" stroke-miterlimit="10"/>
<path d="M53.7635 302.464H45.9164V310.187H53.7635V302.464Z" stroke="black" stroke-miterlimit="10"/>
<path d="M65.2768 302.464H57.4297V310.187H65.2768V302.464Z" stroke="black" stroke-miterlimit="10"/>
<path d="M76.782 302.464H68.935V310.187H76.782V302.464Z" stroke="black" stroke-miterlimit="10"/>
<path d="M88.2873 302.464H80.4402V310.187H88.2873V302.464Z" stroke="black" stroke-miterlimit="10"/>
<path d="M53.7635 314.711H45.9164V322.433H53.7635V314.711Z" stroke="black" stroke-miterlimit="10"/>
<path d="M65.2768 314.711H57.4297V322.433H65.2768V314.711Z" stroke="black" stroke-miterlimit="10"/>
<path d="M76.782 314.711H68.935V322.433H76.782V314.711Z" stroke="black" stroke-miterlimit="10"/>
<path d="M88.2873 314.711H80.4402V322.433H88.2873V314.711Z" stroke="black" stroke-miterlimit="10"/>
<path d="M53.7635 326.949H45.9164V334.671H53.7635V326.949Z" stroke="black" stroke-miterlimit="10"/>
<path d="M65.2768 326.949H57.4297V334.671H65.2768V326.949Z" stroke="black" stroke-miterlimit="10"/>
<path d="M76.782 326.949H68.935V334.671H76.782V326.949Z" stroke="black" stroke-miterlimit="10"/>
<path d="M88.2873 326.949H80.4402V334.671H88.2873V326.949Z" stroke="black" stroke-miterlimit="10"/>
<path d="M53.7635 339.195H45.9164V346.918H53.7635V339.195Z" stroke="black" stroke-miterlimit="10"/>
<path d="M65.2768 339.195H57.4297V346.918H65.2768V339.195Z" stroke="black" stroke-miterlimit="10"/>
<path d="M76.782 339.195H68.935V346.918H76.782V339.195Z" stroke="black" stroke-miterlimit="10"/>
<path d="M88.2873 339.195H80.4402V346.918H88.2873V339.195Z" stroke="black" stroke-miterlimit="10"/>
<path d="M53.7635 351.433H45.9164V359.156H53.7635V351.433Z" stroke="black" stroke-miterlimit="10"/>
<path d="M65.2768 351.433H57.4297V359.156H65.2768V351.433Z" stroke="black" stroke-miterlimit="10"/>
<path d="M76.782 351.433H68.935V359.156H76.782V351.433Z" stroke="black" stroke-miterlimit="10"/>
<path d="M88.2873 351.433H80.4402V359.156H88.2873V351.433Z" stroke="black" stroke-miterlimit="10"/>
<path d="M310.843 241.739H302.995V249.461H310.843V241.739Z" stroke="black" stroke-miterlimit="10"/>
<path d="M322.348 241.739H314.501V249.461H322.348V241.739Z" stroke="black" stroke-miterlimit="10"/>
<path d="M333.853 241.739H326.006V249.461H333.853V241.739Z" stroke="black" stroke-miterlimit="10"/>
<path d="M345.366 241.739H337.519V249.461H345.366V241.739Z" stroke="black" stroke-miterlimit="10"/>
<path d="M310.843 253.985H302.995V261.708H310.843V253.985Z" stroke="black" stroke-miterlimit="10"/>
<path d="M322.348 253.985H314.501V261.708H322.348V253.985Z" stroke="black" stroke-miterlimit="10"/>
<path d="M333.853 253.985H326.006V261.708H333.853V253.985Z" stroke="black" stroke-miterlimit="10"/>
<path d="M345.366 253.985H337.519V261.708H345.366V253.985Z" stroke="black" stroke-miterlimit="10"/>
<path d="M310.843 266.223H302.995V273.945H310.843V266.223Z" stroke="black" stroke-miterlimit="10"/>
<path d="M322.348 266.223H314.501V273.945H322.348V266.223Z" stroke="black" stroke-miterlimit="10"/>
<path d="M333.853 266.223H326.006V273.945H333.853V266.223Z" stroke="black" stroke-miterlimit="10"/>
<path d="M345.366 266.223H337.519V273.945H345.366V266.223Z" stroke="black" stroke-miterlimit="10"/>
<path d="M310.843 278.469H302.995V286.192H310.843V278.469Z" stroke="black" stroke-miterlimit="10"/>
<path d="M322.348 278.469H314.501V286.192H322.348V278.469Z" stroke="black" stroke-miterlimit="10"/>
<path d="M333.853 278.469H326.006V286.192H333.853V278.469Z" stroke="black" stroke-miterlimit="10"/>
<path d="M345.366 278.469H337.519V286.192H345.366V278.469Z" stroke="black" stroke-miterlimit="10"/>
<path d="M310.843 290.707H302.995V298.43H310.843V290.707Z" stroke="black" stroke-miterlimit="10"/>
<path d="M322.348 290.707H314.501V298.43H322.348V290.707Z" stroke="black" stroke-miterlimit="10"/>
<path d="M333.853 290.707H326.006V298.43H333.853V290.707Z" stroke="black" stroke-miterlimit="10"/>
<path d="M345.366 290.707H337.519V298.43H345.366V290.707Z" stroke="black" stroke-miterlimit="10"/>
<path d="M310.843 302.954H302.995V310.676H310.843V302.954Z" stroke="black" stroke-miterlimit="10"/>
<path d="M322.348 302.954H314.501V310.676H322.348V302.954Z" stroke="black" stroke-miterlimit="10"/>
<path d="M333.853 302.954H326.006V310.676H333.853V302.954Z" stroke="black" stroke-miterlimit="10"/>
<path d="M345.366 302.954H337.519V310.676H345.366V302.954Z" stroke="black" stroke-miterlimit="10"/>
<path d="M310.843 315.192H302.995V322.914H310.843V315.192Z" stroke="black" stroke-miterlimit="10"/>
<path d="M322.348 315.192H314.501V322.914H322.348V315.192Z" stroke="black" stroke-miterlimit="10"/>
<path d="M333.853 315.192H326.006V322.914H333.853V315.192Z" stroke="black" stroke-miterlimit="10"/>
<path d="M345.366 315.192H337.519V322.914H345.366V315.192Z" stroke="black" stroke-miterlimit="10"/>
<path d="M310.843 327.438H302.995V335.161H310.843V327.438Z" stroke="black" stroke-miterlimit="10"/>
<path d="M322.348 327.438H314.501V335.161H322.348V327.438Z" stroke="black" stroke-miterlimit="10"/>
<path d="M333.853 327.438H326.006V335.161H333.853V327.438Z" stroke="black" stroke-miterlimit="10"/>
<path d="M345.366 327.438H337.519V335.161H345.366V327.438Z" stroke="black" stroke-miterlimit="10"/>
<path d="M215.223 143.244V366.946" stroke="black" stroke-miterlimit="10"/>
<path d="M223.005 143.244V366.946" stroke="black" stroke-miterlimit="10"/>
<path d="M230.788 143.244V366.946" stroke="black" stroke-miterlimit="10"/>
<path d="M238.571 143.244V366.946" stroke="black" stroke-miterlimit="10"/>
<path d="M246.354 143.244V366.946" stroke="black" stroke-miterlimit="10"/>
<path d="M254.136 143.244V366.946" stroke="black" stroke-miterlimit="10"/>
<path d="M261.919 143.244V366.946" stroke="black" stroke-miterlimit="10"/>
<path d="M269.702 143.244V366.946" stroke="black" stroke-miterlimit="10"/>
</g>
<path d="M15.4207 325.024C17.7681 325.47 20.1726 325.47 22.52 325.024C22.52 326.535 22.52 328.13 22.6888 329.785C22.8707 332.201 23.2554 334.596 23.8386 336.942V337.026C23.4446 336.368 22.2788 334.578 22.1743 334.452C20.703 332.671 16.8518 330.122 14.5363 331.16C14.155 331.342 13.8148 331.607 13.5377 331.937C13.2607 332.267 13.0531 332.654 12.9286 333.074C12.8042 333.494 12.7656 333.937 12.8154 334.374C12.8652 334.81 13.0023 335.231 13.2177 335.608C14.07 337.237 16.1202 338.047 17.7845 338.3C19.6578 338.587 23.6054 337.389 23.919 337.296C24.5749 339.665 25.3807 341.986 26.331 344.242C26.8696 345.567 27.4566 346.876 28.0596 348.184C27.6978 347.627 27.3762 347.137 27.3199 347.07C25.8486 345.289 22.0055 342.748 19.6899 343.778C19.3089 343.961 18.9687 344.225 18.6915 344.555C18.4144 344.884 18.2065 345.272 18.0813 345.691C17.9562 346.111 17.9166 346.553 17.9652 346.99C18.0138 347.427 18.1494 347.848 18.3633 348.226C19.2236 349.863 21.2738 350.674 22.9381 350.927C24.6024 351.18 28.0113 350.226 28.9038 349.965L29.6033 351.458C30.753 353.847 31.9027 356.227 32.9559 358.599C33.3338 359.443 33.6715 360.287 34.0172 361.131C33.6956 360.641 33.4222 360.228 33.374 360.169C31.9027 358.379 28.0596 355.839 25.736 356.877C25.3559 357.059 25.0166 357.324 24.7404 357.653C24.4641 357.982 24.257 358.369 24.1326 358.788C24.0082 359.206 23.9693 359.648 24.0183 360.084C24.0674 360.52 24.2034 360.94 24.4175 361.316C25.2777 362.954 27.3279 363.764 28.9842 364.017C30.6404 364.27 33.7278 363.418 34.7891 363.106C35.1187 363.95 35.4403 364.844 35.7217 365.697C35.8986 366.288 36.1076 366.836 36.2523 367.444C36.3971 368.051 36.5659 368.617 36.7267 369.199C36.984 370.33 37.2573 371.495 37.4824 372.575C37.6432 373.343 37.788 374.086 37.9327 374.829C37.5629 373.985 36.8232 372.373 36.7428 372.246C35.5448 370.246 32.1198 367.123 29.6756 367.773C29.2685 367.892 28.8901 368.1 28.5657 368.384C28.2413 368.669 27.9783 369.022 27.7942 369.421C27.6101 369.821 27.5092 370.256 27.4981 370.7C27.487 371.143 27.566 371.584 27.7299 371.993C28.341 373.74 30.2464 374.871 31.8544 375.369C33.6232 375.934 37.5387 375.42 38.0292 375.369C38.2623 376.593 38.4794 377.791 38.6724 378.922C38.8171 379.766 38.9457 380.61 39.0663 381.454H40.6341C40.4814 380.568 40.3206 379.64 40.1356 378.677C39.9025 377.428 39.6291 376.103 39.3316 374.736C40.51 374.247 41.6592 373.683 42.7728 373.048C44.0592 374.517 47.3636 376.23 47.7978 376.424C47.3475 377.58 46.8973 378.703 46.4551 379.758C46.2219 380.34 45.9888 380.889 45.7556 381.446H47.436C47.5727 381.091 47.7174 380.745 47.854 380.382C48.3204 379.201 48.7867 377.935 49.2611 376.627C49.7354 376.736 53.6107 377.563 55.4197 377.133C57.0277 376.745 59.0457 375.774 59.7774 374.069C59.9629 373.678 60.0683 373.25 60.0869 372.814C60.1055 372.377 60.0369 371.942 59.8855 371.535C59.734 371.128 59.5031 370.758 59.2075 370.451C58.912 370.143 58.5583 369.904 58.1694 369.748C55.7574 368.904 52.1394 371.748 50.8047 373.647C50.7243 373.757 50.0007 375.074 49.5505 375.918C49.7435 375.377 49.9364 374.863 50.1213 374.314C50.5073 373.225 50.853 372.12 51.2309 370.938C51.3997 370.364 51.5685 369.782 51.7293 369.191C51.8901 368.6 52.0268 367.967 52.1796 367.359C52.5092 365.925 52.7665 364.456 52.9836 362.971C53.9001 363.325 57.1483 364.507 58.8286 364.389C60.509 364.27 62.6075 363.612 63.5803 362.051C63.8207 361.69 63.9862 361.281 64.066 360.849C64.1457 360.418 64.1379 359.973 64.0431 359.545C63.9483 359.116 63.7686 358.714 63.5157 358.363C63.2628 358.013 62.9424 357.722 62.5753 357.51C60.3 356.219 56.28 358.455 54.672 360.118C54.5755 360.219 53.5625 361.553 53.0157 362.295C53.1444 361.401 53.2891 360.506 53.3936 359.603C53.6991 356.978 53.9403 354.311 54.1976 351.661L54.4388 349.222C54.7685 349.348 58.5955 350.851 60.4849 350.707C62.1572 350.589 64.2637 349.939 65.2365 348.378C65.477 348.018 65.6425 347.608 65.7222 347.177C65.802 346.745 65.7942 346.3 65.6993 345.872C65.6045 345.444 65.4248 345.041 65.1719 344.69C64.919 344.34 64.5986 344.049 64.2315 343.837C61.9964 342.63 57.9764 344.858 56.3845 346.529C56.2639 346.656 54.7765 348.572 54.4549 349.061C54.6398 347.272 54.8328 345.491 55.09 343.744C55.4335 341.384 55.9223 339.05 56.5533 336.756C56.698 336.815 60.6939 338.444 62.6316 338.258C64.3039 338.132 66.4104 337.482 67.3752 335.92C67.6146 335.561 67.7794 335.153 67.8589 334.722C67.9385 334.292 67.9311 333.849 67.8371 333.421C67.7431 332.994 67.5647 332.592 67.3134 332.242C67.062 331.892 66.7435 331.601 66.3782 331.388C64.135 330.173 60.1231 332.409 58.5312 334.072C58.4267 334.182 57.3091 335.642 56.7945 336.351L56.6659 336.275C57.3556 333.987 58.2409 331.77 59.311 329.649C59.8819 328.468 60.4929 327.379 61.112 326.333C61.8276 326.704 65.132 328.383 66.8686 328.451C68.6053 328.519 70.7037 328.122 71.8293 326.679C72.1054 326.349 72.3123 325.961 72.4364 325.542C72.5606 325.122 72.5993 324.68 72.55 324.244C72.5007 323.808 72.3645 323.387 72.1503 323.01C71.9361 322.632 71.6487 322.307 71.3067 322.053C69.2083 320.593 64.9873 322.349 63.2667 323.826C63.2024 323.877 62.7602 324.341 62.2859 324.839C62.2859 324.729 62.2859 324.602 62.2859 324.459C62.2859 324.315 62.4225 324.223 62.4949 324.113C63.5481 322.425 64.6094 320.99 65.5581 319.707C66.1048 318.981 66.6114 318.34 67.0938 317.741C67.9782 317.741 71.5479 317.614 73.1077 316.846C74.6674 316.078 76.3237 314.694 76.7337 312.871C76.8346 312.444 76.8488 312 76.7754 311.567C76.7019 311.134 76.5424 310.722 76.3073 310.358C76.0721 309.995 75.7667 309.687 75.4107 309.455C75.0548 309.223 74.6563 309.073 74.2413 309.014C71.7328 308.735 68.758 312.339 67.8093 314.491C67.7289 314.677 66.8124 317.749 66.8606 317.749H66.9169C66.4425 318.315 65.936 318.931 65.4054 319.606C64.4245 320.863 63.3391 322.298 62.2537 323.927C62.2537 321.395 61.8035 316.103 58.6035 315.783C54.3825 315.361 53.1765 320.425 55.7895 323.168C57.2887 324.634 59.2808 325.417 61.3291 325.345C60.5251 326.611 59.7211 327.97 58.9171 329.455C57.7985 331.573 56.8596 333.79 56.1111 336.081V336.165C56.1111 335.389 56.1111 333.228 56.1111 333.059C55.8217 330.713 53.9564 326.366 51.472 325.885C51.0586 325.817 50.6362 325.841 50.2323 325.956C49.8285 326.071 49.4522 326.274 49.1282 326.552C48.8042 326.83 48.5397 327.177 48.352 327.57C48.1643 327.962 48.0577 328.392 48.039 328.831C47.8942 330.696 49.1806 332.553 50.451 333.734C51.866 335.06 55.7895 336.342 56.079 336.444C55.3744 338.796 54.821 341.196 54.4227 343.626C54.1815 345.036 53.9805 346.47 53.7956 347.914C53.7956 347.238 53.7956 346.639 53.7956 346.555C53.5062 344.217 51.6409 339.87 49.1565 339.389C48.7431 339.321 48.3207 339.345 47.9168 339.46C47.5129 339.575 47.1367 339.778 46.8127 340.056C46.4887 340.334 46.2242 340.681 46.0365 341.074C45.8488 341.466 45.7421 341.896 45.7234 342.335C45.5787 344.192 46.8651 346.057 48.1354 347.23C49.4058 348.403 52.7343 349.585 53.6187 349.88C53.5544 350.437 53.4821 350.986 53.4177 351.568C53.1203 354.218 52.8228 356.868 52.469 359.46C52.3404 360.371 52.1796 361.266 52.0268 362.16C52.0268 361.57 52.0268 361.063 52.0268 360.987C51.7374 358.649 49.8721 354.303 47.3958 353.822C46.982 353.754 46.5591 353.778 46.1548 353.893C45.7505 354.008 45.3738 354.211 45.0491 354.488C44.7245 354.766 44.4593 355.113 44.2707 355.505C44.0821 355.898 43.9744 356.328 43.9546 356.767C43.8099 358.624 45.0963 360.489 46.3666 361.662C47.637 362.836 50.6359 363.899 51.6811 364.262C51.4962 365.173 51.3193 366.085 51.1022 366.963C50.9414 367.554 50.8208 368.136 50.6279 368.727L50.0972 370.465C49.7193 371.554 49.2932 372.685 48.9394 373.74C48.6661 374.474 48.4008 375.175 48.1354 375.875C48.2721 374.964 48.5053 373.183 48.5053 373.031C48.4838 370.954 47.9491 368.918 46.9536 367.123C46.9791 366.629 46.8971 366.136 46.7139 365.68C46.5307 365.224 46.251 364.818 45.8961 364.493C45.5413 364.168 45.1205 363.931 44.6657 363.802C44.2109 363.673 43.734 363.654 43.2712 363.747C40.8593 364.431 39.2512 368.912 39.1789 371.276C39.1789 371.411 39.2593 372.964 39.3236 373.892C39.203 373.335 39.0905 372.795 38.9538 372.204C38.7045 371.073 38.4151 369.95 38.1096 368.744C37.9488 368.17 37.7799 367.587 37.6111 366.996C37.4422 366.406 37.2171 365.815 37.0161 365.207C36.5418 363.831 35.987 362.456 35.4081 361.08C36.3488 360.844 39.6854 359.949 41.0361 358.869C42.3869 357.788 43.7778 356.041 43.7697 354.176C43.7812 353.737 43.7045 353.301 43.5448 352.895C43.385 352.489 43.1457 352.123 42.8424 351.82C42.5391 351.518 42.1786 351.286 41.7843 351.139C41.39 350.992 40.9708 350.934 40.5537 350.969C38.0533 351.256 35.8745 355.442 35.4242 357.721C35.4242 357.864 35.2473 359.569 35.183 360.498C34.8212 359.654 34.4674 358.852 34.0815 358.033C32.964 355.67 31.758 353.307 30.5681 350.952C30.2063 350.226 29.8525 349.5 29.4907 348.783C29.8284 348.699 33.8162 347.728 35.3116 346.521C36.6463 345.449 38.0613 343.694 38.0452 341.82C38.0568 341.381 37.9802 340.945 37.8203 340.54C37.6605 340.134 37.4211 339.769 37.1176 339.467C36.8142 339.165 36.4536 338.934 36.0593 338.788C35.665 338.642 35.2459 338.585 34.8293 338.621C32.3208 338.908 30.15 343.094 29.6917 345.373C29.6917 345.55 29.4505 347.99 29.4264 348.614C28.6224 347.019 27.8666 345.424 27.1671 343.82C26.2081 341.657 25.3862 339.43 24.7069 337.153C24.8596 337.153 29.0244 336.123 30.56 334.882C31.8946 333.81 33.3097 332.055 33.2936 330.19C33.305 329.751 33.2284 329.314 33.0686 328.908C32.9089 328.502 32.6696 328.136 32.3663 327.834C32.063 327.531 31.7025 327.299 31.3082 327.153C30.9139 327.006 30.4946 326.948 30.0776 326.982C27.5691 327.269 25.3983 331.456 24.9401 333.734C24.9401 333.886 24.7551 335.752 24.6908 336.638H24.5541C23.927 334.328 23.4965 331.964 23.2677 329.574C23.1311 328.257 23.0667 326.999 23.0265 325.767C23.8305 325.666 27.4405 325.159 28.944 324.206C30.4475 323.252 31.967 321.674 32.16 319.851C32.2178 319.416 32.1876 318.973 32.0713 318.551C31.9551 318.129 31.7554 317.738 31.4853 317.403C31.2152 317.067 30.8807 316.796 30.5038 316.605C30.1268 316.415 29.7159 316.31 29.2977 316.297C26.7732 316.297 24.1762 320.205 23.4848 322.45C23.4848 322.568 23.1954 323.86 23.0265 324.796C23.0265 324.239 23.0265 323.666 23.0265 323.108C23.0265 321.108 23.1471 319.277 23.2677 317.656C23.3401 316.736 23.4285 315.909 23.517 315.124C24.2406 314.593 27.1591 312.44 28.0515 310.904C28.944 309.368 29.6595 307.224 28.9922 305.486C28.851 305.072 28.6286 304.694 28.3394 304.376C28.0502 304.058 27.7007 303.808 27.3134 303.641C26.9261 303.474 26.5098 303.394 26.0912 303.406C25.6727 303.419 25.2613 303.523 24.8838 303.713C22.6487 304.929 22.0617 309.621 22.4316 311.985C22.4316 312.187 23.3079 315.276 23.3481 315.251H23.3883C23.2919 316.002 23.1954 316.795 23.1069 317.673C22.9542 319.294 22.7934 321.134 22.7451 323.142C22.7451 323.505 22.7451 323.885 22.7451 324.265C21.7803 322.712 18.7251 318.357 15.5091 319.285C11.2962 320.543 12.2127 324.231 15.4207 325.024Z" fill="#263238"/>
<path d="M72.2313 345.398C73.731 345.679 75.2661 345.679 76.7659 345.398C76.7527 346.413 76.7903 347.427 76.8784 348.437C76.9887 349.979 77.2309 351.507 77.602 353.003C77.6047 353.023 77.6047 353.042 77.602 353.062C77.3528 352.64 76.6051 351.501 76.5407 351.416C75.6001 350.277 73.1479 348.656 71.6685 349.315C71.4284 349.435 71.215 349.608 71.0422 349.82C70.8694 350.033 70.7409 350.282 70.6652 350.549C70.5894 350.817 70.568 351.099 70.6024 351.376C70.6367 351.654 70.726 351.92 70.8645 352.159C71.2077 352.643 71.6459 353.044 72.1493 353.335C72.6528 353.627 73.2099 353.801 73.783 353.847C75.1119 353.838 76.4319 353.619 77.6985 353.197C78.1084 354.712 78.6189 356.196 79.2261 357.636C79.5718 358.48 79.9497 359.324 80.3356 360.168L79.8613 359.46C78.9206 358.32 76.4684 356.7 74.989 357.358C74.7491 357.478 74.5359 357.649 74.3631 357.861C74.1904 358.073 74.062 358.321 73.9862 358.588C73.9104 358.856 73.8889 359.137 73.9232 359.413C73.9574 359.69 74.0466 359.956 74.185 360.194C74.5256 360.681 74.9631 361.084 75.4671 361.375C75.9711 361.667 76.5295 361.84 77.1035 361.882C78.3935 361.887 79.6763 361.682 80.9065 361.274C81.0592 361.586 81.2039 361.907 81.3567 362.228C82.0883 363.755 82.82 365.266 83.4953 366.785C83.7365 367.317 83.9536 367.849 84.1707 368.381C83.9697 368.068 83.7928 367.807 83.7607 367.773C82.82 366.634 80.3678 365.005 78.8884 365.663C78.6365 365.775 78.4102 365.942 78.225 366.153C78.0397 366.364 77.8996 366.614 77.8143 366.887C77.729 367.16 77.7003 367.448 77.7303 367.734C77.7602 368.019 77.8481 368.294 77.9879 368.541C78.3312 369.025 78.7693 369.426 79.2728 369.717C79.7762 370.009 80.3333 370.183 80.9065 370.229C82.1632 370.237 83.4136 370.041 84.6129 369.647C84.8219 370.195 85.031 370.752 85.2079 371.335C85.3204 371.706 85.4571 372.06 85.5455 372.449C85.634 372.837 85.7465 373.2 85.843 373.571C86.0119 374.289 86.1887 375.031 86.3254 375.74C86.4299 376.23 86.5264 376.702 86.6149 377.175C86.3817 376.643 85.9073 375.614 85.8591 375.529C85.0551 374.255 82.9004 372.255 81.3487 372.677C81.0914 372.752 80.8523 372.884 80.647 373.063C80.4417 373.243 80.2747 373.466 80.1571 373.717C80.0394 373.969 79.9738 374.244 79.9644 374.524C79.9549 374.805 80.002 375.084 80.1025 375.344C80.3641 375.886 80.7358 376.361 81.1915 376.736C81.6471 377.11 82.1756 377.376 82.7396 377.513C84.0453 377.721 85.3735 377.721 86.6792 377.513C86.8319 378.289 86.9686 379.057 87.0892 379.783C87.1777 380.332 87.2661 380.855 87.3385 381.37H88.3435C88.247 380.804 88.1425 380.214 88.0219 379.597C87.8771 378.804 87.7003 377.952 87.5153 377.065C88.2674 376.75 89.0004 376.386 89.7103 375.977C90.6816 376.852 91.7639 377.582 92.9263 378.146C92.6368 378.888 92.3554 379.606 92.074 380.281L91.6238 381.353H92.6851L92.9504 380.669C93.2479 379.918 93.5453 379.108 93.8509 378.281C95.1391 378.591 96.464 378.699 97.7824 378.601C98.353 378.504 98.8968 378.279 99.3769 377.941C99.8569 377.603 100.262 377.161 100.564 376.643C100.683 376.392 100.75 376.117 100.761 375.837C100.772 375.556 100.726 375.276 100.627 375.016C100.527 374.755 100.376 374.52 100.184 374.324C99.9919 374.129 99.7625 373.979 99.511 373.883C97.9834 373.343 95.6599 375.158 94.8076 376.373C94.7594 376.449 94.2931 377.285 94.0036 377.825C94.1242 377.479 94.2448 377.15 94.3654 376.795C94.6066 376.103 94.8317 375.403 95.0729 374.643C95.1775 374.272 95.282 373.9 95.3945 373.529C95.5071 373.158 95.5795 372.753 95.6759 372.356C95.885 371.444 96.0538 370.507 96.1985 369.562C97.3936 370.06 98.6546 370.362 99.9371 370.457C100.515 370.456 101.085 370.322 101.609 370.065C102.132 369.809 102.596 369.436 102.968 368.971C103.121 368.741 103.226 368.48 103.276 368.205C103.326 367.93 103.321 367.647 103.26 367.374C103.2 367.101 103.085 366.844 102.924 366.621C102.763 366.397 102.559 366.212 102.325 366.076C100.894 365.3 98.305 366.726 97.3161 367.764C97.2518 367.832 96.6005 368.676 96.2548 369.157C96.3433 368.583 96.4317 368.018 96.496 367.469C96.697 365.781 96.8498 364.093 97.0025 362.405C97.0508 361.882 97.1071 361.367 97.1553 360.852C97.3643 360.937 99.8085 361.89 101.015 361.797C101.592 361.796 102.163 361.663 102.686 361.406C103.21 361.149 103.674 360.776 104.046 360.312C104.2 360.083 104.306 359.822 104.358 359.547C104.409 359.272 104.405 358.989 104.345 358.715C104.285 358.442 104.171 358.185 104.01 357.961C103.849 357.738 103.644 357.552 103.41 357.417C101.979 356.641 99.3904 358.067 98.4015 359.105C98.3211 359.181 97.3885 360.405 97.1633 360.734C97.2839 359.595 97.4045 358.455 97.5734 357.358C97.7898 355.853 98.0986 354.365 98.498 352.902C98.5945 352.902 101.143 353.948 102.381 353.855C102.959 353.854 103.53 353.721 104.053 353.464C104.577 353.207 105.04 352.834 105.412 352.37C105.565 352.139 105.67 351.878 105.721 351.602C105.771 351.326 105.766 351.042 105.705 350.768C105.644 350.495 105.53 350.237 105.369 350.013C105.207 349.789 105.003 349.603 104.769 349.467C103.338 348.699 100.749 350.125 99.7603 351.155C99.6959 351.222 98.9563 352.15 98.6588 352.606L98.5703 352.564C99.0121 351.107 99.5772 349.695 100.259 348.344C100.629 347.593 101.015 346.892 101.408 346.226C102.56 346.873 103.799 347.331 105.083 347.584C105.657 347.646 106.237 347.577 106.784 347.381C107.331 347.186 107.831 346.87 108.251 346.453C108.427 346.243 108.559 345.996 108.639 345.728C108.719 345.46 108.744 345.178 108.712 344.899C108.681 344.621 108.595 344.352 108.458 344.111C108.322 343.87 108.139 343.662 107.921 343.499C106.578 342.563 103.901 343.685 102.759 344.63L102.132 345.272C102.132 345.204 102.132 345.12 102.132 345.027L102.261 344.816C102.936 343.753 103.611 342.816 104.222 341.997C104.568 341.533 104.898 341.153 105.203 340.748C106.502 340.759 107.795 340.566 109.038 340.174C109.575 339.951 110.059 339.61 110.459 339.173C110.858 338.736 111.164 338.214 111.354 337.642C111.419 337.369 111.427 337.084 111.379 336.807C111.331 336.53 111.228 336.267 111.076 336.035C110.924 335.802 110.727 335.607 110.498 335.461C110.268 335.314 110.012 335.221 109.746 335.186C108.138 335 106.249 337.305 105.662 338.68C105.613 338.798 105.026 340.756 105.059 340.756C104.753 341.111 104.432 341.508 104.094 341.938C103.475 342.782 102.775 343.626 102.084 344.698C102.084 343.078 101.794 339.702 99.7522 339.499C97.0588 339.229 96.287 342.461 97.9593 344.217C98.9172 345.152 100.19 345.65 101.497 345.601C100.974 346.445 100.46 347.289 99.9693 348.226C99.257 349.575 98.6598 350.987 98.1844 352.446C98.1844 352.446 98.1844 352.488 98.1844 352.505C98.1844 352.007 98.1844 350.623 98.1844 350.522C97.9995 349.019 96.8015 346.251 95.2257 345.939C94.9616 345.896 94.6918 345.912 94.4339 345.985C94.176 346.059 93.9357 346.189 93.7287 346.366C93.5217 346.544 93.3526 346.765 93.2323 347.016C93.1121 347.266 93.0434 347.54 93.0308 347.821C93.0516 348.427 93.1993 349.021 93.4633 349.561C93.7273 350.1 94.1012 350.573 94.5584 350.944C95.6667 351.712 96.8818 352.296 98.1603 352.674C97.7143 354.179 97.3598 355.713 97.099 357.265C96.9463 358.168 96.8176 359.08 96.7051 360C96.7051 359.569 96.7051 359.156 96.7051 359.156C96.5201 357.653 95.3302 354.885 93.7463 354.573C93.4822 354.53 93.2124 354.546 92.9545 354.619C92.6966 354.693 92.4563 354.823 92.2493 355C92.0423 355.178 91.8732 355.399 91.753 355.65C91.6327 355.9 91.5641 356.175 91.5514 356.455C91.5776 357.06 91.7276 357.652 91.9912 358.191C92.2548 358.73 92.6258 359.203 93.079 359.578C94.1538 360.328 95.3339 360.898 96.5764 361.266C96.5764 361.62 96.488 361.975 96.4478 362.321C96.2548 364.009 96.0699 365.697 95.8448 367.385C95.7644 367.967 95.6599 368.533 95.5634 369.073C95.5634 368.693 95.5634 368.372 95.5634 368.322C95.3865 366.828 94.1885 364.051 92.6047 363.747C92.3407 363.705 92.0714 363.722 91.814 363.797C91.5566 363.871 91.3169 364.001 91.1102 364.178C90.9034 364.355 90.7343 364.576 90.6137 364.826C90.4931 365.076 90.4236 365.349 90.4097 365.629C90.436 366.234 90.586 366.826 90.8495 367.365C91.1131 367.904 91.4841 368.377 91.9373 368.752C92.9818 369.494 94.1288 370.064 95.3383 370.44C95.2177 371.022 95.1051 371.605 94.9604 372.128C94.8639 372.508 94.7835 372.879 94.6629 373.25C94.5423 373.622 94.4378 373.993 94.3252 374.365C94.084 375.057 93.8348 375.783 93.5855 376.458L93.071 377.817C93.1514 377.243 93.3041 376.129 93.3041 376.002C93.2878 374.676 92.9473 373.377 92.3152 372.229C92.3273 372.083 92.3273 371.936 92.3152 371.79C92.2819 371.513 92.1931 371.246 92.0548 371.006C91.9165 370.767 91.7317 370.561 91.5125 370.402C91.2932 370.243 91.0445 370.134 90.7825 370.082C90.5204 370.03 90.251 370.037 89.9917 370.102C88.4399 370.533 87.451 373.402 87.3787 374.905C87.3787 374.998 87.4269 375.96 87.4751 376.593C87.3947 376.238 87.3224 375.892 87.242 375.529C87.0731 374.803 86.8963 374.095 86.6953 373.318C86.5907 372.955 86.4862 372.584 86.3737 372.204C86.2611 371.824 86.1244 371.444 86.0038 371.065C85.6903 370.178 85.3445 369.301 84.9667 368.423C86.2243 368.151 87.4341 367.676 88.5525 367.013C89.0334 366.677 89.4387 366.235 89.74 365.717C90.0413 365.2 90.2315 364.62 90.2972 364.017C90.3048 363.737 90.2562 363.459 90.1545 363.2C90.0527 362.941 89.9001 362.708 89.7067 362.515C89.5132 362.322 89.2832 362.175 89.0317 362.082C88.7802 361.988 88.5128 361.952 88.247 361.975C86.639 362.152 85.2561 364.827 84.9667 366.304C84.9667 366.397 84.8541 367.478 84.8139 368.077C84.5807 367.553 84.3556 367.03 84.1144 366.507C83.3989 364.996 82.627 363.485 81.8713 361.983L81.1798 360.599C81.3969 360.54 83.9375 359.924 84.8943 359.156C85.3739 358.816 85.7781 358.372 86.0792 357.853C86.3803 357.335 86.5713 356.754 86.639 356.151C86.6466 355.871 86.598 355.593 86.4963 355.334C86.3945 355.075 86.2419 354.842 86.0485 354.649C85.855 354.456 85.625 354.309 85.3735 354.215C85.122 354.122 84.8546 354.086 84.5888 354.109C82.9808 354.294 81.5979 356.961 81.3085 358.438C81.3085 358.556 81.1557 360.126 81.1396 360.515C80.6331 359.493 80.1427 358.472 79.6924 357.451C79.0706 356.082 78.5334 354.672 78.0844 353.231C78.1809 353.231 80.8421 352.572 81.823 351.779C82.3039 351.443 82.7092 351.001 83.0105 350.483C83.3118 349.966 83.502 349.386 83.5677 348.783C83.5754 348.502 83.5265 348.222 83.4244 347.963C83.3222 347.703 83.169 347.469 82.9748 347.275C82.7806 347.082 82.5498 346.933 82.2973 346.84C82.0448 346.746 81.7764 346.709 81.5095 346.732C79.9015 346.918 78.5266 349.593 78.2372 351.07C78.2372 351.163 78.1166 352.353 78.0764 352.919H77.9879C77.5906 351.445 77.3215 349.936 77.1839 348.412C77.0955 347.568 77.0553 346.724 77.0312 345.981C78.3315 345.851 79.6056 345.516 80.81 344.985C81.3225 344.706 81.7707 344.313 82.1235 343.834C82.4762 343.354 82.7249 342.799 82.8521 342.208C82.8896 341.931 82.8708 341.648 82.7969 341.378C82.7231 341.109 82.5959 340.859 82.4236 340.644C82.2513 340.43 82.0378 340.256 81.7972 340.135C81.5565 340.013 81.2941 339.946 81.0271 339.938C79.4191 339.938 77.7628 342.428 77.3126 343.862C77.3126 343.938 77.1277 344.766 77.0232 345.365C77.0232 345.01 77.0232 344.639 77.0232 344.301C77.0232 343.027 77.1035 341.854 77.1759 340.824C77.2241 340.233 77.2804 339.702 77.3367 339.212C78.4258 338.47 79.4017 337.56 80.2311 336.511C80.5628 336.014 80.7884 335.447 80.8925 334.85C80.9965 334.253 80.9766 333.639 80.8341 333.051C80.7444 332.787 80.6027 332.545 80.4183 332.342C80.2339 332.139 80.0108 331.979 79.7636 331.872C79.5165 331.766 79.2507 331.715 78.9835 331.723C78.7164 331.731 78.4539 331.798 78.2131 331.92C76.7819 332.696 76.4041 335.718 76.6051 337.203C76.6051 337.33 77.1598 339.305 77.1839 339.288C77.1196 339.769 77.0553 340.275 76.999 340.841C76.9025 341.871 76.798 343.044 76.7739 344.327C76.7739 344.563 76.7739 344.799 76.7739 345.044C76.1629 344.057 74.2333 341.271 72.1429 341.862C69.6022 342.537 70.1891 344.884 72.2313 345.398Z" fill="#263238"/>
<path d="M61.7945 325.345L61.6105 325.539C61.6505 325.48 61.6825 325.413 61.7225 325.345H61.7945Z" fill="#263238"/>
<path d="M195.686 61.2828H86.5666C77.6859 61.2828 70.4866 68.8403 70.4866 78.1628V333.017C70.4866 342.34 77.6859 349.897 86.5666 349.897H195.686C204.566 349.897 211.766 342.34 211.766 333.017V78.1628C211.766 68.8403 204.566 61.2828 195.686 61.2828Z" fill="#92E3A9" stroke="#263238" stroke-miterlimit="10"/>
<path d="M211.766 87.8604V79.0828C211.767 76.7457 211.329 74.4312 210.478 72.2717C209.626 70.1121 208.378 68.1498 206.804 66.4968C205.23 64.8438 203.362 63.5326 201.305 62.6379C199.248 61.7433 197.044 61.2828 194.817 61.2828H87.443C82.9459 61.2828 78.633 63.1582 75.453 66.4963C72.2731 69.8345 70.4866 74.362 70.4866 79.0828V87.8604H211.766Z" fill="white" stroke="#263238" stroke-miterlimit="10"/>
<path d="M71.2344 337.322C72.298 340.963 74.4467 344.15 77.3645 346.413C80.2822 348.677 83.8149 349.898 87.443 349.897H194.817C198.445 349.897 201.977 348.675 204.895 346.412C207.812 344.148 209.961 340.962 211.026 337.322H71.2344Z" fill="white" stroke="#263238" stroke-miterlimit="10"/>
<path d="M195.428 71.4531H182.026V79.1672H195.428V71.4531Z" stroke="#263238" stroke-width="0.821067" stroke-linecap="round" stroke-linejoin="round"/>
<path d="M192.478 71.4531H182.026V79.1672H192.478V71.4531Z" fill="#263238" stroke="#263238" stroke-width="0.725073" stroke-linecap="round" stroke-linejoin="round"/>
<path d="M197.294 73.6136H195.404V77.015H197.294V73.6136Z" fill="#263238" stroke="#263238" stroke-width="0.725073" stroke-linecap="round" stroke-linejoin="round"/>
<path d="M85.4491 73.85H82.9889V78.2725H85.4491V73.85Z" fill="#263238" stroke="#263238" stroke-width="0.883086" stroke-linecap="round" stroke-linejoin="round"/>
<path d="M89.3083 72.2971H86.848V78.2726H89.3083V72.2971Z" fill="#263238" stroke="#263238" stroke-width="0.883086" stroke-linecap="round" stroke-linejoin="round"/>
<path d="M93.1675 70.4571H90.7073V78.2641H93.1675V70.4571Z" fill="#263238" stroke="#263238" stroke-width="0.883086" stroke-linecap="round" stroke-linejoin="round"/>
<path d="M198.154 58.9112H82.1607C78.4185 58.9112 74.8295 60.4718 72.1833 63.2496C69.5371 66.0274 68.0505 69.7949 68.0505 73.7234V339.718C68.0505 341.663 68.4156 343.589 69.1248 345.386C69.834 347.182 70.8734 348.815 72.1838 350.189C73.4942 351.564 75.0497 352.654 76.7616 353.398C78.4735 354.141 80.3081 354.523 82.1607 354.522H198.154C201.894 354.522 205.481 352.963 208.126 350.186C210.77 347.41 212.256 343.645 212.256 339.718V73.7234C212.257 71.7786 211.893 69.8527 211.185 68.0556C210.477 66.2586 209.438 64.6256 208.128 63.2501C206.819 61.8745 205.264 60.7834 203.552 60.0389C201.841 59.2944 200.006 58.9112 198.154 58.9112ZM205.985 332.654C205.985 336.58 204.499 340.346 201.854 343.122C199.21 345.898 195.623 347.458 191.883 347.458H88.44C84.6999 347.458 81.1129 345.898 78.4682 343.122C75.8236 340.346 74.3378 336.58 74.3378 332.654V80.7877C74.3368 78.8429 74.7007 76.917 75.409 75.1199C76.1172 73.3229 77.1558 71.6899 78.4654 70.3144C79.775 68.9388 81.33 67.8476 83.0415 67.1031C84.7529 66.3587 86.5874 65.9755 88.44 65.9755H107.688L108.886 71.8159C109.231 73.5236 110.127 75.0542 111.421 76.1502C112.715 77.2462 114.33 77.8407 115.993 77.8337H167.473C169.135 77.8388 170.748 77.2434 172.04 76.1476C173.333 75.0517 174.227 73.5222 174.573 71.8159L175.77 65.9755H191.85C193.706 65.971 195.544 66.3509 197.259 67.0934C198.974 67.8359 200.533 68.9264 201.846 70.3024C203.159 71.6784 204.2 73.3129 204.911 75.1121C205.621 76.9114 205.986 78.8401 205.985 80.7877V332.654Z" fill="#263238" stroke="#263238" stroke-width="1.6935" stroke-miterlimit="10"/>
<path d="M184.446 105.66H94.9846C91.2857 105.66 88.2872 108.808 88.2872 112.691V316.947C88.2872 320.83 91.2857 323.978 94.9846 323.978H184.446C188.144 323.978 191.143 320.83 191.143 316.947V112.691C191.143 108.808 188.144 105.66 184.446 105.66Z" fill="white" stroke="#263238" stroke-miterlimit="10"/>
<path d="M126.284 118.514C127.973 118.514 128.841 119.569 128.841 121.426V121.789H127.233V121.308C127.233 120.464 126.919 120.169 126.365 120.169C125.81 120.169 125.504 120.481 125.504 121.308C125.504 123.688 128.889 124.136 128.889 127.444C128.889 129.292 128.005 130.356 126.308 130.356C124.612 130.356 123.719 129.292 123.719 127.444V126.735H125.327V127.579C125.327 128.423 125.673 128.702 126.228 128.702C126.783 128.702 127.12 128.406 127.12 127.579C127.12 125.199 123.736 124.752 123.736 121.443C123.736 119.569 124.62 118.514 126.284 118.514Z" fill="#263238"/>
<path d="M129.854 118.641H131.583V130.221H129.854V118.641Z" fill="#263238"/>
<path d="M135.442 123.773H137.854V127.444C137.854 129.292 136.969 130.356 135.273 130.356C133.577 130.356 132.684 129.292 132.684 127.444V121.426C132.684 119.569 133.568 118.514 135.273 118.514C136.977 118.514 137.854 119.569 137.854 121.426V122.549H136.246V121.308C136.246 120.464 135.9 120.169 135.353 120.169C134.807 120.169 134.453 120.481 134.453 121.308V127.562C134.453 128.406 134.799 128.685 135.353 128.685C135.908 128.685 136.246 128.389 136.246 127.562V125.427H135.442V123.773Z" fill="#263238"/>
<path d="M140.531 121.84V130.221H138.971V118.641H141.15L142.927 125.579V118.641H144.471V130.221H142.694L140.531 121.84Z" fill="#263238"/>
<path d="M148.161 118.641H149.898V130.221H148.161V118.641Z" fill="#263238"/>
<path d="M152.704 121.84V130.221H151.152V118.641H153.323L155.108 125.579V118.641H156.651V130.221H154.866L152.704 121.84Z" fill="#263238"/>
<path d="M97.3724 162.732V163.576H95.3383V166.682H97.8307V167.526H94.4137V158.875H97.8307V159.719H95.3383V162.698L97.3724 162.732Z" fill="#263238"/>
<path d="M101.754 167.585H100.862L99.4789 160.639V167.593H98.6749V158.875H99.9694L101.336 165.838L102.655 158.875H103.949V167.593H103.065V160.579L101.754 167.585Z" fill="#263238"/>
<path d="M105.831 165.838L105.509 167.593H104.657L106.265 158.875H107.607L109.215 167.593H108.283L107.969 165.838H105.831ZM105.951 164.994H107.8L106.868 159.93L105.951 164.994Z" fill="#263238"/>
<path d="M110.831 158.875V167.593H109.899V158.875H110.831Z" fill="#263238"/>
<path d="M111.756 167.593V158.875H112.681V166.715H115.052V167.559L111.756 167.593Z" fill="#263238"/>
<path d="M118.55 165.838L118.236 167.593H117.384L118.992 158.875H120.335L121.943 167.593H121.018L120.696 165.838H118.55ZM118.67 164.994H120.528L119.587 159.93L118.67 164.994Z" fill="#263238"/>
<path d="M124.572 158.875C125.866 158.875 126.461 159.719 126.461 161.044V165.424C126.461 166.758 125.866 167.576 124.572 167.576H122.626V158.875H124.572ZM124.572 166.715C125.239 166.715 125.561 166.276 125.561 165.475V160.993C125.561 160.191 125.239 159.752 124.564 159.752H123.567V166.715H124.572Z" fill="#263238"/>
<path d="M129.267 158.875C130.562 158.875 131.156 159.719 131.156 161.044V165.424C131.156 166.758 130.562 167.576 129.267 167.576H127.321V158.875H129.267ZM129.267 166.715C129.934 166.715 130.256 166.276 130.256 165.475V160.993C130.256 160.191 129.934 159.752 129.251 159.752H128.254V166.715H129.267Z" fill="#263238"/>
<path d="M133.874 158.875C135.185 158.875 135.731 159.567 135.731 160.866V161.575C135.731 162.538 135.41 163.137 134.694 163.373C135.458 163.609 135.739 164.259 135.739 165.188V166.547C135.709 166.905 135.767 167.265 135.908 167.593H134.967C134.838 167.259 134.786 166.897 134.815 166.538V165.162C134.815 164.183 134.373 163.871 133.601 163.871H132.949V167.593H132.025V158.875H133.874ZM133.641 162.985C134.373 162.985 134.815 162.732 134.815 161.786V160.942C134.815 160.157 134.541 159.744 133.85 159.744H132.949V162.976L133.641 162.985Z" fill="#263238"/>
<path d="M139.655 162.732V163.576H137.629V166.682H140.121V167.526H136.68V158.875H140.105V159.719H137.613V162.698L139.655 162.732Z" fill="#263238"/>
<path d="M144.567 160.968V161.204H143.691V160.917C143.691 160.132 143.401 159.668 142.742 159.668C142.083 159.668 141.793 160.132 141.793 160.9C141.793 162.858 144.583 163.044 144.583 165.5C144.583 166.825 143.972 167.686 142.702 167.686C141.432 167.686 140.837 166.842 140.837 165.5V165.002H141.705V165.551C141.705 166.336 142.019 166.8 142.678 166.8C143.337 166.8 143.651 166.336 143.651 165.551C143.651 163.609 140.877 163.424 140.877 160.968C140.877 159.617 141.472 158.782 142.718 158.782C143.964 158.782 144.567 159.643 144.567 160.968Z" fill="#263238"/>
<path d="M148.981 160.968V161.204H148.105V160.917C148.105 160.132 147.823 159.668 147.156 159.668C146.489 159.668 146.207 160.132 146.207 160.9C146.207 162.858 148.997 163.044 148.997 165.5C148.997 166.825 148.386 167.686 147.116 167.686C145.846 167.686 145.259 166.842 145.259 165.5V165.002H146.119V165.551C146.119 166.336 146.433 166.8 147.092 166.8C147.751 166.8 148.073 166.336 148.073 165.551C148.073 163.609 145.291 163.424 145.291 160.968C145.291 159.617 145.886 158.782 147.132 158.782C148.378 158.782 148.981 159.643 148.981 160.968Z" fill="#263238"/>
<path d="M96.2308 202.476C97.5333 202.476 98.0961 203.32 98.0961 204.602V205.657C98.1397 205.938 98.1202 206.225 98.0393 206.496C97.9584 206.767 97.8182 207.015 97.63 207.219C97.4417 207.423 97.2106 207.578 96.9551 207.672C96.6996 207.766 96.4268 207.796 96.1584 207.759H95.3544V211.203H94.4298V202.476H96.2308ZM96.1584 206.89C96.8499 206.89 97.1795 206.552 97.1795 205.717V204.56C97.1795 203.716 96.9061 203.362 96.2308 203.362H95.3383V206.89H96.1584Z" fill="#263238"/>
<path d="M99.5995 209.439L99.2779 211.203H98.4257L100.034 202.476H101.376L102.984 211.203H102.028L101.706 209.439H99.5995ZM99.7201 208.595H101.569L100.637 203.531L99.7201 208.595Z" fill="#263238"/>
<path d="M107.27 204.569V204.805H106.393V204.518C106.393 203.733 106.104 203.269 105.445 203.269C104.785 203.269 104.488 203.733 104.488 204.51C104.488 206.468 107.278 206.653 107.278 209.109C107.278 210.426 106.675 211.287 105.404 211.287C104.134 211.287 103.539 210.443 103.539 209.109V208.611H104.407V209.16C104.407 209.945 104.713 210.401 105.38 210.401C106.048 210.401 106.353 209.945 106.353 209.16C106.353 207.21 103.579 207.025 103.579 204.569C103.579 203.227 104.166 202.391 105.42 202.391C106.675 202.391 107.27 203.244 107.27 204.569Z" fill="#263238"/>
<path d="M111.684 204.569V204.805H110.807V204.518C110.807 203.733 110.518 203.269 109.859 203.269C109.199 203.269 108.902 203.733 108.902 204.51C108.902 206.468 111.692 206.653 111.692 209.109C111.692 210.426 111.089 211.287 109.818 211.287C108.548 211.287 107.953 210.443 107.953 209.109V208.611H108.821V209.16C108.821 209.945 109.135 210.401 109.794 210.401C110.453 210.401 110.767 209.945 110.767 209.16C110.767 207.21 107.993 207.025 107.993 204.569C107.993 203.227 108.588 202.391 109.834 202.391C111.081 202.391 111.684 203.244 111.684 204.569Z" fill="#263238"/>
<path d="M114.707 211.203H113.436L112.303 202.476H113.203L114.176 209.903L115.101 202.484H116.017L116.934 209.92L117.866 202.476H118.67L117.537 211.203H116.315L115.511 205.295L114.707 211.203Z" fill="#263238"/>
<path d="M119.346 204.586C119.346 203.244 119.981 202.391 121.251 202.391C122.522 202.391 123.157 203.235 123.157 204.586V209.093C123.157 210.418 122.53 211.287 121.251 211.287C119.973 211.287 119.346 210.443 119.346 209.093V204.586ZM120.262 209.143C120.262 209.945 120.584 210.401 121.251 210.401C121.919 210.401 122.232 209.945 122.232 209.143V204.535C122.232 203.75 121.927 203.269 121.251 203.269C120.576 203.269 120.262 203.75 120.262 204.535V209.143Z" fill="#263238"/>
<path d="M125.89 202.476C127.193 202.476 127.74 203.176 127.74 204.467V205.176C127.74 206.139 127.418 206.738 126.71 206.974C127.466 207.21 127.756 207.86 127.756 208.797V210.156C127.728 210.513 127.783 210.872 127.916 211.203H126.984C126.847 210.867 126.792 210.502 126.823 210.139V208.772C126.823 207.784 126.389 207.472 125.617 207.472H124.966V211.203H124.033V202.476H125.89ZM125.649 206.586C126.389 206.586 126.823 206.341 126.823 205.396V204.552C126.823 203.767 126.55 203.353 125.866 203.353H124.966V206.577L125.649 206.586Z" fill="#263238"/>
<path d="M130.658 202.476C131.952 202.476 132.547 203.32 132.547 204.645V209.042C132.547 210.375 131.952 211.203 130.658 211.203H128.712V202.476H130.658ZM130.658 210.316C131.317 210.316 131.639 209.877 131.639 209.084V204.594C131.639 203.792 131.317 203.362 130.642 203.362H129.645V210.316H130.658Z" fill="#263238"/>
<path d="M110.397 244.895C111.7 244.895 112.246 245.587 112.246 246.887V247.596C112.246 248.558 111.925 249.157 111.217 249.394C111.973 249.63 112.263 250.28 112.263 251.208V252.567C112.234 252.927 112.29 253.289 112.423 253.622H111.491C111.355 253.287 111.3 252.921 111.33 252.559V251.191C111.33 250.204 110.896 249.891 110.124 249.891H109.473V253.622H108.54V244.895H110.397ZM110.148 248.98C110.888 248.98 111.322 248.735 111.322 247.781V246.937C111.322 246.153 111.048 245.747 110.365 245.747H109.465V248.98H110.148Z" fill="#263238"/>
<path d="M116.178 248.761V249.605H114.168V252.71H116.66V253.597H113.243V244.895H116.66V245.739H114.168V248.718L116.178 248.761Z" fill="#263238"/>
<path d="M120.552 253.605H119.667L118.284 246.659V253.622H117.48V244.895H118.775L120.142 251.858L121.46 244.895H122.755V253.622H121.87V246.6L120.552 253.605Z" fill="#263238"/>
<path d="M126.654 248.761V249.605H124.62V252.71H127.12V253.597H123.695V244.895H127.12V245.739H124.62V248.718L126.654 248.761Z" fill="#263238"/>
<path d="M131.052 253.605H130.16L128.785 246.659V253.622H127.981V244.895H129.275L130.642 251.858L131.961 244.895H133.255V253.622H132.379V246.6L131.052 253.605Z" fill="#263238"/>
<path d="M136.037 244.895C137.331 244.895 137.846 245.536 137.846 246.828V247.233C137.846 248.161 137.597 248.735 136.873 248.972C137.677 249.208 137.991 249.875 137.991 250.837V251.571C138.028 251.845 138.005 252.125 137.923 252.388C137.842 252.651 137.703 252.891 137.519 253.089C137.335 253.288 137.11 253.439 136.861 253.531C136.613 253.623 136.347 253.655 136.085 253.622H134.18V244.895H136.037ZM135.812 248.592C136.551 248.592 136.929 248.347 136.929 247.435V246.921C136.929 246.153 136.68 245.781 136.021 245.781H135.072V248.592H135.812ZM136.085 252.736C136.768 252.736 137.074 252.356 137.074 251.546V250.778C137.074 249.807 136.704 249.478 135.908 249.478H135.104V252.736H136.085Z" fill="#263238"/>
<path d="M141.785 248.761V249.605H139.751V252.71H142.252V253.597H138.827V244.895H142.252V245.739H139.751V248.718L141.785 248.761Z" fill="#263238"/>
<path d="M144.953 244.895C146.256 244.895 146.802 245.587 146.802 246.887V247.596C146.802 248.558 146.481 249.157 145.773 249.394C146.529 249.63 146.818 250.28 146.818 251.208V252.567C146.789 252.928 146.847 253.291 146.987 253.622H146.047C145.918 253.285 145.866 252.921 145.894 252.559V251.191C145.894 250.204 145.452 249.891 144.68 249.891H144.029V253.622H143.112V244.895H144.953ZM144.72 248.98C145.46 248.98 145.902 248.735 145.902 247.781V246.937C145.902 246.153 145.629 245.747 144.937 245.747H144.037V248.98H144.72Z" fill="#263238"/>
<path d="M150.838 253.605H149.946L148.571 246.659V253.622H147.767V244.895H149.062L150.428 251.858L151.739 244.895H153.033V253.622H152.157V246.6L150.838 253.605Z" fill="#263238"/>
<path d="M156.941 248.761V249.605H154.907V252.71H157.399V253.597H153.982V244.895H157.399V245.739H154.907V248.718L156.941 248.761Z" fill="#263238"/>
<path d="M181.688 274.73H100.01C98.5309 274.73 97.3322 275.989 97.3322 277.541V290.902C97.3322 292.454 98.5309 293.712 100.01 293.712H181.688C183.167 293.712 184.365 292.454 184.365 290.902V277.541C184.365 275.989 183.167 274.73 181.688 274.73Z" fill="#263238" stroke="#263238" stroke-miterlimit="10"/>
<path d="M133.546 283.916L132.434 284.231C132.365 284.046 132.261 283.866 132.125 283.691C131.992 283.513 131.811 283.366 131.58 283.251C131.349 283.135 131.054 283.078 130.694 283.078C130.201 283.078 129.791 283.191 129.462 283.418C129.137 283.642 128.975 283.927 128.975 284.273C128.975 284.58 129.087 284.823 129.31 285.001C129.534 285.18 129.883 285.328 130.359 285.447L131.554 285.74C132.274 285.915 132.81 286.182 133.163 286.542C133.516 286.899 133.692 287.358 133.692 287.921C133.692 288.382 133.56 288.795 133.294 289.158C133.032 289.521 132.665 289.808 132.193 290.018C131.722 290.227 131.173 290.332 130.547 290.332C129.726 290.332 129.046 290.154 128.508 289.798C127.97 289.441 127.629 288.92 127.486 288.236L128.66 287.942C128.772 288.375 128.984 288.7 129.295 288.917C129.609 289.134 130.02 289.242 130.526 289.242C131.103 289.242 131.561 289.12 131.9 288.875C132.242 288.627 132.413 288.33 132.413 287.984C132.413 287.704 132.316 287.47 132.12 287.282C131.924 287.089 131.624 286.946 131.218 286.852L129.876 286.537C129.139 286.362 128.597 286.092 128.251 285.725C127.909 285.354 127.738 284.891 127.738 284.336C127.738 283.881 127.865 283.479 128.12 283.13C128.379 282.781 128.73 282.506 129.174 282.307C129.621 282.108 130.128 282.008 130.694 282.008C131.491 282.008 132.116 282.183 132.571 282.532C133.028 282.882 133.353 283.343 133.546 283.916ZM140.629 286.873V282.113H141.866V290.164H140.629V288.802H140.545C140.356 289.21 140.063 289.558 139.664 289.845C139.266 290.128 138.763 290.269 138.155 290.269C137.651 290.269 137.204 290.159 136.813 289.939C136.421 289.715 136.114 289.38 135.89 288.933C135.666 288.482 135.555 287.914 135.555 287.229V282.113H136.792V287.145C136.792 287.732 136.956 288.201 137.284 288.55C137.616 288.899 138.039 289.074 138.553 289.074C138.86 289.074 139.173 288.996 139.491 288.838C139.813 288.681 140.082 288.44 140.298 288.115C140.519 287.79 140.629 287.376 140.629 286.873ZM144.299 290.164V279.429H145.536V283.392H145.641C145.732 283.252 145.858 283.074 146.019 282.857C146.183 282.637 146.417 282.442 146.721 282.27C147.028 282.096 147.444 282.008 147.968 282.008C148.646 282.008 149.244 282.178 149.761 282.517C150.278 282.856 150.682 283.336 150.972 283.958C151.262 284.58 151.407 285.314 151.407 286.16C151.407 287.012 151.262 287.752 150.972 288.377C150.682 288.999 150.28 289.481 149.766 289.824C149.253 290.163 148.66 290.332 147.989 290.332C147.472 290.332 147.058 290.247 146.747 290.075C146.436 289.901 146.197 289.703 146.029 289.483C145.861 289.259 145.732 289.074 145.641 288.927H145.494V290.164H144.299ZM145.515 286.139C145.515 286.747 145.604 287.283 145.783 287.748C145.961 288.209 146.221 288.571 146.564 288.833C146.906 289.092 147.325 289.221 147.822 289.221C148.339 289.221 148.77 289.085 149.116 288.812C149.466 288.536 149.728 288.166 149.903 287.701C150.081 287.233 150.17 286.712 150.17 286.139C150.17 285.573 150.083 285.062 149.908 284.608C149.737 284.15 149.476 283.789 149.127 283.523C148.781 283.254 148.346 283.12 147.822 283.12C147.318 283.12 146.896 283.247 146.553 283.502C146.211 283.754 145.952 284.107 145.777 284.561C145.603 285.012 145.515 285.538 145.515 286.139ZM127.843 308.164V300.113H129.038V301.371H129.143C129.31 300.941 129.581 300.608 129.955 300.37C130.329 300.129 130.778 300.008 131.302 300.008C131.833 300.008 132.275 300.129 132.628 300.37C132.985 300.608 133.263 300.941 133.462 301.371H133.546C133.752 300.955 134.061 300.625 134.473 300.38C134.886 300.132 135.38 300.008 135.957 300.008C136.677 300.008 137.266 300.234 137.723 300.684C138.181 301.132 138.41 301.829 138.41 302.776V308.164H137.173V302.776C137.173 302.182 137.01 301.757 136.686 301.502C136.361 301.247 135.978 301.12 135.538 301.12C134.971 301.12 134.533 301.291 134.222 301.633C133.911 301.972 133.755 302.402 133.755 302.923V308.164H132.497V302.65C132.497 302.192 132.349 301.824 132.052 301.544C131.755 301.261 131.372 301.12 130.904 301.12C130.582 301.12 130.282 301.205 130.002 301.376C129.726 301.548 129.503 301.785 129.331 302.089C129.164 302.39 129.08 302.737 129.08 303.132V308.164H127.843ZM140.672 308.164V300.113H141.909V308.164H140.672ZM141.301 298.771C141.06 298.771 140.852 298.689 140.677 298.525C140.506 298.361 140.42 298.163 140.42 297.933C140.42 297.702 140.506 297.504 140.677 297.34C140.852 297.176 141.06 297.094 141.301 297.094C141.542 297.094 141.748 297.176 141.919 297.34C142.094 297.504 142.182 297.702 142.182 297.933C142.182 298.163 142.094 298.361 141.919 298.525C141.748 298.689 141.542 298.771 141.301 298.771ZM147.676 300.113V301.161H143.504V300.113H147.676ZM144.72 298.184H145.957V305.858C145.957 306.208 146.008 306.47 146.109 306.644C146.214 306.816 146.347 306.931 146.507 306.99C146.672 307.046 146.845 307.074 147.026 307.074C147.163 307.074 147.274 307.067 147.362 307.053C147.449 307.036 147.519 307.022 147.571 307.011L147.823 308.123C147.739 308.154 147.622 308.185 147.472 308.217C147.322 308.252 147.131 308.269 146.9 308.269C146.551 308.269 146.209 308.194 145.873 308.044C145.541 307.894 145.265 307.665 145.045 307.357C144.828 307.05 144.72 306.662 144.72 306.194V298.184Z" fill="white"/>
<path d="M183.794 172.1H94.5021V186.338H183.794V172.1Z" fill="white" stroke="#263238" stroke-miterlimit="10"/>
<path d="M183.794 216.3H94.5021V230.539H183.794V216.3Z" fill="white" stroke="#263238" stroke-miterlimit="10"/>
<path d="M103.547 244.482H95.6357V252.786H103.547V244.482Z" fill="white" stroke="#263238" stroke-miterlimit="10"/>
<path d="M267.893 361.165C264.186 361.749 260.412 361.683 256.725 360.97C250.39 359.797 243.692 354.134 243.692 354.134L238.298 354.522V329.911C238.298 329.911 247.632 328.147 250.583 328.316C253.533 328.485 267.893 343.365 267.893 343.365V361.165Z" fill="white" stroke="#263238" stroke-miterlimit="10"/>
<path d="M243.58 363.772H226.31L223.407 327.827H246.482L243.58 363.772Z" fill="#92E3A9" stroke="#263238" stroke-miterlimit="10"/>
<path d="M245.96 321.783H224.469V323.767H245.96V321.783Z" fill="white" stroke="#263238" stroke-miterlimit="10"/>
<path d="M247.23 323.396H222.66V330.426H247.23V323.396Z" fill="white" stroke="#263238" stroke-miterlimit="10"/>
<path d="M257.835 355.501C249.28 354.522 248.348 344.757 248.348 344.757C248.348 344.757 241.835 349.45 239.037 349.45C236.239 349.45 235.5 347.298 234.945 345.795C234.39 344.293 247.415 335.38 247.415 335.38C247.415 335.38 249.827 332.848 251.885 332.848C253.943 332.848 262.675 345.348 264.355 347.5" fill="white"/>
<path d="M257.835 355.501C249.28 354.522 248.348 344.757 248.348 344.757C248.348 344.757 241.835 349.45 239.037 349.45C236.239 349.45 235.5 347.298 234.945 345.795C234.39 344.293 247.415 335.38 247.415 335.38C247.415 335.38 249.827 332.848 251.885 332.848C253.943 332.848 262.675 345.348 264.355 347.5" stroke="#263238" stroke-miterlimit="10"/>
<path d="M365.715 381.496L365.04 301.198L361.631 321.969L362.974 381.496H365.715Z" fill="#263238" stroke="#263238" stroke-miterlimit="10"/>
<path d="M360.329 381.488L360.771 337.819C360.771 337.819 367.267 323.91 367.766 317.395C368.264 310.879 371.737 294.986 368.513 287.694C365.289 280.402 368.119 255.707 368.119 255.707L365.104 244.448C363.119 238.979 344.016 226.217 336.82 223.609C329.698 221.198 322.171 220.399 314.734 221.263C308.302 222.048 304.804 225.956 304.057 227.255C303.309 228.555 299.345 241.063 294.626 247.841C289.906 254.618 285.943 259.564 282.469 264.771C278.996 269.979 276.761 280.664 274.526 286.918C272.291 293.172 268.568 321.041 266.832 335.87C265.304 348.952 266.277 375.361 266.534 381.446L360.329 381.488Z" fill="#808080" stroke="#263238" stroke-miterlimit="10"/>
<path d="M292.206 270.013C294.706 267.302 297.521 264.932 300.583 262.957C308.278 258.264 313.737 254.095 313.737 254.095L312.249 244.98L320.193 248.887C320.193 248.887 321.93 243.156 326.89 233.256C331.851 223.356 332.1 221.272 332.1 221.272" stroke="#263238" stroke-miterlimit="10"/>
<path d="M285.758 277.735C287.35 275.547 289.055 273.451 290.863 271.456" stroke="#263238" stroke-miterlimit="10"/>
<path d="M320.354 266.831L308.76 381.404H312.852L323.087 270.409L320.354 266.831Z" fill="#263238" stroke="#263238" stroke-miterlimit="10"/>
<path d="M274.719 381.488C274.494 370.854 273.778 326.797 277.259 310.364C281.231 291.602 284.704 270.502 290.654 261.648C296.604 252.795 308.776 241.587 315.224 235.071C319.327 230.726 322.602 225.598 324.872 219.963L315.972 194.702C315.972 194.702 308.028 208.772 305.52 209.81C305.52 209.81 308.004 221.533 306.268 228.31C304.531 235.088 293.114 254.356 289.641 259.049C286.168 263.742 275.523 289.492 273.288 306.718C271.318 321.91 271.085 370.288 271.061 381.496L274.719 381.488Z" fill="white" stroke="#263238" stroke-miterlimit="10"/>
<path d="M306.284 214.072L318.818 213.794L314.549 203.995L306.284 214.072Z" fill="#263238" stroke="#263238" stroke-miterlimit="10"/>
<path d="M274.719 381.488C274.494 370.854 273.778 326.797 277.259 310.364C281.231 291.602 284.704 270.502 290.654 261.648C296.604 252.795 308.776 241.587 315.224 235.071C317.301 232.945 319.15 230.588 320.74 228.04C313.656 233.104 308.028 233.273 304.66 232.615C300.929 241.106 292.527 255.133 289.633 259.041C286.16 263.733 275.491 289.517 273.255 306.71C271.286 321.902 271.053 370.28 271.028 381.488H274.719Z" fill="#92E3A9" stroke="#263238" stroke-miterlimit="10"/>
<path d="M305.705 212.199C305.705 212.199 308.117 221.879 307.876 226.141C307.635 230.404 304.081 242.65 299.739 249.2C295.398 255.749 288.355 265.708 282.662 268.274C276.97 270.84 274.799 270.806 274.799 270.806C278.322 269 281.373 266.321 283.688 262.998C286.002 259.676 287.51 255.812 288.081 251.74C290.252 237.502 283.201 203.066 282.928 200.788C282.654 198.509 305.705 212.199 305.705 212.199Z" fill="#263238" stroke="#263238" stroke-miterlimit="10"/>
<path d="M274.518 172.775C274.518 172.775 273.979 184.043 275.056 186.009C276.134 187.976 279.076 189.385 279.076 192.761C279.076 196.137 276.391 202.341 277.734 204.307C279.076 206.274 283.9 206.282 283.9 206.282C283.9 206.282 291.136 215.009 293.026 216.984C294.915 218.959 297.585 222.048 298.927 221.491C300.27 220.934 310.465 209.945 312.877 205.717C315.289 201.488 316.631 186.566 315.562 180.093C314.493 173.619 299.482 162.909 291.144 162.369C285.817 162.086 280.479 162.655 275.314 164.057L274.518 172.775Z" fill="white" stroke="#263238" stroke-miterlimit="10"/>
<path d="M283.908 185.452L285.613 190.179L291.884 186.11" stroke="#263238" stroke-miterlimit="10"/>
<path d="M280.877 183.595C280.877 183.595 279.173 176.894 288.548 178.683" stroke="#263238" stroke-miterlimit="10"/>
<path d="M287.398 207.421C287.398 207.421 291.957 206.012 295.438 200.096" stroke="#263238" stroke-miterlimit="10"/>
<path d="M288.684 189.056C288.942 189.571 288.58 190.305 287.88 190.744C287.181 191.183 286.385 191.048 286.128 190.541C285.87 190.035 286.232 189.292 286.932 188.853C287.631 188.415 288.419 188.575 288.684 189.056Z" fill="#263238"/>
<path d="M280.419 147.143C280.419 147.143 262.98 158.959 264.339 162.917C265.698 166.876 274.534 172.775 274.534 172.775L275.338 166.58C275.338 166.58 284.463 171.366 293.026 174.75L301.613 178.126C302.883 179.604 304.225 181.013 305.633 182.346C306.71 183.19 310.457 183.19 310.457 183.19C310.457 183.19 311.799 213.321 316.889 220.368C321.978 227.416 336.739 233.872 346.637 238.388C356.534 242.903 360.932 243.249 363.617 247.191C366.302 251.132 367.428 263.674 367.428 263.674C367.428 263.674 383.653 246.085 360.674 204.316C344.007 174.016 345.921 170.556 340.285 160.385C334.649 150.215 320.989 135.319 307.554 134.221C294.119 133.124 280.419 147.143 280.419 147.143Z" fill="#263238" stroke="#263238" stroke-miterlimit="10"/>
<path d="M344.45 218.731C346.303 219.776 348.215 220.703 350.174 221.508" stroke="#787878" stroke-miterlimit="10"/>
<path d="M302.569 145.354C311.021 152.851 316.515 163.38 317.982 174.894C319.775 189.942 325.813 204.991 338.564 214.866" stroke="#787878" stroke-miterlimit="10"/>
<path d="M294.996 160.149C298.394 161.231 301.689 162.643 304.837 164.369" stroke="#787878" stroke-miterlimit="10"/>
<path d="M271.286 163.913C271.286 163.913 266.751 162.014 271.744 158.208C274.695 155.946 282.59 156.705 290.421 158.782" stroke="#787878" stroke-miterlimit="10"/>
<path d="M310.473 180.658C310.473 180.658 308.326 161.795 303.237 154.494" stroke="#787878" stroke-miterlimit="10"/>
<path d="M218.198 306.203L198.974 290.775C198.819 290.651 198.703 290.482 198.64 290.289C198.577 290.096 198.57 289.888 198.62 289.691C198.67 289.494 198.775 289.317 198.921 289.182C199.067 289.048 199.248 288.962 199.44 288.935L209.538 287.5C210.235 287.399 210.944 287.447 211.622 287.642C212.301 287.836 212.935 288.173 213.486 288.631L233.088 304.895L218.198 306.203Z" fill="#263238" stroke="#263238" stroke-miterlimit="10"/>
<path d="M257.159 307.216C257.159 307.216 252.689 303.047 251.202 300.709C250.354 299.52 249.211 298.599 247.898 298.047C246.584 297.495 245.152 297.332 243.757 297.578C241.023 298.101 234.824 296.539 233.827 297.839C232.83 299.139 232.838 302.532 232.838 302.532C232.838 302.532 217.45 303.57 216.212 303.308C214.974 303.047 213.977 305.131 214.965 306.954C215.954 308.777 223.166 310.803 223.166 310.803C223.162 312.266 223.478 313.709 224.091 315.023C225.152 317.285 226.913 320.796 228.368 322.315C230.603 324.661 235.315 325.691 240.283 326.746C245.252 327.801 253.188 326.485 253.188 326.485L257.159 307.216Z" fill="white" stroke="#263238" stroke-miterlimit="10"/>
<path d="M232.838 302.557L244.496 301.772" stroke="#263238" stroke-miterlimit="10"/>
<path d="M223.166 310.828C225.895 310.672 228.631 310.768 231.343 311.115C234.615 311.681 237.341 312.255 239.246 311.681" stroke="#263238" stroke-miterlimit="10"/>
<path d="M224.091 315.057C226.45 315.497 228.781 316.092 231.07 316.838C233.248 317.682 236.794 319.977 240.332 318.838" stroke="#263238" stroke-miterlimit="10"/>
<path d="M227.532 320.838C227.532 320.838 233.53 323.699 238.161 323.412" stroke="#263238" stroke-miterlimit="10"/>
<path d="M362.379 256.179C362.379 256.179 363.408 268.392 363.408 277.288C363.408 286.184 362.419 304.119 356.711 316.357C351.002 328.595 352.49 337.203 346.781 349.45C341.073 361.696 337.133 361.949 320.724 360.422C304.314 358.894 285.734 352.345 284.745 352.345C283.756 352.345 269.067 349.416 262.104 345.795C257.377 343.243 252.811 340.373 248.436 337.203C248.655 335.057 249.155 332.952 249.923 330.949C251.17 327.826 255.141 305.157 255.141 305.157C259.71 307.986 264.53 310.344 269.533 312.196C273.92 313.647 278.399 314.775 282.936 315.572C282.936 315.572 287.647 312.449 289.134 311.926C290.622 311.402 293.605 315.048 297.826 316.095C301.689 317.029 305.6 317.728 309.54 318.188C310.537 318.188 320.675 316.922 319.992 317.141C319.083 317.428 318.239 315.453 318.505 313.765C319.336 311.058 320.413 308.441 321.721 305.95C322.46 304.903 322.46 300.996 322.46 298.396C322.46 295.797 318.987 268.434 320.724 260.88C322.46 253.327 332.856 237.687 332.856 237.687C332.856 237.687 333.314 235.333 338.814 235.341C344.313 235.349 353.205 241.595 356.928 244.979" fill="#808080"/>
<path d="M362.379 256.179C362.379 256.179 363.408 268.392 363.408 277.288C363.408 286.184 362.419 304.119 356.711 316.357C351.002 328.595 352.49 337.203 346.781 349.45C341.073 361.696 337.133 361.949 320.724 360.422C304.314 358.894 285.734 352.345 284.745 352.345C283.756 352.345 269.067 349.416 262.104 345.795C257.377 343.243 252.811 340.373 248.436 337.203C248.655 335.057 249.155 332.952 249.923 330.949C251.17 327.826 255.141 305.157 255.141 305.157C259.71 307.986 264.53 310.344 269.533 312.196C273.92 313.647 278.399 314.775 282.936 315.572C282.936 315.572 287.647 312.449 289.134 311.926C290.622 311.402 293.605 315.048 297.826 316.095C301.689 317.029 305.6 317.728 309.54 318.188C310.537 318.188 320.675 316.922 319.992 317.141C319.083 317.428 318.239 315.453 318.505 313.765C319.336 311.058 320.413 308.441 321.721 305.95C322.46 304.903 322.46 300.996 322.46 298.396C322.46 295.797 318.987 268.434 320.724 260.88C322.46 253.327 332.856 237.687 332.856 237.687C332.856 237.687 333.314 235.333 338.814 235.341C344.313 235.349 353.205 241.595 356.928 244.979" stroke="#263238" stroke-miterlimit="10"/>
<path d="M356.357 270.983C354.4 268.836 352.073 267.097 349.499 265.86C346.454 264.514 343.059 264.318 339.891 265.303" stroke="#263238" stroke-miterlimit="10"/>
<path d="M359.629 274.84C359.629 274.84 358.889 273.802 357.667 272.409" stroke="#263238" stroke-miterlimit="10"/>
<path d="M254.78 334.359C254.78 334.66 254.695 334.953 254.536 335.203C254.377 335.453 254.151 335.648 253.886 335.763C253.622 335.878 253.331 335.908 253.05 335.849C252.769 335.79 252.511 335.646 252.309 335.433C252.107 335.221 251.969 334.95 251.913 334.655C251.857 334.361 251.886 334.055 251.995 333.778C252.105 333.5 252.29 333.263 252.528 333.096C252.766 332.929 253.046 332.84 253.332 332.84C253.716 332.842 254.082 333.003 254.353 333.287C254.624 333.572 254.777 333.957 254.78 334.359Z" stroke="#263238" stroke-miterlimit="10"/>
<path d="M330.275 327.27C331.204 328.337 332.23 329.306 333.338 330.164" stroke="#263238" stroke-miterlimit="10"/>
<path d="M320.434 315.842C320.434 315.842 324.848 321.243 328.619 325.446" stroke="#263238" stroke-miterlimit="10"/>
<path d="M303.912 330.198C304.713 331.455 305.58 332.664 306.509 333.819" stroke="#263238" stroke-miterlimit="10"/>
<path d="M296.121 316.618C296.121 316.618 299.297 322.678 302.489 327.894" stroke="#263238" stroke-miterlimit="10"/>
<path d="M263.374 331.743C262.353 336.807 261.212 341.314 260.158 343.196" stroke="#263238" stroke-miterlimit="10"/>
<path d="M266.582 312.457C266.582 312.457 265.585 319.817 264.17 327.447" stroke="#263238" stroke-miterlimit="10"/>
<path d="M73.968 381.496H17.688" stroke="#263238" stroke-miterlimit="10"/>
<path d="M379.802 381.496H82.008" stroke="#263238" stroke-miterlimit="10"/>
</svg>
