

<svg width="382" height="328" viewBox="0 0 382 328" fill="none" xmlns="http://www.w3.org/2000/svg">
<path d="M361.428 222.318C369.919 141.316 327.348 65.9936 265.098 50.1053C256.195 47.8356 246.344 45.92 235.49 44.5359C172.842 36.6639 125.474 112.104 82.1809 133.752C38.8875 155.4 19.0235 152.776 14.9489 222.312C10.8742 291.848 60.2795 313.496 116.306 299.72C172.333 285.944 168.258 249.864 232.434 279.384C296.61 308.904 325.642 315.464 348.562 270.2C355.148 257.191 359.508 240.654 361.428 222.318Z" fill="#92E3A9"/>
<path opacity="0.7" d="M361.428 222.318C369.919 141.316 327.348 65.9936 265.098 50.1053C256.195 47.8356 246.344 45.92 235.49 44.5359C172.842 36.6639 125.474 112.104 82.1809 133.752C38.8875 155.4 19.0235 152.776 14.9489 222.312C10.8742 291.848 60.2795 313.496 116.306 299.72C172.333 285.944 168.258 249.864 232.434 279.384C296.61 308.904 325.642 315.464 348.562 270.2C355.148 257.191 359.508 240.654 361.428 222.318Z" fill="white"/>
<path d="M341.89 218.992L347.442 287.499" stroke="#263238" stroke-miterlimit="10"/>
<path d="M346.551 274.385L344.034 270.967" stroke="#263238" stroke-miterlimit="10"/>
<path d="M344.819 271.991C344.812 271.465 344.717 270.948 344.541 270.474C344.366 269.999 344.113 269.579 343.8 269.242C343.153 268.501 339.756 266.657 339.43 268.199C339.079 269.878 342.557 273.171 344.819 271.991Z" fill="#92E3A9" stroke="#263238" stroke-miterlimit="10"/>
<path d="M344.798 271.991L341.559 269.393" stroke="#263238" stroke-width="0.5" stroke-miterlimit="10"/>
<path d="M347.182 282.178L344.661 278.754" stroke="#263238" stroke-miterlimit="10"/>
<path d="M345.43 279.784C345.423 279.258 345.328 278.739 345.152 278.264C344.977 277.789 344.724 277.368 344.411 277.029C343.764 276.287 340.367 274.444 340.041 275.986C339.725 277.665 343.189 280.958 345.43 279.784Z" fill="#92E3A9" stroke="#263238" stroke-miterlimit="10"/>
<path d="M345.43 279.784L342.191 277.186" stroke="#263238" stroke-width="0.5" stroke-miterlimit="10"/>
<path d="M345.007 255.374L342.491 251.956" stroke="#263238" stroke-miterlimit="10"/>
<path d="M343.255 252.98C343.248 252.454 343.153 251.937 342.977 251.463C342.802 250.989 342.549 250.569 342.236 250.231C341.589 249.49 338.162 247.647 337.866 249.188C337.535 250.867 341.014 254.161 343.255 252.98Z" fill="#92E3A9" stroke="#263238" stroke-miterlimit="10"/>
<path d="M343.255 252.98L340.021 250.382" stroke="#263238" stroke-width="0.5" stroke-miterlimit="10"/>
<path d="M345.639 263.167L343.123 259.743" stroke="#263238" stroke-miterlimit="10"/>
<path d="M343.887 260.773C343.879 260.247 343.784 259.729 343.609 259.254C343.433 258.778 343.18 258.357 342.868 258.018C342.221 257.277 338.793 255.433 338.498 256.981C338.167 258.654 341.645 261.947 343.887 260.773Z" fill="#92E3A9" stroke="#263238" stroke-miterlimit="10"/>
<path d="M343.887 260.773L340.652 258.175" stroke="#263238" stroke-width="0.5" stroke-miterlimit="10"/>
<path d="M343.983 242.72L341.467 239.296" stroke="#263238" stroke-miterlimit="10"/>
<path d="M342.231 240.326C342.224 239.8 342.13 239.283 341.954 238.809C341.778 238.334 341.525 237.914 341.213 237.577C340.566 236.829 337.168 234.992 336.848 236.534C336.511 238.207 339.99 241.5 342.231 240.326Z" fill="#92E3A9" stroke="#263238" stroke-miterlimit="10"/>
<path d="M342.231 240.326L338.997 237.728" stroke="#263238" stroke-width="0.5" stroke-miterlimit="10"/>
<path d="M342.955 230.013L340.438 226.589" stroke="#263238" stroke-width="2" stroke-miterlimit="10"/>
<path d="M341.203 227.632C341.196 227.107 341.101 226.589 340.925 226.115C340.749 225.641 340.497 225.221 340.184 224.883C339.537 224.142 336.14 222.299 335.814 223.84C335.483 225.5 338.961 228.793 341.203 227.632Z" fill="#92E3A9" stroke="#263238" stroke-miterlimit="10"/>
<path d="M341.203 227.612L337.963 225.015" stroke="#263238" stroke-width="0.5" stroke-miterlimit="10"/>
<path d="M346.128 269.78L348.038 265.759" stroke="#263238" stroke-width="2" stroke-miterlimit="10"/>
<path d="M347.457 266.992C347.377 266.478 347.384 265.948 347.477 265.437C347.571 264.927 347.748 264.448 347.997 264.033C348.506 263.135 351.562 260.432 352.102 261.855C352.714 263.377 349.836 267.523 347.457 266.992Z" fill="#92E3A9" stroke="#263238" stroke-miterlimit="10"/>
<path d="M347.457 266.966L350.37 263.377" stroke="#263238" stroke-width="0.5" stroke-miterlimit="10"/>
<path d="M344.462 249.28L346.377 245.259" stroke="#263238" stroke-miterlimit="10"/>
<path d="M345.792 246.466C345.715 245.95 345.725 245.419 345.821 244.909C345.917 244.399 346.096 243.921 346.347 243.507C346.856 242.608 349.912 239.906 350.457 241.329C351.053 242.877 348.175 247.023 345.792 246.466Z" fill="#92E3A9" stroke="#263238" stroke-miterlimit="10"/>
<path d="M345.792 246.466L348.71 242.877" stroke="#263238" stroke-width="0.5" stroke-miterlimit="10"/>
<path d="M343.734 240.267L345.649 236.252" stroke="#263238" stroke-miterlimit="10"/>
<path d="M345.063 237.472C344.985 236.959 344.992 236.43 345.086 235.921C345.179 235.412 345.355 234.934 345.603 234.52C346.112 233.621 349.168 230.912 349.708 232.335C350.319 233.864 347.447 238.01 345.063 237.472Z" fill="#92E3A9" stroke="#263238" stroke-miterlimit="10"/>
<path d="M345.063 237.452L347.977 233.871" stroke="#263238" stroke-width="0.5" stroke-miterlimit="10"/>
<path d="M342.664 227.061L344.579 223.04" stroke="#263238" stroke-miterlimit="10"/>
<path d="M343.994 224.247C343.915 223.733 343.923 223.203 344.016 222.693C344.109 222.183 344.285 221.704 344.534 221.288C345.043 220.39 348.099 217.687 348.639 219.111C349.25 220.659 346.377 224.805 343.994 224.247Z" fill="#92E3A9" stroke="#263238" stroke-miterlimit="10"/>
<path d="M343.994 224.247L346.907 220.659" stroke="#263238" stroke-width="0.5" stroke-miterlimit="10"/>
<path d="M341.844 218.612C341.766 218.099 341.773 217.57 341.867 217.061C341.96 216.552 342.136 216.074 342.384 215.66C342.893 214.761 345.949 212.052 346.489 213.476C347.106 215.024 344.228 219.17 341.844 218.612Z" fill="#92E3A9" stroke="#263238" stroke-miterlimit="10"/>
<path d="M341.844 218.612L344.758 215.03" stroke="#263238" stroke-width="0.5" stroke-miterlimit="10"/>
<path d="M342.012 218.769C341.607 218.817 341.199 218.752 340.815 218.579C340.431 218.406 340.08 218.128 339.787 217.766C339.15 217.018 337.377 212.852 338.534 212.282C339.792 211.658 342.695 215.778 342.012 218.769Z" fill="#92E3A9" stroke="#263238" stroke-miterlimit="10"/>
<path d="M342.012 218.769L339.552 214.663" stroke="#263238" stroke-width="0.5" stroke-miterlimit="10"/>
<path d="M356.533 228.426L351.012 296.938" stroke="#263238" stroke-miterlimit="10"/>
<path d="M352.235 283.871L350.32 279.85" stroke="#263238" stroke-miterlimit="10"/>
<path d="M350.9 281.057C350.98 280.544 350.973 280.014 350.88 279.505C350.787 278.995 350.61 278.518 350.36 278.105C349.851 277.206 346.795 274.503 346.255 275.927C345.644 277.488 348.522 281.621 350.9 281.057Z" fill="#92E3A9" stroke="#263238" stroke-miterlimit="10"/>
<path d="M350.9 281.057L348.15 277.659" stroke="#263238" stroke-width="0.5" stroke-miterlimit="10"/>
<path d="M353.763 264.86L351.848 260.839" stroke="#263238" stroke-miterlimit="10"/>
<path d="M352.459 262.046C352.539 261.533 352.532 261.003 352.439 260.494C352.346 259.984 352.168 259.507 351.919 259.094C351.409 258.195 348.353 255.486 347.814 256.909C347.177 258.464 350.055 262.603 352.459 262.046Z" fill="#92E3A9" stroke="#263238" stroke-miterlimit="10"/>
<path d="M352.433 262.046L349.683 258.648" stroke="#263238" stroke-width="0.5" stroke-miterlimit="10"/>
<path d="M353.136 272.647L351.221 268.632" stroke="#263238" stroke-miterlimit="10"/>
<path d="M351.807 269.839C351.885 269.325 351.878 268.795 351.785 268.285C351.692 267.775 351.515 267.296 351.267 266.88C350.758 265.982 347.702 263.279 347.157 264.703C346.545 266.251 349.403 270.397 351.807 269.839Z" fill="#92E3A9" stroke="#263238" stroke-miterlimit="10"/>
<path d="M351.807 269.839L349.056 266.441" stroke="#263238" stroke-width="0.5" stroke-miterlimit="10"/>
<path d="M354.786 252.199L352.871 248.184" stroke="#263238" stroke-miterlimit="10"/>
<path d="M353.478 249.391C353.557 248.877 353.55 248.347 353.457 247.837C353.364 247.326 353.187 246.847 352.938 246.433C352.428 245.534 349.372 242.831 348.832 244.255C348.196 245.803 351.073 249.936 353.478 249.391Z" fill="#92E3A9" stroke="#263238" stroke-miterlimit="10"/>
<path d="M353.452 249.392L350.702 245.993" stroke="#263238" stroke-width="0.5" stroke-miterlimit="10"/>
<path d="M355.81 239.492L353.895 235.471" stroke="#263238" stroke-miterlimit="10"/>
<path d="M354.496 236.678C354.576 236.165 354.569 235.636 354.476 235.126C354.383 234.617 354.206 234.139 353.956 233.726C353.447 232.827 350.391 230.118 349.851 231.542C349.219 233.09 352.097 237.236 354.496 236.678Z" fill="#92E3A9" stroke="#263238" stroke-miterlimit="10"/>
<path d="M354.476 236.678L351.725 233.28" stroke="#263238" stroke-width="0.5" stroke-miterlimit="10"/>
<path d="M352.555 279.246L355.072 275.822" stroke="#263238" stroke-miterlimit="10"/>
<path d="M354.308 276.832C354.316 276.307 354.411 275.79 354.586 275.316C354.762 274.842 355.014 274.422 355.326 274.083C355.973 273.342 359.37 271.499 359.696 273.04C360.027 274.726 356.533 278.026 354.308 276.832Z" fill="#92E3A9" stroke="#263238" stroke-miterlimit="10"/>
<path d="M354.308 276.845L357.73 274.11" stroke="#263238" stroke-width="0.5" stroke-miterlimit="10"/>
<path d="M354.206 258.746L356.722 255.322" stroke="#263238" stroke-miterlimit="10"/>
<path d="M355.958 256.345C355.965 255.82 356.059 255.302 356.235 254.828C356.411 254.354 356.664 253.934 356.976 253.596C357.618 252.849 361.021 251.005 361.341 252.547C361.678 254.226 358.199 257.519 355.958 256.345Z" fill="#92E3A9" stroke="#263238" stroke-miterlimit="10"/>
<path d="M355.958 256.345L359.386 253.61" stroke="#263238" stroke-width="0.5" stroke-miterlimit="10"/>
<path d="M354.934 249.733L357.45 246.308" stroke="#263238" stroke-width="2" stroke-miterlimit="10"/>
<path d="M356.686 247.312C356.693 246.786 356.787 246.269 356.963 245.794C357.138 245.32 357.392 244.9 357.705 244.563C358.352 243.822 361.749 241.979 362.075 243.52C362.406 245.213 358.927 248.512 356.686 247.312Z" fill="#92E3A9" stroke="#263238" stroke-miterlimit="10"/>
<path d="M356.686 247.332L360.109 244.596" stroke="#263238" stroke-width="0.5" stroke-miterlimit="10"/>
<path d="M355.999 236.527L358.515 233.103" stroke="#263238" stroke-miterlimit="10"/>
<path d="M357.751 234.126C357.757 233.601 357.851 233.083 358.027 232.609C358.202 232.134 358.456 231.714 358.769 231.378C359.416 230.63 362.814 228.787 363.134 230.328C363.471 232.007 359.992 235.301 357.751 234.126Z" fill="#92E3A9" stroke="#263238" stroke-miterlimit="10"/>
<path d="M357.751 234.126L361.173 231.391" stroke="#263238" stroke-width="0.5" stroke-miterlimit="10"/>
<path d="M356.533 228.045C356.541 227.52 356.635 227.003 356.811 226.529C356.987 226.054 357.24 225.634 357.552 225.297C358.199 224.549 361.596 222.705 361.922 224.247C362.269 225.926 358.79 229.219 356.533 228.045Z" fill="#92E3A9" stroke="#263238" stroke-miterlimit="10"/>
<path d="M356.549 228.045L359.972 225.31" stroke="#263238" stroke-width="0.5" stroke-miterlimit="10"/>
<path d="M356.686 228.242C356.278 228.184 355.885 228.014 355.534 227.742C355.182 227.47 354.88 227.104 354.649 226.668C354.14 225.769 353.075 221.223 354.297 220.967C355.652 220.691 357.832 225.493 356.686 228.242Z" fill="#92E3A9" stroke="#263238" stroke-miterlimit="10"/>
<path d="M356.686 228.242L354.934 223.565" stroke="#263238" stroke-width="0.5" stroke-miterlimit="10"/>
<path d="M350.208 200.533V287.164" stroke="#263238" stroke-miterlimit="10"/>
<path d="M350.264 274.136L348.033 270.397" stroke="#263238" stroke-miterlimit="10"/>
<path d="M348.71 271.518C348.747 270.997 348.698 270.471 348.564 269.977C348.43 269.483 348.216 269.031 347.936 268.652C347.355 267.825 344.121 265.542 343.678 267.031C343.194 268.652 346.387 272.391 348.71 271.518Z" fill="#92E3A9" stroke="#263238" stroke-miterlimit="10"/>
<path d="M348.71 271.518L345.705 268.501" stroke="#263238" stroke-width="0.5" stroke-miterlimit="10"/>
<path d="M350.264 257.86L348.033 254.115" stroke="#263238" stroke-miterlimit="10"/>
<path d="M348.71 255.236C348.747 254.715 348.698 254.19 348.564 253.695C348.43 253.201 348.216 252.749 347.936 252.37C347.355 251.543 344.121 249.26 343.678 250.749C343.194 252.37 346.387 256.109 348.71 255.236Z" fill="#92E3A9" stroke="#263238" stroke-miterlimit="10"/>
<path d="M348.71 255.236L345.705 252.225" stroke="#263238" stroke-miterlimit="10"/>
<path d="M350.264 238.745L348.033 235.005" stroke="#263238" stroke-miterlimit="10"/>
<path d="M348.71 236.16C348.747 235.638 348.697 235.111 348.564 234.616C348.43 234.12 348.216 233.667 347.936 233.287C347.355 232.467 344.121 230.177 343.678 231.666C343.194 233.254 346.387 237 348.71 236.16Z" fill="#92E3A9" stroke="#263238" stroke-miterlimit="10"/>
<path d="M348.71 236.127L345.705 233.11" stroke="#263238" stroke-width="0.5" stroke-miterlimit="10"/>
<path d="M350.264 226.018L348.033 222.279" stroke="#263238" stroke-miterlimit="10"/>
<path d="M348.71 223.401C348.747 222.879 348.698 222.354 348.564 221.859C348.43 221.365 348.216 220.913 347.936 220.534C347.355 219.707 344.121 217.418 343.678 218.914C343.194 220.534 346.387 224.273 348.71 223.401Z" fill="#92E3A9" stroke="#263238" stroke-miterlimit="10"/>
<path d="M348.71 223.401L345.705 220.383" stroke="#263238" stroke-width="0.5" stroke-miterlimit="10"/>
<path d="M350.264 213.239L348.033 209.5" stroke="#263238" stroke-miterlimit="10"/>
<path d="M348.71 210.622C348.747 210.101 348.698 209.575 348.564 209.08C348.43 208.586 348.216 208.134 347.936 207.755C347.355 206.929 344.121 204.639 343.678 206.135C343.194 207.755 346.387 211.494 348.71 210.622Z" fill="#92E3A9" stroke="#263238" stroke-miterlimit="10"/>
<path d="M348.71 210.622L345.705 207.604" stroke="#263238" stroke-miterlimit="10"/>
<path d="M350.213 279.108L352.438 275.369" stroke="#263238" stroke-miterlimit="10"/>
<path d="M351.761 276.491C351.724 275.97 351.773 275.444 351.907 274.95C352.041 274.455 352.255 274.003 352.535 273.624C353.116 272.798 356.35 270.508 356.793 272.004C357.282 273.624 354.084 277.363 351.761 276.491Z" fill="#92E3A9" stroke="#263238" stroke-miterlimit="10"/>
<path d="M351.761 276.491L354.949 273.309" stroke="#263238" stroke-width="0.5" stroke-miterlimit="10"/>
<path d="M350.213 253.216L352.438 249.477" stroke="#263238" stroke-miterlimit="10"/>
<path d="M351.761 250.592C351.724 250.071 351.773 249.545 351.907 249.051C352.041 248.556 352.255 248.104 352.535 247.725C353.116 246.899 356.35 244.609 356.793 246.105C357.282 247.732 354.084 251.471 351.761 250.592Z" fill="#92E3A9" stroke="#263238" stroke-miterlimit="10"/>
<path d="M351.761 250.599L354.949 247.417" stroke="#263238" stroke-width="0.5" stroke-miterlimit="10"/>
<path d="M350.213 240.437L352.438 236.698" stroke="#263238" stroke-miterlimit="10"/>
<path d="M351.761 237.82C351.724 237.298 351.773 236.773 351.907 236.278C352.041 235.784 352.255 235.332 352.535 234.953C353.116 234.126 356.35 231.837 356.793 233.326C357.282 234.953 354.084 238.692 351.761 237.82Z" fill="#92E3A9" stroke="#263238" stroke-miterlimit="10"/>
<path d="M351.761 237.82L354.949 234.638" stroke="#263238" stroke-width="0.5" stroke-miterlimit="10"/>
<path d="M350.213 223.545L352.438 219.806" stroke="#263238" stroke-miterlimit="10"/>
<path d="M351.761 220.928C351.724 220.406 351.773 219.881 351.907 219.386C352.041 218.892 352.255 218.44 352.535 218.061C353.116 217.234 356.35 214.945 356.793 216.441C357.282 218.061 354.084 221.8 351.761 220.928Z" fill="#92E3A9" stroke="#263238" stroke-miterlimit="10"/>
<path d="M351.761 220.928L354.949 217.746" stroke="#263238" stroke-width="0.5" stroke-miterlimit="10"/>
<path d="M350.213 210.268L352.438 206.522" stroke="#263238" stroke-miterlimit="10"/>
<path d="M351.761 207.65C351.724 207.128 351.773 206.601 351.907 206.106C352.04 205.61 352.255 205.157 352.535 204.777C353.116 203.95 356.35 201.668 356.793 203.157C357.282 204.777 354.084 208.523 351.761 207.65Z" fill="#92E3A9" stroke="#263238" stroke-miterlimit="10"/>
<path d="M351.761 207.65L354.949 204.469" stroke="#263238" stroke-width="0.5" stroke-miterlimit="10"/>
<path d="M350.08 201.759C350.043 201.237 350.093 200.711 350.227 200.215C350.36 199.72 350.574 199.266 350.854 198.886C351.435 198.066 354.669 195.777 355.112 197.266C355.596 198.886 352.403 202.632 350.08 201.759Z" fill="#92E3A9" stroke="#263238" stroke-miterlimit="10"/>
<path d="M350.08 201.759L353.263 198.578" stroke="#263238" stroke-width="0.5" stroke-miterlimit="10"/>
<path d="M350.233 201.936C349.825 201.926 349.424 201.803 349.056 201.577C348.688 201.351 348.362 201.026 348.099 200.624C347.523 199.798 346.097 195.416 347.294 195.003C348.598 194.563 351.15 199.05 350.233 201.936Z" fill="#92E3A9" stroke="#263238" stroke-miterlimit="10"/>
<path d="M350.233 201.936L348.114 197.515" stroke="#263238" stroke-width="0.5" stroke-miterlimit="10"/>
<path d="M352.973 309.632H345.853L344.961 286.462H353.865L352.973 309.632Z" fill="#263238" stroke="#263238" stroke-miterlimit="10"/>
<path d="M75.687 36.08H28.5227V77.1849H75.687V36.08Z" stroke="#B2B2B2" stroke-linecap="round" stroke-linejoin="round"/>
<path d="M125.647 36.08H78.4832V77.1849H125.647V36.08Z" stroke="#B2B2B2" stroke-linecap="round" stroke-linejoin="round"/>
<path d="M194.438 36.08H147.274V77.1849H194.438V36.08Z" stroke="#B2B2B2" stroke-linecap="round" stroke-linejoin="round"/>
<path d="M244.404 36.08H197.239V77.1849H244.404V36.08Z" stroke="#B2B2B2" stroke-linecap="round" stroke-linejoin="round"/>
<path d="M313.194 36.08H266.03V77.1849H313.194V36.08Z" stroke="#B2B2B2" stroke-linecap="round" stroke-linejoin="round"/>
<path d="M363.155 36.08H315.99V77.1849H363.155V36.08Z" stroke="#B2B2B2" stroke-linecap="round" stroke-linejoin="round"/>
<path d="M249.538 250.526H212.937V300.966H249.538V250.526Z" fill="white" stroke="#B2B2B2" stroke-linecap="round" stroke-linejoin="round"/>
<path d="M219.141 250.526H215.815V268.875H219.141V250.526Z" fill="#B2B2B2" stroke="#B2B2B2" stroke-miterlimit="10"/>
<path d="M286.108 250.526H249.507V300.966H286.108V250.526Z" fill="white" stroke="#B2B2B2" stroke-linecap="round" stroke-linejoin="round"/>
<path d="M255.711 250.526H252.385V268.875H255.711V250.526Z" fill="#B2B2B2" stroke="#B2B2B2" stroke-miterlimit="10"/>
<path d="M249.538 199.759H212.937V250.198H249.538V199.759Z" fill="white" stroke="#B2B2B2" stroke-linecap="round" stroke-linejoin="round"/>
<path d="M219.141 199.759H215.815V218.107H219.141V199.759Z" fill="#B2B2B2" stroke="#B2B2B2" stroke-miterlimit="10"/>
<path d="M286.108 199.759H249.507V250.198H286.108V199.759Z" fill="white" stroke="#B2B2B2" stroke-linecap="round" stroke-linejoin="round"/>
<path d="M255.711 199.759H252.385V218.107H255.711V199.759Z" fill="#B2B2B2" stroke="#B2B2B2" stroke-miterlimit="10"/>
<path d="M289.897 307.224H211.536V309.632H289.897V307.224Z" fill="white" stroke="#B2B2B2" stroke-linecap="round" stroke-linejoin="round"/>
<path d="M289.897 298.487H211.536V300.894H289.897V298.487Z" fill="white" stroke="#B2B2B2" stroke-linecap="round" stroke-linejoin="round"/>
<path d="M219.018 300.966H212.937V307.08H219.018V300.966Z" fill="white" stroke="#B2B2B2" stroke-linecap="round" stroke-linejoin="round"/>
<path d="M252.752 300.966H246.67V307.08H252.752V300.966Z" fill="white" stroke="#B2B2B2" stroke-linecap="round" stroke-linejoin="round"/>
<path d="M286.485 300.966H280.403V307.08H286.485V300.966Z" fill="white" stroke="#B2B2B2" stroke-linecap="round" stroke-linejoin="round"/>
<path d="M169.572 250.526H132.972V300.966H169.572V250.526Z" fill="white" stroke="#B2B2B2" stroke-linecap="round" stroke-linejoin="round"/>
<path d="M139.175 250.526H135.849V268.875H139.175V250.526Z" fill="#B2B2B2" stroke="#B2B2B2" stroke-miterlimit="10"/>
<path d="M206.143 250.526H169.542V300.966H206.143V250.526Z" fill="white" stroke="#B2B2B2" stroke-linecap="round" stroke-linejoin="round"/>
<path d="M175.746 250.526H172.42V268.875H175.746V250.526Z" fill="#B2B2B2" stroke="#B2B2B2" stroke-miterlimit="10"/>
<path d="M169.572 199.759H132.972V250.198H169.572V199.759Z" fill="white" stroke="#B2B2B2" stroke-linecap="round" stroke-linejoin="round"/>
<path d="M139.175 199.759H135.849V218.107H139.175V199.759Z" fill="#B2B2B2" stroke="#B2B2B2" stroke-miterlimit="10"/>
<path d="M206.143 199.759H169.542V250.198H206.143V199.759Z" fill="white" stroke="#B2B2B2" stroke-linecap="round" stroke-linejoin="round"/>
<path d="M175.746 199.759H172.42V218.107H175.746V199.759Z" fill="#B2B2B2" stroke="#B2B2B2" stroke-miterlimit="10"/>
<path d="M209.932 307.224H131.571V309.632H209.932V307.224Z" fill="white" stroke="#B2B2B2" stroke-linecap="round" stroke-linejoin="round"/>
<path d="M209.932 298.487H131.571V300.894H209.932V298.487Z" fill="white" stroke="#B2B2B2" stroke-linecap="round" stroke-linejoin="round"/>
<path d="M139.053 300.966H132.972V307.08H139.053V300.966Z" fill="white" stroke="#B2B2B2" stroke-linecap="round" stroke-linejoin="round"/>
<path d="M172.786 300.966H166.705V307.08H172.786V300.966Z" fill="white" stroke="#B2B2B2" stroke-linecap="round" stroke-linejoin="round"/>
<path d="M206.519 300.966H200.438V307.08H206.519V300.966Z" fill="white" stroke="#B2B2B2" stroke-linecap="round" stroke-linejoin="round"/>
<path d="M89.607 250.526H53.0063V300.966H89.607V250.526Z" fill="white" stroke="#B2B2B2" stroke-linecap="round" stroke-linejoin="round"/>
<path d="M59.2101 250.526H55.8842V268.875H59.2101V250.526Z" fill="#B2B2B2" stroke="#B2B2B2" stroke-miterlimit="10"/>
<path d="M126.177 250.526H89.5765V300.966H126.177V250.526Z" fill="white" stroke="#B2B2B2" stroke-linecap="round" stroke-linejoin="round"/>
<path d="M95.7802 250.526H92.4542V268.875H95.7802V250.526Z" fill="#B2B2B2" stroke="#B2B2B2" stroke-miterlimit="10"/>
<path d="M89.607 199.759H53.0063V250.198H89.607V199.759Z" fill="white" stroke="#B2B2B2" stroke-linecap="round" stroke-linejoin="round"/>
<path d="M59.2101 199.759H55.8842V218.107H59.2101V199.759Z" fill="#B2B2B2" stroke="#B2B2B2" stroke-miterlimit="10"/>
<path d="M126.177 199.759H89.5765V250.198H126.177V199.759Z" fill="white" stroke="#B2B2B2" stroke-linecap="round" stroke-linejoin="round"/>
<path d="M95.7802 199.759H92.4542V218.107H95.7802V199.759Z" fill="#B2B2B2" stroke="#B2B2B2" stroke-miterlimit="10"/>
<path d="M89.607 149.903H53.0063V200.342H89.607V149.903Z" fill="white" stroke="#B2B2B2" stroke-linecap="round" stroke-linejoin="round"/>
<path d="M59.2101 149.903H55.8842V168.251H59.2101V149.903Z" fill="#B2B2B2" stroke="#B2B2B2" stroke-miterlimit="10"/>
<path d="M126.177 149.903H89.5765V200.342H126.177V149.903Z" fill="white" stroke="#B2B2B2" stroke-linecap="round" stroke-linejoin="round"/>
<path d="M95.7802 149.903H92.4542V168.251H95.7802V149.903Z" fill="#B2B2B2" stroke="#B2B2B2" stroke-miterlimit="10"/>
<path d="M129.967 307.224H51.6057V309.632H129.967V307.224Z" fill="white" stroke="#B2B2B2" stroke-linecap="round" stroke-linejoin="round"/>
<path d="M129.967 298.487H51.6057V300.894H129.967V298.487Z" fill="white" stroke="#B2B2B2" stroke-linecap="round" stroke-linejoin="round"/>
<path d="M59.0878 300.966H53.0063V307.08H59.0878V300.966Z" fill="white" stroke="#B2B2B2" stroke-linecap="round" stroke-linejoin="round"/>
<path d="M92.8209 300.966H86.7395V307.08H92.8209V300.966Z" fill="white" stroke="#B2B2B2" stroke-linecap="round" stroke-linejoin="round"/>
<path d="M126.554 300.966H120.473V307.08H126.554V300.966Z" fill="white" stroke="#B2B2B2" stroke-linecap="round" stroke-linejoin="round"/>
<path d="M339.939 17.8104H200.85V157.978H339.939V17.8104Z" fill="#E8E8E8" stroke="#263238" stroke-linecap="round" stroke-linejoin="round"/>
<path d="M339.939 17.8104H200.85V24.1539H339.939V17.8104Z" fill="#263238" stroke="#263238" stroke-linecap="round" stroke-linejoin="round"/>
<path d="M328.693 20.71C328.698 20.3866 328.628 20.0686 328.492 19.7967C328.356 19.5247 328.161 19.3111 327.93 19.1831C327.699 19.0551 327.444 19.0186 327.198 19.0781C326.951 19.1377 326.723 19.2906 326.544 19.5174C326.365 19.7443 326.243 20.0347 326.193 20.3515C326.142 20.6684 326.167 20.9974 326.262 21.2965C326.358 21.5956 326.52 21.8512 326.729 22.0306C326.938 22.2101 327.184 22.3053 327.435 22.304C327.765 22.3024 328.081 22.1348 328.316 21.8369C328.551 21.539 328.686 21.1346 328.693 20.71Z" fill="white" stroke="#263238" stroke-linecap="round" stroke-linejoin="round"/>
<path d="M333.104 20.71C333.109 20.388 333.04 20.0714 332.905 19.8002C332.77 19.529 332.576 19.3154 332.347 19.1865C332.117 19.0577 331.864 19.0192 331.618 19.0762C331.372 19.1331 331.144 19.2828 330.964 19.5063C330.784 19.7298 330.66 20.0171 330.607 20.3318C330.554 20.6465 330.574 20.9744 330.666 21.274C330.758 21.5736 330.916 21.8314 331.122 22.0148C331.327 22.1981 331.57 22.2988 331.82 22.3041C332.155 22.3111 332.477 22.1473 332.718 21.8485C332.958 21.5497 333.097 21.1403 333.104 20.71Z" fill="white" stroke="#263238" stroke-linecap="round" stroke-linejoin="round"/>
<path d="M337.469 20.71C337.474 20.3869 337.404 20.0692 337.269 19.7974C337.133 19.5255 336.937 19.3119 336.707 19.1838C336.477 19.0556 336.222 19.0186 335.975 19.0777C335.729 19.1367 335.501 19.289 335.322 19.5151C335.143 19.7413 335.02 20.0311 334.969 20.3475C334.918 20.664 334.942 20.9927 335.037 21.2919C335.131 21.5911 335.293 21.8472 335.501 22.0274C335.71 22.2077 335.955 22.304 336.206 22.3041C336.536 22.3041 336.854 22.1372 337.09 21.8392C337.326 21.5412 337.462 21.1357 337.469 20.71Z" fill="white" stroke="#263238" stroke-linecap="round" stroke-linejoin="round"/>
<path d="M209.657 41.7282H208.918V32.1899H209.968L211.679 39.0845V32.1899H212.392V41.7282H211.531L209.636 34.0136L209.657 41.7282Z" fill="#263238"/>
<path d="M215.891 36.4146V37.392H214.083V40.7901H216.304V41.7544H213.248V32.1899H216.304V33.1543H214.083V36.4343L215.891 36.4146Z" fill="#263238"/>
<path d="M219.039 41.7282H217.903L216.884 32.1899H217.689L218.555 40.3112L219.38 32.2031H220.195L221.01 40.3243L221.845 32.1899H222.579L221.56 41.7282H220.47L219.762 35.2535L219.039 41.7282Z" fill="#263238"/>
<path d="M227.514 36.4146V37.392H225.706V40.7901H227.932V41.7544H224.876V32.1899H227.932V33.1543H225.706V36.4343L227.514 36.4146Z" fill="#263238"/>
<path d="M229.424 41.7282H228.691V32.1899H229.709L231.426 39.0845V32.1899H232.154V41.7282H231.298L229.404 34.0136L229.424 41.7282Z" fill="#263238"/>
<path d="M234.09 41.7282V33.1543H232.725V32.1899H236.29V33.1543H234.905V41.7282H234.09Z" fill="#263238"/>
<path d="M238.485 32.1899C239.646 32.1899 240.135 32.9509 240.135 34.3679V35.1419C240.135 36.1915 239.85 36.8475 239.213 37.1099C239.891 37.3658 240.146 38.0743 240.146 39.0779V40.5671C240.121 40.9574 240.172 41.3495 240.293 41.7085H239.458C239.34 41.3414 239.293 40.943 239.32 40.5474V39.0714C239.32 37.9955 238.928 37.6544 238.241 37.6544H237.66V41.7282H236.84V32.1899H238.485ZM238.271 36.6835C238.928 36.6835 239.32 36.4146 239.32 35.3715V34.4663C239.32 33.6069 239.076 33.1543 238.465 33.1543H237.66V36.6835H238.271Z" fill="#263238"/>
<path d="M241.831 32.1899V41.7282H241.001V32.1899H241.831Z" fill="#263238"/>
<path d="M245.31 36.4146V37.392H243.502V40.7901H245.723V41.7544H242.667V32.1899H245.723V33.1543H243.502V36.4343L245.31 36.4146Z" fill="#263238"/>
<path d="M249.696 34.4794V34.7681H248.911V34.4532C248.911 33.5938 248.657 33.0953 248.066 33.0953C247.475 33.0953 247.215 33.5938 247.215 34.4401C247.215 36.5852 249.706 36.7885 249.706 39.4716C249.706 40.9148 249.166 41.8594 248.035 41.8594C246.904 41.8594 246.37 40.9148 246.37 39.4716V38.9271H247.144V39.5241C247.144 40.3834 247.419 40.8885 248.01 40.8885C248.601 40.8885 248.881 40.3834 248.881 39.5241C248.881 37.3986 246.405 37.1953 246.405 34.5122C246.405 33.0362 246.915 32.1244 248.045 32.1244C249.176 32.1244 249.696 33.0297 249.696 34.4794Z" fill="#263238"/>
<path d="M255.334 46.7662H210.207C209.225 46.7662 208.429 47.7913 208.429 49.0557V57.2885C208.429 58.5529 209.225 59.5779 210.207 59.5779H255.334C256.316 59.5779 257.111 58.5529 257.111 57.2885V49.0557C257.111 47.7913 256.316 46.7662 255.334 46.7662Z" fill="#D9D9D9" stroke="#263238" stroke-linecap="round" stroke-linejoin="round"/>
<path d="M232.984 140.364H209.631C208.967 140.364 208.429 141.058 208.429 141.913V149.922C208.429 150.777 208.967 151.47 209.631 151.47H232.984C233.648 151.47 234.186 150.777 234.186 149.922V141.913C234.186 141.058 233.648 140.364 232.984 140.364Z" fill="#D9D9D9" stroke="#263238" stroke-linecap="round" stroke-linejoin="round"/>
<path d="M264.833 140.364H241.48C240.816 140.364 240.278 141.058 240.278 141.913V149.922C240.278 150.777 240.816 151.47 241.48 151.47H264.833C265.497 151.47 266.035 150.777 266.035 149.922V141.913C266.035 141.058 265.497 140.364 264.833 140.364Z" fill="#263238" stroke="#263238" stroke-linecap="round" stroke-linejoin="round"/>
<path d="M331.372 67.9354H210.207C209.225 67.9354 208.429 68.9604 208.429 70.2249V78.4577C208.429 79.7221 209.225 80.7471 210.207 80.7471H331.372C332.354 80.7471 333.15 79.7221 333.15 78.4577V70.2249C333.15 68.9604 332.354 67.9354 331.372 67.9354Z" fill="#D9D9D9" stroke="#263238" stroke-linecap="round" stroke-linejoin="round"/>
<path d="M333.15 86.6051H297.919V131.712H333.15V86.6051Z" fill="white" stroke="#263238" stroke-linecap="round" stroke-linejoin="round"/>
<path d="M294.863 86.6051H208.429V131.712H294.863V86.6051Z" fill="white" stroke="#263238" stroke-linecap="round" stroke-linejoin="round"/>
<path d="M300.333 93.9261H328.887" stroke="#263238" stroke-linecap="round" stroke-linejoin="round"/>
<path d="M211.628 93.9261H292.632" stroke="#263238" stroke-linecap="round" stroke-linejoin="round"/>
<path d="M300.563 103.536H328.887" stroke="#263238" stroke-linecap="round" stroke-linejoin="round"/>
<path d="M211.628 103.536H292.856" stroke="#263238" stroke-linecap="round" stroke-linejoin="round"/>
<path d="M300.563 113.147H328.887" stroke="#263238" stroke-linecap="round" stroke-linejoin="round"/>
<path d="M211.628 113.147H292.856" stroke="#263238" stroke-linecap="round" stroke-linejoin="round"/>
<path d="M300.563 122.757H328.887" stroke="#263238" stroke-linecap="round" stroke-linejoin="round"/>
<path d="M211.628 122.757H292.856" stroke="#263238" stroke-linecap="round" stroke-linejoin="round"/>
<path d="M298.347 49.469C299.014 49.469 299.32 49.9872 299.32 50.84V53.6149C299.32 54.4612 299.014 54.9794 298.347 54.9794H297.328V49.469H298.347ZM298.347 54.4218C298.688 54.4218 298.856 54.1463 298.856 53.6411V50.8072C298.856 50.3021 298.693 50.0266 298.347 50.0266H297.838V54.448L298.347 54.4218Z" fill="#263238"/>
<path d="M300.242 53.8708L300.079 54.9794H299.636L300.456 49.469H301.148L301.963 54.9794H301.49L301.322 53.8708H300.242ZM300.303 53.3394H301.255L300.777 50.1644L300.303 53.3394Z" fill="#263238"/>
<path d="M302.962 54.9794V50.0266H302.172V49.469H304.209V50.0266H303.425V54.9794H302.962Z" fill="#263238"/>
<path d="M306.079 51.9093V52.48H305.035V54.448H306.318V55.0056H304.581V49.4952H306.344V50.0528H305.06V51.9356L306.079 51.9093Z" fill="#263238"/>
<path d="M315.537 48.5505H308.814V57.2097H315.537V48.5505Z" fill="white" stroke="#263238" stroke-linecap="round" stroke-linejoin="round"/>
<path d="M324.563 48.5505H317.839V57.2097H324.563V48.5505Z" fill="white" stroke="#263238" stroke-linecap="round" stroke-linejoin="round"/>
<path d="M333.588 48.5505H326.865V57.2097H333.588V48.5505Z" fill="white" stroke="#263238" stroke-linecap="round" stroke-linejoin="round"/>
<path d="M245.611 163.029H269.249L292.317 196.584L276.563 163.029H302.819" stroke="#263238" stroke-linecap="round" stroke-linejoin="round"/>
<path d="M241.49 163.029H243.446" stroke="#263238" stroke-linecap="round" stroke-linejoin="round"/>
<path d="M300.909 298.375C300.909 298.375 298.5 303.367 297.812 304.148C297.125 304.928 295.398 306.588 294.71 307.474C294.023 308.359 294.878 309.475 295.658 309.579C296.437 309.684 305.844 309.579 305.844 309.579C305.844 309.579 306.863 309.363 306.965 308.694C307.067 308.025 307.474 306.031 306.878 304.259C306.5 303.058 306.295 301.777 306.272 300.481L306.445 299.93L306.272 298.618L300.909 298.375Z" fill="white" stroke="#263238" stroke-linecap="round" stroke-linejoin="round"/>
<path d="M295.658 309.579C296.432 309.691 305.845 309.579 305.845 309.579C305.845 309.579 306.863 309.363 306.965 308.694C307.11 307.869 307.185 307.027 307.189 306.181C305.768 306.726 304.327 307.493 304.327 307.493H294.71C294.018 308.359 294.904 309.475 295.658 309.579Z" fill="white" stroke="#263238" stroke-linecap="round" stroke-linejoin="round"/>
<path d="M304.75 306.345L304.087 309.343" stroke="#263238" stroke-linecap="round" stroke-linejoin="round"/>
<path d="M301.979 304.981C301.925 304.981 301.871 304.968 301.821 304.942C300.033 303.918 298.867 304.614 298.821 304.646C298.73 304.703 298.625 304.71 298.529 304.667C298.434 304.624 298.356 304.534 298.312 304.417C298.267 304.3 298.261 304.166 298.293 304.043C298.326 303.92 298.395 303.819 298.485 303.761C298.546 303.721 300.013 302.816 302.137 304.036C302.184 304.062 302.226 304.099 302.261 304.146C302.297 304.194 302.325 304.249 302.343 304.31C302.362 304.372 302.371 304.437 302.369 304.502C302.368 304.568 302.356 304.633 302.335 304.692C302.304 304.78 302.253 304.853 302.19 304.905C302.127 304.956 302.053 304.982 301.979 304.981Z" fill="white" stroke="#263238" stroke-linecap="round" stroke-linejoin="round"/>
<path d="M302.31 303.728C302.256 303.728 302.202 303.714 302.152 303.689C300.369 302.665 299.203 303.361 299.152 303.393C299.061 303.441 298.96 303.442 298.869 303.398C298.777 303.353 298.702 303.265 298.659 303.152C298.616 303.039 298.607 302.909 298.635 302.788C298.664 302.667 298.726 302.565 298.811 302.501C298.872 302.462 300.339 301.557 302.468 302.777C302.547 302.824 302.612 302.905 302.652 303.006C302.691 303.108 302.702 303.223 302.684 303.334C302.666 303.444 302.619 303.544 302.551 303.615C302.483 303.687 302.398 303.727 302.31 303.728Z" fill="white" stroke="#263238" stroke-linecap="round" stroke-linejoin="round"/>
<path d="M302.641 302.416C302.588 302.416 302.537 302.402 302.488 302.377C300.7 301.347 299.534 302.049 299.483 302.081C299.392 302.129 299.291 302.13 299.2 302.085C299.108 302.041 299.033 301.953 298.99 301.84C298.947 301.727 298.938 301.597 298.967 301.476C298.995 301.355 299.057 301.253 299.142 301.189C299.203 301.15 300.67 300.245 302.799 301.465C302.893 301.518 302.966 301.617 303.003 301.74C303.041 301.863 303.038 302 302.997 302.121C302.966 302.208 302.915 302.283 302.852 302.335C302.789 302.387 302.716 302.415 302.641 302.416Z" fill="white" stroke="#263238" stroke-linecap="round" stroke-linejoin="round"/>
<path d="M327.079 298.375C327.079 298.375 329.488 303.367 330.18 304.148C330.873 304.928 332.59 306.588 333.282 307.474C333.975 308.359 333.109 309.475 332.33 309.579C331.55 309.684 322.143 309.579 322.143 309.579C322.143 309.579 321.124 309.363 321.028 308.694C320.931 308.025 320.518 306.031 321.109 304.259C321.488 303.058 321.693 301.777 321.715 300.481L321.542 299.93L321.715 298.618L327.079 298.375Z" fill="white" stroke="#263238" stroke-linecap="round" stroke-linejoin="round"/>
<path d="M332.33 309.579C331.556 309.691 322.143 309.579 322.143 309.579C322.143 309.579 321.125 309.363 321.028 308.694C320.878 307.87 320.801 307.027 320.799 306.181C322.22 306.726 323.661 307.493 323.661 307.493H333.262C333.97 308.359 333.104 309.475 332.33 309.579Z" fill="white" stroke="#263238" stroke-linecap="round" stroke-linejoin="round"/>
<path d="M323.238 306.345L323.906 309.343" stroke="#263238" stroke-linecap="round" stroke-linejoin="round"/>
<path d="M326.009 304.981C326.063 304.981 326.117 304.968 326.167 304.942C327.955 303.918 329.121 304.614 329.167 304.646C329.214 304.678 329.265 304.697 329.317 304.703C329.37 304.709 329.423 304.702 329.473 304.681C329.524 304.661 329.571 304.628 329.611 304.584C329.651 304.54 329.685 304.487 329.709 304.427C329.734 304.366 329.749 304.3 329.753 304.233C329.758 304.165 329.752 304.097 329.736 304.032C329.72 303.967 329.695 303.907 329.661 303.855C329.627 303.802 329.585 303.759 329.539 303.728C329.478 303.689 328.011 302.783 325.882 304.004C325.835 304.029 325.792 304.067 325.757 304.114C325.721 304.161 325.694 304.217 325.675 304.278C325.657 304.339 325.648 304.404 325.649 304.47C325.65 304.535 325.662 304.6 325.683 304.66C325.708 304.747 325.753 304.824 325.81 304.88C325.868 304.937 325.937 304.972 326.009 304.981Z" fill="white" stroke="#263238" stroke-linecap="round" stroke-linejoin="round"/>
<path d="M325.678 303.728C325.732 303.728 325.786 303.714 325.836 303.689C327.624 302.665 328.785 303.361 328.836 303.393C328.926 303.441 329.028 303.442 329.119 303.398C329.211 303.353 329.286 303.265 329.329 303.152C329.372 303.039 329.38 302.909 329.352 302.788C329.324 302.667 329.261 302.565 329.177 302.501C329.116 302.462 327.649 301.557 325.52 302.777C325.44 302.824 325.375 302.905 325.336 303.006C325.297 303.108 325.285 303.223 325.304 303.334C325.322 303.444 325.369 303.544 325.437 303.615C325.505 303.687 325.59 303.727 325.678 303.728Z" fill="white" stroke="#263238" stroke-linecap="round" stroke-linejoin="round"/>
<path d="M325.347 302.416C325.399 302.416 325.451 302.402 325.5 302.377C327.287 301.347 328.454 302.049 328.505 302.081C328.595 302.129 328.697 302.13 328.788 302.085C328.88 302.041 328.954 301.953 328.998 301.84C329.041 301.727 329.049 301.597 329.021 301.476C328.993 301.355 328.93 301.253 328.846 301.189C328.785 301.15 327.318 300.245 325.189 301.465C325.109 301.512 325.044 301.593 325.005 301.694C324.966 301.796 324.954 301.911 324.973 302.022C324.991 302.132 325.038 302.232 325.106 302.303C325.174 302.375 325.259 302.415 325.347 302.416Z" fill="white" stroke="#263238" stroke-linecap="round" stroke-linejoin="round"/>
<path d="M328.408 295.312C328.337 294.977 328.26 294.656 328.189 294.321C327.57 291.008 327.21 287.624 327.114 284.219C325.926 262.151 324.737 240.081 323.549 218.008C323.59 218.756 306.644 218.297 305.131 218.264C301.678 218.199 301.897 219.399 301.81 223.709C301.724 228.019 301.647 232.513 301.576 236.914C301.318 253.795 301.204 270.674 301.235 287.551C301.287 288.931 301.189 290.313 300.945 291.658C300.71 292.714 300.293 293.685 300.038 294.728C299.602 296.505 299.631 298.418 300.119 300.172C302.363 300.082 304.595 300.605 306.669 301.708C307.943 298.506 308.279 294.846 308.595 291.271L313.179 239.552L319.067 283.136L320.167 291.264C320.635 294.734 321.104 298.211 321.618 301.675C323.794 300.642 326.09 300.096 328.408 300.061C329.029 298.657 328.754 296.945 328.408 295.312Z" fill="#263238" stroke="#263238" stroke-linecap="round" stroke-linejoin="round"/>
<path d="M319.591 219.839H305.641V221.78H319.591V219.839Z" fill="#575757" stroke="#263238" stroke-linecap="round" stroke-linejoin="round"/>
<path d="M323.554 219.839H320.86V221.78H323.554V219.839Z" fill="#575757" stroke="#263238" stroke-linecap="round" stroke-linejoin="round"/>
<path d="M304.373 219.839H302.233V221.78H304.373V219.839Z" fill="#575757" stroke="#263238" stroke-linecap="round" stroke-linejoin="round"/>
<path d="M314.518 220.042H311.03V221.676H314.518V220.042Z" fill="white" stroke="#263238" stroke-linecap="round" stroke-linejoin="round"/>
<path d="M297.395 184.126C297.395 184.126 290.967 212.911 290.687 213.646C290.407 214.381 292.088 214.007 293.666 214.368C295.245 214.729 297.486 213.167 297.741 212.564C297.996 211.96 300.349 202.612 300.349 202.612L297.395 184.126Z" fill="white" stroke="#263238" stroke-linecap="round" stroke-linejoin="round"/>
<path d="M297.685 193.454L297.42 192.621" stroke="#263238" stroke-linecap="round" stroke-linejoin="round"/>
<path d="M299.794 200.021L297.996 194.419" stroke="#263238" stroke-linecap="round" stroke-linejoin="round"/>
<path d="M297.532 208.765L298.042 209.238L297.532 208.765Z" fill="white"/>
<path d="M297.532 208.765L298.042 209.238" stroke="#263238" stroke-linecap="round" stroke-linejoin="round"/>
<path d="M292.785 207.467C293.475 207.125 294.183 206.849 294.904 206.64C295.629 207.06 296.313 207.588 296.941 208.214" fill="white"/>
<path d="M292.785 207.467C293.475 207.125 294.183 206.849 294.904 206.64C295.629 207.06 296.313 207.588 296.941 208.214" stroke="#263238" stroke-linecap="round" stroke-linejoin="round"/>
<path d="M327.196 182.447C327.196 182.447 334.551 207.755 334.739 208.687C334.97 209.528 335.065 210.421 335.019 211.311C334.922 212.387 333.624 213.108 333.343 213.108C333.063 213.108 331.016 211.429 330.175 210.95C329.335 210.471 326.824 208.91 326.824 208.91L325.52 203.511L327.196 182.447Z" fill="white" stroke="#263238" stroke-linecap="round" stroke-linejoin="round"/>
<path d="M327.608 190.66L327.731 190.043" stroke="#263238" stroke-linecap="round" stroke-linejoin="round"/>
<path d="M325.851 199.562L327.41 191.664" stroke="#263238" stroke-linecap="round" stroke-linejoin="round"/>
<path d="M330.359 204.075L327.354 206.496" stroke="#263238" stroke-linecap="round" stroke-linejoin="round"/>
<path d="M308.152 175.408L308.457 169.314H314.483L315.705 176.097L311.661 180.715L308.152 175.408Z" fill="white" stroke="#263238" stroke-linecap="round" stroke-linejoin="round"/>
<path d="M307.917 176.93L297.395 184.146L301.979 215.332C301.979 215.332 301.607 218.212 301.882 218.809C302.073 219.196 302.329 219.523 302.63 219.767H323.213C323.213 219.767 324.608 218.087 324.608 217.733V216.152L327.216 182.447L316.775 177.12L307.917 176.93Z" fill="white" stroke="#263238" stroke-linecap="round" stroke-linejoin="round"/>
<path d="M310.276 178.353L311.656 183.372L309.787 213.915L312.71 219.878L315.231 213.39L312.629 183.372L314.253 178.872L311.9 175.526L310.276 178.353Z" fill="#263238" stroke="#263238" stroke-linecap="round" stroke-linejoin="round"/>
<path d="M307.76 174.273L307.515 177.619L309.705 182.224L311.33 177.199L307.76 174.273Z" fill="white" stroke="#263238" stroke-linecap="round" stroke-linejoin="round"/>
<path d="M312.792 177.304L314.091 182.637L316.775 177.094L315.552 173.853L312.792 177.304Z" fill="white" stroke="#263238" stroke-linecap="round" stroke-linejoin="round"/>
<path d="M319.464 212.675L319.092 208.956L321.608 209.553L319.464 212.675Z" fill="white" stroke="#263238" stroke-linecap="round" stroke-linejoin="round"/>
<path d="M312.573 201.392C311.786 201.266 311.008 201.064 310.245 200.788C309.405 200.434 308.849 200.913 309.501 201.989C310.153 203.065 312.481 203.55 312.761 203.55C312.761 203.55 313.225 206.666 314.529 207.27C315.18 207.602 315.867 207.803 316.566 207.867C316.922 208.524 317.453 208.991 318.058 209.179C318.899 209.303 320.849 211.101 320.849 211.101L321.781 208.339L319.744 206.181L317.707 201.622L315.751 200.782L314.065 200.08L312.573 201.392Z" fill="white" stroke="#263238" stroke-linecap="round" stroke-linejoin="round"/>
<path d="M317.788 204.672L316.953 205.748C317.01 206.062 317.04 206.383 317.045 206.706C317.045 207.191 316.393 207.191 315.924 207.191C315.431 207.216 314.944 207.047 314.529 206.706C314.157 206.351 312.664 204.672 312.664 204.672L314.248 201.071L312.853 202.271C312.516 203.086 312.109 203.849 311.641 204.547C311.085 205.269 310.897 204.429 310.897 204.429C311.129 203.43 311.442 202.465 311.829 201.549C312.358 200.83 312.918 200.149 313.505 199.509C313.874 199.436 314.251 199.436 314.62 199.509C315.516 199.86 316.365 200.386 317.136 201.071C317.652 201.55 318.043 202.221 318.257 202.993C318.311 203.267 318.342 203.549 318.349 203.832" fill="white"/>
<path d="M317.788 204.672L316.953 205.748C317.01 206.062 317.04 206.383 317.045 206.706C317.045 207.191 316.393 207.191 315.924 207.191C315.431 207.216 314.944 207.047 314.529 206.706C314.157 206.351 312.664 204.672 312.664 204.672L314.248 201.071L312.853 202.271C312.516 203.086 312.109 203.849 311.641 204.547C311.085 205.269 310.897 204.429 310.897 204.429C311.129 203.43 311.442 202.465 311.829 201.549C312.358 200.83 312.918 200.149 313.505 199.509C313.874 199.436 314.251 199.436 314.62 199.509C315.516 199.86 316.365 200.386 317.136 201.071C317.652 201.55 318.043 202.221 318.257 202.993C318.311 203.267 318.342 203.549 318.349 203.832" stroke="#263238" stroke-linecap="round" stroke-linejoin="round"/>
<path d="M315.369 207.034C315.216 206.581 315.182 206.077 315.272 205.597C315.7 204.607 316.168 203.645 316.673 202.717" stroke="#263238" stroke-linecap="round" stroke-linejoin="round"/>
<path d="M314.529 206.673C314.529 206.673 314.381 206.456 314.213 206.155C314.045 205.853 314.182 205.308 314.182 204.915C314.182 204.193 315.552 201.28 315.552 201.28" stroke="#263238" stroke-linecap="round" stroke-linejoin="round"/>
<path d="M332.875 206.076C332.875 206.076 335.203 210.635 335.111 211.836C335.019 213.036 334.459 215.673 333.624 215.673C332.788 215.673 329.04 215.07 326.452 214.473C323.865 213.876 322.072 213.633 322.072 213.633L319.464 212.675L321.237 207.158L322.928 207.611C323.736 207.358 324.559 207.183 325.388 207.086C326.6 206.961 330.639 205.715 330.639 205.715" fill="white"/>
<path d="M332.875 206.076C332.875 206.076 335.203 210.635 335.111 211.836C335.019 213.036 334.459 215.673 333.624 215.673C332.788 215.673 329.04 215.07 326.452 214.473C323.865 213.876 322.072 213.633 322.072 213.633L319.464 212.675L321.237 207.158L322.928 207.611C323.736 207.358 324.559 207.183 325.388 207.086C326.6 206.961 330.639 205.715 330.639 205.715" stroke="#263238" stroke-linecap="round" stroke-linejoin="round"/>
<path d="M322.943 208.155C322.987 209.5 322.729 210.833 322.199 211.993" stroke="#263238" stroke-linecap="round" stroke-linejoin="round"/>
<path d="M291.899 209.795C291.899 209.795 290.315 214.709 290.223 215.043C290.132 215.378 290.503 217.667 291.991 217.202C293.478 216.736 301.398 215.647 302.422 215.404L305.03 214.807H307.067C307.999 214.807 310.632 214.807 311.167 214.564L313.403 213.607C313.958 213.364 315.17 212.406 315.262 212.045C315.354 211.685 314.987 211.33 314.055 211.448C313.123 211.567 310.235 211.685 310.235 211.685C310.235 211.685 312.843 210.373 313.683 209.887C314.524 209.402 314.238 208.929 314.238 208.929C313.698 208.934 313.163 209.056 312.654 209.29C312.002 209.651 305.58 210.727 305.58 210.727L304.846 209.92C305.057 209.23 305.182 208.502 305.218 207.762C305.218 206.804 304.846 206.082 304.378 206.325C303.909 206.568 303.726 208.004 303.634 208.483C303.542 208.962 303.074 210.878 303.074 210.878L302.89 211.96C302.89 211.96 299.07 211.002 297.95 210.399C296.829 209.795 294.507 208.962 294.135 209.087C293.763 209.212 293.014 210.53 292.831 211.127" fill="white"/>
<path d="M291.899 209.795C291.899 209.795 290.315 214.709 290.223 215.043C290.132 215.378 290.503 217.667 291.991 217.202C293.478 216.736 301.398 215.647 302.422 215.404L305.03 214.807H307.067C307.999 214.807 310.632 214.807 311.167 214.564L313.403 213.607C313.958 213.364 315.17 212.406 315.262 212.045C315.354 211.685 314.987 211.33 314.055 211.448C313.123 211.567 310.235 211.685 310.235 211.685C310.235 211.685 312.843 210.373 313.683 209.887C314.524 209.402 314.238 208.929 314.238 208.929C313.698 208.934 313.163 209.056 312.654 209.29C312.002 209.651 305.58 210.727 305.58 210.727L304.846 209.92C305.057 209.23 305.182 208.502 305.218 207.762C305.218 206.804 304.846 206.082 304.378 206.325C303.909 206.568 303.726 208.004 303.634 208.483C303.542 208.962 303.074 210.878 303.074 210.878L302.89 211.96C302.89 211.96 299.07 211.002 297.95 210.399C296.829 209.795 294.507 208.962 294.135 209.087C293.763 209.212 293.014 210.53 292.831 211.127" stroke="#263238" stroke-linecap="round" stroke-linejoin="round"/>
<path d="M300.216 211.514C300.216 211.514 299.595 213.272 300.344 214.394" stroke="#263238" stroke-linecap="round" stroke-linejoin="round"/>
<path d="M301.551 205.197L304.383 212.616C304.433 212.75 304.512 212.863 304.611 212.942C304.709 213.021 304.822 213.063 304.938 213.062L315.277 213.2C315.379 213.201 315.48 213.17 315.571 213.11C315.662 213.049 315.739 212.961 315.798 212.853C315.856 212.745 315.893 212.621 315.905 212.49C315.917 212.36 315.905 212.227 315.868 212.104L313.617 204.547C313.572 204.396 313.492 204.267 313.388 204.175C313.285 204.084 313.162 204.035 313.036 204.036H302.111C302.005 204.034 301.899 204.069 301.806 204.135C301.713 204.201 301.634 204.297 301.578 204.414C301.521 204.53 301.489 204.663 301.485 204.801C301.48 204.938 301.503 205.074 301.551 205.197Z" fill="#92E3A9" stroke="#263238" stroke-linecap="round" stroke-linejoin="round"/>
<path d="M314.065 211.475C313.133 211.593 310.245 211.711 310.245 211.711C310.245 211.711 312.853 210.399 313.693 209.913C314.534 209.428 314.248 208.956 314.248 208.956C313.708 208.96 313.173 209.082 312.664 209.316C312.012 209.677 305.59 210.753 305.59 210.753L304.846 209.92C305.057 209.23 305.182 208.502 305.218 207.762C305.218 206.804 304.846 206.082 304.378 206.325C303.909 206.568 303.726 208.004 303.634 208.483C303.542 208.962 303.074 210.878 303.074 210.878L302.89 211.96L301.902 211.704C301.718 212.536 301.738 213.42 301.958 214.236C302.06 214.652 302.181 215.059 302.32 215.457H302.422L305.03 214.86H307.067C307.999 214.86 310.632 214.86 311.167 214.617L313.403 213.659C313.958 213.416 315.17 212.459 315.262 212.098C315.354 211.737 314.997 211.357 314.065 211.475Z" fill="white" stroke="#263238" stroke-linecap="round" stroke-linejoin="round"/>
<path d="M314.921 212.262C314.205 212.718 313.467 213.113 312.71 213.443C312.435 213.443 309.145 213.922 309.145 213.922" stroke="#263238" stroke-linecap="round" stroke-linejoin="round"/>
<path d="M300.094 300.199C300.117 300.083 300.146 299.969 300.181 299.858C300.145 299.936 300.104 300.008 300.063 300.087L300.094 300.199Z" fill="white" stroke="#263238" stroke-linecap="round" stroke-linejoin="round"/>
<path d="M305.707 159.959C305.707 159.959 304.872 159.172 304.566 160.353C304.26 161.533 304.108 162.806 304.719 163.692C305.33 164.577 306.165 166.152 306.165 166.152L305.707 159.959Z" fill="white" stroke="#263238" stroke-linecap="round" stroke-linejoin="round"/>
<path d="M317.193 159.959C317.193 159.959 318.028 159.172 318.333 160.353C318.639 161.533 318.792 162.806 318.181 163.692C317.569 164.577 316.734 166.152 316.734 166.152L317.193 159.959Z" fill="white" stroke="#263238" stroke-linecap="round" stroke-linejoin="round"/>
<path d="M306.573 168.435C306.573 168.435 309.629 173.715 310.271 173.991C311.009 174.306 312.364 174.647 312.98 174.148C313.596 173.65 316.861 168.966 316.953 166.795C317.045 164.623 317.63 156.135 316.678 153.989C315.725 151.844 313.719 148.741 308.422 150.972C308.422 150.972 303.369 153.038 306.573 168.435Z" fill="white" stroke="#263238" stroke-linecap="round" stroke-linejoin="round"/>
<path d="M310.097 167.995C310.248 168.355 310.475 168.651 310.752 168.851C311.029 169.051 311.344 169.145 311.661 169.123C312.395 169.123 312.827 168.008 312.827 168.008" stroke="#263238" stroke-linecap="round" stroke-linejoin="round"/>
<path d="M310.765 170.494C310.765 170.494 311.274 171.288 312.614 170.494" stroke="#263238" stroke-linecap="round" stroke-linejoin="round"/>
<path d="M307.434 164.656C307.434 164.656 309.063 165.692 310.057 164.61" stroke="#263238" stroke-linecap="round" stroke-linejoin="round"/>
<path d="M313.103 164.656C314.032 164.961 315.007 164.945 315.929 164.61" stroke="#263238" stroke-linecap="round" stroke-linejoin="round"/>
<path d="M310.21 163.396C309.793 162.945 309.294 162.636 308.76 162.498C308.226 162.361 307.673 162.399 307.154 162.609" stroke="#263238" stroke-linecap="round" stroke-linejoin="round"/>
<path d="M312.878 163.396C313.381 162.966 313.962 162.712 314.564 162.66C315.167 162.608 315.769 162.76 316.311 163.101" stroke="#263238" stroke-linecap="round" stroke-linejoin="round"/>
<path d="M303.079 158.135C303.079 158.135 305.585 162.439 309.761 162.655C313.938 162.872 315.649 161.901 316.693 160.825C317.737 159.749 319.785 157.492 319.785 157.492C319.193 156.24 318.796 154.852 318.614 153.406C318.364 151.142 318.104 146.734 314.269 145.225C310.434 143.716 306.084 145.763 304.749 149.207C303.415 152.651 303.996 156.738 303.079 158.135Z" fill="white" stroke="#263238" stroke-linecap="round" stroke-linejoin="round"/>
<path d="M307.418 158.05C307.418 158.05 307.306 153.071 307.76 151.313C308.213 149.555 310.714 148.092 310.714 148.092V146.19" fill="white"/>
<path d="M307.418 158.05C307.418 158.05 307.306 153.071 307.76 151.313C308.213 149.555 310.714 148.092 310.714 148.092V146.19" stroke="#263238" stroke-linecap="round" stroke-linejoin="round"/>
<path d="M314.809 158.05C314.809 158.05 315.374 152.927 314.238 150.578C313.102 148.23 312.308 148.236 312.308 148.236V146.19" fill="white"/>
<path d="M314.809 158.05C314.809 158.05 315.374 152.927 314.238 150.578C313.102 148.23 312.308 148.236 312.308 148.236V146.19" stroke="#263238" stroke-linecap="round" stroke-linejoin="round"/>
<path d="M123.315 108.417H112.868V301.714H123.315V108.417Z" fill="#263238" stroke="#263238" stroke-linecap="round" stroke-linejoin="round"/>
<path d="M128.383 149.161H121.832C120.282 149.161 118.794 149.955 117.698 151.367C116.601 152.779 115.985 154.695 115.985 156.692V162.412C115.979 162.982 116.089 163.544 116.303 164.043C116.517 164.542 116.828 164.96 117.206 165.257C117.584 165.554 118.016 165.718 118.458 165.735C118.9 165.751 119.338 165.619 119.729 165.351L130.934 157.899V150.067L128.383 149.161Z" fill="#424242" stroke="#263238" stroke-linecap="round" stroke-linejoin="round"/>
<path d="M128.383 255.84H121.832C120.282 255.84 118.794 256.633 117.698 258.046C116.601 259.458 115.985 261.374 115.985 263.371V269.091C115.979 269.661 116.089 270.223 116.303 270.722C116.517 271.221 116.828 271.639 117.206 271.936C117.584 272.232 118.016 272.397 118.458 272.414C118.9 272.43 119.338 272.298 119.729 272.03L130.934 264.578V256.712L128.383 255.84Z" fill="#424242" stroke="#263238" stroke-linecap="round" stroke-linejoin="round"/>
<path d="M113.642 103.366H108.967V146.144H113.642V103.366Z" fill="#424242" stroke="#263238" stroke-linecap="round" stroke-linejoin="round"/>
<path d="M196.496 227.894H160.384V249.208H196.496V227.894Z" fill="#263238" stroke="#263238" stroke-linecap="round" stroke-linejoin="round"/>
<path d="M130.282 265.024L145.863 161.304C146.746 155.419 149.143 150.09 152.666 146.175C156.19 142.26 160.635 139.989 165.284 139.728L200.764 137.76C202.498 137.664 204.194 138.438 205.495 139.918C206.796 141.398 207.601 143.469 207.742 145.698L213.854 243.835" stroke="#263238" stroke-width="11" stroke-miterlimit="10"/>
<path d="M158.148 267.451L120.865 260.419V283.359L160.521 270.816L158.148 267.451Z" fill="#263238" stroke="#263238" stroke-miterlimit="10"/>
<path d="M155.464 215.371L150.253 211.501L147.539 213.2L143.123 208.936L141.381 212.603L143.123 215.05L141.381 216.073L142.328 218.697C142.328 218.697 138.371 222.161 137.423 231.542L133.308 231.338V249.936L138.539 246.859L140.439 246.453C140.439 246.453 150.574 232.998 152.948 226.471C155.321 219.944 155.464 215.371 155.464 215.371Z" fill="#263238" stroke="#263238" stroke-miterlimit="10"/>
<path d="M166.287 197.994L164.759 198.86L153.778 197.548C153.778 197.548 150.905 195.377 149.219 196.236C148.193 196.771 147.27 197.588 146.515 198.63C146.515 198.63 146.515 202.763 147.36 202.98C148.206 203.196 149.724 202.547 149.724 202.547L150.569 201.458C150.569 201.458 161.377 205.157 162.9 205.59C164.423 206.023 168.808 203.622 168.808 203.622L166.287 197.994Z" fill="white" stroke="#263238" stroke-linecap="round" stroke-linejoin="round"/>
<path d="M149.235 196.249C148.209 196.784 147.286 197.601 146.53 198.643C146.53 198.643 146.53 202.776 147.376 202.993C148.221 203.209 149.739 202.56 149.739 202.56L150.584 201.471L153.758 202.553C154.14 202.023 154.369 201.34 154.404 200.618C154.344 199.591 154.21 198.575 154.002 197.581H153.793C153.793 197.581 150.916 195.383 149.235 196.249Z" fill="#92E3A9" stroke="#263238" stroke-linecap="round" stroke-linejoin="round"/>
<path d="M150.666 197.522L149.673 197.738C149.673 197.738 148.18 199.877 148.18 200.618C148.18 201.359 149.092 201.792 149.423 201.582C149.79 201.271 150.131 200.913 150.442 200.513C150.852 200.887 151.346 201.076 151.848 201.051C152.426 201.037 152.994 200.853 153.508 200.513" stroke="#263238" stroke-miterlimit="10"/>
<path d="M174.396 187.334L165.105 196.905L168.819 203.649L174.396 198.427V187.334Z" fill="white" stroke="#263238" stroke-linecap="round" stroke-linejoin="round"/>
<path d="M165.105 196.905L168.314 205.604L170.341 202.993L167.469 194.294L165.105 196.905Z" fill="white" stroke="#263238" stroke-linecap="round" stroke-linejoin="round"/>
<path d="M174.564 180.4L172.201 194.32C172.201 194.32 173.219 205.846 173.219 208.024C173.219 210.202 172.374 214.984 172.374 214.984L172.032 216.506C172.032 216.506 172.032 224.772 174.737 225.644C177.442 226.517 180.141 227.383 183.518 227.383C186.895 227.383 189.599 225.415 190.949 222.384C192.299 219.353 192.304 212.806 192.304 210.419C192.304 208.031 189.431 189.315 188.922 184.533C188.413 179.751 183.518 176.044 182.504 175.611C181.491 175.178 174.564 180.4 174.564 180.4Z" fill="white" stroke="#263238" stroke-linecap="round" stroke-linejoin="round"/>
<path d="M170.158 160.254L169.221 162.924C169.221 162.924 166.71 165.292 167.291 165.916C167.622 166.264 167.935 166.641 168.228 167.044C168.228 167.044 167.275 172.377 167.622 172.849C167.996 173.288 168.463 173.57 168.964 173.661C169.465 173.751 169.975 173.644 170.428 173.355C170.73 173.222 171.054 173.19 171.368 173.262C171.683 173.334 171.978 173.508 172.226 173.768L174.696 179.803L182.295 173.899L181.277 168.907L183.161 165.233L170.158 160.254Z" fill="white" stroke="#263238" stroke-linecap="round" stroke-linejoin="round"/>
<path d="M181.267 168.9L183.151 165.227L172.725 161.376C172.47 161.96 172.022 163.134 172.404 163.449C172.796 163.813 173.14 164.256 173.423 164.761C173.423 164.761 173.296 166.014 173.983 165.87C174.671 165.725 175.725 163.934 176.815 164.977C177.905 166.02 177.941 167.195 177.146 168.12C176.67 168.674 176.17 169.193 175.649 169.674C175.649 169.674 179.886 173.807 181.251 173.505L182.046 173.328L181.267 168.9Z" fill="#263238" stroke="#263238" stroke-linecap="round" stroke-linejoin="round"/>
<path d="M169.002 159.257L166.221 159.788C166.221 159.788 172.715 163.068 174.589 163.036C176.464 163.003 183.757 167.897 183.757 167.897C183.757 167.897 186.854 161.993 184.526 156.745C182.199 151.497 178.155 150.119 175.124 151.497C172.094 152.874 170.52 154.245 169.002 159.257Z" fill="white" stroke="#263238" stroke-linecap="round" stroke-linejoin="round"/>
<path d="M181.995 171.669L172.873 178.845L173.214 182.545L183.345 174.936L181.995 171.669Z" fill="white" stroke="#263238" stroke-linecap="round" stroke-linejoin="round"/>
<path d="M144.849 252.363C144.849 252.363 139.466 256.24 138.513 256.647C137.561 257.054 131.383 259.094 131.551 260.524C131.719 261.954 132.182 262.354 134.714 263.148C137.245 263.942 147.854 265.391 149.281 265.188C150.707 264.985 149.123 253.97 149.123 253.97L144.849 252.363Z" fill="#263238" stroke="#263238" stroke-linecap="round" stroke-linejoin="round"/>
<path d="M134.714 263.174C137.26 263.988 147.854 265.418 149.281 265.214C149.79 265.142 149.912 263.686 149.861 261.856C141.335 263.417 134.882 261.37 131.754 259.979C131.689 260.042 131.636 260.125 131.601 260.22C131.565 260.314 131.548 260.419 131.551 260.524C131.709 261.947 132.182 262.354 134.714 263.174Z" fill="white" stroke="#263238" stroke-linecap="round" stroke-linejoin="round"/>
<path d="M185.214 220.357C185.214 220.357 178.409 216.48 177.757 215.87C177.105 215.26 157.491 217.293 155.749 218.927C154.007 220.56 140.708 250.533 140.708 250.533L149.26 257.67L162.579 231.568C162.579 231.568 167.642 231.365 168.91 230.755C170.178 230.145 177.62 228.511 177.62 228.511C177.62 228.511 185.693 229.935 187.908 228.714C190.124 227.494 187.592 222.391 187.592 222.391" fill="#92E3A9"/>
<path d="M185.214 220.357C185.214 220.357 178.409 216.48 177.757 215.87C177.105 215.26 157.491 217.293 155.749 218.927C154.007 220.56 140.708 250.533 140.708 250.533L149.26 257.67L162.579 231.568C162.579 231.568 167.642 231.365 168.91 230.755C170.178 230.145 177.62 228.511 177.62 228.511C177.62 228.511 185.693 229.935 187.908 228.714C190.124 227.494 187.592 222.391 187.592 222.391" stroke="#263238" stroke-linecap="round" stroke-linejoin="round"/>
<path d="M162.263 230.958L158.148 224.634L162.737 228.918" stroke="#263238" stroke-miterlimit="10"/>
<path d="M166.277 234.231H196.791V222.686C196.791 222.686 195.487 220.639 192.742 221.938C189.997 223.237 187.969 227.901 187.969 227.901C187.969 227.901 167.866 223.434 166.277 234.231Z" fill="#263238" stroke="#263238" stroke-linecap="round" stroke-linejoin="round"/>
<path d="M196.501 227.153H200.55L207.492 202.009L204.309 200.893L196.501 227.153Z" fill="#263238" stroke="#263238" stroke-linecap="round" stroke-linejoin="round"/>
<path d="M204.309 200.893L198.67 220.639L193.822 218.081C193.295 217.804 192.818 217.389 192.422 216.863C192.026 216.337 191.72 215.71 191.521 215.023C191.323 214.336 191.238 213.604 191.271 212.872C191.304 212.14 191.454 211.426 191.713 210.773C193.424 206.463 196.159 200.644 199.246 198.099C204.451 193.815 204.752 197.915 204.309 200.893Z" fill="#263238" stroke="#263238" stroke-linecap="round" stroke-linejoin="round"/>
<path d="M156.722 243.907L155.769 269.905L138.335 273.841C141.588 276.618 143.977 280.785 145.08 285.608C146.183 290.43 145.93 295.599 144.365 300.205H216.839C217.71 300.205 218.545 299.76 219.161 298.966C219.778 298.173 220.124 297.096 220.124 295.974V239.735C220.125 238.777 219.847 237.853 219.344 237.147C218.841 236.441 218.15 236.005 217.409 235.924C207.767 234.848 174.829 232.224 156.722 243.907Z" fill="#92E3A9" stroke="#263238" stroke-linecap="round" stroke-linejoin="round"/>
<path d="M138.534 305.001C144.273 298.341 144.733 286.951 139.563 279.56C134.392 272.169 125.548 271.576 119.81 278.235C114.071 284.895 113.611 296.285 118.782 303.676C123.952 311.067 132.796 311.66 138.534 305.001Z" fill="#263238" stroke="#263238" stroke-linecap="round" stroke-linejoin="round"/>
<path d="M133.536 297.869C136.204 294.761 136.412 289.455 133.999 286.018C131.586 282.581 127.466 282.314 124.798 285.422C122.129 288.53 121.922 293.836 124.335 297.273C126.748 300.71 130.867 300.977 133.536 297.869Z" fill="white" stroke="#263238" stroke-linecap="round" stroke-linejoin="round"/>
<path d="M217.526 306.837C220.42 303.11 220.42 297.066 217.526 293.339C214.632 289.611 209.939 289.611 207.045 293.339C204.151 297.066 204.151 303.11 207.045 306.837C209.939 310.565 214.632 310.564 217.526 306.837Z" fill="#263238" stroke="#263238" stroke-linecap="round" stroke-linejoin="round"/>
<path d="M215.733 300.087C215.733 299.207 215.531 298.347 215.151 297.616C214.771 296.884 214.232 296.314 213.6 295.977C212.969 295.641 212.274 295.553 211.604 295.725C210.934 295.898 210.319 296.322 209.836 296.945C209.354 297.567 209.025 298.36 208.892 299.224C208.76 300.087 208.829 300.981 209.091 301.794C209.353 302.606 209.797 303.301 210.365 303.788C210.934 304.276 211.602 304.536 212.285 304.535C212.738 304.535 213.187 304.42 213.606 304.196C214.024 303.973 214.405 303.645 214.725 303.232C215.045 302.819 215.299 302.328 215.472 301.789C215.645 301.249 215.734 300.671 215.733 300.087Z" fill="white" stroke="#263238" stroke-linecap="round" stroke-linejoin="round"/>
<path d="M119.77 275.481C122.429 272.909 125.654 271.493 128.979 271.438C132.304 271.384 135.556 272.693 138.265 275.177C140.974 277.66 142.999 281.19 144.047 285.254C145.095 289.318 145.112 293.707 144.095 297.785H145.114C146.121 293.468 146.044 288.852 144.894 284.595C143.745 280.338 141.581 276.656 138.711 274.076C135.842 271.496 132.413 270.148 128.914 270.225C125.415 270.301 122.024 271.799 119.225 274.503L119.77 275.481Z" fill="#92E3A9" stroke="#263238" stroke-linecap="round" stroke-linejoin="round"/>
<path d="M155.769 269.905C155.769 269.905 194.071 262.597 196.969 262.033C199.868 261.468 208.409 257.513 211.613 235.511" stroke="#263238" stroke-linecap="round" stroke-linejoin="round"/>
<path d="M67.9094 89.4521H31.3087V139.892H67.9094V89.4521Z" fill="#92E3A9" stroke="#263238" stroke-linecap="round" stroke-linejoin="round"/>
<path d="M37.5123 89.4521H34.1864V107.8H37.5123V89.4521Z" fill="#263238"/>
<path d="M104.48 89.4521H67.8789V139.892H104.48V89.4521Z" fill="#92E3A9" stroke="#263238" stroke-linecap="round" stroke-linejoin="round"/>
<path d="M74.0825 89.4521H70.7566V107.8H74.0825V89.4521Z" fill="#263238"/>
<path d="M67.9094 38.6843H31.3087V89.1242H67.9094V38.6843Z" fill="#92E3A9" stroke="#263238" stroke-linecap="round" stroke-linejoin="round"/>
<path d="M37.5123 38.6843H34.1864V57.0326H37.5123V38.6843Z" fill="#263238"/>
<path d="M104.48 38.6843H67.8789V89.1242H104.48V38.6843Z" fill="#92E3A9" stroke="#263238" stroke-linecap="round" stroke-linejoin="round"/>
<path d="M74.0825 38.6843H70.7566V57.0326H74.0825V38.6843Z" fill="#263238"/>
<path d="M108.264 146.15H29.903V148.558H108.264V146.15Z" fill="white" stroke="#263238" stroke-linecap="round" stroke-linejoin="round"/>
<path d="M108.264 137.412H29.903V139.82H108.264V137.412Z" fill="white" stroke="#263238" stroke-linecap="round" stroke-linejoin="round"/>
<path d="M37.3902 139.892H31.3087V146.006H37.3902V139.892Z" fill="white" stroke="#263238" stroke-linecap="round" stroke-linejoin="round"/>
<path d="M71.1233 139.892H65.0419V146.006H71.1233V139.892Z" fill="white" stroke="#263238" stroke-linecap="round" stroke-linejoin="round"/>
<path d="M104.851 139.892H98.7699V146.006H104.851V139.892Z" fill="white" stroke="#263238" stroke-linecap="round" stroke-linejoin="round"/>
<path d="M170.846 204.298C170.846 204.298 161.897 208.234 160.547 208.89C160.19 209.021 159.856 209.243 159.566 209.541C159.276 209.839 159.035 210.209 158.856 210.628C158.856 210.628 157.674 214.328 158.688 214.978C159.701 215.627 162.253 215.194 162.253 215.194C162.253 215.194 163.781 215.634 164.112 214.761C164.378 213.777 164.549 212.755 164.622 211.717C164.622 211.717 172.394 211.061 174.08 210.845C175.204 210.64 176.262 210.039 177.136 209.107L170.846 204.298Z" fill="white" stroke="#263238" stroke-linecap="round" stroke-linejoin="round"/>
<path d="M164.092 214.742C164.36 213.763 164.531 212.745 164.601 211.711C163.617 211.594 162.687 211.074 161.948 210.228C161.336 209.533 161.301 208.916 161.438 208.451C161.031 208.634 160.71 208.779 160.532 208.87C160.175 209.002 159.841 209.223 159.551 209.521C159.261 209.82 159.019 210.189 158.841 210.609C158.841 210.609 157.659 214.309 158.673 214.958C159.686 215.608 162.238 215.175 162.238 215.175C162.238 215.175 163.756 215.614 164.092 214.742Z" fill="#92E3A9" stroke="#263238" stroke-linecap="round" stroke-linejoin="round"/>
<path d="M178.267 181.056C178.267 181.056 176.413 183.883 175.903 186.304C175.394 188.725 174.044 197.397 174.044 197.397L172.695 200.677L170.835 204.37C171.053 205.414 171.48 206.365 172.074 207.129C172.668 207.892 173.407 208.441 174.217 208.72C177.085 209.809 177.783 210.248 178.44 209.376C179.097 208.503 182.005 201.976 182.662 198.932C183.319 195.888 186.039 187.406 186.039 187.406" fill="white"/>
<path d="M178.267 181.056C178.267 181.056 176.413 183.883 175.903 186.304C175.394 188.725 174.044 197.397 174.044 197.397L172.695 200.677L170.835 204.37C171.053 205.414 171.48 206.365 172.074 207.129C172.668 207.892 173.407 208.441 174.217 208.72C177.085 209.809 177.783 210.248 178.44 209.376C179.097 208.503 182.005 201.976 182.662 198.932C183.319 195.888 186.039 187.406 186.039 187.406" stroke="#263238" stroke-linecap="round" stroke-linejoin="round"/>
<path d="M172.705 200.605L168.819 203.649C169.182 205.214 169.754 206.685 170.51 207.998C171.691 209.966 173.566 210.825 174.075 210.825H176.443L179.143 208.857C179.143 208.857 175.43 208.201 174.248 204.921C173.066 201.641 172.705 200.605 172.705 200.605Z" fill="white" stroke="#263238" stroke-linecap="round" stroke-linejoin="round"/>
<path d="M148.965 205.262L150.865 211.79L155.927 214.847L157.669 210.976L148.965 205.262Z" fill="#263238" stroke="#263238" stroke-miterlimit="10"/>
<path d="M163.078 215.745C162.924 215.745 162.772 215.698 162.635 215.608L145.404 203.859C145.195 203.697 145.041 203.439 144.975 203.135C144.909 202.832 144.936 202.508 145.051 202.23C145.165 201.952 145.358 201.741 145.59 201.642C145.822 201.542 146.074 201.56 146.296 201.694L163.521 213.443C163.71 213.569 163.86 213.774 163.948 214.023C164.035 214.273 164.055 214.553 164.004 214.819C163.953 215.085 163.834 215.32 163.666 215.488C163.498 215.657 163.291 215.747 163.078 215.745Z" fill="#263238"/>
<path d="M29.032 309.632H367.153" stroke="#263238" stroke-linecap="round" stroke-linejoin="round"/>
<path d="M11.2053 309.632H25.4667" stroke="#263238" stroke-linecap="round" stroke-linejoin="round"/>
</svg>
