
<svg width="417" height="380" viewBox="0 0 417 380" fill="none" xmlns="http://www.w3.org/2000/svg">
<path d="M387.393 86.2371C386.07 84.2104 384.68 82.2091 383.223 80.2331C363.899 54.1271 330.631 36.2747 297.905 28.2035C283.546 24.7229 268.796 22.7618 253.945 22.3591C156.684 19.3191 117.944 89.2391 85.8019 107.228C53.6595 125.218 4.16999 156.051 7.50599 220.643C10.842 285.236 61.8995 346.043 160.804 349.843C259.708 353.643 266.305 313.044 321.524 298.019C358.07 288.078 384.074 254.501 396.75 223.47C414.081 181.169 413.264 126.244 387.393 86.2371Z" fill="#92E3A9"/>
<path opacity="0.7" d="M387.393 86.2371C386.07 84.2104 384.68 82.2091 383.223 80.2331C363.899 54.1271 330.631 36.2747 297.905 28.2035C283.546 24.7229 268.796 22.7618 253.945 22.3591C156.684 19.3191 117.944 89.2391 85.8019 107.228C53.6595 125.218 4.16999 156.051 7.50599 220.643C10.842 285.236 61.8995 346.043 160.804 349.843C259.708 353.643 266.305 313.044 321.524 298.019C358.07 288.078 384.074 254.501 396.75 223.47C414.081 181.169 413.264 126.244 387.393 86.2371Z" fill="white"/>
<path d="M365.759 92.3322V89.8318H315.002V52.759H313.35V89.8318H262.952V92.3322H313.35V126.654H262.952V129.162H313.35V163.483H262.952V165.984H313.35V202.046H315.002V165.984H365.759V163.483H315.002V129.162H365.759V126.654H315.002V92.3322H365.759Z" fill="#263238" stroke="#263238" stroke-miterlimit="10"/>
<path d="M259.474 49.7495V206.059H368.878V49.7495H259.474ZM365.184 200.777H263.169V55.0239H365.184V200.777Z" fill="#263238" stroke="#263238" stroke-miterlimit="10"/>
<path d="M211.836 246.179C211.84 246.17 211.842 246.16 211.841 246.15C211.841 246.139 211.839 246.129 211.834 246.12C211.829 246.111 211.823 246.103 211.814 246.096C211.806 246.089 211.796 246.084 211.786 246.08C211.776 246.077 211.765 246.075 211.753 246.075C211.742 246.076 211.731 246.078 211.721 246.082C211.711 246.087 211.702 246.093 211.695 246.1C211.687 246.108 211.681 246.117 211.678 246.126C209.228 251.473 207.291 257.004 205.89 262.656C204.459 268.309 203.382 274.03 202.662 279.794L202.212 284.126C202.145 284.848 202.053 285.57 201.995 286.292L201.87 288.466C201.803 289.917 201.703 291.369 201.653 292.82L201.703 297.175L201.753 299.349C201.753 300.071 201.845 300.8 201.903 301.522C202.02 302.966 202.12 304.418 202.262 305.862C202.57 308.75 203.046 311.615 203.529 314.48C203.535 314.497 203.545 314.512 203.56 314.523C203.575 314.534 203.594 314.54 203.613 314.541C203.624 314.542 203.636 314.541 203.646 314.538C203.657 314.535 203.667 314.529 203.675 314.522C203.683 314.514 203.689 314.506 203.693 314.496C203.696 314.486 203.698 314.476 203.696 314.465C203.696 313.014 203.621 311.577 203.588 310.126C203.554 308.674 203.404 307.253 203.429 305.809C203.454 304.365 203.429 302.921 203.379 301.484L203.329 299.326V297.168V292.851L203.454 288.542L203.504 286.383C203.504 285.661 203.596 284.947 203.638 284.225L203.93 279.916C204.468 274.177 205.361 268.47 206.607 262.823C207.819 257.148 209.569 251.579 211.836 246.179Z" fill="#263238"/>
<path d="M212.512 268.736C212.517 268.718 212.515 268.698 212.506 268.682C212.497 268.665 212.481 268.652 212.462 268.645C212.451 268.641 212.44 268.639 212.429 268.64C212.418 268.64 212.407 268.643 212.397 268.647C212.387 268.651 212.378 268.657 212.37 268.665C212.363 268.672 212.357 268.681 212.353 268.69C209.65 275.889 207.851 283.344 206.991 290.913C206.574 294.713 206.106 298.467 206.048 302.267C205.949 306.072 206.097 309.878 206.49 313.667C206.495 313.683 206.504 313.697 206.518 313.708C206.531 313.719 206.548 313.726 206.565 313.728C206.576 313.73 206.587 313.73 206.597 313.728C206.608 313.726 206.618 313.722 206.626 313.717C206.635 313.711 206.642 313.704 206.647 313.695C206.653 313.686 206.656 313.677 206.657 313.667C207.141 309.867 207.433 306.113 207.724 302.343C208.016 298.574 208.058 294.796 208.325 291.027C208.893 283.493 210.29 276.03 212.495 268.751L212.512 268.736Z" fill="#263238"/>
<path d="M226.239 276.678C226.224 276.664 226.203 276.656 226.181 276.656C226.159 276.656 226.138 276.664 226.122 276.678C222.69 278.686 219.599 281.142 216.948 283.966C215.617 285.394 214.417 286.919 213.362 288.526L212.628 289.796L212.045 291.118C211.849 291.552 211.682 291.996 211.544 292.448C211.394 292.904 211.227 293.345 211.094 293.801C210.046 297.41 209.411 301.108 209.201 304.836C208.996 308.545 209.146 312.262 209.651 315.947C209.656 315.964 209.667 315.979 209.682 315.99C209.697 316.001 209.715 316.007 209.734 316.008C209.745 316.009 209.756 316.008 209.766 316.005C209.776 316.002 209.785 315.997 209.793 315.991C209.801 315.984 209.807 315.976 209.811 315.968C209.816 315.959 209.818 315.949 209.818 315.94L210.869 304.942C211.153 301.304 211.663 297.683 212.395 294.097C212.503 293.649 212.645 293.223 212.77 292.782C212.882 292.342 213.022 291.909 213.187 291.483L213.679 290.214L214.313 289.013C215.268 287.412 216.367 285.887 217.599 284.453C220.048 281.539 222.951 278.966 226.214 276.815C226.228 276.809 226.24 276.8 226.249 276.79C226.258 276.779 226.264 276.766 226.267 276.752C226.269 276.739 226.268 276.725 226.263 276.712C226.258 276.699 226.25 276.687 226.239 276.678Z" fill="#263238"/>
<path d="M219.592 290.806C217.812 291.991 216.379 293.557 215.422 295.366C214.414 297.148 213.628 299.027 213.079 300.968C212.92 301.446 212.787 301.933 212.67 302.419L212.295 303.878C212.097 304.861 211.96 305.853 211.886 306.85C211.886 307.853 211.844 308.849 211.886 309.844C211.966 310.841 212.108 311.834 212.311 312.816C212.317 312.83 212.326 312.843 212.337 312.853C212.349 312.864 212.363 312.872 212.378 312.877C212.389 312.879 212.4 312.879 212.411 312.877C212.423 312.875 212.433 312.871 212.442 312.866C212.452 312.86 212.46 312.853 212.466 312.844C212.472 312.836 212.476 312.826 212.478 312.816C212.731 311.851 212.926 310.874 213.062 309.89C213.229 308.917 213.396 307.96 213.521 306.994C213.646 306.029 213.813 305.079 213.896 304.114C213.979 303.149 214.121 302.184 214.355 301.241C214.721 299.337 215.32 297.476 216.139 295.693C216.879 293.875 218.079 292.243 219.642 290.928C219.65 290.922 219.655 290.914 219.659 290.905C219.663 290.897 219.665 290.888 219.665 290.879C219.665 290.869 219.663 290.86 219.659 290.852C219.655 290.843 219.65 290.836 219.642 290.829C219.629 290.817 219.611 290.809 219.592 290.806Z" fill="#263238"/>
<path d="M200.343 301.826C199.893 296.947 199.009 292.106 198.175 287.28C197.341 282.454 196.407 277.628 195.44 272.84C194.472 268.052 193.388 263.241 192.245 258.468C192.249 258.457 192.251 258.445 192.249 258.433C192.246 258.421 192.241 258.41 192.234 258.4C192.226 258.39 192.216 258.382 192.204 258.377C192.192 258.372 192.179 258.369 192.166 258.369C192.153 258.369 192.14 258.372 192.128 258.377C192.116 258.382 192.106 258.39 192.099 258.4C192.091 258.41 192.086 258.421 192.084 258.433C192.082 258.445 192.083 258.457 192.087 258.468C193.004 263.287 193.83 268.113 194.589 272.946C195.348 277.78 196.148 282.606 196.824 287.447C197.5 292.288 197.992 297.152 198.65 301.986L200.61 316.525C200.615 316.542 200.626 316.558 200.641 316.571C200.655 316.583 200.674 316.591 200.694 316.593C200.717 316.593 200.739 316.586 200.756 316.571C200.773 316.557 200.783 316.538 200.785 316.517C200.844 315.294 200.844 314.07 200.877 312.839C200.911 311.608 200.819 310.392 200.802 309.168C200.777 306.713 200.544 304.274 200.343 301.826Z" fill="#263238"/>
<path d="M197.133 301.758C196.841 299.82 196.457 297.897 196.048 295.982L195.298 293.132C195.048 292.182 194.814 291.232 194.514 290.29C193.444 286.502 192.073 282.791 190.411 279.186L189.768 277.841L189.059 276.526C188.601 275.644 188.059 274.801 187.533 273.942C186.48 272.235 185.178 270.665 183.664 269.276C183.657 269.269 183.648 269.264 183.639 269.26C183.629 269.256 183.619 269.255 183.609 269.255C183.599 269.255 183.589 269.256 183.58 269.26C183.571 269.264 183.562 269.269 183.555 269.276C183.54 269.29 183.531 269.309 183.531 269.329C183.531 269.349 183.54 269.368 183.555 269.382C184.966 270.822 186.156 272.43 187.091 274.162C187.558 275.029 188.05 275.88 188.451 276.777L189.085 278.107L189.643 279.467C191.125 283.085 192.318 286.796 193.213 290.571C193.697 292.448 194.047 294.371 194.422 296.263L194.923 299.121C195.106 300.071 195.331 301.021 195.473 301.978C195.807 303.886 196.199 305.778 196.557 307.701C196.916 309.624 197.266 311.501 197.716 313.439C197.72 313.456 197.729 313.472 197.742 313.484C197.755 313.497 197.773 313.505 197.791 313.508C197.814 313.508 197.837 313.5 197.854 313.486C197.871 313.472 197.881 313.452 197.883 313.432C197.883 311.481 197.833 309.53 197.733 307.58C197.608 305.634 197.349 303.696 197.133 301.758Z" fill="#263238"/>
<path d="M192.696 302.009C191.703 299.44 190.552 296.932 189.301 294.477C188.04 292.023 186.614 289.643 185.031 287.348C185.027 287.338 185.02 287.329 185.011 287.321C185.003 287.313 184.992 287.307 184.981 287.304C184.969 287.3 184.957 287.299 184.945 287.3C184.933 287.301 184.921 287.304 184.911 287.31C184.901 287.316 184.892 287.323 184.885 287.332C184.878 287.341 184.873 287.352 184.871 287.363C184.869 287.374 184.87 287.385 184.873 287.395C184.876 287.406 184.882 287.416 184.889 287.424C186.266 289.807 187.484 292.264 188.534 294.781C189.618 297.274 190.602 299.812 191.42 302.381C192.237 304.95 192.862 307.572 193.613 310.156C194.364 312.74 195.039 315.347 195.915 317.961C195.92 317.976 195.93 317.989 195.943 317.999C195.957 318.008 195.973 318.014 195.99 318.014C196.013 318.015 196.035 318.007 196.052 317.993C196.069 317.979 196.08 317.959 196.082 317.938C196.113 315.211 195.834 312.489 195.248 309.814C194.628 307.154 193.775 304.544 192.696 302.009Z" fill="#263238"/>
<path d="M192.512 310.544C191.965 308.944 191.171 307.424 190.152 306.029C189.204 304.6 188.048 303.293 186.716 302.146C186.036 301.583 185.305 301.075 184.531 300.626C183.758 300.173 182.914 299.83 182.029 299.607C182.01 299.604 181.991 299.607 181.974 299.615C181.958 299.624 181.944 299.637 181.937 299.653C181.924 299.667 181.917 299.684 181.917 299.702C181.917 299.72 181.924 299.738 181.937 299.752C183.518 300.446 184.919 301.438 186.049 302.662C187.189 303.859 188.151 305.188 188.909 306.614C189.743 308.013 190.144 309.563 190.853 311.015C191.161 311.775 191.47 312.497 191.837 313.242C192.136 314.024 192.495 314.786 192.913 315.522C192.921 315.533 192.932 315.542 192.945 315.549C192.958 315.556 192.973 315.559 192.988 315.56C192.998 315.561 193.009 315.56 193.019 315.557C193.029 315.554 193.038 315.549 193.046 315.542C193.054 315.536 193.06 315.528 193.065 315.519C193.069 315.51 193.071 315.501 193.071 315.491C193.105 314.657 193.071 313.821 192.971 312.991C192.913 312.162 192.729 311.349 192.512 310.544Z" fill="#263238"/>
<path d="M192.846 265.43C190.164 264.754 187.736 263.422 185.825 261.579C183.914 259.736 182.592 257.451 182.004 254.972C179.977 246.354 186.507 250.048 180.653 236.504C174.798 222.961 176.149 219.883 178.151 215.984C180.152 212.086 181.303 213.317 183.105 218.447C184.906 223.577 191.445 231.58 193.947 246.567C196.449 261.554 192.846 265.43 192.846 265.43Z" fill="#92E3A9"/>
<path d="M210.168 250.868C210.168 250.868 204.33 249.022 204.088 238.967C203.846 228.912 208.367 230.964 209.042 218.447C209.718 205.93 210.618 197.106 213.095 196.901C215.572 196.696 222.103 203.057 224.354 217.01C226.606 230.964 221.427 240.198 216.923 244.302C212.42 248.406 210.168 250.868 210.168 250.868Z" fill="#92E3A9"/>
<path d="M189.693 277.537C189.693 277.537 188.342 270.15 185.64 266.661C182.938 263.173 177.083 260.095 173.255 253.331C169.427 246.567 165.149 243.276 165.374 252.92C165.599 262.565 170.328 267.482 176.216 270.765C182.104 274.048 189.693 277.537 189.693 277.537Z" fill="#92E3A9"/>
<path d="M187.216 290.259C187.216 290.259 181.812 280.82 173.931 273.843C166.049 266.866 159.753 263.378 161.996 266.866C164.24 270.355 166.95 270.15 170.778 276.306C174.606 282.462 173.48 286.946 178.885 290.464C184.289 293.983 187.216 290.259 187.216 290.259Z" fill="#92E3A9"/>
<path d="M186.541 302.366C186.316 301.75 186.09 297.236 178.434 293.542C170.778 289.849 163.572 291.262 164.473 293.132C165.374 295.002 170.103 298.057 174.831 299.904C179.56 301.75 186.541 302.366 186.541 302.366Z" fill="#92E3A9"/>
<path d="M209.726 277.947C209.726 277.947 206.348 274.048 208.15 265.84C209.951 257.632 213.988 259.684 218.508 255.375C223.028 251.066 222.111 250.458 226.615 245.944C231.118 241.429 235.171 238.967 236.973 240.814C238.774 242.66 236.072 248.414 233.37 251.689C230.668 254.965 226.389 256.606 224.346 260.68C222.303 264.754 223.22 271.32 218.041 274.428C212.862 277.537 209.726 277.947 209.726 277.947Z" fill="#92E3A9"/>
<path d="M221.01 280.204C221.01 280.204 229.116 271.791 234.971 265.635C240.826 259.479 243.078 254.767 243.311 258.864C243.545 262.96 245.338 266.251 240.609 271.586C235.88 276.921 221.01 280.204 221.01 280.204Z" fill="#92E3A9"/>
<path d="M216.707 293.748C216.707 293.748 216.481 290.464 229.317 282.872C242.152 275.28 247.556 273.843 246.205 276.921C244.854 279.999 239.225 283.077 233.145 288.618C227.065 294.158 216.707 293.748 216.707 293.748Z" fill="#92E3A9"/>
<path d="M193.38 264.556C193.38 264.556 190.369 249.842 187.216 239.377C184.064 228.912 182.037 222.551 182.037 222.551" stroke="#263238" stroke-linecap="round" stroke-linejoin="round"/>
<path d="M209.659 251.021C209.659 251.021 215.13 235.06 216.932 225.424C218.733 215.787 216.707 208.597 215.806 204.288" stroke="#263238" stroke-linecap="round" stroke-linejoin="round"/>
<path d="M188.984 277.233C186.559 273.432 183.783 269.827 180.686 266.456C175.732 261.136 171.904 258.248 169.652 253.126" stroke="#263238" stroke-linecap="round" stroke-linejoin="round"/>
<path d="M209.726 277.947C209.726 277.947 211.527 268.067 215.806 262.968C220.084 257.868 228.641 249.842 232.019 244.728" stroke="#263238" stroke-linecap="round" stroke-linejoin="round"/>
<path d="M185.982 302.138C185.982 302.138 178.409 297.646 173.005 295.184" stroke="#263238" stroke-linecap="round" stroke-linejoin="round"/>
<path d="M210.91 345.656H195.264L187.442 309.958H218.733L210.91 345.656Z" fill="#263238" stroke="#263238" stroke-linecap="round" stroke-linejoin="round"/>
<path d="M54.0432 345.656H408.643" stroke="#263238" stroke-miterlimit="10"/>
<path d="M26.0042 345.656H47.9967" stroke="#263238" stroke-miterlimit="10"/>
<path d="M180.261 126.92V102.98H177.884V72.3443C177.885 69.8635 177.35 67.4068 176.309 65.1146C175.268 62.8224 173.741 60.7395 171.817 58.985C169.892 57.2304 167.607 55.8386 165.092 54.889C162.577 53.9394 159.881 53.4507 157.159 53.4507H45.8033C40.3045 53.4507 35.0309 55.4413 31.1427 58.9845C27.2545 62.5277 25.0701 67.3334 25.0701 72.3443V313.591C25.0701 318.602 27.2545 323.408 31.1427 326.951C35.0309 330.494 40.3045 332.485 45.8033 332.485H157.159C159.881 332.485 162.577 331.996 165.092 331.046C167.607 330.097 169.892 328.705 171.817 326.95C173.741 325.196 175.268 323.113 176.309 320.821C177.35 318.529 177.885 316.072 177.884 313.591V147.326H180.261V133.182H177.884V126.92H180.261Z" fill="#707070" stroke="#263238" stroke-linejoin="round"/>
<path d="M153.523 329.878H49.4312C43.6073 329.878 38.0218 327.77 33.9037 324.017C29.7855 320.264 27.472 315.174 27.472 309.867V76.0682C27.472 65.0102 33.6936 56.0498 49.4312 56.0498H153.523C167.959 55.875 175.49 65.0102 175.49 76.0682V309.867C175.49 312.496 174.922 315.098 173.818 317.527C172.714 319.955 171.096 322.161 169.056 324.019C167.016 325.878 164.594 327.352 161.929 328.357C159.264 329.362 156.407 329.879 153.523 329.878Z" fill="#263238" stroke="#263238" stroke-linejoin="round"/>
<path d="M109.538 59.1279L109.496 59.2722C108.278 63.4066 105.476 66.1122 102.374 66.1122H100.589C97.4863 66.1122 94.6841 63.437 93.4664 59.2722V59.1279L50.0317 58.9911C47.6268 58.9841 45.2439 59.4095 43.0198 60.2431C40.7956 61.0767 38.7737 62.302 37.0701 63.8489C35.3664 65.3957 34.0144 67.2337 33.0916 69.2575C32.1687 71.2813 31.6931 73.4511 31.692 75.6426L31.6337 307.397C31.6337 318.197 40.9077 326.952 52.3586 326.952H150.637C162.088 326.952 171.37 318.197 171.37 307.397V73.9782C171.371 70.1773 169.726 66.5296 166.794 63.8263C163.862 61.123 159.879 59.5823 155.708 59.5382L109.538 59.1279Z" fill="white" stroke="#263238" stroke-miterlimit="10"/>
<path d="M171.354 78.1887V73.9783C171.354 70.1774 169.71 66.5297 166.778 63.8264C163.845 61.1231 159.862 59.5824 155.691 59.5383L109.538 59.1051L109.496 59.2495C108.278 63.3839 105.476 66.0895 102.374 66.0895H100.589C97.4863 66.0895 94.684 63.4143 93.4664 59.2495V59.1051L50.0317 58.9683C47.6246 58.9613 45.2398 59.3876 43.014 60.2226C40.7881 61.0576 38.7652 62.285 37.0612 63.8342C35.3572 65.3835 34.0058 67.2241 33.0844 69.2506C32.163 71.277 31.6898 73.4493 31.692 75.6427V78.1887H171.354Z" fill="#DBDBDB" stroke="#263238" stroke-miterlimit="10"/>
<path d="M102.999 58.6719C102.999 58.3199 102.884 57.9757 102.67 57.6831C102.455 57.3905 102.149 57.1626 101.792 57.0282C101.435 56.8938 101.042 56.8591 100.664 56.9283C100.285 56.9975 99.9371 57.1677 99.6645 57.4171C99.3919 57.6666 99.2067 57.9842 99.1324 58.3297C99.058 58.6751 99.0979 59.033 99.2468 59.3578C99.3958 59.6826 99.6473 59.9598 99.9693 60.1543C100.291 60.3488 100.669 60.4518 101.056 60.4503C101.312 60.4503 101.565 60.4043 101.801 60.3148C102.038 60.2254 102.252 60.0942 102.433 59.929C102.613 59.7638 102.756 59.5677 102.853 59.3519C102.951 59.1362 103 58.9051 102.999 58.6719Z" fill="#707070"/>
<path d="M45.3696 63.1862C45.3696 64.9874 43.1595 65.6334 43.1512 66.9862V67.0774H45.2946V67.6778H42.434V67.1838C42.434 65.261 44.6441 64.9038 44.6441 63.2166C44.6441 62.601 44.4189 62.2818 43.8768 62.2818C43.3347 62.2818 43.1095 62.6314 43.1095 63.1558V63.6802H42.434V63.2014C42.434 62.2894 42.8843 61.6814 43.8935 61.6814C44.9026 61.6814 45.3696 62.3198 45.3696 63.1862Z" fill="#263238"/>
<path d="M48.9475 63.1787V63.3307C48.9757 63.5908 48.9093 63.8522 48.7586 64.0746C48.608 64.2971 48.3813 64.4683 48.1135 64.5619C48.383 64.6533 48.6113 64.8241 48.7624 65.0471C48.9134 65.2701 48.9786 65.5326 48.9475 65.7931V66.2491C48.9475 67.1611 48.4805 67.7691 47.4713 67.7691C46.4622 67.7691 46.0035 67.1763 46.0035 66.2491V65.8463H46.704V66.2947C46.704 66.8267 46.9459 67.1535 47.4713 67.1535C47.9967 67.1535 48.2303 66.8343 48.2303 66.2339V65.7779C48.2303 65.1851 47.9634 64.9039 47.3963 64.8887H47.0043V64.2959H47.4296C47.5432 64.297 47.6557 64.2757 47.7593 64.2333C47.8629 64.191 47.9552 64.1286 48.0297 64.0506C48.1043 63.9725 48.1593 63.8806 48.1911 63.7812C48.2228 63.6819 48.2305 63.5774 48.2136 63.4751V63.2091C48.2136 62.5935 47.9801 62.2819 47.4546 62.2819C46.9292 62.2819 46.6874 62.6087 46.6874 63.1483V63.4523H46.0035V63.1787C46.0035 62.2743 46.4705 61.6587 47.4713 61.6587C48.4721 61.6587 48.9475 62.2743 48.9475 63.1787Z" fill="#263238"/>
<path d="M50.3569 63.6348V64.4556H49.6564V63.6348H50.3569ZM50.3569 66.8724V67.6932H49.6564V66.88L50.3569 66.8724Z" fill="#263238"/>
<path d="M51.8248 64.1666C51.9216 64.0102 52.064 63.8813 52.2362 63.7941C52.4084 63.7069 52.6038 63.6649 52.8006 63.6726C53.6346 63.6726 54.0099 64.235 54.0099 65.0862V66.249C54.0099 67.161 53.5345 67.769 52.5421 67.769C51.5496 67.769 51.0742 67.1762 51.0742 66.249V65.8538H51.7498V66.2946C51.7498 66.8266 52 67.1534 52.517 67.1534C53.0341 67.1534 53.2843 66.8266 53.2843 66.2946V65.1394C53.2843 64.5998 53.0425 64.2806 52.517 64.2806C52.4223 64.2765 52.3276 64.2899 52.2387 64.3202C52.1498 64.3504 52.0686 64.3968 52 64.4565C51.9313 64.5162 51.8767 64.5879 51.8394 64.6674C51.8022 64.747 51.783 64.8325 51.7831 64.919V65.0482H51.0992L51.2744 61.7422H53.8514V62.3198H51.9332L51.8248 64.1666Z" fill="#263238"/>
<path d="M57.6461 63.1711V63.2851H56.9622V63.1331C56.9622 62.5935 56.7204 62.2819 56.1866 62.2819C55.6528 62.2819 55.3526 62.6011 55.3526 63.2395V64.5999C55.4282 64.4041 55.5715 64.236 55.761 64.1208C55.9506 64.0057 56.176 63.9498 56.4034 63.9615C57.2374 63.9615 57.6211 64.5163 57.6211 65.3751V66.2719C57.6211 67.1839 57.129 67.7919 56.1282 67.7919C55.1274 67.7919 54.627 67.1991 54.627 66.2719V63.2319C54.627 62.2895 55.0941 61.7119 56.1282 61.7119C57.1624 61.7119 57.6461 62.2591 57.6461 63.1711ZM55.3943 65.3979V66.2947C55.3943 66.8267 55.6362 67.1535 56.1699 67.1535C56.7037 67.1535 56.9455 66.8267 56.9455 66.2947V65.3979C56.9455 64.8659 56.6953 64.5391 56.1699 64.5391C55.6445 64.5391 55.3943 64.8659 55.3943 65.3979Z" fill="#263238"/>
<path d="M128.953 63.437H127.11V67.6398H128.953V63.437Z" fill="#263238"/>
<path d="M131.413 62.5935H129.57V67.6399H131.413V62.5935Z" fill="#263238"/>
<path d="M133.874 61.9932H132.031V67.6324H133.874V61.9932Z" fill="#263238"/>
<path d="M136.326 60.9519H134.483V67.6323H136.326V60.9519Z" fill="#263238"/>
<path d="M159.152 67.5183H148.085V61.3547H159.152V67.5183ZM148.702 66.9635H158.535V61.9171H148.702V66.9635Z" fill="#263238"/>
<path d="M155.466 62.5251H149.628V66.348H155.466V62.5251Z" fill="#263238"/>
<path d="M160.161 63.7107H158.769V65.1623H160.161V63.7107Z" fill="#263238"/>
<path d="M144.032 66.1806C143.955 66.1821 143.88 66.1637 143.815 66.1274C141.563 64.9038 140.079 66.0362 140.012 66.0894C139.935 66.1586 139.832 66.1974 139.724 66.1974C139.616 66.1974 139.513 66.1586 139.436 66.0894C139.36 66.0184 139.317 65.9229 139.317 65.8234C139.317 65.724 139.36 65.6285 139.436 65.5574C139.52 65.4966 141.421 64.0374 144.207 65.5574C144.281 65.6011 144.339 65.6653 144.37 65.7407C144.402 65.8161 144.407 65.8987 144.384 65.9766C144.36 66.0545 144.311 66.1237 144.241 66.174C144.172 66.2244 144.087 66.2533 143.998 66.2566L144.032 66.1806Z" fill="#263238"/>
<path d="M144.866 64.9115C144.789 64.9129 144.714 64.8945 144.649 64.8583C141.396 63.0951 139.203 64.8051 139.186 64.8583C139.103 64.9102 139.001 64.9327 138.901 64.9214C138.8 64.9102 138.708 64.8661 138.64 64.7972C138.573 64.7284 138.535 64.6395 138.534 64.5473C138.534 64.455 138.57 64.3657 138.636 64.2959C138.636 64.2959 141.305 62.2135 145.074 64.2503C145.121 64.2753 145.162 64.3087 145.195 64.3484C145.228 64.3881 145.251 64.4333 145.265 64.4815C145.278 64.5296 145.28 64.5797 145.272 64.6287C145.264 64.6778 145.245 64.7248 145.216 64.7671C145.176 64.816 145.122 64.8549 145.061 64.8801C145 64.9053 144.933 64.9161 144.866 64.9115Z" fill="#263238"/>
<path d="M145.616 63.4446C145.543 63.445 145.471 63.4266 145.408 63.3914C141.288 61.157 138.544 63.2622 138.427 63.3914C138.389 63.4268 138.344 63.4549 138.294 63.4741C138.244 63.4933 138.19 63.5032 138.135 63.5032C138.081 63.5032 138.027 63.4933 137.977 63.4741C137.927 63.4549 137.882 63.4268 137.844 63.3914C137.808 63.3549 137.78 63.3121 137.763 63.2657C137.745 63.2192 137.738 63.1701 137.742 63.1211C137.746 63.0721 137.761 63.0244 137.785 62.9807C137.81 62.9371 137.844 62.8984 137.885 62.867C137.885 62.867 141.171 60.2982 145.833 62.8214C145.927 62.8734 145.994 62.9567 146.02 63.0534C146.047 63.15 146.03 63.2523 145.975 63.3382C145.929 63.3809 145.872 63.4128 145.81 63.4313C145.748 63.4499 145.681 63.4544 145.616 63.4446Z" fill="#263238"/>
<path d="M142.789 66.8115C142.791 67.001 142.73 67.1866 142.615 67.3444C142.5 67.5023 142.336 67.6251 142.143 67.6972C141.951 67.7693 141.74 67.7873 141.536 67.749C141.332 67.7107 141.146 67.6178 141.001 67.4821C140.855 67.3465 140.758 67.1744 140.721 66.988C140.684 66.8015 140.709 66.6092 140.793 66.4358C140.876 66.2624 141.015 66.1158 141.191 66.0148C141.367 65.9138 141.572 65.8631 141.78 65.8691C142.05 65.8751 142.307 65.977 142.495 66.1531C142.684 66.3292 142.789 66.5655 142.789 66.8115Z" fill="#263238"/>
<path d="M101.356 165.422C119.704 165.68 134.991 172.018 147.043 184.695C147.43 185.079 147.729 185.531 147.92 186.022C148.11 186.514 148.19 187.036 148.153 187.557C148.117 188.078 147.965 188.586 147.706 189.052C147.448 189.517 147.089 189.93 146.651 190.266C146.227 190.597 145.734 190.848 145.202 191.002C144.67 191.157 144.109 191.212 143.553 191.165C142.996 191.119 142.456 190.971 141.964 190.73C141.472 190.489 141.038 190.161 140.687 189.764C136.387 185.134 131.16 181.291 125.284 178.44C116.247 174.066 105.977 172.266 95.8051 173.276C85.633 174.286 76.0286 178.057 68.2379 184.102C66.0603 185.866 63.9942 187.741 62.0496 189.719C61.6867 190.119 61.2402 190.45 60.7359 190.693C60.2317 190.935 59.6797 191.084 59.112 191.13C58.5443 191.177 57.972 191.121 57.4284 190.964C56.8847 190.808 56.3805 190.555 55.9447 190.22C55.5148 189.878 55.165 189.46 54.9162 188.991C54.6674 188.522 54.5248 188.013 54.4968 187.493C54.4687 186.973 54.5559 186.453 54.7531 185.965C54.9503 185.476 55.2535 185.029 55.6445 184.65C65.2903 174.207 78.8982 167.459 93.7583 165.748C94.9593 165.604 96.1686 165.482 97.3779 165.437C98.5872 165.391 100.03 165.422 101.356 165.422Z" fill="#263238"/>
<path d="M102.874 180.918C114.467 181.192 125.392 185.698 133.932 194.727C134.325 195.106 134.629 195.555 134.823 196.045C135.018 196.535 135.1 197.057 135.064 197.577C135.028 198.098 134.875 198.606 134.614 199.07C134.354 199.534 133.991 199.944 133.548 200.275C133.121 200.613 132.623 200.869 132.083 201.026C131.544 201.182 130.976 201.238 130.412 201.188C129.849 201.138 129.303 200.984 128.807 200.736C128.31 200.488 127.875 200.15 127.527 199.743C123.245 195.021 117.484 191.6 111.014 189.939C97.578 186.626 85.902 189.65 76.1442 198.732C75.7773 199.074 75.4437 199.439 75.1017 199.789C74.7403 200.18 74.297 200.502 73.7978 200.736C73.2985 200.97 72.7532 201.112 72.1935 201.152C71.6339 201.192 71.071 201.131 70.5376 200.971C70.0042 200.811 69.511 200.557 69.0866 200.222C68.6621 199.887 68.315 199.478 68.0653 199.02C67.8156 198.562 67.6683 198.063 67.632 197.553C67.5957 197.042 67.6712 196.53 67.8539 196.046C68.0367 195.563 68.3231 195.117 68.6966 194.735C72.4668 190.66 77.1168 187.336 82.3575 184.969C88.354 182.256 94.7174 180.941 102.874 180.918Z" fill="#263238"/>
<path d="M121.939 207.336C121.943 208.118 121.685 208.883 121.201 209.529C120.717 210.175 120.029 210.671 119.229 210.953C118.417 211.246 117.525 211.3 116.678 211.106C115.831 210.913 115.072 210.482 114.508 209.874C112.748 207.98 110.533 206.48 108.036 205.489C101.081 202.798 93.408 204.44 88.2289 209.76C87.7065 210.367 86.9908 210.812 86.1801 211.034C85.3693 211.255 84.5032 211.243 83.7003 210.999C83.0348 210.809 82.4311 210.472 81.943 210.019C81.4548 209.565 81.0974 209.008 80.9026 208.398C80.7078 207.788 80.6815 207.143 80.8263 206.522C80.971 205.9 81.2821 205.321 81.732 204.835C84.1254 202.212 87.1241 200.103 90.5145 198.657C93.9048 197.211 97.6035 196.464 101.347 196.47C105.09 196.476 108.786 197.234 112.171 198.691C115.556 200.147 118.547 202.266 120.93 204.896C121.449 205.63 121.869 206.419 122.181 207.244L121.939 207.336Z" fill="#263238"/>
<path d="M101.348 227.62C99.6624 227.624 98.0136 227.173 96.6105 226.322C95.2073 225.471 94.1132 224.26 93.4667 222.842C92.8202 221.423 92.6506 219.862 92.9794 218.356C93.3082 216.849 94.1206 215.466 95.3135 214.381C96.5064 213.296 98.026 212.559 99.6796 212.262C101.333 211.965 103.046 212.123 104.601 212.715C106.156 213.307 107.484 214.306 108.414 215.586C109.345 216.867 109.838 218.37 109.829 219.906C109.831 220.921 109.612 221.925 109.186 222.863C108.76 223.8 108.135 224.651 107.347 225.368C106.559 226.085 105.623 226.653 104.594 227.039C103.564 227.426 102.461 227.623 101.348 227.62Z" fill="#263238"/>
<path d="M101.398 138.32C89.4019 138.318 77.675 141.559 67.7001 147.631C57.7253 153.703 49.9505 162.335 45.3591 172.434C40.7677 182.533 39.566 193.646 41.9059 204.367C44.2457 215.089 50.0221 224.937 58.5045 232.667C66.9868 240.397 77.7941 245.66 89.5595 247.793C101.325 249.925 113.52 248.83 124.602 244.646C135.685 240.462 145.157 233.377 151.82 224.287C158.484 215.197 162.04 204.511 162.038 193.579C162.018 178.929 155.623 164.884 144.255 154.525C132.887 144.166 117.474 138.338 101.398 138.32ZM49.0893 193.61C49.0759 184.35 52.0246 175.287 57.5745 167.53C63.1244 159.773 71.035 153.658 80.3384 149.934C89.6419 146.209 99.935 145.036 109.958 146.559C119.982 148.081 129.301 152.233 136.776 158.505L62.8753 225.819C54.0048 217.041 49.0834 205.543 49.0893 193.61ZM101.398 241.277C89.6314 241.283 78.21 237.656 68.9969 230.987L142.389 164.107C148.488 171.127 152.292 179.572 153.364 188.472C154.437 197.373 152.734 206.368 148.452 214.427C144.17 222.486 137.482 229.282 129.155 234.035C120.827 238.788 111.199 241.306 101.373 241.3L101.398 241.277Z" fill="#92E3A9"/>
<path d="M356.535 345.655H348.629L346.936 328.51H358.228L356.535 345.655Z" fill="#263238" stroke="#263238" stroke-miterlimit="10"/>
<path d="M389.461 345.655H381.555L379.862 328.51H391.154L389.461 345.655Z" fill="#263238" stroke="#263238" stroke-miterlimit="10"/>
<path d="M310.44 345.655H302.533L300.849 328.51H312.133L310.44 345.655Z" fill="#263238" stroke="#263238" stroke-miterlimit="10"/>
<path d="M275.162 345.655H267.264L265.571 328.51H276.855L275.162 345.655Z" fill="#263238" stroke="#263238" stroke-miterlimit="10"/>
<path d="M312.892 218.044H395.057C395.057 218.044 395.383 244.074 391.154 262.504C386.926 280.934 381.747 292.076 381.747 292.076H303.668C303.668 292.076 315.252 251.309 312.892 218.044Z" fill="white" stroke="#263238" stroke-miterlimit="10"/>
<path d="M346.994 222.019C339.788 221.502 336.928 220.179 331.54 217.459C324.526 213.955 323.025 216.288 323.525 219.792C324.026 223.296 316.712 246.392 315.185 258.02C313.659 269.648 314.176 275.903 314.176 275.903C314.176 275.903 309.673 279.406 312.675 280.569C314.606 281.299 316.624 281.822 318.688 282.127H376.785C376.785 282.127 387.109 233.783 388.11 226.009C389.111 218.234 384.607 217.459 382.097 218.621C379.587 219.784 379.095 220.567 375.584 220.955C367.377 221.92 356.869 222.718 346.994 222.019Z" fill="#92E3A9"/>
<path d="M328.287 222.801C329.79 221.264 330.848 219.41 331.365 217.405C330.664 217.063 330.022 216.782 329.43 216.554C329.045 218.424 328.104 220.161 326.711 221.578C325.671 222.729 324.382 223.674 322.925 224.352C322.775 225.043 322.608 225.796 322.424 226.632C324.726 225.868 326.754 224.543 328.287 222.801Z" fill="white"/>
<path d="M380.304 237.925C376.626 241.862 376.768 245.358 376.901 248.748C377.035 251.909 377.151 254.889 373.999 258.271C370.846 261.653 367.585 262.01 364.141 262.405C360.455 262.815 356.635 263.249 352.965 267.185C349.296 271.122 349.421 274.618 349.563 278C349.667 279.386 349.625 280.779 349.438 282.157H351.539C351.698 280.754 351.729 279.34 351.631 277.932C351.506 274.77 351.381 271.783 354.542 268.409C357.703 265.035 360.947 264.662 364.4 264.275C368.086 263.864 371.906 263.431 375.575 259.494C379.245 255.557 379.111 252.061 378.978 248.672C378.845 245.51 378.728 242.523 381.889 239.149C383.083 237.823 384.61 236.781 386.342 236.109C386.484 235.349 386.626 234.65 386.759 233.958C384.224 234.669 381.978 236.05 380.304 237.925Z" fill="white"/>
<path d="M321.282 281.306C324.976 280.888 328.788 280.455 332.466 276.518C336.144 272.582 336.002 269.086 335.868 265.704C335.735 262.542 335.618 259.555 338.771 256.181C341.923 252.806 345.184 252.434 348.629 252.046C352.315 251.628 356.135 251.203 359.804 247.266C363.474 243.329 363.349 239.826 363.207 236.444C363.082 233.282 362.957 230.295 366.118 226.921C369.279 223.546 372.531 223.174 375.976 222.786C379.42 222.399 382.864 222.026 386.267 218.88C385.609 218.433 384.803 218.202 383.982 218.226C382.097 219.629 379.799 220.494 377.377 220.712C376.793 220.832 376.203 220.923 375.609 220.985L373.107 221.251C369.738 221.71 366.681 223.305 364.541 225.72C360.855 229.664 360.997 233.16 361.139 236.542C361.264 239.704 361.389 242.691 358.228 246.073C355.067 249.455 351.823 249.812 348.37 250.2C344.684 250.618 340.864 251.043 337.195 254.98C333.525 258.917 333.658 262.42 333.792 265.802C333.925 268.964 334.042 271.951 330.89 275.325C327.737 278.7 324.476 279.072 321.032 279.46C318.61 279.603 316.239 280.159 314.043 281.101C315.134 281.449 316.248 281.733 317.379 281.952C318.66 281.649 319.965 281.433 321.282 281.306Z" fill="white"/>
<path d="M316.703 264.29C320.381 260.353 320.239 256.857 320.106 253.475C319.981 250.306 319.856 247.327 323.017 243.945C326.177 240.563 329.422 240.205 332.866 239.818C336.552 239.4 340.372 238.967 344.05 235.03C347.728 231.093 347.586 227.597 347.453 224.215C347.453 223.455 347.394 222.763 347.403 222.041H346.994L345.326 221.897C345.326 222.71 345.326 223.508 345.368 224.306C345.501 227.468 345.618 230.455 342.465 233.829C339.313 237.204 336.052 237.576 332.608 237.963C328.921 238.381 325.102 238.807 321.424 242.744C317.746 246.681 317.887 250.177 318.029 253.566C318.154 256.728 318.271 259.715 315.119 263.089C314.943 263.279 314.768 263.454 314.585 263.621C314.501 264.586 314.426 265.498 314.368 266.349C315.225 265.741 316.008 265.05 316.703 264.29Z" fill="white"/>
<path d="M346.994 222.019C339.788 221.502 336.928 220.179 331.54 217.459C324.526 213.955 323.025 216.288 323.525 219.792C324.026 223.296 316.712 246.392 315.185 258.02C313.659 269.648 314.176 275.903 314.176 275.903C314.176 275.903 309.673 279.406 312.675 280.569C314.606 281.299 316.624 281.822 318.688 282.127H376.785C376.785 282.127 387.109 233.783 388.11 226.009C389.111 218.234 384.607 217.459 382.097 218.621C379.587 219.784 379.095 220.567 375.584 220.955C367.377 221.92 356.869 222.718 346.994 222.019Z" stroke="#263238" stroke-miterlimit="10"/>
<path d="M312.892 218.044H308.246C307.404 218.044 306.586 218.302 305.924 218.778C305.263 219.254 304.797 219.919 304.602 220.666L298.831 242.706C297.763 246.795 294.11 258.575 290.09 260.634C287.622 261.896 284.839 262.558 282.009 262.557H264.595L272.001 331.542H303.693L312.033 221.7C312.06 221.447 312.06 221.192 312.033 220.94H312.975L312.892 218.044Z" fill="white" stroke="#263238" stroke-miterlimit="10"/>
<path d="M269.24 262.549H286.662C289.493 262.549 292.275 261.887 294.744 260.627C298.764 258.567 302.408 246.787 303.484 242.698L309.247 220.658C309.444 219.912 309.91 219.248 310.571 218.772C311.232 218.296 312.05 218.037 312.892 218.036C313.405 218.036 313.913 218.132 314.385 218.319C314.856 218.505 315.279 218.778 315.63 219.12C315.98 219.462 316.25 219.867 316.422 220.308C316.593 220.749 316.664 221.217 316.628 221.684L308.08 331.535H276.388L269.24 262.549Z" fill="white" stroke="#263238" stroke-miterlimit="10"/>
<path d="M343.641 331.573L345.451 282.157L272.801 281.572L274.62 331.573H343.641Z" fill="white" stroke="#263238" stroke-miterlimit="10"/>
<path d="M399.703 218.044H395.057C394.215 218.045 393.398 218.304 392.737 218.78C392.076 219.255 391.609 219.92 391.413 220.666L385.642 242.706C384.574 246.795 380.93 258.575 376.901 260.634C374.433 261.897 371.65 262.559 368.82 262.557H351.406L354.45 331.535H390.162L398.794 221.692C398.826 221.439 398.826 221.184 398.794 220.932H399.736L399.703 218.044Z" fill="white" stroke="#263238" stroke-miterlimit="10"/>
<path d="M356.051 262.549H373.474C376.304 262.549 379.086 261.887 381.555 260.627C385.575 258.567 389.228 246.787 390.295 242.698L396.067 220.658C396.261 219.913 396.726 219.248 397.386 218.773C398.045 218.297 398.862 218.038 399.703 218.036C400.217 218.035 400.725 218.13 401.197 218.317C401.669 218.503 402.093 218.776 402.444 219.118C402.794 219.46 403.064 219.865 403.235 220.307C403.406 220.748 403.476 221.217 403.439 221.684L394.966 329.84C394.928 330.295 394.704 330.72 394.337 331.032C393.971 331.343 393.49 331.517 392.989 331.519H358.895L356.051 262.549Z" fill="white" stroke="#263238" stroke-miterlimit="10"/>
<path d="M345.451 267.52L343.608 331.573H358.862L361.514 267.52C361.514 266.866 361.373 266.22 361.098 265.616C360.823 265.012 360.421 264.464 359.913 264.003C359.406 263.541 358.804 263.175 358.141 262.926C357.478 262.676 356.768 262.548 356.051 262.549H350.914C350.197 262.548 349.487 262.676 348.824 262.926C348.161 263.175 347.559 263.541 347.052 264.003C346.544 264.464 346.142 265.012 345.867 265.616C345.592 266.22 345.451 266.866 345.451 267.52Z" fill="white" stroke="#263238" stroke-miterlimit="10"/>
<path d="M256.822 267.52L259.441 331.573H274.695L272.876 267.52C272.876 266.202 272.302 264.937 271.279 264.005C270.256 263.073 268.869 262.549 267.422 262.549H262.285C261.568 262.548 260.858 262.676 260.195 262.926C259.532 263.175 258.93 263.541 258.422 264.003C257.915 264.464 257.513 265.012 257.238 265.616C256.963 266.22 256.822 266.866 256.822 267.52Z" fill="white" stroke="#263238" stroke-miterlimit="10"/>
<path d="M273.168 303.415H344.759" stroke="#263238" stroke-miterlimit="10"/>
<path d="M238.149 218.295C238.149 218.295 231.527 251.826 230.076 257.496C228.624 263.165 225.072 292.068 225.072 299.25C225.072 306.432 225.689 328.13 225.689 328.13C225.689 328.13 222.995 329.262 222.995 330.205C222.995 331.147 225.072 337.197 225.072 337.197L237.298 341.354C237.298 341.354 239.8 336.034 239.992 334.172C240.184 332.31 238.541 331.527 238.541 328.312C238.541 325.098 244.762 287.698 246.63 281.466C248.499 275.234 253.886 256.53 254.92 254.828C255.955 253.126 261.142 240.662 261.142 240.662L264.044 241.984C264.044 241.984 265.904 281.276 266.947 283.731C267.989 286.186 281.892 326.192 281.892 326.192C281.892 326.192 279.615 327.134 281.058 329.407C282.501 331.679 284.994 336.771 284.994 336.771C284.994 336.771 287.28 333.936 289.998 333.374C292.717 332.812 297.254 335.259 297.254 335.259C297.254 335.259 299.948 329.589 299.323 326.952C298.697 324.315 295.987 319.77 295.803 318.448C295.62 317.125 289.965 279.034 289.965 279.034C289.965 279.034 291.416 225.758 291.416 222.171C291.339 219.723 290.849 217.301 289.965 214.989C281.268 217.708 272.194 219.3 263.01 219.716C248.29 220.278 240.209 214.806 240.209 214.806L238.149 218.295Z" fill="#263238" stroke="#263238" stroke-miterlimit="10"/>
<path d="M225.105 337.219C225.105 337.219 218.258 342.881 217.015 343.641C215.773 344.401 207.066 347.441 207.274 348.961C207.483 350.481 209.776 351.416 209.776 351.416H237.974C237.974 351.416 238.174 350.656 238.591 347.069C238.79 344.743 238.364 342.408 237.348 340.267L225.105 337.219Z" fill="white" stroke="#263238" stroke-miterlimit="10"/>
<path d="M238.382 348.657L207.424 349.417C207.957 350.277 208.774 350.96 209.759 351.371H237.957C237.957 351.371 238.099 350.861 238.382 348.657Z" fill="white" stroke="#263238" stroke-miterlimit="10"/>
<path d="M285.011 336.771C285.011 336.771 284.803 341.491 284.803 343.953C284.803 346.416 284.394 349.273 284.594 349.805C284.794 350.337 285.22 351.325 285.22 351.325H301.599C301.599 351.325 302.217 349.805 301.391 346.978C300.565 344.151 299.106 342.638 298.697 340.138C298.38 338.464 297.894 336.821 297.246 335.228C297.246 335.228 289.156 329.407 285.011 336.771Z" fill="white" stroke="#263238" stroke-miterlimit="10"/>
<path d="M301.816 349.532C295.586 349.532 287.83 349.349 284.536 349.273C284.535 349.452 284.554 349.63 284.594 349.805C284.803 350.375 285.22 351.325 285.22 351.325H301.599C301.78 350.742 301.853 350.136 301.816 349.532Z" fill="white" stroke="#263238" stroke-miterlimit="10"/>
<path d="M232.269 147.166C232.269 147.166 214.655 162.237 215.422 163.643C216.189 165.049 221.01 176.457 221.01 176.457C221.01 176.457 222.394 184.057 221.627 188.852C221.158 191.885 221.002 194.951 221.16 198.01C222.779 199.87 224.757 201.444 226.998 202.654C230.401 204.349 233.028 207.305 235.196 202.517C237.365 197.729 236.431 189.134 236.431 189.134C236.431 189.134 239.358 199.561 239.85 201.4C240.342 203.239 238.182 218.302 238.182 218.302C238.182 218.302 248.807 226.48 266.88 224.626C284.953 222.771 290.682 217.026 290.682 217.026C290.682 217.026 288.823 198.573 288.823 196.46C288.805 194.999 288.702 193.541 288.514 192.09C288.514 192.09 294.852 198.01 297.946 197.729C301.041 197.448 306.445 185.896 305.052 184.049C303.659 182.202 298.872 174.739 295.937 169.389C294.167 166.164 292.694 162.811 291.533 159.364C291.533 159.364 286.429 143.587 284.861 142.462C283.293 141.337 265.929 141.512 262.835 140.813C258.75 140.08 254.619 139.572 250.467 139.293C249.433 139.278 235.672 142.234 232.269 147.166Z" fill="#92E3A9" stroke="#263238" stroke-miterlimit="10"/>
<path d="M284.227 168.256C284.144 164.213 284.127 161.067 284.127 161.067" stroke="#263238" stroke-miterlimit="10"/>
<path d="M288.564 192.09C287.384 189.898 286.353 187.641 285.478 185.333C284.861 183.654 284.536 177.657 284.361 172.041" stroke="#263238" stroke-miterlimit="10"/>
<path d="M227.624 175.408C226.047 172.9 224.846 170.939 224.696 170.544" stroke="#263238" stroke-miterlimit="10"/>
<path d="M236.447 189.134C236.447 189.134 232.494 183.054 229.175 177.855" stroke="#263238" stroke-miterlimit="10"/>
<path d="M256.538 141.246C257.175 146.204 257.228 151.211 256.697 156.18" stroke="#263238" stroke-miterlimit="10"/>
<path d="M266.938 210.763C268.798 211.105 270.791 211.417 272.918 211.668" stroke="#263238" stroke-miterlimit="10"/>
<path d="M244.479 201.674C244.479 201.674 249.483 206.674 262.827 209.882" stroke="#263238" stroke-miterlimit="10"/>
<path d="M258.081 212.374C263.812 214.718 270.041 215.873 276.321 215.756" stroke="#263238" stroke-miterlimit="10"/>
<path d="M221.143 124.343C221.143 124.343 222.995 132.232 223.153 133.927C223.312 135.622 223.771 137.871 226.089 141.246C228.408 144.62 234.429 152.091 235.672 152.517C236.914 152.942 241.702 151.81 241.702 151.81C241.702 151.81 246.797 160.968 248.19 160.687C249.583 160.405 253.136 149.978 253.603 145.753C253.897 143.651 253.948 141.526 253.753 139.414L251.593 132.377C251.593 132.377 249.741 122.497 249.741 121.813C249.741 121.129 250.817 116.037 244.796 113.924C238.774 111.811 231.343 111.644 226.398 116.88C221.452 122.117 221.143 124.343 221.143 124.343Z" fill="white" stroke="#263238" stroke-miterlimit="10"/>
<path d="M237.69 115.474C235.522 118.473 232.679 121.017 229.35 122.938C223.637 126.32 226.414 122.656 226.414 122.656C226.414 122.656 222.394 124.936 219.15 126.456C215.906 127.976 217.14 128.432 215.906 127.976C214.672 127.52 210.068 115.528 220.401 109.736C230.734 103.945 238.274 105.473 238.274 105.473C238.274 105.473 233.787 103.641 237.807 103.641C241.827 103.641 243.528 105.64 243.528 105.64C243.528 105.64 245.688 105.078 246.614 106.202C247.019 106.604 247.526 106.909 248.09 107.092C253.094 109.022 254.837 113.339 255.779 117.846C256.397 120.802 253.77 127.847 253.77 127.847L249.433 129.96C248.382 129.087 247.531 128.033 246.931 126.859C246.536 125.72 246.328 124.535 246.314 123.34C246.314 123.34 243.686 126.434 243.219 124.184C242.752 121.934 241.551 116.158 241.551 116.158C241.551 116.158 242.018 118.438 240.476 118.438C238.933 118.438 237.69 115.474 237.69 115.474Z" fill="#263238" stroke="#263238" stroke-miterlimit="10"/>
<path d="M249.116 130.963C249.116 130.963 248.966 126.175 252.06 124.625C255.154 123.074 257.314 124.769 256.38 129.276C255.446 133.783 249.891 135.47 249.891 135.47" fill="white"/>
<path d="M249.116 130.963C249.116 130.963 248.966 126.175 252.06 124.625C255.154 123.074 257.314 124.769 256.38 129.276C255.446 133.783 249.891 135.47 249.891 135.47" stroke="#263238" stroke-miterlimit="10"/>
<path d="M241.702 151.81L249.891 144.347L244.479 155.754L241.702 151.81Z" fill="#263238" stroke="#263238" stroke-miterlimit="10"/>
<path d="M237.915 144.263C238.089 144.539 238.142 144.865 238.063 145.175C237.984 145.485 237.779 145.757 237.49 145.935C236.931 146.14 236.222 145.722 235.905 145C235.588 144.278 235.78 143.526 236.331 143.321C236.881 143.115 237.59 143.541 237.915 144.263Z" fill="#263238"/>
<path d="M240.05 131.221C240.35 132.118 240.134 132.969 239.575 133.129C239.016 133.289 238.299 132.688 237.999 131.799C237.698 130.91 237.915 130.059 238.474 129.899C239.033 129.739 239.75 130.332 240.05 131.221Z" fill="#263238"/>
<path d="M229.9 132.787C230.201 133.684 229.984 134.535 229.417 134.695C228.85 134.854 228.149 134.261 227.849 133.365C227.549 132.468 227.757 131.624 228.324 131.465C228.891 131.305 229.592 131.898 229.9 132.787Z" fill="#263238"/>
<path d="M230.267 129.276C230.953 129.787 231.503 130.432 231.877 131.164C232.251 131.895 232.439 132.694 232.427 133.501C232.427 136.321 231.96 140.547 231.96 140.547L237.532 139.84" stroke="#263238" stroke-miterlimit="10"/>
<path d="M233.97 127.444C233.97 127.444 236.756 122.938 241.084 123.781" stroke="#263238" stroke-miterlimit="10"/>
<path d="M229.025 128.288C229.025 128.288 225.63 127.307 223.312 128.569" stroke="#263238" stroke-miterlimit="10"/>
<path d="M323.592 164.487C323.592 164.487 326.995 163.362 328.229 162.967C329.463 162.572 330.731 163.248 332.866 162.268C335.001 161.287 337.503 159.304 337.662 160.748C337.82 162.192 337.036 162.716 335.802 163.423C334.567 164.13 332.558 165.536 332.558 165.536L331.94 166.942L322.666 166.242C322.666 166.242 322.841 164.92 323.592 164.487Z" fill="white" stroke="#263238" stroke-miterlimit="10"/>
<path d="M342.232 168.127C342.232 168.127 346.494 165.049 347.111 163.643C347.728 162.237 346.644 162.123 345.568 162.655C344.492 163.187 341.106 165.756 341.106 165.756L342.232 168.127Z" fill="white" stroke="#263238" stroke-miterlimit="10"/>
<path d="M338.746 168.796C338.746 168.796 341.915 169.1 342.232 168.127C342.549 167.154 345.051 161.029 344.642 160.261C344.234 159.494 343.441 159.562 342.566 160.831C341.629 162.571 340.821 164.366 340.147 166.204C340.147 166.204 338.029 166.638 337.495 167.96C336.961 169.282 338.746 168.796 338.746 168.796Z" fill="white" stroke="#263238" stroke-miterlimit="10"/>
<path d="M334.743 169.556C334.743 169.556 337.687 170.688 338.304 169.837C338.921 168.986 343.249 163.757 343.091 162.936C342.933 162.115 342.165 161.956 340.931 162.936C339.48 164.353 338.136 165.859 336.911 167.443C336.911 167.443 334.743 167.306 333.817 168.431C332.891 169.556 334.743 169.556 334.743 169.556Z" fill="white" stroke="#263238" stroke-miterlimit="10"/>
<path d="M291.625 192.66C292.846 188.154 295.953 184.261 300.282 181.815C307.696 177.445 317.754 169.556 317.754 169.556C317.754 169.556 321.157 165.194 323.592 164.487C326.027 163.78 334.1 165.893 334.1 165.893C334.1 165.893 340.597 159.98 340.772 161.249C340.948 162.518 337.687 167.025 336.135 168.712C334.584 170.4 329.797 170.825 328.721 170.825C326.807 170.878 324.898 171.02 323 171.251C322.383 171.388 312.158 184.064 307.546 190.251C302.934 196.437 300.874 197.57 297.963 197.714C295.053 197.858 291.933 195.738 291.158 194.758C290.382 193.777 291.625 192.66 291.625 192.66Z" fill="white" stroke="#263238" stroke-miterlimit="10"/>
<path d="M194.964 169.343L204.705 188.601C204.855 188.876 205.099 189.098 205.4 189.235C205.701 189.372 206.042 189.417 206.373 189.361L214.455 188.001C214.679 187.961 214.891 187.877 215.075 187.754C215.259 187.631 215.411 187.472 215.52 187.288C215.628 187.105 215.691 186.902 215.703 186.694C215.715 186.486 215.676 186.278 215.589 186.086L206.832 167.291C206.706 167.013 206.483 166.781 206.199 166.629C205.914 166.477 205.583 166.413 205.256 166.447L196.173 167.367C195.933 167.393 195.703 167.471 195.502 167.594C195.301 167.717 195.134 167.882 195.016 168.074C194.899 168.267 194.832 168.482 194.823 168.703C194.814 168.923 194.862 169.143 194.964 169.343Z" fill="#263238" stroke="#263238" stroke-miterlimit="10"/>
<path d="M201.361 185.828C201.361 185.828 197.867 180.948 197.867 179.854C197.867 178.76 199.901 176.168 201.094 173.827C202.287 171.486 202.47 169.921 203.496 170.24C204.522 170.559 204.33 171.486 204.005 173.044C203.378 175.054 202.637 177.032 201.786 178.972L202.128 180.85C202.954 179.331 203.988 177.913 205.206 176.632C206.749 175.233 208.458 172.892 209.659 173.356C210.86 173.82 211.369 174.116 210.343 175.233C209.055 176.639 207.9 178.141 206.89 179.725C205.985 181.076 205.206 182.495 204.564 183.966C205.709 182.965 206.927 182.036 208.208 181.184C209.876 180.09 212.228 178.509 213.212 179.132C214.196 179.755 214.413 180.378 213.387 181.161C212.361 181.944 211.427 182.476 210.051 183.57C208.616 184.876 207.268 186.259 206.015 187.712C207.237 186.852 208.599 186.17 210.051 185.691C212.962 184.604 215.622 184.726 215.731 185.562C215.839 186.398 212.67 187.158 212.67 187.158C210.402 187.629 210.293 188.336 210.293 188.336C210.293 188.336 212.178 191.771 211.836 192.896C211.836 192.896 219.442 191.809 222.353 191.034C225.263 190.258 229.809 191.794 231.185 193.048C234.095 195.7 235.463 199.758 233.929 203.194C232.394 206.629 232.386 205.534 220.226 202.434C208.066 199.333 208.3 198.223 205.331 193.694C204.255 191.93 201.361 185.828 201.361 185.828Z" fill="white" stroke="#263238" stroke-miterlimit="10"/>
<path d="M211.886 192.865L211.628 195.723" stroke="#263238" stroke-miterlimit="10"/>
</svg>
