<svg width="377" height="356" viewBox="0 0 377 356" fill="none" xmlns="http://www.w3.org/2000/svg">
<path opacity="0.7" d="M51.2192 118.968C51.2192 118.968 30.1977 170.232 59.7394 221.852C89.2812 273.472 150.129 300.742 198.83 324.06C247.531 347.378 298.101 336.021 322.131 297.829C346.161 259.638 313.204 232.375 313.159 177.914C313.114 123.454 321.792 109.036 290.539 63.0261C259.286 17.0167 182.672 6.82796 124.734 40.9541C66.7969 75.0803 51.2192 118.968 51.2192 118.968Z" fill="white"/>
<path d="M115.121 325.177C27.5286 293.244 50.6764 248.488 34.5709 189.257C18.4655 130.025 20.2449 107.377 59.4529 66.0023C98.6609 24.628 166.37 9.29148 214.671 58.2272C262.973 107.163 307.722 102.528 335.334 138.84C362.945 175.152 357.796 218.242 307.896 248.616C257.996 278.99 223.124 364.544 115.121 325.177Z" fill="#92E3A9"/>
<path opacity="0.7" d="M115.121 325.177C27.5286 293.244 50.6764 248.488 34.5709 189.257C18.4655 130.025 20.2449 107.377 59.4529 66.0023C98.6609 24.628 166.37 9.29148 214.671 58.2272C262.973 107.163 307.722 102.528 335.334 138.84C362.945 175.152 357.796 218.242 307.896 248.616C257.996 278.99 223.124 364.544 115.121 325.177Z" fill="white"/>
<path d="M156.93 51.5632C156.93 49.3133 158.189 48.0032 160.496 48.0032C162.804 48.0032 164.055 49.2919 164.055 51.5632V58.8897C164.055 61.1467 162.796 62.4497 160.496 62.4497C158.197 62.4497 156.93 61.1609 156.93 58.8897V51.5632ZM159.275 59.0321C159.275 60.0431 159.75 60.4561 160.496 60.4561C161.243 60.4561 161.71 60.0787 161.71 59.0321V51.4208C161.71 50.4169 161.243 49.9968 160.496 49.9968C159.75 49.9968 159.275 50.3813 159.275 51.4208V59.0321Z" fill="#263238"/>
<path d="M167.81 48.1812V59.0534C167.81 60.0573 168.278 60.4204 169.024 60.4204C169.771 60.4204 170.238 60.0573 170.238 59.0534V48.1812H172.455V58.911C172.455 61.168 171.264 62.471 168.956 62.471C166.649 62.471 165.465 61.1823 165.465 58.911V48.1812H167.81Z" fill="#263238"/>
<path d="M178.954 62.2716C178.76 61.7145 178.688 61.1257 178.743 60.5415V58.3272C178.743 57.0171 178.276 56.54 177.235 56.54H176.436V62.236H174.091V48.1812H177.635C180.063 48.1812 181.103 49.2492 181.103 51.4208V52.5315C181.103 53.9555 180.613 54.9096 179.595 55.3795C180.764 55.8423 181.149 56.8889 181.149 58.3628V60.4988C181.106 61.079 181.193 61.6613 181.405 62.2076L178.954 62.2716ZM176.436 50.1961V54.5251H177.356C178.231 54.5251 178.758 54.162 178.758 53.037V51.6486C178.758 50.6376 178.396 50.2246 177.567 50.2246L176.436 50.1961Z" fill="#263238"/>
<path d="M185.25 48.1812H192.496V50.1961H190.046V62.3001H187.701V50.1961H185.25V48.1812Z" fill="#263238"/>
<path d="M195.867 54.1121H199.056V56.1271H195.836V60.2567H199.885V62.2645H193.491V48.1812H199.885V50.1961H195.836L195.867 54.1121Z" fill="#263238"/>
<path d="M208.956 62.2716H206.596L206.196 59.7156H203.316L202.909 62.2716H200.76L203.143 48.1812H206.596L208.956 62.2716ZM203.58 57.8074H205.842L204.734 50.6874H204.696L203.58 57.8074Z" fill="#263238"/>
<path d="M214.988 58.1848H215.033L216.609 48.2168H219.874V62.2716H217.657V52.1684H217.612L216.036 62.2716H213.819L212.115 52.3036H212.07V62.2716H210.027V48.1812H213.284L214.988 58.1848Z" fill="#263238"/>
<path d="M332.914 79.5662H65.4019C65.202 79.5662 65.0102 79.6412 64.8688 79.7747C64.7274 79.9082 64.6479 80.0893 64.6479 80.2782C64.6479 80.467 64.7274 80.6481 64.8688 80.7816C65.0102 80.9151 65.202 80.9902 65.4019 80.9902H332.914C333.114 80.9902 333.305 80.9151 333.447 80.7816C333.588 80.6481 333.668 80.467 333.668 80.2782C333.668 80.0893 333.588 79.9082 333.447 79.7747C333.305 79.6412 333.114 79.5662 332.914 79.5662Z" fill="#263238"/>
<path d="M332.914 85.2764H44.0864C43.8864 85.2764 43.6946 85.3514 43.5532 85.4849C43.4118 85.6184 43.3324 85.7995 43.3324 85.9884C43.3324 86.1772 43.4118 86.3583 43.5532 86.4918C43.6946 86.6254 43.8864 86.7004 44.0864 86.7004H332.914C333.114 86.7004 333.305 86.6254 333.447 86.4918C333.588 86.3583 333.668 86.1772 333.668 85.9884C333.668 85.7995 333.588 85.6184 333.447 85.4849C333.305 85.3514 333.114 85.2764 332.914 85.2764Z" fill="#263238"/>
<path d="M318.701 90.9795H44.0864C43.8814 90.9795 43.6848 91.0564 43.5399 91.1932C43.395 91.3301 43.3135 91.5157 43.3135 91.7093C43.3135 91.9028 43.395 92.0885 43.5399 92.2253C43.6848 92.3622 43.8814 92.4391 44.0864 92.4391H318.701C318.906 92.4391 319.102 92.3622 319.247 92.2253C319.392 92.0885 319.474 91.9028 319.474 91.7093C319.474 91.5157 319.392 91.3301 319.247 91.1932C319.102 91.0564 318.906 90.9795 318.701 90.9795Z" fill="#263238"/>
<path d="M332.914 100.72H65.4019C65.202 100.72 65.0102 100.795 64.8688 100.928C64.7274 101.062 64.6479 101.243 64.6479 101.432C64.6479 101.621 64.7274 101.802 64.8688 101.935C65.0102 102.069 65.202 102.144 65.4019 102.144H332.914C333.114 102.144 333.305 102.069 333.447 101.935C333.588 101.802 333.668 101.621 333.668 101.432C333.668 101.243 333.588 101.062 333.447 100.928C333.305 100.795 333.114 100.72 332.914 100.72Z" fill="#263238"/>
<path d="M332.914 106.43H44.0864C43.8814 106.43 43.6848 106.507 43.5399 106.644C43.395 106.781 43.3135 106.966 43.3135 107.16C43.3135 107.353 43.395 107.539 43.5399 107.676C43.6848 107.813 43.8814 107.89 44.0864 107.89H332.914C333.119 107.89 333.315 107.813 333.46 107.676C333.605 107.539 333.686 107.353 333.686 107.16C333.686 106.966 333.605 106.781 333.46 106.644C333.315 106.507 333.119 106.43 332.914 106.43Z" fill="#263238"/>
<path d="M290.29 112.14H44.0864C43.8814 112.14 43.6848 112.217 43.5399 112.354C43.395 112.491 43.3135 112.676 43.3135 112.87C43.3135 113.063 43.395 113.249 43.5399 113.386C43.6848 113.523 43.8814 113.6 44.0864 113.6H290.29C290.495 113.6 290.692 113.523 290.836 113.386C290.981 113.249 291.063 113.063 291.063 112.87C291.063 112.676 290.981 112.491 290.836 112.354C290.692 112.217 290.495 112.14 290.29 112.14Z" fill="#263238"/>
<path d="M61.7224 56.0914L54.4162 49.1992C54.3559 49.142 54.2842 49.0965 54.2053 49.0655C54.1264 49.0345 54.0417 49.0186 53.9562 49.0186C53.8707 49.0186 53.7861 49.0345 53.7072 49.0655C53.6282 49.0965 53.5566 49.142 53.4963 49.1992L46.19 56.0914C46.1418 56.1395 46.1094 56.1999 46.0968 56.2651C46.0842 56.3303 46.0919 56.3976 46.1191 56.4587C46.1463 56.5198 46.1917 56.5722 46.2498 56.6093C46.3079 56.6465 46.3762 56.667 46.4464 56.6681H48.256C48.36 56.6681 48.4597 56.7071 48.5332 56.7766C48.6068 56.846 48.6481 56.9402 48.6481 57.0384V61.6521C48.6481 61.7503 48.6894 61.8445 48.7629 61.9139C48.8364 61.9834 48.9362 62.0224 49.0402 62.0224H58.8422C58.9461 62.0224 59.0459 61.9834 59.1194 61.9139C59.1929 61.8445 59.2342 61.7503 59.2342 61.6521V57.0384C59.2342 56.9402 59.2755 56.846 59.3491 56.7766C59.4226 56.7071 59.5223 56.6681 59.6263 56.6681H61.4435C61.5156 56.6712 61.587 56.6539 61.6486 56.6184C61.7102 56.5829 61.7592 56.5307 61.7892 56.4687C61.8192 56.4067 61.8288 56.3377 61.8169 56.2704C61.8051 56.2032 61.7721 56.1408 61.7224 56.0914Z" stroke="#263238" stroke-miterlimit="10"/>
<path d="M330.916 57.0242V54.0195L328.525 53.8202C328.388 53.3508 328.19 52.8989 327.937 52.4745L329.445 50.7443L327.183 48.6083L325.351 50.0323C324.9 49.7967 324.422 49.6104 323.926 49.477L323.722 47.2271H320.533L320.329 49.477C319.833 49.6088 319.355 49.7952 318.904 50.0323L317.072 48.6083L314.81 50.7443L316.318 52.4745C316.063 52.8987 315.863 53.3505 315.722 53.8202L313.34 54.0195V57.0242L315.722 57.2164C315.863 57.6883 316.063 58.1425 316.318 58.5692L314.81 60.2922L317.072 62.4282L318.904 61.0042C319.355 61.2414 319.833 61.4278 320.329 61.5596L320.533 63.8095H323.722L323.926 61.5596C324.422 61.4262 324.9 61.2399 325.351 61.0042L327.183 62.4282L329.445 60.2922L327.937 58.5692C328.19 58.1423 328.388 57.688 328.525 57.2164L330.916 57.0242ZM322.169 59.0106C321.437 59.0106 320.721 58.8054 320.112 58.421C319.503 58.0365 319.028 57.4901 318.748 56.8509C318.468 56.2117 318.395 55.5084 318.539 54.8301C318.682 54.1518 319.036 53.5288 319.554 53.0402C320.073 52.5516 320.733 52.2192 321.452 52.0851C322.17 51.951 322.915 52.0213 323.591 52.287C324.268 52.5527 324.845 53.0018 325.251 53.5777C325.657 54.1535 325.873 54.8301 325.871 55.5219C325.871 55.9806 325.776 56.4349 325.589 56.8586C325.403 57.2823 325.13 57.6673 324.787 57.9913C324.443 58.3154 324.034 58.5722 323.585 58.7471C323.136 58.922 322.655 59.0116 322.169 59.0106Z" stroke="#263238" stroke-miterlimit="10"/>
<path d="M180.131 292.184L188.5 296.626L196.869 292.184" stroke="#263238" stroke-linecap="round" stroke-linejoin="round"/>
<path d="M180.131 295.537L188.5 299.98L196.869 295.537" stroke="#263238" stroke-linecap="round" stroke-linejoin="round"/>
<path d="M180.131 298.891L188.5 303.333L196.869 298.891" stroke="#263238" stroke-linecap="round" stroke-linejoin="round"/>
<path d="M279.546 307.356H44.486C44.1314 307.356 43.7911 307.224 43.5396 306.987C43.2882 306.751 43.1459 306.431 43.1439 306.096V289.784C43.1429 289.617 43.1769 289.451 43.2439 289.297C43.3109 289.142 43.4096 289.002 43.5343 288.883C43.659 288.765 43.8073 288.671 43.9706 288.607C44.134 288.543 44.3091 288.51 44.486 288.51H51.8752" stroke="#263238" stroke-linecap="round" stroke-linejoin="round"/>
<path d="M315.059 307.356H290.78" stroke="#263238" stroke-linecap="round" stroke-linejoin="round"/>
<path d="M81.9749 288.51H332.514C332.692 288.508 332.869 288.539 333.034 288.603C333.199 288.666 333.349 288.76 333.475 288.878C333.602 288.997 333.702 289.138 333.77 289.294C333.838 289.449 333.872 289.616 333.871 289.784V306.103C333.869 306.438 333.727 306.759 333.475 306.995C333.224 307.231 332.884 307.363 332.529 307.363H319.213" stroke="#263238" stroke-linecap="round" stroke-linejoin="round"/>
<path d="M57.8167 288.51H73.2134" stroke="#263238" stroke-linecap="round" stroke-linejoin="round"/>
<path d="M241.974 237.765H333.871V274.198C333.871 275.029 333.522 275.826 332.9 276.414C332.277 277.001 331.434 277.331 330.554 277.331H245.291C244.411 277.331 243.568 277.001 242.945 276.414C242.323 275.826 241.974 275.029 241.974 274.198V237.765Z" fill="#263238" stroke="#263238" stroke-linecap="round" stroke-linejoin="round"/>
<path d="M245.291 129.271H330.554C331.434 129.271 332.277 129.601 332.9 130.188C333.522 130.776 333.871 131.573 333.871 132.404V237.78H241.974V132.432C241.97 132.018 242.053 131.608 242.218 131.224C242.383 130.841 242.626 130.492 242.935 130.198C243.243 129.904 243.61 129.671 244.015 129.512C244.419 129.353 244.853 129.271 245.291 129.271Z" fill="white" stroke="#263238" stroke-linecap="round" stroke-linejoin="round"/>
<path d="M253.585 188.224C253.955 184.714 269.419 180.072 287.922 179.887C305.159 179.716 321.724 185.163 323.964 188.751C326.203 192.34 319.44 237.879 319.44 237.879H257.823C257.823 237.879 252.462 198.904 253.585 188.224Z" fill="#263238"/>
<path d="M298.999 181.403C297.931 183.195 296.37 184.68 294.481 185.702C292.592 186.723 290.446 187.243 288.269 187.206C281.943 187.206 277.336 182.03 277.336 182.03C279.561 180.143 279.696 176.654 279.365 173.913C279.206 172.565 278.929 171.231 278.535 169.926H297.445C296.292 173.486 296.337 176.063 296.782 177.843C297.445 180.464 298.999 181.403 298.999 181.403Z" fill="#BFBFBF" stroke="#263238" stroke-miterlimit="10"/>
<path d="M325.954 213.878C325.954 213.878 321.317 232.632 317.939 237.851L247.689 237.765C247.689 237.765 251.459 232.781 254.294 231.037C257.129 229.292 266.78 231.92 268.68 231.92C270.581 231.92 303.9 226.879 305.159 226.48C306.418 226.081 310.482 211.414 310.482 211.414C310.482 211.414 322.297 211.884 325.954 213.878Z" fill="#BFBFBF"/>
<mask id="mask0_493_7083" style="mask-type:luminance" maskUnits="userSpaceOnUse" x="247" y="211" width="79" height="27">
<path d="M325.954 213.878C325.954 213.878 321.317 232.632 317.939 237.851L247.689 237.765C247.689 237.765 251.459 232.781 254.294 231.037C257.129 229.292 266.78 231.92 268.68 231.92C270.581 231.92 303.9 226.879 305.159 226.48C306.418 226.081 310.482 211.414 310.482 211.414C310.482 211.414 322.297 211.884 325.954 213.878Z" fill="white"/>
</mask>
<g mask="url(#mask0_493_7083)">
<path opacity="0.15" d="M325.954 213.878C325.954 213.878 323.971 221.909 321.641 228.929C319.749 227.676 316.733 226.594 312.133 227.092C302.588 228.132 296.171 229.399 296.171 229.399C296.171 229.399 286.611 233.436 283.67 237.808L247.689 237.765C247.689 237.765 251.459 232.781 254.294 231.037C257.129 229.292 266.78 231.92 268.68 231.92C270.581 231.92 303.9 226.879 305.159 226.48C306.418 226.081 310.143 212.632 310.437 211.528C314.563 211.712 318.671 212.154 322.735 212.852C323.852 213.055 324.935 213.4 325.954 213.878Z" fill="black"/>
</g>
<path d="M325.954 213.878C325.954 213.878 321.317 232.632 317.939 237.851L247.689 237.765C247.689 237.765 251.459 232.781 254.294 231.037C257.129 229.292 266.78 231.92 268.68 231.92C270.581 231.92 303.9 226.879 305.159 226.48C306.418 226.081 310.482 211.414 310.482 211.414C310.482 211.414 322.297 211.884 325.954 213.878Z" stroke="#263238" stroke-linecap="round" stroke-linejoin="round"/>
<path d="M314.569 193.97C311.839 195.964 309.23 204.137 309.23 204.137L308.296 213.942C308.296 213.942 321.219 215.537 325.343 221.062C325.343 221.062 325.713 219.332 325.343 218.541C327.542 214.026 329.162 209.279 330.169 204.401C331.851 196.263 326.399 188.388 322.29 187.192" fill="#263238"/>
<path d="M314.569 193.97C311.839 195.964 309.23 204.138 309.23 204.138L308.296 213.942" fill="#263238"/>
<path d="M314.569 193.97C311.839 195.964 309.23 204.138 309.23 204.138L308.296 213.942" stroke="white" stroke-linecap="round" stroke-linejoin="round"/>
<path d="M319.387 211.934C320.82 211.82 324.823 213.144 325.532 214.141C326.241 215.138 326.934 216.455 325.954 217.288C326.209 217.978 326.371 218.696 326.437 219.424C326.437 220.293 325.042 220.684 325.042 220.684C325.238 221.146 325.235 221.661 325.033 222.12C324.832 222.579 324.448 222.946 323.964 223.141C323.964 223.141 324.371 224.8 322.908 225.462L322.154 224.935C322.154 224.935 317.381 225.597 315.059 224.935" fill="#BFBFBF"/>
<path d="M319.387 211.934C320.82 211.82 324.823 213.144 325.532 214.141C326.241 215.138 326.934 216.455 325.954 217.288C326.209 217.978 326.371 218.696 326.437 219.424C326.437 220.293 325.042 220.684 325.042 220.684C325.238 221.146 325.235 221.661 325.033 222.12C324.832 222.579 324.448 222.946 323.964 223.141C323.964 223.141 324.371 224.8 322.908 225.462L322.154 224.935C322.154 224.935 317.381 225.597 315.059 224.935" stroke="#263238" stroke-linecap="round" stroke-linejoin="round"/>
<path d="M319.952 217.715C320.202 217.25 320.5 216.809 320.842 216.398C321.34 215.643 319.711 214.974 320.201 214.405C321.498 212.945 320.118 212.269 320.118 212.269C319.56 210.944 310.497 213.593 309.932 212.005C309.117 209.691 314.033 205.291 311.033 202.991C310.595 202.649 310.075 205.754 306.282 208.851C304.345 210.432 304.284 214.882 300.612 216.868C296.94 218.855 289.37 221.382 281.408 222.18C276.982 222.621 269.465 224.736 269.465 224.736C269.465 224.736 269.382 219.04 267.828 215.807C266.275 212.575 255.327 210.752 255.327 210.752L251.278 218.584C251.278 218.584 255.727 233.629 257.823 237.879L274.531 237.651C278.767 236.26 282.896 234.594 286.889 232.667C292.7 229.945 298.833 227.885 305.159 226.53C307.421 226.131 316.582 225.469 317.849 224.807C318.077 224.711 318.282 224.573 318.452 224.401C318.622 224.229 318.753 224.026 318.839 223.805C318.924 223.583 318.961 223.348 318.948 223.113C318.934 222.878 318.871 222.647 318.761 222.436C318.407 221.546 319.387 220.756 319.387 220.756" fill="#BFBFBF"/>
<path d="M319.952 217.715C320.202 217.25 320.5 216.809 320.842 216.398C321.34 215.643 319.711 214.974 320.201 214.405C321.498 212.945 320.118 212.269 320.118 212.269C319.56 210.944 310.497 213.593 309.932 212.005C309.117 209.691 314.033 205.291 311.033 202.991C310.595 202.649 310.075 205.754 306.282 208.851C304.345 210.432 304.284 214.882 300.612 216.868C296.94 218.855 289.37 221.382 281.408 222.18C276.982 222.621 269.465 224.736 269.465 224.736C269.465 224.736 269.382 219.04 267.828 215.807C266.275 212.575 255.327 210.752 255.327 210.752L251.278 218.584C251.278 218.584 255.727 233.629 257.823 237.879L274.531 237.651C278.767 236.26 282.896 234.594 286.889 232.667C292.7 229.945 298.833 227.885 305.159 226.53C307.421 226.131 316.582 225.469 317.849 224.807C318.077 224.711 318.282 224.573 318.452 224.401C318.622 224.229 318.753 224.026 318.839 223.805C318.924 223.583 318.961 223.348 318.948 223.113C318.934 222.878 318.871 222.647 318.761 222.436C318.407 221.546 319.387 220.756 319.387 220.756" stroke="#263238" stroke-linecap="round" stroke-linejoin="round"/>
<path d="M325.954 217.288C325.954 217.288 324.544 215.999 324.22 215.821C323.896 215.643 321.362 215.024 321.362 215.024" stroke="#263238" stroke-linecap="round" stroke-linejoin="round"/>
<path d="M325.042 220.72C325.042 220.72 324.409 219.481 323.443 219.203C322.619 218.997 321.784 218.836 320.94 218.719" stroke="#263238" stroke-linecap="round" stroke-linejoin="round"/>
<path d="M323.964 223.162C323.964 223.162 322.531 222.322 321.92 222.016C321.29 221.787 320.626 221.652 319.952 221.617" stroke="#263238" stroke-linecap="round" stroke-linejoin="round"/>
<path d="M255.847 185.946C255.847 185.946 249.061 186.01 247.222 198.662C246.181 205.647 249.604 217.103 250.026 219.36C250.36 220.789 251.254 222.046 252.53 222.877C252.53 222.877 260.673 218.043 268.68 218.356C268.68 218.356 270.09 214.341 268.68 213.942C267.27 213.543 270.09 205.825 266.886 200.414" fill="#263238"/>
<path d="M269.397 217.01C269.397 217.01 270.799 213.002 269.397 212.603C267.994 212.204 270.799 204.486 267.602 199.075" fill="#263238"/>
<path d="M269.397 217.01C269.397 217.01 270.799 213.002 269.397 212.603C267.994 212.204 270.799 204.486 267.602 199.075" stroke="white" stroke-linecap="round" stroke-linejoin="round"/>
<path d="M296.782 177.843C283.119 181.225 280.405 173.856 280.405 173.856L279.365 173.913C279.206 172.565 278.929 171.231 278.535 169.926H297.445C296.322 173.5 296.322 176.063 296.782 177.843Z" fill="#263238"/>
<path d="M301.6 157.395C301.6 157.395 303.108 155.828 303.862 156.341C304.367 156.731 304.749 157.245 304.966 157.827C305.183 158.408 305.226 159.035 305.091 159.638C304.676 160.969 302.912 163.276 302.776 164.622C302.641 165.967 301.721 167.47 300.718 166.608C299.715 165.747 301.6 157.395 301.6 157.395Z" fill="#BFBFBF" stroke="#263238" stroke-miterlimit="10"/>
<path d="M274.456 157.395C274.456 157.395 272.948 155.828 272.194 156.341C271.689 156.731 271.307 157.245 271.09 157.827C270.873 158.408 270.83 159.035 270.965 159.638C271.372 160.969 273.144 163.276 273.28 164.622C273.416 165.967 274.335 167.47 275.338 166.608C276.341 165.747 274.456 157.395 274.456 157.395Z" fill="#BFBFBF" stroke="#263238" stroke-miterlimit="10"/>
<path d="M287.666 139.331C306.825 139.331 302.271 163.418 298.742 171.151C297.506 173.87 291.089 177.43 287.99 177.43C285.103 177.43 278.505 173.158 277.336 170.624C273.77 162.849 269.412 139.331 287.666 139.331Z" fill="#BFBFBF" stroke="#263238" stroke-miterlimit="10"/>
<path d="M290.916 154.205C290.916 154.205 295.9 152.745 297.446 155.629" stroke="#263238" stroke-linecap="round" stroke-linejoin="round"/>
<path d="M294.61 158.164C294.61 158.719 294.309 159.168 293.939 159.168C293.57 159.168 293.276 158.719 293.276 158.164C293.276 157.608 293.57 157.153 293.939 157.153C294.309 157.153 294.61 157.608 294.61 158.164Z" fill="#263238"/>
<path d="M285.065 154.205C285.065 154.205 280.081 152.745 278.535 155.629" stroke="#263238" stroke-linecap="round" stroke-linejoin="round"/>
<path d="M281.37 158.164C281.37 158.719 281.672 159.168 282.041 159.168C282.411 159.168 282.705 158.719 282.705 158.164C282.705 157.608 282.411 157.153 282.041 157.153C281.672 157.153 281.37 157.608 281.37 158.164Z" fill="#263238"/>
<path d="M295.568 145.49C290.766 146.935 285.607 146.935 280.805 145.49C280.805 145.49 278.219 145.348 277.201 146.572C276.183 147.797 277.201 151.556 277.472 153.13C277.744 154.703 275.21 155.743 275.572 159.637L274.599 160.983C274.599 160.983 271.892 154.718 272.571 149.321C273.25 143.924 276.861 141.823 276.861 141.823C276.861 141.823 278.505 137.167 288.171 137.202C298.561 137.238 299.61 142.549 299.61 142.549C299.61 142.549 306.652 146.985 301.442 161.439L300.311 159.637C300.582 157.721 300.116 155.776 298.999 154.155C298.094 152.909 299.542 149.171 299.202 147.22C298.863 145.269 295.568 145.49 295.568 145.49Z" fill="#263238"/>
<path d="M289.129 157.153C289.129 157.153 289.415 162.72 290.26 164.273C291.104 165.825 288.156 166.102 286.89 165.177" stroke="#263238" stroke-linecap="round" stroke-linejoin="round"/>
<path d="M283.798 168.153C284.069 169.059 284.709 169.827 285.578 170.289C286.889 170.823 290.856 170.602 291.61 170.154C292.364 169.705 292.733 168.267 292.733 168.267" fill="white"/>
<path d="M283.798 168.153C284.069 169.059 284.709 169.827 285.578 170.289C286.889 170.823 290.856 170.602 291.61 170.154C292.364 169.705 292.733 168.267 292.733 168.267" stroke="#263238" stroke-linecap="round" stroke-linejoin="round"/>
<path d="M283.376 168.032C283.376 168.032 287.342 169.093 293.276 168.032" stroke="#263238" stroke-linecap="round" stroke-linejoin="round"/>
<path d="M292.281 146.252C292.281 146.252 290.124 146.295 290.019 147.178C289.913 148.06 289.928 149.392 287.915 148.858C287.915 148.858 287.206 150.481 285.525 149.321C283.843 148.16 283.368 149.741 283.368 149.741C283.368 149.741 282.614 149.741 282.697 148.858C282.697 148.858 280.842 148.673 280.842 149.741C280.842 150.809 277.932 151.606 277.932 150.538C277.932 150.538 277.442 153.016 275.58 152.489C273.717 151.962 272.82 154.746 272.82 154.746C272.82 154.746 271.629 152.931 272.488 151.428C272.488 151.428 270.814 149.833 271.282 148.153C271.551 147.158 271.957 146.201 272.488 145.305C272.488 145.305 270.799 142.742 273.197 141.503C275.595 140.264 275.127 139.602 275.127 139.317C275.127 139.032 276.153 137.081 278.03 137.701C279.907 138.32 280.511 136.106 282.034 135.665C283.557 135.223 286.369 135.316 286.882 135.665C287.207 135.88 287.579 136.024 287.97 136.085C288.362 136.147 288.763 136.125 289.144 136.021C289.853 135.757 291.934 135.223 292.296 135.935C292.5 136.26 292.775 136.54 293.102 136.756C293.43 136.972 293.803 137.119 294.196 137.188C294.912 137.345 295.666 136.32 296.413 137.188C297.159 138.057 292.281 146.252 292.281 146.252Z" fill="#263238"/>
<path d="M292.281 146.252C294.309 145.853 294.897 147.178 295.085 148.153C295.274 149.128 296.955 149.321 296.955 149.321C296.955 149.321 297.898 149.919 297.898 150.189C297.898 150.46 298.365 150.011 298.365 148.95C298.365 148.95 298.788 150.716 298.999 151.692C299.072 151.972 299.211 152.234 299.407 152.456C299.602 152.679 299.849 152.856 300.127 152.976C300.406 153.095 300.71 153.153 301.016 153.145C301.322 153.137 301.623 153.064 301.894 152.93C303.357 152.311 303.214 154.262 303.214 154.262C303.594 153.992 303.867 153.61 303.99 153.176C304.113 152.743 304.079 152.283 303.892 151.87C303.892 151.87 305.204 150.011 304.646 148.416C304.088 146.822 305.581 145.319 304.179 144.258C302.776 143.197 302.889 143.375 302.784 142.671C302.678 141.966 302.912 140.898 301.902 140.634C300.891 140.371 299.587 139.88 299.587 139.331C299.587 138.783 297.996 137.452 295.282 138.42C292.567 139.388 292.281 146.252 292.281 146.252Z" fill="#263238"/>
<path d="M285.102 244.437H249.959C249.593 244.437 249.242 244.574 248.983 244.818C248.724 245.063 248.579 245.394 248.579 245.74C248.579 246.085 248.724 246.417 248.983 246.661C249.242 246.905 249.593 247.043 249.959 247.043H285.102C285.468 247.043 285.819 246.905 286.078 246.661C286.337 246.417 286.482 246.085 286.482 245.74C286.482 245.394 286.337 245.063 286.078 244.818C285.819 244.574 285.468 244.437 285.102 244.437Z" fill="white"/>
<path d="M326.482 255.138H249.355C249.15 255.138 248.954 255.215 248.809 255.352C248.664 255.489 248.583 255.674 248.583 255.868C248.583 256.062 248.664 256.247 248.809 256.384C248.954 256.521 249.15 256.598 249.355 256.598H326.482C326.687 256.598 326.884 256.521 327.029 256.384C327.173 256.247 327.255 256.062 327.255 255.868C327.255 255.674 327.173 255.489 327.029 255.352C326.884 255.215 326.687 255.138 326.482 255.138Z" fill="white"/>
<path d="M312.284 258.769H249.355C249.15 258.769 248.954 258.846 248.809 258.983C248.664 259.12 248.583 259.306 248.583 259.499C248.583 259.693 248.664 259.878 248.809 260.015C248.954 260.152 249.15 260.229 249.355 260.229H312.284C312.489 260.229 312.686 260.152 312.831 260.015C312.976 259.878 313.057 259.693 313.057 259.499C313.057 259.306 312.976 259.12 312.831 258.983C312.686 258.846 312.489 258.769 312.284 258.769Z" fill="white"/>
<path d="M269.661 249.378H249.355C249.15 249.378 248.954 249.455 248.809 249.592C248.664 249.729 248.583 249.914 248.583 250.108C248.583 250.301 248.664 250.487 248.809 250.624C248.954 250.761 249.15 250.838 249.355 250.838H269.661C269.866 250.838 270.062 250.761 270.207 250.624C270.352 250.487 270.433 250.301 270.433 250.108C270.433 249.914 270.352 249.729 270.207 249.592C270.062 249.455 269.866 249.378 269.661 249.378Z" fill="white"/>
<path d="M326.459 266.808H324.605C324.163 266.808 323.805 267.146 323.805 267.563V269.314C323.805 269.731 324.163 270.069 324.605 270.069H326.459C326.901 270.069 327.259 269.731 327.259 269.314V267.563C327.259 267.146 326.901 266.808 326.459 266.808Z" fill="white"/>
<path d="M319.357 266.808H317.502C317.06 266.808 316.703 267.146 316.703 267.563V269.314C316.703 269.731 317.06 270.069 317.502 270.069H319.357C319.798 270.069 320.156 269.731 320.156 269.314V267.563C320.156 267.146 319.798 266.808 319.357 266.808Z" fill="white"/>
<path d="M312.254 266.808H310.399C309.958 266.808 309.6 267.146 309.6 267.563V269.314C309.6 269.731 309.958 270.069 310.399 270.069H312.254C312.695 270.069 313.053 269.731 313.053 269.314V267.563C313.053 267.146 312.695 266.808 312.254 266.808Z" fill="white"/>
<path d="M142.551 237.765H234.449V274.198C234.449 275.029 234.099 275.826 233.477 276.414C232.855 277.001 232.011 277.331 231.131 277.331H145.869C144.989 277.331 144.145 277.001 143.523 276.414C142.901 275.826 142.551 275.029 142.551 274.198V237.765Z" fill="#263238" stroke="#263238" stroke-linecap="round" stroke-linejoin="round"/>
<path d="M185.68 244.437H150.536C150.17 244.437 149.819 244.574 149.56 244.818C149.302 245.063 149.156 245.394 149.156 245.74C149.156 246.085 149.302 246.417 149.56 246.661C149.819 246.905 150.17 247.043 150.536 247.043H185.68C186.046 247.043 186.397 246.905 186.656 246.661C186.914 246.417 187.06 246.085 187.06 245.74C187.06 245.394 186.914 245.063 186.656 244.818C186.397 244.574 186.046 244.437 185.68 244.437Z" fill="white"/>
<path d="M227.067 255.138H149.933C149.728 255.138 149.531 255.215 149.386 255.352C149.241 255.489 149.16 255.674 149.16 255.868C149.16 256.062 149.241 256.247 149.386 256.384C149.531 256.521 149.728 256.598 149.933 256.598H227.067C227.272 256.598 227.469 256.521 227.614 256.384C227.759 256.247 227.84 256.062 227.84 255.868C227.84 255.674 227.759 255.489 227.614 255.352C227.469 255.215 227.272 255.138 227.067 255.138Z" fill="white"/>
<path d="M212.862 258.769H149.933C149.728 258.769 149.531 258.846 149.386 258.983C149.241 259.12 149.16 259.306 149.16 259.499C149.16 259.693 149.241 259.878 149.386 260.015C149.531 260.152 149.728 260.229 149.933 260.229H212.862C213.067 260.229 213.263 260.152 213.408 260.015C213.553 259.878 213.635 259.693 213.635 259.499C213.635 259.306 213.553 259.12 213.408 258.983C213.263 258.846 213.067 258.769 212.862 258.769Z" fill="white"/>
<path d="M170.238 249.378H149.933C149.728 249.378 149.531 249.455 149.386 249.592C149.241 249.729 149.16 249.914 149.16 250.108C149.16 250.301 149.241 250.487 149.386 250.624C149.531 250.761 149.728 250.838 149.933 250.838H170.238C170.443 250.838 170.64 250.761 170.785 250.624C170.93 250.487 171.011 250.301 171.011 250.108C171.011 249.914 170.93 249.729 170.785 249.592C170.64 249.455 170.443 249.378 170.238 249.378Z" fill="white"/>
<path d="M227.037 266.808H225.182C224.741 266.808 224.383 267.146 224.383 267.563V269.314C224.383 269.731 224.741 270.069 225.182 270.069H227.037C227.478 270.069 227.836 269.731 227.836 269.314V267.563C227.836 267.146 227.478 266.808 227.037 266.808Z" fill="white"/>
<path d="M219.934 266.808H218.079C217.638 266.808 217.28 267.146 217.28 267.563V269.314C217.28 269.731 217.638 270.069 218.079 270.069H219.934C220.376 270.069 220.733 269.731 220.733 269.314V267.563C220.733 267.146 220.376 266.808 219.934 266.808Z" fill="white"/>
<path d="M212.832 266.808H210.977C210.535 266.808 210.177 267.146 210.177 267.563V269.314C210.177 269.731 210.535 270.069 210.977 270.069H212.832C213.273 270.069 213.631 269.731 213.631 269.314V267.563C213.631 267.146 213.273 266.808 212.832 266.808Z" fill="white"/>
<path d="M145.869 129.271H231.131C232.011 129.271 232.855 129.601 233.477 130.188C234.099 130.776 234.449 131.573 234.449 132.404V237.78H142.551V132.432C142.547 132.018 142.63 131.608 142.795 131.224C142.96 130.841 143.204 130.492 143.512 130.198C143.821 129.904 144.188 129.671 144.592 129.512C144.997 129.353 145.431 129.271 145.869 129.271Z" fill="white" stroke="#263238" stroke-linecap="round" stroke-linejoin="round"/>
<path d="M201.733 162.97C202.374 173.272 202.864 179.082 203.995 187.655C205.126 196.227 204.56 205.519 190.506 209.228C176.451 212.938 161.002 203.397 160.436 197.288C159.871 191.179 165.111 176.597 163.829 164.985C162.547 153.372 173.759 144.614 182.77 145.148C191.78 145.682 201.318 156.106 201.733 162.97Z" fill="#92E3A9" stroke="#263238" stroke-linecap="round" stroke-linejoin="round"/>
<path d="M194.012 177.786C194.012 177.786 193.197 188.381 196.839 195.465" stroke="#263238" stroke-linecap="round" stroke-linejoin="round"/>
<path d="M168.519 173.322C168.519 173.322 170.683 183.931 166.136 194.59" stroke="#263238" stroke-linecap="round" stroke-linejoin="round"/>
<path d="M173.857 181.987C174.101 187.109 173.745 192.24 172.794 197.288" stroke="#263238" stroke-linecap="round" stroke-linejoin="round"/>
<path d="M196.839 169.036C196.839 169.036 197.397 176.334 199.29 179.424" stroke="#263238" stroke-linecap="round" stroke-linejoin="round"/>
<path d="M234.049 232.112C233.281 230.822 232.327 229.638 231.214 228.595C228.545 226.338 218.147 199.275 212.598 195.458L207.606 220.008C208.873 222.144 212.809 227.043 212.598 228.103C212.387 229.164 214.769 230.752 214.769 230.752C213.646 232.482 215.9 237.794 215.9 237.794H234.049V232.112Z" fill="#999999"/>
<mask id="mask1_493_7083" style="mask-type:luminance" maskUnits="userSpaceOnUse" x="207" y="195" width="28" height="43">
<path d="M234.049 232.112C233.281 230.822 232.327 229.638 231.214 228.595C228.545 226.338 218.147 199.275 212.598 195.458L207.606 220.008C208.873 222.144 212.809 227.043 212.598 228.103C212.387 229.164 214.769 230.752 214.769 230.752C213.646 232.482 215.9 237.794 215.9 237.794H234.049V232.112Z" fill="white"/>
</mask>
<g mask="url(#mask1_493_7083)">
<path opacity="0.15" d="M231.968 237.765H215.9C215.9 237.765 213.638 232.454 214.769 230.724C214.769 230.724 212.394 229.136 212.598 228.075C212.801 227.014 208.858 222.101 207.606 220.008L210.087 207.804L211.527 206.345C211.527 206.345 212.854 209.513 212.605 211.443C213.455 210.677 214.034 209.682 214.264 208.595C214.264 208.595 219.143 219.688 217.944 225.533C217.944 225.533 225.559 224.059 230.588 227.854C230.588 227.854 225.476 226.872 224.36 227.854C224.36 227.84 232.322 227.982 231.968 237.765Z" fill="black"/>
</g>
<path d="M234.049 232.112C233.281 230.822 232.327 229.638 231.214 228.595C228.545 226.338 218.147 199.275 212.598 195.458L207.606 220.008C208.873 222.144 212.809 227.043 212.598 228.103C212.387 229.164 214.769 230.752 214.769 230.752C213.646 232.482 215.9 237.794 215.9 237.794H234.049V232.112Z" stroke="#263238" stroke-linecap="round" stroke-linejoin="round"/>
<path d="M200.112 191.314C200.112 191.314 188.998 197.288 183.953 197.288C178.909 197.288 164.817 191.186 164.817 191.186C169.265 190.788 174.883 188.808 175.931 186.558C176.481 185.383 176.119 181.61 175.667 178.263C175.245 175.18 174.732 172.468 174.732 172.468L191.486 174.604C191.018 177.029 190.699 179.478 190.528 181.937C190.416 183.429 190.474 184.929 190.702 186.409C191.516 190.41 200.112 191.314 200.112 191.314Z" fill="white" stroke="#263238" stroke-linecap="round" stroke-linejoin="round"/>
<path d="M214.754 198.349C214.226 194.639 205.601 192.382 205.601 192.382L201.944 190.104C201.944 190.104 189.427 195.9 184.489 196.206C179.55 196.512 164.824 190.104 164.824 190.104L161.552 192.361C161.552 192.361 152.926 193.18 150.574 196.22C148.221 199.26 159.622 237.744 159.622 237.744H205.616C206.97 232.408 208.734 227.173 210.894 222.08C213.156 216.982 208.971 213.315 212.16 204.28" fill="#999999"/>
<mask id="mask2_493_7083" style="mask-type:luminance" maskUnits="userSpaceOnUse" x="150" y="190" width="65" height="48">
<path d="M214.754 198.349C214.226 194.639 205.601 192.382 205.601 192.382L201.944 190.104C201.944 190.104 189.427 195.9 184.489 196.206C179.55 196.512 164.824 190.104 164.824 190.104L161.552 192.361C161.552 192.361 152.926 193.18 150.574 196.22C148.221 199.26 159.622 237.744 159.622 237.744H205.616C206.97 232.408 208.734 227.173 210.894 222.08C213.156 216.982 208.971 213.315 212.16 204.28" fill="white"/>
</mask>
<g mask="url(#mask2_493_7083)">
<path opacity="0.15" d="M210.871 222.101C208.711 227.195 206.947 232.43 205.593 237.765H159.599C159.599 237.765 156.681 227.897 154.11 217.758L161.401 204.828C161.401 204.828 165.593 206.964 165.171 208.865C165.171 208.865 168.73 221.354 173.827 222.208C178.924 223.062 184.881 219.033 193.084 220.414C200.971 221.745 208.164 222.692 211.497 217.637C211.681 219.151 211.466 220.685 210.871 222.101Z" fill="black"/>
</g>
<path d="M214.754 198.349C214.226 194.639 205.601 192.382 205.601 192.382L201.944 190.104C201.944 190.104 189.427 195.9 184.489 196.206C179.55 196.512 164.824 190.104 164.824 190.104L161.552 192.361C161.552 192.361 152.926 193.18 150.574 196.22C148.221 199.26 159.622 237.744 159.622 237.744H205.616C206.97 232.408 208.734 227.173 210.894 222.08C213.156 216.982 208.971 213.315 212.16 204.28" stroke="#263238" stroke-linecap="round" stroke-linejoin="round"/>
<path d="M198.822 184.878C199.8 188.203 201.009 191.464 202.441 194.639C204.804 199.678 205.465 205.282 204.334 210.688C204.334 210.688 206.769 211.4 206.905 208.253C207.041 205.106 207.848 201.432 206.068 196.241C206.068 196.241 209.016 200.328 208.33 206.971C209.347 202.788 209.085 198.418 207.576 194.369C205.08 187.341 204.613 187.206 203.09 180.442" fill="#92E3A9"/>
<path d="M198.822 184.878C199.8 188.203 201.009 191.464 202.441 194.639C204.804 199.678 205.465 205.282 204.334 210.688C204.334 210.688 206.769 211.4 206.905 208.253C207.041 205.106 207.848 201.432 206.068 196.241C206.068 196.241 209.016 200.328 208.33 206.971C209.347 202.788 209.085 198.418 207.576 194.369C205.08 187.341 204.613 187.206 203.09 180.442" stroke="#263238" stroke-linecap="round" stroke-linejoin="round"/>
<path d="M205.676 233.18C205.676 233.18 209.446 228.873 211.995 228.602C214.543 228.331 215.538 228.865 217.333 230.197L218.479 231.037C218.479 231.037 220.394 229.271 224.225 229.399C228.93 229.556 233.634 233.515 232.368 237.623H206.521L205.676 233.18Z" fill="white"/>
<mask id="mask3_493_7083" style="mask-type:luminance" maskUnits="userSpaceOnUse" x="205" y="228" width="28" height="10">
<path d="M205.676 233.18C205.676 233.18 209.446 228.873 211.995 228.602C214.543 228.331 215.538 228.865 217.333 230.197L218.479 231.037C218.479 231.037 220.394 229.271 224.225 229.399C228.93 229.556 233.634 233.515 232.368 237.623H206.521L205.676 233.18Z" fill="white"/>
</mask>
<g mask="url(#mask3_493_7083)">
<path opacity="0.15" d="M229.352 237.623H220.304C219.67 236.135 219.791 234.063 219.422 233.621C219.052 233.18 218.306 232.988 217.71 232.617C217.114 232.247 217.152 230.688 216.398 230.31C215.644 229.933 214.83 230.104 214.536 229.962C214.242 229.819 214.362 228.723 213.638 228.538C215.086 228.63 215.998 229.171 217.348 230.175L218.494 231.015C219.328 230.352 220.318 229.888 221.382 229.663C227.844 231.841 229.133 235.672 229.352 237.623Z" fill="black"/>
</g>
<path d="M205.676 233.18C205.676 233.18 209.446 228.873 211.995 228.602C214.543 228.331 215.538 228.865 217.333 230.197L218.479 231.037C218.479 231.037 220.394 229.271 224.225 229.399C228.93 229.556 233.634 233.515 232.368 237.623H206.521L205.676 233.18Z" stroke="#263238" stroke-linecap="round" stroke-linejoin="round"/>
<path d="M173.857 228.602C183.297 228.872 190.551 231.92 198.098 232.318C205.646 232.717 209.408 232.852 211.821 232.318C214.234 231.784 220.922 237.765 220.922 237.765H171.912L162.208 234.839L167.546 229.264L173.857 228.602Z" fill="white" stroke="#263238" stroke-linecap="round" stroke-linejoin="round"/>
<path d="M156.184 197.288C161.952 200.741 169.559 227.676 170.909 227.413C172.259 227.149 173.857 228.602 173.857 228.602C173.857 228.602 172.055 234.077 171.927 237.765H159.976C159.976 237.765 153.891 237.986 152.112 229.556C148.689 213.337 147.045 197.95 150.604 196.241" fill="#999999"/>
<path d="M156.184 197.288C161.952 200.741 169.559 227.676 170.909 227.413C172.259 227.149 173.857 228.602 173.857 228.602C173.857 228.602 172.055 234.077 171.927 237.765H159.976C159.976 237.765 153.891 237.986 152.112 229.556C148.689 213.337 147.045 197.95 150.604 196.241" stroke="#263238" stroke-linecap="round" stroke-linejoin="round"/>
<path d="M218.479 231.037C218.479 231.037 221.359 233.244 221.947 235.174" stroke="#263238" stroke-linecap="round" stroke-linejoin="round"/>
<path d="M209.393 232.618C209.393 232.618 212.696 231.151 213.118 231.037" stroke="#263238" stroke-linecap="round" stroke-linejoin="round"/>
<path d="M214.521 233.08L215.508 232.617" stroke="#263238" stroke-linecap="round" stroke-linejoin="round"/>
<path d="M191.516 174.618C191.048 177.043 190.729 179.492 190.558 181.952C189.021 182.846 187.212 183.232 185.416 183.048C183.606 182.878 181.867 182.292 180.351 181.342C178.836 180.391 177.59 179.104 176.722 177.594L175.697 178.263C175.275 175.18 174.762 172.468 174.762 172.468L191.516 174.618Z" fill="#263238"/>
<path d="M169.74 163.141C169.74 163.141 168.232 161.667 167.478 162.151C166.982 162.502 166.602 162.981 166.386 163.53C166.169 164.079 166.125 164.676 166.257 165.248C166.664 166.494 168.436 168.673 168.572 169.933C168.708 171.193 169.62 172.639 170.623 171.798C171.625 170.958 169.74 163.141 169.74 163.141Z" fill="white" stroke="#263238" stroke-linecap="round" stroke-linejoin="round"/>
<path d="M196.877 163.141C196.877 163.141 198.385 161.667 199.139 162.151C199.636 162.502 200.015 162.981 200.232 163.53C200.448 164.079 200.493 164.676 200.36 165.248C199.953 166.494 198.181 168.673 198.046 169.933C197.91 171.193 196.998 172.639 195.995 171.798C194.992 170.958 196.877 163.141 196.877 163.141Z" fill="white" stroke="#263238" stroke-linecap="round" stroke-linejoin="round"/>
<path d="M183.629 145.148C164.478 145.148 169.658 167.014 173.186 174.746C174.423 177.466 180.53 181.268 183.629 181.268C186.517 181.268 192.285 177.708 193.431 175.131C197.02 167.363 201.891 145.148 183.629 145.148Z" fill="white" stroke="#263238" stroke-linecap="round" stroke-linejoin="round"/>
<path d="M180.387 160.015C180.387 160.015 175.395 158.591 173.857 161.439" stroke="#263238" stroke-linecap="round" stroke-linejoin="round"/>
<path d="M177.356 164.985C177.726 164.985 178.027 164.535 178.027 163.981C178.027 163.426 177.726 162.977 177.356 162.977C176.985 162.977 176.685 163.426 176.685 163.981C176.685 164.535 176.985 164.985 177.356 164.985Z" fill="#263238"/>
<path d="M186.238 160.015C186.238 160.015 191.23 158.591 192.768 161.439" stroke="#263238" stroke-linecap="round" stroke-linejoin="round"/>
<path d="M189.262 164.985C189.632 164.985 189.933 164.535 189.933 163.981C189.933 163.426 189.632 162.977 189.262 162.977C188.891 162.977 188.59 163.426 188.59 163.981C188.59 164.535 188.891 164.985 189.262 164.985Z" fill="#263238"/>
<path d="M184.564 163.205C183.908 164.629 185.967 168.865 185.22 169.577C184.692 170.017 184.017 170.269 183.312 170.289" fill="white"/>
<path d="M184.564 163.205C183.908 164.629 185.967 168.865 185.22 169.577C184.692 170.017 184.017 170.269 183.312 170.289" stroke="#263238" stroke-linecap="round" stroke-linejoin="round"/>
<path d="M188.213 172.048C188.213 172.048 183.531 173.906 179.316 172.048H188.213Z" fill="white"/>
<path d="M188.213 172.048C188.213 172.048 183.531 173.906 179.316 172.048" stroke="#263238" stroke-linecap="round" stroke-linejoin="round"/>
<path d="M180.387 148.26C180.387 148.26 179.784 157.238 177.122 158.384C176.428 158.684 175.614 158.249 174.257 159.36C174.671 158.328 174.879 157.231 174.868 156.127C174.868 156.127 173.857 161.702 167.177 167.057C165.397 168.481 164.078 168.274 163.965 167.057C163.211 158.719 163.965 142.777 180.817 141.802C183.78 140.873 186.991 140.938 189.91 141.985C192.829 143.031 195.276 144.996 196.839 147.548C199.981 152.239 201.678 157.662 201.74 163.212C201.486 164.138 201.171 165.049 200.798 165.939C200.798 165.939 201.152 170.011 200.481 172.055C200.481 172.055 197.322 163.732 194.728 161.482C192.994 159.979 193.22 156.889 191.961 155.337C191.961 155.337 192.36 157.288 191.026 158.085C190.31 158.513 188.666 157.9 187.361 157.872C186.659 157.873 185.972 158.069 185.386 158.434C185.386 158.434 185.122 152.147 180.387 148.26Z" fill="#92E3A9"/>
<path d="M166.136 168.424C166.353 167.891 166.711 167.42 167.177 167.057C173.774 161.617 174.868 156.127 174.868 156.127C174.879 157.231 174.671 158.328 174.257 159.36C175.614 158.249 176.428 158.683 177.122 158.384C179.784 157.238 180.387 148.26 180.387 148.26C185.122 152.147 185.386 158.427 185.386 158.427C185.972 158.061 186.659 157.866 187.361 157.865C188.666 157.865 190.31 158.505 191.026 158.078C192.36 157.281 191.961 155.33 191.961 155.33C193.228 156.882 192.994 159.972 194.728 161.474C196.327 162.856 198.129 166.537 199.29 169.171" stroke="#263238" stroke-linecap="round" stroke-linejoin="round"/>
<path d="M163.822 173.322C164.026 171.851 164.142 170.37 164.168 168.887C163.181 161.346 162.66 142.856 180.817 141.831C183.78 140.902 186.991 140.966 189.91 142.013C192.829 143.06 195.276 145.025 196.839 147.576C200.175 152.569 201.879 158.378 201.74 164.28" stroke="#263238" stroke-linecap="round" stroke-linejoin="round"/>
<path d="M191.516 152.268C191.516 152.268 190.294 145.633 183.139 143.724" stroke="#263238" stroke-linecap="round" stroke-linejoin="round"/>
<path d="M195.708 148.26C198.518 152.764 199.616 158.038 198.822 163.212" stroke="#263238" stroke-linecap="round" stroke-linejoin="round"/>
<path d="M176.692 145.063C176.692 145.063 175.252 154.02 169.039 159.303" stroke="#263238" stroke-linecap="round" stroke-linejoin="round"/>
<path d="M171.671 147.754C171.671 147.754 164.885 153.643 163.776 161.845" stroke="#263238" stroke-linecap="round" stroke-linejoin="round"/>
<path d="M180.387 148.26C180.467 147.196 180.467 146.127 180.387 145.063" stroke="#263238" stroke-linecap="round" stroke-linejoin="round"/>
<path d="M163.912 202.735C163.912 202.735 166.053 207.05 164.817 210.759" stroke="#263238" stroke-linecap="round" stroke-linejoin="round"/>
<path d="M214.521 206.971C214.49 208.073 214.177 209.151 213.608 210.113C213.04 211.076 212.233 211.893 211.256 212.496" stroke="#263238" stroke-linecap="round" stroke-linejoin="round"/>
<path d="M216.398 228.602C216.398 228.602 221.028 226.245 226.125 227.427" stroke="#263238" stroke-linecap="round" stroke-linejoin="round"/>
<path d="M169.039 227.84C169.039 227.84 165.33 230.097 162.253 229.392" stroke="#263238" stroke-linecap="round" stroke-linejoin="round"/>
<path d="M43.1288 237.765H135.026V274.198C135.026 275.029 134.677 275.826 134.055 276.414C133.432 277.001 132.589 277.331 131.709 277.331H46.4464C45.5665 277.331 44.7227 277.001 44.1005 276.414C43.4783 275.826 43.1288 275.029 43.1288 274.198V237.765Z" fill="#263238" stroke="#263238" stroke-linecap="round" stroke-linejoin="round"/>
<path d="M46.4464 129.271H131.709C132.589 129.271 133.432 129.601 134.055 130.188C134.677 130.776 135.026 131.573 135.026 132.404V237.78H43.1288V132.432C43.1248 132.018 43.2077 131.608 43.3726 131.224C43.5376 130.841 43.7813 130.492 44.0898 130.198C44.3982 129.904 44.7653 129.671 45.1698 129.512C45.5743 129.353 46.0082 129.271 46.4464 129.271Z" fill="white" stroke="#263238" stroke-linecap="round" stroke-linejoin="round"/>
<path d="M49.1155 215.665C49.1155 215.665 44.2447 223.112 43.1288 224.059V233.536L60.1089 224.586L61.9185 212.895C61.9185 212.895 51.8526 212.667 49.1155 215.665Z" fill="white"/>
<mask id="mask4_493_7083" style="mask-type:luminance" maskUnits="userSpaceOnUse" x="43" y="212" width="19" height="22">
<path d="M49.1155 215.665C49.1155 215.665 44.2447 223.112 43.1288 224.059V233.536L60.1089 224.586L61.9185 212.895C61.9185 212.895 51.8526 212.667 49.1155 215.665Z" fill="white"/>
</mask>
<g mask="url(#mask4_493_7083)">
<path opacity="0.4" d="M49.1155 215.665C49.1155 215.665 44.2447 223.112 43.1288 224.059V233.536L60.1089 224.586L61.9185 212.895C61.9185 212.895 51.8526 212.667 49.1155 215.665Z" fill="#92E3A9"/>
</g>
<path d="M49.1155 215.665C49.1155 215.665 44.2447 223.112 43.1288 224.059V233.536L60.1089 224.586L61.9185 212.895C61.9185 212.895 51.8526 212.667 49.1155 215.665Z" stroke="#263238" stroke-linecap="round" stroke-linejoin="round"/>
<path d="M67.3398 185.832C59.2267 189.392 54.4388 203.269 50.6311 213.308C50.6311 213.308 48.8592 214.433 49.1231 215.636C49.1231 215.636 50.5557 214.554 54.7706 214.924C58.9854 215.295 63.517 225.398 63.517 225.398L74.7667 213.294" fill="#92E3A9"/>
<mask id="mask5_493_7083" style="mask-type:luminance" maskUnits="userSpaceOnUse" x="49" y="185" width="26" height="41">
<path d="M67.3398 185.832C59.2267 189.392 54.4388 203.269 50.6311 213.308C50.6311 213.308 48.8592 214.433 49.1231 215.636C49.1231 215.636 50.5557 214.554 54.7706 214.924C58.9854 215.295 63.517 225.398 63.517 225.398L74.7667 213.294" fill="white"/>
</mask>
<g mask="url(#mask5_493_7083)">
<path opacity="0.15" d="M67.3398 185.832C59.2267 189.392 54.4388 203.269 50.6311 213.308C50.6311 213.308 48.8592 214.433 49.1231 215.636C49.1231 215.636 50.5557 214.554 54.7706 214.924C58.9854 215.295 63.517 225.398 63.517 225.398L74.7667 213.294" fill="black"/>
</g>
<path d="M67.3398 185.832C59.2267 189.392 54.4388 203.269 50.6311 213.308C50.6311 213.308 48.8592 214.433 49.1231 215.636C49.1231 215.636 50.5557 214.554 54.7706 214.924C58.9854 215.295 63.517 225.398 63.517 225.398L74.7667 213.294" stroke="#263238" stroke-linecap="round" stroke-linejoin="round"/>
<path d="M66.1937 187.612C66.4721 186.964 66.8591 186.363 67.3398 185.832C70.6046 182.749 94.8381 178.712 94.8381 178.712C100.416 179.371 105.908 180.564 111.23 182.272C120.67 185.184 127.2 186.544 129.198 193.23C131.196 199.915 127.2 216.726 127.2 216.726L125.383 237.801H62.6273C62.6273 237.801 61.5113 217.338 60.7423 214.219C60.2974 212.404 61.4963 204.159 63.2229 196.975" fill="#92E3A9"/>
<mask id="mask6_493_7083" style="mask-type:luminance" maskUnits="userSpaceOnUse" x="60" y="178" width="70" height="60">
<path d="M66.1937 187.612C66.4721 186.964 66.8591 186.363 67.3398 185.832C70.6046 182.749 94.8381 178.712 94.8381 178.712C100.416 179.371 105.908 180.564 111.23 182.272C120.67 185.184 127.2 186.544 129.198 193.23C131.196 199.915 127.2 216.726 127.2 216.726L125.383 237.801H62.6273C62.6273 237.801 61.5113 217.338 60.7423 214.219C60.2974 212.404 61.4963 204.159 63.2229 196.975" fill="white"/>
</mask>
<g mask="url(#mask6_493_7083)">
<path opacity="0.15" d="M128.814 208.345C128.06 212.973 127.2 216.69 127.2 216.69L126.446 225.825C123.664 229.171 118.318 234.931 112.226 237.765H78.9666L67.1062 226.281L62.175 230.602C61.7754 224.38 61.1798 216.078 60.7123 214.184C60.3579 212.76 61.044 207.213 62.2203 201.403L91.664 234.326L113.002 221.297L124.938 204.828L128.814 208.345Z" fill="black"/>
</g>
<path d="M66.1937 187.612C66.4721 186.964 66.8591 186.363 67.3398 185.832C70.6046 182.749 94.8381 178.712 94.8381 178.712C100.416 179.371 105.908 180.564 111.23 182.272C120.67 185.184 127.2 186.544 129.198 193.23C131.196 199.915 127.2 216.726 127.2 216.726L125.383 237.801H62.6273C62.6273 237.801 61.5113 217.338 60.7423 214.219C60.2974 212.404 61.4963 204.159 63.2229 196.975" stroke="#263238" stroke-linecap="round" stroke-linejoin="round"/>
<path d="M84.6063 169.933C84.6063 169.933 88.6327 178.15 84.6063 181.581C84.6063 181.581 86.1143 187.398 88.7759 188.773C91.4376 190.147 105.07 181.403 105.07 181.403C105.07 181.403 101.963 172.674 103.517 169.933H84.6063Z" fill="white" stroke="#263238" stroke-linecap="round" stroke-linejoin="round"/>
<path d="M107.633 157.395C107.633 157.395 109.141 155.828 109.895 156.341C110.402 156.73 110.785 157.244 111.002 157.826C111.219 158.408 111.261 159.035 111.125 159.638C110.717 160.969 108.945 163.276 108.81 164.622C108.674 165.967 107.754 167.47 106.751 166.608C105.748 165.747 107.633 157.395 107.633 157.395Z" fill="white" stroke="#263238" stroke-linecap="round" stroke-linejoin="round"/>
<path d="M80.4895 157.395C80.4895 157.395 78.9815 155.828 78.2275 156.341C77.7222 156.731 77.3402 157.245 77.1235 157.827C76.9067 158.408 76.8635 159.035 76.9985 159.638C77.4132 160.969 79.1775 163.276 79.3132 164.622C79.449 165.967 80.3688 167.47 81.3716 166.608C82.3745 165.747 80.4895 157.395 80.4895 157.395Z" fill="white" stroke="#263238" stroke-linecap="round" stroke-linejoin="round"/>
<path d="M93.7373 139.331C112.896 139.331 107.709 161.197 104.188 168.929C102.951 171.649 96.8438 175.451 93.7373 175.451C90.857 175.451 85.0889 171.891 83.9353 169.321C80.3538 161.546 75.4829 139.331 93.7373 139.331Z" fill="white" stroke="#263238" stroke-linecap="round" stroke-linejoin="round"/>
<path d="M96.987 154.205C96.987 154.205 101.978 152.745 103.517 155.629" stroke="#263238" stroke-linecap="round" stroke-linejoin="round"/>
<path d="M100.682 158.164C100.682 158.719 100.38 159.168 100.011 159.168C99.6411 159.168 99.347 158.719 99.347 158.164C99.347 157.608 99.6411 157.153 100.011 157.153C100.38 157.153 100.682 157.608 100.682 158.164Z" fill="#263238"/>
<path d="M91.136 154.205C91.136 154.205 86.152 152.745 84.6063 155.629" stroke="#263238" stroke-linecap="round" stroke-linejoin="round"/>
<path d="M87.464 158.164C87.464 158.719 87.7656 159.168 88.135 159.168C88.5045 159.168 88.7986 158.719 88.7986 158.164C88.7986 157.608 88.5045 157.153 88.135 157.153C87.7656 157.153 87.464 157.608 87.464 158.164Z" fill="#263238"/>
<path d="M91.8146 162.293C91.0606 163.005 93.594 164.223 94.0766 164.223C94.5591 164.223 96.4592 163.276 96.4592 162.72" fill="white"/>
<path d="M91.8146 162.293C91.0606 163.005 93.594 164.223 94.0766 164.223C94.5591 164.223 96.4592 163.276 96.4592 162.72" stroke="#263238" stroke-linecap="round" stroke-linejoin="round"/>
<path d="M81.6733 159.637C81.6733 159.637 82.8043 164.479 83.3019 164.906C83.7996 165.333 85.6167 166.665 85.6167 166.665C85.6167 166.665 88.972 165.077 89.6506 165.034C90.3292 164.992 92.5083 165.419 94.2802 165.419C96.0521 165.419 97.2962 164.707 98.3141 165.205C99.332 165.704 101.986 167.135 101.986 167.135C101.986 167.135 104.618 164.999 104.753 164.906C104.889 164.814 106.382 159.637 106.382 159.637L106.932 160.079C106.932 160.079 106.337 172.14 105.341 173.429C104.346 174.718 97.8014 178.413 94.0314 178.413C90.2614 178.413 82.7214 174.682 82.3217 173.529C81.9221 172.375 81.1757 160.542 81.6733 159.637Z" fill="#263238"/>
<path d="M88.4744 167.712C88.4744 167.712 89.4923 168.545 90.0352 168.424C91.2797 168.212 92.5406 168.097 93.8052 168.082C95.087 168.082 96.4291 168.395 97.4545 168.445C98.0994 168.465 98.7402 168.341 99.3244 168.082" stroke="white" stroke-linecap="round" stroke-linejoin="round"/>
<path d="M101.669 145.49C96.8672 146.935 91.7082 146.935 86.906 145.49C86.906 145.49 84.3274 145.348 83.3019 146.572C82.2765 147.797 83.3019 151.556 83.5734 153.13C83.8448 154.703 81.3114 155.743 81.6733 159.638L81.334 161.111C81.334 161.111 78.5442 154.419 79.2228 149.007C79.9014 143.596 82.9928 141.809 82.9928 141.809C82.9928 141.809 84.6365 137.153 94.3028 137.188C104.693 137.224 105.741 142.535 105.741 142.535C105.741 142.535 112.203 147.142 106.993 161.596L106.442 159.623C106.713 157.707 106.248 155.762 105.13 154.141C104.225 152.895 105.673 149.157 105.334 147.206C104.994 145.255 101.669 145.49 101.669 145.49Z" fill="#263238"/>
<path d="M51.8073 221.432C51.8073 221.432 53.1193 214.02 54.2729 213.066C57.2889 210.595 57.1758 209.57 59.0683 208.623C59.7847 208.228 60.3892 207.676 60.8303 207.012C61.2715 206.349 61.5361 205.595 61.6018 204.814C61.6018 204.814 64.8515 205.597 61.0514 210.125C60.2577 211.098 59.62 212.175 59.1588 213.322C58.8044 214.212 61.3756 214.939 64.8666 214.106C69.2549 213.066 72.4066 218.855 67.1286 221.938C64.1487 223.733 61.429 225.887 59.0382 228.346L52.78 237.765H43.1288V227.74C43.1288 227.74 49.6358 224.529 51.8073 221.432Z" fill="white" stroke="#263238" stroke-linecap="round" stroke-linejoin="round"/>
<path d="M63.8261 223.112C63.8261 223.112 66.4199 221.404 68.0937 221.297L63.8261 223.112Z" fill="white"/>
<path d="M63.8261 223.112C63.8261 223.112 66.4199 221.404 68.0937 221.297" stroke="#263238" stroke-linecap="round" stroke-linejoin="round"/>
<path d="M63.8261 219.296C64.6692 218.942 65.4621 218.49 66.1861 217.95C66.7742 217.366 68.7799 215.23 68.7799 215.23" fill="white"/>
<path d="M63.8261 219.296C64.6692 218.942 65.4621 218.49 66.1861 217.95C66.7742 217.366 68.7799 215.23 68.7799 215.23" stroke="#263238" stroke-linecap="round" stroke-linejoin="round"/>
<path d="M62.582 188.908C61.3228 188.531 57.6433 188.908 56.6932 188.573C55.7432 188.239 54.5519 189.093 55.2833 190.709C56.0146 192.326 61.1871 192.383 61.1871 192.383L62.582 188.908Z" fill="white" stroke="#263238" stroke-linecap="round" stroke-linejoin="round"/>
<path d="M57.8167 190.261C57.8167 190.261 53.8356 189.776 52.78 190.104C52.4181 190.204 51.5283 192.596 51.9355 194.917C52.3427 197.238 56.5801 197.452 56.5801 197.452L57.8167 190.261Z" fill="white" stroke="#263238" stroke-linecap="round" stroke-linejoin="round"/>
<path d="M52.9233 192.397C53.1064 192.736 53.4003 193.011 53.7615 193.18C54.1227 193.349 54.5321 193.404 54.9289 193.337" stroke="#263238" stroke-linecap="round" stroke-linejoin="round"/>
<path d="M53.8356 193.799C53.8356 193.799 50.5632 195.359 50.2918 196.683C50.0204 198.007 50.9779 200.079 50.9779 200.079L54.9289 199.858L53.8356 193.799Z" fill="white" stroke="#263238" stroke-linecap="round" stroke-linejoin="round"/>
<path d="M52.2673 198.847C51.51 199.536 50.7902 200.261 50.1108 201.019C49.6509 201.624 51.7847 205.141 52.2673 205.654C52.7498 206.167 56.9798 206.423 56.9798 206.423C56.9798 206.423 54.4237 199.937 52.2673 198.847Z" fill="white" stroke="#263238" stroke-linecap="round" stroke-linejoin="round"/>
<path d="M52.9233 204.672C52.9233 204.672 55.042 204.344 54.7103 202.635" stroke="#263238" stroke-linecap="round" stroke-linejoin="round"/>
<path d="M53.534 203.632C55.796 205.512 59.4981 208.481 61.4812 209.364C64.0749 210.524 73.7864 229.3 83.596 237.751H111.253C111.253 237.751 117.503 229.798 119.796 225.149C122.088 220.499 125.918 207.669 125.918 207.669L115.362 204.721L104.987 216.021L97.8466 226.822C97.8466 226.822 72.4292 207.541 69.4358 201.56C66.4425 195.579 64.09 188.908 62.582 188.908C60.8252 188.908 61.2776 190.204 57.8092 190.261C56.1881 190.261 56.0524 192.091 54.6424 193.251C53.2324 194.412 52.1693 193.849 52.3804 197.587C52.5161 200.072 50.2164 199.887 51.6264 201.902" fill="white"/>
<path d="M53.534 203.632C55.796 205.512 59.4981 208.481 61.4812 209.364C64.0749 210.524 73.7864 229.3 83.596 237.751H111.253C111.253 237.751 117.503 229.798 119.796 225.149C122.088 220.499 125.918 207.669 125.918 207.669L115.362 204.721L104.987 216.021L97.8466 226.822C97.8466 226.822 72.4292 207.541 69.4358 201.56C66.4425 195.579 64.09 188.908 62.582 188.908C60.8252 188.908 61.2776 190.204 57.8092 190.261C56.1881 190.261 56.0524 192.091 54.6424 193.251C53.2324 194.412 52.1693 193.849 52.3804 197.587C52.5161 200.072 50.2164 199.887 51.6264 201.902" stroke="#263238" stroke-linecap="round" stroke-linejoin="round"/>
<path d="M113.779 188.915C110.876 190.481 107.204 203.675 107.588 206.587C107.973 209.499 103.622 215.323 104.346 216.861C104.346 216.861 110.333 216.348 113.779 217.893C117.224 219.438 120.127 223.888 119.584 226.281C119.584 226.281 121.394 226.281 121.394 225.426C121.394 224.572 128.105 216.17 130.827 210.182C133.548 204.195 134.137 191.507 125.217 187.655" fill="#92E3A9"/>
<path d="M113.779 188.915C110.876 190.481 107.204 203.675 107.588 206.587C107.973 209.499 103.622 215.323 104.346 216.861C104.346 216.861 110.333 216.348 113.779 217.893C117.224 219.438 120.127 223.888 119.584 226.281C119.584 226.281 121.394 226.281 121.394 225.426C121.394 224.572 128.105 216.17 130.827 210.182C133.548 204.195 134.137 191.507 125.217 187.655" stroke="#263238" stroke-linecap="round" stroke-linejoin="round"/>
<path d="M61.074 210.909C61.074 210.909 62.2125 207.655 66.6988 204.401C69.5942 202.301 70.8684 202.856 70.8684 202.856L73.2285 206.024L72.9419 206.501C71.5638 206.962 70.3028 207.69 69.2398 208.637C67.3968 210.02 65.8813 211.751 64.7912 213.721H63.8261L61.074 210.909Z" fill="#757575" stroke="#263238" stroke-linecap="round" stroke-linejoin="round"/>
<path d="M71.4038 206.48C71.4053 207.1 71.2118 207.707 70.8478 208.223C70.4839 208.739 69.9658 209.142 69.3593 209.38C68.7528 209.618 68.0851 209.681 67.4408 209.56C66.7966 209.439 66.2047 209.141 65.7403 208.702C65.2759 208.264 64.9598 207.705 64.832 207.096C64.7042 206.488 64.7706 205.858 65.0226 205.285C65.2746 204.712 65.701 204.223 66.2478 203.879C66.7945 203.536 67.4369 203.353 68.0937 203.354C68.971 203.356 69.8118 203.686 70.4321 204.272C71.0524 204.858 71.4018 205.652 71.4038 206.48Z" fill="white" stroke="#263238" stroke-linecap="round" stroke-linejoin="round"/>
<path d="M105.07 197.416C105.07 197.416 104.482 204.963 106.465 208.054" stroke="#263238" stroke-linecap="round" stroke-linejoin="round"/>
<path d="M83.596 190.453C83.596 190.453 87.3208 192.988 95.2001 188.915" stroke="#263238" stroke-linecap="round" stroke-linejoin="round"/>
<path d="M66.2992 228.602C66.2992 228.602 73.5678 236.227 76.8552 237.765" stroke="#263238" stroke-linecap="round" stroke-linejoin="round"/>
<path d="M86.2651 244.437H51.1136C50.7477 244.437 50.3967 244.574 50.138 244.818C49.8792 245.063 49.7338 245.394 49.7338 245.74C49.7338 246.085 49.8792 246.417 50.138 246.661C50.3967 246.905 50.7477 247.043 51.1136 247.043H86.2651C86.6311 247.043 86.982 246.905 87.2408 246.661C87.4996 246.417 87.6449 246.085 87.6449 245.74C87.6449 245.394 87.4996 245.063 87.2408 244.818C86.982 244.574 86.6311 244.437 86.2651 244.437Z" fill="white"/>
<path d="M127.645 255.138H50.518C50.3131 255.138 50.1165 255.215 49.9715 255.352C49.8266 255.489 49.7452 255.674 49.7452 255.868C49.7452 256.062 49.8266 256.247 49.9715 256.384C50.1165 256.521 50.3131 256.598 50.518 256.598H127.652C127.857 256.598 128.054 256.521 128.199 256.384C128.344 256.247 128.425 256.062 128.425 255.868C128.425 255.674 128.344 255.489 128.199 255.352C128.054 255.215 127.857 255.138 127.652 255.138H127.645Z" fill="white"/>
<path d="M113.439 258.769H50.518C50.3131 258.769 50.1165 258.846 49.9715 258.983C49.8266 259.12 49.7452 259.306 49.7452 259.499C49.7452 259.693 49.8266 259.878 49.9715 260.015C50.1165 260.152 50.3131 260.229 50.518 260.229H113.447C113.652 260.229 113.848 260.152 113.993 260.015C114.138 259.878 114.22 259.693 114.22 259.499C114.22 259.306 114.138 259.12 113.993 258.983C113.848 258.846 113.652 258.769 113.447 258.769H113.439Z" fill="white"/>
<path d="M70.8157 249.378H50.518C50.3131 249.378 50.1165 249.455 49.9715 249.592C49.8266 249.729 49.7452 249.914 49.7452 250.108C49.7452 250.301 49.8266 250.487 49.9715 250.624C50.1165 250.761 50.3131 250.838 50.518 250.838H70.8157C71.0207 250.838 71.2173 250.761 71.3622 250.624C71.5071 250.487 71.5886 250.301 71.5886 250.108C71.5886 249.914 71.5071 249.729 71.3622 249.592C71.2173 249.455 71.0207 249.378 70.8157 249.378Z" fill="white"/>
<path d="M127.614 266.808H125.76C125.318 266.808 124.96 267.146 124.96 267.563V269.314C124.96 269.731 125.318 270.069 125.76 270.069H127.614C128.056 270.069 128.414 269.731 128.414 269.314V267.563C128.414 267.146 128.056 266.808 127.614 266.808Z" fill="white"/>
<path d="M120.512 266.808H118.657C118.216 266.808 117.858 267.146 117.858 267.563V269.314C117.858 269.731 118.216 270.069 118.657 270.069H120.512C120.953 270.069 121.311 269.731 121.311 269.314V267.563C121.311 267.146 120.953 266.808 120.512 266.808Z" fill="white"/>
<path d="M113.409 266.808H111.554C111.113 266.808 110.755 267.146 110.755 267.563V269.314C110.755 269.731 111.113 270.069 111.554 270.069H113.409C113.851 270.069 114.208 269.731 114.208 269.314V267.563C114.208 267.146 113.851 266.808 113.409 266.808Z" fill="white"/>
</svg>
