
<svg width="440" height="390" viewBox="0 0 440 390" fill="none" xmlns="http://www.w3.org/2000/svg">
<path opacity="0.7" d="M59.7784 130.33C59.7784 130.33 35.244 186.49 69.7224 243.04C104.201 299.59 175.217 329.464 232.056 355.009C288.895 380.554 347.917 368.113 375.962 326.274C404.008 284.435 365.543 254.569 365.49 194.906C365.438 135.244 375.566 119.449 339.09 69.0456C302.614 18.642 213.198 7.4802 145.578 44.8656C77.9592 82.251 59.7784 130.33 59.7784 130.33Z" fill="white"/>
<path d="M75.5216 353.512C75.5216 353.512 -3.15044 258.047 45.6016 184.673C94.3536 111.298 191.18 161.655 209.616 93.1788C228.052 24.7026 295.346 13.4784 359.163 99.1068C422.981 184.735 407.713 303.818 373.921 353.512H75.5216Z" fill="#92E3A9"/>
<path opacity="0.7" d="M75.5216 353.512C75.5216 353.512 -3.15044 258.047 45.6016 184.673C94.3536 111.298 191.18 161.655 209.616 93.1788C228.052 24.7026 295.346 13.4784 359.163 99.1068C422.981 184.735 407.713 303.818 373.921 353.512H75.5216Z" fill="white"/>
<path d="M34.6016 353.512H405.398" stroke="#263238" stroke-linecap="round" stroke-linejoin="round"/>
<path d="M109.173 264.506V353.059" stroke="#263238" stroke-linecap="round" stroke-linejoin="round"/>
<path d="M109.173 253.399V260.676" stroke="#263238" stroke-linecap="round" stroke-linejoin="round"/>
<path d="M339.029 353.254V235.404H109.173V249.288" stroke="#263238" stroke-linecap="round" stroke-linejoin="round"/>
<path d="M315.542 242.315H329.534V347.459" stroke="#263238" stroke-linecap="round" stroke-linejoin="round"/>
<path d="M118.677 353.059V242.315H307.419" stroke="#263238" stroke-linecap="round" stroke-linejoin="round"/>
<path d="M125.374 228.852H129.818" stroke="#263238" stroke-linecap="round" stroke-linejoin="round"/>
<path d="M136.198 228.852H343.042V235.357H105.169V228.852H122.54" stroke="#263238" stroke-linecap="round" stroke-linejoin="round"/>
<path d="M379.236 225.638L377.054 238.189" stroke="#263238" stroke-linecap="round" stroke-linejoin="round"/>
<path d="M365.851 174.119H376.411C377.868 174.12 379.307 174.4 380.631 174.94C381.954 175.479 383.13 176.266 384.079 177.246C385.027 178.226 385.726 179.376 386.126 180.618C386.527 181.859 386.62 183.162 386.399 184.439L380.433 218.759" stroke="#263238" stroke-linecap="round" stroke-linejoin="round"/>
<path d="M355.115 174.119H362.833" stroke="#263238" stroke-linecap="round" stroke-linejoin="round"/>
<path d="M309.901 225.576L317.53 181.74C317.896 179.627 319.104 177.7 320.934 176.307C322.765 174.915 325.098 174.15 327.51 174.151H349.615" stroke="#263238" stroke-linecap="round" stroke-linejoin="round"/>
<path d="M303.01 265.208L306.442 245.443" stroke="#263238" stroke-linecap="round" stroke-linejoin="round"/>
<path d="M342.074 290.433H352.581C357.589 290.434 362.402 288.714 366.01 285.636" stroke="#263238" stroke-linecap="round" stroke-linejoin="round"/>
<path d="M284.161 290.433H320.778" stroke="#263238" stroke-linecap="round" stroke-linejoin="round"/>
<path d="M269.025 287.5C272.221 289.415 275.991 290.436 279.849 290.433" stroke="#263238" stroke-linecap="round" stroke-linejoin="round"/>
<path d="M326.48 265.2H267.714C265.8 265.2 263.964 265.874 262.611 267.073C261.258 268.273 260.498 269.9 260.498 271.596V273.265C260.487 277.133 261.958 280.889 264.669 283.92" stroke="#263238" stroke-linecap="round" stroke-linejoin="round"/>
<path d="M371.413 269.194C370.87 268.016 369.944 267.008 368.753 266.299C367.562 265.589 366.16 265.209 364.725 265.208H354.253" stroke="#263238" stroke-linecap="round" stroke-linejoin="round"/>
<path d="M326.586 295.144H301.444L296.164 290.433" stroke="#263238" stroke-linecap="round" stroke-linejoin="round"/>
<path d="M308.669 295.144H323.761V310.822C323.761 311.199 323.592 311.56 323.292 311.826C322.991 312.092 322.584 312.242 322.159 312.242H310.27C309.846 312.242 309.438 312.092 309.138 311.826C308.838 311.56 308.669 311.199 308.669 310.822V295.144Z" stroke="#263238" stroke-linecap="round" stroke-linejoin="round"/>
<path d="M320.936 312.242H311.494V331.5H320.936V312.242Z" stroke="#263238" stroke-linecap="round" stroke-linejoin="round"/>
<path d="M272.967 343.356C288.684 334.074 311.52 331.5 311.52 331.5" stroke="#263238" stroke-linecap="round" stroke-linejoin="round"/>
<path d="M326.55 340.587C310.64 338.52 294.8 341.64 279.84 345.056" stroke="#263238" stroke-linecap="round" stroke-linejoin="round"/>
<path d="M352.563 345.056C348.938 344.23 345.277 343.496 341.607 342.841" stroke="#263238" stroke-linecap="round" stroke-linejoin="round"/>
<path d="M342.074 336.032C348.203 337.801 354.051 340.263 359.471 343.356" stroke="#263238" stroke-linecap="round" stroke-linejoin="round"/>
<path d="M320.936 331.5C322.925 331.742 324.896 332.054 326.867 332.413" stroke="#263238" stroke-linecap="round" stroke-linejoin="round"/>
<path d="M274.815 353.855C278.086 353.855 280.738 351.505 280.738 348.605C280.738 345.706 278.086 343.356 274.815 343.356C271.544 343.356 268.893 345.706 268.893 348.605C268.893 351.505 271.544 353.855 274.815 353.855Z" stroke="#263238" stroke-linecap="round" stroke-linejoin="round"/>
<path d="M358.415 353.855C361.686 353.855 364.338 351.505 364.338 348.605C364.338 345.706 361.686 343.356 358.415 343.356C355.144 343.356 352.493 345.706 352.493 348.605C352.493 351.505 355.144 353.855 358.415 353.855Z" stroke="#263238" stroke-linecap="round" stroke-linejoin="round"/>
<path d="M351.234 279.731L355.881 251.854C356.096 250.554 356.783 249.351 357.837 248.427C358.891 247.502 360.255 246.907 361.724 246.73L383.31 244.14C384.111 244.042 384.845 243.69 385.376 243.149C385.906 242.609 386.198 241.916 386.197 241.199C386.197 240.413 385.845 239.658 385.218 239.101C384.591 238.544 383.741 238.23 382.853 238.228H380.16L358.776 241.153C356.227 241.501 353.873 242.572 352.069 244.207C350.265 245.841 349.108 247.949 348.77 250.216L344.3 280.449C344.261 280.712 344.286 280.98 344.373 281.234C344.46 281.488 344.607 281.723 344.805 281.923C345.002 282.123 345.245 282.284 345.517 282.394C345.79 282.504 346.086 282.562 346.386 282.563" stroke="#263238" stroke-linecap="round" stroke-linejoin="round"/>
<path d="M383.31 244.14L377.696 270.613C378.44 270.613 379.154 270.875 379.681 271.342C380.207 271.809 380.503 272.442 380.503 273.101V278.156C380.503 279.831 379.752 281.438 378.415 282.623C377.079 283.808 375.266 284.474 373.375 284.474H347.134" stroke="#263238" stroke-linecap="round" stroke-linejoin="round"/>
<path d="M379.588 244.553L373.745 270.013H358.415" stroke="#263238" stroke-linecap="round" stroke-linejoin="round"/>
<path d="M267.784 250.177L266.218 260.801" stroke="#263238" stroke-linecap="round" stroke-linejoin="round"/>
<path d="M273.258 261.862L274.921 251.854C275.136 250.554 275.823 249.351 276.877 248.427C277.931 247.502 279.295 246.907 280.764 246.73L302.35 244.14" stroke="#263238" stroke-linecap="round" stroke-linejoin="round"/>
<path d="M235.576 76.0032H58.6256V353.512H235.576V76.0032Z" fill="white" stroke="#263238" stroke-linecap="round" stroke-linejoin="round"/>
<path d="M225.474 243.649H68.6488" stroke="#263238" stroke-miterlimit="10"/>
<path d="M68.6488 186.217H225.474" stroke="#263238" stroke-miterlimit="10"/>
<path d="M119.706 110.713H68.6488V177.45H119.706V110.713Z" fill="#92E3A9" stroke="#263238" stroke-linecap="round" stroke-linejoin="round"/>
<path d="M115.474 177.458V155.875C108.485 153.503 101.053 152.325 93.5704 152.404C84.3568 152.49 76.1992 153.964 71.7816 155.688V177.458H115.474Z" fill="#92E3A9" stroke="#263238" stroke-linecap="round" stroke-linejoin="round"/>
<path d="M90.9216 177.458H96.8L95.3744 161.405L97.4776 157.396C97.4776 157.396 94.072 156.32 91.4408 157.396L92.7872 161.405L90.9216 177.458Z" fill="#263238"/>
<path d="M100.575 149.846L104.491 152.396L99.6337 162.794L94.1777 157.396L88.1497 162.794L82.7465 152.396L86.6625 149.846H100.575Z" fill="#92E3A9" stroke="#263238" stroke-linecap="round" stroke-linejoin="round"/>
<path d="M101.719 151.109C101.719 151.109 97.5041 156.569 94.1777 156.663C91.8281 156.718 85.7825 151.538 85.7825 151.538C87.4193 150.236 87.5425 147.833 87.2785 145.938C87.1616 145.006 86.9556 144.085 86.6625 143.185H100.575C99.8676 144.934 99.6975 146.818 100.082 148.645C100.272 149.615 100.854 150.491 101.719 151.109Z" fill="white" stroke="#263238" stroke-linecap="round" stroke-linejoin="round"/>
<path d="M100.082 148.652C90.0328 150.992 88.044 145.899 88.044 145.899H87.2784C87.1615 144.967 86.9554 144.046 86.6624 143.146H100.575C99.858 144.909 99.6878 146.811 100.082 148.652Z" fill="#263238"/>
<path d="M104.447 134.371C104.447 134.371 111.118 115.463 86.6624 120.596C86.6624 120.596 84.6648 119.675 83.4416 120.097C82.2184 120.518 81.0392 128.154 83.116 135.213L104.447 134.371Z" fill="#263238"/>
<path d="M103.602 134.534C103.602 134.534 104.72 133.45 105.274 133.809C105.64 134.082 105.915 134.439 106.07 134.84C106.225 135.241 106.254 135.672 106.154 136.087C105.855 136.999 104.553 138.598 104.456 139.526C104.359 140.455 103.682 141.515 102.942 140.899C102.203 140.283 103.602 134.534 103.602 134.534Z" fill="white" stroke="#263238" stroke-linecap="round" stroke-linejoin="round"/>
<path d="M83.6001 134.534C83.6001 134.534 82.4825 133.45 81.9369 133.809C81.5711 134.082 81.2961 134.439 81.1411 134.84C80.9861 135.241 80.957 135.672 81.0569 136.087C81.3561 136.999 82.6585 138.598 82.7641 139.526C82.8697 140.455 83.5385 141.515 84.2689 140.899C84.9993 140.283 83.6001 134.534 83.6001 134.534Z" fill="white" stroke="#263238" stroke-linecap="round" stroke-linejoin="round"/>
<path d="M93.3856 122.062C107.466 122.062 104.122 138.692 101.526 144.035C100.646 145.907 95.9024 148.364 93.6056 148.364C91.4848 148.364 86.6272 145.423 85.7648 143.684C83.16 138.302 79.9568 122.062 93.3856 122.062Z" fill="white" stroke="#263238" stroke-linecap="round" stroke-linejoin="round"/>
<path d="M95.7704 132.327C95.7704 132.327 99.44 131.329 100.575 133.333" stroke="#263238" stroke-linecap="round" stroke-linejoin="round"/>
<path d="M98.4896 135.065C98.4896 135.447 98.2696 135.759 97.9968 135.759C97.724 135.759 97.504 135.447 97.504 135.065C97.504 134.683 97.724 134.371 97.9968 134.371C98.2696 134.371 98.4896 134.683 98.4896 135.065Z" fill="#263238"/>
<path d="M91.4672 132.327C91.4672 132.327 87.7976 131.329 86.6624 133.333" stroke="#263238" stroke-linecap="round" stroke-linejoin="round"/>
<path d="M88.7568 135.065C88.7568 135.447 88.968 135.759 89.2408 135.759C89.5136 135.759 89.7336 135.447 89.7336 135.065C89.7336 134.683 89.5136 134.371 89.2408 134.371C88.968 134.371 88.7568 134.683 88.7568 135.065Z" fill="#263238"/>
<path d="M85.7032 127.062C84.9552 127.912 85.7032 130.525 85.9056 131.594C86.108 132.662 84.26 133.38 84.48 136.087L83.7672 137.015C83.7672 137.015 81.7784 132.686 82.28 128.957C82.7816 125.229 85.4304 123.786 85.4304 123.786C85.4304 123.786 86.636 120.572 93.7288 120.596C101.367 120.596 102.142 124.285 102.142 124.285C102.142 124.285 107.316 127.351 103.488 137.327L102.652 136.087C102.851 134.763 102.508 133.421 101.684 132.304C101.024 131.438 102.089 128.84 101.842 127.514C101.596 126.188 86.46 126.22 85.7032 127.062Z" fill="#263238"/>
<path d="M94.4592 134.371C94.4592 134.371 94.6704 138.208 95.2864 139.292C95.9024 140.377 93.7376 140.548 92.8136 139.909" stroke="#263238" stroke-linecap="round" stroke-linejoin="round"/>
<path d="M90.5344 141.96C90.6317 142.273 90.7976 142.565 91.0226 142.821C91.2476 143.076 91.5273 143.29 91.8456 143.45C93.2967 143.757 94.8129 143.725 96.2456 143.356C96.6582 143.002 96.9456 142.55 97.0728 142.054" fill="white"/>
<path d="M90.5344 141.96C90.6317 142.273 90.7976 142.565 91.0226 142.821C91.2476 143.076 91.5273 143.29 91.8456 143.45C93.2967 143.757 94.8129 143.725 96.2456 143.356C96.6582 143.002 96.9456 142.55 97.0728 142.054" stroke="#263238" stroke-linecap="round" stroke-linejoin="round"/>
<path d="M90.2264 141.898C92.6247 142.356 95.1058 142.356 97.504 141.898" stroke="#263238" stroke-linecap="round" stroke-linejoin="round"/>
<path d="M79.3672 153.691L68.6488 156.32V177.45H92.9984L79.3672 153.691Z" fill="#999999" stroke="#263238" stroke-linecap="round" stroke-linejoin="round"/>
<path d="M119.706 156.92L106.242 153.145L94.996 177.45H119.706V156.92Z" fill="#999999" stroke="#263238" stroke-linecap="round" stroke-linejoin="round"/>
<path d="M99.7128 177.458L107.642 169.276L102.74 165.11L110.255 161.405L107.668 153.746L104.491 152.396L94.8464 177.458H99.7128Z" fill="#BFBFBF" stroke="#263238" stroke-linecap="round" stroke-linejoin="round"/>
<path d="M80.1416 170.118L88.0352 177.458H93.2976L82.7464 152.396L79.3672 153.691L76.8328 160.805L84.4976 166.195L80.1416 170.118Z" fill="#BFBFBF" stroke="#263238" stroke-linecap="round" stroke-linejoin="round"/>
<path d="M118.166 86.2836V87.6798C118.166 89.4036 117.225 90.3396 115.324 90.3396H114.444V94.38H112.543V83.6238H115.35C117.225 83.6238 118.166 84.5598 118.166 86.2836ZM114.4 85.1604V88.803H115.28C115.887 88.803 116.213 88.5534 116.213 87.789V86.1744C116.213 85.3944 115.887 85.1604 115.28 85.1604H114.4Z" fill="#263238"/>
<path d="M123.033 94.38C122.872 93.9561 122.812 93.5072 122.857 93.0618V91.3692C122.857 90.3708 122.478 90.0042 121.616 90.0042H120.956V94.38H119.046V83.6238H121.924C123.895 83.6238 124.749 84.4428 124.749 86.0964V86.9466C124.816 87.3769 124.732 87.8152 124.509 88.2018C124.285 88.5884 123.933 88.9045 123.499 89.1072C124.45 89.4582 124.766 90.2616 124.766 91.377V93.0384C124.724 93.4927 124.79 93.9499 124.96 94.38H123.033ZM120.956 85.1682V88.4676H121.695C122.408 88.4676 122.839 88.1946 122.839 87.3366V86.268C122.839 85.488 122.549 85.1604 121.871 85.1604L120.956 85.1682Z" fill="#263238"/>
<path d="M125.84 86.2055C125.84 84.4895 126.861 83.5067 128.735 83.5067C130.61 83.5067 131.622 84.4895 131.622 86.2055V91.7981C131.622 93.5141 130.601 94.4969 128.735 94.4969C126.87 94.4969 125.84 93.5141 125.84 91.7981V86.2055ZM127.75 91.8995C127.75 92.6795 128.128 92.9603 128.735 92.9603C129.342 92.9603 129.721 92.6717 129.721 91.8995V86.0963C129.721 85.3163 129.342 85.0355 128.735 85.0355C128.128 85.0355 127.75 85.3319 127.75 86.0963V91.8995Z" fill="#263238"/>
<path d="M134.781 88.4052H137.28V89.9652H134.825V94.38H132.88V83.6238H137.922V85.1838H134.79L134.781 88.4052Z" fill="#263238"/>
<path d="M138.838 83.6238H140.738V94.38H138.838V83.6238Z" fill="#263238"/>
<path d="M142.129 83.6238H144.03V92.82H147.171V94.38H142.129V83.6238Z" fill="#263238"/>
<path d="M149.908 88.14H152.548V89.7H149.908V92.82H153.199V94.38H147.998V83.6238H153.199V85.1838H149.908V88.14Z" fill="#263238"/>
<path d="M157.062 83.6238H160.081C161.982 83.6238 162.914 84.5598 162.914 86.2836V91.7436C162.914 93.4596 161.982 94.3956 160.081 94.3956H157.062V83.6238ZM158.972 85.1838V92.82H160.046C160.653 92.82 161.014 92.547 161.014 91.7826V86.19C161.014 85.41 160.653 85.1448 160.046 85.1448L158.972 85.1838Z" fill="#263238"/>
<path d="M170.28 94.38H168.362L168.027 92.43H165.695L165.361 94.38H163.601L165.546 83.6316H168.335L170.28 94.38ZM165.933 90.9714H167.772L166.892 85.5114L165.933 90.9714Z" fill="#263238"/>
<path d="M169.954 83.6238H175.842V85.1838H173.853V94.38H171.943V85.1604H169.954V83.6238Z" fill="#263238"/>
<path d="M182.16 94.38H180.233L179.907 92.43H177.566L177.241 94.38H175.481L177.417 83.6316H180.206L182.16 94.38ZM177.813 90.9714H179.643L178.763 85.5114L177.813 90.9714Z" fill="#263238"/>
<path d="M68.6927 102.726H225.509" stroke="#263238" stroke-linecap="round" stroke-linejoin="round"/>
<path d="M130.02 114.137H168.353C168.57 114.152 168.788 114.126 168.994 114.062C169.2 113.999 169.389 113.898 169.548 113.766C169.708 113.635 169.835 113.476 169.923 113.299C170.01 113.122 170.055 112.93 170.055 112.737C170.055 112.544 170.01 112.353 169.923 112.176C169.835 111.999 169.708 111.84 169.548 111.708C169.389 111.577 169.2 111.476 168.994 111.412C168.788 111.348 168.57 111.323 168.353 111.337H130.02C129.621 111.364 129.249 111.523 128.977 111.782C128.705 112.042 128.554 112.383 128.554 112.737C128.554 113.092 128.705 113.433 128.977 113.692C129.249 113.952 129.621 114.111 130.02 114.137Z" fill="#263238"/>
<path d="M182.846 120.962H130.046C129.648 120.989 129.275 121.148 129.003 121.407C128.732 121.667 128.58 122.008 128.58 122.363C128.58 122.717 128.732 123.058 129.003 123.318C129.275 123.577 129.648 123.736 130.046 123.763H182.846C183.245 123.736 183.618 123.577 183.889 123.318C184.161 123.058 184.312 122.717 184.312 122.363C184.312 122.008 184.161 121.667 183.889 121.407C183.618 121.148 183.245 120.989 182.846 120.962Z" fill="#263238"/>
<path d="M153.868 130.595H130.02C129.621 130.622 129.249 130.781 128.977 131.04C128.705 131.3 128.554 131.641 128.554 131.995C128.554 132.35 128.705 132.691 128.977 132.951C129.249 133.21 129.621 133.369 130.02 133.396H153.868C154.085 133.41 154.304 133.384 154.509 133.321C154.715 133.257 154.904 133.156 155.063 133.025C155.223 132.893 155.351 132.734 155.438 132.557C155.525 132.38 155.57 132.189 155.57 131.995C155.57 131.802 155.525 131.611 155.438 131.434C155.351 131.257 155.223 131.098 155.063 130.966C154.904 130.835 154.715 130.734 154.509 130.67C154.304 130.606 154.085 130.581 153.868 130.595Z" fill="#263238"/>
<path d="M182.846 140.228H130.046C129.648 140.255 129.275 140.414 129.003 140.673C128.732 140.933 128.58 141.274 128.58 141.628C128.58 141.983 128.732 142.324 129.003 142.584C129.275 142.843 129.648 143.002 130.046 143.029H182.846C183.245 143.002 183.618 142.843 183.889 142.584C184.161 142.324 184.312 141.983 184.312 141.628C184.312 141.274 184.161 140.933 183.889 140.673C183.618 140.414 183.245 140.255 182.846 140.228Z" fill="#263238"/>
<path d="M161.11 149.854H130.02C129.621 149.88 129.249 150.039 128.977 150.299C128.705 150.558 128.554 150.899 128.554 151.254C128.554 151.608 128.705 151.949 128.977 152.209C129.249 152.468 129.621 152.627 130.02 152.654H161.11C161.328 152.668 161.546 152.643 161.752 152.579C161.957 152.515 162.146 152.414 162.306 152.283C162.466 152.151 162.593 151.992 162.68 151.815C162.767 151.638 162.812 151.447 162.812 151.254C162.812 151.06 162.767 150.869 162.68 150.692C162.593 150.515 162.466 150.356 162.306 150.225C162.146 150.093 161.957 149.992 161.752 149.928C161.546 149.865 161.328 149.839 161.11 149.854Z" fill="#263238"/>
<path d="M145.57 160.891H128.445V176.069H145.57V160.891Z" fill="#BFBFBF" stroke="#263238" stroke-linecap="round" stroke-linejoin="round"/>
<path d="M171.97 160.891H154.845V176.069H171.97V160.891Z" fill="#BFBFBF" stroke="#263238" stroke-linecap="round" stroke-linejoin="round"/>
<path d="M198.37 160.891H181.245V176.069H198.37V160.891Z" fill="#BFBFBF" stroke="#263238" stroke-linecap="round" stroke-linejoin="round"/>
<path d="M94.9696 223.595C103.407 223.595 110.246 217.532 110.246 210.054C110.246 202.576 103.407 196.513 94.9696 196.513C86.5324 196.513 79.6927 202.576 79.6927 210.054C79.6927 217.532 86.5324 223.595 94.9696 223.595Z" stroke="#263238" stroke-width="5" stroke-miterlimit="10"/>
<path d="M110.255 210.054C110.255 212.734 109.359 215.353 107.679 217.581C105.999 219.809 103.612 221.546 100.819 222.571C98.026 223.597 94.9526 223.865 91.9875 223.342C89.0224 222.819 86.2987 221.529 84.161 219.634C82.0233 217.739 80.5675 215.325 79.9777 212.697C79.3879 210.069 79.6906 207.345 80.8475 204.869C82.0044 202.393 83.9636 200.277 86.4773 198.789C88.991 197.3 91.9464 196.505 94.9696 196.505" stroke="#92E3A9" stroke-width="5" stroke-linecap="round" stroke-linejoin="round"/>
<path d="M106.894 231.247H83.0544C82.837 231.232 82.6187 231.258 82.413 231.322C82.2073 231.385 82.0186 231.486 81.8589 231.618C81.6991 231.749 81.5717 231.908 81.4845 232.085C81.3974 232.262 81.3524 232.453 81.3524 232.647C81.3524 232.84 81.3974 233.031 81.4845 233.208C81.5717 233.385 81.6991 233.544 81.8589 233.676C82.0186 233.807 82.2073 233.908 82.413 233.972C82.6187 234.036 82.837 234.061 83.0544 234.047H106.894C107.111 234.061 107.329 234.036 107.535 233.972C107.741 233.908 107.929 233.807 108.089 233.676C108.249 233.544 108.376 233.385 108.463 233.208C108.551 233.031 108.596 232.84 108.596 232.647C108.596 232.453 108.551 232.262 108.463 232.085C108.376 231.908 108.249 231.749 108.089 231.618C107.929 231.486 107.741 231.385 107.535 231.322C107.329 231.258 107.111 231.232 106.894 231.247Z" fill="#263238"/>
<path d="M145.358 223.595C153.796 223.595 160.635 217.532 160.635 210.054C160.635 202.576 153.796 196.513 145.358 196.513C136.921 196.513 130.082 202.576 130.082 210.054C130.082 217.532 136.921 223.595 145.358 223.595Z" stroke="#263238" stroke-width="5" stroke-miterlimit="10"/>
<path d="M156.165 219.625C154.388 221.198 152.201 222.359 149.797 223.005C147.394 223.651 144.847 223.761 142.384 223.326C139.921 222.892 137.616 221.925 135.675 220.513C133.733 219.101 132.214 217.286 131.253 215.229C130.292 213.172 129.917 210.937 130.163 208.722C130.409 206.506 131.267 204.378 132.662 202.527C134.057 200.675 135.945 199.157 138.159 198.107C140.374 197.057 142.847 196.507 145.358 196.505" stroke="#92E3A9" stroke-width="5" stroke-linecap="round" stroke-linejoin="round"/>
<path d="M157.282 231.247H133.434C133.036 231.273 132.663 231.432 132.391 231.692C132.119 231.951 131.968 232.292 131.968 232.647C131.968 233.001 132.119 233.342 132.391 233.602C132.663 233.861 133.036 234.02 133.434 234.047H157.282C157.5 234.061 157.718 234.036 157.924 233.972C158.13 233.908 158.318 233.807 158.478 233.676C158.638 233.544 158.765 233.385 158.852 233.208C158.939 233.031 158.984 232.84 158.984 232.647C158.984 232.453 158.939 232.262 158.852 232.085C158.765 231.908 158.638 231.749 158.478 231.618C158.318 231.486 158.13 231.385 157.924 231.322C157.718 231.258 157.5 231.232 157.282 231.247Z" fill="#263238"/>
<path d="M195.747 223.595C204.184 223.595 211.024 217.532 211.024 210.054C211.024 202.576 204.184 196.513 195.747 196.513C187.31 196.513 180.47 202.576 180.47 210.054C180.47 217.532 187.31 223.595 195.747 223.595Z" stroke="#263238" stroke-width="5" stroke-miterlimit="10"/>
<path d="M195.747 223.595C191.758 223.51 187.964 222.046 185.177 219.515C182.389 216.984 180.828 213.587 180.828 210.05C180.828 206.513 182.389 203.116 185.177 200.585C187.964 198.055 191.758 196.59 195.747 196.505" stroke="#92E3A9" stroke-width="5" stroke-linecap="round" stroke-linejoin="round"/>
<path d="M207.68 231.247H183.832C183.433 231.273 183.061 231.432 182.789 231.692C182.517 231.951 182.366 232.292 182.366 232.647C182.366 233.001 182.517 233.342 182.789 233.602C183.061 233.861 183.433 234.02 183.832 234.047H207.68C208.079 234.02 208.451 233.861 208.723 233.602C208.995 233.342 209.146 233.001 209.146 232.647C209.146 232.292 208.995 231.951 208.723 231.692C208.451 231.432 208.079 231.273 207.68 231.247Z" fill="#263238"/>
<path d="M98.1727 252.229H68.6927V278.359H98.1727V252.229Z" fill="#BFBFBF" stroke="#263238" stroke-linecap="round" stroke-linejoin="round"/>
<path d="M107.14 255.06H198.273C198.49 255.074 198.708 255.049 198.914 254.985C199.12 254.921 199.309 254.82 199.468 254.689C199.628 254.558 199.755 254.398 199.843 254.221C199.93 254.044 199.975 253.853 199.975 253.66C199.975 253.467 199.93 253.276 199.843 253.098C199.755 252.921 199.628 252.762 199.468 252.631C199.309 252.499 199.12 252.399 198.914 252.335C198.708 252.271 198.49 252.245 198.273 252.26H107.14C106.741 252.286 106.369 252.445 106.097 252.705C105.825 252.964 105.674 253.306 105.674 253.66C105.674 254.014 105.825 254.355 106.097 254.615C106.369 254.875 106.741 255.034 107.14 255.06Z" fill="#263238"/>
<path d="M212.766 261.862H107.166C106.768 261.888 106.395 262.047 106.123 262.307C105.852 262.566 105.7 262.907 105.7 263.262C105.7 263.616 105.852 263.957 106.123 264.217C106.395 264.476 106.768 264.635 107.166 264.662H212.766C213.165 264.635 213.538 264.476 213.809 264.217C214.081 263.957 214.232 263.616 214.232 263.262C214.232 262.907 214.081 262.566 213.809 262.307C213.538 262.047 213.165 261.888 212.766 261.862Z" fill="#263238"/>
<path d="M210.188 271.487H107.14C106.741 271.513 106.369 271.672 106.097 271.932C105.825 272.191 105.674 272.533 105.674 272.887C105.674 273.241 105.825 273.582 106.097 273.842C106.369 274.102 106.741 274.261 107.14 274.287H210.188C210.405 274.301 210.624 274.276 210.829 274.212C211.035 274.148 211.224 274.047 211.383 273.916C211.543 273.785 211.671 273.625 211.758 273.448C211.845 273.271 211.89 273.08 211.89 272.887C211.89 272.694 211.845 272.503 211.758 272.325C211.671 272.148 211.543 271.989 211.383 271.858C211.224 271.726 211.035 271.626 210.829 271.562C210.624 271.498 210.405 271.472 210.188 271.487Z" fill="#263238"/>
<path d="M212.766 281.12H107.166C106.768 281.146 106.395 281.305 106.123 281.565C105.852 281.824 105.7 282.166 105.7 282.52C105.7 282.874 105.852 283.215 106.123 283.475C106.395 283.735 106.768 283.894 107.166 283.92H212.766C213.165 283.894 213.538 283.735 213.809 283.475C214.081 283.215 214.232 282.874 214.232 282.52C214.232 282.166 214.081 281.824 213.809 281.565C213.538 281.305 213.165 281.146 212.766 281.12Z" fill="#263238"/>
<path d="M129.43 290.753H107.14C106.741 290.779 106.369 290.938 106.097 291.198C105.825 291.457 105.674 291.799 105.674 292.153C105.674 292.507 105.825 292.848 106.097 293.108C106.369 293.368 106.741 293.527 107.14 293.553H129.43C129.648 293.567 129.866 293.542 130.072 293.478C130.277 293.414 130.466 293.313 130.626 293.182C130.786 293.051 130.913 292.891 131 292.714C131.087 292.537 131.132 292.346 131.132 292.153C131.132 291.96 131.087 291.769 131 291.592C130.913 291.414 130.786 291.255 130.626 291.124C130.466 290.992 130.277 290.892 130.072 290.828C129.866 290.764 129.648 290.738 129.43 290.753Z" fill="#263238"/>
<path d="M98.1727 302.929H68.6927V329.059H98.1727V302.929Z" fill="#BFBFBF" stroke="#263238" stroke-linecap="round" stroke-linejoin="round"/>
<path d="M107.14 305.76H198.273C198.49 305.774 198.708 305.749 198.914 305.685C199.12 305.621 199.309 305.52 199.468 305.389C199.628 305.258 199.755 305.098 199.843 304.921C199.93 304.744 199.975 304.553 199.975 304.36C199.975 304.167 199.93 303.976 199.843 303.798C199.755 303.621 199.628 303.462 199.468 303.331C199.309 303.199 199.12 303.099 198.914 303.035C198.708 302.971 198.49 302.945 198.273 302.96H107.14C106.741 302.986 106.369 303.145 106.097 303.405C105.825 303.664 105.674 304.006 105.674 304.36C105.674 304.714 105.825 305.055 106.097 305.315C106.369 305.575 106.741 305.734 107.14 305.76Z" fill="#263238"/>
<path d="M212.766 312.562H107.166C106.768 312.588 106.395 312.747 106.123 313.007C105.852 313.266 105.7 313.607 105.7 313.962C105.7 314.316 105.852 314.657 106.123 314.917C106.395 315.176 106.768 315.335 107.166 315.362H212.766C213.165 315.335 213.538 315.176 213.809 314.917C214.081 314.657 214.232 314.316 214.232 313.962C214.232 313.607 214.081 313.266 213.809 313.007C213.538 312.747 213.165 312.588 212.766 312.562Z" fill="#263238"/>
<path d="M210.188 322.187H107.14C106.741 322.213 106.369 322.372 106.097 322.632C105.825 322.891 105.674 323.233 105.674 323.587C105.674 323.941 105.825 324.282 106.097 324.542C106.369 324.802 106.741 324.961 107.14 324.987H210.188C210.405 325.001 210.624 324.976 210.829 324.912C211.035 324.848 211.224 324.747 211.383 324.616C211.543 324.485 211.671 324.325 211.758 324.148C211.845 323.971 211.89 323.78 211.89 323.587C211.89 323.394 211.845 323.203 211.758 323.025C211.671 322.848 211.543 322.689 211.383 322.558C211.224 322.426 211.035 322.326 210.829 322.262C210.624 322.198 210.405 322.172 210.188 322.187Z" fill="#263238"/>
<path d="M212.766 331.82H107.166C106.768 331.846 106.395 332.005 106.123 332.265C105.852 332.524 105.7 332.866 105.7 333.22C105.7 333.574 105.852 333.915 106.123 334.175C106.395 334.435 106.768 334.594 107.166 334.62H212.766C213.165 334.594 213.538 334.435 213.809 334.175C214.081 333.915 214.232 333.574 214.232 333.22C214.232 332.866 214.081 332.524 213.809 332.265C213.538 332.005 213.165 331.846 212.766 331.82Z" fill="#263238"/>
<path d="M129.43 341.453H107.14C106.741 341.479 106.369 341.638 106.097 341.898C105.825 342.157 105.674 342.499 105.674 342.853C105.674 343.207 105.825 343.548 106.097 343.808C106.369 344.068 106.741 344.227 107.14 344.253H129.43C129.648 344.267 129.866 344.242 130.072 344.178C130.277 344.114 130.466 344.013 130.626 343.882C130.786 343.751 130.913 343.591 131 343.414C131.087 343.237 131.132 343.046 131.132 342.853C131.132 342.66 131.087 342.469 131 342.291C130.913 342.114 130.786 341.955 130.626 341.824C130.466 341.692 130.277 341.592 130.072 341.528C129.866 341.464 129.648 341.438 129.43 341.453Z" fill="#263238"/>
<path d="M247.042 77.493L254.487 87.1572L247.562 91.8372L241.366 83.655" fill="white"/>
<path d="M247.042 77.493L254.487 87.1572L247.562 91.8372L241.366 83.655" stroke="#263238" stroke-linecap="round" stroke-linejoin="round"/>
<path d="M256.538 87.5394L250.809 80.6598L242.422 86.2602L246.576 93.1008L256.538 87.5394Z" fill="#92E3A9" stroke="#263238" stroke-linecap="round" stroke-linejoin="round"/>
<path d="M305.307 122.936L305.114 145.766C305.114 145.766 301.99 144.394 297.519 142.334C289.467 138.614 277.059 132.678 270.794 128.583C269.475 127.795 268.289 126.844 267.274 125.759C263.217 120.619 243.223 90.2928 243.223 90.2928L253.933 83.46L273.293 108.779L278.045 115.019L278.485 115.151L305.307 122.936Z" fill="#999999"/>
<mask id="mask0_433_3264" style="mask-type:luminance" maskUnits="userSpaceOnUse" x="243" y="83" width="63" height="63">
<path d="M305.307 122.936L305.114 145.766C305.114 145.766 301.99 144.394 297.519 142.334C289.467 138.614 277.059 132.678 270.794 128.583C269.475 127.795 268.289 126.844 267.274 125.759C263.217 120.619 243.223 90.2928 243.223 90.2928L253.933 83.46L273.293 108.779L278.045 115.019L278.485 115.151L305.307 122.936Z" fill="white"/>
</mask>
<g mask="url(#mask0_433_3264)">
<path opacity="0.3" d="M300.96 131.992L297.493 142.334C289.441 138.614 277.033 132.678 270.767 128.583C283.07 130.658 300.96 131.992 300.96 131.992Z" fill="black" fill-opacity="0.7"/>
<path opacity="0.3" d="M278.485 115.112C274.683 116.009 273.504 118.232 273.504 118.232C271.744 114.091 272.281 110.916 273.293 108.771L278.045 115.011L278.485 115.112Z" fill="black" fill-opacity="0.7"/>
</g>
<path d="M305.307 122.936L305.114 145.766C305.114 145.766 301.99 144.394 297.519 142.334C289.467 138.614 277.059 132.678 270.794 128.583C269.475 127.795 268.289 126.844 267.274 125.759C263.217 120.619 243.223 90.2928 243.223 90.2928L253.933 83.46L273.293 108.779L278.045 115.019L278.485 115.151L305.307 122.936Z" stroke="#263238" stroke-linecap="round" stroke-linejoin="round"/>
<path d="M247.456 79.3338C247.766 78.7789 247.946 78.1738 247.984 77.5554C248.047 76.7266 247.958 75.8941 247.72 75.0906C247.485 74.2669 247.114 73.4784 246.62 72.7506C246.189 72.0902 245.821 71.3988 245.52 70.6836C245.309 70.2 245.124 69.7164 244.966 69.2562C244.638 68.3035 244.374 67.3346 244.174 66.3546C244.174 66.3546 242.414 65.832 242.22 67.3452C242.176 67.7617 242.196 68.1817 242.282 68.5932C242.422 69.2952 242.678 70.0206 242.827 70.6056C242.96 70.9388 242.984 71.2982 242.898 71.643C242.833 71.7715 242.75 71.8921 242.651 72.0018L242.546 72.1266C242.328 72.3587 242.05 72.5406 241.736 72.657C241.599 72.7084 241.453 72.7375 241.305 72.7428C241.267 72.7511 241.228 72.7511 241.19 72.7428C241.082 72.7539 240.973 72.7539 240.865 72.7428C240.289 72.6336 239.734 72.4496 239.219 72.1968C238.45 71.8405 237.711 71.4338 237.01 70.98C236.746 70.8006 236.491 70.629 236.245 70.4496C235.631 70.0087 235.044 69.5401 234.485 69.0456C234.089 68.6946 233.649 68.3124 233.191 67.9536C232.734 67.5948 232.311 67.275 231.889 66.9864C230.639 66.1518 229.495 65.7228 229.099 66.5808C228.703 67.4388 229.178 67.6962 230.182 68.523C230.534 68.8116 230.956 69.1626 231.44 69.5994C232.276 70.3784 233.044 71.2129 233.737 72.0954L234.01 72.4386L233.64 72.891C233.702 72.9768 233.482 72.891 233.059 72.735C231.96 72.2467 230.899 71.6943 229.882 71.0814C229.425 70.8162 228.941 70.512 228.466 70.2078C227.99 69.9036 227.586 69.6384 227.198 69.342C225.166 67.8678 224.69 69.5604 225.025 70.3092C225.566 70.9674 226.251 71.5219 227.04 71.9394L228.457 72.8676L229.117 73.3278C229.997 73.9518 230.877 74.5836 231.466 75.0204L231.713 75.192L231.502 75.9018L231.123 75.816C230.024 75.5716 228.952 75.24 227.92 74.8254C227.225 74.5446 226.688 74.2794 226.266 74.0454C225.474 73.6788 225.042 73.554 224.506 73.9752C223.969 74.3964 224.506 75.1842 225.386 75.855C226.089 76.377 226.878 76.8005 227.726 77.1108C227.879 77.1622 228.035 77.2065 228.193 77.2434C228.987 77.4723 229.745 77.7922 230.446 78.195L230.877 78.4212L231.026 78.9984L230.322 78.936C229.582 78.855 228.847 78.7352 228.122 78.5772C227.543 78.4353 226.956 78.3208 226.362 78.234C226.181 78.191 225.988 78.1978 225.811 78.2535C225.633 78.3091 225.479 78.4111 225.368 78.546C225.025 78.9984 225.562 79.4976 226.38 79.911C226.878 80.1511 227.403 80.3445 227.946 80.4882C228.345 80.6047 228.759 80.6755 229.178 80.6988C229.961 80.7874 230.729 80.9576 231.466 81.2058L232.346 81.4944C233.438 81.8454 234.441 82.212 234.784 82.3368L234.916 82.3836C235.638 82.8048 236.271 83.1636 236.834 83.421C238.153 84.1209 239.633 84.5475 241.164 84.669C241.873 84.6596 242.554 84.4242 243.082 84.006" fill="white"/>
<path d="M247.456 79.3338C247.766 78.7789 247.946 78.1738 247.984 77.5554C248.047 76.7266 247.958 75.8941 247.72 75.0906C247.485 74.2669 247.114 73.4784 246.62 72.7506C246.189 72.0902 245.821 71.3988 245.52 70.6836C245.309 70.2 245.124 69.7164 244.966 69.2562C244.638 68.3035 244.374 67.3346 244.174 66.3546C244.174 66.3546 242.414 65.832 242.22 67.3452C242.176 67.7617 242.196 68.1817 242.282 68.5932C242.422 69.2952 242.678 70.0206 242.827 70.6056C242.96 70.9388 242.984 71.2982 242.898 71.643C242.833 71.7715 242.75 71.8921 242.651 72.0018L242.546 72.1266C242.328 72.3587 242.05 72.5406 241.736 72.657C241.599 72.7084 241.453 72.7375 241.305 72.7428C241.267 72.7511 241.228 72.7511 241.19 72.7428C241.082 72.7539 240.973 72.7539 240.865 72.7428C240.289 72.6336 239.734 72.4496 239.219 72.1968C238.45 71.8405 237.711 71.4338 237.01 70.98C236.746 70.8006 236.491 70.629 236.245 70.4496C235.631 70.0087 235.044 69.5401 234.485 69.0456C234.089 68.6946 233.649 68.3124 233.191 67.9536C232.734 67.5948 232.311 67.275 231.889 66.9864C230.639 66.1518 229.495 65.7228 229.099 66.5808C228.703 67.4388 229.178 67.6962 230.182 68.523C230.534 68.8116 230.956 69.1626 231.44 69.5994C232.276 70.3784 233.044 71.2129 233.737 72.0954L234.01 72.4386L233.64 72.891C233.702 72.9768 233.482 72.891 233.059 72.735C231.96 72.2467 230.899 71.6943 229.882 71.0814C229.425 70.8162 228.941 70.512 228.466 70.2078C227.99 69.9036 227.586 69.6384 227.198 69.342C225.166 67.8678 224.69 69.5604 225.025 70.3092C225.566 70.9674 226.251 71.5219 227.04 71.9394L228.457 72.8676L229.117 73.3278C229.997 73.9518 230.877 74.5836 231.466 75.0204L231.713 75.192L231.502 75.9018L231.123 75.816C230.024 75.5716 228.952 75.24 227.92 74.8254C227.225 74.5446 226.688 74.2794 226.266 74.0454C225.474 73.6788 225.042 73.554 224.506 73.9752C223.969 74.3964 224.506 75.1842 225.386 75.855C226.089 76.377 226.878 76.8005 227.726 77.1108C227.879 77.1622 228.035 77.2065 228.193 77.2434C228.987 77.4723 229.745 77.7922 230.446 78.195L230.877 78.4212L231.026 78.9984L230.322 78.936C229.582 78.855 228.847 78.7352 228.122 78.5772C227.543 78.4353 226.956 78.3208 226.362 78.234C226.181 78.191 225.988 78.1978 225.811 78.2535C225.633 78.3091 225.479 78.4111 225.368 78.546C225.025 78.9984 225.562 79.4976 226.38 79.911C226.878 80.1511 227.403 80.3445 227.946 80.4882C228.345 80.6047 228.759 80.6755 229.178 80.6988C229.961 80.7874 230.729 80.9576 231.466 81.2058L232.346 81.4944C233.438 81.8454 234.441 82.212 234.784 82.3368L234.916 82.3836C235.638 82.8048 236.271 83.1636 236.834 83.421C238.153 84.1209 239.633 84.5475 241.164 84.669C241.873 84.6596 242.554 84.4242 243.082 84.006" stroke="#263238" stroke-linecap="round" stroke-linejoin="round"/>
<path d="M241.173 72.7897C241.173 72.7897 238.806 75.3637 240.759 77.8285" stroke="#263238" stroke-linecap="round" stroke-linejoin="round"/>
<path d="M285.032 131.188C285.032 131.188 288.033 136.118 295.812 140.447" stroke="#263238" stroke-linecap="round" stroke-linejoin="round"/>
<path d="M278.08 114.98C278.08 114.98 271.92 115.385 273.856 120.705" stroke="#263238" stroke-linecap="round" stroke-linejoin="round"/>
<path d="M382.298 330.619C382.298 330.619 365.376 343.418 356.55 345.493C347.723 347.568 350.24 353.465 350.24 353.465H370.832L379.632 351.78V353.512H385.097C385.097 353.512 389.954 351.304 388.749 340.252C388.705 339.573 382.298 330.619 382.298 330.619Z" fill="#263238"/>
<path d="M199.258 334.519C199.258 334.519 184.976 343.418 176.15 345.493C167.323 347.568 169.84 353.465 169.84 353.465H190.432L199.232 351.78V353.512H204.697C204.697 353.512 209.554 351.304 208.349 340.252C208.278 339.57 208.182 338.861 208.058 338.122C205.99 325.26 199.258 334.519 199.258 334.519Z" fill="#263238"/>
<path d="M370.084 340.704C370.084 340.704 317.038 302.695 314.01 297.757C310.983 292.82 304.973 247.611 304.973 247.611C304.198 248.095 254.478 279.38 252.173 282.415C252.014 282.625 251.689 283.078 251.214 283.748C244.631 292.991 209.915 343.028 209.915 343.028C207.04 343.108 204.181 342.632 201.535 341.633C198.889 340.633 196.52 339.134 194.594 337.241L230.358 268.921L282.77 223.493L283.554 222.807L288.552 205.14L333.52 200.265C333.52 200.265 337.392 212.909 339.46 222.823C339.552 223.449 339.596 224.079 339.592 224.71C339.821 235.833 336.23 285.745 338.096 289.934C340.102 294.466 382.897 330.057 382.897 330.057C383.354 338.114 370.084 340.704 370.084 340.704Z" fill="#757575"/>
<mask id="mask1_433_3264" style="mask-type:luminance" maskUnits="userSpaceOnUse" x="194" y="200" width="189" height="144">
<path d="M370.084 340.704C370.084 340.704 317.038 302.695 314.01 297.757C310.983 292.82 304.973 247.611 304.973 247.611C304.198 248.095 254.478 279.38 252.173 282.415C252.014 282.625 251.689 283.078 251.214 283.748C244.631 292.991 209.915 343.028 209.915 343.028C207.04 343.108 204.181 342.632 201.535 341.633C198.889 340.633 196.52 339.134 194.594 337.241L230.358 268.921L282.77 223.493L283.554 222.807L288.552 205.14L333.52 200.265C333.52 200.265 337.392 212.909 339.46 222.823C339.552 223.449 339.596 224.079 339.592 224.71C339.821 235.833 336.23 285.745 338.096 289.934C340.102 294.466 382.897 330.057 382.897 330.057C383.354 338.114 370.084 340.704 370.084 340.704Z" fill="white"/>
</mask>
<g mask="url(#mask1_433_3264)">
<path opacity="0.3" d="M304.973 247.611C304.199 248.095 254.479 279.38 252.173 282.415C252.015 282.625 251.689 283.078 251.214 283.748C249.295 272.524 285.041 248.758 285.041 248.758L277.79 245.435L292.063 243.571C287.118 241.543 288.755 236.012 288.755 236.012L304.973 247.611Z" fill="black" fill-opacity="0.7"/>
<path opacity="0.3" d="M307.921 229.531L310.279 232.651C296.305 229.913 287.567 226.13 282.771 223.509L283.554 222.823L288.552 205.14L333.52 200.265C333.52 200.265 337.392 212.909 339.46 222.823C339.552 223.449 339.596 224.079 339.592 224.71C327.686 228.813 307.921 229.531 307.921 229.531Z" fill="black" fill-opacity="0.7"/>
</g>
<path d="M370.084 340.704C370.084 340.704 317.038 302.695 314.01 297.757C310.983 292.82 304.973 247.611 304.973 247.611C304.198 248.095 254.478 279.38 252.173 282.415C252.014 282.625 251.689 283.078 251.214 283.748C244.631 292.991 209.915 343.028 209.915 343.028C207.04 343.108 204.181 342.632 201.535 341.633C198.889 340.633 196.52 339.134 194.594 337.241L230.358 268.921L282.77 223.493L283.554 222.807L288.552 205.14L333.52 200.265C333.52 200.265 337.392 212.909 339.46 222.823C339.552 223.449 339.596 224.079 339.592 224.71C339.821 235.833 336.23 285.745 338.096 289.934C340.102 294.466 382.897 330.057 382.897 330.057C383.354 338.114 370.084 340.704 370.084 340.704Z" stroke="#263238" stroke-linecap="round" stroke-linejoin="round"/>
<path d="M344.432 165.524C341.915 178.074 331.813 193.385 331.813 193.385L334.189 199.945L340.56 217.487L305.879 226.645L299.57 216.138L293.753 225.88L281.943 221.684L282.911 217.269L285.146 207.051C285.094 206.474 285.05 205.865 284.997 205.241C283.545 186.256 283.694 147.295 303.697 122.561C303.697 122.561 333.388 126.227 344.256 155.657C345.242 158.395 345.162 161.842 344.432 165.524Z" fill="#999999"/>
<mask id="mask2_433_3264" style="mask-type:luminance" maskUnits="userSpaceOnUse" x="281" y="122" width="64" height="105">
<path d="M344.432 165.524C341.915 178.074 331.813 193.385 331.813 193.385L334.189 199.945L340.56 217.487L305.879 226.645L299.57 216.138L293.753 225.88L281.943 221.684L282.911 217.269L285.146 207.051C285.094 206.474 285.05 205.865 284.997 205.241C283.545 186.256 283.694 147.295 303.697 122.561C303.697 122.561 333.388 126.227 344.256 155.657C345.242 158.395 345.162 161.842 344.432 165.524Z" fill="white"/>
</mask>
<g mask="url(#mask2_433_3264)">
<path opacity="0.3" d="M331.813 193.385L334.189 199.945C328.275 204.789 321.147 210.647 320.47 211.38C319.59 212.324 295.284 215.631 282.885 217.269L285.12 207.051C285.067 206.474 285.023 205.865 284.97 205.241L335.28 168.48L344.432 165.524C341.915 178.074 331.813 193.385 331.813 193.385Z" fill="black" fill-opacity="0.7"/>
</g>
<path d="M344.432 165.524C341.915 178.074 331.813 193.385 331.813 193.385L334.189 199.945L340.56 217.487L305.879 226.645L299.57 216.138L293.753 225.88L281.943 221.684L282.911 217.269L285.146 207.051C285.094 206.474 285.05 205.865 284.997 205.241C283.545 186.256 283.694 147.295 303.697 122.561C303.697 122.561 333.388 126.227 344.256 155.657C345.242 158.395 345.162 161.842 344.432 165.524Z" stroke="#263238" stroke-linecap="round" stroke-linejoin="round"/>
<path d="M297.167 172.77C297.167 172.77 345.849 137.81 327.879 132.319C311.696 127.366 291.016 138.497 297.167 172.77Z" fill="#92E3A9" stroke="#263238" stroke-linecap="round" stroke-linejoin="round"/>
<path d="M314.609 144.807L307.921 147.373C304.469 155.088 302.271 163.197 301.391 171.46L296.234 177.239L294.8 171.46C294.8 171.46 297.317 153.964 305.862 146.819L307.93 139.87L316.008 136.204L314.609 144.807Z" fill="#263238"/>
<path d="M297.678 170.555C297.678 170.555 336.09 146.734 327.228 130.775C327.228 130.775 337.744 130.533 333.3 153.395L320.47 156.71L324.051 163.067C324.051 163.067 309.602 165.656 296.234 177.224L291.016 150.01L294.791 147.537L292.574 143.356C292.574 143.356 305.853 130.26 318.56 131.36C318.56 131.36 303.424 136.937 299.499 147.553C295.574 158.168 297.678 170.555 297.678 170.555Z" fill="#BFBFBF" stroke="#263238" stroke-linecap="round" stroke-linejoin="round"/>
<path d="M319.686 129.971C319.686 129.971 307.886 133.13 302.614 143.442L308.959 141.359L309.602 143.099L312.778 144.261V150.025C312.778 150.025 330.95 142.732 330.986 136.82C330.994 135.143 326.48 127.265 319.686 129.971Z" fill="#92E3A9" stroke="#263238" stroke-linecap="round" stroke-linejoin="round"/>
<path d="M331.25 121.111C326.638 127.67 329.692 135.697 329.692 135.697C329.692 135.697 315.92 144.791 311.608 142.264C311.748 139.663 311.681 137.057 311.406 134.464C311.19 132.24 310.814 130.031 310.279 127.85C310.279 127.85 311.74 127.07 313.896 126.032C320.769 122.608 334.77 116.119 331.25 121.111Z" fill="white" stroke="#263238" stroke-linecap="round" stroke-linejoin="round"/>
<path d="M242.194 230.1C242.638 229.787 243.042 229.431 243.399 229.039C243.668 228.753 243.895 228.439 244.077 228.103C244.47 227.497 244.94 226.932 245.476 226.418L246.127 225.779C246.91 224.999 247.667 224.336 247.931 224.102L248.028 224.008C248.741 223.571 249.33 223.189 249.788 222.83C251.024 222.015 252.035 220.961 252.745 219.749C253.695 218.189 250.985 214.126 249.515 212.573C249.05 212.111 248.484 211.737 247.852 211.474C247.023 211.104 246.131 210.859 245.212 210.748C244.263 210.628 243.3 210.628 242.352 210.748C241.501 210.853 240.641 210.895 239.782 210.873C239.202 210.873 238.621 210.826 238.084 210.779C236.964 210.686 235.85 210.538 234.749 210.335C234.592 210.47 234.474 210.635 234.403 210.818C234.331 211.001 234.309 211.196 234.339 211.388C234.368 211.58 234.447 211.763 234.57 211.923C234.693 212.083 234.857 212.215 235.048 212.308C235.464 212.502 235.908 212.644 236.368 212.729C237.16 212.885 238.014 212.956 238.674 213.049C239.075 213.064 239.463 213.18 239.791 213.385C239.898 213.487 239.993 213.6 240.073 213.72L240.161 213.853C240.316 214.121 240.401 214.417 240.407 214.718C240.407 214.848 240.383 214.977 240.337 215.101C240.344 215.134 240.344 215.169 240.337 215.202C240.291 215.291 240.238 215.377 240.178 215.459C239.846 215.89 239.442 216.274 238.982 216.598C238.308 217.088 237.593 217.531 236.843 217.924L235.963 218.345C235.269 218.687 234.555 218.997 233.825 219.274C233.306 219.469 232.742 219.687 232.197 219.921C231.681 220.13 231.178 220.364 230.692 220.623C229.337 221.333 228.466 222.105 229.205 222.752C229.944 223.4 230.402 223.119 231.651 222.604C232.082 222.425 232.602 222.214 233.244 221.98C234.375 221.592 235.537 221.276 236.72 221.036L237.178 220.943L237.512 221.411C237.626 221.411 237.512 221.559 237.134 221.832C236.222 222.56 235.261 223.237 234.256 223.86C233.798 224.133 233.297 224.422 232.795 224.687C232.294 224.952 231.915 225.178 231.414 225.397C229.108 226.512 230.692 227.542 231.598 227.549C232.498 227.363 233.346 227.015 234.089 226.528L235.602 225.709L236.333 225.35C237.301 224.89 238.304 224.398 238.973 224.063L239.237 223.93L239.906 224.367L239.677 224.648C239.006 225.452 238.255 226.201 237.433 226.886C236.87 227.354 236.394 227.666 236.034 227.963C235.356 228.485 235.057 228.79 235.303 229.359C235.55 229.928 236.562 229.835 237.591 229.359C238.4 228.98 239.139 228.493 239.782 227.916C239.896 227.81 240.002 227.698 240.099 227.581C240.633 227.015 241.252 226.516 241.938 226.099L242.343 225.833L243.003 225.927C242.898 226.122 242.783 226.309 242.669 226.481C242.304 227.057 241.901 227.615 241.463 228.15C241.09 228.575 240.744 229.018 240.425 229.476C240.306 229.606 240.238 229.767 240.23 229.934C240.222 230.101 240.275 230.266 240.381 230.404C240.724 230.88 241.463 230.591 242.194 230.1Z" fill="white" stroke="#263238" stroke-linecap="round" stroke-linejoin="round"/>
<path d="M247.421 212.472L259.926 208.705L263.155 215.865L252.604 218.969" fill="white"/>
<path d="M247.421 212.472L259.926 208.705L263.155 215.865L252.604 218.969" stroke="#263238" stroke-linecap="round" stroke-linejoin="round"/>
<path d="M260.885 207.051L251.874 210.101L255.719 218.767L264.264 217.051L260.885 207.051Z" fill="#92E3A9" stroke="#263238" stroke-linecap="round" stroke-linejoin="round"/>
<path d="M343.112 156.725C343.112 156.725 337.172 154.596 329.578 158.379C324.931 160.719 301.761 192.769 302.614 191.303L255.094 207.753L259.961 219.82C259.961 219.82 309.883 208.611 313.922 205.889C317.962 203.167 339.152 183.269 343.922 166.585" fill="#999999"/>
<path d="M343.112 156.725C343.112 156.725 337.172 154.596 329.578 158.379C324.931 160.719 301.761 192.769 302.614 191.303L255.094 207.753L259.961 219.82C259.961 219.82 309.883 208.611 313.922 205.889C317.962 203.167 339.152 183.269 343.922 166.585" stroke="#263238" stroke-linecap="round" stroke-linejoin="round"/>
<path d="M292.054 238.189C292.054 238.189 306.39 245.209 313.958 251.566" stroke="#263238" stroke-linecap="round" stroke-linejoin="round"/>
<path d="M331.857 220.74C331.742 220.912 331.276 227.76 335.922 230.623" stroke="#263238" stroke-linecap="round" stroke-linejoin="round"/>
<path d="M335.922 218.969C335.922 218.969 338.474 220.295 336.802 240.451C335.13 260.606 334.4 289.006 334.4 289.006C334.963 290.768 335.988 292.388 337.392 293.732C339.645 295.792 375.848 327.109 375.848 327.109" stroke="#263238" stroke-linecap="round" stroke-linejoin="round"/>
<path d="M303.01 244.92C303.01 244.92 291.28 246.87 281.89 245.638" stroke="#263238" stroke-linecap="round" stroke-linejoin="round"/>
<path d="M299.543 246.004C299.543 246.004 253.299 279.95 244.015 282.828" stroke="#263238" stroke-linecap="round" stroke-linejoin="round"/>
<path d="M247.421 281.307L216.392 328.091" stroke="#263238" stroke-linecap="round" stroke-linejoin="round"/>
<path d="M302.72 221.442C302.72 221.442 300.758 231.403 299.534 233.048C298.311 234.694 301.127 240.451 301.127 240.451" stroke="#263238" stroke-linecap="round" stroke-linejoin="round"/>
<path d="M299.543 221.442C299.543 221.442 298.091 227.495 297.625 228.938C297.158 230.381 299.543 230.95 299.543 230.95" stroke="#263238" stroke-linecap="round" stroke-linejoin="round"/>
<path d="M294.8 179.564C294.8 179.564 293.225 188.206 293.691 192.317L294.8 179.564Z" fill="#BFBFBF"/>
<path d="M294.8 179.564C294.8 179.564 293.225 188.206 293.691 192.317" stroke="#263238" stroke-linecap="round" stroke-linejoin="round"/>
<path d="M335.922 176.069C335.922 176.069 327.765 181.412 320.47 181.21" stroke="#263238" stroke-linecap="round" stroke-linejoin="round"/>
<path d="M302.614 191.303C302.614 191.303 305.923 193.549 307.894 192.317" stroke="#263238" stroke-linecap="round" stroke-linejoin="round"/>
<path d="M331.813 193.385C331.813 193.385 327.334 195.608 326.401 197.87" stroke="#263238" stroke-linecap="round" stroke-linejoin="round"/>
<path d="M324.051 127.468C324.051 127.468 318.437 132.717 311.406 134.425C311.19 132.201 310.814 129.992 310.279 127.811C310.279 127.811 311.74 127.031 313.896 125.993L324.051 127.468Z" fill="#263238"/>
<path d="M325.864 128.638C320.188 131.43 313.755 132.413 307.833 129.971C305.73 129.113 304.709 117.92 307.833 108.038C312.858 92.0712 327.422 91.5408 339.152 101.018C345.356 106.041 341.546 116.025 333.775 123.162" fill="white"/>
<path d="M325.864 128.638C320.188 131.43 313.755 132.413 307.833 129.971C305.73 129.113 304.709 117.92 307.833 108.038C312.858 92.0712 327.422 91.5408 339.152 101.018C345.356 106.041 341.546 116.025 333.775 123.162" stroke="#263238" stroke-linecap="round" stroke-linejoin="round"/>
<path d="M316.888 109.028C318.415 108.919 319.941 109.255 321.234 109.984C322.527 110.713 323.516 111.796 324.051 113.069" stroke="#263238" stroke-linecap="round" stroke-linejoin="round"/>
<path d="M311.608 107.016C311.608 107.016 310.851 105.082 308.968 105.043" stroke="#263238" stroke-linecap="round" stroke-linejoin="round"/>
<path d="M308.73 118.232C308.73 118.232 306.486 116.165 307.19 114.995C307.894 113.825 308.607 114.52 310.279 113.482C310.786 113.173 311.213 112.773 311.535 112.308C311.856 111.843 312.064 111.324 312.145 110.783" fill="white"/>
<path d="M308.73 118.232C308.73 118.232 306.486 116.165 307.19 114.995C307.894 113.825 308.607 114.52 310.279 113.482C310.786 113.173 311.213 112.773 311.535 112.308C311.856 111.843 312.064 111.324 312.145 110.783" stroke="#263238" stroke-linecap="round" stroke-linejoin="round"/>
<path d="M319.185 114.878C318.956 115.393 318.507 115.721 318.182 115.612C317.856 115.502 317.768 114.988 317.997 114.465C318.226 113.942 318.674 113.623 319 113.74C319.326 113.857 319.44 114.364 319.185 114.878Z" fill="#263238"/>
<path d="M310.878 111.236C310.649 111.758 310.2 112.086 309.874 111.969C309.549 111.852 309.461 111.345 309.69 110.83C309.918 110.315 310.367 109.988 310.693 110.097C311.018 110.206 311.106 110.76 310.878 111.236Z" fill="#263238"/>
<path d="M307.921 120.697C307.921 120.697 312.55 122.585 315.999 122.624C315.999 122.624 314.239 125.931 311.23 125.635C308.22 125.338 308.88 121.68 308.88 121.68" stroke="#263238" stroke-linecap="round" stroke-linejoin="round"/>
<path d="M329.358 103.74C329.358 103.74 324.394 100.207 313.518 98.5842C313.518 98.5842 313.57 92.6874 316.026 90.558C318.481 88.4286 320.496 92.82 320.496 92.82C320.496 92.82 326.656 91.3068 337.594 97.9602C348.533 104.614 343.288 120.011 329.463 126.555L329.384 123.95C329.384 123.95 329.525 118.552 327.254 117.546C327.254 117.546 328.953 113.646 327.114 110.768C325.274 107.89 329.358 103.74 329.358 103.74Z" fill="#263238"/>
<path d="M327.228 119.441C327.228 119.441 331.197 115.175 334.453 116.68C337.709 118.186 330.484 127.343 327.228 125.658" fill="white"/>
<path d="M327.228 119.441C327.228 119.441 331.197 115.175 334.453 116.68C337.709 118.186 330.484 127.343 327.228 125.658" stroke="#263238" stroke-linecap="round" stroke-linejoin="round"/>
</svg>

