
<svg width="48" height="48" viewBox="0 0 48 48" fill="none" xmlns="http://www.w3.org/2000/svg">
<rect width="48" height="48" rx="24" fill="#E2E8F0"/>
<path d="M11.4347 31V16.4545H16.8892C18.0066 16.4545 18.9441 16.6629 19.7017 17.0795C20.464 17.4962 21.0393 18.0691 21.4276 18.7983C21.8205 19.5227 22.017 20.3466 22.017 21.2699C22.017 22.2027 21.8205 23.0312 21.4276 23.7557C21.0346 24.4801 20.4545 25.0507 19.6875 25.4673C18.9205 25.8793 17.9759 26.0852 16.8537 26.0852H13.2386V23.919H16.4986C17.152 23.919 17.687 23.8054 18.1037 23.5781C18.5204 23.3509 18.8281 23.0384 19.027 22.6406C19.2306 22.2429 19.3324 21.786 19.3324 21.2699C19.3324 20.7538 19.2306 20.2992 19.027 19.9062C18.8281 19.5133 18.518 19.2079 18.0966 18.9901C17.6799 18.7675 17.1425 18.6562 16.4844 18.6562H14.0696V31H11.4347ZM24.1921 31V20.0909H26.7631V31H24.1921ZM25.4847 18.5426C25.0775 18.5426 24.7272 18.4077 24.4336 18.1378C24.14 17.8632 23.9933 17.5341 23.9933 17.1506C23.9933 16.7623 24.14 16.4332 24.4336 16.1634C24.7272 15.8887 25.0775 15.7514 25.4847 15.7514C25.8967 15.7514 26.247 15.8887 26.5359 16.1634C26.8294 16.4332 26.9762 16.7623 26.9762 17.1506C26.9762 17.5341 26.8294 17.8632 26.5359 18.1378C26.247 18.4077 25.8967 18.5426 25.4847 18.5426ZM34.1655 31.2131C33.0765 31.2131 32.1413 30.974 31.3601 30.4957C30.5836 30.0175 29.9846 29.357 29.5632 28.5142C29.1465 27.6667 28.9382 26.6913 28.9382 25.5881C28.9382 24.4801 29.1513 23.5024 29.5774 22.6548C30.0036 21.8026 30.6049 21.1397 31.3814 20.6662C32.1626 20.188 33.0859 19.9489 34.1513 19.9489C35.0367 19.9489 35.8203 20.1122 36.5021 20.4389C37.1887 20.7609 37.7356 21.2178 38.1428 21.8097C38.55 22.3968 38.782 23.0833 38.8388 23.8693H36.3814C36.282 23.3437 36.0452 22.9058 35.6712 22.5554C35.3018 22.2003 34.8071 22.0227 34.1868 22.0227C33.6612 22.0227 33.1996 22.1648 32.8018 22.4489C32.4041 22.7282 32.094 23.1307 31.8714 23.6562C31.6536 24.1818 31.5447 24.8116 31.5447 25.5455C31.5447 26.2888 31.6536 26.928 31.8714 27.4631C32.0893 27.9934 32.3946 28.4029 32.7876 28.6918C33.1854 28.9759 33.6518 29.1179 34.1868 29.1179C34.5656 29.1179 34.9041 29.0469 35.2024 28.9048C35.5054 28.758 35.7588 28.5473 35.9624 28.2727C36.166 27.9981 36.3056 27.6643 36.3814 27.2713H38.8388C38.7772 28.0431 38.55 28.7273 38.157 29.3239C37.764 29.9157 37.2289 30.3797 36.5518 30.7159C35.8748 31.0473 35.0793 31.2131 34.1655 31.2131Z" fill="#73839B"/>
</svg>
