
<svg width="396" height="393" viewBox="0 0 396 393" fill="none" xmlns="http://www.w3.org/2000/svg">
<path d="M181.012 135.978C156.776 144.129 150.916 103.634 106.437 107.965C69.7831 111.494 35.2836 164.376 43.2036 206.718C52.7076 257.549 95.9429 290.985 125.572 291.268C158.836 291.598 177.471 273.976 208.47 263.255C244.372 250.82 299.78 258.649 329.377 233.308C357.889 208.903 362.023 146.589 345.906 112.909C329.908 79.4724 290.308 46.9871 254.406 63.328C215.06 81.2488 216.39 124.031 181.012 135.978Z" fill="#92E3A9"/>
<path opacity="0.7" d="M181.012 135.978C156.776 144.129 150.916 103.634 106.437 107.965C69.7831 111.494 35.2836 164.376 43.2036 206.718C52.7076 257.549 95.9429 290.985 125.572 291.268C158.836 291.598 177.471 273.976 208.47 263.255C244.372 250.82 299.78 258.649 329.377 233.308C357.889 208.903 362.023 146.589 345.906 112.909C329.908 79.4724 290.308 46.9871 254.406 63.328C215.06 81.2488 216.39 124.031 181.012 135.978Z" fill="white"/>
<path d="M34.2302 306.854H361.77" stroke="#263238" stroke-linecap="round" stroke-linejoin="round"/>
<path d="M200.566 333.696C262.98 333.696 313.577 330.441 313.577 326.426C313.577 322.41 262.98 319.155 200.566 319.155C138.152 319.155 87.5556 322.41 87.5556 326.426C87.5556 330.441 138.152 333.696 200.566 333.696Z" fill="#92E3A9"/>
<path d="M50.5138 174.366C50.5138 174.366 62.861 188.719 65.9894 221.99C69.1178 255.261 72.7294 279.525 72.7294 279.525" stroke="#263238" stroke-width="2" stroke-linecap="round" stroke-linejoin="round"/>
<path d="M30.9672 148.106C30.5037 148.049 30.0356 148.169 29.6568 148.44C29.2779 148.711 29.0161 149.114 28.9238 149.568C27.0943 158.804 19.1822 203.213 37.7309 197.357C53.1194 192.499 52.1136 181.322 50.585 175.923C50.5138 175.671 50.5156 175.404 50.5902 175.153C50.6649 174.902 50.8093 174.677 51.007 174.504C51.2046 174.331 51.4475 174.216 51.7077 174.174C51.9679 174.131 52.2348 174.163 52.4779 174.264C58.4813 176.724 71.5414 180.599 72.9828 168.432C74.646 154.418 39.2278 149.144 30.9672 148.106Z" fill="#92E3A9" stroke="#263238" stroke-linecap="round" stroke-linejoin="round"/>
<path d="M37.7309 156.186C41.4334 160.372 44.6629 164.947 47.3616 169.831" stroke="#263238" stroke-linecap="round" stroke-linejoin="round"/>
<path d="M32.0918 150.708C33.2347 151.626 34.3217 152.61 35.347 153.656" stroke="#263238" stroke-linecap="round" stroke-linejoin="round"/>
<path d="M45.936 172.92C45.936 172.92 40.7642 167.528 28.0764 169.855" stroke="#263238" stroke-linecap="round" stroke-linejoin="round"/>
<path d="M51.5988 154.677C53.0284 159.629 53.0284 164.88 51.5988 169.831" stroke="#263238" stroke-linecap="round" stroke-linejoin="round"/>
<path d="M30.2782 183.578C29.4629 184.28 28.7297 185.071 28.0922 185.936" stroke="#263238" stroke-linecap="round" stroke-linejoin="round"/>
<path d="M47.3616 177.534C47.3616 177.534 38.808 177.966 32.472 181.959" stroke="#263238" stroke-linecap="round" stroke-linejoin="round"/>
<path d="M54.4183 172.92C54.4183 172.92 64.049 170.091 66.4013 162.278" stroke="#263238" stroke-linecap="round" stroke-linejoin="round"/>
<path d="M85.243 222.548C85.243 222.548 78.1862 230.754 76.3963 249.783C74.6064 268.812 72.5393 282.693 72.5393 282.693" stroke="#263238" stroke-width="2" stroke-linecap="round" stroke-linejoin="round"/>
<path d="M95.7607 208.369C96.0271 208.336 96.296 208.405 96.5135 208.561C96.731 208.717 96.8809 208.949 96.9329 209.21C97.9783 214.484 102.477 239.864 91.8958 236.539C83.0966 233.757 83.6748 227.367 84.546 224.278C84.5921 224.132 84.5948 223.977 84.5538 223.831C84.5128 223.684 84.4298 223.553 84.315 223.452C84.2001 223.351 84.0583 223.286 83.9067 223.264C83.7551 223.241 83.6003 223.263 83.461 223.326C80.0316 224.741 72.563 226.95 71.7394 219.994C70.789 211.977 91.08 208.966 95.7607 208.369Z" fill="#92E3A9" stroke="#263238" stroke-linecap="round" stroke-linejoin="round"/>
<path d="M91.872 213.006C89.744 215.401 87.885 218.018 86.328 220.811" stroke="#263238" stroke-linecap="round" stroke-linejoin="round"/>
<path d="M95.1271 209.862C94.4693 210.387 93.8451 210.951 93.258 211.552" stroke="#263238" stroke-linecap="round" stroke-linejoin="round"/>
<path d="M87.1913 222.548C87.1913 222.548 90.1534 219.459 97.4081 220.795" stroke="#263238" stroke-linecap="round" stroke-linejoin="round"/>
<path d="M83.952 212.126C83.1377 214.951 83.1377 217.947 83.952 220.772" stroke="#263238" stroke-linecap="round" stroke-linejoin="round"/>
<path d="M96.1567 228.655C96.6239 229.055 97.0437 229.506 97.4081 229.999" stroke="#263238" stroke-linecap="round" stroke-linejoin="round"/>
<path d="M86.3834 225.197C86.3834 225.197 91.2622 225.448 94.8974 227.728" stroke="#263238" stroke-linecap="round" stroke-linejoin="round"/>
<path d="M82.368 222.548C82.368 222.548 76.824 220.929 75.5172 216.457" stroke="#263238" stroke-linecap="round" stroke-linejoin="round"/>
<path d="M51.9394 214.9C51.9394 214.9 63.3283 228.144 66.1954 258.853C67.1378 268.568 68.112 277.458 68.9753 285.051" stroke="#263238" stroke-width="2" stroke-linecap="round" stroke-linejoin="round"/>
<path d="M30.294 205.233C29.9504 205.35 29.664 205.591 29.4922 205.909C29.3204 206.227 29.2758 206.597 29.3674 206.946C31.2602 214.02 41.0019 247.637 51.9156 237.286C60.984 228.687 56.4379 221.235 53.4996 217.989C53.3638 217.838 53.2736 217.653 53.2394 217.453C53.2051 217.254 53.2281 217.049 53.3058 216.862C53.3835 216.675 53.5128 216.513 53.6787 216.396C53.8447 216.278 54.0406 216.209 54.2441 216.197C59.2733 215.883 69.7118 214.161 66.5438 205.193C62.9086 194.857 36.432 203.165 30.294 205.233Z" fill="#92E3A9" stroke="#263238" stroke-linecap="round" stroke-linejoin="round"/>
<path opacity="0.2" d="M30.294 205.233C29.9504 205.35 29.664 205.591 29.4922 205.909C29.3204 206.227 29.2758 206.597 29.3674 206.946C31.2602 214.02 41.0019 247.637 51.9156 237.286C60.984 228.687 56.4379 221.235 53.4996 217.989C53.3638 217.838 53.2736 217.653 53.2394 217.453C53.2051 217.254 53.2281 217.049 53.3058 216.862C53.3835 216.675 53.5128 216.513 53.6787 216.396C53.8447 216.278 54.0406 216.209 54.2441 216.197C59.2733 215.883 69.7118 214.161 66.5438 205.193C62.9086 194.857 36.432 203.165 30.294 205.233Z" fill="#263238"/>
<path d="M37.7784 208.573C41.8 210.25 45.6245 212.358 49.1832 214.861" stroke="#263238" stroke-linecap="round" stroke-linejoin="round"/>
<path d="M31.9651 206.663C33.0767 206.916 34.1717 207.237 35.244 207.622" stroke="#263238" stroke-linecap="round" stroke-linejoin="round"/>
<path d="M49.2545 217.447C49.2545 217.447 43.7976 215.435 35.743 221.377" stroke="#263238" stroke-linecap="round" stroke-linejoin="round"/>
<path d="M46.926 202.835C49.6245 205.803 51.4277 209.463 52.1294 213.399" stroke="#263238" stroke-linecap="round" stroke-linejoin="round"/>
<path d="M41.976 230.204C41.6479 230.96 41.4062 231.751 41.2553 232.562" stroke="#263238" stroke-linecap="round" stroke-linejoin="round"/>
<path d="M51.8285 220.198C51.8285 220.198 46.031 223.389 42.9739 228.325" stroke="#263238" stroke-linecap="round" stroke-linejoin="round"/>
<path d="M55.1549 214.578C55.1549 214.578 60.8969 209.343 59.8514 203.103" stroke="#263238" stroke-linecap="round" stroke-linejoin="round"/>
<path d="M76.032 306.855H64.5638C62.42 306.854 60.3576 306.039 58.7995 304.578C57.2415 303.116 56.3058 301.119 56.1845 298.995L55.0123 276.546H85.5914L84.4193 298.995C84.296 301.119 83.3587 303.117 81.7993 304.578C80.24 306.04 78.1767 306.854 76.032 306.855Z" fill="#999999" stroke="#263238" stroke-linecap="round" stroke-linejoin="round"/>
<path d="M243.69 272.907C243.912 270.777 249.931 213.957 250.161 211.804C250.365 210.141 251.166 208.608 252.417 207.485C253.668 206.361 255.285 205.724 256.972 205.688H346.215L338.445 279.03H249.203C248.417 279.046 247.637 278.893 246.916 278.582C246.196 278.271 245.552 277.808 245.028 277.227C244.504 276.645 244.114 275.958 243.883 275.212C243.652 274.467 243.586 273.68 243.69 272.907Z" fill="#92E3A9"/>
<mask id="mask0_507_1859" style="mask-type:luminance" maskUnits="userSpaceOnUse" x="243" y="205" width="104" height="75">
<path d="M243.69 272.907C243.912 270.777 249.931 213.957 250.161 211.804C250.365 210.141 251.166 208.608 252.417 207.485C253.668 206.361 255.285 205.724 256.972 205.688H346.215L338.445 279.03H249.203C248.417 279.046 247.637 278.893 246.916 278.582C246.196 278.271 245.552 277.808 245.028 277.227C244.504 276.645 244.114 275.958 243.883 275.212C243.652 274.467 243.586 273.68 243.69 272.907Z" fill="white"/>
</mask>
<g mask="url(#mask0_507_1859)">
<path opacity="0.6" d="M243.69 272.907C243.912 270.777 249.931 213.957 250.161 211.804C250.365 210.141 251.166 208.608 252.417 207.485C253.668 206.361 255.285 205.724 256.972 205.688H346.215L338.445 279.03H249.203C248.417 279.046 247.637 278.893 246.916 278.582C246.196 278.271 245.552 277.808 245.028 277.227C244.504 276.645 244.114 275.958 243.883 275.212C243.652 274.467 243.586 273.68 243.69 272.907Z" fill="white"/>
</g>
<path d="M243.69 272.907C243.912 270.777 249.931 213.957 250.161 211.804C250.365 210.141 251.166 208.608 252.417 207.485C253.668 206.361 255.285 205.724 256.972 205.688H346.215L338.445 279.03H249.203C248.417 279.046 247.637 278.893 246.916 278.582C246.196 278.271 245.552 277.808 245.028 277.227C244.504 276.645 244.114 275.958 243.883 275.212C243.652 274.467 243.586 273.68 243.69 272.907Z" stroke="#263238" stroke-linecap="round" stroke-linejoin="round"/>
<path d="M338.437 220.866C338.976 215.789 339.348 212.299 339.404 211.796C339.607 210.133 340.408 208.6 341.659 207.477C342.911 206.353 344.528 205.716 346.215 205.681C347.003 205.66 347.785 205.81 348.509 206.118C349.233 206.427 349.881 206.888 350.408 207.469C350.935 208.051 351.328 208.738 351.562 209.485C351.795 210.232 351.862 211.02 351.759 211.796C351.482 214.429 345.565 270.266 345.288 272.899C345.085 274.562 344.284 276.097 343.033 277.221C341.782 278.346 340.165 278.985 338.477 279.022C337.689 279.041 336.906 278.891 336.182 278.581C335.459 278.272 334.811 277.81 334.284 277.228C333.757 276.646 333.364 275.958 333.13 275.211C332.897 274.463 332.83 273.675 332.933 272.899C333.091 271.429 335.998 243.974 337.867 226.352" fill="#92E3A9"/>
<mask id="mask1_507_1859" style="mask-type:luminance" maskUnits="userSpaceOnUse" x="332" y="205" width="20" height="75">
<path d="M338.437 220.866C338.976 215.789 339.348 212.299 339.404 211.796C339.607 210.133 340.408 208.6 341.659 207.477C342.911 206.353 344.528 205.716 346.215 205.681C347.003 205.66 347.785 205.81 348.509 206.118C349.233 206.427 349.881 206.888 350.408 207.469C350.935 208.051 351.328 208.738 351.562 209.485C351.795 210.232 351.862 211.02 351.759 211.796C351.482 214.429 345.565 270.266 345.288 272.899C345.085 274.562 344.284 276.097 343.033 277.221C341.782 278.346 340.165 278.985 338.477 279.022C337.689 279.041 336.906 278.891 336.182 278.581C335.459 278.272 334.811 277.81 334.284 277.228C333.757 276.646 333.364 275.958 333.13 275.211C332.897 274.463 332.83 273.675 332.933 272.899C333.091 271.429 335.998 243.974 337.867 226.352" fill="white"/>
</mask>
<g mask="url(#mask1_507_1859)">
<path opacity="0.3" d="M339.404 211.803C339.607 210.141 340.408 208.608 341.659 207.484C342.911 206.361 344.528 205.723 346.215 205.688C347.003 205.668 347.785 205.817 348.509 206.126C349.233 206.435 349.881 206.896 350.408 207.477C350.935 208.059 351.328 208.746 351.562 209.493C351.795 210.24 351.862 211.028 351.759 211.803C351.482 214.437 345.565 270.274 345.288 272.907C345.085 274.57 344.284 276.104 343.033 277.229C341.782 278.354 340.165 278.993 338.477 279.03C337.689 279.049 336.906 278.899 336.182 278.589C335.459 278.279 334.811 277.818 334.284 277.236C333.757 276.654 333.364 275.966 333.13 275.218C332.897 274.471 332.83 273.683 332.933 272.907C333.155 270.777 339.174 213.941 339.404 211.803Z" fill="white"/>
</g>
<path d="M338.437 220.866C338.976 215.789 339.348 212.299 339.404 211.796C339.607 210.133 340.408 208.6 341.659 207.477C342.911 206.353 344.528 205.716 346.215 205.681C347.003 205.66 347.785 205.81 348.509 206.118C349.233 206.427 349.881 206.888 350.408 207.469C350.935 208.051 351.328 208.738 351.562 209.485C351.795 210.232 351.862 211.02 351.759 211.796C351.482 214.429 345.565 270.266 345.288 272.899C345.085 274.562 344.284 276.097 343.033 277.221C341.782 278.346 340.165 278.985 338.477 279.022C337.689 279.041 336.906 278.891 336.182 278.581C335.459 278.272 334.811 277.81 334.284 277.228C333.757 276.646 333.364 275.958 333.13 275.211C332.897 274.463 332.83 273.675 332.933 272.899C333.091 271.429 335.998 243.974 337.867 226.352" stroke="#263238" stroke-linecap="round" stroke-linejoin="round"/>
<path d="M313.569 233.528H354.658C357.873 233.609 360.929 234.934 363.175 237.219C365.42 239.505 366.677 242.57 366.677 245.762C366.677 248.954 365.42 252.02 363.175 254.306C360.929 256.591 357.873 257.916 354.658 257.997V303.396C354.658 304.309 354.292 305.185 353.642 305.83C352.991 306.476 352.109 306.839 351.189 306.839H304.706C303.788 306.836 302.907 306.473 302.258 305.827C301.61 305.182 301.245 304.308 301.245 303.396V245.759C301.245 242.515 302.543 239.404 304.855 237.11C307.166 234.817 310.3 233.528 313.569 233.528Z" fill="#92E3A9"/>
<mask id="mask2_507_1859" style="mask-type:luminance" maskUnits="userSpaceOnUse" x="301" y="233" width="66" height="74">
<path d="M313.569 233.528H354.658C357.873 233.609 360.929 234.934 363.175 237.219C365.42 239.505 366.677 242.57 366.677 245.762C366.677 248.954 365.42 252.02 363.175 254.306C360.929 256.591 357.873 257.916 354.658 257.997V303.396C354.658 304.309 354.292 305.185 353.642 305.83C352.991 306.476 352.109 306.839 351.189 306.839H304.706C303.788 306.836 302.907 306.473 302.258 305.827C301.61 305.182 301.245 304.308 301.245 303.396V245.759C301.245 242.515 302.543 239.404 304.855 237.11C307.166 234.817 310.3 233.528 313.569 233.528Z" fill="white"/>
</mask>
<g mask="url(#mask2_507_1859)">
<path opacity="0.6" d="M313.569 233.528H354.658C357.873 233.609 360.929 234.934 363.175 237.219C365.42 239.505 366.677 242.57 366.677 245.762C366.677 248.954 365.42 252.02 363.175 254.306C360.929 256.591 357.873 257.916 354.658 257.997V303.396C354.658 304.309 354.292 305.185 353.642 305.83C352.991 306.476 352.109 306.839 351.189 306.839H304.706C303.788 306.836 302.907 306.473 302.258 305.827C301.61 305.182 301.245 304.308 301.245 303.396V245.759C301.245 242.515 302.543 239.404 304.855 237.11C307.166 234.817 310.3 233.528 313.569 233.528Z" fill="white"/>
</g>
<path d="M313.569 233.528H354.658C357.873 233.609 360.929 234.934 363.175 237.219C365.42 239.505 366.677 242.57 366.677 245.762C366.677 248.954 365.42 252.02 363.175 254.306C360.929 256.591 357.873 257.916 354.658 257.997V303.396C354.658 304.309 354.292 305.185 353.642 305.83C352.991 306.476 352.109 306.839 351.189 306.839H304.706C303.788 306.836 302.907 306.473 302.258 305.827C301.61 305.182 301.245 304.308 301.245 303.396V245.759C301.245 242.515 302.543 239.404 304.855 237.11C307.166 234.817 310.3 233.528 313.569 233.528Z" stroke="#263238" stroke-linecap="round" stroke-linejoin="round"/>
<path d="M234.503 233.528H193.414C190.199 233.609 187.143 234.934 184.897 237.219C182.652 239.505 181.395 242.57 181.395 245.762C181.395 248.954 182.652 252.02 184.897 254.306C187.143 256.591 190.199 257.916 193.414 257.997V303.396C193.414 304.309 193.78 305.185 194.43 305.83C195.081 306.476 195.963 306.839 196.883 306.839H243.366C244.284 306.836 245.165 306.473 245.814 305.827C246.462 305.182 246.827 304.308 246.827 303.396V245.759C246.827 242.515 245.528 239.404 243.217 237.11C240.906 234.817 237.772 233.528 234.503 233.528Z" fill="#92E3A9"/>
<mask id="mask3_507_1859" style="mask-type:luminance" maskUnits="userSpaceOnUse" x="181" y="233" width="66" height="74">
<path d="M234.503 233.528H193.414C190.199 233.609 187.143 234.934 184.897 237.219C182.652 239.505 181.395 242.57 181.395 245.762C181.395 248.954 182.652 252.02 184.897 254.306C187.143 256.591 190.199 257.916 193.414 257.997V303.396C193.414 304.309 193.78 305.185 194.43 305.83C195.081 306.476 195.963 306.839 196.883 306.839H243.366C244.284 306.836 245.165 306.473 245.814 305.827C246.462 305.182 246.827 304.308 246.827 303.396V245.759C246.827 242.515 245.528 239.404 243.217 237.11C240.906 234.817 237.772 233.528 234.503 233.528Z" fill="white"/>
</mask>
<g mask="url(#mask3_507_1859)">
<path opacity="0.3" d="M234.503 233.528H193.414C190.199 233.609 187.143 234.934 184.897 237.219C182.652 239.505 181.395 242.57 181.395 245.762C181.395 248.954 182.652 252.02 184.897 254.306C187.143 256.591 190.199 257.916 193.414 257.997V303.396C193.414 304.309 193.78 305.185 194.43 305.83C195.081 306.476 195.963 306.839 196.883 306.839H243.366C244.284 306.836 245.165 306.473 245.814 305.827C246.462 305.182 246.827 304.308 246.827 303.396V245.759C246.827 242.515 245.528 239.404 243.217 237.11C240.906 234.817 237.772 233.528 234.503 233.528Z" fill="white"/>
</g>
<path d="M234.503 233.528H193.414C190.199 233.609 187.143 234.934 184.897 237.219C182.652 239.505 181.395 242.57 181.395 245.762C181.395 248.954 182.652 252.02 184.897 254.306C187.143 256.591 190.199 257.916 193.414 257.997V303.396C193.414 304.309 193.78 305.185 194.43 305.83C195.081 306.476 195.963 306.839 196.883 306.839H243.366C244.284 306.836 245.165 306.473 245.814 305.827C246.462 305.182 246.827 304.308 246.827 303.396V245.759C246.827 242.515 245.528 239.404 243.217 237.11C240.906 234.817 237.772 233.528 234.503 233.528Z" stroke="#263238" stroke-linecap="round" stroke-linejoin="round"/>
<path d="M193.414 233.528C190.199 233.609 187.143 234.934 184.897 237.219C182.652 239.505 181.395 242.57 181.395 245.762C181.395 248.954 182.652 252.02 184.897 254.306C187.143 256.591 190.199 257.916 193.414 257.997V303.396C193.414 304.309 193.78 305.185 194.43 305.83C195.081 306.476 195.963 306.839 196.883 306.839H202.277C203.197 306.839 204.079 306.476 204.73 305.83C205.38 305.185 205.746 304.309 205.746 303.396V245.759C205.744 242.514 204.444 239.403 202.131 237.11C199.819 234.817 196.683 233.528 193.414 233.528Z" fill="#92E3A9" stroke="#263238" stroke-linecap="round" stroke-linejoin="round"/>
<path d="M193.414 233.528C190.199 233.609 187.143 234.934 184.897 237.219C182.652 239.505 181.395 242.57 181.395 245.762C181.395 248.954 182.652 252.02 184.897 254.306C187.143 256.591 190.199 257.916 193.414 257.997V303.396C193.414 304.309 193.78 305.185 194.43 305.83C195.081 306.476 195.963 306.839 196.883 306.839H202.277C203.197 306.839 204.079 306.476 204.73 305.83C205.38 305.185 205.746 304.309 205.746 303.396V245.759C205.744 242.514 204.444 239.403 202.131 237.11C199.819 234.817 196.683 233.528 193.414 233.528Z" fill="#92E3A9"/>
<mask id="mask4_507_1859" style="mask-type:luminance" maskUnits="userSpaceOnUse" x="181" y="233" width="25" height="74">
<path d="M193.414 233.528C190.199 233.609 187.143 234.934 184.897 237.219C182.652 239.505 181.395 242.57 181.395 245.762C181.395 248.954 182.652 252.02 184.897 254.306C187.143 256.591 190.199 257.916 193.414 257.997V303.396C193.414 304.309 193.78 305.185 194.43 305.83C195.081 306.476 195.963 306.839 196.883 306.839H202.277C203.197 306.839 204.079 306.476 204.73 305.83C205.38 305.185 205.746 304.309 205.746 303.396V245.759C205.744 242.514 204.444 239.403 202.131 237.11C199.819 234.817 196.683 233.528 193.414 233.528Z" fill="white"/>
</mask>
<g mask="url(#mask4_507_1859)">
<path opacity="0.6" d="M193.414 233.528C190.199 233.609 187.143 234.934 184.897 237.219C182.652 239.505 181.395 242.57 181.395 245.762C181.395 248.954 182.652 252.02 184.897 254.306C187.143 256.591 190.199 257.916 193.414 257.997V303.396C193.414 304.309 193.78 305.185 194.43 305.83C195.081 306.476 195.963 306.839 196.883 306.839H202.277C203.197 306.839 204.079 306.476 204.73 305.83C205.38 305.185 205.746 304.309 205.746 303.396V245.759C205.744 242.514 204.444 239.403 202.131 237.11C199.819 234.817 196.683 233.528 193.414 233.528Z" fill="white"/>
</g>
<path d="M193.414 233.528C190.199 233.609 187.143 234.934 184.897 237.219C182.652 239.505 181.395 242.57 181.395 245.762C181.395 248.954 182.652 252.02 184.897 254.306C187.143 256.591 190.199 257.916 193.414 257.997V303.396C193.414 304.309 193.78 305.185 194.43 305.83C195.081 306.476 195.963 306.839 196.883 306.839H202.277C203.197 306.839 204.079 306.476 204.73 305.83C205.38 305.185 205.746 304.309 205.746 303.396V245.759C205.744 242.514 204.444 239.403 202.131 237.11C199.819 234.817 196.683 233.528 193.414 233.528Z" stroke="#263238" stroke-linecap="round" stroke-linejoin="round"/>
<path d="M213.396 287.865V301.376C213.396 302.835 213.981 304.235 215.02 305.267C216.06 306.299 217.47 306.878 218.94 306.878H295.764C297.235 306.878 298.645 306.299 299.685 305.267C300.724 304.235 301.308 302.835 301.308 301.376V277.796C301.31 277.239 301.224 276.685 301.055 276.153C301.22 275.686 301.306 275.195 301.308 274.699V269.983C301.308 269.411 301.195 268.845 300.974 268.317C300.754 267.789 300.431 267.309 300.023 266.904C299.616 266.5 299.132 266.179 298.6 265.96C298.068 265.742 297.497 265.629 296.921 265.629H210.126C208.963 265.631 207.849 266.091 207.028 266.907C206.207 267.723 205.746 268.83 205.746 269.983V274.699C205.746 275.853 206.207 276.959 207.028 277.776C207.849 278.592 208.963 279.052 210.126 279.054H213.396V283.565" fill="#92E3A9"/>
<mask id="mask5_507_1859" style="mask-type:luminance" maskUnits="userSpaceOnUse" x="205" y="265" width="97" height="42">
<path d="M213.396 287.865V301.376C213.396 302.835 213.981 304.235 215.02 305.267C216.06 306.299 217.47 306.878 218.94 306.878H295.764C297.235 306.878 298.645 306.299 299.685 305.267C300.724 304.235 301.308 302.835 301.308 301.376V277.796C301.31 277.239 301.224 276.685 301.055 276.153C301.22 275.686 301.306 275.195 301.308 274.699V269.983C301.308 269.411 301.195 268.845 300.974 268.317C300.754 267.789 300.431 267.309 300.023 266.904C299.616 266.5 299.132 266.179 298.6 265.96C298.068 265.742 297.497 265.629 296.921 265.629H210.126C208.963 265.631 207.849 266.091 207.028 266.907C206.207 267.723 205.746 268.83 205.746 269.983V274.699C205.746 275.853 206.207 276.959 207.028 277.776C207.849 278.592 208.963 279.052 210.126 279.054H213.396V283.565" fill="white"/>
</mask>
<g mask="url(#mask5_507_1859)">
<path opacity="0.3" d="M301.245 269.92C301.245 268.765 300.783 267.658 299.96 266.841C299.137 266.025 298.021 265.566 296.857 265.566H210.126C208.963 265.568 207.849 266.028 207.028 266.844C206.207 267.66 205.746 268.767 205.746 269.92V274.636C205.746 275.79 206.207 276.896 207.028 277.713C207.849 278.529 208.963 278.989 210.126 278.991H213.396V301.337C213.396 302.796 213.981 304.195 215.02 305.227C216.06 306.259 217.47 306.839 218.94 306.839H295.764C297.235 306.839 298.645 306.259 299.685 305.227C300.724 304.195 301.308 302.796 301.308 301.337V277.757C301.31 277.2 301.224 276.645 301.055 276.114C301.22 275.647 301.306 275.155 301.308 274.66L301.245 269.92Z" fill="white"/>
</g>
<path d="M213.396 287.865V301.376C213.396 302.835 213.981 304.235 215.02 305.267C216.06 306.299 217.47 306.878 218.94 306.878H295.764C297.235 306.878 298.645 306.299 299.685 305.267C300.724 304.235 301.308 302.835 301.308 301.376V277.796C301.31 277.239 301.224 276.685 301.055 276.153C301.221 275.686 301.306 275.195 301.308 274.699V269.983C301.308 269.411 301.195 268.845 300.974 268.317C300.754 267.789 300.431 267.309 300.023 266.904C299.616 266.5 299.132 266.179 298.6 265.96C298.068 265.742 297.497 265.629 296.921 265.629H210.126C208.963 265.631 207.849 266.091 207.028 266.907C206.207 267.723 205.746 268.83 205.746 269.983V274.699C205.746 275.853 206.207 276.959 207.028 277.776C207.849 278.592 208.963 279.052 210.126 279.054H213.396V283.565" stroke="#263238" stroke-linecap="round" stroke-linejoin="round"/>
<path d="M356.511 245.759H366.981C366.981 249.003 365.683 252.115 363.372 254.41C361.061 256.704 357.927 257.995 354.658 257.997H313.569C316.839 257.997 319.976 256.707 322.288 254.412C324.601 252.117 325.9 249.005 325.9 245.759H351.759" fill="#92E3A9"/>
<mask id="mask6_507_1859" style="mask-type:luminance" maskUnits="userSpaceOnUse" x="313" y="245" width="54" height="13">
<path d="M356.511 245.759H366.981C366.981 249.003 365.683 252.115 363.372 254.41C361.061 256.704 357.927 257.995 354.658 257.997H313.569C316.839 257.997 319.976 256.707 322.288 254.412C324.601 252.117 325.9 249.005 325.9 245.759H351.759" fill="white"/>
</mask>
<g mask="url(#mask6_507_1859)">
<g opacity="0.3">
<path d="M325.9 245.759H366.981C366.981 249.003 365.683 252.115 363.372 254.41C361.061 256.704 357.927 257.995 354.658 257.997H313.569C316.839 257.997 319.976 256.707 322.288 254.412C324.601 252.117 325.9 249.005 325.9 245.759Z" fill="white"/>
</g>
</g>
<path d="M356.511 245.759H366.981C366.981 249.003 365.683 252.115 363.372 254.41C361.061 256.704 357.927 257.995 354.658 257.997H313.569C316.839 257.997 319.976 256.707 322.288 254.412C324.601 252.117 325.9 249.005 325.9 245.759H351.759" stroke="#263238" stroke-linecap="round" stroke-linejoin="round"/>
<path d="M118.008 75.4561H100.766C97.5923 75.4561 94.5484 76.7073 92.3041 78.9346C90.0599 81.1619 88.799 84.1827 88.799 87.3325V276.586C88.799 279.735 90.0599 282.756 92.3041 284.984C94.5484 287.211 97.5923 288.462 100.766 288.462H118.008V75.4561Z" fill="#999999" stroke="#263238" stroke-linecap="round" stroke-linejoin="round"/>
<path d="M91.9908 107.501H89.7732C88.5485 107.501 87.5556 108.487 87.5556 109.702V123.638C87.5556 124.854 88.5485 125.839 89.7732 125.839H91.9908C93.2155 125.839 94.2084 124.854 94.2084 123.638V109.702C94.2084 108.487 93.2155 107.501 91.9908 107.501Z" fill="#263238" stroke="#263238" stroke-linecap="round" stroke-linejoin="round"/>
<path d="M91.9908 109.702C91.9908 109.119 91.7572 108.559 91.3413 108.146C90.9254 107.733 90.3613 107.501 89.7732 107.501C89.1851 107.501 88.621 107.733 88.2051 108.146C87.7892 108.559 87.5556 109.119 87.5556 109.702V123.638C87.5556 124.222 87.7892 124.782 88.2051 125.194C88.621 125.607 89.1851 125.839 89.7732 125.839C90.3613 125.839 90.9254 125.607 91.3413 125.194C91.7572 124.782 91.9908 124.222 91.9908 123.638V109.702Z" fill="#92E3A9" stroke="#263238" stroke-linecap="round" stroke-linejoin="round"/>
<path d="M91.9908 130.24H89.7732C88.5485 130.24 87.5556 131.226 87.5556 132.441V136.316C87.5556 137.531 88.5485 138.517 89.7732 138.517H91.9908C93.2155 138.517 94.2084 137.531 94.2084 136.316V132.441C94.2084 131.226 93.2155 130.24 91.9908 130.24Z" fill="#263238" stroke="#263238" stroke-linecap="round" stroke-linejoin="round"/>
<path d="M91.9908 132.441C91.9908 131.857 91.7572 131.298 91.3413 130.885C90.9254 130.472 90.3613 130.24 89.7732 130.24C89.1851 130.24 88.621 130.472 88.2051 130.885C87.7892 131.298 87.5556 131.857 87.5556 132.441V136.316C87.5556 136.9 87.7892 137.459 88.2051 137.872C88.621 138.285 89.1851 138.517 89.7732 138.517C90.3613 138.517 90.9254 138.285 91.3413 137.872C91.7572 137.459 91.9908 136.9 91.9908 136.316V132.441Z" fill="#92E3A9" stroke="#263238" stroke-linecap="round" stroke-linejoin="round"/>
<path d="M188.504 75.4561H108.686C102.077 75.4561 96.719 80.7733 96.719 87.3325V276.586C96.719 283.145 102.077 288.462 108.686 288.462H188.504C195.113 288.462 200.471 283.145 200.471 276.586V87.3325C200.471 80.7733 195.113 75.4561 188.504 75.4561Z" fill="#92E3A9"/>
<mask id="mask7_507_1859" style="mask-type:luminance" maskUnits="userSpaceOnUse" x="96" y="75" width="105" height="214">
<path d="M188.504 75.4561H108.686C102.077 75.4561 96.719 80.7733 96.719 87.3325V276.586C96.719 283.145 102.077 288.462 108.686 288.462H188.504C195.113 288.462 200.471 283.145 200.471 276.586V87.3325C200.471 80.7733 195.113 75.4561 188.504 75.4561Z" fill="white"/>
</mask>
<g mask="url(#mask7_507_1859)">
<path opacity="0.5" d="M188.504 75.4561H108.686C102.077 75.4561 96.719 80.7733 96.719 87.3325V276.586C96.719 283.145 102.077 288.462 108.686 288.462H188.504C195.113 288.462 200.471 283.145 200.471 276.586V87.3325C200.471 80.7733 195.113 75.4561 188.504 75.4561Z" fill="white"/>
<path opacity="0.3" d="M81.9958 277.458H39.9326L182.58 82.5303H224.643L81.9958 277.458Z" fill="white"/>
<path opacity="0.3" d="M99.5465 277.458H90.2484L232.903 82.5303H242.202L99.5465 277.458Z" fill="white"/>
</g>
<path d="M188.504 75.4561H108.686C102.077 75.4561 96.719 80.7733 96.719 87.3325V276.586C96.719 283.145 102.077 288.462 108.686 288.462H188.504C195.113 288.462 200.471 283.145 200.471 276.586V87.3325C200.471 80.7733 195.113 75.4561 188.504 75.4561Z" stroke="#263238" stroke-linecap="round" stroke-linejoin="round"/>
<path d="M188.496 75.4561H108.686C105.512 75.4561 102.468 76.7073 100.224 78.9346C97.9799 81.1619 96.719 84.1827 96.719 87.3325V89.6041H200.471V87.3325C200.469 84.182 199.206 81.1612 196.961 78.9341C194.715 76.7071 191.671 75.4561 188.496 75.4561Z" fill="#263238" stroke="#263238" stroke-linecap="round" stroke-linejoin="round"/>
<path d="M151.494 84.5107C151.775 84.546 152.06 84.5216 152.331 84.439C152.602 84.3564 152.852 84.2176 153.064 84.0317C153.277 83.8458 153.447 83.6172 153.564 83.3609C153.68 83.1047 153.741 82.8268 153.741 82.5457C153.741 82.2645 153.68 81.9866 153.564 81.7304C153.447 81.4742 153.277 81.2455 153.064 81.0596C152.852 80.8738 152.602 80.7349 152.331 80.6523C152.06 80.5697 151.775 80.5453 151.494 80.5807H138.822C138.541 80.5453 138.255 80.5697 137.985 80.6523C137.714 80.7349 137.464 80.8738 137.251 81.0596C137.039 81.2455 136.868 81.4742 136.752 81.7304C136.635 81.9866 136.575 82.2645 136.575 82.5457C136.575 82.8268 136.635 83.1047 136.752 83.3609C136.868 83.6172 137.039 83.8458 137.251 84.0317C137.464 84.2176 137.714 84.3564 137.985 84.439C138.255 84.5216 138.541 84.546 138.822 84.5107H151.494Z" fill="#999999" stroke="#263238" stroke-linecap="round" stroke-linejoin="round"/>
<path d="M158.337 84.5108C159.439 84.5108 160.332 83.624 160.332 82.53C160.332 81.4361 159.439 80.5493 158.337 80.5493C157.234 80.5493 156.341 81.4361 156.341 82.53C156.341 83.624 157.234 84.5108 158.337 84.5108Z" fill="#999999" stroke="#263238" stroke-linecap="round" stroke-linejoin="round"/>
<path d="M96.719 268.812V276.586C96.719 279.735 97.9799 282.756 100.224 284.983C102.468 287.211 105.512 288.462 108.686 288.462H188.496C191.671 288.462 194.715 287.211 196.961 284.984C199.206 282.757 200.469 279.736 200.471 276.586V268.812H96.719Z" fill="#263238" stroke="#263238" stroke-linecap="round" stroke-linejoin="round"/>
<path d="M148.595 284.571C151.897 284.571 154.575 281.914 154.575 278.637C154.575 275.36 151.897 272.703 148.595 272.703C145.293 272.703 142.615 275.36 142.615 278.637C142.615 281.914 145.293 284.571 148.595 284.571Z" fill="#999999" stroke="#263238" stroke-linecap="round" stroke-linejoin="round"/>
<path d="M147.011 155.204C162.478 155.204 175.016 142.76 175.016 127.411C175.016 112.061 162.478 99.6177 147.011 99.6177C131.544 99.6177 119.006 112.061 119.006 127.411C119.006 142.76 131.544 155.204 147.011 155.204Z" fill="#999999"/>
<path d="M148.595 153.632C164.062 153.632 176.6 141.188 176.6 125.839C176.6 110.489 164.062 98.0459 148.595 98.0459C133.128 98.0459 120.59 110.489 120.59 125.839C120.59 141.188 133.128 153.632 148.595 153.632Z" fill="white"/>
<mask id="mask8_507_1859" style="mask-type:luminance" maskUnits="userSpaceOnUse" x="120" y="98" width="57" height="56">
<path d="M148.595 153.632C164.062 153.632 176.6 141.188 176.6 125.839C176.6 110.489 164.062 98.0459 148.595 98.0459C133.128 98.0459 120.59 110.489 120.59 125.839C120.59 141.188 133.128 153.632 148.595 153.632Z" fill="white"/>
</mask>
<g mask="url(#mask8_507_1859)">
<path d="M130.482 157.365L130.015 153.702C129.444 149.261 140.192 143.696 140.192 143.696L150.86 145.308L156.563 141.331C167.952 143.689 166.312 145.952 166.581 149.096C166.732 150.825 167.049 152.759 167.049 152.759L130.482 157.365Z" fill="#92E3A9" stroke="#263238" stroke-linecap="round" stroke-linejoin="round"/>
<path d="M143.186 128.59C143.186 128.59 145.562 133.903 141.887 142.573L150.844 145.08L154.464 140.985L152.333 131.506L143.186 128.59Z" fill="white"/>
<mask id="mask9_507_1859" style="mask-type:luminance" maskUnits="userSpaceOnUse" x="141" y="128" width="14" height="18">
<path d="M143.186 128.59C143.186 128.59 145.562 133.903 141.887 142.573L150.844 145.08L154.464 140.985L152.333 131.506L143.186 128.59Z" fill="white"/>
</mask>
<g mask="url(#mask9_507_1859)">
<path d="M142.806 129.454C142.806 129.454 145.459 139.232 154.686 138.886C163.912 138.54 145.791 127.489 145.791 127.489L143.558 127.332L142.806 129.454Z" fill="#263238"/>
</g>
<path d="M143.186 128.59C143.186 128.59 145.562 133.903 141.887 142.573L150.844 145.08L154.464 140.985L152.333 131.506L143.186 128.59Z" stroke="#263238" stroke-linecap="round" stroke-linejoin="round"/>
<path d="M143.186 128.59C143.186 128.59 139.44 128.212 138.038 116.682C136.897 107.328 142.615 101.032 150.155 101.143C158.234 101.268 163.231 110.378 168.047 110.936C168.047 110.936 163.295 112.948 161.457 111.761C161.457 111.761 165.227 114.905 161.829 116.477C158.432 118.049 143.186 128.59 143.186 128.59Z" fill="#263238" stroke="#263238" stroke-miterlimit="10"/>
<path d="M161.568 114.135L162.503 121.453C162.503 121.453 164.087 126.42 162.708 130.232C161.33 134.045 159.77 138.344 155.216 137.401C150.662 136.458 146.813 136.332 143.225 128.59L144.207 125.123C144.207 125.123 141.61 125.178 141.174 120.588C140.738 115.998 145.237 118.828 145.237 118.828C146.465 116.653 147.098 114.199 147.074 111.706C147.011 107.619 154.551 114.112 159.002 112.94L155.652 109.388C155.652 109.388 160.554 111.675 161.568 114.135Z" fill="white" stroke="#263238" stroke-linecap="round" stroke-linejoin="round"/>
<path d="M157.442 121.634L159.715 124.738C159.796 124.846 159.85 124.971 159.873 125.103C159.896 125.235 159.886 125.371 159.846 125.499C159.806 125.627 159.736 125.744 159.641 125.84C159.547 125.936 159.431 126.008 159.303 126.051L157.038 126.837" stroke="#263238" stroke-linecap="round" stroke-linejoin="round"/>
<path d="M151.003 129.281C151.003 129.281 153.078 131.144 157.062 130.067" stroke="#263238" stroke-linecap="round" stroke-linejoin="round"/>
<path d="M152.199 121.295C152.199 122.081 151.961 122.734 151.613 122.742C151.264 122.75 150.971 122.121 150.947 121.335C150.924 120.549 151.185 119.896 151.525 119.881C151.866 119.865 152.175 120.502 152.199 121.295Z" fill="#263238"/>
<path d="M159.841 121.044C159.841 121.83 159.604 122.483 159.255 122.49C158.907 122.498 158.614 121.87 158.59 121.084C158.566 120.298 158.82 119.645 159.168 119.637C159.517 119.629 159.818 120.258 159.841 121.044Z" fill="#263238"/>
<path d="M149.569 119.472C149.569 119.472 151.074 116.894 154.408 118.144" stroke="#263238" stroke-linecap="round" stroke-linejoin="round"/>
<path d="M158.4 118.018C158.4 118.018 160.119 116.509 161.639 118.859" stroke="#263238" stroke-linecap="round" stroke-linejoin="round"/>
<path d="M159.422 108.334C159.959 108.777 160.543 109.159 161.164 109.474" stroke="#7F7F7F" stroke-linecap="round" stroke-linejoin="round"/>
<path d="M142.307 115.353C142.307 115.353 141.451 107.014 147.106 104.263C151.288 102.227 155.747 105.536 158.685 107.776" stroke="#7F7F7F" stroke-linecap="round" stroke-linejoin="round"/>
<path d="M149.237 107.344C150.615 107.344 152.508 108.209 155.026 111.156" stroke="#7F7F7F" stroke-linecap="round" stroke-linejoin="round"/>
<path d="M146.29 109.443C146.541 108.894 146.915 108.41 147.383 108.028" stroke="#7F7F7F" stroke-linecap="round" stroke-linejoin="round"/>
<path d="M138.505 144.286L141.237 141.739L150.528 144.365L154.804 140.034L157.79 141.095L154.947 147.226L150.86 145.764L147.906 149.018L138.505 144.286Z" fill="#92E3A9"/>
<mask id="mask10_507_1859" style="mask-type:luminance" maskUnits="userSpaceOnUse" x="138" y="140" width="20" height="10">
<path d="M138.505 144.286L141.237 141.739L150.528 144.365L154.804 140.034L157.79 141.095L154.947 147.226L150.86 145.764L147.906 149.018L138.505 144.286Z" fill="white"/>
</mask>
<g mask="url(#mask10_507_1859)">
<path opacity="0.5" d="M138.505 144.286L141.237 141.739L150.528 144.365L154.804 140.034L157.79 141.095L154.947 147.226L150.86 145.764L147.906 149.018L138.505 144.286Z" fill="white"/>
</g>
<path d="M138.505 144.286L141.237 141.739L150.528 144.365L154.804 140.034L157.79 141.095L154.947 147.226L150.86 145.764L147.906 149.018L138.505 144.286Z" stroke="#263238" stroke-linecap="round" stroke-linejoin="round"/>
</g>
<path d="M148.595 153.632C164.062 153.632 176.6 141.188 176.6 125.839C176.6 110.489 164.062 98.0459 148.595 98.0459C133.128 98.0459 120.59 110.489 120.59 125.839C120.59 141.188 133.128 153.632 148.595 153.632Z" stroke="#263238" stroke-linecap="round" stroke-linejoin="round"/>
<path d="M168.664 138.517H159.651C157.211 138.517 155.232 140.48 155.232 142.902V151.847C155.232 154.269 157.211 156.233 159.651 156.233H168.664C171.105 156.233 173.084 154.269 173.084 151.847V142.902C173.084 140.48 171.105 138.517 168.664 138.517Z" fill="#92E3A9" stroke="#263238" stroke-linecap="round" stroke-linejoin="round"/>
<path d="M166.55 143.626C166.424 143.388 166.236 143.188 166.004 143.05C165.772 142.911 165.506 142.838 165.235 142.84H163.089C162.818 142.838 162.552 142.911 162.32 143.05C162.088 143.188 161.899 143.388 161.774 143.626" stroke="#263238" stroke-linecap="round" stroke-linejoin="round"/>
<path d="M160.356 144.066C159.968 144.066 159.595 144.219 159.32 144.492C159.045 144.765 158.891 145.134 158.891 145.52V150.48C158.891 150.865 159.045 151.235 159.32 151.508C159.595 151.781 159.968 151.934 160.356 151.934H167.959C168.153 151.935 168.344 151.898 168.523 151.825C168.701 151.753 168.864 151.646 169.001 151.511C169.138 151.376 169.246 151.215 169.32 151.038C169.394 150.861 169.433 150.671 169.433 150.48V145.52C169.433 145.328 169.394 145.139 169.32 144.962C169.246 144.785 169.138 144.624 169.001 144.489C168.864 144.354 168.701 144.247 168.523 144.174C168.344 144.102 168.153 144.065 167.959 144.066" stroke="#263238" stroke-linecap="round" stroke-linejoin="round"/>
<path d="M164.158 145.952C163.749 145.952 163.349 146.073 163.009 146.298C162.668 146.524 162.404 146.845 162.247 147.22C162.091 147.596 162.051 148.009 162.131 148.407C162.211 148.805 162.409 149.17 162.699 149.457C162.989 149.744 163.358 149.938 163.759 150.017C164.161 150.095 164.577 150.053 164.954 149.897C165.332 149.74 165.654 149.476 165.88 149.138C166.107 148.799 166.227 148.402 166.225 147.996C166.226 147.726 166.173 147.46 166.07 147.211C165.966 146.962 165.814 146.736 165.621 146.546C165.429 146.356 165.201 146.205 164.95 146.103C164.698 146.002 164.429 145.95 164.158 145.952Z" stroke="#263238" stroke-linecap="round" stroke-linejoin="round"/>
<path d="M183.34 244.886H112.266C108.382 244.886 105.233 248.011 105.233 251.866V258.343C105.233 262.197 108.382 265.322 112.266 265.322H183.34C187.224 265.322 190.373 262.197 190.373 258.343V251.866C190.373 248.011 187.224 244.886 183.34 244.886Z" fill="#999999"/>
<path d="M184.132 242.528H113.058C109.174 242.528 106.025 245.653 106.025 249.508V255.985C106.025 259.839 109.174 262.964 113.058 262.964H184.132C188.016 262.964 191.165 259.839 191.165 255.985V249.508C191.165 245.653 188.016 242.528 184.132 242.528Z" fill="#92E3A9" stroke="#263238" stroke-linecap="round" stroke-linejoin="round"/>
<path d="M114.943 250.412C114.941 249.984 115.068 249.565 115.307 249.208C115.545 248.852 115.886 248.573 116.284 248.409C116.682 248.244 117.121 248.201 117.544 248.284C117.967 248.367 118.356 248.573 118.661 248.876C118.966 249.178 119.174 249.564 119.257 249.984C119.341 250.404 119.297 250.84 119.132 251.235C118.966 251.63 118.685 251.968 118.326 252.205C117.967 252.442 117.544 252.567 117.113 252.566M117.113 245.586C115.823 245.586 114.586 246.094 113.674 246.999C112.762 247.904 112.25 249.132 112.25 250.412C112.25 252.291 114.626 256.118 116.083 258.225C116.196 258.393 116.349 258.532 116.529 258.627C116.708 258.723 116.909 258.773 117.113 258.773C117.317 258.773 117.518 258.723 117.697 258.627C117.877 258.532 118.03 258.393 118.143 258.225C119.592 256.118 121.968 252.306 121.968 250.412C121.968 249.133 121.457 247.907 120.546 247.002C119.636 246.097 118.401 245.588 117.113 245.586Z" stroke="#263238" stroke-linecap="round" stroke-linejoin="round"/>
<path d="M174.644 247.024H134.497C134.207 247.024 133.92 247.081 133.652 247.191C133.384 247.302 133.14 247.463 132.935 247.667C132.73 247.87 132.567 248.112 132.456 248.378C132.345 248.644 132.288 248.929 132.288 249.217C132.288 249.505 132.345 249.791 132.456 250.057C132.567 250.323 132.73 250.564 132.935 250.768C133.14 250.972 133.384 251.133 133.652 251.243C133.92 251.354 134.207 251.41 134.497 251.41H174.644C175.23 251.41 175.792 251.179 176.206 250.768C176.621 250.357 176.854 249.799 176.854 249.217C176.854 248.636 176.621 248.078 176.206 247.667C175.792 247.255 175.23 247.024 174.644 247.024Z" fill="#858585" stroke="#263238" stroke-linecap="round" stroke-linejoin="round"/>
<path d="M162.954 254.075H134.497C133.911 254.075 133.349 254.306 132.935 254.717C132.521 255.128 132.288 255.686 132.288 256.268C132.288 256.849 132.521 257.407 132.935 257.818C133.349 258.23 133.911 258.461 134.497 258.461H162.954C163.54 258.461 164.102 258.23 164.516 257.818C164.931 257.407 165.164 256.849 165.164 256.268C165.164 255.686 164.931 255.128 164.516 254.717C164.102 254.306 163.54 254.075 162.954 254.075Z" fill="#999999" stroke="#263238" stroke-linecap="round" stroke-linejoin="round"/>
<path d="M177.155 254.075H169.021C168.435 254.075 167.873 254.306 167.458 254.717C167.044 255.128 166.811 255.686 166.811 256.268C166.811 256.849 167.044 257.407 167.458 257.818C167.873 258.23 168.435 258.461 169.021 258.461H177.155C177.741 258.461 178.303 258.23 178.717 257.818C179.131 257.407 179.364 256.849 179.364 256.268C179.364 255.686 179.131 255.128 178.717 254.717C178.303 254.306 177.741 254.075 177.155 254.075Z" fill="#999999" stroke="#263238" stroke-linecap="round" stroke-linejoin="round"/>
<path d="M194.428 219.341H123.354C119.47 219.341 116.321 222.466 116.321 226.321V232.798C116.321 236.652 119.47 239.777 123.354 239.777H194.428C198.312 239.777 201.461 236.652 201.461 232.798V226.321C201.461 222.466 198.312 219.341 194.428 219.341Z" fill="#999999"/>
<path d="M195.22 216.983H124.146C120.262 216.983 117.113 220.108 117.113 223.963V230.44C117.113 234.294 120.262 237.419 124.146 237.419H195.22C199.104 237.419 202.253 234.294 202.253 230.44V223.963C202.253 220.108 199.104 216.983 195.22 216.983Z" fill="#92E3A9" stroke="#263238" stroke-linecap="round" stroke-linejoin="round"/>
<path d="M123.98 229.402V230.416C123.98 230.494 124.002 230.57 124.042 230.636C124.083 230.703 124.14 230.757 124.209 230.794L127.995 232.829C128.058 232.864 128.129 232.883 128.201 232.883C128.273 232.883 128.344 232.864 128.407 232.829L132.201 230.794C132.27 230.757 132.327 230.703 132.368 230.636C132.408 230.57 132.43 230.494 132.43 230.416V229.402" stroke="#263238" stroke-linecap="round" stroke-linejoin="round"/>
<path d="M134.315 231.084V226.651L135.4 226.07C135.476 226.035 135.54 225.98 135.585 225.91C135.631 225.841 135.654 225.76 135.654 225.677C135.654 225.594 135.631 225.513 135.585 225.443C135.54 225.374 135.476 225.318 135.4 225.284L128.407 221.527C128.344 221.492 128.273 221.473 128.201 221.473C128.129 221.473 128.058 221.492 127.995 221.527L121.01 225.284C120.934 225.318 120.87 225.374 120.825 225.443C120.779 225.513 120.756 225.594 120.756 225.677C120.756 225.76 120.779 225.841 120.825 225.91C120.87 225.98 120.934 226.035 121.01 226.07L127.995 229.819C128.058 229.854 128.129 229.873 128.201 229.873C128.273 229.873 128.344 229.854 128.407 229.819L132.43 227.665" stroke="#263238" stroke-linecap="round" stroke-linejoin="round"/>
<path d="M185.732 221.479H145.585C144.999 221.479 144.437 221.711 144.023 222.122C143.609 222.533 143.376 223.091 143.376 223.672C143.376 224.254 143.609 224.812 144.023 225.223C144.437 225.634 144.999 225.865 145.585 225.865H185.732C186.318 225.865 186.88 225.634 187.294 225.223C187.709 224.812 187.942 224.254 187.942 223.672C187.942 223.091 187.709 222.533 187.294 222.122C186.88 221.711 186.318 221.479 185.732 221.479Z" fill="#858585" stroke="#263238" stroke-linecap="round" stroke-linejoin="round"/>
<path d="M166.914 228.53H145.585C144.999 228.53 144.437 228.761 144.023 229.172C143.609 229.583 143.376 230.141 143.376 230.723C143.376 231.304 143.609 231.862 144.023 232.273C144.437 232.685 144.999 232.916 145.585 232.916H166.914C167.5 232.916 168.062 232.685 168.476 232.273C168.891 231.862 169.124 231.304 169.124 230.723C169.124 230.141 168.891 229.583 168.476 229.172C168.062 228.761 167.5 228.53 166.914 228.53Z" fill="#999999" stroke="#263238" stroke-linecap="round" stroke-linejoin="round"/>
<path d="M181.297 228.53H173.163C172.577 228.53 172.015 228.761 171.6 229.172C171.186 229.583 170.953 230.141 170.953 230.723C170.953 231.304 171.186 231.862 171.6 232.273C172.015 232.685 172.577 232.916 173.163 232.916H181.297C181.883 232.916 182.445 232.685 182.859 232.273C183.274 231.862 183.506 231.304 183.506 230.723C183.506 230.141 183.274 229.583 182.859 229.172C182.445 228.761 181.883 228.53 181.297 228.53Z" fill="#999999" stroke="#263238" stroke-linecap="round" stroke-linejoin="round"/>
<path d="M173.044 193.796H101.97C98.0858 193.796 94.937 196.921 94.937 200.776V207.252C94.937 211.107 98.0858 214.232 101.97 214.232H173.044C176.928 214.232 180.077 211.107 180.077 207.252V200.776C180.077 196.921 176.928 193.796 173.044 193.796Z" fill="#999999"/>
<path d="M173.836 191.438H102.762C98.8778 191.438 95.729 194.563 95.729 198.418V204.894C95.729 208.749 98.8778 211.874 102.762 211.874H173.836C177.72 211.874 180.869 208.749 180.869 204.894V198.418C180.869 194.563 177.72 191.438 173.836 191.438Z" fill="#92E3A9" stroke="#263238" stroke-linecap="round" stroke-linejoin="round"/>
<path d="M107.15 202.513H106.484C106.047 202.513 105.692 202.865 105.692 203.299V204.989C105.692 205.423 106.047 205.775 106.484 205.775H107.15C107.587 205.775 107.942 205.423 107.942 204.989V203.299C107.942 202.865 107.587 202.513 107.15 202.513Z" stroke="#263238" stroke-linecap="round" stroke-linejoin="round"/>
<path d="M101.424 204.792C101.424 205.44 101.683 206.062 102.145 206.521C102.607 206.979 103.233 207.236 103.887 207.236H109.755C110.409 207.236 111.035 206.979 111.497 206.521C111.959 206.062 112.218 205.44 112.218 204.792" stroke="#263238" stroke-linecap="round" stroke-linejoin="round"/>
<path d="M102.912 197.545H102.12C101.781 197.547 101.456 197.682 101.216 197.921C100.975 198.159 100.84 198.482 100.837 198.819V201.358C100.836 201.685 100.901 202.01 101.026 202.313C101.152 202.617 101.337 202.892 101.57 203.124C101.803 203.357 102.08 203.541 102.385 203.667C102.691 203.792 103.018 203.857 103.348 203.857H104.14M109.534 203.857H110.286C110.954 203.857 111.595 203.594 112.067 203.125C112.539 202.656 112.805 202.02 112.805 201.358V198.858C112.802 198.521 112.667 198.198 112.426 197.96C112.186 197.722 111.861 197.587 111.522 197.585H110.73M104.742 197.585V197.286C104.744 196.968 104.873 196.665 105.1 196.441C105.327 196.217 105.634 196.091 105.954 196.091H107.712C108.028 196.097 108.329 196.226 108.551 196.449C108.773 196.672 108.898 196.972 108.9 197.286V197.569" stroke="#263238" stroke-linecap="round" stroke-linejoin="round"/>
<path d="M164.348 195.934H124.201C123.615 195.934 123.053 196.165 122.639 196.576C122.225 196.988 121.992 197.545 121.992 198.127C121.992 198.709 122.225 199.266 122.639 199.678C123.053 200.089 123.615 200.32 124.201 200.32H164.348C164.934 200.32 165.496 200.089 165.91 199.678C166.325 199.266 166.558 198.709 166.558 198.127C166.558 197.545 166.325 196.988 165.91 196.576C165.496 196.165 164.934 195.934 164.348 195.934Z" fill="#858585" stroke="#263238" stroke-linecap="round" stroke-linejoin="round"/>
<path d="M157.41 202.984H124.201C123.615 202.984 123.053 203.215 122.639 203.627C122.225 204.038 121.992 204.596 121.992 205.177C121.992 205.759 122.225 206.317 122.639 206.728C123.053 207.139 123.615 207.37 124.201 207.37H157.41C157.996 207.37 158.558 207.139 158.972 206.728C159.387 206.317 159.62 205.759 159.62 205.177C159.62 204.596 159.387 204.038 158.972 203.627C158.558 203.215 157.996 202.984 157.41 202.984Z" fill="#999999" stroke="#263238" stroke-linecap="round" stroke-linejoin="round"/>
<path d="M252.767 308.521L252.513 315.013C252.513 315.013 245.116 319.91 241.885 320.971C240.301 321.49 236 322.04 236 323.982C236 325.923 241.544 326.206 244.546 326.206C246.13 326.206 250.153 326.057 255.143 326.002C259.641 325.954 263.625 325.341 263.625 323.203C263.541 320.311 262.724 317.486 261.249 314.99L262.192 308.521H252.767Z" fill="white" stroke="#263238" stroke-linecap="round" stroke-linejoin="round"/>
<path d="M253.654 196.092C253.654 196.092 252.505 213.855 252.743 226.463C252.925 236.555 250.914 266.03 250.914 266.03L251.706 310.557L262.738 311.343C262.738 311.343 268.638 287.543 267.34 266.541C267.34 266.541 271.727 237.191 273.042 227.759C273.042 227.759 281.928 216.221 281.572 195.895L253.654 196.092Z" fill="#263238"/>
<path d="M258.715 212.22C260.292 215.598 262.689 218.533 265.692 220.764" stroke="#7F7F7F" stroke-linecap="round" stroke-linejoin="round"/>
<path d="M236.016 323.974C236.016 325.915 241.56 326.206 244.562 326.206C246.146 326.206 250.169 326.057 255.159 326.002C259.657 325.954 263.641 325.341 263.641 323.203C263.557 320.311 262.739 317.486 261.265 314.99C259.142 315.776 258.342 318.645 258.342 318.645C258.342 318.645 252.703 319.525 254.184 317.552C255.666 315.579 252.498 315.013 252.498 315.013C252.498 315.013 245.1 319.91 241.869 320.971C240.317 321.474 236.016 322.04 236.016 323.974Z" fill="#92E3A9" stroke="#263238" stroke-linecap="round" stroke-linejoin="round"/>
<path d="M250.914 307.884L251.135 311.618L263.261 312.647L264.298 308.89L250.914 307.884Z" fill="#999999" stroke="#263238" stroke-linecap="round" stroke-linejoin="round"/>
<path d="M258.936 263.86C260.533 265.088 262.354 265.998 264.298 266.541C269.929 268.113 258.889 268.506 258.469 270.667" stroke="#7F7F7F" stroke-linecap="round" stroke-linejoin="round"/>
<path d="M256.196 261.039C256.572 261.583 256.998 262.091 257.471 262.556" stroke="#7F7F7F" stroke-linecap="round" stroke-linejoin="round"/>
<path d="M232.222 178.186L225.799 182.572C224.777 181.777 223.518 181.341 222.219 181.33C220.295 181.424 218.418 182.431 217.127 182.572C215.646 182.721 211.234 181.904 211.234 183.264C211.234 185.26 218.774 184.521 219.012 185.457C219.249 186.392 214.006 187.712 214.006 187.712L213.365 188.946L223.803 189.929C223.803 189.929 228.413 190.416 230.591 187.319L238.907 182.603L233.901 176.795L232.222 178.186Z" fill="white" stroke="#263238" stroke-linecap="round" stroke-linejoin="round"/>
<path d="M253.551 135.978C251.056 143.217 248.458 165.241 248.458 165.241L230.472 178.116L236.016 184.993C236.016 184.993 253.899 176.111 256.751 173.926C259.602 171.741 262.976 148.405 264.742 143.744C266.508 139.083 265.455 134.131 260.932 132.284C256.41 130.437 254.232 134.045 253.551 135.978Z" fill="#92E3A9" stroke="#263238" stroke-linecap="round" stroke-linejoin="round"/>
<path d="M228.785 177.338L232.476 174.233L239.905 184.294L235.81 186.754L228.785 177.338Z" fill="#92E3A9"/>
<mask id="mask11_507_1859" style="mask-type:luminance" maskUnits="userSpaceOnUse" x="228" y="174" width="12" height="13">
<path d="M228.785 177.338L232.476 174.233L239.905 184.294L235.81 186.754L228.785 177.338Z" fill="white"/>
</mask>
<g mask="url(#mask11_507_1859)">
<path opacity="0.5" d="M228.785 177.338L232.476 174.233L239.905 184.294L235.81 186.754L228.785 177.338Z" fill="white"/>
</g>
<path d="M228.785 177.338L232.476 174.233L239.905 184.294L235.81 186.754L228.785 177.338Z" stroke="#263238" stroke-linecap="round" stroke-linejoin="round"/>
<path d="M265.518 124.613L280.812 122.553L268.44 130.429L266.183 130.79L265.518 124.613Z" fill="#92E3A9" stroke="#263238" stroke-linecap="round" stroke-linejoin="round"/>
<path d="M265.795 121.728C265.795 121.728 260.481 123.685 259.301 120.014C258.583 117.783 258.183 115.463 258.113 113.121L256.157 112.036C256.04 111.973 255.937 111.886 255.856 111.78C255.775 111.675 255.717 111.554 255.686 111.426C255.654 111.297 255.65 111.163 255.674 111.033C255.698 110.902 255.749 110.778 255.824 110.669L258.905 106.149C258.905 106.149 258.01 102.88 258.509 101.166C259.008 99.4526 261.392 94.1393 261.392 94.1393C261.392 94.1393 273.034 85.2025 278.99 94.7288C284.946 104.255 277.089 116.941 277.089 116.941L278.99 126.271L267.744 131.773L265.795 121.728Z" fill="white"/>
<mask id="mask12_507_1859" style="mask-type:luminance" maskUnits="userSpaceOnUse" x="255" y="90" width="27" height="42">
<path d="M265.795 121.728C265.795 121.728 260.481 123.685 259.301 120.014C258.583 117.783 258.183 115.463 258.113 113.121L256.157 112.036C256.04 111.973 255.937 111.886 255.856 111.78C255.775 111.675 255.717 111.554 255.686 111.426C255.654 111.297 255.65 111.163 255.674 111.033C255.698 110.902 255.749 110.778 255.824 110.669L258.905 106.149C258.905 106.149 258.01 102.88 258.509 101.166C259.008 99.4526 261.392 94.1393 261.392 94.1393C261.392 94.1393 273.034 85.2025 278.99 94.7288C284.946 104.255 277.089 116.941 277.089 116.941L278.99 126.271L267.744 131.773L265.795 121.728Z" fill="white"/>
</mask>
<g mask="url(#mask12_507_1859)">
<path d="M265.795 121.728C267.63 120.949 269.33 119.888 270.832 118.584C270.893 118.53 270.97 118.497 271.051 118.492C271.132 118.486 271.213 118.507 271.28 118.553C271.348 118.598 271.398 118.664 271.423 118.741C271.448 118.818 271.446 118.901 271.418 118.977C270.32 121.956 268.365 124.549 265.795 126.436C260.782 130.099 265.795 121.728 265.795 121.728Z" fill="#999999"/>
</g>
<path d="M265.795 121.728C265.795 121.728 260.481 123.685 259.301 120.014C258.583 117.783 258.183 115.463 258.113 113.121L256.157 112.036C256.04 111.973 255.937 111.886 255.856 111.78C255.775 111.675 255.717 111.554 255.686 111.426C255.654 111.297 255.65 111.163 255.674 111.033C255.698 110.902 255.749 110.778 255.824 110.669L258.905 106.149C258.905 106.149 258.01 102.88 258.509 101.166C259.008 99.4526 261.392 94.1393 261.392 94.1393C261.392 94.1393 273.034 85.2025 278.99 94.7288C284.946 104.255 277.089 116.941 277.089 116.941L278.99 126.271L267.744 131.773L265.795 121.728Z" stroke="#263238" stroke-linecap="round" stroke-linejoin="round"/>
<path d="M259.451 101.693C259.451 101.693 261.352 100.034 263.411 102.785" stroke="#263238" stroke-linecap="round" stroke-linejoin="round"/>
<path d="M261.36 114.442C261.36 114.442 262.754 115.44 264.916 113.734" stroke="#263238" stroke-linecap="round" stroke-linejoin="round"/>
<path d="M261.843 105.159C261.843 105.71 261.574 106.15 261.249 106.15C260.924 106.15 260.647 105.71 260.647 105.159C260.647 104.609 260.916 104.169 261.249 104.169C261.582 104.169 261.843 104.617 261.843 105.159Z" fill="#263238"/>
<path d="M271.22 106.149C271.22 106.149 273.01 102.785 275.299 105.159C278.847 108.845 273.588 111.534 273.588 111.534C274.139 113.663 275.366 115.559 277.089 116.941C277.089 116.941 278.538 115.369 280.154 113.396C281.77 111.424 286.165 104.255 283.029 96.1987C283.029 96.1987 283.354 88.7553 271.941 87.2697C260.528 85.7842 259.317 91.4355 255.634 90.8696C255.634 90.8696 258.438 93.3534 261.217 91.5613C260.964 92.2177 260.526 92.7885 259.957 93.2063C259.387 93.6241 258.709 93.8715 258.002 93.9193C258.002 93.9193 261.447 96.8432 264.916 96.0808C268.385 95.3184 266.904 100.773 271.22 106.149Z" fill="#263238" stroke="#263238" stroke-miterlimit="10"/>
<path d="M280.154 94.6816C280.504 95.3405 280.771 96.0402 280.946 96.7645" stroke="#7F7F7F" stroke-linecap="round" stroke-linejoin="round"/>
<path d="M263.997 89.549C263.997 89.549 274.293 87.977 278.958 93.0232" stroke="#7F7F7F" stroke-linecap="round" stroke-linejoin="round"/>
<path d="M264.528 93.2905C263.894 93.377 263.237 93.5027 262.548 93.6521" stroke="#7F7F7F" stroke-linecap="round" stroke-linejoin="round"/>
<path d="M278.99 98.2503C278.99 98.2503 276.178 92.6304 267.031 93.0312" stroke="#7F7F7F" stroke-linecap="round" stroke-linejoin="round"/>
<path d="M278.713 112.72C278.428 113.215 278.119 113.718 277.778 114.229" stroke="#7F7F7F" stroke-linecap="round" stroke-linejoin="round"/>
<path d="M281.263 100.789C281.804 104.284 281.222 107.859 279.6 111.007" stroke="#7F7F7F" stroke-linecap="round" stroke-linejoin="round"/>
<path d="M284.494 310.093L285.041 315.013C285.041 315.013 277.644 319.91 274.412 320.971C272.828 321.49 268.52 322.04 268.52 323.981C268.52 325.923 274.064 326.206 277.073 326.206C278.657 326.206 282.673 326.056 287.662 326.001C292.169 325.954 296.145 325.341 296.145 323.203C296.06 320.311 295.243 317.486 293.769 314.99L293.476 308.89L284.494 310.093Z" fill="white" stroke="#263238" stroke-linecap="round" stroke-linejoin="round"/>
<path d="M289.872 318.841C287.496 318.841 286.609 318.15 286.609 318.15C288.589 316.483 285.072 315.006 285.072 315.006C285.072 315.006 277.675 319.902 274.444 320.963C272.86 321.482 268.551 322.032 268.551 323.966C268.551 325.899 274.095 326.198 277.105 326.198C278.689 326.198 282.704 326.049 287.694 325.994C292.2 325.947 296.176 325.334 296.176 323.196C296.092 320.303 295.275 317.478 293.8 314.982C291.131 316.059 292.248 318.841 289.872 318.841Z" fill="#92E3A9" stroke="#263238" stroke-linecap="round" stroke-linejoin="round"/>
<path d="M265.803 196.194H290.355C290.355 196.194 293.301 210.774 292.43 225.276C291.559 239.778 292.802 264.835 292.802 264.835C292.802 264.835 295.828 277.608 294.196 311.327L284.09 312.113C284.09 312.113 276.891 278.802 275.45 265.739C274.594 257.942 272.591 237.443 270.587 229.835C268.488 222.006 266.516 219.043 265.803 196.194Z" fill="#263238"/>
<path d="M290.902 305.833C290.902 306.823 290.965 307.845 290.997 308.891" stroke="#7F7F7F" stroke-linecap="round" stroke-linejoin="round"/>
<path d="M285.975 238.897C286.356 247.826 286.585 259.121 287.298 265.487C288.415 275.415 289.927 280.209 290.783 302.429" stroke="#7F7F7F" stroke-linecap="round" stroke-linejoin="round"/>
<path d="M277.533 206.718C278.686 209.791 280.942 212.333 283.869 213.855C283.869 213.855 284.661 221.715 285.453 230.094C285.579 231.407 285.682 232.947 285.777 234.661" stroke="#7F7F7F" stroke-linecap="round" stroke-linejoin="round"/>
<path d="M276.044 200.894C276.171 202.153 276.418 203.398 276.78 204.612" stroke="#7F7F7F" stroke-linecap="round" stroke-linejoin="round"/>
<path d="M266.041 203.779C266.004 202.972 265.964 202.123 265.922 201.232" stroke="#7F7F7F" stroke-linecap="round" stroke-linejoin="round"/>
<path d="M267.942 220.717C266.981 216.105 266.401 211.424 266.207 206.718" stroke="#7F7F7F" stroke-linecap="round" stroke-linejoin="round"/>
<path d="M271.569 234.684C271.228 232.79 270.896 231.131 270.555 229.85C270.088 228.097 269.628 225.881 269.193 224.466" stroke="#7F7F7F" stroke-linecap="round" stroke-linejoin="round"/>
<path d="M282.364 309.598L283.188 313.252L295.321 312.317L295.717 308.654L282.364 309.598Z" fill="#999999" stroke="#263238" stroke-linecap="round" stroke-linejoin="round"/>
<path d="M291.456 164.117C291.709 148.177 297.261 130.743 297.261 130.743C297.261 130.743 291.987 124.903 280.994 123.85L268.741 131.128L266.167 130.79L265.138 125.878C258.113 128.59 253.543 133.416 252.965 138.312C252.094 145.614 254.287 167.615 253.495 181.794C253.02 190.243 252.45 199.086 252.45 199.086L262.318 201.208L264.092 198.803L267.039 201.208L292.842 198.607C292.842 198.607 291.218 180.057 291.456 164.117Z" fill="#92E3A9" stroke="#263238" stroke-linecap="round" stroke-linejoin="round"/>
<path d="M265.803 124.204L267.292 129.957L280.835 122.152L284.13 123.858L273.549 134.068L267.134 131.003L262.588 133.416L263.079 125.917L265.803 124.204Z" fill="#92E3A9"/>
<mask id="mask13_507_1859" style="mask-type:luminance" maskUnits="userSpaceOnUse" x="262" y="122" width="23" height="13">
<path d="M265.803 124.204L267.292 129.957L280.835 122.152L284.13 123.858L273.549 134.068L267.134 131.003L262.588 133.416L263.079 125.917L265.803 124.204Z" fill="white"/>
</mask>
<g mask="url(#mask13_507_1859)">
<path opacity="0.5" d="M265.803 124.204L267.292 129.957L280.835 122.152L284.13 123.858L273.549 134.068L267.134 131.003L262.588 133.416L263.079 125.917L265.803 124.204Z" fill="white"/>
</g>
<path d="M265.803 124.204L267.292 129.957L280.835 122.152L284.13 123.858L273.549 134.068L267.134 131.003L262.588 133.416L263.079 125.917L265.803 124.204Z" stroke="#263238" stroke-linecap="round" stroke-linejoin="round"/>
<path d="M264.164 193.175C264.164 194.975 264.164 195.895 264.164 195.895" stroke="#263238" stroke-linecap="round" stroke-linejoin="round"/>
<path d="M265.922 139.067C264.78 147.495 264.206 155.99 264.203 164.494C264.077 176.991 264.108 186.03 264.148 191.116" stroke="#263238" stroke-linecap="round" stroke-linejoin="round"/>
<path d="M266.722 134.579C266.722 134.579 266.532 135.365 266.247 137.024" stroke="#263238" stroke-linecap="round" stroke-linejoin="round"/>
<path d="M250.755 160.651H179.681C175.797 160.651 172.648 163.776 172.648 167.631V181.967C172.648 185.822 175.797 188.947 179.681 188.947H250.755C254.639 188.947 257.788 185.822 257.788 181.967V167.631C257.788 163.776 254.639 160.651 250.755 160.651Z" fill="#92E3A9" stroke="#263238" stroke-linecap="round" stroke-linejoin="round"/>
<path d="M183.285 175.019L180.228 172.229L185.201 166.813C185.464 166.553 185.82 166.407 186.191 166.407C186.562 166.407 186.918 166.553 187.181 166.813L188.084 167.646C188.369 167.884 188.547 168.225 188.58 168.593C188.612 168.961 188.497 169.327 188.258 169.611L183.285 175.019Z" stroke="#263238" stroke-linecap="round" stroke-linejoin="round"/>
<path d="M181.249 176.3L178.826 176.811L179.119 174.351" stroke="#263238" stroke-linecap="round" stroke-linejoin="round"/>
<path d="M239.572 165.885H199.426C198.84 165.885 198.278 166.116 197.863 166.528C197.449 166.939 197.216 167.497 197.216 168.078C197.216 168.66 197.449 169.218 197.863 169.629C198.278 170.04 198.84 170.271 199.426 170.271H239.572C240.158 170.271 240.72 170.04 241.135 169.629C241.549 169.218 241.782 168.66 241.782 168.078C241.782 167.497 241.549 166.939 241.135 166.528C240.72 166.116 240.158 165.885 239.572 165.885Z" fill="#858585" stroke="#263238" stroke-linecap="round" stroke-linejoin="round"/>
<path d="M232.634 172.92H199.426C198.84 172.92 198.278 173.151 197.863 173.562C197.449 173.973 197.216 174.531 197.216 175.113C197.216 175.694 197.449 176.252 197.863 176.664C198.278 177.075 198.84 177.306 199.426 177.306H232.634C233.22 177.306 233.782 177.075 234.197 176.664C234.611 176.252 234.844 175.694 234.844 175.113C234.844 174.531 234.611 173.973 234.197 173.562C233.782 173.151 233.22 172.92 232.634 172.92Z" fill="#999999" stroke="#263238" stroke-linecap="round" stroke-linejoin="round"/>
<path d="M272.717 178.784C272.717 178.784 262.651 181.432 261.439 181.802C260.227 182.171 258.857 184.207 257.289 186.109C256.088 187.688 254.43 188.867 252.537 189.489C251.246 189.788 247.587 191.061 247.54 189.984C247.492 188.907 251.23 188.561 251.23 188.561L254.327 187.037C252.743 188.027 247.152 188.876 247.152 188.876C246.329 188.997 245.49 188.833 244.776 188.412C243.683 187.72 244.34 186.903 244.34 186.903C243.936 186.054 245.766 185.559 245.766 185.559L249.132 183.335C249.132 183.335 251.801 179.467 251.31 178.784C250.818 178.1 245.837 180.411 245.227 179.271C244.617 178.131 249.132 176.52 251.706 175.915C254.28 175.309 258.43 175.915 258.43 175.915L270.072 171.607L272.717 178.784Z" fill="white" stroke="#263238" stroke-linecap="round" stroke-linejoin="round"/>
<path d="M245.56 187.068C246.04 187.071 246.52 187.031 246.993 186.95C248.277 186.449 249.471 185.743 250.525 184.859C251.317 184.144 252.109 182.761 252.703 182.659" stroke="#263238" stroke-linecap="round" stroke-linejoin="round"/>
<path d="M246.098 188.019C246.602 187.995 247.098 187.894 247.571 187.721C248.983 187.319 250.356 186.793 251.674 186.149C252.466 185.645 253.495 184.577 254.05 184.679" stroke="#263238" stroke-linecap="round" stroke-linejoin="round"/>
<path d="M285.12 138.478C285.072 135.711 285.183 128.26 292.699 128.802C300.216 129.344 299.431 137.134 299.17 142.557C298.909 147.98 301.245 170.696 296.176 172.323L269.145 180.969L265.779 171.356L286.102 162.914C286.102 162.914 285.239 144.624 285.12 138.478Z" fill="#92E3A9"/>
<path d="M293.729 167.615C294.095 168.102 294.404 168.629 294.648 169.187" stroke="#263238" stroke-linecap="round" stroke-linejoin="round"/>
<path d="M294.624 162.349C294.624 162.349 289.175 160.698 288.359 162.789C287.742 164.361 290.434 164.534 292.676 166.507" stroke="#263238" stroke-linecap="round" stroke-linejoin="round"/>
<path d="M285.191 140.647C285.191 139.822 285.191 139.075 285.144 138.478" stroke="#263238" stroke-linecap="round" stroke-linejoin="round"/>
<path d="M292.723 128.802C300.239 129.313 299.455 137.133 299.194 142.557C298.932 147.98 301.269 170.696 296.2 172.323L269.169 180.969L265.803 171.356L286.126 162.914C286.126 162.914 285.54 150.77 285.27 142.942" stroke="#263238" stroke-linecap="round" stroke-linejoin="round"/>
<path d="M264.203 171.073L268.654 169.202L272.717 181.008L268.06 182.148L264.203 171.073Z" fill="#92E3A9"/>
<mask id="mask14_507_1859" style="mask-type:luminance" maskUnits="userSpaceOnUse" x="264" y="169" width="9" height="14">
<path d="M264.203 171.073L268.654 169.202L272.717 181.008L268.06 182.148L264.203 171.073Z" fill="white"/>
</mask>
<g mask="url(#mask14_507_1859)">
<path opacity="0.5" d="M264.203 171.073L268.654 169.202L272.717 181.008L268.06 182.148L264.203 171.073Z" fill="white"/>
</g>
<path d="M264.203 171.073L268.654 169.202L272.717 181.008L268.06 182.148L264.203 171.073Z" stroke="#263238" stroke-linecap="round" stroke-linejoin="round"/>
<path d="M213.175 188.436C212.961 187.603 212.517 185.221 213.808 185.221C215.099 185.221 215.337 186.636 215.337 186.636C215.337 186.636 215.115 184.978 216.382 185.221C217.65 185.465 217.848 187.328 217.848 187.328C217.848 187.328 217.634 185.819 219.012 185.976C220.39 186.133 219.566 189.568 221.214 189.552C221.91 189.552 221.103 187.1 222.449 187.108C223.795 187.115 223.241 189.749 225.768 189.749C226.56 189.749 223.487 190.802 221.443 190.37C221.443 190.37 220.493 191.226 218.046 189.882C217.607 190.087 217.118 190.158 216.639 190.088C216.161 190.018 215.713 189.81 215.353 189.489C215.147 189.615 214.912 189.688 214.671 189.7C214.429 189.712 214.189 189.663 213.972 189.558C213.754 189.453 213.567 189.295 213.428 189.098C213.288 188.902 213.201 188.674 213.175 188.436Z" fill="white" stroke="#263238" stroke-linecap="round" stroke-linejoin="round"/>
<path d="M215.313 187.626C215.283 187.909 215.31 188.195 215.392 188.467" stroke="#263238" stroke-linecap="round" stroke-linejoin="round"/>
<path d="M217.919 188.271C217.919 188.271 217.871 188.224 218.014 188.876" stroke="#263238" stroke-linecap="round" stroke-linejoin="round"/>
</svg>
