<svg width="300" height="300" viewBox="0 0 300 300" fill="none" xmlns="http://www.w3.org/2000/svg">
<path d="M263.508 81.756C249.882 61.074 223.98 48.792 198.948 51.156C173.916 53.52 150.876 70.356 141.51 93.222C136.71 104.892 135.21 117.984 128.058 128.424C120.726 139.128 108.504 145.512 96.516 150.846C84.528 156.18 71.916 161.094 62.478 170.046C53.04 178.998 47.478 193.398 53.04 205.062C58.728 216.918 73.092 221.658 83.466 229.938C93.84 238.218 100.434 250.398 111.024 258.402C120.81 265.8 133.428 269.052 145.8 269.028C158.172 269.004 170.34 265.884 181.896 261.57C217.734 248.196 251.496 223.308 265.794 188.472C292.26 123.96 263.508 81.756 263.508 81.756Z" fill="#92E3A9"/>
<g opacity="0.7">
<path d="M263.508 81.756C249.882 61.074 223.98 48.792 198.948 51.156C173.916 53.52 150.876 70.356 141.51 93.222C136.71 104.892 135.21 117.984 128.058 128.424C120.726 139.128 108.504 145.512 96.516 150.846C84.528 156.18 71.916 161.094 62.478 170.046C53.04 178.998 47.478 193.398 53.04 205.062C58.728 216.918 73.092 221.658 83.466 229.938C93.84 238.218 100.434 250.398 111.024 258.402C120.81 265.8 133.428 269.052 145.8 269.028C158.172 269.004 170.34 265.884 181.896 261.57C217.734 248.196 251.496 223.308 265.794 188.472C292.26 123.96 263.508 81.756 263.508 81.756Z" fill="white"/>
</g>
<path d="M215.358 244.074C215.358 244.074 224.058 244.026 233.706 230.586C242.136 218.832 226.134 182.442 217.164 174.072C208.194 165.702 190.734 211.416 192.762 222.996C195.648 239.496 208.086 243.654 215.358 244.074Z" fill="#92E3A9"/>
<path d="M229.476 221.466L216.084 234.78L217.434 268.704H213C212.946 268.47 213.114 245.1 213.258 217.842L202.992 207.996C203.772 207.996 202.392 206.664 202.236 206.532L213.306 214.2C213.396 197.166 213.48 183.45 213.48 183.45L214.482 182.196L215.04 200.412L224.508 193.596C224.37 193.728 222.972 195.06 223.752 195.06L215.136 203.628L215.94 229.872L230.556 219.354C230.358 219.558 228.354 221.466 229.476 221.466Z" stroke="#263238" stroke-miterlimit="10"/>
<path d="M255.162 255.12C255.162 255.12 265.746 254.358 271.026 244.32C276.726 233.466 262.824 207.72 255.72 205.812C247.92 203.706 235.608 224.28 238.128 240.264C239.856 251.172 250.272 254.844 255.162 255.12Z" fill="#92E3A9"/>
<path d="M263.106 235.44L255.726 241.302C255.498 227.538 255.306 216.546 255.306 216.546L254.4 215.514L254.064 229.572V229.878L247.8 224.964C247.8 224.964 248.802 225.984 248.286 225.99L253.986 232.188L253.602 248.352L244.14 240.906C244.14 240.906 245.556 242.352 244.83 242.358L253.512 251.802L253.464 253.668L253.41 255.678L253.116 268.428L256.176 268.392C256.104 264.294 256.038 259.992 255.972 255.696C255.912 252.036 255.84 248.37 255.792 244.848C255.792 244.584 255.792 244.338 255.792 244.08L262.572 236.658C261.948 236.664 263.106 235.44 263.106 235.44Z" stroke="#263238" stroke-miterlimit="10"/>
<path d="M241.98 263.01C240.996 262.218 239.226 262.236 237.672 262.302C237.786 261.312 238.2 260.334 238.32 259.338C238.415 258.824 238.364 258.294 238.172 257.808C237.98 257.322 237.655 256.9 237.234 256.59C235.53 255.39 232.53 255.858 230.178 256.542C230.502 254.214 228.024 251.946 224.706 251.586C221.388 251.226 217.698 252.846 216.726 255.12C215.382 253.836 212.7 253.32 210.462 253.92C208.224 254.52 206.634 256.194 206.748 257.808C205.032 257.694 203.118 257.616 201.696 258.354C199.608 259.446 199.752 261.654 198.144 263.082C197.625 262.983 197.088 263.026 196.591 263.208C196.095 263.39 195.657 263.703 195.324 264.114C194.778 264.828 194.682 265.644 194.352 266.412C193.68 267.948 191.448 268.14 189.318 268.812L242.622 269.256C243.78 268.884 244.77 268.092 244.722 267.234C244.674 266.376 243.24 265.68 242.13 266.106C242.514 266.124 243.126 263.922 241.98 263.01Z" fill="#92E3A9"/>
<path d="M265.944 265.344C265.344 264.864 264.252 264.87 263.304 264.912C263.37 264.312 263.622 263.712 263.7 263.112C263.759 262.797 263.728 262.471 263.61 262.173C263.492 261.875 263.292 261.616 263.034 261.426C261.99 260.694 260.148 260.976 258.708 261.396C258.906 259.968 257.388 258.576 255.354 258.36C253.32 258.144 251.058 259.128 250.464 260.52C249.642 259.734 247.992 259.422 246.624 259.794C245.256 260.166 244.278 261.186 244.35 262.194C243.294 262.122 242.124 262.068 241.254 262.524C239.97 263.196 240.054 264.546 239.076 265.422C238.756 265.361 238.427 265.389 238.121 265.501C237.816 265.613 237.547 265.805 237.342 266.058C237.084 266.499 236.882 266.971 236.742 267.462C236.334 268.404 234.942 268.518 233.658 268.932L266.328 269.202C267.036 268.974 267.642 268.488 267.618 267.966C267.594 267.444 266.706 267.012 266.028 267.276C266.268 267.258 266.646 265.908 265.944 265.344Z" fill="#92E3A9"/>
<path d="M133.986 161.694C132.513 160.684 130.792 160.096 129.009 159.994C127.226 159.891 125.449 160.278 123.871 161.113C122.292 161.948 120.972 163.198 120.052 164.73C119.133 166.261 118.65 168.014 118.656 169.8V169.86C118.358 169.478 117.982 169.163 117.554 168.937C117.126 168.711 116.655 168.577 116.171 168.546C115.688 168.515 115.203 168.587 114.749 168.756C114.295 168.926 113.883 169.189 113.538 169.53C113.332 167.569 112.383 165.762 110.885 164.48C109.387 163.198 107.454 162.539 105.485 162.639C103.516 162.739 101.66 163.59 100.3 165.017C98.9395 166.444 98.1779 168.338 98.172 170.31C97.8507 170.083 97.4771 169.942 97.0862 169.899C96.6952 169.856 96.2998 169.913 95.937 170.065C95.5742 170.216 95.2559 170.458 95.0118 170.766C94.7678 171.075 94.6062 171.44 94.542 171.828H149.064C149.064 170.512 148.686 169.224 147.976 168.116C147.266 167.009 146.254 166.128 145.059 165.578C143.863 165.028 142.535 164.832 141.232 165.013C139.929 165.195 138.705 165.746 137.706 166.602C137.376 165.656 136.904 164.766 136.308 163.962" stroke="#263238" stroke-linecap="round" stroke-linejoin="round"/>
<path d="M227.682 89.9339C229.475 89.3076 231.392 89.1195 233.272 89.3855C235.153 89.6514 236.942 90.3637 238.491 91.4626C240.04 92.5616 241.303 94.0154 242.175 95.7024C243.047 97.3895 243.503 99.2608 243.504 101.16V101.232C243.866 100.769 244.322 100.388 244.841 100.114C245.361 99.8395 245.933 99.6781 246.519 99.6401C247.105 99.6021 247.693 99.6885 248.244 99.8936C248.794 100.099 249.295 100.418 249.714 100.83C249.982 98.4645 251.142 96.2902 252.957 94.7501C254.772 93.2099 257.106 92.4198 259.483 92.5406C261.861 92.6615 264.103 93.6843 265.753 95.4006C267.402 97.1169 268.335 99.3976 268.362 101.778C268.834 101.439 269.401 101.258 269.982 101.262C270.65 101.26 271.298 101.497 271.808 101.929C272.318 102.361 272.658 102.96 272.766 103.62H206.604C206.599 102.019 207.055 100.451 207.917 99.1019C208.779 97.7529 210.01 96.6803 211.465 96.0118C212.919 95.3434 214.535 95.1073 216.12 95.3318C217.705 95.5563 219.192 96.2319 220.404 97.278C221.004 95.5484 221.993 93.9799 223.296 92.694" stroke="#263238" stroke-linecap="round" stroke-linejoin="round"/>
<path d="M24.63 76.122H90.792C90.7967 74.5212 90.341 72.9529 89.4791 71.6039C88.6173 70.2549 87.3857 69.1823 85.9312 68.5138C84.4766 67.8454 82.8605 67.6093 81.2756 67.8338C79.6906 68.0583 78.2037 68.7339 76.992 69.78C76.0728 67.1246 74.2424 64.8807 71.8259 63.4467C69.4093 62.0126 66.5629 61.4811 63.7917 61.9464C61.0204 62.4118 58.5037 63.8439 56.6881 65.9886C54.8725 68.1333 53.8755 70.852 53.874 73.662V73.734C53.512 73.2712 53.0562 72.8902 52.5366 72.6158C52.0171 72.3415 51.4454 72.1801 50.859 72.1421C50.2727 72.1042 49.685 72.1905 49.1344 72.3956C48.5838 72.6007 48.0827 72.9198 47.664 73.332C47.3961 70.9666 46.2365 68.7923 44.4213 67.2521C42.6061 65.7119 40.272 64.9218 37.8945 65.0427C35.517 65.1635 33.2751 66.1863 31.6255 67.9026C29.9758 69.6189 29.0426 71.8996 29.016 74.28C28.5443 73.9407 27.977 73.76 27.396 73.764C26.7306 73.7665 26.0876 74.0048 25.5812 74.4365C25.0749 74.8682 24.7378 75.4654 24.63 76.122Z" fill="white" stroke="#263238" stroke-miterlimit="10"/>
<path d="M112.806 99.51L114.858 112.338" stroke="#92E3A9" stroke-miterlimit="10"/>
<path d="M105.048 104.052L113.586 114.39" stroke="#92E3A9" stroke-miterlimit="10"/>
<path d="M103.698 112.83L111.69 115.956" stroke="#92E3A9" stroke-miterlimit="10"/>
<path d="M63.15 135.156V125.274" stroke="#263238" stroke-linecap="round" stroke-linejoin="round"/>
<path d="M39.882 135.156H63.15V127.866H39.882V135.156Z" fill="white" stroke="#263238" stroke-linecap="round" stroke-linejoin="round"/>
<path d="M39.882 135.156V125.274" stroke="#263238" stroke-linecap="round" stroke-linejoin="round"/>
<path d="M121.758 268.848H168.786V186.96H121.758V268.848Z" fill="white" stroke="#263238" stroke-linecap="round" stroke-linejoin="round"/>
<path d="M74.88 268.848H121.908L121.908 156.6H74.88L74.88 268.848Z" fill="white" stroke="#263238" stroke-linecap="round" stroke-linejoin="round"/>
<path d="M27.636 268.854H74.664L74.664 134.958H27.636L27.636 268.854Z" fill="white" stroke="#263238" stroke-linecap="round" stroke-linejoin="round"/>
<path d="M65.91 143.4V263.778" stroke="#92E3A9" stroke-linecap="round" stroke-linejoin="round"/>
<path d="M55.626 143.4V263.778" stroke="#92E3A9" stroke-linecap="round" stroke-linejoin="round"/>
<path d="M45.342 143.4V263.778" stroke="#92E3A9" stroke-linecap="round" stroke-linejoin="round"/>
<path d="M35.064 143.4V263.778" stroke="#92E3A9" stroke-linecap="round" stroke-linejoin="round"/>
<path d="M114.102 162.396V173.598V184.794V195.996V207.192V218.4V229.602V240.798V252V263.202V263.418" stroke="#92E3A9" stroke-linecap="round" stroke-linejoin="round"/>
<path d="M103.818 162.396V173.598V184.794V195.996V207.192V218.4V229.602V240.798V252V263.202V263.418" stroke="#92E3A9" stroke-linecap="round" stroke-linejoin="round"/>
<path d="M93.528 162.396V173.598V184.794V195.996V207.192V218.4V229.602V240.798V252V263.202V263.418" stroke="#92E3A9" stroke-linecap="round" stroke-linejoin="round"/>
<path d="M83.25 162.396V173.598V184.794V195.996V207.192V218.4V229.602V240.798V252V263.202V263.418" stroke="#92E3A9" stroke-linecap="round" stroke-linejoin="round"/>
<path d="M114.102 162.396H112.086H102.474H92.856H83.25" stroke="#92E3A9" stroke-linecap="round" stroke-linejoin="round"/>
<path d="M114.102 173.598H112.086H102.474H92.856H83.25" stroke="#92E3A9" stroke-linecap="round" stroke-linejoin="round"/>
<path d="M114.102 184.794H112.086H102.474H92.856H83.25" stroke="#92E3A9" stroke-linecap="round" stroke-linejoin="round"/>
<path d="M114.102 195.996H112.086H102.474H92.856H83.25" stroke="#92E3A9" stroke-linecap="round" stroke-linejoin="round"/>
<path d="M114.102 207.192H112.086H102.474H92.856H83.25" stroke="#92E3A9" stroke-linecap="round" stroke-linejoin="round"/>
<path d="M114.102 218.4H112.086H102.474H92.856H83.25" stroke="#92E3A9" stroke-linecap="round" stroke-linejoin="round"/>
<path d="M114.102 229.602H112.086H102.474H92.856H83.25" stroke="#92E3A9" stroke-linecap="round" stroke-linejoin="round"/>
<path d="M114.102 240.798H112.086H102.474H92.856H83.25" stroke="#92E3A9" stroke-linecap="round" stroke-linejoin="round"/>
<path d="M114.102 252H112.086H102.474H92.856H83.25" stroke="#92E3A9" stroke-linecap="round" stroke-linejoin="round"/>
<path d="M114.102 263.202H112.086H102.474H92.856H83.25" stroke="#92E3A9" stroke-linecap="round" stroke-linejoin="round"/>
<path d="M164.184 193.716H128.634" stroke="#92E3A9" stroke-linecap="round" stroke-linejoin="round"/>
<path d="M164.184 204.918H128.634" stroke="#92E3A9" stroke-linecap="round" stroke-linejoin="round"/>
<path d="M164.184 216.114H128.634" stroke="#92E3A9" stroke-linecap="round" stroke-linejoin="round"/>
<path d="M164.184 227.316H128.634" stroke="#92E3A9" stroke-linecap="round" stroke-linejoin="round"/>
<path d="M164.184 238.518H128.634" stroke="#92E3A9" stroke-linecap="round" stroke-linejoin="round"/>
<path d="M164.184 249.72H128.634" stroke="#92E3A9" stroke-linecap="round" stroke-linejoin="round"/>
<path d="M164.184 260.916H128.634" stroke="#92E3A9" stroke-linecap="round" stroke-linejoin="round"/>
<path d="M272.766 269.202H251.262H248.76H24.63" stroke="#263238" stroke-linecap="round" stroke-linejoin="round"/>
<path d="M106.332 268.506C106.014 268.656 103.704 268.74 100.758 268.788C94.758 268.89 86.124 268.842 86.124 268.842C86.124 268.842 85.656 268.842 85.476 266.502C85.296 264.162 86.448 262.302 86.58 261.324C87.18 256.836 85.65 254.964 85.626 254.634C85.602 254.304 94.026 254.118 94.026 254.118L96.786 253.932L96.186 257.88C96.1485 258.104 96.1284 258.331 96.126 258.558C96.069 259.954 96.5065 261.326 97.3615 262.431C98.2166 263.536 99.4342 264.304 100.8 264.6H100.926C101.124 264.414 104.526 262.842 105.918 265.014C106.68 266.196 106.332 268.506 106.332 268.506Z" fill="#263238"/>
<mask id="mask0_148_635" style="mask-type:luminance" maskUnits="userSpaceOnUse" x="85" y="253" width="22" height="16">
<path d="M106.332 268.506C106.014 268.656 103.704 268.74 100.758 268.788C94.758 268.89 86.124 268.842 86.124 268.842C86.124 268.842 85.656 268.842 85.476 266.502C85.296 264.162 86.448 262.302 86.58 261.324C87.18 256.836 85.65 254.964 85.626 254.634C85.602 254.304 94.026 254.118 94.026 254.118L96.786 253.932L96.186 257.88C96.1485 258.104 96.1284 258.331 96.126 258.558C96.069 259.954 96.5065 261.326 97.3615 262.431C98.2166 263.536 99.4342 264.304 100.8 264.6H100.926C101.124 264.414 104.526 262.842 105.918 265.014C106.68 266.196 106.332 268.506 106.332 268.506Z" fill="white"/>
</mask>
<g mask="url(#mask0_148_635)">
<path opacity="0.2" d="M106.332 268.506C106.014 268.656 103.704 268.74 100.758 268.788C94.758 268.89 86.124 268.842 86.124 268.842C86.124 268.842 85.656 268.842 85.476 266.502C85.296 264.162 86.448 262.302 86.58 261.324C87.18 256.836 85.65 254.964 85.626 254.634C85.602 254.304 94.026 254.118 94.026 254.118L96.786 253.932L96.186 257.88C96.1485 258.104 96.1284 258.331 96.126 258.558C96.069 259.954 96.5065 261.326 97.3615 262.431C98.2166 263.536 99.4342 264.304 100.8 264.6H100.926C101.124 264.414 104.526 262.842 105.918 265.014C106.68 266.196 106.332 268.506 106.332 268.506Z" fill="white"/>
<path opacity="0.3" d="M100.758 268.8C94.758 268.902 86.124 268.854 86.124 268.854C86.124 268.854 85.656 268.854 85.476 266.514C85.296 264.174 86.448 262.314 86.58 261.336C87.18 256.848 85.65 254.976 85.626 254.646C85.602 254.316 94.026 254.13 94.026 254.13L96.786 253.944L96.186 257.892C96.1485 258.116 96.1284 258.343 96.126 258.57C94.224 260.142 92.712 261.408 92.712 261.408C92.712 261.408 100.422 263.952 100.758 268.8Z" fill="black"/>
</g>
<path d="M106.332 268.506C106.014 268.656 103.704 268.74 100.758 268.788C94.758 268.89 86.124 268.842 86.124 268.842C86.124 268.842 85.656 268.842 85.476 266.502C85.296 264.162 86.448 262.302 86.58 261.324C87.18 256.836 85.65 254.964 85.626 254.634C85.602 254.304 94.026 254.118 94.026 254.118L96.786 253.932L96.186 257.88C96.1485 258.104 96.1284 258.331 96.126 258.558C96.069 259.954 96.5065 261.326 97.3615 262.431C98.2166 263.536 99.4342 264.304 100.8 264.6H100.926C101.124 264.414 104.526 262.842 105.918 265.014C106.68 266.196 106.332 268.506 106.332 268.506Z" stroke="#263238" stroke-linecap="round" stroke-linejoin="round"/>
<path d="M98.61 248.772C98.892 250.278 99.594 250.704 99.138 251.412C99.072 251.52 99.006 251.646 98.94 251.778C98.586 252.51 98.208 253.542 96.816 253.932C95.178 254.394 87.336 254.82 85.644 254.61C83.952 254.4 82.992 252.81 82.896 251.466C82.8 250.122 83.532 249.282 83.418 247.776C83.304 246.27 82.128 245.832 82.05 244.83C81.972 243.828 82.944 242.37 82.932 241.368C82.932 239.256 82.968 241.56 83.388 229.554C83.622 222.708 85.278 221.22 83.388 213.456C82.704 210.654 75.36 159.924 75.36 159.924L98.01 161.28C98.01 161.28 98.37 169.92 98.778 180.126C99.294 193.11 99.888 208.626 99.906 212.118C99.942 219.21 99.306 229.146 98.772 237.966C98.55 241.728 98.172 244.32 98.772 245.766C98.8432 245.917 98.8859 246.08 98.898 246.246C99 247.2 98.322 247.266 98.61 248.772Z" fill="#92E3A9"/>
<mask id="mask1_148_635" style="mask-type:luminance" maskUnits="userSpaceOnUse" x="75" y="159" width="25" height="96">
<path d="M98.61 248.772C98.892 250.278 99.594 250.704 99.138 251.412C99.072 251.52 99.006 251.646 98.94 251.778C98.586 252.51 98.208 253.542 96.816 253.932C95.178 254.394 87.336 254.82 85.644 254.61C83.952 254.4 82.992 252.81 82.896 251.466C82.8 250.122 83.532 249.282 83.418 247.776C83.304 246.27 82.128 245.832 82.05 244.83C81.972 243.828 82.944 242.37 82.932 241.368C82.932 239.256 82.968 241.56 83.388 229.554C83.622 222.708 85.278 221.22 83.388 213.456C82.704 210.654 75.36 159.924 75.36 159.924L98.01 161.28C98.01 161.28 98.37 169.92 98.778 180.126C99.294 193.11 99.888 208.626 99.906 212.118C99.942 219.21 99.306 229.146 98.772 237.966C98.55 241.728 98.172 244.32 98.772 245.766C98.8432 245.917 98.8859 246.08 98.898 246.246C99 247.2 98.322 247.266 98.61 248.772Z" fill="white"/>
</mask>
<g mask="url(#mask1_148_635)">
<path opacity="0.3" d="M98.94 251.778C98.586 252.51 98.208 253.542 96.816 253.932C95.178 254.394 87.336 254.82 85.644 254.61C83.952 254.4 82.992 252.81 82.896 251.466C82.8 250.122 83.532 249.282 83.418 247.776C83.304 246.27 82.128 245.832 82.05 244.83C81.972 243.828 82.944 242.37 82.932 241.368C82.932 239.256 82.968 241.56 83.388 229.554C83.622 222.708 85.278 221.22 83.388 213.456C82.704 210.654 75.36 159.924 75.36 159.924L98.01 161.28C98.01 161.28 98.37 169.92 98.778 180.126C96.048 191.478 92.88 203.97 91.692 206.07L93.564 209.34C93.564 209.34 89.088 219.726 89.088 220.98C89.088 222.234 90.6 233.964 91.122 236.4C91.644 238.836 89.088 237.102 89.088 239.154C89.088 241.044 88.884 250.242 98.94 251.778Z" fill="black"/>
</g>
<path d="M98.61 248.772C98.892 250.278 99.594 250.704 99.138 251.412C99.072 251.52 99.006 251.646 98.94 251.778C98.586 252.51 98.208 253.542 96.816 253.932C95.178 254.394 87.336 254.82 85.644 254.61C83.952 254.4 82.992 252.81 82.896 251.466C82.8 250.122 83.532 249.282 83.418 247.776C83.304 246.27 82.128 245.832 82.05 244.83C81.972 243.828 82.944 242.37 82.932 241.368C82.932 239.256 82.968 241.56 83.388 229.554C83.622 222.708 85.278 221.22 83.388 213.456C82.704 210.654 75.36 159.924 75.36 159.924L98.01 161.28C98.01 161.28 98.37 169.92 98.778 180.126C99.294 193.11 99.888 208.626 99.906 212.118C99.942 219.21 99.306 229.146 98.772 237.966C98.55 241.728 98.172 244.32 98.772 245.766C98.8432 245.917 98.8859 246.08 98.898 246.246C99 247.2 98.322 247.266 98.61 248.772Z" stroke="#263238" stroke-linecap="round" stroke-linejoin="round"/>
<path d="M96.876 177.678C96.876 177.678 94.098 180.078 91.728 179.646" stroke="#263238" stroke-linecap="round" stroke-linejoin="round"/>
<path d="M96.6 182.214C96.6 182.214 91.92 181.086 91.386 180.138" stroke="#263238" stroke-linecap="round" stroke-linejoin="round"/>
<path d="M90.6 203.592C90.6 203.592 93.126 210.192 95.934 211.788" stroke="#263238" stroke-linecap="round" stroke-linejoin="round"/>
<path d="M96.06 247.398C96.06 247.398 90.45 249.132 87.66 247.866C84.87 246.6 89.862 250.764 95.106 250.398" stroke="#263238" stroke-linecap="round" stroke-linejoin="round"/>
<path d="M88.116 217.476C88.116 217.476 88.164 235.026 92.742 238.518" stroke="#263238" stroke-linecap="round" stroke-linejoin="round"/>
<path d="M92.82 256.83C93.9025 256.398 95.0514 256.157 96.216 256.116" stroke="#263238" stroke-linecap="round" stroke-linejoin="round"/>
<path d="M92.922 259.104C92.922 259.104 94.548 258.504 95.724 258.264" stroke="#263238" stroke-linecap="round" stroke-linejoin="round"/>
<path d="M93.228 261.282L95.85 260.496" stroke="#263238" stroke-linecap="round" stroke-linejoin="round"/>
<path d="M94.506 263.064L96.66 262.218" stroke="#263238" stroke-linecap="round" stroke-linejoin="round"/>
<path d="M96.948 264.594L98.202 263.628" stroke="#263238" stroke-linecap="round" stroke-linejoin="round"/>
<path d="M93.36 254.664C93.36 254.664 93.15 260.664 95.046 262.638C96.942 264.612 98.952 264.654 98.778 265.41" stroke="#263238" stroke-linecap="round" stroke-linejoin="round"/>
<path d="M76.062 253.962C76.062 253.962 67.578 254.136 67.548 254.472C67.518 254.808 68.748 256.674 67.35 261.156C67.05 262.134 65.55 263.988 65.358 266.322C65.166 268.656 65.604 268.656 65.604 268.656C65.604 268.656 84.804 268.764 85.866 268.326C85.866 268.326 86.61 266.022 86.064 264.876C84.984 262.602 81.018 264.438 81.144 264.462H81.018C78.06 263.808 76.572 260.862 77.58 257.742L78.858 253.8L76.062 253.962Z" fill="#263238"/>
<mask id="mask2_148_635" style="mask-type:luminance" maskUnits="userSpaceOnUse" x="65" y="253" width="22" height="16">
<path d="M76.062 253.962C76.062 253.962 67.578 254.136 67.548 254.472C67.518 254.808 68.748 256.674 67.35 261.156C67.05 262.134 65.55 263.988 65.358 266.322C65.166 268.656 65.604 268.656 65.604 268.656C65.604 268.656 84.804 268.764 85.866 268.326C85.866 268.326 86.61 266.022 86.064 264.876C84.984 262.602 81.018 264.438 81.144 264.462H81.018C78.06 263.808 76.572 260.862 77.58 257.742L78.858 253.8L76.062 253.962Z" fill="white"/>
</mask>
<g mask="url(#mask2_148_635)">
<path opacity="0.25" d="M76.062 253.962C76.062 253.962 67.578 254.136 67.548 254.472C67.518 254.808 68.748 256.674 67.35 261.156C67.05 262.134 65.55 263.988 65.358 266.322C65.166 268.656 65.604 268.656 65.604 268.656C65.604 268.656 84.804 268.764 85.866 268.326C85.866 268.326 86.61 266.022 86.064 264.876C84.984 262.602 81.018 264.438 81.144 264.462H81.018C78.06 263.808 76.572 260.862 77.58 257.742L78.858 253.8L76.062 253.962Z" fill="white"/>
</g>
<path d="M76.062 253.962C76.062 253.962 67.578 254.136 67.548 254.472C67.518 254.808 68.748 256.674 67.35 261.156C67.05 262.134 65.55 263.988 65.358 266.322C65.166 268.656 65.604 268.656 65.604 268.656C65.604 268.656 84.804 268.764 85.866 268.326C85.866 268.326 86.61 266.022 86.064 264.876C84.984 262.602 81.018 264.438 81.144 264.462H81.018C78.06 263.808 76.572 260.862 77.58 257.742L78.858 253.8L76.062 253.962Z" stroke="#263238" stroke-linecap="round" stroke-linejoin="round"/>
<path d="M96 161.28L73.584 159.924C73.584 159.924 72.21 210.57 72.384 213.366C72.942 221.118 71.034 222.6 69.618 229.44C67.134 241.44 67.47 239.124 67.134 241.23C66.972 242.232 65.748 243.69 65.652 244.692C65.556 245.694 66.66 246.132 66.516 247.632C66.372 249.132 65.484 249.984 65.358 251.316C65.232 252.648 65.91 254.244 67.566 254.454C69.222 254.664 77.166 254.238 78.858 253.776C80.55 253.314 81.036 251.976 81.612 251.262C82.188 250.548 81.564 250.128 81.534 248.622C81.504 247.116 82.182 247.074 82.272 246.09C82.2884 245.929 82.2742 245.766 82.23 245.61C81.864 244.176 82.692 241.59 83.556 237.81C85.596 229.008 87.954 219.084 89.13 212.01C89.73 208.482 91.836 192.678 93.564 179.61C93.564 179.61 95.22 176.94 96.06 171.768" fill="#92E3A9"/>
<mask id="mask3_148_635" style="mask-type:luminance" maskUnits="userSpaceOnUse" x="65" y="159" width="32" height="96">
<path d="M96 161.28L73.584 159.924C73.584 159.924 72.21 210.57 72.384 213.366C72.942 221.118 71.034 222.6 69.618 229.44C67.134 241.44 67.47 239.124 67.134 241.23C66.972 242.232 65.748 243.69 65.652 244.692C65.556 245.694 66.66 246.132 66.516 247.632C66.372 249.132 65.484 249.984 65.358 251.316C65.232 252.648 65.91 254.244 67.566 254.454C69.222 254.664 77.166 254.238 78.858 253.776C80.55 253.314 81.036 251.976 81.612 251.262C82.188 250.548 81.564 250.128 81.534 248.622C81.504 247.116 82.182 247.074 82.272 246.09C82.2884 245.929 82.2742 245.766 82.23 245.61C81.864 244.176 82.692 241.59 83.556 237.81C85.596 229.008 87.954 219.084 89.13 212.01C89.73 208.482 91.836 192.678 93.564 179.61C93.564 179.61 95.22 176.94 96.06 171.768" fill="white"/>
</mask>
<g mask="url(#mask3_148_635)">
<path opacity="0.3" d="M73.512 161.682L73.314 169.248C77.1077 169.556 80.9202 169.556 84.714 169.248C92.118 168.588 96.624 165.306 96.624 165.306L96.024 161.28C96.024 161.28 87.624 163.542 83.49 163.224C79.356 162.906 75.396 162.408 73.512 161.682Z" fill="black"/>
</g>
<path d="M96 161.28L73.584 159.924C73.584 159.924 72.21 210.57 72.384 213.366C72.942 221.118 71.034 222.6 69.618 229.44C67.134 241.44 67.47 239.124 67.134 241.23C66.972 242.232 65.748 243.69 65.652 244.692C65.556 245.694 66.66 246.132 66.516 247.632C66.372 249.132 65.484 249.984 65.358 251.316C65.232 252.648 65.91 254.244 67.566 254.454C69.222 254.664 77.166 254.238 78.858 253.776C80.55 253.314 81.036 251.976 81.612 251.262C82.188 250.548 81.564 250.128 81.534 248.622C81.504 247.116 82.182 247.074 82.272 246.09C82.2884 245.929 82.2742 245.766 82.23 245.61C81.864 244.176 82.692 241.59 83.556 237.81C85.596 229.008 87.954 219.084 89.13 212.01C89.73 208.482 91.836 192.678 93.564 179.61C93.564 179.61 95.22 176.94 96.06 171.768" stroke="#263238" stroke-linecap="round" stroke-linejoin="round"/>
<path d="M84.924 222.534C84.924 222.534 77.172 235.734 69.522 240.048" stroke="#263238" stroke-linecap="round" stroke-linejoin="round"/>
<path d="M69.39 247.398L77.712 248.448C78.312 248.526 79.086 248.766 79.026 249.402C78.966 250.038 78.324 250.326 77.772 250.524C75.9191 251.215 73.9048 251.351 71.976 250.914" stroke="#263238" stroke-linecap="round" stroke-linejoin="round"/>
<path d="M69.636 243.396C72.6255 245.11 76.0004 246.039 79.446 246.096" stroke="#263238" stroke-linecap="round" stroke-linejoin="round"/>
<path d="M74.856 219.372C74.856 219.372 79.056 219.534 81.216 219.342C79.614 221.538 77.016 222.492 74.508 222.618" stroke="#263238" stroke-linecap="round" stroke-linejoin="round"/>
<path d="M78 166.2C78 166.2 77.4 187.764 77.184 196.734C76.968 205.704 76.584 216.162 76.584 216.162C76.3804 216.482 76.2421 216.839 76.1772 217.213C76.1124 217.587 76.1222 217.97 76.206 218.34L76.542 219.444L76.362 222.558C76.121 222.841 75.9458 223.174 75.8493 223.533C75.7528 223.892 75.7373 224.268 75.804 224.634C76.092 225.768 73.764 233.67 73.764 233.67L73.362 234.192C72.9508 234.684 72.6758 235.276 72.5642 235.907C72.4526 236.539 72.5084 237.189 72.726 237.792L71.892 244.56C71.4437 244.927 71.1432 245.444 71.0462 246.015C70.9491 246.586 71.062 247.173 71.364 247.668L70.584 251.196C70.1883 251.531 69.9237 251.996 69.837 252.507C69.7503 253.019 69.847 253.545 70.11 253.992L70.242 254.19" stroke="#263238" stroke-linecap="round" stroke-linejoin="round"/>
<path d="M116.826 126.432C116.226 127.746 111.114 131.232 111.114 131.232C111.109 130.656 111.232 130.087 111.474 129.564C111.84 129 112.074 128.46 112.308 128.124C112.368 127.213 112.069 126.315 111.474 125.622C110.778 124.848 110.232 126.78 109.926 128.064C109.62 129.348 107.616 131.304 107.706 132.264C107.88 133.368 108.102 134.454 108.384 135.534C108.384 135.534 99.834 138.534 98.892 136.734C96.8974 132.867 94.6941 129.112 92.292 125.484C90.282 128.292 91.866 132.168 93 136.932C94.134 141.696 97.626 148.368 97.626 148.368C103.878 145.368 110.982 137.568 110.982 137.568C110.982 137.568 112.65 136.824 114.714 136.116C116.778 135.408 116.478 134.802 116.808 132.774C117.138 130.746 118.872 127.974 118.77 126.93C118.668 125.886 117.438 125.124 116.826 126.432Z" fill="white" stroke="#263238" stroke-linecap="round" stroke-linejoin="round"/>
<path d="M96.6 136.566C96.522 140.91 97.38 155.64 98.31 161.484L72.864 160.842V160.416C74.73 153.504 73.518 146.016 70.572 139.518C69.012 136.068 68.316 131.658 67.512 127.482C65.466 116.85 70.602 113.556 74.892 113.148C76.548 113.07 76.692 111.948 77.892 112.038C78.7203 112.139 79.5605 112.036 80.34 111.738C80.874 113.916 83.832 120.312 84.846 121.044C85.3385 121.433 85.9364 121.665 86.5623 121.71C87.1881 121.754 87.813 121.61 88.356 121.296C89.376 120.582 89.658 119.22 89.892 117.996C89.9974 117.333 90.1869 116.685 90.456 116.07C91.956 116.82 94.572 117.708 96.516 121.206C98.916 128.928 97.596 123.978 99.444 135.306C99.762 137.04 96.6 136.566 96.6 136.566Z" fill="white" stroke="#263238" stroke-linecap="round" stroke-linejoin="round"/>
<path d="M92.598 116.466L90.138 115.608C91.806 121.338 90.36 127.848 86.142 125.274C81.924 122.7 80.25 115.302 78.99 112.074C78.33 111.87 75.648 111.774 74.256 112.842C75.708 115.5 79.656 120.78 79.194 125.07C78.666 129.87 74.892 134.13 67.842 129.306C68.802 136.578 71.85 141.822 72.438 144.306C74.586 153.306 73.152 154.536 72.15 163.416C82.35 168.618 94.692 166.032 100.098 164.448C98.448 155.4 99.174 132.6 92.598 116.466Z" fill="#92E3A9"/>
<mask id="mask4_148_635" style="mask-type:luminance" maskUnits="userSpaceOnUse" x="67" y="111" width="34" height="56">
<path d="M92.598 116.466L90.138 115.608C91.806 121.338 90.36 127.848 86.142 125.274C81.924 122.7 80.25 115.302 78.99 112.074C78.33 111.87 75.648 111.774 74.256 112.842C75.708 115.5 79.656 120.78 79.194 125.07C78.666 129.87 74.892 134.13 67.842 129.306C68.802 136.578 71.85 141.822 72.438 144.306C74.586 153.306 73.152 154.536 72.15 163.416C82.35 168.618 94.692 166.032 100.098 164.448C98.448 155.4 99.174 132.6 92.598 116.466Z" fill="white"/>
</mask>
<g mask="url(#mask4_148_635)">
<path opacity="0.3" d="M77.052 154.662C77.052 154.662 93.69 161.922 96.06 154.872C91.6928 155.82 87.1943 156.005 82.764 155.418L77.052 154.662Z" fill="black"/>
<path opacity="0.3" d="M71.154 138.954L83.244 129.354C83.244 129.354 85.644 135.954 79.212 139.74C74.862 142.302 71.154 138.954 71.154 138.954Z" fill="black"/>
</g>
<path d="M92.598 116.466L90.138 115.608C91.806 121.338 90.36 127.848 86.142 125.274C81.924 122.7 80.25 115.302 78.99 112.074C78.33 111.87 75.648 111.774 74.256 112.842C75.708 115.5 79.656 120.78 79.194 125.07C78.666 129.87 74.892 134.13 67.842 129.306C68.802 136.578 71.85 141.822 72.438 144.306C74.586 153.306 73.152 154.536 72.15 163.416C82.35 168.618 94.692 166.032 100.098 164.448C98.448 155.4 99.174 132.6 92.598 116.466Z" stroke="#263238" stroke-linecap="round" stroke-linejoin="round"/>
<path d="M96.06 154.638C95.9562 155.09 95.7502 155.512 95.4579 155.872C95.1657 156.231 94.7949 156.52 94.374 156.714" stroke="#263238" stroke-linecap="round" stroke-linejoin="round"/>
<path d="M91.692 157.362C86.6315 157.823 81.546 156.806 77.052 154.434" stroke="#263238" stroke-linecap="round" stroke-linejoin="round"/>
<path d="M115.008 116.7L109.8 130.59C109.708 130.838 109.673 131.103 109.699 131.366C109.725 131.629 109.811 131.883 109.95 132.108L110.916 133.656C111.39 134.418 113.064 134.646 113.784 134.154C114.047 133.977 114.255 133.73 114.384 133.44L119.52 119.562C119.653 119.245 119.689 118.895 119.623 118.557C119.556 118.22 119.391 117.909 119.148 117.666L117.528 116.1C117.381 115.953 117.206 115.838 117.013 115.763C116.82 115.687 116.613 115.652 116.406 115.66C116.198 115.668 115.995 115.718 115.808 115.808C115.621 115.899 115.455 116.027 115.32 116.184C115.185 116.335 115.08 116.51 115.008 116.7Z" fill="#263238"/>
<path d="M67.83 120.438C67.9543 122.511 68.4544 124.544 69.306 126.438C71.808 132.39 81.36 147.204 83.454 148.206C85.548 149.208 106.95 137.688 108.498 136.11C108.938 135.618 109.235 135.015 109.355 134.367C109.476 133.718 109.416 133.049 109.182 132.432C109.182 132.432 109.152 133.908 110.412 133.632C111.204 133.458 110.55 131.01 110.55 131.01C110.55 131.01 112.002 129.984 110.616 128.088C110.616 128.088 112.572 128.088 112.416 126.612C112.362 126.012 106.602 125.934 105.72 127.596C104.646 129.612 103.578 134.868 103.578 134.868C103.578 134.868 89.634 138.468 86.742 139.002L79.2 122.46" fill="white"/>
<path d="M67.83 120.438C67.9543 122.511 68.4544 124.544 69.306 126.438C71.808 132.39 81.36 147.204 83.454 148.206C85.548 149.208 106.95 137.688 108.498 136.11C108.938 135.618 109.235 135.015 109.355 134.367C109.476 133.718 109.416 133.049 109.182 132.432C109.182 132.432 109.152 133.908 110.412 133.632C111.204 133.458 110.55 131.01 110.55 131.01C110.55 131.01 112.002 129.984 110.616 128.088C110.616 128.088 112.572 128.088 112.416 126.612C112.362 126.012 106.602 125.934 105.72 127.596C104.646 129.612 103.578 134.868 103.578 134.868C103.578 134.868 89.634 138.468 86.742 139.002L79.2 122.46" stroke="#263238" stroke-linecap="round" stroke-linejoin="round"/>
<path d="M108.72 137.004C109.155 135.909 109.904 134.967 110.874 134.298C112.002 133.764 113.556 133.596 114.786 133.362C114.786 133.362 115.746 129.294 116.268 129.408C117.858 129.738 116.616 133.476 116.616 133.476" fill="white"/>
<path d="M108.72 137.004C109.155 135.909 109.904 134.967 110.874 134.298C112.002 133.764 113.556 133.596 114.786 133.362C114.786 133.362 115.746 129.294 116.268 129.408C117.858 129.738 116.616 133.476 116.616 133.476" stroke="#263238" stroke-linecap="round" stroke-linejoin="round"/>
<path d="M118.53 127.944C118.325 127.739 118.05 127.618 117.76 127.606C117.47 127.594 117.186 127.691 116.964 127.878C116.19 128.58 115.014 130.566 113.76 131.628" stroke="#263238" stroke-linecap="round" stroke-linejoin="round"/>
<path d="M107.4 132.216C107.742 131.46 110.172 130.182 110.652 131.82" stroke="#263238" stroke-linecap="round" stroke-linejoin="round"/>
<path d="M107.4 130.2C107.4 130.2 110.214 128.664 110.778 130.566" stroke="#263238" stroke-linecap="round" stroke-linejoin="round"/>
<path d="M107.754 128.4C107.754 128.4 108.924 128.172 109.182 128.148C110.112 128.058 111.126 127.938 111.63 127.938" stroke="#263238" stroke-linecap="round" stroke-linejoin="round"/>
<path d="M93.564 179.646C93.564 179.646 89.814 176.34 87.636 175.71L93.564 179.646Z" fill="#92E3A9"/>
<path d="M93.564 179.646C93.564 179.646 89.814 176.34 87.636 175.71" stroke="#263238" stroke-linecap="round" stroke-linejoin="round"/>
<path d="M74.628 256.866C75.7334 256.433 76.9036 256.187 78.09 256.14" stroke="#263238" stroke-linecap="round" stroke-linejoin="round"/>
<path d="M74.544 259.2C74.544 259.2 76.218 258.6 77.412 258.342" stroke="#263238" stroke-linecap="round" stroke-linejoin="round"/>
<path d="M74.658 261.39L77.346 260.598" stroke="#263238" stroke-linecap="round" stroke-linejoin="round"/>
<path d="M75.78 263.202L78.012 262.344" stroke="#263238" stroke-linecap="round" stroke-linejoin="round"/>
<path d="M78.09 264.756L79.428 263.778" stroke="#263238" stroke-linecap="round" stroke-linejoin="round"/>
<path d="M75.36 254.664C75.36 254.664 74.628 260.784 76.362 262.77C78.096 264.756 80.088 264.816 79.854 265.59" stroke="#263238" stroke-linecap="round" stroke-linejoin="round"/>
<path d="M89.904 115.362C89.904 115.362 92.436 125.232 88.374 125.982C82.836 127.002 78.99 112.056 78.99 112.056C79.836 112.002 79.938 111.648 80.676 111.228C80.676 111.228 86.862 123.6 89.904 115.362Z" fill="#263238"/>
<path d="M73.062 113.49C73.062 113.49 67.272 114.636 67.254 123.246C67.236 131.856 71.052 139.026 71.052 139.026C71.052 139.026 75.57 138.66 78.426 136.566C84.426 132.186 83.454 129.726 83.454 129.726L80.31 123.498C80.31 123.498 79.278 119.508 74.79 113.148L73.062 113.49Z" fill="#263238"/>
<path d="M92.952 116.808C96.108 125.766 96.252 129.12 96.822 133.254C96.822 133.254 99.912 132.654 100.386 131.97C100.386 131.97 98.886 124.638 97.266 120.846C96.234 118.44 94.878 117.6 92.952 116.808Z" fill="#263238"/>
<path d="M89.898 106.638C89.898 106.638 89.448 114.846 89.478 115.506C89.532 116.748 90.432 118.398 89.604 119.328C89.1474 119.758 88.5721 120.041 87.9527 120.141C87.3333 120.24 86.6983 120.152 86.13 119.886C85.0044 119.326 84.0308 118.503 83.292 117.486C81.8689 115.743 80.634 113.855 79.608 111.852C80.2945 111.191 80.7988 110.365 81.072 109.452C81.072 109.452 81.234 108.756 81.24 108.72C81.4491 107.029 81.4268 105.317 81.174 103.632C80.8869 101.547 80.4027 99.4937 79.728 97.5L89.898 106.638Z" fill="white" stroke="#263238" stroke-linecap="round" stroke-linejoin="round"/>
<path d="M81.366 114.474C82.7862 114.938 84.1633 115.524 85.482 116.226L81.366 114.474Z" fill="#263238"/>
<path d="M81.366 114.474C82.7862 114.938 84.1633 115.524 85.482 116.226" stroke="#263238" stroke-linecap="round" stroke-linejoin="round"/>
<path d="M80.112 86.784C80.112 86.784 75 89.706 77.646 97.332C80.292 104.958 86.19 113.478 91.536 112.332C96.882 111.186 98.268 100.566 95.442 93.486C92.616 86.406 85.416 82.488 80.112 86.784Z" fill="white" stroke="#263238" stroke-linecap="round" stroke-linejoin="round"/>
<path d="M95.358 100.86C95.394 101.46 95.148 102.012 94.812 102.06C94.476 102.108 94.17 101.58 94.134 100.956C94.098 100.332 94.332 99.81 94.68 99.786C95.028 99.762 95.322 100.23 95.358 100.86Z" fill="#263238"/>
<path d="M90.144 100.614C90.18 101.214 89.94 101.76 89.61 101.784C89.28 101.808 88.962 101.304 88.926 100.686C88.89 100.068 89.13 99.534 89.472 99.486C89.814 99.438 90.102 99.978 90.144 100.614Z" fill="#263238"/>
<path d="M92.106 88.098C88.68 84.762 84.018 83.73 80.286 86.748C80.286 86.748 75.18 89.67 77.826 97.302C78.4672 99.1213 79.2434 100.89 80.148 102.594L80.244 102.678C80.244 102.678 78.564 101.004 85.23 97.32C87.42 96.084 90.654 88.374 92.106 88.098Z" fill="#263238" stroke="#263238" stroke-linecap="round" stroke-linejoin="round"/>
<path d="M86.754 90.6C86.754 90.6 87.222 85.29 90.918 85.11C92.844 85.014 95.388 87.6 95.718 88.962C95.925 89.8842 96.3952 90.7266 97.0715 91.3869C97.7478 92.0472 98.6011 92.4971 99.528 92.682C99.528 92.682 98.46 96.282 96.378 96.546C92.94 96.966 91.158 96.162 88.938 93.132C88.3181 92.2522 87.6192 91.4308 86.85 90.678L86.754 90.6Z" fill="#263238" stroke="#263238" stroke-linecap="round" stroke-linejoin="round"/>
<path d="M81.252 100.8C81.252 100.8 79.23 96.636 77.43 101.22C76.308 104.076 80.796 106.362 82.332 105.606" fill="white"/>
<path d="M81.252 100.8C81.252 100.8 79.23 96.636 77.43 101.22C76.308 104.076 80.796 106.362 82.332 105.606" stroke="#263238" stroke-linecap="round" stroke-linejoin="round"/>
<path d="M93.288 98.274C92.9476 98.6505 92.7016 99.1026 92.5701 99.5929C92.4387 100.083 92.4256 100.598 92.532 101.094C92.6873 102.184 93.0563 103.232 93.618 104.178L91.05 105" stroke="#263238" stroke-linecap="round" stroke-linejoin="round"/>
<path d="M88.8 106.878C89.2037 107.281 89.7138 107.56 90.2707 107.684C90.8275 107.807 91.408 107.769 91.944 107.574" stroke="#263238" stroke-linecap="round" stroke-linejoin="round"/>
<path d="M85.926 98.202C85.926 98.202 87.726 96.21 89.898 97.17" stroke="#263238" stroke-linecap="round" stroke-linejoin="round"/>
<path d="M94.278 97.674C94.278 97.674 96.636 96.936 96.336 99.018" stroke="#263238" stroke-linecap="round" stroke-linejoin="round"/>
<path d="M81.21 103.08C81.0013 103.087 80.7958 103.027 80.6232 102.91C80.4506 102.792 80.3199 102.623 80.25 102.426C80.076 102.048 80.028 101.616 79.854 101.226C79.7822 101.029 79.6502 100.86 79.4768 100.743C79.3033 100.625 79.0973 100.566 78.888 100.572" fill="#263238"/>
<path d="M81.21 103.08C81.0013 103.087 80.7958 103.027 80.6232 102.91C80.4506 102.792 80.3199 102.623 80.25 102.426C80.076 102.048 80.028 101.616 79.854 101.226C79.7822 101.029 79.6502 100.86 79.4768 100.743C79.3033 100.625 79.0973 100.566 78.888 100.572" stroke="#263238" stroke-linecap="round" stroke-linejoin="round"/>
<path d="M88.692 86.622C88.4372 85.5489 88.0333 84.5169 87.492 83.556C87.492 83.556 88.47 83.31 89.01 83.196C88.89 84.246 88.8 85.566 88.692 86.622Z" fill="#263238" stroke="#263238" stroke-linecap="round" stroke-linejoin="round"/>
<path d="M89.718 112.104L89.76 113.904C89.3645 114.079 88.9274 114.137 88.5 114.072C86.196 113.802 83.874 108.672 83.73 108.378L83.778 108.432C86.502 111.438 88.524 112.086 89.718 112.104Z" fill="#263238"/>
<path d="M167.556 129.372H182.718" stroke="#263238" stroke-linecap="round" stroke-linejoin="round"/>
<path d="M150.162 129.372H165.558" stroke="#263238" stroke-linecap="round" stroke-linejoin="round"/>
<path d="M141.96 129.372H146.694" stroke="#263238" stroke-linecap="round" stroke-linejoin="round"/>
<path d="M154.41 137.604H182.658" stroke="#263238" stroke-linecap="round" stroke-linejoin="round"/>
<path d="M146.694 137.604H150.162" stroke="#263238" stroke-linecap="round" stroke-linejoin="round"/>
<path d="M167.052 145.842H182.598" stroke="#263238" stroke-linecap="round" stroke-linejoin="round"/>
<path d="M151.428 145.842H164.754" stroke="#263238" stroke-linecap="round" stroke-linejoin="round"/>
<path d="M164.922 154.074H182.538" stroke="#263238" stroke-linecap="round" stroke-linejoin="round"/>
<path d="M156.162 154.074H162.42" stroke="#263238" stroke-linecap="round" stroke-linejoin="round"/>
<path d="M216.726 154.374H172.578L174.792 129.06H218.94L216.726 154.374Z" fill="white" stroke="#263238" stroke-linecap="round" stroke-linejoin="round"/>
<path d="M218.94 129.066H174.792" stroke="#263238" stroke-linecap="round" stroke-linejoin="round"/>
<path d="M216.726 154.374H172.578L187.668 140.046L195.336 146.58L204.312 139.92L216.726 154.374Z" fill="white" stroke="#263238" stroke-linecap="round" stroke-linejoin="round"/>
<path d="M218.94 129.06L204.312 139.92L195.336 146.58L187.668 140.046L174.792 129.06H218.94Z" fill="white" stroke="#263238" stroke-linecap="round" stroke-linejoin="round"/>
<path d="M137.736 129.372H126.654" stroke="#263238" stroke-linecap="round" stroke-linejoin="round"/>
<path d="M180.198 100.374C171.354 107.574 155.028 111.972 155.028 111.972L163.254 103.158C159.241 101.866 155.779 99.2639 153.421 95.769C151.064 92.274 149.949 88.0887 150.254 83.8842C150.56 79.6797 152.268 75.6995 155.106 72.582C157.943 69.4644 161.746 67.3901 165.903 66.6916C170.06 65.9931 174.332 66.7109 178.032 68.7299C181.733 70.749 184.649 73.9523 186.311 77.8261C187.974 81.7 188.288 86.02 187.202 90.0934C186.116 94.1668 183.694 97.7576 180.324 100.29" fill="white"/>
<path d="M180.198 100.374C171.354 107.574 155.028 111.972 155.028 111.972L163.254 103.158C159.241 101.866 155.779 99.2639 153.421 95.769C151.064 92.274 149.949 88.0887 150.254 83.8842C150.56 79.6797 152.268 75.6995 155.106 72.582C157.943 69.4644 161.746 67.3901 165.903 66.6916C170.06 65.9931 174.332 66.7109 178.032 68.7299C181.733 70.749 184.649 73.9523 186.311 77.8261C187.974 81.7 188.288 86.02 187.202 90.0934C186.116 94.1668 183.694 97.7576 180.324 100.29" stroke="#263238" stroke-linecap="round" stroke-linejoin="round"/>
<path d="M180.648 77.142C183.707 77.142 186.186 74.6626 186.186 71.604C186.186 68.5455 183.707 66.066 180.648 66.066C177.589 66.066 175.11 68.5455 175.11 71.604C175.11 74.6626 177.589 77.142 180.648 77.142Z" fill="#92E3A9" stroke="#263238" stroke-linecap="round" stroke-linejoin="round"/>
<path d="M177.438 70.368L180.648 73.98L187.95 65.34L187.692 65.07L180.648 71.13L178.782 69.096L177.438 70.368Z" fill="#263238" stroke="#263238" stroke-linecap="round" stroke-linejoin="round"/>
<path d="M159.288 80.694H179.97" stroke="#263238" stroke-linecap="round" stroke-linejoin="round"/>
<path d="M158.82 86.034H179.502" stroke="#263238" stroke-linecap="round" stroke-linejoin="round"/>
<path d="M158.358 91.374H179.034" stroke="#263238" stroke-linecap="round" stroke-linejoin="round"/>
<path d="M223.488 33.5699V43.0379L249.39 23.0699L223.488 33.5699Z" fill="#92E3A9" stroke="#263238" stroke-linecap="round" stroke-linejoin="round"/>
<path d="M223.488 33.57L249.984 22.746L213.804 26.496L223.488 33.57Z" fill="#92E3A9" stroke="#263238" stroke-linecap="round" stroke-linejoin="round"/>
<path d="M226.602 35.532L239.076 44.76L249.984 22.746L226.602 35.532Z" fill="#92E3A9" stroke="#263238" stroke-linecap="round" stroke-linejoin="round"/>
<path d="M226.602 35.532L223.488 43.038L230.124 38.136L226.602 35.532Z" fill="#92E3A9" stroke="#263238" stroke-linecap="round" stroke-linejoin="round"/>
<path d="M124.23 114.882C124.296 114.69 124.368 114.504 124.434 114.318" stroke="#263238" stroke-linecap="round" stroke-linejoin="round"/>
<path d="M125.22 112.05C130.8 95.388 129.798 85.374 138.858 69.234C140.658 65.97 149.772 50.526 162.72 45.018C169.452 42.156 173.736 46.428 172.002 49.452C168.132 56.184 153.918 48.114 168.132 40.146C181.284 32.778 209.28 47.184 222.402 43.05" stroke="#263238" stroke-linecap="round" stroke-linejoin="round" stroke-dasharray="2 4"/>
<path d="M223.524 42.636C223.71 42.558 223.89 42.474 224.07 42.384" stroke="#263238" stroke-linecap="round" stroke-linejoin="round"/>
</svg>
