<svg width="280" height="280" viewBox="0 0 280 280" fill="none" xmlns="http://www.w3.org/2000/svg">
<path d="M255.668 117.102C228.374 70.3528 154.336 87.0016 139.216 64.2656C131.471 52.64 122.808 39.1272 110.242 32.1104C98.2632 25.3904 84.3752 23.0328 72.268 23.9176C29.0304 27.0816 10.7016 65.7664 19.0064 108.248C30.0944 164.914 80.3264 222.802 140 223.205C171.214 223.44 201.04 212.24 224.392 196.487L224.913 196.134C248.265 180.236 276.511 152.79 255.668 117.102Z" fill="#92E3A9"/>
<path opacity="0.7" d="M255.668 117.102C228.374 70.3528 154.336 87.0016 139.216 64.2656C131.471 52.64 122.808 39.1272 110.242 32.1104C98.2632 25.3904 84.3752 23.0328 72.268 23.9176C29.0304 27.0816 10.7016 65.7664 19.0064 108.248C30.0944 164.914 80.3264 222.802 140 223.205C171.214 223.44 201.04 212.24 224.392 196.487L224.913 196.134C248.265 180.236 276.511 152.79 255.668 117.102Z" fill="white"/>
<path d="M43.7864 120.501H40.7512C37.4941 120.501 34.3705 121.795 32.0674 124.098C29.7643 126.401 28.4704 129.525 28.4704 132.782V200.172C28.4704 203.429 29.7643 206.553 32.0674 208.856C34.3705 211.159 37.4941 212.453 40.7512 212.453H82.3928C85.6499 212.453 88.7735 211.159 91.0766 208.856C93.3797 206.553 94.6736 203.429 94.6736 200.172" stroke="#263238" stroke-width="1.10311" stroke-linecap="round" stroke-linejoin="round" stroke-dasharray="4.41 4.41"/>
<path d="M91.28 56.9128V43.6016C91.28 41.6099 92.0701 39.6995 93.4769 38.2895C94.8836 36.8796 96.7923 36.0852 98.784 36.0808H152.936C154.931 36.0808 156.844 36.8732 158.254 38.2836C159.664 39.694 160.457 41.607 160.457 43.6016" stroke="#263238" stroke-width="1.10311" stroke-linecap="round" stroke-linejoin="round" stroke-dasharray="4.41 4.41"/>
<path d="M140 264.41C199.233 264.41 247.251 257.7 247.251 249.424C247.251 241.148 199.233 234.438 140 234.438C80.7668 234.438 32.7488 241.148 32.7488 249.424C32.7488 257.7 80.7668 264.41 140 264.41Z" fill="#92E3A9"/>
<path opacity="0.5" d="M140 264.41C199.233 264.41 247.251 257.7 247.251 249.424C247.251 241.148 199.233 234.438 140 234.438C80.7668 234.438 32.7488 241.148 32.7488 249.424C32.7488 257.7 80.7668 264.41 140 264.41Z" fill="white"/>
<path d="M241.102 74.7712V175.605C241.102 178.901 239.793 182.062 237.463 184.394C235.133 186.725 231.972 188.035 228.676 188.037H51.324C48.0278 188.035 44.8671 186.725 42.5369 184.394C40.2066 182.062 38.8976 178.901 38.8976 175.605V74.7712C38.8976 74.4744 38.8976 74.2112 38.9368 73.8976C39.1551 70.7609 40.5549 67.8237 42.8539 65.6786C45.1528 63.5335 48.1797 62.3401 51.324 62.3392H228.676C231.824 62.3405 234.854 63.537 237.153 65.6868C239.453 67.8366 240.85 70.7793 241.063 73.92C241.091 74.1888 241.102 74.48 241.102 74.7712Z" fill="white" stroke="#263238" stroke-width="1.10311" stroke-linecap="round" stroke-linejoin="round"/>
<path d="M44.9456 78.5568H235.687V171.702C235.687 174.791 234.46 177.754 232.276 179.938C230.091 182.122 227.128 183.35 224.039 183.35H56.5992C53.51 183.35 50.5472 182.122 48.3628 179.938C46.1784 177.754 44.9512 174.791 44.9512 171.702V78.5568H44.9456Z" fill="#263238"/>
<path opacity="0.2" d="M235.693 78.5568V171.702C235.709 174.774 234.505 177.726 232.345 179.911C230.185 182.095 227.246 183.332 224.174 183.35H56.4648C53.3929 183.332 50.4537 182.095 48.2936 179.911C46.1335 177.726 44.9292 174.774 44.9456 171.702V78.5568H235.693Z" fill="white"/>
<path d="M241.063 73.92H38.9368C39.1551 70.7833 40.5549 67.8461 42.8539 65.701C45.1528 63.5559 48.1797 62.3625 51.324 62.3616H228.676C231.82 62.3625 234.847 63.5559 237.146 65.701C239.445 67.8461 240.845 70.7833 241.063 73.92Z" fill="#92E3A9" stroke="#263238" stroke-width="1.10311" stroke-miterlimit="10"/>
<path d="M63.7728 68.1184C63.7728 68.5537 63.6437 68.9792 63.4019 69.3411C63.1601 69.703 62.8164 69.9851 62.4142 70.1517C62.0121 70.3182 61.5696 70.3618 61.1426 70.2769C60.7157 70.192 60.3236 69.9824 60.0158 69.6746C59.708 69.3668 59.4984 68.9747 59.4135 68.5478C59.3286 68.1208 59.3722 67.6783 59.5387 67.2762C59.7053 66.8741 59.9874 66.5303 60.3493 66.2885C60.7112 66.0467 61.1367 65.9176 61.572 65.9176C62.1557 65.9176 62.7155 66.1495 63.1282 66.5622C63.5409 66.9749 63.7728 67.5347 63.7728 68.1184Z" fill="#263238"/>
<path d="M73.08 68.1184C73.08 68.5537 72.9509 68.9792 72.7091 69.3411C72.4673 69.703 72.1236 69.9851 71.7214 70.1517C71.3193 70.3182 70.8768 70.3618 70.4498 70.2769C70.0229 70.192 69.6308 69.9824 69.323 69.6746C69.0152 69.3668 68.8056 68.9747 68.7207 68.5478C68.6358 68.1208 68.6794 67.6783 68.8459 67.2762C69.0125 66.8741 69.2946 66.5303 69.6565 66.2885C70.0184 66.0467 70.4439 65.9176 70.8792 65.9176C71.4629 65.9176 72.0227 66.1495 72.4354 66.5622C72.8481 66.9749 73.08 67.5347 73.08 68.1184Z" fill="#263238"/>
<path d="M80.1864 70.3192C81.4019 70.3192 82.3872 69.3339 82.3872 68.1184C82.3872 66.9029 81.4019 65.9176 80.1864 65.9176C78.9709 65.9176 77.9856 66.9029 77.9856 68.1184C77.9856 69.3339 78.9709 70.3192 80.1864 70.3192Z" fill="#263238"/>
<path d="M235.687 78.5568V171.702C235.687 174.791 234.46 177.754 232.276 179.938C230.091 182.122 227.128 183.35 224.039 183.35H56.5992C53.903 183.349 51.2905 182.413 49.2072 180.702C47.1239 178.99 45.6989 176.609 45.1752 173.964V173.93C45.0328 173.192 44.9616 172.442 44.9624 171.69V78.5568H235.687Z" stroke="#263238" stroke-width="1.10311" stroke-miterlimit="10"/>
<path d="M235.508 92.96C234.691 92.5014 233.823 92.1423 232.921 91.8904L231.874 87.2144H227.427L226.391 91.8904C225.484 92.1378 224.611 92.4971 223.793 92.96L219.778 90.3896L216.636 93.52L219.162 97.5352C218.699 98.3539 218.34 99.2267 218.092 100.134L213.416 101.17V105.616L218.092 106.663C218.337 107.575 218.697 108.451 219.162 109.273L216.591 113.316L219.738 116.458L223.776 113.887C224.593 114.351 225.464 114.712 226.369 114.962L227.41 119.633H231.84L232.882 114.962C233.784 114.709 234.653 114.348 235.469 113.887L235.676 114.022V92.848L235.508 92.96ZM229.662 109.2C228.525 109.2 227.414 108.863 226.469 108.231C225.524 107.6 224.788 106.702 224.353 105.652C223.918 104.602 223.805 103.446 224.027 102.331C224.249 101.217 224.797 100.193 225.601 99.3897C226.405 98.5864 227.429 98.0396 228.544 97.8185C229.659 97.5974 230.814 97.712 231.864 98.1478C232.914 98.5835 233.811 99.3208 234.442 100.266C235.072 101.212 235.408 102.323 235.407 103.46C235.407 104.214 235.259 104.961 234.97 105.658C234.681 106.355 234.258 106.988 233.724 107.521C233.19 108.054 232.557 108.477 231.86 108.765C231.163 109.053 230.416 109.201 229.662 109.2Z" fill="#263238"/>
<path d="M155.372 97.468V88.0936L145.516 85.904C144.984 83.9995 144.232 82.1635 143.276 80.4328L144.469 78.5568H97.9328L99.0808 80.3824C98.1127 82.1054 97.3603 83.9411 96.8408 85.848L86.9792 88.0432V97.44L96.8408 99.6408C97.3604 101.562 98.1126 103.412 99.0808 105.151L93.6656 113.669L100.302 120.299L108.814 114.878C110.54 115.85 112.377 116.611 114.285 117.146L116.48 126.974H125.832L128.038 117.124C129.94 116.586 131.771 115.825 133.493 114.856L142.01 120.277L148.641 113.646L143.259 105.129C144.213 103.401 144.965 101.569 145.499 99.6688L155.372 97.468ZM121.212 104.894C118.816 104.894 116.474 104.183 114.482 102.852C112.491 101.521 110.938 99.6295 110.021 97.4162C109.104 95.2028 108.865 92.7674 109.332 90.4177C109.799 88.0681 110.953 85.9098 112.647 84.2158C114.341 82.5218 116.499 81.3681 118.849 80.9007C121.199 80.4334 123.634 80.6732 125.847 81.59C128.061 82.5068 129.952 84.0593 131.283 86.0513C132.614 88.0432 133.325 90.3851 133.325 92.7808C133.326 94.3717 133.013 95.9471 132.404 97.417C131.796 98.887 130.904 100.223 129.779 101.347C128.654 102.472 127.318 103.365 125.848 103.973C124.378 104.582 122.803 104.894 121.212 104.894Z" fill="#263238"/>
<path d="M93.1728 161.84L93.5704 154.398L85.8592 152.225C85.5012 150.695 84.9715 149.211 84.28 147.801L88.9392 141.26L83.944 135.722L76.9664 139.642C75.6327 138.802 74.2064 138.12 72.716 137.609L71.3832 129.702L63.9464 129.36L61.796 137.094C60.2638 137.437 58.7785 137.964 57.372 138.662L50.8368 134.008L45.2872 138.998L49.2408 145.981C48.3932 147.309 47.7088 148.734 47.2024 150.226L44.9624 150.595V160.675L46.5976 161.134C46.9368 162.669 47.4615 164.156 48.16 165.564L44.9456 170.072L45.1584 173.93V173.964L48.4792 177.643L55.468 173.695C56.7994 174.551 58.2306 175.242 59.7296 175.75L61.04 183.344L61.1016 183.663L68.5384 184.055L68.7344 183.344L70.6888 176.327C72.2278 175.983 73.7204 175.456 75.1352 174.759L81.6592 179.407L87.2032 174.423L83.2832 167.434C84.1229 166.108 84.798 164.685 85.2936 163.195L93.1728 161.84ZM73.4216 150.22C72.1477 148.803 70.4822 147.796 68.6357 147.326C66.7893 146.855 64.8448 146.943 63.0484 147.578C61.2519 148.214 59.6842 149.367 58.5435 150.893C57.4028 152.42 56.7405 154.25 56.6401 156.153C56.5398 158.055 57.0061 159.945 57.98 161.583C58.9539 163.221 60.3916 164.533 62.1113 165.353C63.831 166.173 65.7554 166.465 67.6411 166.192C69.5268 165.919 71.289 165.092 72.7048 163.817C74.5952 162.109 75.7319 159.722 75.8663 157.178C76.0006 154.634 75.1216 152.14 73.4216 150.242V150.22Z" fill="#263238"/>
<path d="M152.656 150.746C152.944 149.594 153.096 148.412 153.11 147.224L158.458 144.424L156.979 138.998L150.942 139.278C150.331 138.263 149.604 137.324 148.775 136.478L150.562 130.704L145.69 127.904L141.613 132.35C140.462 132.073 139.285 131.922 138.102 131.902L135.302 126.554L129.881 128.027L130.166 134.07C129.152 134.681 128.212 135.408 127.366 136.237L121.587 134.45L118.787 139.317L123.267 143.388C122.978 144.536 122.829 145.715 122.825 146.899L117.466 149.699L118.944 155.12L124.992 154.834C125.591 155.854 126.316 156.794 127.148 157.634L125.35 163.38L130.228 166.18L134.282 161.767C135.434 162.057 136.617 162.206 137.805 162.21L140.605 167.563L146.026 166.09L145.785 160.927L145.746 160.042C146.774 159.437 147.726 158.709 148.579 157.875L154.353 159.667L156.738 155.501L157.142 154.795L152.656 150.746ZM139.849 154.039C138.459 154.423 136.986 154.384 135.618 153.93C134.249 153.475 133.047 152.624 132.162 151.485C131.278 150.346 130.752 148.97 130.651 147.531C130.55 146.093 130.879 144.657 131.595 143.405C132.311 142.153 133.383 141.143 134.675 140.501C135.966 139.86 137.419 139.616 138.849 139.802C140.279 139.987 141.622 140.593 142.707 141.542C143.792 142.492 144.571 143.742 144.945 145.135C145.443 146.991 145.186 148.969 144.232 150.637C143.277 152.305 141.702 153.528 139.849 154.039Z" fill="#263238"/>
<path d="M214.659 160.289L215.891 152.841L208.354 149.811C208.183 148.224 207.82 146.663 207.273 145.163L212.699 139.121L208.309 132.961L200.827 136.136C199.585 135.14 198.228 134.298 196.784 133.627L196.347 125.513L188.899 124.281L185.847 131.785C184.267 131.97 182.713 132.337 181.216 132.877L175.157 127.45L169.025 131.841L172.206 139.317C171.33 140.41 170.57 141.59 169.938 142.839C169.854 143.013 169.764 143.186 169.686 143.36L161.577 143.808L160.339 151.245L161.56 151.738L167.877 154.286C168.049 155.865 168.412 157.419 168.958 158.911L163.52 164.993L167.916 171.153L175.392 167.961C176.63 168.965 177.986 169.815 179.43 170.492L179.85 178.567L187.292 179.799L190.338 172.351C191.922 172.178 193.479 171.813 194.975 171.265L201.023 176.691L207.183 172.295L204.002 164.814C205.016 163.57 205.871 162.207 206.55 160.754L214.659 160.289ZM193.771 159.953C192.204 161.077 190.339 161.711 188.412 161.775C186.485 161.84 184.581 161.331 182.943 160.313C181.305 159.296 180.006 157.815 179.209 156.059C178.412 154.303 178.154 152.35 178.468 150.447C178.781 148.544 179.652 146.777 180.969 145.369C182.287 143.961 183.993 142.976 185.871 142.537C187.749 142.099 189.714 142.227 191.519 142.906C193.324 143.584 194.888 144.783 196.011 146.35C197.516 148.453 198.125 151.067 197.703 153.618C197.28 156.169 195.862 158.447 193.76 159.953H193.771Z" fill="#263238"/>
<path d="M113.725 105.151H55.16C51.1054 105.151 47.8184 108.438 47.8184 112.493V193.575C47.8184 197.63 51.1054 200.917 55.16 200.917H113.725C117.779 200.917 121.066 197.63 121.066 193.575V112.493C121.066 108.438 117.779 105.151 113.725 105.151Z" fill="#92E3A9" stroke="#263238" stroke-width="1.10311" stroke-miterlimit="10"/>
<path opacity="0.2" d="M113.725 105.151H55.16C51.1054 105.151 47.8184 108.438 47.8184 112.493V193.575C47.8184 197.63 51.1054 200.917 55.16 200.917H113.725C117.779 200.917 121.066 197.63 121.066 193.575V112.493C121.066 108.438 117.779 105.151 113.725 105.151Z" fill="black"/>
<path d="M127.882 119.728V200.81C127.882 201.775 127.693 202.73 127.324 203.622C126.956 204.513 126.415 205.323 125.733 206.005C125.051 206.688 124.242 207.229 123.351 207.598C122.46 207.967 121.505 208.158 120.54 208.158H61.9752C61.0111 208.157 60.0566 207.966 59.1661 207.597C58.2757 207.227 57.4668 206.686 56.7855 206.003C56.1043 205.321 55.5642 204.511 55.1959 203.62C54.8276 202.729 54.6385 201.774 54.6392 200.81V119.728C54.6392 117.782 55.4119 115.915 56.7875 114.539C58.1631 113.162 60.0291 112.388 61.9752 112.386H120.54C122.487 112.386 124.354 113.16 125.731 114.537C127.108 115.914 127.882 117.781 127.882 119.728Z" fill="white" stroke="#263238" stroke-width="1.10311" stroke-linecap="round" stroke-linejoin="round"/>
<path d="M127.882 119.728V124.068H54.6392V119.728C54.6392 117.782 55.4119 115.915 56.7875 114.539C58.1631 113.162 60.0291 112.388 61.9752 112.386H120.54C122.487 112.386 124.354 113.16 125.731 114.537C127.108 115.914 127.882 117.781 127.882 119.728Z" fill="#92E3A9" stroke="#263238" stroke-width="1.10311" stroke-miterlimit="10"/>
<path d="M79.548 129.097H61.5272V132.121H79.548V129.097Z" fill="#92E3A9"/>
<path d="M79.548 156.195H61.5272V159.219H79.548V156.195Z" fill="#92E3A9"/>
<path d="M79.548 180.768H61.5272V183.792H79.548V180.768Z" fill="#92E3A9"/>
<path d="M112.706 136.584H61.5272V138.802H112.706V136.584Z" fill="#263238"/>
<path d="M103.477 140.823H61.5272V142.985H103.477V140.823Z" fill="#263238"/>
<path d="M108.97 144.995H61.5272V147.157H108.97V144.995Z" fill="#263238"/>
<path d="M108.97 149.162H61.5272V151.323H108.97V149.162Z" fill="#263238"/>
<path d="M112.706 161.157H61.5272V163.374H112.706V161.157Z" fill="#263238"/>
<path d="M103.477 165.396H61.5272V167.558H103.477V165.396Z" fill="#263238"/>
<path d="M108.97 169.568H61.5272V171.73H108.97V169.568Z" fill="#263238"/>
<path d="M112.706 188.138H61.5272V190.355H112.706V188.138Z" fill="#263238"/>
<path d="M103.477 192.382H61.5272V194.544H103.477V192.382Z" fill="#263238"/>
<path d="M108.97 196.554H61.5272V198.716H108.97V196.554Z" fill="#263238"/>
<path d="M210.431 56.1624V88.9336C210.431 90.0835 210.205 91.2221 209.764 92.2844C209.324 93.3467 208.679 94.3119 207.866 95.1247C207.052 95.9376 206.087 96.5822 205.024 97.0217C203.961 97.4613 202.823 97.6871 201.673 97.6864H126.196C125.046 97.6871 123.907 97.4613 122.845 97.0217C121.782 96.5822 120.817 95.9376 120.003 95.1247C119.19 94.3119 118.545 93.3467 118.104 92.2844C117.664 91.2221 117.438 90.0835 117.438 88.9336V56.1624C117.439 53.84 118.362 51.6131 120.005 49.9709C121.647 48.3287 123.874 47.4055 126.196 47.404H201.673C203.996 47.404 206.223 48.3267 207.866 49.9693C209.508 51.6118 210.431 53.8395 210.431 56.1624Z" fill="white" stroke="#222221" stroke-width="1.10311" stroke-miterlimit="10"/>
<path d="M210.431 56.1624V56.9128H117.438V56.1624C117.439 53.84 118.362 51.6131 120.005 49.9709C121.647 48.3287 123.874 47.4055 126.196 47.404H201.673C203.996 47.404 206.223 48.3267 207.866 49.9693C209.508 51.6118 210.431 53.8395 210.431 56.1624Z" fill="#92E3A9" stroke="#263238" stroke-width="1.10311" stroke-miterlimit="10"/>
<path d="M131.102 53.7264C130.914 53.9147 130.674 54.043 130.414 54.0951C130.153 54.1472 129.882 54.1208 129.637 54.0192C129.391 53.9176 129.181 53.7453 129.033 53.5242C128.885 53.3031 128.806 53.0431 128.806 52.7772C128.806 52.5112 128.885 52.2513 129.033 52.0302C129.181 51.8091 129.391 51.6368 129.637 51.5352C129.882 51.4336 130.153 51.4071 130.414 51.4593C130.674 51.5114 130.914 51.6397 131.102 51.828C131.352 52.0807 131.492 52.4218 131.492 52.7772C131.492 53.1326 131.352 53.4737 131.102 53.7264Z" fill="#263238"/>
<path d="M137.329 53.7264C137.141 53.9147 136.902 54.043 136.641 54.0951C136.38 54.1472 136.109 54.1208 135.864 54.0192C135.618 53.9176 135.408 53.7453 135.26 53.5242C135.112 53.3031 135.033 53.0431 135.033 52.7772C135.033 52.5112 135.112 52.2513 135.26 52.0302C135.408 51.8091 135.618 51.6368 135.864 51.5352C136.109 51.4336 136.38 51.4071 136.641 51.4593C136.902 51.5114 137.141 51.6397 137.329 51.828C137.579 52.0807 137.719 52.4218 137.719 52.7772C137.719 53.1326 137.579 53.4737 137.329 53.7264Z" fill="#263238"/>
<path d="M143.556 53.7264C143.368 53.9147 143.129 54.043 142.868 54.0951C142.607 54.1472 142.337 54.1208 142.091 54.0192C141.845 53.9176 141.635 53.7453 141.487 53.5242C141.339 53.3031 141.26 53.0431 141.26 52.7772C141.26 52.5112 141.339 52.2513 141.487 52.0302C141.635 51.8091 141.845 51.6368 142.091 51.5352C142.337 51.4336 142.607 51.4071 142.868 51.4593C143.129 51.5114 143.368 51.6397 143.556 51.828C143.806 52.0807 143.946 52.4218 143.946 52.7772C143.946 53.1326 143.806 53.4737 143.556 53.7264Z" fill="#263238"/>
<path d="M153.765 62.9384H123.368V89.2136H153.765V62.9384Z" stroke="#263238" stroke-width="1.10311" stroke-linecap="round" stroke-linejoin="round" stroke-dasharray="4.41 4.41"/>
<path d="M193.441 62.9384H158.458V64.7864H193.441V62.9384Z" fill="#263238"/>
<path d="M185.293 66.7632H158.458V68.6056H185.293V66.7632Z" fill="#263238"/>
<path d="M198.414 70.5712H158.458V72.436H198.414V70.5712Z" fill="#263238"/>
<path d="M192.483 74.284H158.458V76.1488H192.483V74.284Z" fill="#263238"/>
<path d="M212.974 137.497H195.866C193.846 137.497 192.209 139.134 192.209 141.154V151.194C192.209 153.214 193.846 154.851 195.866 154.851H212.974C214.993 154.851 216.63 153.214 216.63 151.194V141.154C216.63 139.134 214.993 137.497 212.974 137.497Z" fill="white" stroke="#263238" stroke-width="1.10311" stroke-linecap="round" stroke-linejoin="round"/>
<path d="M200.088 142.716L195.39 145.662L199.752 149.526" stroke="#263238" stroke-width="1.10311" stroke-linecap="round" stroke-linejoin="round"/>
<path d="M208.645 149.806L212.867 146.21L207.995 143.018" stroke="#263238" stroke-width="1.10311" stroke-linecap="round" stroke-linejoin="round"/>
<path d="M202.373 152.023L205.839 141.148" stroke="#263238" stroke-width="1.10311" stroke-linecap="round" stroke-linejoin="round"/>
<path d="M159.695 251.554C159.695 251.554 143.455 256.208 141.187 257.014C139.126 257.742 133.537 259.702 129.343 259.092C128.938 259.033 128.538 258.947 128.145 258.834C123.894 257.568 121.985 256.387 121.425 253.716C120.865 251.044 122.981 249.073 125.02 247.813C127.058 246.553 138.113 245.237 138.113 245.237L140.784 246.021L159.695 251.554Z" fill="#92E3A9"/>
<path d="M129.343 259.092C128.938 259.033 128.538 258.947 128.145 258.834C123.894 257.568 121.985 256.387 121.425 253.716C120.865 251.044 122.981 249.073 125.02 247.813C127.058 246.553 138.113 245.237 138.113 245.237L140.784 246.021C138.365 247.141 129.36 247.752 127.394 248.883C125.429 250.014 124.482 252.142 125.641 255.043C126.263 256.555 127.921 258.039 129.343 259.092Z" fill="white"/>
<path d="M157.253 252.215C157.253 252.215 145.057 255.373 140.218 257.395C135.38 259.416 126.157 260.301 122.858 256.135C119.56 251.968 122.477 248.373 125.765 247.572C129.052 246.772 135.699 245.512 139.328 246.021" stroke="#263238" stroke-width="1.10311" stroke-linecap="round" stroke-linejoin="round"/>
<path d="M129.584 258.873C129.584 258.873 123.379 255.468 125.44 250.697C126.963 247.18 135.24 247.942 139.339 246.021" stroke="#263238" stroke-width="1.10311" stroke-linecap="round" stroke-linejoin="round"/>
<path d="M209.16 259.848C208.992 261.528 208.404 263.101 206.724 264.092C205.604 264.753 204.013 265.145 201.734 265.123C196.039 265.05 185.332 260.979 185.332 260.979L175.308 255.435L180.521 247.186L181.949 244.946L185.634 245.775C185.634 245.775 188.686 247.505 191.755 248.883C194.824 250.26 202.277 250.563 204.904 252.674C207.53 254.785 209.445 257.081 209.16 259.848Z" fill="#92E3A9"/>
<path d="M209.16 259.848C208.992 261.528 208.404 263.101 206.724 264.092C207.208 262.441 207.109 260.673 206.444 259.086C205.324 256.572 201.678 254.354 196.885 253.984C192.091 253.615 188.423 251.375 186.502 250.372C185.001 249.594 181.837 247.892 180.521 247.186L181.949 244.946L185.634 245.775C185.634 245.775 188.686 247.505 191.755 248.883C194.824 250.26 202.277 250.563 204.904 252.674C207.53 254.785 209.445 257.081 209.16 259.848Z" fill="white"/>
<path d="M177.531 256.992C184.747 261.186 192.721 263.909 200.995 265.005C202.821 265.224 204.943 265.257 206.164 263.885C206.489 263.489 206.73 263.031 206.875 262.54C207.019 262.048 207.063 261.533 207.004 261.024C206.785 258.448 204.618 256.409 202.244 255.384C199.869 254.36 197.254 254.124 194.729 253.559C192.217 252.993 189.789 252.104 187.505 250.916C185.69 249.969 183.937 248.821 181.938 248.396C179.939 247.97 177.559 248.485 176.489 250.232" stroke="#263238" stroke-width="1.10311" stroke-linecap="round" stroke-linejoin="round"/>
<path d="M205.492 264.585C206.43 264.136 207.25 263.474 207.887 262.651C208.524 261.829 208.96 260.868 209.16 259.848C209.524 257.423 208.141 254.981 206.197 253.492C204.254 252.002 201.818 251.296 199.416 250.798C197.013 250.3 194.555 249.964 192.253 249.051C188.742 247.673 185.276 244.963 181.613 245.932" stroke="#263238" stroke-width="1.10311" stroke-linecap="round" stroke-linejoin="round"/>
<path d="M188.843 170.236L171.881 163.785L171.668 163.701C171.668 163.701 171.729 163.253 171.78 162.581C171.886 161.226 171.942 159.02 171.304 158.275C170.357 157.155 167.681 158.096 165.065 156.897C162.45 155.699 157.617 157.844 157.617 157.844C157.617 157.844 154.123 157.2 152.577 159.72C151.793 161.752 152.062 164.76 152.062 164.76L151.743 164.872C149.721 165.628 138.723 169.766 136.399 171.429C133.829 173.249 130.984 191.936 130.071 197.424C129.158 202.912 127.534 207.857 128.357 209.744C129.181 211.632 140.997 220.732 147.795 223.078C154.593 225.424 178.701 224.758 178.701 224.758C178.701 224.758 179.093 224.652 179.793 224.428C183.87 223.117 198.335 217.708 206.013 205.007C206.024 205.029 198.587 180.652 188.843 170.236ZM143.013 201.669C141.764 202.554 142.453 205.981 142.453 205.981L140.33 204.111L145.661 191.001L147.935 201.081C147.935 201.081 144.261 200.79 143.013 201.669ZM185.662 209.996C185.074 210.299 187.342 203.999 186.267 202.571C185.192 201.143 181.949 201.277 181.949 201.277L182.224 199.558L184.145 189.702L184.783 188.946C184.783 188.946 191.38 200.252 192.561 204.24C192.561 204.251 185.371 209.996 185.662 209.996Z" fill="#92E3A9"/>
<path d="M156.817 129.351L148.058 138.647C148.058 138.647 146.854 139.716 147.33 142.41C147.806 145.104 148.926 147.45 149.772 147.607C150.441 147.724 151.119 147.784 151.799 147.786C151.799 147.786 153.675 151.852 155.008 153.448C155.008 153.448 155.467 159.725 155.221 161.467C155.221 161.467 158.368 164.216 161.33 164.564C164.293 164.911 168.868 160.375 168.868 160.375L169.988 154.82C169.988 154.82 172.676 150.743 172.855 149.656C173.034 148.57 174.266 148.85 174.871 148.312C175.476 147.775 176.87 145.384 177.111 143.121C177.352 140.859 177.357 138.26 174.731 139.022C172.452 138.412 173.88 133.596 173.88 133.596L169.876 130.068L156.817 129.351Z" fill="white"/>
<path opacity="0.5" d="M171.881 163.785C171.749 164.131 171.597 164.47 171.427 164.799C169.982 167.52 163.688 172.712 163.688 172.712L161.784 166.86L160.742 172.712C158.642 171.793 152.236 166.244 152.236 166.244C152.236 166.244 152.017 165.723 151.754 164.911L152.073 164.799C152.073 164.799 151.805 161.769 152.589 159.759C154.123 157.239 157.629 157.883 157.629 157.883C157.629 157.883 162.461 155.738 165.077 156.936C167.692 158.135 170.369 157.205 171.315 158.314C172.261 159.423 171.679 163.724 171.679 163.724L171.881 163.785Z" fill="white"/>
<path opacity="0.2" d="M188.843 170.236L171.881 163.785L171.668 163.701C171.668 163.701 171.729 163.253 171.78 162.581L171.427 164.782L168.918 168.187C171.6 169.174 174.218 170.326 176.758 171.636C177.974 172.288 178.966 173.29 179.605 174.512C180.244 175.734 180.501 177.121 180.342 178.491L177.217 205.231L175.935 220.412L179.805 224.428C183.881 223.117 198.346 217.708 206.024 205.007C206.024 205.029 198.587 180.652 188.843 170.236ZM185.662 209.996C185.074 210.299 187.342 203.999 186.267 202.571C185.192 201.143 181.949 201.277 181.949 201.277L182.224 199.558L184.145 189.702L184.783 188.946C184.783 188.946 191.38 200.252 192.561 204.24C192.561 204.251 185.371 209.996 185.662 209.996Z" fill="black"/>
<path opacity="0.2" d="M149.061 202.571L146.423 193.756C146.423 193.756 141.691 177.623 138.449 173.647L139.3 184.992C139.3 184.992 136.5 198.544 133.941 202.571C131.381 206.597 130.81 207.611 133.941 207.611C137.071 207.611 144.693 213.681 144.693 213.681L144.105 208.641L149.061 202.571ZM142.413 205.981L140.291 204.111L145.622 191.001L147.896 201.081C147.896 201.081 144.245 200.807 142.996 201.686C141.747 202.565 142.413 205.981 142.413 205.981Z" fill="black"/>
<path d="M155.008 153.448C155.008 153.448 155.489 158.202 155.008 160.375" stroke="#263238" stroke-width="1.10311" stroke-linecap="round" stroke-linejoin="round"/>
<path d="M169.355 159.736C169.36 158.208 169.537 156.684 169.881 155.195" stroke="#263238" stroke-width="1.10311" stroke-linecap="round" stroke-linejoin="round"/>
<path d="M170.626 132.896C170.626 132.896 173.505 136.508 173.353 139.24C173.202 141.973 172.989 145.21 173.062 148.38C173.135 151.549 167.972 158.191 165.317 158.779C162.663 159.367 160.378 159.518 158.681 157.821C156.985 156.124 155.288 153.767 153.081 150.743C150.875 147.719 151.401 141.083 151.401 141.083" stroke="#263238" stroke-width="1.10311" stroke-linecap="round" stroke-linejoin="round"/>
<path d="M163.693 143.608C163.518 144.601 163.443 145.608 163.469 146.616C163.412 147.465 163.676 148.304 164.209 148.968C164.528 149.292 164.987 149.556 165.049 150.004C165.047 150.205 164.991 150.403 164.887 150.575C164.782 150.748 164.633 150.889 164.455 150.984C164.096 151.165 163.75 151.371 163.419 151.6" stroke="#263238" stroke-width="1.10311" stroke-linecap="round" stroke-linejoin="round"/>
<path d="M159.141 151.947C159.141 151.947 159.471 154.092 162.344 154.54" stroke="#263238" stroke-width="1.10311" stroke-linecap="round" stroke-linejoin="round"/>
<path d="M159.437 145.244C159.437 145.865 159.169 146.364 158.838 146.364C158.508 146.364 158.239 145.865 158.239 145.244C158.239 144.622 158.508 144.124 158.838 144.124C159.169 144.124 159.437 144.628 159.437 145.244Z" fill="#263238"/>
<path d="M168.011 145.512C168.011 146.134 167.742 146.632 167.412 146.632C167.081 146.632 166.813 146.128 166.813 145.512C166.813 144.896 167.081 144.392 167.412 144.392C167.742 144.392 168.011 144.891 168.011 145.512Z" fill="#263238"/>
<path d="M166.281 142.796C166.281 142.796 169.081 139.996 171.427 143.121" stroke="#263238" stroke-width="2.20621" stroke-linecap="round" stroke-linejoin="round"/>
<path d="M160.384 142.852C160.384 142.852 158.614 140.87 155.825 142.852" stroke="#263238" stroke-width="2.20621" stroke-linecap="round" stroke-linejoin="round"/>
<path d="M155.221 156.091C155.221 156.091 156.929 160.795 160.742 162.133C164.556 163.472 169.618 156.533 169.618 156.533L169.355 155.632C169.355 155.632 166.034 159.944 162.344 159.21C158.653 158.476 155.008 153.47 155.008 153.47L155.221 156.091Z" fill="#263238"/>
<path d="M151.799 147.607C151.799 147.607 149.525 148.408 148.921 146.638C148.316 144.868 146.244 140.204 148.058 138.647C149.873 137.09 151.329 140.702 151.329 140.702" stroke="#263238" stroke-width="1.10311" stroke-linecap="round" stroke-linejoin="round"/>
<path d="M173.057 148.57C173.057 148.57 175.168 148.996 175.773 147.226C176.377 145.456 178.449 140.792 176.635 139.235C174.821 137.678 173.365 141.29 173.365 141.29" stroke="#263238" stroke-width="1.10311" stroke-linecap="round" stroke-linejoin="round"/>
<path d="M151.329 145.244C152.118 145.119 152.831 144.699 153.322 144.068C153.622 143.514 153.812 142.907 153.882 142.281C154.09 141.09 154.195 139.884 154.196 138.675C154.171 138.203 154.215 137.729 154.325 137.269C154.493 136.806 154.752 136.382 155.086 136.02C155.876 135.091 156.833 134.307 157.589 133.344C157.995 132.889 158.303 132.357 158.496 131.779C158.688 131.201 158.761 130.59 158.709 129.984C160.442 131.412 162.466 132.444 164.64 133.006C166.814 133.568 169.085 133.647 171.293 133.237C175.297 132.453 179.133 128.942 178.668 124.529C178.58 123.789 178.263 123.096 177.761 122.545C177.258 121.995 176.597 121.615 175.868 121.46C173.891 120.968 172.116 122.02 170.324 122.698C167.059 123.93 163.861 121.813 160.563 121.46C157.763 121.152 154.274 121.505 152.807 124.311C152.807 124.311 147.767 124.904 145.527 129.071C143.287 133.237 147.526 139 147.526 139C147.526 139 149.206 136.939 151.407 141.105L151.329 145.244Z" fill="#263238"/>
<path d="M170.973 131.832C170.973 131.832 169.663 138.664 173.085 141.973C173.085 141.973 173.835 139.918 174.591 139.414C175.136 138.202 175.367 136.871 175.262 135.546C175.157 134.221 174.721 132.943 173.992 131.832C171.461 127.856 170.973 131.832 170.973 131.832Z" fill="#263238"/>
<path opacity="0.2" d="M177.212 124.059C176.911 124.991 176.402 125.842 175.723 126.548C175.043 127.253 174.212 127.795 173.292 128.13C168.543 130.068 163.934 127.923 159.174 127.503C155.293 127.156 151.009 130.661 150.735 134.648" stroke="white" stroke-width="1.10311" stroke-linecap="round" stroke-linejoin="round"/>
<path opacity="0.2" d="M147.806 133.596C147.864 132.022 148.369 130.498 149.262 129.201C150.154 127.904 151.397 126.887 152.846 126.271" stroke="white" stroke-width="1.10311" stroke-linecap="round" stroke-linejoin="round"/>
<path d="M153.91 159.736C155.999 161.913 158.518 163.629 161.308 164.776C161.308 164.776 166.992 163.124 169.881 159.176" stroke="#263238" stroke-width="1.10311" stroke-linecap="round" stroke-linejoin="round"/>
<path d="M159.719 149.803C162.243 148.645 163.351 145.66 162.193 143.136C161.035 140.611 158.05 139.504 155.526 140.662C153.001 141.82 151.894 144.805 153.051 147.329C154.209 149.854 157.194 150.961 159.719 149.803Z" stroke="#263238" stroke-width="1.10311" stroke-linecap="round" stroke-linejoin="round"/>
<path d="M169.464 150.246C172.22 149.908 174.18 147.399 173.842 144.642C173.504 141.885 170.994 139.925 168.238 140.263C165.481 140.602 163.521 143.111 163.859 145.868C164.198 148.624 166.707 150.585 169.464 150.246Z" stroke="#263238" stroke-width="1.10311" stroke-linecap="round" stroke-linejoin="round"/>
<path d="M155.008 157.86C154.498 157.994 154.021 158.229 153.604 158.552C153.188 158.874 152.84 159.277 152.583 159.736C151.693 161.304 152.23 166.238 152.23 166.238C152.23 166.238 156.828 170.785 160.742 172.706L161.896 166.216L163.688 172.706C163.688 172.706 169.747 168.422 171.427 164.799C171.427 164.799 171.987 160.571 171.427 159.199C171.3 158.818 171.057 158.485 170.733 158.248C170.41 158.01 170.02 157.879 169.618 157.872" stroke="#263238" stroke-width="1.10311" stroke-linecap="round" stroke-linejoin="round"/>
<path d="M147.806 201.283C147.806 201.283 146.009 189.243 143.617 184.332" stroke="#263238" stroke-width="1.10311" stroke-linecap="round" stroke-linejoin="round"/>
<path d="M138.449 173.647C139.841 175.625 141.084 177.705 142.167 179.868" stroke="#263238" stroke-width="1.10311" stroke-linecap="round" stroke-linejoin="round"/>
<path d="M185.662 182.635C186.145 180.622 186.807 178.656 187.639 176.76" stroke="#263238" stroke-width="1.10311" stroke-linecap="round" stroke-linejoin="round"/>
<path d="M181.949 201.283C181.949 201.283 183.243 193.028 184.789 186.23" stroke="#263238" stroke-width="1.10311" stroke-linecap="round" stroke-linejoin="round"/>
<path d="M184.145 189.691C185.395 188.033 187.153 186.829 189.151 186.264" stroke="#263238" stroke-width="1.10311" stroke-linecap="round" stroke-linejoin="round"/>
<path d="M171.673 163.701C171.673 163.701 182.106 167.873 188.843 170.242C188.843 170.242 197.131 178.032 206.018 205.029C206.018 205.029 197.876 218.727 182.386 223.117" stroke="#263238" stroke-width="1.10311" stroke-linecap="round" stroke-linejoin="round"/>
<path d="M185.074 210.484L192.561 204.251C192.561 204.251 196.521 201.244 200.637 203.299" stroke="#263238" stroke-width="1.10311" stroke-linecap="round" stroke-linejoin="round"/>
<path d="M184.789 188.946C184.789 188.946 190.977 198.091 192.561 204.251" stroke="#263238" stroke-width="1.10311" stroke-linecap="round" stroke-linejoin="round"/>
<path d="M142.497 206.328L140.308 204.251C140.308 204.251 137.06 203.691 133.375 206.149" stroke="#263238" stroke-width="1.10311" stroke-linecap="round" stroke-linejoin="round"/>
<path d="M140.308 204.251C140.308 204.251 143.029 195.291 145.712 190.704" stroke="#263238" stroke-width="1.10311" stroke-linecap="round" stroke-linejoin="round"/>
<path d="M152.073 164.799C152.073 164.799 137.06 170.432 135.587 172.079C134.114 173.725 128.52 205.225 128.369 208.832C128.24 212.057 139.933 219.298 145.729 222.35" stroke="#263238" stroke-width="1.10311" stroke-linecap="round" stroke-linejoin="round"/>
<path d="M163.301 175.444C163.301 175.64 163.243 175.832 163.134 175.995C163.025 176.158 162.871 176.285 162.69 176.36C162.508 176.435 162.309 176.455 162.117 176.417C161.925 176.378 161.748 176.284 161.609 176.145C161.471 176.007 161.376 175.83 161.338 175.638C161.3 175.446 161.319 175.246 161.394 175.065C161.47 174.884 161.597 174.729 161.76 174.62C161.923 174.511 162.114 174.453 162.31 174.453C162.441 174.452 162.57 174.478 162.69 174.527C162.811 174.577 162.921 174.65 163.013 174.742C163.105 174.834 163.178 174.944 163.227 175.064C163.277 175.185 163.302 175.314 163.301 175.444Z" fill="#263238"/>
<path d="M180.673 228.208H146.513C146.3 228.208 146.097 228.123 145.946 227.973C145.796 227.823 145.712 227.619 145.712 227.407C145.712 227.194 145.796 226.991 145.946 226.841C146.097 226.69 146.3 226.606 146.513 226.606H180.673C180.885 226.606 181.089 226.69 181.239 226.841C181.389 226.991 181.473 227.194 181.473 227.407C181.473 227.619 181.389 227.823 181.239 227.973C181.089 228.123 180.885 228.208 180.673 228.208Z" fill="#263238"/>
<path d="M181.871 225.531L186.446 204.027C186.517 203.693 186.513 203.348 186.433 203.017C186.353 202.685 186.201 202.376 185.986 202.111C185.771 201.847 185.5 201.633 185.192 201.487C184.884 201.341 184.547 201.265 184.206 201.266H144.278C143.94 201.266 143.606 201.341 143.301 201.486C142.995 201.63 142.726 201.841 142.512 202.102C142.297 202.364 142.144 202.67 142.062 202.997C141.98 203.325 141.972 203.667 142.038 203.999L146.143 224.786C146.244 225.297 146.516 225.757 146.914 226.092C147.312 226.427 147.812 226.617 148.333 226.628L179.575 227.345C180.109 227.357 180.63 227.182 181.05 226.851C181.469 226.52 181.759 226.053 181.871 225.531Z" fill="white" stroke="#263238" stroke-width="1.10311" stroke-linecap="round" stroke-linejoin="round"/>
<path d="M167.3 213.676C167.299 214.306 167.111 214.921 166.76 215.444C166.409 215.968 165.911 216.375 165.329 216.615C164.747 216.856 164.106 216.918 163.488 216.794C162.871 216.671 162.303 216.367 161.858 215.921C161.413 215.475 161.11 214.908 160.988 214.29C160.865 213.672 160.929 213.031 161.17 212.449C161.411 211.867 161.82 211.37 162.344 211.02C162.868 210.67 163.483 210.484 164.113 210.484C164.532 210.484 164.947 210.566 165.334 210.727C165.721 210.887 166.073 211.122 166.369 211.419C166.664 211.715 166.899 212.067 167.059 212.455C167.219 212.842 167.301 213.257 167.3 213.676Z" fill="#263238"/>
<path d="M173.566 203.321H178.309" stroke="#263238" stroke-width="1.10311" stroke-linecap="round" stroke-linejoin="round"/>
<path d="M150.914 203.321H168.918" stroke="#263238" stroke-width="1.10311" stroke-linecap="round" stroke-linejoin="round"/>
<path d="M181.949 248.362L178.309 257.916C178.309 257.916 169.025 255.575 157.136 253.139C144.698 250.591 131.712 247.292 124.975 235.471C124.157 234.032 123.609 232.329 123.995 230.716C124.964 226.634 130.278 225.525 133.778 225.116C135.979 224.878 138.19 224.755 140.403 224.747C141.523 224.747 145.247 224.136 146.149 224.803C147.503 225.791 148.949 226.648 150.466 227.362C152.454 228.208 181.473 226.606 181.473 226.606C181.978 225.505 182.287 224.324 182.386 223.117C186.95 220.799 197.506 218.839 201.986 219.707C209.003 221.068 213.097 225.161 212.318 229.451C211.54 233.74 196.039 245.243 181.949 248.362Z" fill="#263238"/>
<path d="M181.949 248.362C181.949 248.362 173.118 246.021 165.905 241.149C158.693 236.277 153.059 230.621 143.007 231.792" stroke="white" stroke-width="1.10311" stroke-linecap="round" stroke-linejoin="round"/>
<path d="M164.253 240.001C168.812 238.691 172.155 235.74 175.812 232.912C179.669 229.816 183.811 227.093 188.182 224.78" stroke="white" stroke-width="1.10311" stroke-linecap="round" stroke-linejoin="round"/>
<path d="M162.646 146.039H163.985" stroke="#263238" stroke-width="1.10311" stroke-linecap="round" stroke-linejoin="round"/>
</svg>
