<svg width="30" height="31" viewBox="0 0 30 31" fill="none" xmlns="http://www.w3.org/2000/svg">
<path d="M30 15.654C30 14.5686 29.9026 13.525 29.7217 12.5232H15.3061V18.4508H23.5436C23.1818 20.3571 22.0965 21.9712 20.4685 23.0566V26.9109H25.436C28.3302 24.2393 30 20.3154 30 15.654Z" fill="#4285F4"/>
<path d="M15.3061 30.6122C19.4388 30.6122 22.9035 29.2486 25.436 26.9109L20.4685 23.0566C19.1048 23.975 17.3655 24.5315 15.3061 24.5315C11.3265 24.5315 7.94527 21.846 6.7347 18.2282H1.64193V22.18C4.16048 27.1753 9.32282 30.6122 15.3061 30.6122Z" fill="#34A853"/>
<path d="M6.73469 18.2143C6.42857 17.2959 6.24768 16.3219 6.24768 15.3061C6.24768 14.2904 6.42857 13.3163 6.73469 12.398V8.4462H1.64193C0.59833 10.5056 0 12.8293 0 15.3061C0 17.7829 0.59833 20.1067 1.64193 22.1661L5.60761 19.077L6.73469 18.2143Z" fill="#FBBC05"/>
<path d="M15.3061 6.09462C17.5603 6.09462 19.564 6.87384 21.1642 8.37662L25.5473 3.99351C22.8896 1.5167 19.4388 0 15.3061 0C9.32282 0 4.16048 3.43692 1.64193 8.4462L6.73469 12.398C7.94527 8.78015 11.3265 6.09462 15.3061 6.09462Z" fill="#EA4335"/>
</svg>
