
<svg width="30" height="30" viewBox="0 0 30 30" fill="none" xmlns="http://www.w3.org/2000/svg">
<path fill-rule="evenodd" clip-rule="evenodd" d="M19.9052 5.52279C16.6638 4.97938 13.3362 4.97938 10.0948 5.52279C9.48479 5.62506 9.0003 6.09372 8.87871 6.69739C7.77236 12.1899 7.71199 17.8417 8.70078 23.3566L8.90521 24.4968L13.4934 20.1381C14.3377 19.336 15.6624 19.336 16.5067 20.1381L21.0948 24.4968L21.2992 23.3566C22.288 17.8417 22.2277 12.1899 21.1213 6.69739C20.9997 6.09372 20.5152 5.62506 19.9052 5.52279ZM9.78478 3.6736C13.2314 3.09578 16.7686 3.09578 20.2152 3.6736C21.5893 3.90395 22.6838 4.95872 22.9594 6.32714C24.1123 12.0508 24.1752 17.9405 23.1448 23.6875L22.868 25.2316C22.6356 26.5277 21.0555 27.0457 20.1009 26.1388L15.2152 21.4974C15.0946 21.3829 14.9054 21.3829 14.7848 21.4974L9.89911 26.1388C8.94449 27.0457 7.36444 26.5277 7.13206 25.2316L6.85521 23.6875C5.82481 17.9405 5.88771 12.0508 7.04062 6.32714C7.31626 4.95872 8.41076 3.90395 9.78478 3.6736Z" fill="white"/>
</svg>
