
<svg width="30" height="30" viewBox="0 0 30 30" fill="none" xmlns="http://www.w3.org/2000/svg">
<path fill-rule="evenodd" clip-rule="evenodd" d="M19.9052 5.52279C16.6638 4.97938 13.3362 4.97938 10.0948 5.52279C9.48477 5.62506 9.00029 6.09372 8.87869 6.69739C7.77234 12.1899 7.71198 17.8417 8.70076 23.3566L8.9052 24.4968L13.4934 20.1381C14.3377 19.336 15.6623 19.336 16.5066 20.1381L21.0948 24.4968L21.2992 23.3566C22.288 17.8417 22.2276 12.1899 21.1213 6.69739C20.9997 6.09372 20.5152 5.62506 19.9052 5.52279ZM9.78476 3.6736C13.2314 3.09578 16.7686 3.09578 20.2152 3.6736C21.5892 3.90395 22.6837 4.95872 22.9594 6.32714C24.1123 12.0508 24.1752 17.9405 23.1448 23.6875L22.8679 25.2316C22.6356 26.5277 21.0555 27.0457 20.1009 26.1388L15.2152 21.4974C15.0946 21.3829 14.9054 21.3829 14.7848 21.4974L9.8991 26.1388C8.94447 27.0457 7.36442 26.5277 7.13205 25.2316L6.85519 23.6875C5.82479 17.9405 5.8877 12.0508 7.04061 6.32714C7.31625 4.95872 8.41074 3.90395 9.78476 3.6736Z" fill="black"/>
</svg>
