
<svg width="24" height="24" viewBox="0 0 24 24" fill="none" xmlns="http://www.w3.org/2000/svg">
<mask id="path-1-inside-1_549_1515" fill="white">
<path d="M20.6364 4.3335H3.36364C3.00227 4.33446 2.65598 4.47964 2.40046 4.73729C2.14494 4.99495 2.00096 5.34412 2 5.7085V17.6252C2 17.9898 2.14367 18.3396 2.3994 18.5974C2.65513 18.8553 3.00198 19.0002 3.36364 19.0002H20.6364C20.998 19.0002 21.3449 18.8553 21.6006 18.5974C21.8563 18.3396 22 17.9898 22 17.6252V5.7085C21.999 5.34412 21.8551 4.99495 21.5995 4.73729C21.344 4.47964 20.9977 4.33446 20.6364 4.3335ZM12 11.731L3.65455 5.25016H20.3455L12 11.731ZM9.41273 10.8785L2.90909 17.4345V5.82858L9.41273 10.8785ZM10.1382 11.4422L12 12.886L13.8618 11.4413L20.4482 18.0835H3.55182L10.1382 11.4422ZM14.5873 10.8776L21.0909 5.82858V17.4354L14.5873 10.8776Z"/>
</mask>
<path d="M20.6364 4.3335H3.36364C3.00227 4.33446 2.65598 4.47964 2.40046 4.73729C2.14494 4.99495 2.00096 5.34412 2 5.7085V17.6252C2 17.9898 2.14367 18.3396 2.3994 18.5974C2.65513 18.8553 3.00198 19.0002 3.36364 19.0002H20.6364C20.998 19.0002 21.3449 18.8553 21.6006 18.5974C21.8563 18.3396 22 17.9898 22 17.6252V5.7085C21.999 5.34412 21.8551 4.99495 21.5995 4.73729C21.344 4.47964 20.9977 4.33446 20.6364 4.3335ZM12 11.731L3.65455 5.25016H20.3455L12 11.731ZM9.41273 10.8785L2.90909 17.4345V5.82858L9.41273 10.8785ZM10.1382 11.4422L12 12.886L13.8618 11.4413L20.4482 18.0835H3.55182L10.1382 11.4422ZM14.5873 10.8776L21.0909 5.82858V17.4354L14.5873 10.8776Z" fill="black"/>
<path d="M20.6364 4.3335L20.6404 2.8335H20.6364V4.3335ZM3.36364 4.3335V2.83349L3.35962 2.8335L3.36364 4.3335ZM2 5.7085L0.5 5.70455V5.7085H2ZM2 17.6252H0.5H2ZM22 5.7085H23.5L23.5 5.70455L22 5.7085ZM12 11.731L11.08 12.9157L12 13.6302L12.92 12.9157L12 11.731ZM3.65455 5.25016V3.75016H-0.722625L2.73453 6.43488L3.65455 5.25016ZM20.3455 5.25016L21.2655 6.43488L24.7226 3.75016H20.3455V5.25016ZM9.41273 10.8785L10.4776 11.9349L11.6705 10.7325L10.3327 9.69372L9.41273 10.8785ZM2.90909 17.4345H1.40909V21.0765L3.974 18.4909L2.90909 17.4345ZM2.90909 5.82858L3.82904 4.6438L1.40909 2.76477V5.82858H2.90909ZM10.1382 11.4422L11.0574 10.2569L10.0081 9.44323L9.07313 10.386L10.1382 11.4422ZM12 12.886L11.0808 14.0714L12.0003 14.7844L12.9196 14.0711L12 12.886ZM13.8618 11.4413L14.9269 10.3852L13.9917 9.44196L12.9423 10.2562L13.8618 11.4413ZM20.4482 18.0835V19.5835H24.048L21.5133 17.0273L20.4482 18.0835ZM3.55182 18.0835L2.48677 17.0272L-0.0483577 19.5835H3.55182V18.0835ZM14.5873 10.8776L13.6674 9.69272L12.3296 10.7313L13.5222 11.9338L14.5873 10.8776ZM21.0909 5.82858H22.5909V2.76511L20.1711 4.64372L21.0909 5.82858ZM21.0909 17.4354L20.0259 18.4917L22.5909 21.0781V17.4354H21.0909ZM20.6364 2.8335H3.36364V5.8335H20.6364V2.8335ZM3.35962 2.8335C2.5978 2.83554 1.87029 3.14171 1.33541 3.68104L3.46551 5.79354C3.44168 5.81757 3.40675 5.83339 3.36765 5.83349L3.35962 2.8335ZM1.33541 3.68104C0.800942 4.21996 0.501999 4.94771 0.500005 5.70455L3.49999 5.71245C3.49992 5.74054 3.48893 5.76993 3.46551 5.79354L1.33541 3.68104ZM0.5 5.7085V17.6252H3.5V5.7085H0.5ZM0.5 17.6252C0.5 18.3837 0.798706 19.1136 1.33435 19.6537L3.46445 17.5412C3.48863 17.5656 3.5 17.596 3.5 17.6252H0.5ZM1.33435 19.6537C1.87041 20.1942 2.60011 20.5002 3.36364 20.5002V17.5002C3.40384 17.5002 3.43986 17.5164 3.46445 17.5412L1.33435 19.6537ZM3.36364 20.5002H20.6364V17.5002H3.36364V20.5002ZM20.6364 20.5002C21.3999 20.5002 22.1296 20.1942 22.6657 19.6537L20.5355 17.5412C20.5601 17.5164 20.5962 17.5002 20.6364 17.5002V20.5002ZM22.6657 19.6537C23.2013 19.1136 23.5 18.3837 23.5 17.6252H20.5C20.5 17.596 20.5114 17.5656 20.5355 17.5412L22.6657 19.6537ZM23.5 17.6252V5.7085H20.5V17.6252H23.5ZM23.5 5.70455C23.498 4.94771 23.1991 4.21996 22.6646 3.68104L20.5345 5.79354C20.5111 5.76993 20.5001 5.74053 20.5 5.71245L23.5 5.70455ZM22.6646 3.68104C22.1297 3.14171 21.4022 2.83554 20.6404 2.8335L20.6323 5.83349C20.5933 5.83339 20.5583 5.81757 20.5345 5.79354L22.6646 3.68104ZM12.92 10.5463L4.57456 4.06544L2.73453 6.43488L11.08 12.9157L12.92 10.5463ZM3.65455 6.75016H20.3455V3.75016H3.65455V6.75016ZM19.4254 4.06544L11.08 10.5463L12.92 12.9157L21.2655 6.43488L19.4254 4.06544ZM8.34782 9.8221L1.84419 16.3781L3.974 18.4909L10.4776 11.9349L8.34782 9.8221ZM4.40909 17.4345V5.82858H1.40909V17.4345H4.40909ZM1.98914 7.01336L8.49278 12.0633L10.3327 9.69372L3.82904 4.6438L1.98914 7.01336ZM9.21899 12.6276L11.0808 14.0714L12.9192 11.7006L11.0574 10.2569L9.21899 12.6276ZM12.9196 14.0711L14.7814 12.6264L12.9423 10.2562L11.0804 11.7009L12.9196 14.0711ZM12.7967 12.4975L19.3831 19.1397L21.5133 17.0273L14.9269 10.3852L12.7967 12.4975ZM20.4482 16.5835H3.55182V19.5835H20.4482V16.5835ZM4.61687 19.1397L11.2032 12.4985L9.07313 10.386L2.48677 17.0272L4.61687 19.1397ZM15.5071 12.0624L22.0108 7.01344L20.1711 4.64372L13.6674 9.69272L15.5071 12.0624ZM19.5909 5.82858V17.4354H22.5909V5.82858H19.5909ZM22.156 16.3792L15.6523 9.82133L13.5222 11.9338L20.0259 18.4917L22.156 16.3792Z" fill="black" mask="url(#path-1-inside-1_549_1515)"/>
</svg>

