
<svg width="20" height="15" viewBox="0 0 20 15" fill="none" xmlns="http://www.w3.org/2000/svg">
<mask id="path-1-inside-1_553_2505" fill="white">
<path d="M18.6364 0.333496H1.36364C1.00227 0.334464 0.655984 0.47964 0.40046 0.737293C0.144936 0.994946 0.000959803 1.34412 0 1.7085V13.6252C0 13.9898 0.143668 14.3396 0.3994 14.5974C0.655131 14.8553 1.00198 15.0002 1.36364 15.0002H18.6364C18.998 15.0002 19.3449 14.8553 19.6006 14.5974C19.8563 14.3396 20 13.9898 20 13.6252V1.7085C19.999 1.34412 19.8551 0.994946 19.5995 0.737293C19.344 0.47964 18.9977 0.334464 18.6364 0.333496ZM10 7.731L1.65455 1.25016H18.3455L10 7.731ZM7.41273 6.8785L0.909091 13.4345V1.82858L7.41273 6.8785ZM8.13818 7.44225L10 8.886L11.8618 7.44133L18.4482 14.0835H1.55182L8.13818 7.44225ZM12.5873 6.87758L19.0909 1.82858V13.4354L12.5873 6.87758Z"/>
</mask>
<path d="M18.6364 0.333496H1.36364C1.00227 0.334464 0.655984 0.47964 0.40046 0.737293C0.144936 0.994946 0.000959803 1.34412 0 1.7085V13.6252C0 13.9898 0.143668 14.3396 0.3994 14.5974C0.655131 14.8553 1.00198 15.0002 1.36364 15.0002H18.6364C18.998 15.0002 19.3449 14.8553 19.6006 14.5974C19.8563 14.3396 20 13.9898 20 13.6252V1.7085C19.999 1.34412 19.8551 0.994946 19.5995 0.737293C19.344 0.47964 18.9977 0.334464 18.6364 0.333496ZM10 7.731L1.65455 1.25016H18.3455L10 7.731ZM7.41273 6.8785L0.909091 13.4345V1.82858L7.41273 6.8785ZM8.13818 7.44225L10 8.886L11.8618 7.44133L18.4482 14.0835H1.55182L8.13818 7.44225ZM12.5873 6.87758L19.0909 1.82858V13.4354L12.5873 6.87758Z" fill="white"/>
<path d="M18.6364 0.333496L18.6404 -1.1665H18.6364V0.333496ZM1.36364 0.333496V-1.16651L1.35962 -1.1665L1.36364 0.333496ZM0 1.7085L-1.5 1.70455V1.7085H0ZM0 13.6252H-1.5H0ZM20 1.7085H21.5L21.5 1.70455L20 1.7085ZM10 7.731L9.07998 8.91572L10 9.63018L10.92 8.91572L10 7.731ZM1.65455 1.25016V-0.249837H-2.72263L0.734526 2.43488L1.65455 1.25016ZM18.3455 1.25016L19.2655 2.43488L22.7226 -0.249837H18.3455V1.25016ZM7.41273 6.8785L8.47763 7.9349L9.67045 6.73247L8.33268 5.69372L7.41273 6.8785ZM0.909091 13.4345H-0.590909V17.0765L1.974 14.4909L0.909091 13.4345ZM0.909091 1.82858L1.82904 0.643804L-0.590909 -1.23523V1.82858H0.909091ZM8.13818 7.44225L9.05737 6.25688L8.00811 5.44323L7.07313 6.386L8.13818 7.44225ZM10 8.886L9.08081 10.0714L10.0003 10.7844L10.9196 10.0711L10 8.886ZM11.8618 7.44133L12.9269 6.38515L11.9917 5.44196L10.9423 6.25625L11.8618 7.44133ZM18.4482 14.0835V15.5835H22.048L19.5133 13.0273L18.4482 14.0835ZM1.55182 14.0835L0.486766 13.0272L-2.04836 15.5835H1.55182V14.0835ZM12.5873 6.87758L11.6674 5.69272L10.3296 6.7313L11.5222 7.93383L12.5873 6.87758ZM19.0909 1.82858H20.5909V-1.23489L18.1711 0.643723L19.0909 1.82858ZM19.0909 13.4354L18.0259 14.4917L20.5909 17.0781V13.4354H19.0909ZM18.6364 -1.1665H1.36364V1.8335H18.6364V-1.1665ZM1.35962 -1.1665C0.597797 -1.16446 -0.129715 -0.858291 -0.664592 -0.318957L1.46551 1.79354C1.44168 1.81757 1.40675 1.83339 1.36765 1.83349L1.35962 -1.1665ZM-0.664592 -0.318957C-1.19906 0.219963 -1.498 0.947706 -1.49999 1.70455L1.49999 1.71245C1.49992 1.74054 1.48893 1.76993 1.46551 1.79354L-0.664592 -0.318957ZM-1.5 1.7085V13.6252H1.5V1.7085H-1.5ZM-1.5 13.6252C-1.5 14.3837 -1.20129 15.1136 -0.665652 15.6537L1.46445 13.5412C1.48863 13.5656 1.5 13.596 1.5 13.6252H-1.5ZM-0.665652 15.6537C-0.129594 16.1942 0.600114 16.5002 1.36364 16.5002V13.5002C1.40384 13.5002 1.43986 13.5164 1.46445 13.5412L-0.665652 15.6537ZM1.36364 16.5002H18.6364V13.5002H1.36364V16.5002ZM18.6364 16.5002C19.3999 16.5002 20.1296 16.1942 20.6657 15.6537L18.5355 13.5412C18.5601 13.5164 18.5962 13.5002 18.6364 13.5002V16.5002ZM20.6657 15.6537C21.2013 15.1136 21.5 14.3837 21.5 13.6252H18.5C18.5 13.596 18.5114 13.5656 18.5355 13.5412L20.6657 15.6537ZM21.5 13.6252V1.7085H18.5V13.6252H21.5ZM21.5 1.70455C21.498 0.947708 21.1991 0.219964 20.6646 -0.318957L18.5345 1.79354C18.5111 1.76993 18.5001 1.74053 18.5 1.71245L21.5 1.70455ZM20.6646 -0.318957C20.1297 -0.858292 19.4022 -1.16446 18.6404 -1.1665L18.6323 1.83349C18.5933 1.83339 18.5583 1.81757 18.5345 1.79354L20.6646 -0.318957ZM10.92 6.54627L2.57456 0.0654416L0.734526 2.43488L9.07998 8.91572L10.92 6.54627ZM1.65455 2.75016H18.3455V-0.249837H1.65455V2.75016ZM17.4254 0.0654416L9.07998 6.54627L10.92 8.91572L19.2655 2.43488L17.4254 0.0654416ZM6.34782 5.8221L-0.155814 12.3781L1.974 14.4909L8.47763 7.9349L6.34782 5.8221ZM2.40909 13.4345V1.82858H-0.590909V13.4345H2.40909ZM-0.0108586 3.01336L6.49278 8.06327L8.33268 5.69372L1.82904 0.643804L-0.0108586 3.01336ZM7.21899 8.62761L9.08081 10.0714L10.9192 7.70063L9.05737 6.25688L7.21899 8.62761ZM10.9196 10.0711L12.7814 8.62641L10.9423 6.25625L9.08044 7.70092L10.9196 10.0711ZM10.7967 8.49751L17.3831 15.1397L19.5133 13.0273L12.9269 6.38515L10.7967 8.49751ZM18.4482 12.5835H1.55182V15.5835H18.4482V12.5835ZM2.61687 15.1397L9.20323 8.4985L7.07313 6.386L0.486766 13.0272L2.61687 15.1397ZM13.5071 8.06244L20.0108 3.01344L18.1711 0.643723L11.6674 5.69272L13.5071 8.06244ZM17.5909 1.82858V13.4354H20.5909V1.82858H17.5909ZM20.156 12.3792L13.6523 5.82133L11.5222 7.93383L18.0259 14.4917L20.156 12.3792Z" fill="white" mask="url(#path-1-inside-1_553_2505)"/>
</svg>

