

<svg width="24" height="24" viewBox="0 0 24 24" fill="none" xmlns="http://www.w3.org/2000/svg">
<mask id="path-1-inside-1_553_2495" fill="white">
<path fill-rule="evenodd" clip-rule="evenodd" d="M6.8181 2.00077C5.26167 2.00077 4.33325 2.92919 4.33325 4.48562V19.5159C4.33325 21.0724 5.26167 22.0008 6.8181 22.0008H13.1689C12.9661 21.7313 12.7952 21.4364 12.6618 21.122H6.8585C6.3397 21.122 5.16659 20.5008 5.25244 19.5159V4.48562C5.25244 3.50077 6.3397 2.87956 6.8585 2.87956H12.4141V8.2432C12.4141 9.17668 12.588 9.17452 13.3784 9.16468C13.4666 9.16358 13.5624 9.16239 13.6666 9.16239H18.9898V16.1613C19.3438 16.4259 19.6544 16.7454 19.909 17.107V9.02142C19.909 8.89786 19.9123 8.78347 19.9153 8.6762C19.9308 8.13462 19.9411 7.77471 19.4999 7.33357L14.3333 2.50024C13.8319 1.99889 13.6541 1.99926 12.9992 2.00062L12.8884 2.00077H6.8181ZM18.9341 8.2432L13.3333 2.93533V8.2432H18.9341Z"/>
</mask>
<path fill-rule="evenodd" clip-rule="evenodd" d="M6.8181 2.00077C5.26167 2.00077 4.33325 2.92919 4.33325 4.48562V19.5159C4.33325 21.0724 5.26167 22.0008 6.8181 22.0008H13.1689C12.9661 21.7313 12.7952 21.4364 12.6618 21.122H6.8585C6.3397 21.122 5.16659 20.5008 5.25244 19.5159V4.48562C5.25244 3.50077 6.3397 2.87956 6.8585 2.87956H12.4141V8.2432C12.4141 9.17668 12.588 9.17452 13.3784 9.16468C13.4666 9.16358 13.5624 9.16239 13.6666 9.16239H18.9898V16.1613C19.3438 16.4259 19.6544 16.7454 19.909 17.107V9.02142C19.909 8.89786 19.9123 8.78347 19.9153 8.6762C19.9308 8.13462 19.9411 7.77471 19.4999 7.33357L14.3333 2.50024C13.8319 1.99889 13.6541 1.99926 12.9992 2.00062L12.8884 2.00077H6.8181ZM18.9341 8.2432L13.3333 2.93533V8.2432H18.9341Z" fill="white"/>
<path d="M13.1689 22.0008V23.5008H16.1751L14.3675 21.0988L13.1689 22.0008ZM12.6618 21.122L14.0427 20.5363L13.655 19.622H12.6618V21.122ZM5.25244 19.5159L6.74678 19.6462L6.75244 19.5812V19.5159H5.25244ZM12.4141 2.87956H13.9141V1.37956H12.4141V2.87956ZM13.3784 9.16468L13.3971 10.6646H13.3971L13.3784 9.16468ZM18.9898 9.16239H20.4898V7.66239H18.9898V9.16239ZM18.9898 16.1613H17.4898V16.9127L18.0916 17.3627L18.9898 16.1613ZM19.909 17.107L18.6825 17.9706L21.409 21.8429V17.107H19.909ZM19.9153 8.6762L21.4147 8.71898V8.71898L19.9153 8.6762ZM19.4999 7.33357L20.5606 6.27292L20.5429 6.25524L20.5247 6.23816L19.4999 7.33357ZM14.3333 2.50024L13.2726 3.56089L13.2903 3.57857L13.3085 3.59565L14.3333 2.50024ZM12.9992 2.00062L13.0012 3.50062L13.0023 3.50062L12.9992 2.00062ZM12.8884 2.00077V3.50077L12.8904 3.50077L12.8884 2.00077ZM13.3333 2.93533L14.3651 1.84658L11.8333 -0.5528V2.93533H13.3333ZM18.9341 8.2432V9.7432H22.6975L19.9659 7.15445L18.9341 8.2432ZM13.3333 8.2432H11.8333V9.7432H13.3333V8.2432ZM5.83325 4.48562C5.83325 4.00593 5.97051 3.80235 6.05267 3.72019C6.13483 3.63803 6.33841 3.50077 6.8181 3.50077V0.500773C5.74136 0.500773 4.70251 0.827719 3.93135 1.59887C3.1602 2.37003 2.83325 3.40888 2.83325 4.48562H5.83325ZM5.83325 19.5159V4.48562H2.83325V19.5159H5.83325ZM6.8181 20.5008C6.33839 20.5008 6.13482 20.3635 6.05267 20.2814C5.97052 20.1992 5.83325 19.9956 5.83325 19.5159H2.83325C2.83325 20.5927 3.16019 21.6315 3.93136 22.4027C4.70253 23.1739 5.74138 23.5008 6.8181 23.5008V20.5008ZM13.1689 20.5008H6.8181V23.5008H13.1689V20.5008ZM11.2809 21.7077C11.4626 22.136 11.6951 22.5369 11.9704 22.9027L14.3675 21.0988C14.2372 20.9257 14.1278 20.7369 14.0427 20.5363L11.2809 21.7077ZM6.8585 22.622H12.6618V19.622H6.8585V22.622ZM3.75811 19.3856C3.65542 20.5636 4.32492 21.4054 4.89067 21.8588C5.42055 22.2834 6.1644 22.622 6.8585 22.622V19.622C6.89959 19.622 6.92945 19.625 6.94626 19.6271C6.96361 19.6294 6.97355 19.6316 6.9758 19.6321C6.9792 19.6329 6.96637 19.63 6.94022 19.6194C6.91495 19.6092 6.88461 19.5947 6.85256 19.5761C6.82057 19.5575 6.79144 19.5375 6.76678 19.5178C6.742 19.4979 6.72581 19.4816 6.71669 19.4711C6.70761 19.4607 6.70886 19.46 6.7147 19.4708C6.72094 19.4824 6.73168 19.5059 6.73938 19.5404C6.74734 19.576 6.74968 19.6129 6.74678 19.6462L3.75811 19.3856ZM3.75244 4.48562V19.5159H6.75244V4.48562H3.75244ZM6.8585 1.37956C6.14584 1.37956 5.41743 1.73356 4.905 2.15733C4.35186 2.61475 3.75244 3.40284 3.75244 4.48562H6.75244C6.75244 4.50205 6.74998 4.51894 6.74598 4.53342C6.74218 4.54716 6.73854 4.55327 6.73957 4.55142C6.74341 4.54456 6.76441 4.51258 6.81685 4.46922C6.84144 4.44888 6.86879 4.42956 6.89714 4.41246C6.92564 4.39526 6.95115 4.38273 6.9707 4.37449C6.99111 4.3659 6.99771 4.36507 6.98814 4.36735C6.9828 4.36862 6.97011 4.3714 6.95036 4.374C6.931 4.37654 6.89987 4.37956 6.8585 4.37956V1.37956ZM12.4141 1.37956H6.8585V4.37956H12.4141V1.37956ZM13.9141 8.2432V2.87956H10.9141V8.2432H13.9141ZM13.3597 7.6648C13.2564 7.66608 13.1854 7.66689 13.1254 7.66628C13.0652 7.66566 13.045 7.66371 13.0465 7.66386C13.0471 7.66393 13.1034 7.6691 13.1881 7.69656C13.2797 7.72623 13.4095 7.78346 13.5423 7.89076C13.8333 8.12578 13.9065 8.40524 13.9189 8.46165C13.9266 8.49672 13.9141 8.45664 13.9141 8.2432H10.9141C10.9141 8.4965 10.9233 8.80621 10.9883 9.1031C11.0579 9.42134 11.2241 9.87467 11.6573 10.2246C12.0638 10.5529 12.5063 10.6243 12.7421 10.6484C12.9742 10.672 13.2319 10.6666 13.3971 10.6646L13.3597 7.6648ZM13.6666 7.66239C13.5518 7.66239 13.4471 7.66371 13.3597 7.6648L13.3971 10.6646C13.486 10.6635 13.5731 10.6624 13.6666 10.6624V7.66239ZM18.9898 7.66239H13.6666V10.6624H18.9898V7.66239ZM20.4898 16.1613V9.16239H17.4898V16.1613H20.4898ZM21.1355 16.2434C20.7898 15.7525 20.3683 15.319 19.888 14.9599L18.0916 17.3627C18.3192 17.5328 18.519 17.7383 18.6825 17.9706L21.1355 16.2434ZM18.409 9.02142V17.107H21.409V9.02142H18.409ZM18.4159 8.63342C18.4129 8.73871 18.409 8.87346 18.409 9.02142H21.409C21.409 8.92226 21.4116 8.82823 21.4147 8.71898L18.4159 8.63342ZM18.4392 8.39422C18.4751 8.43005 18.4725 8.43487 18.4576 8.40934C18.4404 8.37987 18.4267 8.34443 18.4196 8.31448C18.4141 8.29127 18.418 8.29356 18.4198 8.3482C18.4206 8.37541 18.4209 8.41071 18.4202 8.45958C18.4195 8.50959 18.4179 8.56356 18.4159 8.63343L21.4147 8.71898C21.4211 8.49668 21.4432 8.06164 21.3381 7.61997C21.2145 7.1004 20.949 6.66136 20.5606 6.27292L18.4392 8.39422ZM13.3085 3.59565L18.4752 8.42898L20.5247 6.23816L15.358 1.40483L13.3085 3.59565ZM13.0023 3.50062C13.0869 3.50044 13.1499 3.50034 13.2056 3.50102C13.2604 3.50169 13.2941 3.50302 13.3158 3.50443C13.3567 3.5071 13.3202 3.50829 13.2535 3.48627C13.1795 3.46186 13.1331 3.4308 13.1264 3.42591C13.1262 3.42583 13.1292 3.428 13.1356 3.43317C13.142 3.43837 13.1514 3.44619 13.1639 3.45733C13.1897 3.48015 13.2249 3.51316 13.2726 3.56089L15.3939 1.43959C15.1017 1.14741 14.7274 0.813652 14.1941 0.637561C13.7249 0.482603 13.2413 0.500116 12.9961 0.500626L13.0023 3.50062ZM12.8904 3.50077L13.0012 3.50062L12.9971 0.500624L12.8864 0.500775L12.8904 3.50077ZM6.8181 3.50077H12.8884V0.500773H6.8181V3.50077ZM12.3014 4.02408L17.9022 9.33195L19.9659 7.15445L14.3651 1.84658L12.3014 4.02408ZM14.8333 8.2432V2.93533H11.8333V8.2432H14.8333ZM18.9341 6.7432H13.3333V9.7432H18.9341V6.7432Z" fill="white" mask="url(#path-1-inside-1_553_2495)"/>
<path d="M12.7499 19.5002C12.7499 17.4328 14.4325 15.7502 16.4999 15.7502C18.5674 15.7502 20.2499 17.4328 20.2499 19.5002C20.2499 21.5675 18.5674 23.2502 16.4999 23.2502C14.4325 23.2502 12.7499 21.5675 12.7499 19.5002Z" stroke="white" stroke-width="0.833333"/>
<path d="M16.4333 21.667C16.6727 21.667 16.8667 21.473 16.8667 21.2337V19.4003C16.8667 19.161 16.6727 18.967 16.4333 18.967C16.194 18.967 16 19.161 16 19.4003V21.2337C16 21.473 16.194 21.667 16.4333 21.667Z" fill="white"/>
<path d="M16 18.1003C16 18.3397 16.194 18.5337 16.4333 18.5337C16.6727 18.5337 16.8667 18.3397 16.8667 18.1003C16.8667 17.861 16.6727 17.667 16.4333 17.667C16.194 17.667 16 17.861 16 18.1003Z" fill="white"/>
</svg>

