<svg width="29" height="30" viewBox="0 0 29 30" fill="none" xmlns="http://www.w3.org/2000/svg">
<path d="M25.5023 13.0591L25.5023 12.3091L24.0023 12.3091L24.0023 13.0591L25.5023 13.0591ZM24.0023 18.6336C24.0023 19.0478 24.338 19.3836 24.7523 19.3836C25.1665 19.3836 25.5023 19.0478 25.5023 18.6336L24.0023 18.6336ZM24.0023 13.0591L24.0023 18.6336L25.5023 18.6336L25.5023 13.0591L24.0023 13.0591Z" fill="#92E3A9"/>
<path d="M7.64777 14.1738V22.2798V22.2798C11.5903 25.6394 17.3888 25.6394 21.3313 22.2798V22.2798V14.1738" stroke="#92E3A9" stroke-width="1.5"/>
<path d="M12.0748 8.32946C13.5915 7.57211 15.3876 7.57211 16.9043 8.32946L25.3703 12.5571L16.9043 16.7847C15.3876 17.542 13.5915 17.542 12.0748 16.7847L3.60886 12.5571L12.0748 8.32946ZM25.8111 12.337L25.8108 12.3371L25.8111 12.337ZM3.16806 12.337C3.16816 12.337 3.16826 12.3371 3.16836 12.3371L3.16806 12.337Z" stroke="#92E3A9" stroke-width="1.5"/>
</svg>
