<svg width="34" height="34" viewBox="0 0 34 34" fill="none" xmlns="http://www.w3.org/2000/svg">
<path d="M2.83325 10.083C2.83325 8.42616 4.1764 7.08301 5.83325 7.08301H9.99992C10.8654 7.08301 11.7075 7.36372 12.3999 7.88301L15.9333 10.533C16.6256 11.0523 17.4678 11.333 18.3333 11.333H28.1666C29.8234 11.333 31.1666 12.6762 31.1666 14.333V28.1663C31.1666 29.8232 29.8234 31.1663 28.1666 31.1663H5.83325C4.1764 31.1663 2.83325 29.8232 2.83325 28.1663V10.083Z" stroke="#3B4657" stroke-width="1.5"/>
<path d="M8.5 7.08301H21.1423C22.234 7.08301 23.2783 7.52921 24.0329 8.31812L26.9167 11.333" stroke="#3B4657" stroke-width="1.5"/>
<path d="M21.0072 21.0069L17.3538 17.3536C17.1585 17.1583 16.842 17.1583 16.6467 17.3536L12.9933 21.0069" stroke="#3B4657" stroke-width="1.5" stroke-linecap="round"/>
<path d="M17.0002 18.4165V25.4998" stroke="#3B4657" stroke-width="1.5" stroke-linecap="round"/>
</svg>
