

<svg width="86" height="79" viewBox="0 0 86 79" fill="none" xmlns="http://www.w3.org/2000/svg">
<path d="M52.0248 69.6719C52.0248 69.6719 69.3097 70.4581 80.2432 51.4523C91.1767 32.4465 78.3118 14.9634 58.4384 11.1856C38.5649 7.40774 28.6637 -6.77698 10.9504 4.08134C-6.76301 14.9397 3.08047 72.7672 52.0248 69.6719Z" fill="#92E3A9"/>
<path opacity="0.4" d="M52.0248 69.6719C52.0248 69.6719 69.3097 70.4582 80.2432 51.4523C91.1767 32.4465 78.3118 14.9634 58.4384 11.1856C38.565 7.40775 28.6637 -6.77698 10.9504 4.08134C-6.76302 14.9397 3.08047 72.7672 52.0248 69.6719Z" fill="white"/>
<path d="M43.5022 78.1435C66.5033 78.1435 85.1494 77.0188 85.1494 75.6315C85.1494 74.2441 66.5033 73.1194 43.5022 73.1194C20.5011 73.1194 1.85501 74.2441 1.85501 75.6315C1.85501 77.0188 20.5011 78.1435 43.5022 78.1435Z" fill="#92E3A9"/>
<path opacity="0.7" d="M43.5022 78.1435C66.5033 78.1435 85.1494 77.0188 85.1494 75.6315C85.1494 74.2441 66.5033 73.1194 43.5022 73.1194C20.5011 73.1194 1.85501 74.2441 1.85501 75.6315C1.85501 77.0188 20.5011 78.1435 43.5022 78.1435Z" fill="white"/>
<path d="M52.6198 9.46001L52.4999 10.4493L53.0504 10.6394C53.0584 10.9785 53.1069 11.3155 53.1947 11.6438L52.7174 11.9807L53.1193 12.8987L53.6987 12.7929C53.8792 13.0825 54.0938 13.3507 54.338 13.5921L54.0961 14.1191L54.9175 14.7153L55.3615 14.3481C55.6667 14.5117 55.9909 14.6393 56.3272 14.7282L56.3893 15.3006L57.4039 15.4194L57.6014 14.8816C57.95 14.8738 58.2964 14.8267 58.6337 14.7412L58.9823 15.2034L59.928 14.8082L59.8237 14.2466C60.1205 14.0707 60.3954 13.862 60.6428 13.6245L61.1845 13.8599L61.7972 13.0607L61.4176 12.6287C61.5861 12.3327 61.7173 12.0179 61.8083 11.6913L62.3966 11.6308L62.5187 10.6415L61.966 10.4493C61.9591 10.1108 61.9106 9.77434 61.8217 9.44705L62.3012 9.10793L61.8971 8.18993L61.3199 8.2936C61.1385 8.00469 60.9232 7.73723 60.6784 7.49657L60.9181 6.97169L60.0901 6.38417L59.6461 6.75353C59.3423 6.59175 59.0205 6.4642 58.687 6.37337L58.6249 5.80097L57.6081 5.68433L57.4105 6.22001C57.0626 6.22836 56.7169 6.2762 56.3804 6.36257L56.0319 5.89817L55.0884 6.28913L55.195 6.85073C54.8993 7.02394 54.6251 7.22978 54.378 7.46417L53.8385 7.23089L53.2236 8.03009L53.6032 8.46209C53.4352 8.75914 53.3041 9.07454 53.2125 9.40169L52.6198 9.46001ZM54.9796 10.2527C55.0391 9.76633 55.2455 9.30803 55.5728 8.93583C55.9001 8.56364 56.3335 8.29428 56.8182 8.16186C57.3028 8.02944 57.817 8.03991 58.2956 8.19194C58.7741 8.34398 59.1956 8.63074 59.5066 9.01593C59.8176 9.40112 60.0041 9.86742 60.0426 10.3558C60.0811 10.8442 59.9698 11.3327 59.7228 11.7595C59.4758 12.1864 59.1042 12.5323 58.6551 12.7535C58.2059 12.9748 57.6994 13.0614 57.1996 13.0024C56.5308 12.9235 55.9215 12.5897 55.5053 12.0742C55.0891 11.5587 54.9001 10.9036 54.9796 10.2527Z" stroke="#263238" stroke-width="0.8" stroke-linejoin="round"/>
<path d="M26.0974 33.8031L25.9886 34.6995L26.4881 34.8723C26.4951 35.1794 26.5391 35.4846 26.6191 35.7817L26.1751 36.0884L26.5392 36.92L27.0631 36.8228C27.2271 37.0849 27.4215 37.3277 27.6426 37.5464L27.4206 38.0238L28.182 38.5681L28.5838 38.2333C28.8601 38.3823 29.1537 38.4983 29.4585 38.5789L29.514 39.0973L30.4353 39.2053L30.6129 38.7171C30.9285 38.7107 31.2423 38.6679 31.5475 38.5897L31.8628 39.0109L32.7152 38.6545L32.622 38.1361C32.8913 37.9766 33.1409 37.7874 33.3657 37.5723L33.8563 37.7883L34.4113 37.0669L34.0672 36.6716C34.2198 36.4033 34.339 36.1184 34.4224 35.8227L34.9552 35.7666L35.064 34.8702L34.5645 34.6974C34.5575 34.3903 34.5136 34.0851 34.4335 33.788L34.8775 33.4813L34.5112 32.6497L33.9895 32.7426C33.824 32.4818 33.6281 32.2404 33.4057 32.0233L33.6277 31.5459L32.8662 31.0081L32.4622 31.3429C32.1871 31.1952 31.895 31.0799 31.5919 30.9994L31.5364 30.481L30.6151 30.373L30.4375 30.8612C30.1219 30.8678 29.8082 30.9106 29.5029 30.9886L29.1877 30.5761L28.333 30.9303L28.4284 31.4401C28.159 31.5994 27.9094 31.7886 27.6847 32.0038L27.1941 31.7878L26.6391 32.5114L26.9832 32.9046C26.831 33.1738 26.7118 33.4594 26.628 33.7556L26.0974 33.8031ZM28.2353 34.5202C28.2894 34.08 28.4765 33.6653 28.7728 33.3284C29.0692 32.9916 29.4615 32.7478 29.9002 32.628C30.339 32.5081 30.8044 32.5174 31.2376 32.6549C31.6709 32.7923 32.0525 33.0516 32.3343 33.4001C32.6161 33.7485 32.7854 34.1705 32.8208 34.6125C32.8561 35.0546 32.756 35.4969 32.533 35.8836C32.31 36.2703 31.9742 36.5839 31.568 36.7849C31.1619 36.986 30.7036 37.0653 30.251 37.0129C29.6442 36.942 29.091 36.6397 28.7131 36.1724C28.3351 35.705 28.1633 35.1108 28.2353 34.5202Z" fill="#263238"/>
<path d="M73.0438 55.7942V53.7616L71.8783 53.5046C71.7796 52.8194 71.5978 52.148 71.3366 51.5044L72.2246 50.7074L71.1768 48.9362L70.0312 49.2883C69.5927 48.7445 69.0905 48.2523 68.535 47.8216L68.8968 46.6963L67.0831 45.6789L66.2728 46.5278C65.6134 46.2688 64.9249 46.0868 64.2215 45.9856L63.9551 44.8408H61.8661L61.5997 45.977C60.8953 46.0722 60.2051 46.2492 59.544 46.504L58.7248 45.64L56.9155 46.6552L57.2685 47.7698C56.7097 48.1957 56.2038 48.6836 55.7611 49.2235L54.6067 48.8757L53.5633 50.6339L54.438 51.4267C54.1721 52.0675 53.985 52.7367 53.8807 53.4203L52.7041 53.6817V55.7143L53.8696 55.9735C53.9697 56.6577 54.1515 57.3282 54.4113 57.9715L53.5233 58.7707L54.5689 60.5354L55.7122 60.1919C56.1519 60.7342 56.6556 61.2243 57.213 61.6521L56.8555 62.7775L58.6715 63.7948L59.4818 62.9308C60.1373 63.1902 60.8222 63.3729 61.522 63.4751L61.7884 64.6199H63.8796L64.1438 63.4859C64.8487 63.3874 65.5394 63.2091 66.2017 62.9546L67.0209 63.8186L68.8347 62.8012L68.4817 61.6888C69.041 61.2634 69.5469 60.7755 69.9891 60.2351L71.1435 60.5829L72.1891 58.816L71.3122 58.0255C71.578 57.3837 71.7658 56.7139 71.8716 56.0296L73.0438 55.7942ZM69.4318 54.7444C69.4318 56.0064 69.0472 57.24 68.3266 58.2893C67.606 59.3386 66.5818 60.1564 65.3835 60.6394C64.1852 61.1223 62.8667 61.2487 61.5946 61.0025C60.3225 60.7563 59.154 60.1486 58.2368 59.2562C57.3197 58.3639 56.6951 57.2269 56.4421 55.9892C56.189 54.7515 56.3189 53.4686 56.8153 52.3027C57.3116 51.1367 58.1522 50.1402 59.2306 49.4391C60.309 48.738 61.5769 48.3638 62.874 48.3638C64.6132 48.3638 66.2812 49.036 67.5111 50.2326C68.7409 51.4292 69.4318 53.0522 69.4318 54.7444Z" fill="white"/>
<path d="M36.7468 5.33643H31.3655V6.54386H36.7468V5.33643Z" fill="#92E3A9"/>
<path d="M34.9019 7.08179H31.3655V8.28923H34.9019V7.08179Z" fill="#92E3A9"/>
<path d="M33.4012 8.82715H31.3655V10.0346H33.4012V8.82715Z" fill="#92E3A9"/>
<path opacity="0.2" d="M36.7468 5.33643H31.3655V6.54386H36.7468V5.33643Z" fill="black"/>
<path opacity="0.2" d="M34.9019 7.08179H31.3655V8.28923H34.9019V7.08179Z" fill="black"/>
<path opacity="0.2" d="M33.4012 8.82715H31.3655V10.0346H33.4012V8.82715Z" fill="black"/>
<path d="M23.8464 18.7112H22.0215V22.3486H23.8464V18.7112Z" fill="#92E3A9"/>
<path d="M26.4815 19.9619H24.6566V22.3509H26.4815V19.9619Z" fill="#92E3A9"/>
<path d="M29.1188 20.9749H27.294V22.3508H29.1188V20.9749Z" fill="#92E3A9"/>
<path opacity="0.2" d="M23.8464 18.7112H22.0215V22.3486H23.8464V18.7112Z" fill="black"/>
<path opacity="0.2" d="M26.4815 19.9619H24.6566V22.3509H26.4815V19.9619Z" fill="black"/>
<path opacity="0.2" d="M29.1188 20.9749H27.294V22.3508H29.1188V20.9749Z" fill="black"/>
<path d="M43.7087 25.1027H21.613C21.3097 25.1032 21.0093 25.0456 20.729 24.9331C20.4486 24.8206 20.1938 24.6553 19.9792 24.4469C19.7645 24.2384 19.5942 23.9908 19.478 23.7183C19.3618 23.4457 19.302 23.1535 19.302 22.8584V5.10972C19.3032 4.51486 19.5466 3.94469 19.9789 3.52406C20.4112 3.10343 20.9972 2.86662 21.6086 2.86548H43.7042C44.0074 2.8652 44.3077 2.92302 44.5879 3.03565C44.8682 3.14828 45.1229 3.31351 45.3375 3.52191C45.5521 3.7303 45.7224 3.97779 45.8387 4.25022C45.955 4.52266 46.015 4.81472 46.0153 5.10972V22.8584C46.0153 23.4536 45.7722 24.0245 45.3397 24.4454C44.9071 24.8662 44.3204 25.1027 43.7087 25.1027ZM21.613 3.07068C21.0552 3.07182 20.5206 3.28793 20.1262 3.67169C19.7317 4.05546 19.5096 4.57563 19.5085 5.11836V22.8671C19.5096 23.4098 19.7317 23.93 20.1262 24.3137C20.5206 24.6975 21.0552 24.9136 21.613 24.9148H43.7087C44.2665 24.9136 44.8011 24.6975 45.1955 24.3137C45.59 23.93 45.8121 23.4098 45.8132 22.8671V5.10972C45.8121 4.56699 45.59 4.04682 45.1955 3.66305C44.8011 3.27928 44.2665 3.06318 43.7087 3.06204L21.613 3.07068Z" fill="#263238"/>
<path d="M43.4245 18.8105H35.5457V19.0071H43.4245V18.8105Z" fill="#263238"/>
<path d="M43.4245 19.6335H35.5457V19.8301H43.4245V19.6335Z" fill="#263238"/>
<path d="M43.4245 20.4543H35.5457V20.6509H43.4245V20.4543Z" fill="#263238"/>
<path d="M43.4245 21.2751H35.5457V21.4717H43.4245V21.2751Z" fill="#263238"/>
<path d="M43.4245 22.0959H35.5457V22.2925H43.4245V22.0959Z" fill="#263238"/>
<path d="M29.6583 5.4187H21.7795V5.61526H29.6583V5.4187Z" fill="#263238"/>
<path d="M29.6583 6.2395H21.7795V6.43606H29.6583V6.2395Z" fill="#263238"/>
<path d="M29.6583 7.0603H21.7795V7.25686H29.6583V7.0603Z" fill="#263238"/>
<path d="M29.6583 7.8811H21.7795V8.07766H29.6583V7.8811Z" fill="#263238"/>
<path d="M29.6583 8.7019H21.7795V8.89846H29.6583V8.7019Z" fill="#263238"/>
<path d="M41.8683 12.0498L43.2802 12.7713L43.1182 8.89624L39.7504 10.9698L41.1624 11.6891L40.099 13.6569C39.9116 13.6567 39.7295 13.7175 39.5817 13.8297L37.7058 12.9851V12.9743C37.7139 12.7541 37.6325 12.5397 37.4793 12.3774C37.3261 12.2152 37.1134 12.1182 36.8872 12.1074C36.661 12.0966 36.4395 12.1729 36.2708 12.3198C36.102 12.4667 35.9994 12.6723 35.9853 12.8922C35.9831 12.9196 35.9831 12.947 35.9853 12.9743C35.9864 13.0942 36.0129 13.2126 36.063 13.3221L33.621 15.9141C33.5427 15.8901 33.4611 15.8778 33.379 15.8774C33.3365 15.8774 33.2941 15.8817 33.2525 15.8903L29.736 11.5466C29.8164 11.3457 29.8139 11.1224 29.7291 10.9233C29.6443 10.7242 29.4837 10.5647 29.2809 10.478C29.0781 10.3913 28.8487 10.3842 28.6407 10.4581C28.4326 10.5321 28.2619 10.6814 28.1643 10.8748C28.1156 10.9793 28.0907 11.0927 28.091 11.2074C28.0937 11.2933 28.1086 11.3783 28.1354 11.4602L24.1283 15.4562C23.9689 15.4002 23.796 15.3914 23.6315 15.4308C23.467 15.4701 23.318 15.556 23.2035 15.6775C23.089 15.799 23.014 15.9508 22.9879 16.1137C22.9618 16.2766 22.9857 16.4434 23.0568 16.5931C23.1279 16.7427 23.2429 16.8686 23.3873 16.9549C23.5317 17.0411 23.6991 17.0839 23.8684 17.0778C24.0378 17.0717 24.2015 17.0171 24.339 16.9207C24.4765 16.8243 24.5816 16.6905 24.6411 16.5362C24.6747 16.4439 24.692 16.3468 24.6922 16.2489C24.6924 16.1802 24.6827 16.1119 24.6633 16.0458L28.7148 12.0002C28.7943 12.0258 28.8775 12.039 28.9612 12.039C29.0142 12.0394 29.067 12.0343 29.1189 12.0239L32.6154 16.3439C32.5055 16.541 32.4807 16.7724 32.5463 16.9873C32.6118 17.2022 32.7625 17.383 32.965 17.4898C33.1675 17.5966 33.4054 17.6208 33.6263 17.557C33.8471 17.4932 34.0329 17.3467 34.1427 17.1496C34.2047 17.04 34.2404 16.9181 34.2471 16.7932C34.2493 16.7652 34.2493 16.737 34.2471 16.709C34.2457 16.6216 34.2307 16.5349 34.2027 16.4519L36.7024 13.8038C36.75 13.8124 36.7983 13.8167 36.8467 13.8167C37.0175 13.8166 37.1845 13.767 37.3262 13.6742L39.2354 14.5382C39.2389 14.6491 39.265 14.7582 39.3123 14.8592C39.3596 14.9602 39.4271 15.051 39.5109 15.1264C39.5947 15.2017 39.693 15.2601 39.8002 15.2981C39.9074 15.336 40.0213 15.3529 40.1352 15.3476C40.2491 15.3423 40.3609 15.3149 40.4638 15.2672C40.5668 15.2194 40.659 15.1522 40.7349 15.0694C40.8109 14.9866 40.8692 14.8899 40.9064 14.785C40.9435 14.6801 40.9589 14.569 40.9515 14.4582C40.9431 14.3031 40.89 14.1534 40.7983 14.0262L41.8683 12.0498Z" fill="#263238"/>
<path d="M43.7597 27.3945C43.4122 27.395 43.079 27.5298 42.8334 27.7691C42.5879 28.0085 42.45 28.3328 42.45 28.671V39.7324C42.45 40.0704 42.5879 40.3945 42.8336 40.6335C43.0792 40.8725 43.4124 41.0068 43.7597 41.0068H57.5238C57.8713 41.0068 58.2047 40.8726 58.4507 40.6336C58.6967 40.3947 58.8352 40.0706 58.8358 39.7324V28.6645C58.8352 28.3263 58.6967 28.0022 58.4507 27.7633C58.2047 27.5243 57.8713 27.3901 57.5238 27.3901L43.7597 27.3945Z" stroke="#263238" stroke-width="0.5" stroke-linejoin="round"/>
<path d="M44.5811 28.9021H43.5355V29.0382H44.5811V28.9021Z" fill="#263238"/>
<path d="M44.5811 30.0125H43.5355V30.1485H44.5811V30.0125Z" fill="#263238"/>
<path d="M44.5811 31.1226H43.5355V31.2586H44.5811V31.1226Z" fill="#263238"/>
<path d="M44.5811 32.2351H43.5355V32.3712H44.5811V32.2351Z" fill="#263238"/>
<path d="M44.5412 30.0125H43.4956V30.1485H44.5412V30.0125Z" fill="#263238"/>
<path d="M44.5811 33.3452H43.5355V33.4813H44.5811V33.3452Z" fill="#263238"/>
<path d="M51.4387 39.3543C52.4309 39.3742 53.4068 39.1073 54.2429 38.5873C55.0791 38.0673 55.7379 37.3177 56.136 36.4333C56.5341 35.5488 56.6535 34.5693 56.4792 33.6188C56.3049 32.6683 55.8447 31.7894 55.1568 31.0935C54.4689 30.3976 53.5843 29.9159 52.6149 29.7094C51.6455 29.5028 50.635 29.5808 49.7111 29.9333C48.7873 30.2859 47.9917 30.8972 47.4251 31.6898C46.8585 32.4825 46.5463 33.4209 46.5281 34.3863C46.5031 35.6784 47.0062 36.9274 47.9269 37.8588C48.8477 38.7903 50.1107 39.3282 51.4387 39.3543ZM51.6141 31.0296C52.3165 31.0435 52.9989 31.2596 53.5751 31.6508C54.1512 32.042 54.5952 32.5906 54.8508 33.2273C55.1065 33.864 55.1623 34.5602 55.0113 35.2278C54.8603 35.8954 54.5092 36.5044 54.0024 36.9778C53.4956 37.4513 52.856 37.7678 52.1643 37.8875C51.4726 38.0072 50.7599 37.9247 50.1165 37.6503C49.473 37.3759 48.9276 36.922 48.5493 36.346C48.171 35.77 47.9767 35.0978 47.9911 34.4144C48.0103 33.4981 48.4028 32.6268 49.0822 31.992C49.7616 31.3573 50.6724 31.0111 51.6141 31.0296Z" fill="#92E3A9"/>
<path opacity="0.2" d="M51.4387 39.3543C52.4309 39.3742 53.4068 39.1073 54.2429 38.5873C55.0791 38.0673 55.7379 37.3177 56.136 36.4333C56.5341 35.5488 56.6535 34.5693 56.4792 33.6188C56.3049 32.6683 55.8447 31.7894 55.1568 31.0935C54.4689 30.3976 53.5843 29.9159 52.6149 29.7094C51.6455 29.5028 50.635 29.5808 49.7111 29.9333C48.7873 30.2859 47.9917 30.8972 47.4251 31.6898C46.8585 32.4825 46.5463 33.4209 46.5281 34.3863C46.5031 35.6784 47.0062 36.9274 47.9269 37.8588C48.8477 38.7903 50.1107 39.3282 51.4387 39.3543ZM51.6141 31.0296C52.3165 31.0435 52.9989 31.2596 53.5751 31.6508C54.1512 32.042 54.5952 32.5906 54.8508 33.2273C55.1065 33.864 55.1623 34.5602 55.0113 35.2278C54.8603 35.8954 54.5092 36.5044 54.0024 36.9778C53.4956 37.4513 52.856 37.7678 52.1643 37.8875C51.4726 38.0072 50.7599 37.9247 50.1165 37.6503C49.473 37.3759 48.9276 36.922 48.5493 36.346C48.171 35.77 47.9767 35.0978 47.9911 34.4144C48.0103 33.4981 48.4028 32.6268 49.0822 31.992C49.7616 31.3573 50.6724 31.0111 51.6141 31.0296Z" fill="black"/>
<path d="M47.94 37.9675C48.4121 38.431 48.9734 38.7993 49.5918 39.0517C50.2103 39.304 50.8738 39.4353 51.5444 39.4381C52.215 39.4409 52.8796 39.3152 53.5003 39.068C54.1209 38.8209 54.6855 38.4572 55.1617 37.9978C55.1791 37.9788 55.1888 37.9542 55.1888 37.9287C55.1888 37.9032 55.1791 37.8786 55.1617 37.8595L54.1205 36.84C54.1113 36.8306 54.1003 36.8231 54.0881 36.8179C54.0759 36.8127 54.0627 36.81 54.0494 36.8098C54.0226 36.8113 53.9969 36.8212 53.9762 36.8379C53.6488 37.1574 53.2578 37.4086 52.8273 37.5761C52.3967 37.7436 51.9356 37.8238 51.472 37.812H51.2256C50.472 37.7711 49.7533 37.4894 49.181 37.0107C49.1299 36.9653 49.0766 36.9199 49.0278 36.8724C48.443 36.3043 48.0833 35.5534 48.0122 34.7523C47.9411 33.9512 48.1632 33.1514 48.6393 32.4941C48.6438 32.4881 48.6475 32.4816 48.6504 32.4747C48.6726 32.4444 48.697 32.4185 48.7237 32.3883C49.0651 31.9675 49.5055 31.6329 50.0078 31.4126C50.5101 31.1923 51.0595 31.0928 51.6097 31.1225C51.6228 31.1228 51.6358 31.1206 51.6481 31.1159C51.6603 31.1113 51.6715 31.1044 51.681 31.0956C51.6904 31.0867 51.698 31.0762 51.7033 31.0645C51.7086 31.0528 51.7115 31.0402 51.7118 31.0275L51.7406 29.5954C51.7412 29.5694 51.7314 29.5442 51.7131 29.5252C51.6948 29.5062 51.6696 29.495 51.643 29.4939C50.6267 29.4773 49.6285 29.7561 48.7761 30.2947C47.9238 30.8333 47.256 31.6072 46.8583 32.5173C46.4606 33.4273 46.3511 34.4321 46.5438 35.4031C46.7365 36.3741 47.2226 37.267 47.94 37.9675Z" fill="#263238"/>
<path d="M51.6452 29.4961C53.0289 29.4975 54.3554 30.0335 55.3331 30.9863C56.3108 31.9391 56.8596 33.2306 56.8588 34.577C56.8581 35.9233 56.3079 37.2143 55.3292 38.166C54.3505 39.1178 53.0234 39.6524 51.6396 39.6524C50.2559 39.6524 48.9288 39.1178 47.9501 38.166C46.9714 37.2143 46.4211 35.9233 46.4204 34.577C46.4197 33.2306 46.9685 31.9391 47.9461 30.9863C48.9238 30.0335 50.2503 29.4975 51.6341 29.4961H51.6452ZM51.4409 39.2528C52.4129 39.2723 53.3691 39.0108 54.1883 38.5015C55.0076 37.9923 55.6532 37.258 56.0436 36.3917C56.4339 35.5253 56.5514 34.5658 56.3813 33.6345C56.2111 32.7031 55.7608 31.8418 55.0875 31.1595C54.4142 30.4771 53.548 30.0044 52.5985 29.8011C51.649 29.5978 50.6588 29.673 49.7533 30.0173C48.8478 30.3616 48.0675 30.9594 47.5112 31.7351C46.9549 32.5109 46.6475 33.4298 46.628 34.3755C46.6018 35.6434 47.094 36.8695 47.9965 37.7845C48.899 38.6994 50.1379 39.2283 51.4409 39.255V39.2528ZM51.6163 30.9282C52.3372 30.9424 53.0375 31.1643 53.6287 31.5658C54.2199 31.9674 54.6755 32.5304 54.9378 33.1839C55.2001 33.8373 55.2573 34.5518 55.1023 35.2368C54.9472 35.9219 54.5869 36.5469 54.0667 37.0327C53.5466 37.5185 52.8901 37.8434 52.1803 37.9661C51.4704 38.0889 50.7391 38.0041 50.0787 37.7225C49.4184 37.4408 48.8588 36.975 48.4706 36.3838C48.0824 35.7927 47.883 35.1028 47.8978 34.4015C47.9176 33.4611 48.3205 32.567 49.0178 31.9156C49.7152 31.2643 50.6499 30.9091 51.6163 30.9282ZM51.472 37.8207C52.1529 37.8343 52.8226 37.651 53.3965 37.2942C53.9704 36.9374 54.4226 36.423 54.696 35.8161C54.9694 35.2092 55.0516 34.5371 54.9324 33.8847C54.8131 33.2323 54.4977 32.6289 54.026 32.151C53.5543 31.673 52.9476 31.3418 52.2825 31.1994C51.6173 31.057 50.9237 31.1097 50.2894 31.3508C49.655 31.5919 49.1084 32.0107 48.7187 32.5541C48.329 33.0975 48.1136 33.7411 48.0998 34.4036C48.082 35.2914 48.4272 36.1498 49.0595 36.7902C49.6918 37.4305 50.5595 37.8004 51.472 37.8186V37.8207Z" fill="#263238"/>
<path d="M25.6667 45.0762V58.1787" stroke="#263238" stroke-width="0.879169" stroke-linecap="round" stroke-linejoin="round"/>
<path d="M27.8313 50.0205H26.688V57.5222H27.8313V50.0205Z" fill="#263238"/>
<path d="M29.4652 53.0811H28.3219V57.5199H29.4652V53.0811Z" fill="#92E3A9"/>
<path d="M31.3855 47.5947H30.2422V57.5221H31.3855V47.5947Z" fill="white" stroke="#263238" stroke-width="0.879169" stroke-linejoin="round"/>
<path d="M34.5734 46.1626H33.4301V57.5199H34.5734V46.1626Z" fill="#263238"/>
<path d="M36.2095 54.7119H35.0662V57.5221H36.2095V54.7119Z" fill="#92E3A9"/>
<path d="M38.1298 50.8154H36.9865V57.5222H38.1298V50.8154Z" fill="white" stroke="#263238" stroke-width="0.879169" stroke-linejoin="round"/>
<path d="M42.7874 51.8413H41.6441V57.5199H42.7874V51.8413Z" fill="#263238"/>
<path d="M44.4235 47.4348H43.2802V57.5199H44.4235V47.4348Z" fill="#92E3A9"/>
<path d="M46.3438 49.6619H45.2005V57.5199H46.3438V49.6619Z" fill="white" stroke="#263238" stroke-width="0.879169" stroke-linejoin="round"/>
<path d="M24.4391 55.7854H25.0784" stroke="#263238" stroke-width="0.879169" stroke-linecap="round" stroke-linejoin="round"/>
<path d="M24.4391 54.1677H25.0784" stroke="#263238" stroke-width="0.879169" stroke-linecap="round" stroke-linejoin="round"/>
<path d="M24.4391 52.552H25.0784" stroke="#263238" stroke-width="0.879169" stroke-linecap="round" stroke-linejoin="round"/>
<path d="M24.4391 50.9341H25.0784" stroke="#263238" stroke-width="0.879169" stroke-linecap="round" stroke-linejoin="round"/>
<path d="M24.4391 49.3164H25.0784" stroke="#263238" stroke-width="0.879169" stroke-linecap="round" stroke-linejoin="round"/>
<path d="M24.4391 47.6985H25.0784" stroke="#263238" stroke-width="0.879169" stroke-linecap="round" stroke-linejoin="round"/>
<path d="M24.4391 46.0806H25.0784" stroke="#263238" stroke-width="0.879169" stroke-linecap="round" stroke-linejoin="round"/>
<path d="M24.9097 57.5222H47.1453" stroke="#263238" stroke-width="0.879169" stroke-linecap="round" stroke-linejoin="round"/>
<path opacity="0.3" d="M29.4652 53.0811H28.3219V57.5199H29.4652V53.0811Z" fill="black"/>
<path opacity="0.3" d="M36.2095 54.7119H35.0662V57.5221H36.2095V54.7119Z" fill="black"/>
<path opacity="0.3" d="M44.4235 47.4348H43.2802V57.5199H44.4235V47.4348Z" fill="black"/>
<path d="M23.5311 43.2575C23.148 43.258 22.7807 43.4064 22.5098 43.6699C22.2389 43.9335 22.0865 44.2909 22.0859 44.6636V57.5178C22.0865 57.8907 22.2388 58.2483 22.5097 58.5122C22.7805 58.7761 23.1478 58.925 23.5311 58.9261H48.051C48.4345 58.925 48.802 58.7762 49.0732 58.5124C49.3444 58.2485 49.4973 57.8909 49.4984 57.5178V44.6593C49.4978 44.286 49.3452 43.9281 49.0738 43.6641C48.8025 43.4001 48.4347 43.2515 48.051 43.251L23.5311 43.2575Z" stroke="#263238" stroke-width="0.5" stroke-linejoin="round"/>
<path d="M4.1283 71.9918C4.1283 71.9918 4.64112 75.3225 3.40014 75.6638C2.15916 76.0051 1.2978 75.5558 1.1424 75.0569C0.987004 74.5579 2.0859 70.9939 2.0859 70.9939L4.1283 71.9918Z" fill="white"/>
<path d="M25.7134 72.7284L31.108 73.9726C31.108 73.9726 31.5164 74.1886 31.472 74.545C31.4276 74.9014 28.9657 75.8151 28.2752 75.9296C27.5848 76.044 23.5999 76.5495 23.0338 76.0764C22.4677 75.6034 23.6643 71.832 23.6643 71.832L25.7134 72.7284Z" fill="white"/>
<path d="M15.9454 11.9826C15.9454 11.9826 16.7046 13.0971 16.7157 13.6609C16.7268 14.2247 16.6558 14.8683 17.011 15.201C17.3662 15.5336 17.6392 15.8965 17.4927 16.065C17.3462 16.2335 17.0642 16.5618 17.0642 16.5618C17.0642 16.5618 17.4305 18.4604 16.9555 18.8038C16.4804 19.1473 15.0529 18.8038 15.0529 18.8038V20.0307C15.0529 20.0307 13.0239 19.3827 11.623 19.5037L11.3744 16.875C11.3744 16.875 14.418 11.1812 15.9454 11.9826Z" fill="white"/>
<path d="M28.4262 19.7501C28.4262 19.7501 28.2442 18.4023 28.919 17.5901C28.919 17.5901 28.111 17.4562 28.2086 17.1711C28.3063 16.886 29.5406 17.2597 29.5406 17.2597L29.2076 16.6117C29.2076 16.6117 28.0421 16.2358 28.1864 15.8837C28.3307 15.5317 30.0401 16.3978 30.0401 16.3978C30.0401 16.3978 29.0256 15.5727 29.1677 15.2293C29.3098 14.8858 30.3421 14.8923 30.8926 16.6721L31.1723 16.333C31.1723 16.333 31.2722 14.3069 31.5586 14.1968C31.5586 14.1968 32.0026 14.4344 32.0026 15.5986C32.0026 15.5986 32.4466 16.1192 32.1647 16.5598C31.8827 17.0005 31.219 17.9919 30.6551 18.3634C30.0912 18.7349 30.0934 20.1843 30.0934 20.1843L28.4262 19.7501Z" fill="white"/>
<path d="M10.5596 8.67143L10.8149 8.3388C10.8149 8.3388 13.6721 7.09895 13.601 6.71231C13.53 6.32567 11.9116 6.85919 11.603 6.65399C11.603 6.65399 11.8983 2.99496 11.603 2.87616C11.3078 2.75736 10.9792 4.59335 10.9792 4.59335C10.9792 4.59335 10.5641 2.70983 10.2444 2.76383C9.92471 2.81783 10.0579 4.70783 10.0579 4.70783C10.0579 4.70783 9.44741 3.49608 9.20987 3.6084C8.97233 3.72072 9.32753 5.19816 9.32753 5.19816C9.32753 5.19816 8.88353 4.69056 8.70593 4.84392C8.76444 5.60708 8.97958 6.3511 9.33863 7.03199L8.72147 8.04719L10.5596 8.67143Z" fill="white"/>
<path d="M28.1176 19.7587L30.0868 20.0265C30.0868 20.0265 28.646 31.9065 28.222 33.3731C27.7979 34.8398 27.4161 35.8939 25.9687 35.9651C24.5212 36.0364 19.3642 31.8179 19.3642 31.8179L19.1244 37.6499L19.4596 40.0691C19.4596 40.0691 13.1526 43.294 6.73902 40.4882L6.88332 37.6499L4.5723 24.6683L2.75412 18.5037L8.62158 7.67993L10.7483 8.75993L6.99654 18.6117L8.0466 21.9014L9.22098 21.4435L10.5197 19.8321C10.5197 19.8321 12.7219 18.7197 15.508 20.2641L15.952 21.6163C15.952 21.6163 19.2199 21.856 24.7366 29.2972L28.1176 19.7587Z" fill="#92E3A9"/>
<path opacity="0.2" d="M14.0406 19.7585L14.2893 21.4217C14.2893 21.4217 16.123 22.6054 16.86 23.0158C16.86 23.0158 18.6627 34.0923 17.3284 36.2717L15.9232 38.4123C15.9232 38.4123 17.3595 38.4123 18.0211 37.4338C18.0211 37.4338 17.1975 40.1079 15.0618 40.8272C15.0618 40.8272 18.3408 40.4945 19.4685 40.0712L19.1333 37.652L19.6728 24.1628C19.6728 24.1628 20.1811 23.2599 15.9543 21.6421L15.3304 20.1841L14.0406 19.7585Z" fill="black"/>
<path d="M15.9454 12.1338C15.9454 12.1338 16.6336 13.1144 16.7157 13.6609C16.7978 14.2074 16.5536 14.81 17.011 15.201C17.4683 15.592 17.677 15.849 17.4927 16.065C17.3084 16.281 17.0642 16.5618 17.0642 16.5618C17.0642 16.5618 17.2507 18.4129 16.9555 18.8039C16.6602 19.1948 15.0529 18.8039 15.0529 18.8039V20.0307" stroke="#263238" stroke-width="0.5" stroke-linecap="round" stroke-linejoin="round"/>
<path d="M15.0529 16.4797C15.0529 16.4797 14.4091 14.8619 13.9274 15.2528C13.4457 15.6438 13.8741 17.7822 15.0529 17.3135" stroke="#263238" stroke-width="0.5" stroke-linecap="round" stroke-linejoin="round"/>
<path d="M14.8775 16.104C14.8775 16.104 15.6434 16.0435 15.1595 14.2961C14.6755 12.5486 15.7234 12.7841 16.8489 12.2873C17.9744 11.7905 18.2431 10.879 18.0011 10.3325C17.7591 9.78601 17.3573 9.49657 15.9365 9.75793C15.9365 9.75793 14.3825 8.01049 12.8818 9.94153C12.8818 9.94153 9.50292 9.88969 8.59272 11.4535C7.68252 13.0174 8.88798 17.009 10.6573 18.3396C12.4267 19.6702 14.156 18.6053 14.5157 17.3546C14.5157 17.3546 13.3102 16.7218 13.9274 15.2616C13.9274 15.253 14.489 15.0586 14.8775 16.104Z" fill="#263238"/>
<path d="M4.39691 23.6833C4.39691 23.6833 12.5732 17.9139 19.6994 23.6833L19.1244 37.6412L19.4596 40.0604C19.4596 40.0604 13.4345 42.8058 6.73901 40.4795L6.88331 37.6412L4.39691 23.6833Z" stroke="#263238" stroke-width="0.5" stroke-linecap="round" stroke-linejoin="round"/>
<path d="M9.11221 21.5859L10.5197 19.8407C10.5197 19.8407 13.2792 18.9119 15.508 20.2727L15.952 21.6248" stroke="#263238" stroke-width="0.5" stroke-linecap="round" stroke-linejoin="round"/>
<path d="M19.6994 23.6833L26.8189 31.6494" stroke="#263238" stroke-width="0.5" stroke-linecap="round" stroke-linejoin="round"/>
<path d="M19.3708 31.656C19.3708 31.656 24.0883 35.9263 25.9687 35.976C27.849 36.0257 28.162 33.816 28.162 33.816L30.0868 20.0352L28.1176 19.7673L24.7299 29.321" stroke="#263238" stroke-width="0.5" stroke-linecap="round" stroke-linejoin="round"/>
<path d="M30.0535 19.9919C30.0535 19.9919 30.2999 18.4345 30.9415 18.0803C31.5831 17.7261 32.3445 16.3523 32.1003 15.957C31.8561 15.5617 31.1102 16.8469 30.4375 17.0932C29.7649 17.3394 29.2188 18.549 29.1255 19.0739" stroke="#263238" stroke-width="0.5" stroke-linecap="round" stroke-linejoin="round"/>
<path d="M31.8938 15.901C31.8938 15.901 31.8938 14.1017 31.5542 14.186C31.2145 14.2702 31.1679 16.549 31.1679 16.549" stroke="#263238" stroke-width="0.5" stroke-linecap="round" stroke-linejoin="round"/>
<path d="M30.9193 16.78C30.9193 16.78 30.6973 15.7713 30.0868 15.2788C29.4763 14.7863 29.0944 15.052 29.1633 15.2183C29.2321 15.3846 30.2733 16.7303 30.2488 17.1882" stroke="#263238" stroke-width="0.5" stroke-linecap="round" stroke-linejoin="round"/>
<path d="M29.8626 16.281C29.8626 16.281 28.1865 15.5336 28.182 15.9807C28.1776 16.4278 29.2032 16.6006 29.2032 16.6006L29.5362 17.2486C29.5362 17.2486 28.1243 16.8166 28.2042 17.1601C28.2841 17.5035 28.9146 17.5791 28.9146 17.5791C28.9146 17.5791 28.2286 18.2401 28.4218 19.7391" stroke="#263238" stroke-width="0.5" stroke-linecap="round" stroke-linejoin="round"/>
<path d="M18.4895 40.2225L18.918 43.1428C18.918 43.1428 22.8629 54.6578 23.4623 56.9085C24.0617 59.1592 24.4058 64.2525 24.5723 66.5875C24.7388 68.9224 26.1263 72.8515 26.1263 72.8515C26.1263 72.8515 25.9554 74.4369 23.0405 74.1863C23.0405 74.1863 21.8395 69.5142 20.5541 66.7602C19.2687 64.0062 19.08 59.8288 19.08 59.8288L12.8196 48.6487C12.8196 48.6487 11.5387 55.1589 10.6773 57.5759C9.78931 60.0686 3.73537 73.899 4.15939 72.9292C4.15939 72.9292 3.30247 73.4303 1.49539 72.1775C1.49539 72.1775 2.78077 68.0066 3.12265 65.7537C3.46453 63.5008 5.26717 58.3276 5.26717 58.3276C5.26717 58.3276 5.69563 48.5666 6.37717 45.562C6.37717 45.562 5.93317 42.2529 6.88111 39.9158C10.6384 41.1097 14.6712 41.2163 18.4895 40.2225Z" fill="#263238"/>
<path d="M9.38971 46.6875L12.2002 47.4824L12.6087 48.4522" stroke="white" stroke-width="0.5" stroke-linecap="round" stroke-linejoin="round"/>
<path d="M23.1026 73.8451C23.1026 73.8451 22.723 75.6962 23.0338 76.0763C23.1981 76.275 23.6865 76.2383 23.9218 76.2427C24.4635 76.2535 25.0074 76.2189 25.5491 76.1843C26.6325 76.1152 27.7424 76.126 28.7881 75.7998C29.6689 75.5422 30.5104 75.171 31.29 74.6961C31.7163 74.4196 31.29 73.9725 31.29 73.9725L26.1285 72.845" stroke="#263238" stroke-width="0.5" stroke-linecap="round" stroke-linejoin="round"/>
<path d="M23.076 75.4239C23.076 75.4239 28.8768 76.3506 31.29 73.9724" stroke="#263238" stroke-width="0.5" stroke-linecap="round" stroke-linejoin="round"/>
<path d="M1.71961 71.9917C1.71961 71.9917 1.05361 74.2143 1.15129 74.9142C1.24897 75.614 1.97047 75.7782 2.81407 75.7587C3.65767 75.7393 4.00399 75.3721 4.12831 74.817C4.25263 74.2619 4.12831 72.4669 4.12831 72.4669" stroke="#263238" stroke-width="0.5" stroke-linecap="round" stroke-linejoin="round"/>
<path d="M1.1424 74.5752L4.1283 74.8171" stroke="#263238" stroke-width="0.5" stroke-linecap="round" stroke-linejoin="round"/>
<path d="M8.93682 7.74906C9.1899 7.29978 9.33864 7.02546 9.33864 7.02546C9.33864 7.02546 8.51501 5.08794 8.72147 4.85034C8.92793 4.61274 9.40524 5.28234 9.40524 5.28234C9.40524 5.28234 8.91684 3.74226 9.22542 3.6105C9.534 3.47874 10.0846 4.9065 10.0846 4.9065C10.0846 4.9065 9.94025 2.8437 10.2599 2.7465C10.5796 2.6493 10.9637 4.70778 10.9637 4.70778C10.9637 4.70778 11.3766 2.8761 11.6297 2.85882C11.8828 2.84154 11.6297 6.63666 11.6297 6.63666C12.1403 6.88074 13.641 6.28458 13.6277 6.76626C13.6144 7.24794 10.7417 8.35602 10.7417 8.35602C10.6914 8.41946 10.6476 8.48745 10.6107 8.55906" stroke="#263238" stroke-width="0.5" stroke-linecap="round" stroke-linejoin="round"/>
<path d="M4.39692 23.6835L2.75412 18.5038L8.62158 7.68652L10.7483 8.76868L6.99654 18.6204L8.0466 21.9101" stroke="#263238" stroke-width="0.5" stroke-linecap="round" stroke-linejoin="round"/>
<path d="M4.58783 17.6851C4.58783 17.6851 6.69239 17.6678 6.99653 18.6204C6.07462 18.5705 5.16137 18.8164 4.39691 19.3202" stroke="#263238" stroke-width="0.5" stroke-linecap="round" stroke-linejoin="round"/>
<path d="M11.5409 19.6162V18.115" stroke="#263238" stroke-width="0.5" stroke-linecap="round" stroke-linejoin="round"/>
<path opacity="0.2" d="M19.6639 27.8608L20.19 31.2672C20.19 31.2672 20.6207 29.0445 20.8893 29.0445C21.1579 29.0445 20.8893 31.6495 20.8893 31.6495C20.8893 31.6495 25.3027 35.5375 27.2119 35.5591C27.2119 35.5591 26.1507 36.2848 25.0873 35.7448C24.0239 35.2048 19.3619 31.6408 19.3619 31.6408L19.6639 27.8608Z" fill="black"/>
<path opacity="0.2" d="M10.3709 8.57642L6.33497 18.115C6.33497 18.115 4.92971 18.0934 4.39691 19.3203L6.55475 18.9444L7.28069 22.1844L8.04659 21.9015L6.99653 18.6118L10.7483 8.76002L10.3709 8.57642Z" fill="black"/>
<path d="M65.9908 25.3507L64.4013 22.0481L58.1542 26.0635L63.3091 34.9498L67.3295 32.7293L65.9908 25.3507Z" fill="white"/>
<path d="M71.139 53.9168C71.139 53.9168 72.1491 56.6449 72.2979 57.9733C72.4466 59.3017 71.9915 64.8961 72.0892 66.4383C72.1869 67.9805 73.0438 72.5835 73.0438 72.5835C73.0438 72.5835 68.8413 75.5557 67.5071 74.5988C67.5071 74.5988 70.4686 72.266 70.7683 71.3372L69.8092 65.0321L68.8569 57.5758C68.8569 57.5758 68.6149 56.0185 68.2774 55.2171C67.94 54.4157 67.9911 52.7158 67.9911 52.7158L71.139 53.9168Z" fill="white"/>
<path d="M71.0502 53.6749C71.0502 53.6749 72.1425 56.5477 72.3978 58.6105C72.6531 60.6733 71.8849 65.3519 72.138 67.6047C72.3911 69.8576 72.6508 71.1039 73.0993 72.2898L72.8773 75.7695H72.3023L72.0803 73.7953C72.0803 73.7953 71.179 73.4303 70.6329 74.6939C70.0867 75.9575 68.0688 76.1238 67.1119 75.3915C67.1119 75.3915 67.1119 74.8256 67.8312 74.3267C68.5505 73.8277 70.4286 72.2682 70.7705 71.3372C70.7705 71.3372 69.7449 64.8572 69.5051 62.7577C69.2653 60.6582 68.8902 56.8415 68.4106 55.6103C67.9311 54.3791 67.9333 52.6187 67.9333 52.6187" stroke="#263238" stroke-width="0.5" stroke-linecap="round" stroke-linejoin="round"/>
<path d="M72.8795 71.6375C72.8795 71.6375 70.0623 74.6182 67.698 74.5988" stroke="#263238" stroke-width="0.5" stroke-linecap="round" stroke-linejoin="round"/>
<path d="M67.5071 74.5989C67.8979 74.6411 68.2934 74.593 68.6615 74.4585C69.2986 74.2425 71.5919 73.1625 72.7197 71.7996L73.066 72.1819L72.8839 75.6897L72.3045 75.7696L72.0825 73.7954C72.0825 73.7954 71.341 73.4649 70.8637 74.2771C70.3864 75.0892 70.0423 75.6465 69.2076 75.8258C68.3729 76.0051 67.1142 75.3938 67.1142 75.3938C67.1142 75.3938 66.8944 75.072 67.5071 74.5989Z" fill="#263238"/>
<path d="M73.1037 54.0097C73.3684 54.9568 73.6902 55.8879 74.0672 56.7983C74.5711 57.9237 78.9246 69.3047 78.9246 69.3047C78.9246 69.3047 79.2553 75.465 81.109 75.4456C82.9627 75.4261 81.0358 71.1407 81.0358 71.1407L79.908 68.7928C79.908 68.7928 79.4773 61.8959 78.9445 59.3601L76.6757 53.4136L73.1037 54.0097Z" fill="white"/>
<path d="M76.7001 53.6123C76.7001 53.6123 78.5627 57.7358 78.9468 59.3601C79.3308 60.9844 79.7171 68.2917 79.9102 68.7928C80.1034 69.2939 83.1847 74.601 81.3222 75.6638C79.4596 76.7265 79.02 69.5423 79.02 69.5423C79.02 69.5423 74.7199 57.9215 74.0761 56.7983C73.4323 55.6751 72.7285 52.4243 72.7285 52.4243L76.7001 53.6123Z" stroke="#263238" stroke-width="0.5" stroke-linecap="round" stroke-linejoin="round"/>
<path d="M81.684 72.9399C81.684 72.9399 81.5553 74.3785 81.0669 74.5815C80.5785 74.7846 79.4995 73.1624 79.4995 73.1624" stroke="#263238" stroke-width="0.5" stroke-linecap="round" stroke-linejoin="round"/>
<path d="M79.504 73.4109C79.504 73.4109 80.17 75.8647 81.058 75.761C81.946 75.6573 82.1058 74.2944 81.6862 73.2424C81.6862 73.2424 81.5375 74.3224 81.0691 74.5816C80.5962 74.5881 79.504 73.4109 79.504 73.4109Z" fill="#263238"/>
<path d="M71.643 32.1636C71.643 32.1636 73.8874 35.1444 75.4436 39.9396C76.9998 44.7348 76.84 53.9191 76.84 53.9191C76.84 53.9191 71.048 55.7313 65.4336 53.4288L66.4615 32.736C66.4615 32.736 70.0734 32.8008 71.643 32.1636Z" fill="#263238"/>
<path d="M68.7436 10.5461C68.7436 10.5461 66.9987 12.1359 66.7945 13.177C66.626 13.9057 66.3556 14.6085 65.9908 15.2657C66.1785 15.5421 66.4536 15.7514 66.7745 15.8619C66.7745 15.8619 66.8877 17.9938 67.5249 18.158L69.0478 17.7692L69.2098 18.6829L71.3943 17.875V16.6438L73.0593 15.5854L72.4666 12.8185L69.7582 11.5873L68.7436 10.5461Z" fill="white"/>
<path d="M66.4504 32.5696L66.2572 29.5801C66.2572 29.5801 64.8364 26.9881 65.2871 26.0464C65.7844 25.0117 68.7725 21.1799 68.7725 21.1799L68.4795 19.089L72.6664 17.3438L72.8662 19.089L72.36 19.4541L72.9217 20.6248C72.9217 20.6248 72.9572 20.277 73.9296 22.0417C74.9019 23.8065 78.5649 30.0856 78.8535 31.2909C79.1421 32.4961 73.157 36.7427 71.1368 37.7449C71.1368 37.7449 70.9037 37.2589 68.5039 39.0409C67.8934 38.9373 67.0498 38.4037 66.87 38.0733C66.6901 37.7428 67.5604 36.9565 67.5604 36.9565C67.5604 36.9565 68.0843 35.9932 69.01 36.7643H69.9957L75.6367 31.6559L72.7774 27.5843L71.643 32.157C71.643 32.157 67.9733 33.2413 66.4504 32.5696Z" fill="white"/>
<path d="M68.4795 19.089L68.7792 21.2253L72.8662 19.089L72.6664 17.3438L68.4795 19.089Z" stroke="#263238" stroke-width="0.5" stroke-linecap="round" stroke-linejoin="round"/>
<path d="M68.7791 21.2253C68.7791 21.2253 65.0606 25.6512 65.1605 26.5238C65.2604 27.3965 66.2572 29.5802 66.2572 29.5802L66.4615 32.7338C66.4615 32.7338 69.4696 32.8137 71.6429 32.1636L72.7774 27.5909" stroke="#263238" stroke-width="0.5" stroke-linecap="round" stroke-linejoin="round"/>
<path d="M75.6367 31.6558L69.8758 23.2058C69.8758 23.2058 69.3097 21.2618 70.6728 20.5685C72.0359 19.8751 73.2214 20.7542 73.6454 21.2165C74.0694 21.6787 78.6426 30.2518 78.8557 31.2821C79.0688 32.3124 74.2381 36.4337 71.4431 37.5461C71.4431 37.5461 70.1711 38.2891 70.1711 36.7642L75.6367 31.6558Z" stroke="#263238" stroke-width="0.5" stroke-linecap="round" stroke-linejoin="round"/>
<path d="M72.8662 20.6249L72.3267 19.3721" stroke="#263238" stroke-width="0.5" stroke-linecap="round" stroke-linejoin="round"/>
<path d="M70.1711 36.773H69.0123C69.0123 36.773 68.1087 35.9868 67.6803 36.773C67.2518 37.5593 66.7101 37.7148 66.8722 38.082C67.0342 38.4492 67.9622 39.1814 68.5061 39.0497C69.05 38.9179 70.584 37.704 70.584 37.704" stroke="#263238" stroke-width="0.5" stroke-linecap="round" stroke-linejoin="round"/>
<path d="M68.3263 11.1057C68.3263 11.1057 66.9654 12.2635 66.8145 12.905C66.6635 13.5465 66.7279 14.633 65.9908 15.2659C65.9908 15.2659 66.0286 15.7843 66.7745 15.862C66.7745 15.862 67.1563 17.9076 67.5249 18.1581C67.8934 18.4087 70.1489 17.2768 71.0325 16.8103C71.2578 16.6599 71.422 16.4375 71.4964 16.1817" stroke="#263238" stroke-width="0.5" stroke-linecap="round" stroke-linejoin="round"/>
<path d="M67.2696 16.4861C67.6867 16.4176 68.0631 16.2014 68.3263 15.8792" stroke="#263238" stroke-width="0.5" stroke-linecap="round" stroke-linejoin="round"/>
<path d="M67.2696 13.527C67.2696 13.527 67.8068 13.2224 68.1021 13.7279" stroke="#263238" stroke-width="0.5" stroke-linecap="round" stroke-linejoin="round"/>
<path d="M67.6381 14.6134C67.6381 14.7884 67.587 14.9309 67.5049 14.9353C67.4227 14.9396 67.3472 14.8013 67.3384 14.6285C67.3295 14.4557 67.3894 14.3089 67.4716 14.3045C67.5537 14.3002 67.6292 14.4385 67.6381 14.6134Z" fill="#263238"/>
<path d="M69.0478 17.7693L69.2276 18.778" stroke="#263238" stroke-width="0.5" stroke-linecap="round" stroke-linejoin="round"/>
<path d="M70.7927 14.4796C70.7927 14.4796 71.1257 13.851 71.4964 14.2182C71.8672 14.5854 72.5709 16.2832 70.6728 15.8792C70.6728 15.8792 70.5463 16.916 71.4964 17.1752C72.4466 17.4344 74.2515 16.0045 74.3114 13.5659C74.3713 11.1272 71.9515 9.48132 70.6728 9.9522C70.6728 9.9522 68.8191 7.12476 66.981 8.33004C65.1428 9.53532 66.3816 11.3908 65.9908 11.8098C65.6001 12.2288 64.7654 11.8357 64.7388 12.9611C64.7121 14.0864 66.6457 13.972 66.6457 13.972L66.8788 12.7321L68.4795 11.1056C68.4795 11.1056 68.1021 12.2807 68.7436 13.3024C69.3231 14.2225 70.7927 14.4796 70.7927 14.4796Z" fill="#263238"/>
<path d="M74.3114 13.566C74.3114 13.566 75.1994 13.7604 75.1017 14.9289C75.004 16.0975 72.9994 18.9703 73.1503 20.6248L78.3251 30.0079C78.3251 30.0079 80.6539 29.5759 80.5451 27.2431C80.4364 24.9103 77.5948 22.9447 78.1431 21.2253C78.6914 19.506 80.8448 15.1276 77.7946 12.6177C74.7443 10.1078 69.989 13.9548 69.989 13.9548L72.3178 13.2247L74.3114 13.566Z" fill="#263238"/>
<path d="M65.791 25.1585L64.4013 22.0481L58.1542 26.0635L63.3091 34.9498L66.4348 33.2758" stroke="#263238" stroke-width="0.5" stroke-linecap="round" stroke-linejoin="round"/>
<path d="M60.0989 30.4593C60.0989 30.4593 59.7615 29.7811 60.2122 29.4074C60.6628 29.0337 62.2102 27.9257 62.2102 28.1978C62.2204 28.2639 62.2162 28.3313 62.1979 28.3957C62.1795 28.4601 62.1474 28.52 62.1036 28.5715C61.6596 29.1504 60.5962 30.0835 60.6651 30.1591C60.6651 30.1591 62.6053 28.9063 62.7918 29.0251C62.8384 29.0553 62.8118 29.2173 62.6497 29.375C62.118 29.8355 61.5567 30.2626 60.9692 30.6537C60.9692 30.6537 63.016 29.8826 63.2802 30.0057C63.3557 30.0403 63.3401 30.1526 63.1026 30.293C62.5083 30.6073 61.8969 30.89 61.2711 31.1397L61.7839 31.9735C61.7839 31.9735 60.816 32.1377 60.0989 30.4593Z" fill="white" stroke="#263238" stroke-width="0.5" stroke-linecap="round" stroke-linejoin="round"/>
<path d="M71.2522 16.4861L71.3943 17.875" stroke="#263238" stroke-width="0.5" stroke-linejoin="round"/>
</svg>

