

<svg width="24" height="24" viewBox="0 0 24 24" fill="none" xmlns="http://www.w3.org/2000/svg">
<path d="M7.00008 10.9998V9.1665C7.00008 6.12894 9.23866 3.6665 12.0001 3.6665C14.7615 3.6665 17.0001 6.12894 17.0001 9.1665V10.9998M3.66675 16.3332C3.66675 13.9762 3.66675 12.7977 4.39898 12.0654C5.13121 11.3332 6.30972 11.3332 8.66675 11.3332H15.3334C17.6904 11.3332 18.8689 11.3332 19.6012 12.0654C20.3334 12.7977 20.3334 13.9762 20.3334 16.3332C20.3334 18.6902 20.3334 19.8687 19.6012 20.6009C18.8689 21.3332 17.6904 21.3332 15.3334 21.3332H8.66675C6.30972 21.3332 5.13121 21.3332 4.39898 20.6009C3.66675 19.8687 3.66675 18.6902 3.66675 16.3332Z" stroke="white" stroke-width="1.5" stroke-linecap="round"/>
</svg>

