

<svg width="24" height="24" viewBox="0 0 24 24" fill="none" xmlns="http://www.w3.org/2000/svg">
<path d="M6.99996 10.9998V9.1665C6.99996 6.12894 9.23853 3.6665 12 3.6665C14.7614 3.6665 17 6.12894 17 9.1665V10.9998M3.66663 16.3332C3.66663 13.9762 3.66663 12.7977 4.39886 12.0654C5.13109 11.3332 6.3096 11.3332 8.66663 11.3332H15.3333C17.6903 11.3332 18.8688 11.3332 19.601 12.0654C20.3333 12.7977 20.3333 13.9762 20.3333 16.3332C20.3333 18.6902 20.3333 19.8687 19.601 20.6009C18.8688 21.3332 17.6903 21.3332 15.3333 21.3332H8.66663C6.3096 21.3332 5.13109 21.3332 4.39886 20.6009C3.66663 19.8687 3.66663 18.6902 3.66663 16.3332Z" stroke="black" stroke-width="1.5" stroke-linecap="round"/>
</svg>

