
<svg width="22" height="27" viewBox="0 0 22 27" fill="none" xmlns="http://www.w3.org/2000/svg">
<path d="M2.81249 15.7457L3.45084 16.1394L3.45257 16.1366L2.81249 15.7457ZM1.37499 18.0763L0.736642 17.6826L0.736525 17.6828L1.37499 18.0763ZM2.72499 21.6516L2.48969 22.3638L2.49243 22.3647L2.72499 21.6516ZM19.3125 21.6516L19.0822 20.9379L19.0799 20.9386L19.3125 21.6516ZM20.6625 18.0763L21.3014 17.6836L21.3008 17.6826L20.6625 18.0763ZM19.225 15.7457L18.5793 16.1273L18.5829 16.1334L18.5866 16.1394L19.225 15.7457ZM13.3375 2.73794L13.133 3.45952C13.4082 3.53751 13.7038 3.45219 13.8951 3.23955C14.0864 3.0269 14.1401 2.72396 14.0335 2.45853L13.3375 2.73794ZM12.1375 2.49389L12.0466 3.23837L12.0494 3.2387L12.1375 2.49389ZM8.71249 2.73794L8.01648 2.45853C7.9099 2.72401 7.96363 3.02699 8.155 3.23964C8.34636 3.45229 8.64203 3.53755 8.91724 3.45945L8.71249 2.73794ZM11.025 1.63407C6.49041 1.63407 2.77499 5.23536 2.77499 9.7055H4.27499C4.27499 6.09766 7.28456 3.13407 11.025 3.13407V1.63407ZM2.77499 9.7055V13.232H4.27499V9.7055H2.77499ZM2.77499 13.232C2.77499 13.5116 2.71097 13.9088 2.59265 14.3249C2.47446 14.7405 2.31943 15.114 2.17241 15.3548L3.45257 16.1366C3.69305 15.7428 3.89427 15.2316 4.03545 14.7352C4.1765 14.2391 4.27499 13.6967 4.27499 13.232H2.77499ZM2.17414 15.352L0.736642 17.6826L2.01333 18.4701L3.45083 16.1394L2.17414 15.352ZM0.736525 17.6828C0.18315 18.5806 0.0705608 19.5828 0.406553 20.4686C0.741517 21.3517 1.48936 22.0333 2.4897 22.3638L2.96028 20.9395C2.33562 20.7331 1.96471 20.347 1.80905 19.9366C1.65442 19.5289 1.67933 19.0119 2.01345 18.4699L0.736525 17.6828ZM2.49243 22.3647C8.03105 24.1711 14.0064 24.1711 19.545 22.3647L19.0799 20.9386C13.8436 22.6465 8.19392 22.6465 2.95755 20.9386L2.49243 22.3647ZM19.5428 22.3654C21.5057 21.7319 22.3876 19.4508 21.3014 17.6836L20.0235 18.4691C20.5874 19.3864 20.1442 20.5951 19.0822 20.9379L19.5428 22.3654ZM21.3008 17.6826L19.8633 15.352L18.5866 16.1394L20.0241 18.4701L21.3008 17.6826ZM19.8707 15.3641C19.7266 15.1204 19.5735 14.7438 19.4564 14.3272C19.3391 13.9095 19.275 13.5118 19.275 13.232H17.775C17.775 13.6965 17.8734 14.2384 18.0123 14.7329C18.1515 15.2283 18.3484 15.7365 18.5793 16.1273L19.8707 15.3641ZM19.275 13.232V9.7055H17.775V13.232H19.275ZM19.275 9.7055C19.275 5.24757 15.5471 1.63407 11.025 1.63407V3.13407C14.7529 3.13407 17.775 6.10986 17.775 9.7055H19.275ZM13.542 2.01636C13.1225 1.89747 12.6833 1.80324 12.2256 1.74909L12.0494 3.2387C12.4167 3.28216 12.7775 3.35877 13.133 3.45952L13.542 2.01636ZM12.2283 1.74941C10.9351 1.5916 9.68423 1.68257 8.50774 2.01643L8.91724 3.45945C9.89075 3.18319 10.9399 3.10332 12.0466 3.23837L12.2283 1.74941ZM9.4085 3.01735C9.65687 2.39866 10.2813 1.95044 11.025 1.95044V0.450439C9.66866 0.450439 8.49311 1.27126 8.01648 2.45853L9.4085 3.01735ZM11.025 1.95044C11.7687 1.95044 12.3931 2.39866 12.6415 3.01735L14.0335 2.45853C13.5569 1.27126 12.3813 0.450439 11.025 0.450439V1.95044ZM14.025 22.0909C14.025 23.6732 12.6904 25.0016 11.025 25.0016V26.5016C13.4846 26.5016 15.525 24.5355 15.525 22.0909H14.025ZM11.025 25.0016C10.2016 25.0016 9.43802 24.6674 8.89889 24.1411L7.85108 25.2145C8.66195 26.0061 9.79838 26.5016 11.025 26.5016V25.0016ZM8.89889 24.1411C8.36006 23.6151 8.02499 22.878 8.02499 22.0909H6.52499C6.52499 23.305 7.03992 24.4226 7.85108 25.2145L8.89889 24.1411Z" fill="white"/>
</svg>
