
<svg width="22" height="22" viewBox="0 0 22 22" fill="none" xmlns="http://www.w3.org/2000/svg">
<path d="M6.99999 5V4.2C6.99999 2.43 6.99999 1 10.2 1H11.8C15 1 15 2.43 15 4.2V5M13 13.02C13 13.01 13 13.01 13 13V12C13 11 13 11 12 11H9.99999C8.99999 11 8.99999 11 8.99999 12V13.03M13 13.02C13 14.11 12.99 15 11 15C9.01999 15 8.99999 14.12 8.99999 13.03M13 13.02C15.7 12.68 18.34 11.68 20.65 10M8.99999 13.03C6.40999 12.74 3.86999 11.81 1.61999 10.27M6.99999 21H15C19.02 21 19.74 19.39 19.95 17.43L20.7 9.43C20.97 6.99 20.27 5 16 5H5.99999C1.72999 5 1.02999 6.99 1.29999 9.43L2.04999 17.43C2.25999 19.39 2.97999 21 6.99999 21Z" stroke="black" stroke-width="1.5" stroke-miterlimit="10" stroke-linecap="round" stroke-linejoin="round"/>
</svg>

