
<svg width="24" height="24" viewBox="0 0 24 24" fill="none" xmlns="http://www.w3.org/2000/svg">
<path d="M7.99999 6V5.2C7.99999 3.43 7.99999 2 11.2 2H12.8C16 2 16 3.43 16 5.2V6M14 14.02C14 14.01 14 14.01 14 14V13C14 12 14 12 13 12H11C9.99999 12 9.99999 12 9.99999 13V14.03M14 14.02C14 15.11 13.99 16 12 16C10.02 16 9.99999 15.12 9.99999 14.03M14 14.02C16.7 13.68 19.34 12.68 21.65 11M9.99999 14.03C7.40999 13.74 4.86999 12.81 2.61999 11.27M7.99999 22H16C20.02 22 20.74 20.39 20.95 18.43L21.7 10.43C21.97 7.99 21.27 6 17 6H6.99999C2.72999 6 2.02999 7.99 2.29999 10.43L3.04999 18.43C3.25999 20.39 3.97999 22 7.99999 22Z" stroke="#5BA470" stroke-width="1.5" stroke-miterlimit="10" stroke-linecap="round" stroke-linejoin="round"/>
</svg>
