
<svg width="97" height="77" viewBox="0 0 97 77" fill="none" xmlns="http://www.w3.org/2000/svg">
<path d="M12.9718 53.8804C23.7919 65.8584 34.7174 67.3748 50.0748 70.2134C65.4322 73.052 76.7087 71.0903 85.018 63.856C94.612 55.494 94.2329 36.3383 79.5518 29.5176C74.9654 27.3819 69.5038 26.7355 65.486 23.732C57.8132 18.0006 51.6075 9.08266 39.2897 7.408C26.972 5.73334 18.6673 13.7134 18.6673 13.7134C8.5515 24.4122 2.1516 41.8933 12.9718 53.8804Z" fill="#92E3A9"/>
<path opacity="0.7" d="M12.9718 53.8804C23.7919 65.8584 34.7174 67.3748 50.0748 70.2134C65.4322 73.052 76.7087 71.0903 85.018 63.856C94.612 55.494 94.2329 36.3383 79.5518 29.5176C74.9654 27.3819 69.5038 26.7355 65.486 23.732C57.8132 18.0006 51.6075 9.08266 39.2897 7.408C26.972 5.73334 18.6673 13.7134 18.6673 13.7134C8.5515 24.4122 2.1516 41.8933 12.9718 53.8804Z" fill="white"/>
<path d="M95.5223 73.0339H4.26233V76.6499H95.5223V73.0339Z" fill="#92E3A9"/>
<path opacity="0.5" d="M95.5223 73.0339H4.26233V76.6499H95.5223V73.0339Z" fill="white"/>
<path d="M25.7833 34.1416C25.3369 34.2822 24.8987 34.446 24.4706 34.632C24.7046 34.467 24.9386 34.2953 25.1726 34.1213C26.2144 33.312 27.2059 32.4442 28.142 31.5223C27.0436 32.5529 25.8706 33.5067 24.632 34.3766C24.8028 34.0901 24.9529 33.7926 25.0813 33.4862C25.3153 32.9235 25.3574 32.3562 24.8028 32.0556C24.1172 31.685 23.2889 32.2387 23.5065 33.1856C23.6393 33.7143 23.8981 34.2057 24.2623 34.6207C23.454 35.1611 22.6098 35.6496 21.7351 36.0829L21.6532 36.1236C21.8381 35.8143 22.0015 35.4934 22.1423 35.1631C22.3622 34.6026 22.4184 34.0331 21.8615 33.7348C21.1758 33.3619 20.3475 33.9179 20.5674 34.8648C20.698 35.3864 20.951 35.872 21.3069 36.2841C20.2562 36.7835 19.1705 37.2084 18.0894 37.6695L17.9326 37.7373C18.1436 37.5184 18.3398 37.2867 18.5199 37.0434C18.8709 36.5462 19.0605 36.0084 18.5925 35.5903C18.0168 35.075 17.0738 35.4275 17.0598 36.4039C17.0604 36.9427 17.1902 37.4741 17.4389 37.9565C16.4272 38.413 15.466 38.9673 14.57 39.6108L14.5419 39.6334C14.6631 39.4479 14.7741 39.2563 14.8742 39.0594C15.1386 38.5147 15.2369 37.9542 14.7034 37.613C14.595 37.541 14.4711 37.4936 14.341 37.4745C14.2109 37.4554 14.0781 37.4651 13.9524 37.5027C13.8267 37.5403 13.7115 37.605 13.6154 37.6918C13.5194 37.7786 13.4449 37.8853 13.3977 38.0039C13.3273 37.8979 13.2319 37.8096 13.1192 37.7463C12.5834 37.448 12.0569 37.7712 11.6052 38.2277C11.4882 38.3475 11.3712 38.4763 11.2706 38.6028C11.619 37.669 12.0569 36.7686 12.5787 35.9134C13.0756 36.1231 13.6113 36.233 14.1535 36.2366C15.2205 36.2366 15.6698 35.3778 15.1457 34.8445C14.7198 34.4128 14.1207 34.5778 13.5545 34.8942C13.368 34.9992 13.1876 35.1139 13.0139 35.2377C13.5564 34.4486 14.172 33.7088 14.8532 33.0274C15.2995 33.3761 15.8182 33.6281 16.3742 33.7664C17.4108 34.0128 18.0613 33.2873 17.6869 32.6477C17.3827 32.1279 16.7509 32.1483 16.1308 32.3223C15.834 32.4081 15.5432 32.5122 15.2603 32.6342C15.5435 32.3675 15.836 32.1121 16.1331 31.859C16.5216 31.5381 16.9241 31.2285 17.3336 30.9256C17.7738 31.265 18.2834 31.5106 18.8288 31.6466C19.8654 31.8929 20.516 31.1674 20.1416 30.5279C19.8374 30.0081 19.2056 30.0284 18.5831 30.2024C18.438 30.2431 18.2906 30.2928 18.1479 30.3448C18.6884 29.9719 19.236 29.608 19.7859 29.2464L20.2937 28.9097C20.7512 29.2799 21.2884 29.547 21.8661 29.6917C22.9028 29.938 23.5556 29.2125 23.1812 28.573C22.8747 28.0532 22.2452 28.0735 21.6228 28.2475C21.3779 28.3198 21.1368 28.4035 20.8997 28.4984L21.2133 28.2724C21.4052 28.139 21.597 28.0034 21.7842 27.8611C22.0182 27.6916 22.2405 27.504 22.4675 27.3232C22.5986 27.2237 22.7226 27.1175 22.8466 27.009C23.306 27.3832 23.8466 27.6527 24.4284 27.7978C25.4651 28.0441 26.1156 27.3187 25.7412 26.6791C25.437 26.1593 24.8052 26.1796 24.1851 26.3536C23.8373 26.4574 23.4966 26.582 23.1648 26.7265C23.5884 26.3469 23.9979 25.9514 24.3863 25.54C24.4121 25.5107 24.4355 25.4813 24.4635 25.4542C24.6297 25.2756 24.7935 25.0948 24.9526 24.9072C25.1117 24.7197 25.3176 24.4733 25.4908 24.2473C26.2019 23.3459 26.7872 22.3581 27.2318 21.3093C26.7659 22.3456 26.1609 23.3182 25.4323 24.2021C24.7117 25.0897 23.9072 25.9106 23.0291 26.6542L22.9332 26.7333C23.1326 26.4053 23.3093 26.0648 23.462 25.7141C23.6843 25.1536 23.7381 24.5841 23.1812 24.2857C22.4979 23.9128 21.6672 24.4688 21.8872 25.4157C22.0285 25.9765 22.3106 26.495 22.7085 26.9254L22.5026 27.0972L22.2686 27.2915C22.1329 27.3978 21.9925 27.4995 21.8521 27.6012C21.7772 27.6554 21.7047 27.7119 21.6181 27.7661C21.4192 27.9085 21.218 28.0464 21.0144 28.182L20.7219 28.3741L20.3896 28.6001C20.5838 28.2799 20.7543 27.9469 20.8997 27.6034C21.122 27.0407 21.1758 26.4734 20.6213 26.1751C19.9356 25.8022 19.1049 26.3582 19.3249 27.3051C19.4606 27.849 19.7294 28.3536 20.1088 28.7764L19.8748 28.93L18.9645 29.5063L18.7844 29.6193L18.2766 29.947L18.0566 30.0894C17.8226 30.2454 17.5886 30.4036 17.3546 30.5663C17.5426 30.241 17.7068 29.9035 17.846 29.5561C18.08 28.9956 18.1221 28.4261 17.5676 28.1277C16.8819 27.7548 16.0536 28.3108 16.2735 29.2577C16.411 29.809 16.6857 30.3194 17.0738 30.7448C16.676 31.0273 16.2829 31.3166 15.9038 31.6194C15.6254 31.8454 15.3516 32.0714 15.0825 32.3155C15.1997 32.106 15.3044 31.8902 15.396 31.6692C15.616 31.1064 15.6722 30.5392 15.1152 30.2408C14.4296 29.8679 13.6013 30.4239 13.8212 31.3708C13.9518 31.8924 14.2048 32.378 14.5607 32.7901C13.8028 33.5175 13.1202 34.3145 12.5225 35.1699C12.5904 34.9232 12.642 34.6726 12.677 34.4196C12.7518 33.8229 12.6629 33.2625 12.0475 33.0997C11.2893 32.8986 10.6248 33.6308 11.0764 34.5032C11.3362 34.9834 11.7079 35.3989 12.1622 35.7168C11.5727 36.6467 11.0805 37.6309 10.6926 38.6548C10.6825 38.4407 10.6607 38.2272 10.6271 38.0152C10.5218 37.4209 10.2738 36.9078 9.63496 36.9191C8.84872 36.935 8.42518 37.8231 9.11548 38.5328C9.48363 38.9035 9.93295 39.19 10.4306 39.3712C10.1644 40.1617 9.94798 40.967 9.78238 41.7827C9.7543 41.9115 9.73324 42.0403 9.7075 42.1691C9.67942 42.194 9.65134 42.2188 9.6256 42.246C9.59752 42.1352 9.56476 42.02 9.52732 41.9137C9.33076 41.3442 9.00316 40.8719 8.3737 40.9804C7.6015 41.1114 7.32304 42.0471 8.11864 42.6505C8.52298 42.9486 8.98908 43.159 9.4852 43.2675C9.4852 43.2901 9.50392 43.3104 9.51562 43.333C9.42904 43.9455 9.36352 44.5625 9.32374 45.1817C9.29332 45.6337 9.27694 46.106 9.26758 46.5693C8.59834 46.5693 8.12566 47.279 8.58664 48.0474C8.78117 48.366 9.03043 48.6503 9.32374 48.8881C9.3799 49.7582 9.46882 50.6283 9.58816 51.4916C9.49353 51.4071 9.37773 51.3478 9.25217 51.3197C9.12661 51.2916 8.99562 51.2955 8.87212 51.3312C8.45092 51.4419 8.26138 51.7696 8.19352 52.1719C8.04364 52.3217 7.95976 52.5218 7.95952 52.7301C7.64596 52.2781 7.34878 51.8261 7.06096 51.3492C7.50033 51.024 7.86455 50.6137 8.13034 50.1447C8.63344 49.2407 8.06482 48.4474 7.3324 48.6395C6.73336 48.7977 6.60232 49.3853 6.6304 50.0158C6.63976 50.255 6.6632 50.4934 6.7006 50.73L6.39172 50.2057C6.13432 49.7537 5.92372 49.3017 5.671 48.8497C5.61016 48.7389 5.55634 48.6237 5.5072 48.5107C6.00019 48.2708 6.43609 47.9345 6.78718 47.5231C7.45876 46.723 7.05394 45.8439 6.29578 45.9004C5.67802 45.9478 5.43232 46.5015 5.32936 47.1253C5.28924 47.3973 5.26424 47.6711 5.25448 47.9457L5.03452 47.4553C4.56604 46.3427 4.18052 45.1993 3.8809 44.0336C4.43891 43.8427 4.94575 43.5338 5.36446 43.1296C6.1156 42.3951 5.80438 41.4844 5.04388 41.4663C4.42612 41.4527 4.12426 41.9793 3.95578 42.5963C3.87321 42.9238 3.81147 43.2559 3.77092 43.5907C3.60712 42.9217 3.46672 42.2437 3.34972 41.5567C3.27016 41.1363 3.21868 40.7092 3.16486 40.2843C3.76464 40.1695 4.32955 39.9245 4.8169 39.5679C5.6593 38.9351 5.47444 37.9859 4.72096 37.8796C4.11022 37.787 3.7405 38.2729 3.49246 38.8582C3.34724 39.2274 3.22534 39.6048 3.12742 39.9882C3.08062 39.4955 3.0268 39.0006 3.0034 38.5057C2.93321 37.4838 2.93321 36.4585 3.0034 35.4366C2.89658 36.4577 2.85984 37.4844 2.89342 38.5102C2.89342 38.9825 2.93554 39.4526 2.96596 39.9249C2.83228 39.6038 2.67592 39.292 2.49796 38.9916C2.17972 38.474 1.75384 38.0876 1.16416 38.3136C0.436423 38.6028 0.373243 39.5746 1.28584 39.9995C1.8211 40.237 2.40824 40.3448 2.99638 40.3137C3.0385 40.7363 3.07594 41.1566 3.14146 41.5747C3.23272 42.2527 3.34972 42.9036 3.48778 43.5613C3.33804 43.3093 3.17155 43.067 2.98936 42.8358C2.60326 42.3635 2.13058 42.029 1.58536 42.3341C0.904423 42.7115 0.969944 43.6901 1.93168 43.9907C2.47589 44.154 3.05229 44.1912 3.61414 44.0992C3.88112 45.2776 4.23217 46.4367 4.6648 47.5683L4.80286 47.9073C4.67906 47.7489 4.54543 47.598 4.40272 47.4553C3.96982 47.0213 3.46672 46.7343 2.9449 47.0937C2.30608 47.5457 2.4769 48.4949 3.4597 48.7073C4.0021 48.8134 4.56246 48.7979 5.0977 48.6621C5.14684 48.7774 5.19598 48.8881 5.25448 49.0056C5.48848 49.4712 5.69674 49.948 5.94244 50.4046L6.14602 50.8001C6.02434 50.6984 5.89798 50.6012 5.76694 50.5108C5.25682 50.165 4.70458 49.9752 4.26466 50.4204C3.72178 50.9696 4.07278 51.8826 5.08366 51.912C5.60994 51.9238 6.13245 51.8235 6.61402 51.6182C6.90418 52.1244 7.20136 52.6239 7.52428 53.1143C7.64362 53.3019 7.75828 53.4872 7.894 53.6725C7.71043 53.5104 7.51662 53.3595 7.31368 53.2205C6.80356 52.8747 6.25132 52.6849 5.80906 53.1301C5.26852 53.6793 5.61952 54.5923 6.6304 54.6217C7.20817 54.6284 7.77929 54.5022 8.29648 54.2533C8.46496 54.4793 8.63812 54.7053 8.81596 54.9313C8.43922 55.354 8.56324 56.0613 9.32842 56.3845C9.70006 56.5341 10.0962 56.6191 10.4984 56.6354C10.5452 56.6715 10.592 56.7077 10.6435 56.7416L10.6669 56.7597C11.1505 58.5044 11.7238 60.2235 12.3868 61.917C12.6676 62.6379 12.9695 63.3521 13.2807 64.0617H10.4727V74.7561H19.0535V64.0527H14.4858C14.095 63.2278 13.7183 62.3939 13.3673 61.5509C12.794 60.1678 12.2745 58.7621 11.8229 57.336C11.8997 57.3578 11.9779 57.3752 12.0569 57.388C12.1608 57.4083 12.2674 57.4129 12.3728 57.4015L12.2511 56.658H12.1692C12.1204 56.6513 12.072 56.6423 12.0241 56.6309C11.916 56.6009 11.8104 56.5632 11.7082 56.5179L11.5865 56.4636C12.0381 56.3116 12.4575 56.0819 12.8244 55.7856C13.6364 55.1076 13.407 54.181 12.6489 54.1019C12.0358 54.0364 11.6895 54.5381 11.4789 55.1325C11.4157 55.302 11.3642 55.4783 11.3198 55.65C11.2753 55.4918 11.2308 55.3336 11.1887 55.1754C11.0647 54.7076 10.9547 54.2353 10.8424 53.7629C11.3325 53.6153 11.788 53.3765 12.1832 53.0601C12.9952 52.3821 12.7635 51.4577 12.0077 51.3786C11.3923 51.3131 11.0483 51.8148 10.8377 52.4092C10.7745 52.5809 10.7207 52.7595 10.6739 52.9358C10.6037 52.5922 10.5359 52.2465 10.4727 51.9007C10.4282 51.6453 10.3861 51.3877 10.3463 51.13C10.3323 50.7639 10.3253 50.3978 10.3299 50.0294C10.3299 49.8283 10.3299 49.6271 10.3487 49.426C10.8074 49.566 11.2886 49.6249 11.769 49.6C12.8361 49.5322 13.2292 48.6508 12.6723 48.1513C12.2183 47.7423 11.631 47.9457 11.0858 48.2937C10.8413 48.4542 10.6069 48.6285 10.3838 48.8158C10.4495 47.9556 10.5848 47.1017 10.7886 46.262C10.908 45.7673 11.0572 45.2799 11.2355 44.802C11.7248 44.9649 12.2421 45.0348 12.7589 45.0077C13.8259 44.9421 14.219 44.0607 13.6621 43.559C13.2105 43.1522 12.6208 43.3534 12.0756 43.7037C11.8853 43.83 11.7025 43.9666 11.528 44.1127C11.7338 43.6452 11.973 43.1921 12.2441 42.7567C12.7815 41.8783 13.4555 41.0848 14.2424 40.4041C14.6502 40.7674 15.1325 41.0438 15.6581 41.2154C16.6737 41.5363 17.378 40.8583 17.0621 40.1939C16.7977 39.6537 16.1753 39.6289 15.5341 39.7577C15.287 39.8087 15.0432 39.8736 14.804 39.9521L14.8204 39.9385C15.6936 39.2805 16.6345 38.711 17.6284 38.239C17.9791 38.6824 18.4244 39.0477 18.9341 39.3102C19.8842 39.7826 20.6915 39.2221 20.4809 38.517C20.31 37.9429 19.6993 37.8231 19.0464 37.839C18.79 37.8524 18.5346 37.8796 18.2813 37.9203C19.3366 37.4389 20.413 36.9847 21.452 36.4536H21.4754C21.9405 36.8414 22.4923 37.1199 23.0876 37.2672C24.1242 37.5158 24.7748 36.7881 24.4004 36.1372C24.0962 35.6174 23.4644 35.64 22.8443 35.8117C22.6688 35.8615 22.4933 35.9225 22.3224 35.9858C23.0163 35.5963 23.6888 35.1723 24.3372 34.7156L24.391 34.7721V34.7428C24.8608 35.1341 25.4171 35.4162 26.0173 35.5677C27.0516 35.814 27.7044 35.0885 27.33 34.4377C27.0352 33.9472 26.4128 33.9676 25.7833 34.1416ZM9.42202 54.6195C9.20908 54.3799 9.00784 54.129 8.81128 53.8759C8.85808 53.8352 8.90956 53.7901 8.96104 53.7403C9.25345 53.8283 9.55609 53.8807 9.86194 53.8963V53.9437L10.0047 53.9143C10.0796 54.2714 10.1568 54.6262 10.2387 54.9811C10.1436 54.8609 10.0194 54.765 9.87701 54.702C9.73463 54.6389 9.57839 54.6106 9.42202 54.6195ZM10.1849 46.1106C10.1123 46.3772 10.0515 46.6439 9.99298 46.9129L9.95788 46.8654C9.95788 46.314 9.96646 45.764 9.98362 45.2156C10 44.8314 10.0281 44.4495 10.0632 44.0653C10.2557 44.2547 10.4674 44.425 10.695 44.5738C10.4969 45.0767 10.3274 45.5898 10.1872 46.1106H10.1849ZM11.1443 43.5794C11.1583 43.4799 11.17 43.3782 11.1747 43.2788V43.1274C11.2589 43.1025 11.3455 43.0731 11.4297 43.0392C11.3361 43.2178 11.2379 43.3986 11.1466 43.5794H11.1443ZM12.3634 41.6697C12.323 41.5803 12.2642 41.4997 12.1906 41.4329C12.117 41.3661 12.0301 41.3144 11.9352 41.2809C11.3572 41.0549 10.8892 41.4618 10.5171 41.9816L10.4984 42.0064H10.461C10.4217 41.9978 10.3818 41.9925 10.3416 41.9906C10.3389 41.9589 10.3445 41.927 10.358 41.8979C10.5062 41.0815 10.7062 40.2747 10.9571 39.482C11.4942 39.5478 12.0397 39.5071 12.56 39.3622C12.8814 39.2807 13.161 39.0886 13.3462 38.8221C13.4492 39.2777 13.6457 39.7089 13.9242 40.0899C13.3485 40.5628 12.8261 41.0931 12.3657 41.6719L12.3634 41.6697Z" fill="#92E3A9"/>
<path opacity="0.3" d="M25.7833 34.1416C25.3369 34.2822 24.8987 34.446 24.4706 34.632C24.7046 34.467 24.9386 34.2953 25.1726 34.1213C26.2144 33.312 27.2059 32.4442 28.142 31.5223C27.0436 32.5529 25.8706 33.5067 24.632 34.3766C24.8028 34.0901 24.9529 33.7926 25.0813 33.4862C25.3153 32.9235 25.3574 32.3562 24.8028 32.0556C24.1172 31.685 23.2889 32.2387 23.5065 33.1856C23.6393 33.7143 23.8981 34.2057 24.2623 34.6207C23.454 35.1611 22.6098 35.6496 21.7351 36.0829L21.6532 36.1236C21.8381 35.8143 22.0015 35.4934 22.1423 35.1631C22.3622 34.6026 22.4184 34.0331 21.8615 33.7348C21.1758 33.3619 20.3475 33.9179 20.5674 34.8648C20.698 35.3864 20.951 35.872 21.3069 36.2841C20.2562 36.7835 19.1705 37.2084 18.0894 37.6695L17.9326 37.7373C18.1436 37.5184 18.3398 37.2867 18.5199 37.0434C18.8709 36.5462 19.0605 36.0084 18.5925 35.5903C18.0168 35.075 17.0738 35.4275 17.0598 36.4039C17.0604 36.9427 17.1902 37.4741 17.4389 37.9565C16.4272 38.413 15.466 38.9673 14.57 39.6108L14.5419 39.6334C14.6631 39.4479 14.7741 39.2563 14.8742 39.0594C15.1386 38.5147 15.2369 37.9542 14.7034 37.613C14.595 37.541 14.4711 37.4936 14.341 37.4745C14.2109 37.4554 14.0781 37.4651 13.9524 37.5027C13.8267 37.5403 13.7115 37.605 13.6154 37.6918C13.5194 37.7786 13.4449 37.8853 13.3977 38.0039C13.3273 37.8979 13.2319 37.8096 13.1192 37.7463C12.5834 37.448 12.0569 37.7712 11.6052 38.2277C11.4882 38.3475 11.3712 38.4763 11.2706 38.6028C11.619 37.669 12.0569 36.7686 12.5787 35.9134C13.0756 36.1231 13.6113 36.233 14.1535 36.2366C15.2205 36.2366 15.6698 35.3778 15.1457 34.8445C14.7198 34.4128 14.1207 34.5778 13.5545 34.8942C13.368 34.9992 13.1876 35.1139 13.0139 35.2377C13.5564 34.4486 14.172 33.7088 14.8532 33.0274C15.2995 33.3761 15.8182 33.6281 16.3742 33.7664C17.4108 34.0128 18.0613 33.2873 17.6869 32.6477C17.3827 32.1279 16.7509 32.1483 16.1308 32.3223C15.834 32.4081 15.5432 32.5122 15.2603 32.6342C15.5435 32.3675 15.836 32.1121 16.1331 31.859C16.5216 31.5381 16.9241 31.2285 17.3336 30.9256C17.7738 31.265 18.2834 31.5106 18.8288 31.6466C19.8654 31.8929 20.516 31.1674 20.1416 30.5279C19.8374 30.0081 19.2056 30.0284 18.5831 30.2024C18.438 30.2431 18.2906 30.2928 18.1479 30.3448C18.6884 29.9719 19.236 29.608 19.7859 29.2464L20.2937 28.9097C20.7512 29.2799 21.2884 29.547 21.8661 29.6917C22.9028 29.938 23.5556 29.2125 23.1812 28.573C22.8747 28.0532 22.2452 28.0735 21.6228 28.2475C21.3779 28.3198 21.1368 28.4035 20.8997 28.4984L21.2133 28.2724C21.4052 28.139 21.597 28.0034 21.7842 27.8611C22.0182 27.6916 22.2405 27.504 22.4675 27.3232C22.5986 27.2237 22.7226 27.1175 22.8466 27.009C23.306 27.3832 23.8466 27.6527 24.4284 27.7978C25.4651 28.0441 26.1156 27.3187 25.7412 26.6791C25.437 26.1593 24.8052 26.1796 24.1851 26.3536C23.8373 26.4574 23.4966 26.582 23.1648 26.7265C23.5884 26.3469 23.9979 25.9514 24.3863 25.54C24.4121 25.5107 24.4355 25.4813 24.4635 25.4542C24.6297 25.2756 24.7935 25.0948 24.9526 24.9072C25.1117 24.7197 25.3176 24.4733 25.4908 24.2473C26.2019 23.3459 26.7872 22.3581 27.2318 21.3093C26.7659 22.3456 26.1609 23.3182 25.4323 24.2021C24.7117 25.0897 23.9072 25.9106 23.0291 26.6542L22.9332 26.7333C23.1326 26.4053 23.3093 26.0648 23.462 25.7141C23.6843 25.1536 23.7381 24.5841 23.1812 24.2857C22.4979 23.9128 21.6672 24.4688 21.8872 25.4157C22.0285 25.9765 22.3106 26.495 22.7085 26.9254L22.5026 27.0972L22.2686 27.2915C22.1329 27.3978 21.9925 27.4995 21.8521 27.6012C21.7772 27.6554 21.7047 27.7119 21.6181 27.7661C21.4192 27.9085 21.218 28.0464 21.0144 28.182L20.7219 28.3741L20.3896 28.6001C20.5838 28.2799 20.7543 27.9469 20.8997 27.6034C21.122 27.0407 21.1758 26.4734 20.6213 26.1751C19.9356 25.8022 19.1049 26.3582 19.3249 27.3051C19.4606 27.849 19.7294 28.3536 20.1088 28.7764L19.8748 28.93L18.9645 29.5063L18.7844 29.6193L18.2766 29.947L18.0566 30.0894C17.8226 30.2454 17.5886 30.4036 17.3546 30.5663C17.5426 30.241 17.7068 29.9035 17.846 29.5561C18.08 28.9956 18.1221 28.4261 17.5676 28.1277C16.8819 27.7548 16.0536 28.3108 16.2735 29.2577C16.411 29.809 16.6857 30.3194 17.0738 30.7448C16.676 31.0273 16.2829 31.3166 15.9038 31.6194C15.6254 31.8454 15.3516 32.0714 15.0825 32.3155C15.1997 32.106 15.3044 31.8902 15.396 31.6692C15.616 31.1064 15.6722 30.5392 15.1152 30.2408C14.4296 29.8679 13.6013 30.4239 13.8212 31.3708C13.9518 31.8924 14.2048 32.378 14.5607 32.7901C13.8028 33.5175 13.1202 34.3145 12.5225 35.1699C12.5904 34.9232 12.642 34.6726 12.677 34.4196C12.7518 33.8229 12.6629 33.2625 12.0475 33.0997C11.2893 32.8986 10.6248 33.6308 11.0764 34.5032C11.3362 34.9834 11.7079 35.3989 12.1622 35.7168C11.5727 36.6467 11.0805 37.6309 10.6926 38.6548C10.6825 38.4407 10.6607 38.2272 10.6271 38.0152C10.5218 37.4209 10.2738 36.9078 9.63496 36.9191C8.84872 36.935 8.42518 37.8231 9.11548 38.5328C9.48363 38.9035 9.93295 39.19 10.4306 39.3712C10.1644 40.1617 9.94798 40.967 9.78238 41.7827C9.7543 41.9115 9.73324 42.0403 9.7075 42.1691C9.67942 42.194 9.65134 42.2188 9.6256 42.246C9.59752 42.1352 9.56476 42.02 9.52732 41.9137C9.33076 41.3442 9.00316 40.8719 8.3737 40.9804C7.6015 41.1114 7.32304 42.0471 8.11864 42.6505C8.52298 42.9486 8.98908 43.159 9.4852 43.2675C9.4852 43.2901 9.50392 43.3104 9.51562 43.333C9.42904 43.9455 9.36352 44.5625 9.32374 45.1817C9.29332 45.6337 9.27694 46.106 9.26758 46.5693C8.59834 46.5693 8.12566 47.279 8.58664 48.0474C8.78117 48.366 9.03043 48.6503 9.32374 48.8881C9.3799 49.7582 9.46882 50.6283 9.58816 51.4916C9.49353 51.4071 9.37773 51.3478 9.25217 51.3197C9.12661 51.2916 8.99562 51.2955 8.87212 51.3312C8.45092 51.4419 8.26138 51.7696 8.19352 52.1719C8.04364 52.3217 7.95976 52.5218 7.95952 52.7301C7.64596 52.2781 7.34878 51.8261 7.06096 51.3492C7.50033 51.024 7.86455 50.6137 8.13034 50.1447C8.63344 49.2407 8.06482 48.4474 7.3324 48.6395C6.73336 48.7977 6.60232 49.3853 6.6304 50.0158C6.63976 50.255 6.6632 50.4934 6.7006 50.73L6.39172 50.2057C6.13432 49.7537 5.92372 49.3017 5.671 48.8497C5.61016 48.7389 5.55634 48.6237 5.5072 48.5107C6.00019 48.2708 6.43609 47.9345 6.78718 47.5231C7.45876 46.723 7.05394 45.8439 6.29578 45.9004C5.67802 45.9478 5.43232 46.5015 5.32936 47.1253C5.28924 47.3973 5.26424 47.6711 5.25448 47.9457L5.03452 47.4553C4.56604 46.3427 4.18052 45.1993 3.8809 44.0336C4.43891 43.8427 4.94575 43.5338 5.36446 43.1296C6.1156 42.3951 5.80438 41.4844 5.04388 41.4663C4.42612 41.4527 4.12426 41.9793 3.95578 42.5963C3.87321 42.9238 3.81147 43.2559 3.77092 43.5907C3.60712 42.9217 3.46672 42.2437 3.34972 41.5567C3.27016 41.1363 3.21868 40.7092 3.16486 40.2843C3.76464 40.1695 4.32955 39.9245 4.8169 39.5679C5.6593 38.9351 5.47444 37.9859 4.72096 37.8796C4.11022 37.787 3.7405 38.2729 3.49246 38.8582C3.34724 39.2274 3.22534 39.6048 3.12742 39.9882C3.08062 39.4955 3.0268 39.0006 3.0034 38.5057C2.93321 37.4838 2.93321 36.4585 3.0034 35.4366C2.89658 36.4577 2.85984 37.4844 2.89342 38.5102C2.89342 38.9825 2.93554 39.4526 2.96596 39.9249C2.83228 39.6038 2.67592 39.292 2.49796 38.9916C2.17972 38.474 1.75384 38.0876 1.16416 38.3136C0.436423 38.6028 0.373243 39.5746 1.28584 39.9995C1.8211 40.237 2.40824 40.3448 2.99638 40.3137C3.0385 40.7363 3.07594 41.1566 3.14146 41.5747C3.23272 42.2527 3.34972 42.9036 3.48778 43.5613C3.33804 43.3093 3.17155 43.067 2.98936 42.8358C2.60326 42.3635 2.13058 42.029 1.58536 42.3341C0.904423 42.7115 0.969944 43.6901 1.93168 43.9907C2.47589 44.154 3.05229 44.1912 3.61414 44.0992C3.88112 45.2776 4.23217 46.4367 4.6648 47.5683L4.80286 47.9073C4.67906 47.7489 4.54543 47.598 4.40272 47.4553C3.96982 47.0213 3.46672 46.7343 2.9449 47.0937C2.30608 47.5457 2.4769 48.4949 3.4597 48.7073C4.0021 48.8134 4.56246 48.7979 5.0977 48.6621C5.14684 48.7774 5.19598 48.8881 5.25448 49.0056C5.48848 49.4712 5.69674 49.948 5.94244 50.4046L6.14602 50.8001C6.02434 50.6984 5.89798 50.6012 5.76694 50.5108C5.25682 50.165 4.70458 49.9752 4.26466 50.4204C3.72178 50.9696 4.07278 51.8826 5.08366 51.912C5.60994 51.9238 6.13245 51.8235 6.61402 51.6182C6.90418 52.1244 7.20136 52.6239 7.52428 53.1143C7.64362 53.3019 7.75828 53.4872 7.894 53.6725C7.71043 53.5104 7.51662 53.3595 7.31368 53.2205C6.80356 52.8747 6.25132 52.6849 5.80906 53.1301C5.26852 53.6793 5.61952 54.5923 6.6304 54.6217C7.20817 54.6284 7.77929 54.5022 8.29648 54.2533C8.46496 54.4793 8.63812 54.7053 8.81596 54.9313C8.43922 55.354 8.56324 56.0613 9.32842 56.3845C9.70006 56.5341 10.0962 56.6191 10.4984 56.6354C10.5452 56.6715 10.592 56.7077 10.6435 56.7416L10.6669 56.7597C11.1505 58.5044 11.7238 60.2235 12.3868 61.917C12.6676 62.6379 12.9695 63.3521 13.2807 64.0617H10.4727V74.7561H19.0535V64.0527H14.4858C14.095 63.2278 13.7183 62.3939 13.3673 61.5509C12.794 60.1678 12.2745 58.7621 11.8229 57.336C11.8997 57.3578 11.9779 57.3752 12.0569 57.388C12.1608 57.4083 12.2674 57.4129 12.3728 57.4015L12.2511 56.658H12.1692C12.1204 56.6513 12.072 56.6423 12.0241 56.6309C11.916 56.6009 11.8104 56.5632 11.7082 56.5179L11.5865 56.4636C12.0381 56.3116 12.4575 56.0819 12.8244 55.7856C13.6364 55.1076 13.407 54.181 12.6489 54.1019C12.0358 54.0364 11.6895 54.5381 11.4789 55.1325C11.4157 55.302 11.3642 55.4783 11.3198 55.65C11.2753 55.4918 11.2308 55.3336 11.1887 55.1754C11.0647 54.7076 10.9547 54.2353 10.8424 53.7629C11.3325 53.6153 11.788 53.3765 12.1832 53.0601C12.9952 52.3821 12.7635 51.4577 12.0077 51.3786C11.3923 51.3131 11.0483 51.8148 10.8377 52.4092C10.7745 52.5809 10.7207 52.7595 10.6739 52.9358C10.6037 52.5922 10.5359 52.2465 10.4727 51.9007C10.4282 51.6453 10.3861 51.3877 10.3463 51.13C10.3323 50.7639 10.3253 50.3978 10.3299 50.0294C10.3299 49.8283 10.3299 49.6271 10.3487 49.426C10.8074 49.566 11.2886 49.6249 11.769 49.6C12.8361 49.5322 13.2292 48.6508 12.6723 48.1513C12.2183 47.7423 11.631 47.9457 11.0858 48.2937C10.8413 48.4542 10.6069 48.6285 10.3838 48.8158C10.4495 47.9556 10.5848 47.1017 10.7886 46.262C10.908 45.7673 11.0572 45.2799 11.2355 44.802C11.7248 44.9649 12.2421 45.0348 12.7589 45.0077C13.8259 44.9421 14.219 44.0607 13.6621 43.559C13.2105 43.1522 12.6208 43.3534 12.0756 43.7037C11.8853 43.83 11.7025 43.9666 11.528 44.1127C11.7338 43.6452 11.973 43.1921 12.2441 42.7567C12.7815 41.8783 13.4555 41.0848 14.2424 40.4041C14.6502 40.7674 15.1325 41.0438 15.6581 41.2154C16.6737 41.5363 17.378 40.8583 17.0621 40.1939C16.7977 39.6537 16.1753 39.6289 15.5341 39.7577C15.287 39.8087 15.0432 39.8736 14.804 39.9521L14.8204 39.9385C15.6936 39.2805 16.6345 38.711 17.6284 38.239C17.9791 38.6824 18.4244 39.0477 18.9341 39.3102C19.8842 39.7826 20.6915 39.2221 20.4809 38.517C20.31 37.9429 19.6993 37.8231 19.0464 37.839C18.79 37.8524 18.5346 37.8796 18.2813 37.9203C19.3366 37.4389 20.413 36.9847 21.452 36.4536H21.4754C21.9405 36.8414 22.4923 37.1199 23.0876 37.2672C24.1242 37.5158 24.7748 36.7881 24.4004 36.1372C24.0962 35.6174 23.4644 35.64 22.8443 35.8117C22.6688 35.8615 22.4933 35.9225 22.3224 35.9858C23.0163 35.5963 23.6888 35.1723 24.3372 34.7156L24.391 34.7721V34.7428C24.8608 35.1341 25.4171 35.4162 26.0173 35.5677C27.0516 35.814 27.7044 35.0885 27.33 34.4377C27.0352 33.9472 26.4128 33.9676 25.7833 34.1416ZM9.42202 54.6195C9.20908 54.3799 9.00784 54.129 8.81128 53.8759C8.85808 53.8352 8.90956 53.7901 8.96104 53.7403C9.25345 53.8283 9.55609 53.8807 9.86194 53.8963V53.9437L10.0047 53.9143C10.0796 54.2714 10.1568 54.6262 10.2387 54.9811C10.1436 54.8609 10.0194 54.765 9.87701 54.702C9.73463 54.6389 9.57839 54.6106 9.42202 54.6195ZM10.1849 46.1106C10.1123 46.3772 10.0515 46.6439 9.99298 46.9129L9.95788 46.8654C9.95788 46.314 9.96646 45.764 9.98362 45.2156C10 44.8314 10.0281 44.4495 10.0632 44.0653C10.2557 44.2547 10.4674 44.425 10.695 44.5738C10.4969 45.0767 10.3274 45.5898 10.1872 46.1106H10.1849ZM11.1443 43.5794C11.1583 43.4799 11.17 43.3782 11.1747 43.2788V43.1274C11.2589 43.1025 11.3455 43.0731 11.4297 43.0392C11.3361 43.2178 11.2379 43.3986 11.1466 43.5794H11.1443ZM12.3634 41.6697C12.323 41.5803 12.2642 41.4997 12.1906 41.4329C12.117 41.3661 12.0301 41.3144 11.9352 41.2809C11.3572 41.0549 10.8892 41.4618 10.5171 41.9816L10.4984 42.0064H10.461C10.4217 41.9978 10.3818 41.9925 10.3416 41.9906C10.3389 41.9589 10.3445 41.927 10.358 41.8979C10.5062 41.0815 10.7062 40.2747 10.9571 39.482C11.4942 39.5478 12.0397 39.5071 12.56 39.3622C12.8814 39.2807 13.161 39.0886 13.3462 38.8221C13.4492 39.2777 13.6457 39.7089 13.9242 40.0899C13.3485 40.5628 12.8261 41.0931 12.3657 41.6719L12.3634 41.6697Z" fill="white"/>
<path d="M83.4807 64.8957C83.4807 64.8957 82.3481 62.4527 82.0767 62.2018C81.8053 61.9509 79.6361 61.1916 79.0347 59.2638C78.4333 57.336 77.2914 52.19 80.1696 52.5267C83.0478 52.8635 82.3481 58.2536 83.3941 58.0841C84.4401 57.9146 82.5236 49.3288 84.3535 48.1401C86.1834 46.9513 89.1482 48.0565 88.7995 52.6036C88.4509 57.1507 87.7535 59.7587 88.3643 59.5079C88.975 59.257 90.7183 58.3282 90.7183 60.265C90.7183 62.2018 89.0616 63.5488 88.1022 63.6324C87.1428 63.716 86.6982 63.8019 86.6982 63.8019V65.0629L83.4807 64.8957Z" fill="#2E353A" stroke="#2E353A" stroke-width="0.5" stroke-linecap="round" stroke-linejoin="round"/>
<path d="M82.5587 60.1609C81.9012 59.5598 81.2975 58.9767 81.019 58.441C80.4668 57.3721 80.0502 54.373 80.0502 54.373" stroke="white" stroke-width="0.5" stroke-linecap="round" stroke-linejoin="round"/>
<path d="M79.0698 55.8376C79.505 57.5891 79.5658 58.909 80.8809 60.4458C81.5829 61.2775 83.4409 61.9826 83.6491 62.7171C83.8355 63.6009 83.9753 64.4932 84.068 65.3907L85.107 65.4585C85.107 65.4585 85.3176 63.7183 84.7232 62.4775" stroke="white" stroke-width="0.5" stroke-linecap="round" stroke-linejoin="round"/>
<path d="M79.3599 53.0283C79.3599 53.0283 78.583 53.6046 78.8592 55.0239" stroke="white" stroke-width="0.5" stroke-linecap="round" stroke-linejoin="round"/>
<path d="M84.3371 58.197L83.9253 58.8411" stroke="white" stroke-width="0.5" stroke-linecap="round" stroke-linejoin="round"/>
<path d="M84.4798 57.9734L84.3371 58.1971" stroke="white" stroke-width="0.5" stroke-linecap="round" stroke-linejoin="round"/>
<path d="M85.8628 48.3503C85.8628 48.3503 84.2716 48.2848 84.2716 49.7538C84.2716 50.9945 84.6647 55.2297 84.5805 57.1666" stroke="white" stroke-width="0.5" stroke-linecap="round" stroke-linejoin="round"/>
<path d="M87.1101 60.3846C87.0726 60.8886 87.0492 61.2457 87.0492 61.3813C87.0492 62.1158 88.9844 59.3089 89.8853 59.2433C89.8853 59.2433 90.7839 59.1755 90.4375 60.7801C90.3116 61.3758 90.0196 61.9269 89.5933 62.3742C89.1669 62.8214 88.6222 63.1478 88.018 63.3181C87.2551 63.5193 86.6327 63.1848 86.4946 63.5193C86.3844 63.9124 86.3147 64.3152 86.2864 64.7216" stroke="white" stroke-width="0.5" stroke-linecap="round" stroke-linejoin="round"/>
<path d="M87.5616 49.7446C87.6819 50.2293 87.7385 50.7266 87.7301 51.2249C87.7301 52.7889 87.4213 56.4772 87.2153 58.9677" stroke="white" stroke-width="0.5" stroke-linecap="round" stroke-linejoin="round"/>
<path d="M86.7614 48.4858C86.9692 48.6008 87.1376 48.7721 87.2457 48.9785" stroke="white" stroke-width="0.5" stroke-linecap="round" stroke-linejoin="round"/>
<path d="M85.635 59.978L85.5867 60.9137" stroke="white" stroke-width="0.5" stroke-linecap="round" stroke-linejoin="round"/>
<path d="M86.0008 49.2859C86.0008 49.2859 85.5867 49.4192 85.7247 50.8227C85.8394 51.9821 85.7247 57.2456 85.6709 59.0423" stroke="white" stroke-width="0.5" stroke-linecap="round" stroke-linejoin="round"/>
<path d="M90.3603 59.6436C89.7668 60.7161 88.8163 61.5641 87.6623 62.0505C85.7903 62.785 85.7247 62.4505 85.7247 63.1805C85.7247 63.9104 85.6545 65.2529 85.6545 65.2529" stroke="white" stroke-width="0.5" stroke-linecap="round" stroke-linejoin="round"/>
<path d="M87.7652 74.7492H81.7186L80.4246 66.29H89.0592L87.7652 74.7492Z" fill="#92E3A9" stroke="#2E353A" stroke-linecap="round" stroke-linejoin="round"/>
<path d="M89.801 64.9568H79.6829V67.2213H89.801V64.9568Z" fill="#92E3A9" stroke="#2E353A" stroke-linecap="round" stroke-linejoin="round"/>
<path d="M56.8597 73.7613L56.2469 73.0157C55.3212 71.887 54.8175 70.4912 54.8153 69.0539V64.4619C54.8153 64.3238 54.7034 64.2119 54.5653 64.2119H40.5627C40.4247 64.2119 40.3127 64.3238 40.3127 64.4619V69.054C40.3105 70.4912 39.8069 71.8868 38.8814 73.0155C38.8814 73.0155 38.8814 73.0155 38.8814 73.0155C38.8813 73.0156 38.8813 73.0156 38.8812 73.0157L38.2683 73.7613C38.2069 73.836 38.1941 73.9394 38.2354 74.0268C38.2767 74.1142 38.3647 74.17 38.4614 74.17H56.6666C56.7633 74.17 56.8514 74.1142 56.8927 74.0268C56.934 73.9394 56.9212 73.836 56.8597 73.7613Z" fill="white" stroke="#2E353A" stroke-width="0.5" stroke-linecap="round" stroke-linejoin="round"/>
<path d="M39.7016 72.2702H55.4264C54.8619 71.286 54.5656 70.1794 54.5653 69.0542V64.4619H40.5627V69.0542C40.5624 70.1794 40.2661 71.286 39.7016 72.2702Z" fill="#92E3A9"/>
<path d="M73.7182 24.8923H21.4075C20.1818 24.8923 19.1732 25.8542 19.1732 27.0588V63.994C19.1732 65.1986 20.1818 66.1605 21.4075 66.1605H73.7182C74.9439 66.1605 75.9525 65.1986 75.9525 63.994V27.0588C75.9525 25.8542 74.9439 24.8923 73.7182 24.8923Z" fill="#2E353A" stroke="#2E353A" stroke-width="0.5" stroke-linecap="round" stroke-linejoin="round"/>
<path d="M19.4232 59.3235C19.2851 59.3235 19.1732 59.4354 19.1732 59.5735C19.1732 59.5851 19.174 59.5966 19.1755 59.6078V63.9918C19.1755 64.5692 19.4131 65.1212 19.833 65.5268C20.2526 65.9321 20.82 66.1583 21.4098 66.1583H73.7205C74.3103 66.1583 74.8777 65.9321 75.2973 65.5268C75.7173 65.1212 75.9548 64.5692 75.9548 63.9918V59.5735C75.9548 59.4354 75.8429 59.3235 75.7048 59.3235H19.4255H19.4232Z" fill="white" stroke="#2E353A" stroke-width="0.5" stroke-linecap="round" stroke-linejoin="round"/>
<path d="M73.1235 27.6804C73.1235 27.5423 73.0115 27.4304 72.8735 27.4304H22.2546C22.1165 27.4304 22.0046 27.5423 22.0046 27.6804V56.4819C22.0046 56.6199 22.1165 56.7319 22.2546 56.7319H72.8735C73.0115 56.7319 73.1235 56.6199 73.1235 56.4819V27.6804Z" fill="white" stroke="#2E353A" stroke-width="0.5" stroke-linecap="round" stroke-linejoin="round"/>
<path d="M48.8529 62.742C48.8529 62.4921 48.7762 62.2486 48.6334 62.0422C48.4908 61.836 48.2889 61.6766 48.0544 61.5828C47.82 61.489 47.5625 61.4646 47.3141 61.5123C47.0657 61.56 46.8364 61.678 46.6557 61.8526C46.4748 62.0273 46.3505 62.2509 46.3001 62.4958C46.2497 62.7407 46.2757 62.9944 46.3744 63.2245C46.473 63.4545 46.6394 63.6497 46.8512 63.7864C47.0629 63.923 47.311 63.9954 47.564 63.9954C47.9031 63.9954 48.23 63.8654 48.4723 63.6313C48.715 63.397 48.8529 63.0773 48.8529 62.742Z" fill="#2E353A" stroke="#2E353A" stroke-width="0.5" stroke-linecap="round" stroke-linejoin="round"/>
<path d="M56.919 73.929C56.919 73.7909 56.807 73.679 56.669 73.679H38.4614C38.3234 73.679 38.2114 73.7909 38.2114 73.929V74.7493C38.2114 74.8874 38.3234 74.9993 38.4614 74.9993H56.669C56.807 74.9993 56.919 74.8874 56.919 74.7493V73.929Z" fill="white" stroke="#2E353A" stroke-width="0.5" stroke-linecap="round" stroke-linejoin="round"/>
<path d="M72.6484 29.7097C72.6484 29.5716 72.5365 29.4597 72.3984 29.4597H22.6523C22.5143 29.4597 22.4023 29.5716 22.4023 29.7097V32.2341C22.4023 32.3722 22.5143 32.4841 22.6523 32.4841H72.3984C72.5365 32.4841 72.6484 32.3722 72.6484 32.2341V29.7097Z" fill="white" stroke="#2E353A" stroke-width="0.5" stroke-linecap="round" stroke-linejoin="round"/>
<path d="M30.4979 30.5855C30.4608 30.4887 30.368 30.4248 30.2644 30.4248H22.6523C22.5143 30.4248 22.4023 30.5367 22.4023 30.6748V32.2342V34.3021V55.2546C22.4023 55.3926 22.5143 55.5046 22.6523 55.5046H72.3984C72.5365 55.5046 72.6484 55.3926 72.6484 55.2546V32.2342C72.6484 32.0961 72.5365 31.9842 72.3984 31.9842H31.0331L30.4979 30.5855Z" fill="#92E3A9" stroke="#2E353A" stroke-width="0.5" stroke-linecap="round" stroke-linejoin="round"/>
<path d="M36.0418 43.6494H59.3669" stroke="#2E353A" stroke-width="0.5" stroke-linecap="round" stroke-linejoin="round"/>
<path d="M36.0418 45.8643H59.3669" stroke="#2E353A" stroke-width="0.5" stroke-linecap="round" stroke-linejoin="round"/>
<path d="M36.0418 48.0791H59.3669" stroke="#2E353A" stroke-width="0.5" stroke-linecap="round" stroke-linejoin="round"/>
<path d="M36.0418 50.2961H59.3669" stroke="#2E353A" stroke-width="0.5" stroke-linecap="round" stroke-linejoin="round"/>
<path d="M36.9969 37.9941C36.9969 37.9941 36.9968 37.9941 36.9967 37.9941H36.9966L36.9969 37.9941ZM36.9969 37.9941H58.1335C58.1335 37.9941 58.1336 37.9941 58.1336 37.9941H58.1338V37.7441C58.3514 37.7444 58.5669 37.7033 58.768 37.6232C58.9691 37.543 59.1519 37.4254 59.306 37.2771C59.46 37.1287 59.5823 36.9525 59.6659 36.7584C59.7494 36.5644 59.7926 36.3564 59.7929 36.1463C59.7932 35.9358 59.7505 35.7273 59.6672 35.5327L36.9969 37.9941ZM36.9919 34.2939L36.9916 34.2939L58.1338 34.5439V34.2939H58.1336L36.9919 34.2939Z" fill="white" stroke="#2E353A" stroke-width="0.5" stroke-linecap="round" stroke-linejoin="round"/>
<path d="M55.2462 37.994C55.1081 37.994 54.9962 37.8821 54.9962 37.744V34.5393C54.9962 34.4012 55.1081 34.2893 55.2462 34.2893H58.1336H58.1338V34.5393L55.2462 37.994ZM55.2462 37.994L58.1334 37.994M55.2462 37.994L58.1334 37.994M58.1334 37.994C58.1335 37.994 58.1336 37.994 58.1336 37.994H58.1338L58.1334 37.994Z" fill="#2E353A" stroke="#2E353A" stroke-width="0.5" stroke-linecap="round" stroke-linejoin="round"/>
<path d="M57.4903 34.9463C57.3528 34.8219 57.1802 34.7397 56.9943 34.71C56.8084 34.6804 56.6176 34.7047 56.446 34.7798C56.2744 34.8549 56.1297 34.9775 56.0302 35.132C55.9308 35.2865 55.881 35.4661 55.8872 35.6479C55.8935 35.8298 55.9554 36.0058 56.0652 36.1537C56.175 36.3015 56.3277 36.4146 56.5041 36.4786C56.6805 36.5426 56.8725 36.5547 57.056 36.5132C57.2394 36.4718 57.406 36.3787 57.5347 36.2458C57.6204 36.1581 57.6874 36.0549 57.7317 35.9422C57.776 35.8294 57.7968 35.7093 57.7929 35.5888C57.789 35.4682 57.7604 35.3496 57.7089 35.2397C57.6574 35.1299 57.5838 35.0309 57.4926 34.9486L57.4903 34.9463ZM57.3966 36.1215C57.2933 36.2275 57.1598 36.3015 57.013 36.3342C56.8661 36.367 56.7125 36.3569 56.5716 36.3055C56.4306 36.254 56.3086 36.1633 56.2209 36.0449C56.1332 35.9265 56.0838 35.7857 56.079 35.6402C56.0741 35.4948 56.1139 35.3512 56.1934 35.2275C56.273 35.1039 56.3886 35.0058 56.5258 34.9456C56.663 34.8854 56.8156 34.8657 56.9644 34.8892C57.1131 34.9127 57.2513 34.9782 57.3615 35.0774C57.5095 35.2114 57.5963 35.3967 57.6029 35.5925C57.6094 35.7882 57.5353 35.9785 57.3966 36.1215Z" fill="white"/>
<path d="M58.2063 36.5803C58.1854 36.5606 58.159 36.5471 58.1304 36.5415C58.1018 36.5359 58.0721 36.5384 58.0448 36.5487L57.7009 36.2368C57.6834 36.2202 57.6598 36.2109 57.6353 36.2109C57.6108 36.2109 57.5873 36.2202 57.5698 36.2368L57.5394 36.2684C57.5226 36.286 57.5133 36.309 57.5133 36.3328C57.5133 36.3567 57.5226 36.3797 57.5394 36.3972L57.8787 36.7046C57.8686 36.7326 57.8671 36.7627 57.8741 36.7915C57.8811 36.8204 57.8965 36.8466 57.9185 36.8673L58.5035 37.421C58.5421 37.458 58.5942 37.4788 58.6486 37.4788C58.7029 37.4788 58.7551 37.458 58.7936 37.421C58.8319 37.3838 58.8534 37.3334 58.8534 37.2809C58.8534 37.2284 58.8319 37.178 58.7936 37.1408L58.2063 36.5803Z" fill="white"/>
<path d="M64.2482 47.4098C64.3165 47.5736 64.4182 47.7223 64.5473 47.8473C64.6763 47.9724 64.83 48.071 64.9993 48.1376C65.2637 48.2415 65.6171 48.2189 66.0242 48.4404C66.9439 48.9399 69.2394 48.4946 70.9031 48.6664C72.5669 48.8382 74.8086 47.0595 74.8086 47.0595L81.4097 47.4098V41.0818C81.4097 41.0818 74.5208 41.3598 73.0279 40.8039C71.5349 40.2479 69.8712 39.0863 69.1247 39.1405C68.3783 39.1947 62.2358 39.8614 62.2358 39.8614L64.2458 47.4098H64.2482Z" fill="white" stroke="#2E353A" stroke-linecap="round" stroke-linejoin="round"/>
<path d="M62.54 21.8944C61.177 22.0401 59.8894 22.5729 58.8399 23.4254C57.7905 24.2779 57.0263 25.4118 56.6441 26.6838C56.2619 27.9557 56.2788 29.3085 56.6927 30.5712C57.1066 31.8338 57.8989 32.9496 58.9693 33.7774C60.0398 34.6052 61.3403 35.1078 62.7066 35.2217C64.0728 35.3356 65.4433 35.0556 66.6448 34.4173C67.8463 33.7789 68.8248 32.8107 69.4566 31.6352C70.0883 30.4597 70.345 29.1297 70.1941 27.8133C70.0945 26.9391 69.8175 26.0923 69.3788 25.3216C68.9401 24.5508 68.3484 23.8711 67.6375 23.3214C66.9266 22.7717 66.1105 22.3627 65.2358 22.1178C64.3611 21.873 63.4451 21.797 62.54 21.8944ZM63.9159 33.8905C62.8225 34.0078 61.7177 33.8093 60.7411 33.3202C59.7646 32.8311 58.9601 32.0733 58.4294 31.1426C57.8988 30.2119 57.6658 29.1501 57.76 28.0915C57.8541 27.0329 58.2712 26.0251 58.9584 25.1954C59.6456 24.3658 60.5722 23.7516 61.6208 23.4305C62.6695 23.1094 63.7931 23.0958 64.8498 23.3915C65.9064 23.6872 66.8485 24.2789 67.557 25.0917C68.2654 25.9045 68.7084 26.902 68.8299 27.958C68.9106 28.6591 68.8475 29.3688 68.6442 30.0464C68.4409 30.724 68.1014 31.3563 67.6451 31.9072C67.1888 32.4581 66.6246 32.9167 65.9847 33.257C65.3449 33.5973 64.6419 33.8126 63.9159 33.8905Z" fill="white" stroke="#2E353A" stroke-width="0.5" stroke-linecap="round" stroke-linejoin="round"/>
<path d="M62.5025 21.5126C61.1395 21.6583 59.8519 22.1911 58.8024 23.0436C57.753 23.8961 56.9889 25.03 56.6067 26.302C56.2245 27.5739 56.2414 28.9267 56.6552 30.1894C57.0691 31.4521 57.8614 32.5678 58.9318 33.3956C60.0023 34.2234 61.3029 34.726 62.6691 34.8399C64.0353 34.9538 65.4058 34.6739 66.6073 34.0355C67.8088 33.3971 68.7873 32.4289 69.4191 31.2534C70.0509 30.078 70.3075 28.7479 70.1566 27.4315C69.9537 25.6666 69.0335 24.0517 67.5982 22.9418C66.1629 21.8319 64.3301 21.3178 62.5025 21.5126ZM63.8784 33.5087C62.7851 33.626 61.6802 33.4275 60.7037 32.9384C59.7271 32.4493 58.9226 31.6915 58.392 30.7608C57.8613 29.8301 57.6284 28.7683 57.7225 27.7097C57.8167 26.6511 58.2337 25.6433 58.9209 24.8136C59.6082 23.984 60.5347 23.3698 61.5833 23.0487C62.632 22.7276 63.7557 22.714 64.8123 23.0097C65.8689 23.3054 66.811 23.8971 67.5195 24.7099C68.2279 25.5227 68.6709 26.5202 68.7924 27.5762C68.8731 28.2773 68.81 28.987 68.6067 29.6646C68.4034 30.3422 68.0639 30.9745 67.6076 31.5254C67.1513 32.0763 66.5871 32.535 65.9473 32.8753C65.3074 33.2156 64.6044 33.4308 63.8784 33.5087Z" fill="white" stroke="#2E353A" stroke-linecap="round" stroke-linejoin="round"/>
<path d="M64.2566 34.9482L63.9286 34.9833C63.5587 35.0229 63.292 35.3446 63.333 35.7019L63.8652 40.3426C63.9061 40.6999 64.2392 40.9575 64.6092 40.9179L64.9371 40.8828C65.307 40.8433 65.5737 40.5215 65.5327 40.1643L65.0006 35.5235C64.9596 35.1662 64.6265 34.9086 64.2566 34.9482Z" fill="#92E3A9" stroke="#2E353A" stroke-linecap="round" stroke-linejoin="round"/>
<path d="M64.1499 38.8218L64.8519 38.7495C65.1538 38.7183 65.4562 38.8033 65.6936 38.9861C65.9311 39.1688 66.0843 39.4346 66.1202 39.7258L67.1708 48.9037C67.2135 49.2789 67.1002 49.6551 66.8558 49.9496C66.6114 50.2441 66.2559 50.4329 65.8674 50.4744H65.8206C65.6282 50.4951 65.4335 50.4789 65.2476 50.4269C65.0616 50.3748 64.8881 50.2878 64.7371 50.1708C64.586 50.0539 64.4603 49.9093 64.3672 49.7454C64.274 49.5815 64.2153 49.4014 64.1943 49.2155L63.1437 40.04C63.1268 39.8946 63.1397 39.7475 63.1817 39.6071C63.2237 39.4666 63.2941 39.3355 63.3886 39.2213C63.4831 39.1071 63.6001 39.0121 63.7327 38.9416C63.8654 38.8711 64.0111 38.8265 64.1616 38.8105L64.1499 38.8218Z" fill="#2E353A" stroke="#2E353A" stroke-linecap="round" stroke-linejoin="round"/>
<path d="M65.1701 46.4697C65.1701 46.4697 63.5064 46.5285 63.2724 46.8065C63.0384 47.0844 63.0805 48.0517 63.5321 48.1625C64.6834 48.454 67.131 48.2845 67.227 48.0856C67.3229 47.8867 67.5195 46.7296 67.014 46.6053C66.4039 46.515 65.7874 46.4697 65.1701 46.4697Z" fill="white" stroke="#2E353A" stroke-linecap="round" stroke-linejoin="round"/>
<path d="M64.6904 44.2277C64.6904 44.2277 62.7552 44.1577 62.4534 44.4944C62.1515 44.8311 62.093 46.09 62.6031 46.2798C63.9042 46.7612 66.8315 46.5736 66.9649 46.325C67.0983 46.0764 67.3884 44.7859 66.8151 44.578C66.2418 44.3701 64.6904 44.2277 64.6904 44.2277Z" fill="white" stroke="#2E353A" stroke-linecap="round" stroke-linejoin="round"/>
<path d="M64.412 41.6965C64.412 41.6965 62.3434 41.6197 62.0205 41.9813C61.6976 42.3429 61.6344 43.6853 62.1796 43.8887C63.5836 44.404 66.6256 44.404 66.7684 44.1373C66.9111 43.8706 67.2949 42.2932 66.6818 42.0694C66.0687 41.8457 64.412 41.6965 64.412 41.6965Z" fill="white" stroke="#2E353A" stroke-linecap="round" stroke-linejoin="round"/>
<path d="M63.2186 39.3282C63.2186 39.3282 61.15 39.2536 60.8271 39.613C60.5042 39.9723 60.427 41.3577 60.9862 41.5204C61.5455 41.6831 65.4322 42.0357 65.575 41.7713C65.7177 41.5068 66.1015 39.9248 65.4884 39.7011C64.8753 39.4774 63.2186 39.3282 63.2186 39.3282Z" fill="white" stroke="#2E353A" stroke-linecap="round" stroke-linejoin="round"/>
<path d="M69.9929 45.9749C69.6215 45.8763 69.2697 45.719 68.9516 45.5093C67.2878 44.3997 67.344 41.8504 67.344 41.8504L66.9438 41.7397C66.6133 41.6182 66.3034 41.4499 66.0242 41.2402C66.1582 41.7668 66.2366 42.3052 66.2582 42.847C66.2522 43.1448 66.1318 43.4298 65.9203 43.6466C65.7088 43.8634 65.4214 43.9965 65.114 44.02C64.5968 44.0765 64.3675 44.1307 64.1943 43.4663C64.0212 42.8018 63.1624 40.1396 63.1039 39.7508C63.0524 39.3983 63.6655 38.77 64.6413 38.6208C66.1412 38.7384 67.6201 39.1429 69.1317 39.1429C69.6577 39.1906 70.1617 39.3697 70.5942 39.6627" fill="white"/>
<path d="M69.9929 45.9749C69.6215 45.8763 69.2697 45.719 68.9516 45.5093C67.2878 44.3997 67.344 41.8504 67.344 41.8504L66.9438 41.7397C66.6133 41.6182 66.3034 41.4499 66.0242 41.2402C66.1582 41.7668 66.2366 42.3052 66.2582 42.847C66.2522 43.1448 66.1318 43.4298 65.9203 43.6466C65.7088 43.8634 65.4214 43.9965 65.114 44.02C64.5968 44.0765 64.3675 44.1307 64.1943 43.4663C64.0212 42.8018 63.1624 40.1396 63.1039 39.7508C63.0524 39.3983 63.6655 38.77 64.6413 38.6208C66.1412 38.7384 67.6201 39.1429 69.1317 39.1429C69.6577 39.1906 70.1617 39.3697 70.5942 39.6627" stroke="#2E353A" stroke-linecap="round" stroke-linejoin="round"/>
<path d="M71.5747 46.115C71.3923 46.1232 71.2096 46.1232 71.0272 46.115H71.5747Z" fill="white"/>
<path d="M71.5747 46.115C71.3923 46.1232 71.2096 46.1232 71.0272 46.115" stroke="#2E353A" stroke-linecap="round" stroke-linejoin="round"/>
<path d="M72.7985 45.8958C72.4012 46.0172 71.9904 46.093 71.5747 46.1218L72.7985 45.8958Z" fill="white"/>
<path d="M72.7985 45.8958C72.4012 46.0172 71.9904 46.093 71.5747 46.1218" stroke="#2E353A" stroke-linecap="round" stroke-linejoin="round"/>
<path d="M74.8647 45.177H76.931" stroke="#2E353A" stroke-linecap="round" stroke-linejoin="round"/>
<path d="M75.0379 45.7307H75.899" stroke="#2E353A" stroke-linecap="round" stroke-linejoin="round"/>
<path d="M67.344 41.8503C67.344 41.8503 68.4859 41.8503 69.2347 41.1926" stroke="#2E353A" stroke-linecap="round" stroke-linejoin="round"/>
<path d="M65.9985 41.1677C65.9656 40.8667 65.9005 40.5698 65.8043 40.2817" stroke="#2E353A" stroke-linecap="round" stroke-linejoin="round"/>
<path d="M64.178 43.1746C64.178 43.1746 63.9603 42.5915 64.2248 42.3813C64.4892 42.1712 65.1912 41.8683 65.3129 42.1011C65.4345 42.3339 65.699 43.4074 65.6264 43.6176L65.5539 43.8277" stroke="#2E353A" stroke-width="0.5" stroke-linecap="round" stroke-linejoin="round"/>
<path d="M95.8966 50.2461H76.1119V40.8535H95.8966" fill="#92E3A9"/>
<path d="M95.8966 50.2461H76.1119V40.8535H95.8966" stroke="#2E353A" stroke-linecap="round" stroke-linejoin="round"/>
<path d="M77.5628 49.6178C77.8083 49.6178 78.0074 49.4256 78.0074 49.1884C78.0074 48.9513 77.8083 48.759 77.5628 48.759C77.3172 48.759 77.1182 48.9513 77.1182 49.1884C77.1182 49.4256 77.3172 49.6178 77.5628 49.6178Z" fill="white" stroke="#2E353A" stroke-linecap="round" stroke-linejoin="round"/>
<path d="M46.1202 31.9085C46.2897 31.8425 46.4437 31.7443 46.5732 31.6197C46.7026 31.495 46.8048 31.3466 46.8737 31.1831C46.9813 30.9277 46.9555 30.5887 47.1872 30.1932C47.702 29.3073 47.2434 27.0902 47.4212 25.4811C47.599 23.872 45.7551 21.7114 45.7551 21.7114L46.1132 15.3359H39.5612C39.5612 15.3359 39.8466 21.9894 39.2733 23.429C38.7 24.8686 37.4949 26.48 37.5511 27.2009C37.6073 27.9219 38.3022 33.8499 38.3022 33.8499L46.1085 31.9085H46.1202Z" fill="white" stroke="#2E353A" stroke-linecap="round" stroke-linejoin="round"/>
<path d="M19.718 33.5539C19.8678 34.8704 20.4185 36.1145 21.3005 37.1287C22.1824 38.1429 23.356 38.8818 24.6727 39.2518C25.9894 39.6219 27.3902 39.6065 28.6979 39.2076C30.0056 38.8087 31.1614 38.0443 32.0193 37.011C32.8771 35.9776 33.3984 34.7218 33.5172 33.4023C33.636 32.0828 33.347 30.759 32.6868 29.5981C32.0265 28.4373 31.0247 27.4916 29.808 26.8807C28.5912 26.2697 27.2142 26.021 25.8511 26.166H25.8347C24.0101 26.3642 22.3413 27.2533 21.1946 28.6384C20.0479 30.0234 19.5168 31.7912 19.718 33.5539ZM32.12 32.2228C32.2418 33.2791 32.0366 34.3467 31.5303 35.2904C31.024 36.2341 30.2393 37.0117 29.2755 37.5247C28.3116 38.0378 27.2119 38.2632 26.1154 38.1726C25.0189 38.082 23.9748 37.6794 23.1151 37.0158C22.2555 36.3521 21.619 35.4571 21.286 34.444C20.953 33.431 20.9385 32.3453 21.2444 31.3242C21.5502 30.3032 22.1627 29.3927 23.0044 28.7079C23.846 28.023 24.879 27.5946 25.9728 27.4768C27.4395 27.3193 28.9109 27.7308 30.0636 28.6208C31.2163 29.5107 31.9559 30.8063 32.12 32.2228Z" fill="white" stroke="#2E353A" stroke-width="0.5" stroke-linecap="round" stroke-linejoin="round"/>
<path d="M19.3131 33.5945C19.4644 34.9102 20.0162 36.153 20.8987 37.1659C21.7812 38.1788 22.9548 38.9162 24.2712 39.2849C25.5876 39.6537 26.9877 39.6372 28.2944 39.2375C29.601 38.8379 30.7557 38.073 31.6124 37.0397C32.4691 36.0063 32.9893 34.7508 33.1072 33.432C33.2252 32.1131 32.9357 30.7901 32.2752 29.6301C31.6148 28.4701 30.613 27.5253 29.3967 26.9152C28.1803 26.305 26.804 26.0568 25.4416 26.202C24.5365 26.2985 23.66 26.5663 22.8621 26.99C22.0642 27.4138 21.3605 27.9853 20.7914 28.6718C20.2223 29.3583 19.7988 30.1464 19.5451 30.9911C19.2915 31.8357 19.2127 32.7204 19.3131 33.5945ZM31.7339 32.2679C31.8553 33.3238 31.6499 34.3909 31.1434 35.3341C30.637 36.2773 29.8523 37.0543 28.8887 37.5668C27.925 38.0793 26.8257 38.3043 25.7296 38.2133C24.6336 38.1224 23.5901 37.7196 22.731 37.0559C21.872 36.3921 21.2361 35.4973 20.9036 34.4845C20.5711 33.4717 20.5571 32.3864 20.8633 31.3659C21.1694 30.3454 21.7821 29.4355 22.6236 28.7513C23.4652 28.0671 24.498 27.6392 25.5914 27.5219C26.3174 27.4439 27.0521 27.5049 27.7537 27.7012C28.4553 27.8976 29.11 28.2255 29.6804 28.6662C30.2508 29.1069 30.7257 29.6518 31.078 30.2698C31.4304 30.8877 31.6532 31.5667 31.7339 32.2679Z" fill="white" stroke="#2E353A" stroke-linecap="round" stroke-linejoin="round"/>
<path d="M38.6268 30.6714L33.8217 31.1854C33.4518 31.225 33.1851 31.5467 33.2261 31.904L33.2624 32.2207C33.3034 32.578 33.6365 32.8356 34.0064 32.796L38.8115 32.282C39.1814 32.2424 39.4481 31.9207 39.4071 31.5634L39.3708 31.2467C39.3298 30.8894 38.9967 30.6319 38.6268 30.6714Z" fill="#92E3A9" stroke="#2E353A" stroke-linecap="round" stroke-linejoin="round"/>
<path d="M37.2352 32.0057L37.158 31.3277C37.1245 31.034 37.2132 30.7395 37.4045 30.5089C37.5958 30.2784 37.8742 30.1306 38.1782 30.0983L47.6786 29.0835C47.8719 29.0618 48.0676 29.0772 48.2546 29.1288C48.4417 29.1804 48.6163 29.2672 48.7685 29.3841C48.9207 29.5011 49.0475 29.646 49.1416 29.8104C49.2356 29.9749 49.2951 30.1556 49.3166 30.3423V30.3875C49.3391 30.5741 49.3232 30.7632 49.2698 30.9438C49.2163 31.1245 49.1265 31.2932 49.0054 31.4402C48.8843 31.5872 48.7343 31.7096 48.564 31.8005C48.3937 31.8913 48.2066 31.9488 48.0133 31.9695L38.5129 32.9843C38.2092 33.0174 37.9044 32.933 37.6649 32.7496C37.4255 32.5663 37.271 32.2988 37.2352 32.0057Z" fill="#2E353A" stroke="#2E353A" stroke-linecap="round" stroke-linejoin="round"/>
<path d="M45.1514 31.0205C45.1514 31.0205 45.2146 32.6251 45.5001 32.8511C45.7856 33.0771 46.7918 33.0364 46.9041 32.6002C47.2083 31.4906 47.0304 29.1243 46.8245 29.0339C46.6186 28.9435 45.4205 28.7492 45.2942 29.2396C45.1999 29.8289 45.1522 30.4242 45.1514 31.0205Z" fill="white" stroke="#2E353A" stroke-linecap="round" stroke-linejoin="round"/>
<path d="M42.8325 31.4813C42.8325 31.4813 42.7576 33.3503 43.1063 33.6419C43.4549 33.9334 44.7583 33.9922 44.9549 33.4972C45.4556 32.2407 45.2591 29.4134 45.0017 29.2868C44.7443 29.1603 43.4081 28.8778 43.1929 29.4315C42.9776 29.9852 42.8325 31.4813 42.8325 31.4813Z" fill="white" stroke="#2E353A" stroke-linecap="round" stroke-linejoin="round"/>
<path d="M40.2117 31.7548C40.2117 31.7548 40.1321 33.7526 40.5042 34.0645C40.8762 34.3764 42.2709 34.4374 42.4815 33.9085C43.015 32.5661 43.015 29.6145 42.7389 29.4789C42.4627 29.3433 40.8271 28.9704 40.5978 29.5626C40.3684 30.1547 40.2117 31.7548 40.2117 31.7548Z" fill="white" stroke="#2E353A" stroke-linecap="round" stroke-linejoin="round"/>
<path d="M37.7594 32.9052C37.7594 32.9052 37.6798 34.9031 38.0542 35.2149C38.4286 35.5268 39.8607 35.6014 40.0292 35.059C40.1977 34.5166 40.5627 30.765 40.2866 30.6271C40.0105 30.4893 38.3772 30.1209 38.1455 30.713C37.9138 31.3051 37.7594 32.9052 37.7594 32.9052Z" fill="white" stroke="#2E353A" stroke-linecap="round" stroke-linejoin="round"/>
<path d="M44.784 24.8279C44.8794 25.7181 44.6582 26.6132 44.1569 27.3659C43.0103 28.975 40.3685 28.9185 40.3685 28.9185L40.2538 29.3072C40.129 29.6261 39.9546 29.9249 39.7367 30.1931C40.2827 30.0637 40.8409 29.988 41.4027 29.9671C41.71 29.9757 42.0031 30.0939 42.2256 30.2987C42.4481 30.5036 42.5843 30.7807 42.6078 31.0768C42.6663 31.5762 42.7225 31.7977 42.0345 31.9627C41.3466 32.1277 38.5901 32.9616 38.1876 33.0181C37.8225 33.0678 37.172 32.4757 37.0176 31.5333C37.1416 30.0846 37.5605 28.6541 37.5605 27.1964C37.6094 26.6876 37.7949 26.2 38.0987 25.7816" fill="white"/>
<path d="M44.784 24.8279C44.8794 25.7181 44.6582 26.6132 44.1569 27.3659C43.0103 28.975 40.3685 28.9185 40.3685 28.9185L40.2538 29.3072C40.129 29.6261 39.9546 29.9249 39.7367 30.1931C40.2827 30.0637 40.8409 29.988 41.4027 29.9671C41.71 29.9757 42.0031 30.0939 42.2256 30.2987C42.4481 30.5036 42.5843 30.7807 42.6078 31.0768C42.6663 31.5762 42.7225 31.7977 42.0345 31.9627C41.3466 32.1277 38.5901 32.9616 38.1876 33.0181C37.8225 33.0678 37.172 32.4757 37.0176 31.5333C37.1416 30.0846 37.5605 28.6541 37.5605 27.1964C37.6094 26.6876 37.7949 26.2 38.0987 25.7816" stroke="#2E353A" stroke-linecap="round" stroke-linejoin="round"/>
<path d="M44.5594 23.6528C44.6287 23.8643 44.6818 24.0803 44.7185 24.2992L44.5594 23.6528Z" fill="white"/>
<path d="M44.5594 23.6528C44.6287 23.8643 44.6818 24.0803 44.7185 24.2992" stroke="#2E353A" stroke-linecap="round" stroke-linejoin="round"/>
<path d="M43.8129 21.655V19.6594" stroke="#2E353A" stroke-linecap="round" stroke-linejoin="round"/>
<path d="M44.3862 21.4899V20.6582" stroke="#2E353A" stroke-linecap="round" stroke-linejoin="round"/>
<path d="M40.3684 28.9186C40.3684 28.9186 40.3684 27.8157 39.6875 27.0925" stroke="#2E353A" stroke-linecap="round" stroke-linejoin="round"/>
<path d="M39.6641 30.2202C39.3525 30.2512 39.0451 30.3133 38.7468 30.4055" stroke="#2E353A" stroke-linecap="round" stroke-linejoin="round"/>
<path d="M41.7421 31.9697C41.7421 31.9697 41.1383 32.1798 40.9207 31.9222C40.7031 31.6646 40.3895 30.9888 40.6306 30.8736C40.8716 30.7583 41.9831 30.5007 42.2007 30.5707L42.4183 30.6385" stroke="#2E353A" stroke-width="0.5" stroke-linecap="round" stroke-linejoin="round"/>
<path d="M49.0639 1.34204V20.4503H39.3365V1.34204" fill="#92E3A9"/>
<path d="M49.0639 1.34204V20.4503H39.3365V1.34204" stroke="#2E353A" stroke-linecap="round" stroke-linejoin="round"/>
<path d="M47.9664 19.4784C48.212 19.4784 48.411 19.2862 48.411 19.049C48.411 18.8119 48.212 18.6196 47.9664 18.6196C47.7209 18.6196 47.5219 18.8119 47.5219 19.049C47.5219 19.2862 47.7209 19.4784 47.9664 19.4784Z" fill="white" stroke="#2E353A" stroke-linecap="round" stroke-linejoin="round"/>
<path d="M36.332 65.9419C36.264 66.1058 36.1624 66.2548 36.0333 66.3798C35.9042 66.5049 35.7503 66.6034 35.5808 66.6696C35.3164 66.7759 34.9654 66.751 34.5559 66.9725C33.6386 67.4719 31.3431 67.029 29.677 67.1985C28.0109 67.368 25.7739 65.5916 25.7739 65.5916L19.1657 65.9419V59.6139C19.1657 59.6139 26.0547 59.8919 27.5476 59.3382C29.0405 58.7845 30.7043 57.6183 31.4507 57.6748C32.1972 57.7313 38.3397 58.3958 38.3397 58.3958L36.332 65.9419Z" fill="white" stroke="#2E353A" stroke-linecap="round" stroke-linejoin="round"/>
<path d="M38.0285 40.44C39.3914 40.5858 40.6791 41.1185 41.7285 41.971C42.778 42.8235 43.5421 43.9575 43.9243 45.2294C44.3065 46.5013 44.2896 47.8542 43.8757 49.1168C43.4619 50.3795 42.6696 51.4953 41.5991 52.323C40.5287 53.1508 39.2281 53.6535 37.8619 53.7673C36.4957 53.8812 35.1251 53.6013 33.9237 52.9629C32.7222 52.3245 31.7437 51.3564 31.1119 50.1809C30.4801 49.0054 30.2234 47.6754 30.3743 46.359C30.5766 44.5944 31.4965 42.9797 32.9315 41.8701C34.3664 40.7605 36.1991 40.2469 38.0261 40.4423L38.0285 40.44ZM36.6525 52.4361C37.7463 52.5538 38.8516 52.3557 39.8288 51.8666C40.8059 51.3776 41.611 50.6198 42.1422 49.6889C42.6734 48.758 42.9068 47.6959 42.813 46.6368C42.7192 45.5778 42.3024 44.5694 41.6152 43.7392C40.928 42.9089 40.0014 42.2941 38.9524 41.9725C37.9035 41.6509 36.7794 41.6369 35.7222 41.9324C34.665 42.2278 33.7223 42.8193 33.0132 43.6322C32.3041 44.4451 31.8605 45.4427 31.7385 46.4991C31.5756 47.9157 32.0016 49.3368 32.9231 50.45C33.8445 51.5633 35.186 52.2777 36.6525 52.4361Z" fill="white" stroke="#2E353A" stroke-linecap="round" stroke-linejoin="round"/>
<path d="M38.0706 40.058C39.433 40.2041 40.7199 40.7372 41.7686 41.5896C42.8173 42.4421 43.5808 43.5758 43.9625 44.8473C44.3441 46.1188 44.3269 47.471 43.9128 48.7331C43.4988 49.9951 42.7067 51.1103 41.6365 51.9375C40.5663 52.7647 39.2662 53.2669 37.9006 53.3806C36.5349 53.4943 35.165 53.2143 33.9641 52.5761C32.7631 51.9378 31.7851 50.97 31.1537 49.795C30.5222 48.62 30.2657 47.2905 30.4165 45.9747C30.5166 45.1007 30.7941 44.2544 31.233 43.484C31.6719 42.7137 32.2637 42.0344 32.9745 41.4849C33.6852 40.9355 34.5011 40.5267 35.3756 40.2818C36.25 40.037 37.1658 39.9609 38.0706 40.058ZM36.6947 52.0541C37.7885 52.1718 38.8938 51.9736 39.8709 51.4846C40.8481 50.9956 41.6532 50.2377 42.1843 49.3069C42.7155 48.376 42.949 47.3138 42.8552 46.2548C42.7614 45.1958 42.3445 44.1874 41.6574 43.3571C40.9702 42.5269 40.0435 41.9121 38.9946 41.5905C37.9457 41.2689 36.8215 41.2549 35.7644 41.5503C34.7072 41.8457 33.7645 42.4373 33.0554 43.2502C32.3463 44.063 31.9027 45.0607 31.7807 46.1171C31.6184 47.533 32.0448 48.9533 32.9663 50.0657C33.8877 51.1781 35.2288 51.8917 36.6947 52.0496V52.0541Z" fill="white" stroke="#2E353A" stroke-linecap="round" stroke-linejoin="round"/>
<path d="M35.571 54.0692L35.0388 58.71C34.9978 59.0673 35.2645 59.389 35.6344 59.4286L35.9624 59.4637C36.3323 59.5032 36.6654 59.2457 36.7064 58.8884L37.2385 54.2476C37.2795 53.8903 37.0128 53.5686 36.6429 53.529L36.315 53.494C35.945 53.4544 35.6119 53.7119 35.571 54.0692Z" fill="#92E3A9" stroke="#2E353A" stroke-linecap="round" stroke-linejoin="round"/>
<path d="M34.7572 69.0289H34.7104C34.5169 69.0085 34.3296 68.9512 34.1592 68.8604C33.9888 68.7697 33.8387 68.6472 33.7175 68.5002C33.5963 68.3531 33.5065 68.1843 33.4532 68.0035C33.3999 67.8228 33.3842 67.6336 33.407 67.4469L34.4576 58.2713C34.474 58.1258 34.5199 57.9848 34.5927 57.8564C34.6656 57.7281 34.764 57.6149 34.8822 57.5233C35.0005 57.4318 35.1363 57.3637 35.2819 57.323C35.4275 57.2822 35.58 57.2697 35.7306 57.286L36.4326 57.3606C36.7367 57.3929 37.015 57.5407 37.2063 57.7712C37.3977 58.0018 37.4863 58.2963 37.4528 58.59L36.4022 67.7769C36.3804 67.9635 36.3207 68.1441 36.2265 68.3084C36.1324 68.4727 36.0056 68.6174 35.8535 68.7344C35.7013 68.8513 35.5268 68.9381 35.3399 68.9898C35.153 69.0415 34.9574 69.0571 34.7642 69.0357L34.7572 69.0289Z" fill="#2E353A" stroke="#2E353A" stroke-linecap="round" stroke-linejoin="round"/>
<path d="M35.396 65.0129C35.396 65.0129 37.0574 65.074 37.2914 65.3497C37.5254 65.6254 37.4832 66.5949 37.0316 66.7057C35.8827 66.9995 33.4327 66.8277 33.3391 66.6288C33.2455 66.43 33.0443 65.2728 33.552 65.1485C34.1622 65.0582 34.7786 65.0129 35.396 65.0129Z" fill="white" stroke="#2E353A" stroke-linecap="round" stroke-linejoin="round"/>
<path d="M35.8827 62.7778C35.8827 62.7778 37.8179 62.7055 38.1197 63.0422C38.4216 63.3789 38.4824 64.6378 37.97 64.8276C36.6689 65.309 33.7416 65.1214 33.6105 64.8728C33.4795 64.6242 33.187 63.3337 33.7603 63.1258C34.3336 62.9179 35.8827 62.7778 35.8827 62.7778Z" fill="white" stroke="#2E353A" stroke-linecap="round" stroke-linejoin="round"/>
<path d="M36.1658 60.2398C36.1658 60.2398 38.2344 60.1652 38.5573 60.5246C38.8802 60.8839 38.9434 62.2309 38.3982 62.432C36.9942 62.9496 33.9522 62.9473 33.8095 62.6829C33.6667 62.4185 33.283 60.8365 33.896 60.6127C34.5091 60.389 36.1658 60.2398 36.1658 60.2398Z" fill="white" stroke="#2E353A" stroke-linecap="round" stroke-linejoin="round"/>
<path d="M37.3569 57.8736C37.3569 57.8736 39.4255 57.7968 39.7484 58.1561C40.0713 58.5154 40.1485 59.9031 39.5869 60.0658C39.0253 60.2285 35.1409 60.5788 34.9982 60.3144C34.8554 60.05 34.474 58.468 35.0871 58.2465C35.7002 58.025 37.3569 57.8736 37.3569 57.8736Z" fill="white" stroke="#2E353A" stroke-linecap="round" stroke-linejoin="round"/>
<path d="M29.312 64.6695C30.128 64.7005 30.9337 64.4848 31.6169 64.0525C33.2829 62.9428 33.2244 60.3935 33.2244 60.3935L33.6269 60.2828C33.9571 60.1622 34.2664 59.9938 34.5442 59.7833C34.4102 60.31 34.3318 60.8483 34.3102 61.3902C34.3191 61.6872 34.4413 61.9706 34.6534 62.1859C34.8654 62.4011 35.1524 62.5331 35.4591 62.5564C35.9763 62.6106 36.2056 62.6671 36.3787 62.0004C36.5519 61.3337 37.4107 58.6737 37.4692 58.2872C37.5277 57.9008 36.9076 57.3041 35.9318 57.1572C34.4319 57.277 32.9507 57.6815 31.4414 57.6815C30.915 57.729 30.4103 57.9073 29.9765 58.1991" fill="white"/>
<path d="M29.312 64.6695C30.128 64.7005 30.9337 64.4848 31.6169 64.0525C33.2829 62.9428 33.2244 60.3935 33.2244 60.3935L33.6269 60.2828C33.9571 60.1622 34.2664 59.9938 34.5442 59.7833C34.4102 60.31 34.3318 60.8483 34.3102 61.3902C34.3191 61.6872 34.4413 61.9706 34.6534 62.1859C34.8654 62.4011 35.1524 62.5331 35.4591 62.5564C35.9763 62.6106 36.2056 62.6671 36.3787 62.0004C36.5519 61.3337 37.4107 58.6737 37.4692 58.2872C37.5277 57.9008 36.9076 57.3041 35.9318 57.1572C34.4319 57.277 32.9507 57.6815 31.4414 57.6815C30.915 57.729 30.4103 57.9073 29.9765 58.1991" stroke="#2E353A" stroke-linecap="round" stroke-linejoin="round"/>
<path d="M27.7769 64.4412C28.1041 64.5383 28.4403 64.6041 28.7808 64.6378L27.7769 64.4412Z" fill="white"/>
<path d="M27.7769 64.4412C28.1041 64.5383 28.4403 64.6041 28.7808 64.6378" stroke="#2E353A" stroke-linecap="round" stroke-linejoin="round"/>
<path d="M25.7084 63.7202H23.6422" stroke="#2E353A" stroke-linecap="round" stroke-linejoin="round"/>
<path d="M25.5376 64.2739H24.6765" stroke="#2E353A" stroke-linecap="round" stroke-linejoin="round"/>
<path d="M33.2292 60.3935C33.2292 60.3935 32.0872 60.3935 31.3384 59.7358" stroke="#2E353A" stroke-linecap="round" stroke-linejoin="round"/>
<path d="M34.577 59.7111C34.6091 59.4102 34.6734 59.1133 34.7688 58.8252" stroke="#2E353A" stroke-linecap="round" stroke-linejoin="round"/>
<path d="M36.3881 61.7181C36.3881 61.7181 36.6058 61.135 36.339 60.9248C36.0722 60.7146 35.3726 60.4118 35.2532 60.6446C35.1339 60.8773 34.8671 61.9531 34.9397 62.161L35.0122 62.3712" stroke="#2E353A" stroke-width="0.5" stroke-linecap="round" stroke-linejoin="round"/>
<path d="M4.67645 68.7918H24.4612V59.397H4.67645" fill="#92E3A9"/>
<path d="M4.67645 68.7918H24.4612V59.397H4.67645" stroke="#2E353A" stroke-linecap="round" stroke-linejoin="round"/>
<path d="M22.5657 67.7319C22.5657 67.8168 22.5918 67.8998 22.6407 67.9705C22.6895 68.0411 22.759 68.0961 22.8402 68.1286C22.9214 68.1611 23.0108 68.1696 23.0971 68.153C23.1833 68.1365 23.2625 68.0956 23.3247 68.0355C23.3869 67.9755 23.4292 67.899 23.4464 67.8157C23.4635 67.7324 23.4547 67.646 23.4211 67.5676C23.3874 67.4891 23.3305 67.422 23.2573 67.3749C23.1842 67.3277 23.0983 67.3025 23.0103 67.3025C22.8924 67.3025 22.7793 67.3477 22.696 67.4283C22.6126 67.5088 22.5657 67.618 22.5657 67.7319Z" fill="white" stroke="#2E353A" stroke-linecap="round" stroke-linejoin="round"/>
</svg>

