
<svg width="93" height="85" viewBox="0 0 93 85" fill="none" xmlns="http://www.w3.org/2000/svg">
<path d="M73.6588 23.4861C70.2669 18.8101 67.4528 12.9621 61.9679 10.0721C54.1676 5.96206 46.6691 11.5501 40.3539 15.4941C37.0369 17.5641 33.5059 19.7201 29.487 20.3201C23.739 21.1801 17.9011 18.8021 12.2022 20.2581C2.57223 22.7181 -0.0621082 33.6581 3.17571 41.4321C7.66971 52.2321 17.7277 63.8321 19.6537 72.6321C21.5797 81.4321 30.5677 87.6321 45.9757 83.6321C61.3837 79.6321 60.5277 70.4321 74.2237 68.4321C87.9197 66.4321 94.5537 57.2321 92.1997 45.6321C91.042 39.9221 87.2884 35.7321 82.4071 32.3681C78.9146 29.9681 76.0855 26.8301 73.6588 23.4861Z" fill="#92E3A9"/>
<g opacity="0.7">
<path d="M73.6588 23.4861C70.2669 18.8101 67.4528 12.9621 61.9679 10.0721C54.1676 5.96206 46.6691 11.5501 40.3539 15.4941C37.0369 17.5641 33.5059 19.7201 29.487 20.3201C23.739 21.1801 17.9011 18.8021 12.2022 20.2581C2.57223 22.7181 -0.0621082 33.6581 3.17571 41.4321C7.66971 52.2321 17.7277 63.8321 19.6537 72.6321C21.5797 81.4321 30.5677 87.6321 45.9757 83.6321C61.3837 79.6321 60.5277 70.4321 74.2237 68.4321C87.9197 66.4321 94.5537 57.2321 92.1997 45.6321C91.042 39.9221 87.2884 35.7321 82.4071 32.3681C78.9146 29.9681 76.0855 26.8301 73.6588 23.4861Z" fill="white"/>
</g>
<path d="M19.3049 5.184C19.3049 5.184 20.4412 4.346 20.7323 3.808C20.9805 3.35 21.1603 2.702 20.9035 2.208C20.847 2.09183 20.765 1.98806 20.6629 1.90342C20.5608 1.81878 20.4407 1.75515 20.3105 1.71668C20.1804 1.6782 20.043 1.66574 19.9074 1.68009C19.7717 1.69445 19.6408 1.7353 19.5232 1.8C18.8234 2.2 18.7485 3.6 18.9261 4.26C18.9411 4.318 19.2942 5.2 19.3049 5.184Z" fill="#92E3A9"/>
<path d="M8.80391 12.1701C8.84885 12.2101 9.65991 12.7581 9.65991 12.7441C9.65991 12.7301 10.12 11.4601 10.043 10.8621C9.97877 10.3521 9.74551 9.71808 9.24475 9.44408C9.12917 9.37557 8.99947 9.33055 8.86406 9.31195C8.72865 9.29334 8.59057 9.30156 8.45879 9.33608C8.327 9.3706 8.20446 9.43063 8.09911 9.5123C7.99377 9.59396 7.90799 9.69541 7.84733 9.81008C7.50493 10.5101 8.26035 11.7041 8.80391 12.1701Z" fill="#92E3A9"/>
<path d="M32.605 6.4541C32.605 6.4541 28.447 10.4661 28.4684 15.4001C28.4898 20.3341 32.6885 24.3061 32.6885 24.3061C32.6885 24.3061 36.8465 20.2941 36.8229 15.3661C36.7994 10.4381 32.605 6.4541 32.605 6.4541Z" fill="#92E3A9"/>
<path d="M26.675 18.346C26.7305 18.2904 26.7813 18.2309 26.827 18.168C27.1287 17.74 27.3877 17.116 27.1929 16.604C27.1516 16.4823 27.0833 16.37 26.9925 16.2744C26.9018 16.1789 26.7906 16.1022 26.6661 16.0494C26.5416 15.9966 26.4066 15.9689 26.2699 15.9679C26.1332 15.967 25.9978 15.9929 25.8725 16.044C25.3076 16.294 25.0294 17.14 24.9695 17.832C24.7555 17.784 24.5415 17.746 24.3681 17.72C24.2932 17.562 24.2183 17.404 24.1413 17.246C24.0642 17.088 24.0022 16.916 23.9273 16.75C23.8267 16.504 23.7368 16.246 23.6469 15.988C23.9765 15.85 24.9309 15.432 25.2905 15.062C25.65 14.692 26.0159 14.102 25.9068 13.568C25.8859 13.4416 25.8368 13.3207 25.7625 13.2132C25.6883 13.1057 25.5906 13.0141 25.4759 12.9442C25.3612 12.8744 25.2321 12.828 25.0969 12.8079C24.9616 12.7879 24.8234 12.7948 24.6913 12.828C23.9016 13.046 23.4372 14.366 23.4222 15.052C23.4222 15.074 23.4222 15.22 23.4501 15.394C23.3709 15.138 23.2896 14.886 23.2189 14.626C23.0156 13.888 22.8337 13.13 22.6476 12.372C22.609 12.214 22.5684 12.056 22.5277 11.898C22.8059 11.784 23.8481 11.338 24.2226 10.952C24.5971 10.566 24.9459 9.99203 24.8368 9.45803C24.8162 9.33145 24.7673 9.21036 24.6931 9.10271C24.619 8.99505 24.5213 8.90328 24.4065 8.8334C24.2917 8.76351 24.1624 8.71711 24.0271 8.69723C23.8918 8.67734 23.7535 8.68443 23.6213 8.71803C22.8337 8.93603 22.3694 10.256 22.3522 10.942C22.3522 10.968 22.3672 11.142 22.3865 11.342C22.2795 10.93 22.1725 10.522 22.0419 10.12C21.8318 9.42988 21.5722 8.75369 21.2651 8.09603C21.3636 8.05603 22.5962 7.55803 23.0114 7.12803C23.3794 6.74603 23.7368 6.16603 23.6277 5.63203C23.6065 5.50573 23.5572 5.38501 23.4828 5.27768C23.4085 5.17036 23.3109 5.07884 23.1962 5.00907C23.0816 4.93929 22.9526 4.89281 22.8175 4.87265C22.6824 4.85249 22.5443 4.85909 22.4122 4.89203C21.6225 5.11203 21.1581 6.43003 21.1431 7.11803C21.1431 7.16603 21.2031 7.79403 21.233 8.01803V7.99403C20.9141 7.35467 20.5353 6.74294 20.101 6.16603C19.7157 5.64962 19.2984 5.15477 18.8512 4.68403C18.4425 4.24203 18.038 3.86203 17.6763 3.52803C17.4816 3.34803 17.2976 3.18803 17.1242 3.04003H17.1413C17.1563 3.04003 16.7561 2.18203 16.7262 2.13003C16.356 1.53003 15.2688 0.588031 14.4642 0.752031C14.331 0.782699 14.2061 0.83929 14.0979 0.918107C13.9896 0.996925 13.9003 1.0962 13.8359 1.20944C13.7715 1.32269 13.7333 1.44736 13.724 1.57532C13.7146 1.70328 13.7342 1.83164 13.7815 1.95203C13.9613 2.46803 14.5733 2.81803 15.0934 2.98403C15.6134 3.15003 16.7882 3.07403 17.075 3.05003C17.2526 3.20603 17.4388 3.37603 17.64 3.56803C17.9909 3.91003 18.3847 4.29603 18.7827 4.74403C18.8897 4.86403 18.9967 4.99603 19.1059 5.12203C18.8769 4.94403 18.558 4.70603 18.5238 4.68603C17.9032 4.31603 16.4715 3.94403 15.8381 4.43603C15.7354 4.52057 15.6529 4.62434 15.5959 4.74061C15.539 4.85687 15.5088 4.98304 15.5074 5.11091C15.506 5.23878 15.5334 5.36551 15.5878 5.48285C15.6421 5.60019 15.7223 5.70553 15.8231 5.79203C16.2361 6.17203 16.9509 6.21803 17.4944 6.14403C18.038 6.07003 19.0759 5.47403 19.2942 5.34403C19.5296 5.62803 19.765 5.92403 19.9897 6.24603C20.4038 6.82375 20.7618 7.43483 21.0597 8.07203C21.0768 8.11003 21.0896 8.15003 21.1046 8.18603C21.0083 8.08003 20.4305 7.53403 20.3834 7.50003C19.8099 7.07003 18.4318 6.55403 17.7448 6.97803C17.6325 7.05123 17.538 7.14574 17.4674 7.25539C17.3969 7.36504 17.3518 7.48736 17.3353 7.61438C17.3187 7.7414 17.331 7.87026 17.3713 7.99254C17.4117 8.11482 17.4791 8.22778 17.5693 8.32403C17.9353 8.74403 18.6393 8.86403 19.1893 8.84403C19.8313 8.82403 21.0682 8.24403 21.1153 8.21403C21.396 8.85692 21.6312 9.51634 21.8194 10.188C21.9606 10.684 22.0826 11.188 22.2003 11.704C22.0719 11.568 21.5326 11.062 21.4898 11.028C20.9163 10.598 19.5381 10.082 18.8491 10.506C18.737 10.5794 18.6428 10.674 18.5724 10.7837C18.502 10.8933 18.4571 11.0156 18.4405 11.1425C18.424 11.2694 18.4362 11.3982 18.4763 11.5204C18.5165 11.6427 18.5837 11.7556 18.6736 11.852C19.0417 12.272 19.7436 12.392 20.2957 12.372C20.912 12.352 22.1104 11.794 22.2217 11.746C22.2752 11.978 22.3287 12.21 22.3801 12.444C22.5491 13.204 22.7139 13.968 22.9001 14.716C22.9664 14.976 23.0392 15.23 23.1141 15.484C22.9129 15.284 22.5384 14.934 22.5042 14.908C21.9307 14.476 20.5504 13.96 19.8634 14.384C19.7511 14.4572 19.6566 14.5517 19.586 14.6614C19.5155 14.771 19.4704 14.8934 19.4539 15.0204C19.4373 15.1474 19.4496 15.2763 19.4899 15.3985C19.5303 15.5208 19.5977 15.6338 19.6879 15.73C20.0539 16.152 20.7579 16.27 21.3079 16.252C21.8579 16.234 22.8765 15.784 23.1612 15.652C23.2874 16.074 23.4201 16.49 23.5742 16.894C23.6448 17.066 23.7026 17.246 23.7882 17.408L23.9059 17.666L23.7454 17.652C23.7454 17.652 23.7454 17.894 23.7604 18.284C23.1547 17.884 22.2816 17.534 21.7145 17.778C21.5918 17.8347 21.4833 17.9149 21.3959 18.0133C21.3085 18.1118 21.2443 18.2263 21.2073 18.3495C21.1704 18.4726 21.1616 18.6017 21.1815 18.7282C21.2014 18.8548 21.2496 18.976 21.3229 19.084C21.3594 19.1417 21.4016 19.1959 21.4492 19.246C21.5568 19.843 21.8265 20.4042 22.2324 20.876C22.2624 20.908 22.6732 21.264 22.8894 21.44C22.6754 21.336 22.4742 21.24 22.2602 21.118C21.9521 20.958 21.6311 20.78 21.3186 20.608L20.82 20.31C20.6552 20.216 20.5097 20.11 20.3513 20.006C20.1224 19.852 19.8955 19.684 19.6687 19.514C19.8613 19.23 20.4134 18.388 20.4947 17.896C20.576 17.404 20.5311 16.72 20.1245 16.332C20.033 16.237 19.9211 16.161 19.7961 16.1089C19.6712 16.0569 19.5359 16.03 19.399 16.03C19.2622 16.03 19.1269 16.0569 19.002 16.1089C18.877 16.161 18.7651 16.237 18.6736 16.332C18.145 16.932 18.5366 18.262 18.9282 18.844C18.9411 18.862 19.0374 18.978 19.1422 19.112C18.9282 18.942 18.7142 18.772 18.5002 18.592C17.8968 18.08 17.2976 17.542 16.6941 17.006L16.326 16.68C16.4908 16.442 17.0964 15.534 17.182 15.02C17.2676 14.506 17.2184 13.844 16.8139 13.454C16.7224 13.359 16.6105 13.283 16.4856 13.2309C16.3606 13.1789 16.2253 13.152 16.0885 13.152C15.9516 13.152 15.8164 13.1789 15.6914 13.2309C15.5664 13.283 15.4545 13.359 15.363 13.454C14.8344 14.054 15.226 15.382 15.6177 15.964C15.6305 15.986 15.7461 16.122 15.8766 16.274C15.5449 15.988 15.2111 15.704 14.8687 15.434C14.286 14.9667 13.6704 14.5364 13.0261 14.146C13.0839 14.062 13.8179 13.01 13.9121 12.438C13.9934 11.93 13.9485 11.262 13.5419 10.874C13.4506 10.779 13.3389 10.703 13.2141 10.651C13.0893 10.599 12.9541 10.5721 12.8175 10.5721C12.6808 10.5721 12.5457 10.599 12.4209 10.651C12.2961 10.703 12.1844 10.779 12.0931 10.874C11.5624 11.474 11.954 12.804 12.3456 13.386C12.3734 13.426 12.7971 13.92 12.9534 14.09L12.9298 14.076C12.2872 13.7062 11.6104 13.3909 10.9075 13.134C10.2785 12.8995 9.63538 12.6991 8.98153 12.534C8.37805 12.376 7.81737 12.268 7.32089 12.174C7.04911 12.126 6.80301 12.088 6.56975 12.052H6.58473C6.59543 12.052 5.75655 11.534 5.69877 11.508C5.04179 11.202 3.57589 10.974 3.00023 11.524C2.90759 11.6181 2.83717 11.7294 2.79354 11.8506C2.7499 11.9718 2.73403 12.1002 2.74694 12.2275C2.75986 12.3548 2.80127 12.4782 2.8685 12.5896C2.93574 12.7009 3.02728 12.7979 3.13719 12.874C3.59301 13.212 4.30777 13.188 4.84919 13.06C5.39061 12.932 6.31509 12.26 6.53979 12.092C6.77947 12.132 7.03627 12.178 7.31875 12.234C7.81309 12.336 8.36949 12.456 8.96441 12.634C9.12491 12.68 9.29397 12.734 9.45875 12.782C9.16129 12.754 8.75469 12.718 8.71403 12.718C7.98001 12.732 6.57403 13.158 6.32793 13.896C6.29161 14.0193 6.28355 14.1483 6.30427 14.2746C6.32498 14.401 6.37402 14.5218 6.44815 14.6293C6.52229 14.7367 6.61986 14.8283 6.73448 14.898C6.84911 14.9678 6.9782 15.0141 7.11331 15.034C7.68469 15.138 8.30743 14.808 8.71617 14.466C9.12491 14.124 9.63851 13.092 9.74551 12.866C10.1093 12.98 10.4795 13.106 10.8562 13.266C11.5439 13.5342 12.2049 13.8588 12.8314 14.236C12.8678 14.258 12.902 14.286 12.9384 14.308C12.795 14.27 11.9904 14.108 11.9326 14.108C11.2007 14.044 9.74551 14.324 9.42237 15.032C9.37167 15.1505 9.34826 15.2776 9.35367 15.4052C9.35908 15.5327 9.39319 15.6577 9.45376 15.772C9.51434 15.8864 9.60002 15.9875 9.70523 16.0688C9.81044 16.1502 9.93281 16.2099 10.0644 16.244C10.6208 16.406 11.2777 16.142 11.725 15.844C12.2407 15.5 12.932 14.366 12.9576 14.324C13.5711 14.7159 14.1566 15.1448 14.7103 15.608C15.1212 15.95 15.5235 16.31 15.9237 16.676C15.7354 16.63 14.9885 16.476 14.9329 16.476C14.201 16.412 12.7458 16.692 12.4226 17.4C12.3723 17.5187 12.3491 17.6459 12.3547 17.7734C12.3602 17.901 12.3944 18.026 12.4549 18.1404C12.5154 18.2548 12.6009 18.3561 12.706 18.4377C12.811 18.5193 12.9332 18.5794 13.0646 18.614C13.621 18.776 14.278 18.512 14.7253 18.214C15.2282 17.878 15.8959 16.796 15.9536 16.704L16.4972 17.204C17.0857 17.752 17.6742 18.304 18.2734 18.832C18.4874 19.014 18.7014 19.188 18.9026 19.362C18.6179 19.302 18.0979 19.2 18.0466 19.196C17.3125 19.134 15.8595 19.414 15.5342 20.122C15.4839 20.2405 15.4607 20.3676 15.4663 20.495C15.4719 20.6224 15.506 20.7473 15.5666 20.8616C15.6271 20.9759 15.7126 21.077 15.8177 21.1583C15.9227 21.2397 16.0448 21.2996 16.1762 21.334C16.7305 21.496 17.3896 21.232 17.8368 20.934C18.2841 20.636 18.8683 19.734 19.0288 19.48C19.3819 19.766 19.7393 20.044 20.0988 20.302C20.2593 20.41 20.4155 20.53 20.576 20.626L21.049 20.922C21.3785 21.122 21.691 21.292 21.9991 21.462C22.1554 21.55 22.3052 21.628 22.4592 21.712C22.181 21.61 21.7381 21.456 21.6953 21.446C20.9826 21.28 19.4975 21.35 19.0631 22.004C18.9941 22.1145 18.9508 22.2373 18.9361 22.3644C18.9213 22.4916 18.9354 22.6202 18.9774 22.7419C19.0194 22.8637 19.0883 22.9757 19.1798 23.0709C19.2713 23.166 19.3832 23.242 19.5082 23.294C20.0303 23.534 20.7237 23.366 21.2202 23.134C21.7595 22.878 22.5727 21.934 22.6711 21.822C23.0499 22.022 23.4201 22.222 23.7689 22.39C24.702 22.858 25.5173 23.23 26.1486 23.506C28.203 25.166 31.0941 25.35 31.0941 25.35C31.0941 25.35 31.2461 22.114 29.2088 19.984C28.5019 19.2721 27.6372 18.7131 26.675 18.346ZM23.0092 21.5C23.0734 21.368 23.5656 20.34 23.5999 19.76C23.7133 19.74 23.8288 19.718 23.9401 19.694C24.1509 20.7173 24.5883 21.688 25.2241 22.544C24.8496 22.378 24.4452 22.194 24.0172 21.99C23.6876 21.838 23.3516 21.674 23.0092 21.5Z" fill="#92E3A9"/>
<path d="M41.8241 17.7261C41.8241 17.7261 38.3594 17.8261 36.2387 19.8841C34.1179 21.9421 34.1458 25.1821 34.1458 25.1821C34.1458 25.1821 37.6104 25.0821 39.729 23.0241C41.8476 20.9661 41.8241 17.7261 41.8241 17.7261Z" fill="#92E3A9"/>
<g opacity="0.5">
<path d="M19.3049 5.184C19.3049 5.184 20.4412 4.346 20.7323 3.808C20.9805 3.35 21.1603 2.702 20.9035 2.208C20.847 2.09183 20.765 1.98806 20.6629 1.90342C20.5608 1.81878 20.4407 1.75515 20.3105 1.71668C20.1804 1.6782 20.043 1.66574 19.9074 1.68009C19.7717 1.69445 19.6408 1.7353 19.5232 1.8C18.8234 2.2 18.7485 3.6 18.9261 4.26C18.9411 4.318 19.2942 5.2 19.3049 5.184Z" fill="white"/>
<path d="M8.80391 12.1701C8.84885 12.2101 9.65991 12.7581 9.65991 12.7441C9.65991 12.7301 10.12 11.4601 10.043 10.8621C9.97877 10.3521 9.74551 9.71808 9.24475 9.44408C9.12917 9.37557 8.99947 9.33055 8.86406 9.31195C8.72865 9.29334 8.59057 9.30156 8.45879 9.33608C8.327 9.3706 8.20446 9.43063 8.09911 9.5123C7.99377 9.59396 7.90799 9.69541 7.84733 9.81008C7.50493 10.5101 8.26035 11.7041 8.80391 12.1701Z" fill="white"/>
<path d="M32.605 6.4541C32.605 6.4541 28.447 10.4661 28.4684 15.4001C28.4898 20.3341 32.6885 24.3061 32.6885 24.3061C32.6885 24.3061 36.8465 20.2941 36.8229 15.3661C36.7994 10.4381 32.605 6.4541 32.605 6.4541Z" fill="white"/>
<path d="M26.675 18.346C26.7305 18.2904 26.7813 18.2309 26.827 18.168C27.1287 17.74 27.3877 17.116 27.1929 16.604C27.1516 16.4823 27.0833 16.37 26.9925 16.2744C26.9018 16.1789 26.7906 16.1022 26.6661 16.0494C26.5416 15.9966 26.4066 15.9689 26.2699 15.9679C26.1332 15.967 25.9978 15.9929 25.8725 16.044C25.3076 16.294 25.0294 17.14 24.9695 17.832C24.7555 17.784 24.5415 17.746 24.3681 17.72C24.2932 17.562 24.2183 17.404 24.1413 17.246C24.0642 17.088 24.0022 16.916 23.9273 16.75C23.8267 16.504 23.7368 16.246 23.6469 15.988C23.9765 15.85 24.9309 15.432 25.2905 15.062C25.65 14.692 26.0159 14.102 25.9068 13.568C25.8859 13.4416 25.8368 13.3207 25.7625 13.2132C25.6883 13.1057 25.5906 13.0141 25.4759 12.9442C25.3612 12.8744 25.2321 12.828 25.0969 12.8079C24.9616 12.7879 24.8234 12.7948 24.6913 12.828C23.9016 13.046 23.4372 14.366 23.4222 15.052C23.4222 15.074 23.4222 15.22 23.4501 15.394C23.3709 15.138 23.2896 14.886 23.2189 14.626C23.0156 13.888 22.8337 13.13 22.6476 12.372C22.609 12.214 22.5684 12.056 22.5277 11.898C22.8059 11.784 23.8481 11.338 24.2226 10.952C24.5971 10.566 24.9459 9.99203 24.8368 9.45803C24.8162 9.33145 24.7673 9.21036 24.6931 9.10271C24.619 8.99505 24.5213 8.90328 24.4065 8.8334C24.2917 8.76351 24.1624 8.71711 24.0271 8.69723C23.8918 8.67734 23.7535 8.68443 23.6213 8.71803C22.8337 8.93603 22.3694 10.256 22.3522 10.942C22.3522 10.968 22.3672 11.142 22.3865 11.342C22.2795 10.93 22.1725 10.522 22.0419 10.12C21.8318 9.42988 21.5722 8.75369 21.2651 8.09603C21.3636 8.05603 22.5962 7.55803 23.0114 7.12803C23.3794 6.74603 23.7368 6.16603 23.6277 5.63203C23.6065 5.50573 23.5572 5.38501 23.4828 5.27768C23.4085 5.17036 23.3109 5.07884 23.1962 5.00907C23.0816 4.93929 22.9526 4.89281 22.8175 4.87265C22.6824 4.85249 22.5443 4.85909 22.4122 4.89203C21.6225 5.11203 21.1581 6.43003 21.1431 7.11803C21.1431 7.16603 21.2031 7.79403 21.233 8.01803V7.99403C20.9141 7.35467 20.5353 6.74294 20.101 6.16603C19.7157 5.64962 19.2984 5.15477 18.8512 4.68403C18.4425 4.24203 18.038 3.86203 17.6763 3.52803C17.4816 3.34803 17.2976 3.18803 17.1242 3.04003H17.1413C17.1563 3.04003 16.7561 2.18203 16.7262 2.13003C16.356 1.53003 15.2688 0.588031 14.4642 0.752031C14.331 0.782699 14.2061 0.83929 14.0979 0.918107C13.9896 0.996925 13.9003 1.0962 13.8359 1.20944C13.7715 1.32269 13.7333 1.44736 13.724 1.57532C13.7146 1.70328 13.7342 1.83164 13.7815 1.95203C13.9613 2.46803 14.5733 2.81803 15.0934 2.98403C15.6134 3.15003 16.7882 3.07403 17.075 3.05003C17.2526 3.20603 17.4388 3.37603 17.64 3.56803C17.9909 3.91003 18.3847 4.29603 18.7827 4.74403C18.8897 4.86403 18.9967 4.99603 19.1059 5.12203C18.8769 4.94403 18.558 4.70603 18.5238 4.68603C17.9032 4.31603 16.4715 3.94403 15.8381 4.43603C15.7354 4.52057 15.6529 4.62434 15.5959 4.74061C15.539 4.85687 15.5088 4.98304 15.5074 5.11091C15.506 5.23878 15.5334 5.36551 15.5878 5.48285C15.6421 5.60019 15.7223 5.70553 15.8231 5.79203C16.2361 6.17203 16.9509 6.21803 17.4944 6.14403C18.038 6.07003 19.0759 5.47403 19.2942 5.34403C19.5296 5.62803 19.765 5.92403 19.9897 6.24603C20.4038 6.82375 20.7618 7.43483 21.0597 8.07203C21.0768 8.11003 21.0896 8.15003 21.1046 8.18603C21.0083 8.08003 20.4305 7.53403 20.3834 7.50003C19.8099 7.07003 18.4318 6.55403 17.7448 6.97803C17.6325 7.05123 17.538 7.14574 17.4674 7.25539C17.3969 7.36504 17.3518 7.48736 17.3353 7.61438C17.3187 7.7414 17.331 7.87026 17.3713 7.99254C17.4117 8.11482 17.4791 8.22778 17.5693 8.32403C17.9353 8.74403 18.6393 8.86403 19.1893 8.84403C19.8313 8.82403 21.0682 8.24403 21.1153 8.21403C21.396 8.85692 21.6312 9.51634 21.8194 10.188C21.9606 10.684 22.0826 11.188 22.2003 11.704C22.0719 11.568 21.5326 11.062 21.4898 11.028C20.9163 10.598 19.5381 10.082 18.8491 10.506C18.737 10.5794 18.6428 10.674 18.5724 10.7837C18.502 10.8933 18.4571 11.0156 18.4405 11.1425C18.424 11.2694 18.4362 11.3982 18.4763 11.5204C18.5165 11.6427 18.5837 11.7556 18.6736 11.852C19.0417 12.272 19.7436 12.392 20.2957 12.372C20.912 12.352 22.1104 11.794 22.2217 11.746C22.2752 11.978 22.3287 12.21 22.3801 12.444C22.5491 13.204 22.7139 13.968 22.9001 14.716C22.9664 14.976 23.0392 15.23 23.1141 15.484C22.9129 15.284 22.5384 14.934 22.5042 14.908C21.9307 14.476 20.5504 13.96 19.8634 14.384C19.7511 14.4572 19.6566 14.5517 19.586 14.6614C19.5155 14.771 19.4704 14.8934 19.4539 15.0204C19.4373 15.1474 19.4496 15.2763 19.4899 15.3985C19.5303 15.5208 19.5977 15.6338 19.6879 15.73C20.0539 16.152 20.7579 16.27 21.3079 16.252C21.8579 16.234 22.8765 15.784 23.1612 15.652C23.2874 16.074 23.4201 16.49 23.5742 16.894C23.6448 17.066 23.7026 17.246 23.7882 17.408L23.9059 17.666L23.7454 17.652C23.7454 17.652 23.7454 17.894 23.7604 18.284C23.1547 17.884 22.2816 17.534 21.7145 17.778C21.5918 17.8347 21.4833 17.9149 21.3959 18.0133C21.3085 18.1118 21.2443 18.2263 21.2073 18.3495C21.1704 18.4726 21.1616 18.6017 21.1815 18.7282C21.2014 18.8548 21.2496 18.976 21.3229 19.084C21.3594 19.1417 21.4016 19.1959 21.4492 19.246C21.5568 19.843 21.8265 20.4042 22.2324 20.876C22.2624 20.908 22.6732 21.264 22.8894 21.44C22.6754 21.336 22.4742 21.24 22.2602 21.118C21.9521 20.958 21.6311 20.78 21.3186 20.608L20.82 20.31C20.6552 20.216 20.5097 20.11 20.3513 20.006C20.1224 19.852 19.8955 19.684 19.6687 19.514C19.8613 19.23 20.4134 18.388 20.4947 17.896C20.576 17.404 20.5311 16.72 20.1245 16.332C20.033 16.237 19.9211 16.161 19.7961 16.1089C19.6712 16.0569 19.5359 16.03 19.399 16.03C19.2622 16.03 19.1269 16.0569 19.002 16.1089C18.877 16.161 18.7651 16.237 18.6736 16.332C18.145 16.932 18.5366 18.262 18.9282 18.844C18.9411 18.862 19.0374 18.978 19.1422 19.112C18.9282 18.942 18.7142 18.772 18.5002 18.592C17.8968 18.08 17.2976 17.542 16.6941 17.006L16.326 16.68C16.4908 16.442 17.0964 15.534 17.182 15.02C17.2676 14.506 17.2184 13.844 16.8139 13.454C16.7224 13.359 16.6105 13.283 16.4856 13.2309C16.3606 13.1789 16.2253 13.152 16.0885 13.152C15.9516 13.152 15.8164 13.1789 15.6914 13.2309C15.5664 13.283 15.4545 13.359 15.363 13.454C14.8344 14.054 15.226 15.382 15.6177 15.964C15.6305 15.986 15.7461 16.122 15.8766 16.274C15.5449 15.988 15.2111 15.704 14.8687 15.434C14.286 14.9667 13.6704 14.5364 13.0261 14.146C13.0839 14.062 13.8179 13.01 13.9121 12.438C13.9934 11.93 13.9485 11.262 13.5419 10.874C13.4506 10.779 13.3389 10.703 13.2141 10.651C13.0893 10.599 12.9541 10.5721 12.8175 10.5721C12.6808 10.5721 12.5457 10.599 12.4209 10.651C12.2961 10.703 12.1844 10.779 12.0931 10.874C11.5624 11.474 11.954 12.804 12.3456 13.386C12.3734 13.426 12.7971 13.92 12.9534 14.09L12.9298 14.076C12.2872 13.7062 11.6104 13.3909 10.9075 13.134C10.2785 12.8995 9.63538 12.6991 8.98153 12.534C8.37805 12.376 7.81737 12.268 7.32089 12.174C7.04911 12.126 6.80301 12.088 6.56975 12.052H6.58473C6.59543 12.052 5.75655 11.534 5.69877 11.508C5.04179 11.202 3.57589 10.974 3.00023 11.524C2.90759 11.6181 2.83717 11.7294 2.79354 11.8506C2.7499 11.9718 2.73403 12.1002 2.74694 12.2275C2.75986 12.3548 2.80127 12.4782 2.8685 12.5896C2.93574 12.7009 3.02728 12.7979 3.13719 12.874C3.59301 13.212 4.30777 13.188 4.84919 13.06C5.39061 12.932 6.31509 12.26 6.53979 12.092C6.77947 12.132 7.03627 12.178 7.31875 12.234C7.81309 12.336 8.36949 12.456 8.96441 12.634C9.12491 12.68 9.29397 12.734 9.45875 12.782C9.16129 12.754 8.75469 12.718 8.71403 12.718C7.98001 12.732 6.57403 13.158 6.32793 13.896C6.29161 14.0193 6.28355 14.1483 6.30427 14.2746C6.32498 14.401 6.37402 14.5218 6.44815 14.6293C6.52229 14.7367 6.61986 14.8283 6.73448 14.898C6.84911 14.9678 6.9782 15.0141 7.11331 15.034C7.68469 15.138 8.30743 14.808 8.71617 14.466C9.12491 14.124 9.63851 13.092 9.74551 12.866C10.1093 12.98 10.4795 13.106 10.8562 13.266C11.5439 13.5342 12.2049 13.8588 12.8314 14.236C12.8678 14.258 12.902 14.286 12.9384 14.308C12.795 14.27 11.9904 14.108 11.9326 14.108C11.2007 14.044 9.74551 14.324 9.42237 15.032C9.37167 15.1505 9.34826 15.2776 9.35367 15.4052C9.35908 15.5327 9.39319 15.6577 9.45376 15.772C9.51434 15.8864 9.60002 15.9875 9.70523 16.0688C9.81044 16.1502 9.93281 16.2099 10.0644 16.244C10.6208 16.406 11.2777 16.142 11.725 15.844C12.2407 15.5 12.932 14.366 12.9576 14.324C13.5711 14.7159 14.1566 15.1448 14.7103 15.608C15.1212 15.95 15.5235 16.31 15.9237 16.676C15.7354 16.63 14.9885 16.476 14.9329 16.476C14.201 16.412 12.7458 16.692 12.4226 17.4C12.3723 17.5187 12.3491 17.6459 12.3547 17.7734C12.3602 17.901 12.3944 18.026 12.4549 18.1404C12.5154 18.2548 12.6009 18.3561 12.706 18.4377C12.811 18.5193 12.9332 18.5794 13.0646 18.614C13.621 18.776 14.278 18.512 14.7253 18.214C15.2282 17.878 15.8959 16.796 15.9536 16.704L16.4972 17.204C17.0857 17.752 17.6742 18.304 18.2734 18.832C18.4874 19.014 18.7014 19.188 18.9026 19.362C18.6179 19.302 18.0979 19.2 18.0466 19.196C17.3125 19.134 15.8595 19.414 15.5342 20.122C15.4839 20.2405 15.4607 20.3676 15.4663 20.495C15.4719 20.6224 15.506 20.7473 15.5666 20.8616C15.6271 20.9759 15.7126 21.077 15.8177 21.1583C15.9227 21.2397 16.0448 21.2996 16.1762 21.334C16.7305 21.496 17.3896 21.232 17.8368 20.934C18.2841 20.636 18.8683 19.734 19.0288 19.48C19.3819 19.766 19.7393 20.044 20.0988 20.302C20.2593 20.41 20.4155 20.53 20.576 20.626L21.049 20.922C21.3785 21.122 21.691 21.292 21.9991 21.462C22.1554 21.55 22.3052 21.628 22.4592 21.712C22.181 21.61 21.7381 21.456 21.6953 21.446C20.9826 21.28 19.4975 21.35 19.0631 22.004C18.9941 22.1145 18.9508 22.2373 18.9361 22.3644C18.9213 22.4916 18.9354 22.6202 18.9774 22.7419C19.0194 22.8637 19.0883 22.9757 19.1798 23.0709C19.2713 23.166 19.3832 23.242 19.5082 23.294C20.0303 23.534 20.7237 23.366 21.2202 23.134C21.7595 22.878 22.5727 21.934 22.6711 21.822C23.0499 22.022 23.4201 22.222 23.7689 22.39C24.702 22.858 25.5173 23.23 26.1486 23.506C28.203 25.166 31.0941 25.35 31.0941 25.35C31.0941 25.35 31.2461 22.114 29.2088 19.984C28.5019 19.2721 27.6372 18.7131 26.675 18.346ZM23.0092 21.5C23.0734 21.368 23.5656 20.34 23.5999 19.76C23.7133 19.74 23.8288 19.718 23.9401 19.694C24.1509 20.7173 24.5883 21.688 25.2241 22.544C24.8496 22.378 24.4452 22.194 24.0172 21.99C23.6876 21.838 23.3516 21.674 23.0092 21.5Z" fill="white"/>
<path d="M41.8241 17.7261C41.8241 17.7261 38.3594 17.8261 36.2387 19.8841C34.1179 21.9421 34.1458 25.1821 34.1458 25.1821C34.1458 25.1821 37.6104 25.0821 39.729 23.0241C41.8476 20.9661 41.8241 17.7261 41.8241 17.7261Z" fill="white"/>
</g>
<path d="M32.7762 19.8121L36.1788 16.9541L36.0333 16.8021L32.774 19.5401L32.7569 15.7921L32.7762 15.8041L35.6523 11.8721L35.4726 11.7561L32.7569 15.4681L32.7141 6.4541H32.4958L32.5237 12.5741L30.358 10.8221L30.2167 10.9761L32.5258 12.8441L32.5451 17.2201L29.2623 14.5041L29.1189 14.6581L32.5472 17.4921L32.5643 21.4761L30.0969 19.6661L29.9642 19.8281L32.5665 21.7361L32.5793 24.3001H32.7976L32.7762 19.8121Z" fill="white"/>
<path d="M29.6411 20.916L29.425 20.892L29.151 23.156L27.6894 21.63H27.6937L27.3213 18.89L27.1052 18.916L27.4369 21.366L23.8053 17.572L23.6427 17.708L26.108 20.282L24.5479 20.3L24.55 20.504L26.3005 20.484L28.0275 22.29L25.5879 22.292V22.496L28.2223 22.494L29.793 24.134L28.0725 24.232L28.0875 24.434L29.9792 24.328L31.0257 25.422L31.1883 25.286L29.3458 23.36L29.6411 20.916Z" fill="white"/>
<path d="M37.863 21.722L40.7605 21.174L40.7156 20.974L38.1262 21.464L41.9012 17.798L41.7449 17.656L39.1834 20.144L39.0464 18.692L38.8303 18.71L38.9822 20.34L37.1846 22.084L37.0006 19.81L36.7823 19.826L36.9813 22.282L35.3485 23.868L35.1174 22.272L34.8991 22.298L35.1559 24.056L34.0666 25.112L34.2228 25.252L36.1403 23.392L38.7703 23.486L38.7789 23.282L36.3436 23.196L37.863 21.72V21.722Z" fill="white"/>
<path d="M43.2686 79.548L17.7812 36.062L0.171143 41.632L5.8828 52.012L5.52114 51.432L4.45114 51.764C4.34461 51.7973 4.24705 51.8518 4.16516 51.9237C4.08326 51.9955 4.01897 52.0831 3.97668 52.1804C3.9344 52.2776 3.91513 52.3823 3.9202 52.4872C3.92526 52.5921 3.95454 52.6947 4.00602 52.788L6.82226 57.906C7.00177 58.2333 7.28809 58.4986 7.63975 58.6637C7.9914 58.8287 8.39015 58.8849 8.77822 58.824L9.55932 58.702L23.2767 83.632L43.2686 79.548Z" fill="#2E353A"/>
<path d="M59.7337 17.2861C59.4598 17.426 59.1377 17.4586 58.838 17.3769C58.5384 17.2952 58.2856 17.1057 58.1352 16.8501L57.4825 15.7361L17.7812 36.0621L43.2686 79.5481L82.972 59.2241L69.0962 35.5501C68.9467 35.2944 68.9118 34.9936 68.9992 34.7139C69.0867 34.4342 69.2894 34.1983 69.5628 34.0581C69.6984 33.9887 69.8181 33.8949 69.915 33.7823C70.0118 33.6696 70.084 33.5402 70.1273 33.4014C70.1706 33.2627 70.1843 33.1173 70.1675 32.9736C70.1506 32.83 70.1037 32.6908 70.0293 32.5641L61.3302 17.7221C61.1802 17.4666 60.9278 17.2772 60.6285 17.1954C60.3292 17.1137 60.0074 17.1463 59.7337 17.2861Z" fill="#92E3A9" stroke="#2E353A" stroke-width="0.5" stroke-linecap="round" stroke-linejoin="round"/>
<path d="M61.7088 18.8905L29.4648 29.6328L44.8601 69.995L77.1041 59.2527L61.7088 18.8905Z" fill="white" stroke="#2E353A" stroke-width="0.5" stroke-linecap="round" stroke-linejoin="round"/>
<path d="M61.7105 18.892L29.4665 29.6343L35.1382 44.5037L67.3822 33.7615L61.7105 18.892Z" fill="white" stroke="#2E353A" stroke-width="0.5" stroke-linecap="round" stroke-linejoin="round"/>
<path d="M59.2148 34.1684C61.6225 32.7398 62.3351 29.7577 60.8066 27.5075C59.2781 25.2573 56.0871 24.5913 53.6795 26.0198C51.2718 27.4484 50.5591 30.4306 52.0877 32.6807C53.6162 34.9309 56.8071 35.5969 59.2148 34.1684Z" fill="#2E353A" stroke="#2E353A" stroke-width="0.5" stroke-linecap="round" stroke-linejoin="round"/>
<path d="M58.1801 34.646C58.896 34.4083 59.5467 34.0255 60.0857 33.5252C60.6248 33.0249 61.0388 32.4194 61.2981 31.752C60.4014 29.876 58.2101 28.898 56.237 29.552C54.2639 30.206 53.2303 32.264 53.806 34.246C54.4585 34.6098 55.189 34.8343 55.9451 34.9035C56.7013 34.9726 57.4645 34.8847 58.1801 34.646Z" fill="white" stroke="#2E353A" stroke-width="0.5" stroke-linecap="round" stroke-linejoin="round"/>
<path d="M57.8343 31.0308C58.9175 30.1364 59.0199 28.5906 58.0628 27.5782C57.1058 26.5659 55.4518 26.4702 54.3686 27.3646C53.2853 28.2591 53.183 29.8048 54.1401 30.8172C55.0971 31.8296 56.751 31.9252 57.8343 31.0308Z" fill="white" stroke="#2E353A" stroke-width="0.5" stroke-linecap="round" stroke-linejoin="round"/>
<path d="M45.6047 30.2228L34.3205 33.9822L34.7825 35.1935L46.0667 31.4341L45.6047 30.2228Z" fill="white" stroke="#2E353A" stroke-width="0.5" stroke-linecap="round" stroke-linejoin="round"/>
<path d="M46.7162 33.1332L35.4321 36.8926L35.8941 38.1039L47.1783 34.3445L46.7162 33.1332Z" fill="white" stroke="#2E353A" stroke-width="0.5" stroke-linecap="round" stroke-linejoin="round"/>
<path d="M47.6387 35.5555L36.3545 39.3149L36.5859 39.9216L47.8701 36.1622L47.6387 35.5555Z" fill="#2E353A"/>
<path d="M48.1938 37.0111L36.9096 40.7705L37.141 41.3771L48.4252 37.6177L48.1938 37.0111Z" fill="#2E353A"/>
<path d="M51.0142 44.4054L39.73 48.1648L39.9614 48.7714L51.2455 45.012L51.0142 44.4054Z" fill="#2E353A"/>
<path d="M51.5217 45.7401L40.2375 49.4995L40.4689 50.1061L51.753 46.3467L51.5217 45.7401Z" fill="#2E353A"/>
<path d="M52.0313 47.0729L40.7471 50.8323L40.9785 51.4389L52.2627 47.6795L52.0313 47.0729Z" fill="#2E353A"/>
<path d="M66.319 39.3058L55.0348 43.0652L55.2662 43.6718L66.5504 39.9124L66.319 39.3058Z" fill="#2E353A"/>
<path d="M66.8286 40.6405L55.5445 44.3999L55.7758 45.0065L67.06 41.2471L66.8286 40.6405Z" fill="#2E353A"/>
<path d="M67.3363 41.9738L56.0521 45.7332L56.2835 46.3398L67.5676 42.5804L67.3363 41.9738Z" fill="#2E353A"/>
<path d="M39.0057 47.0442L66.2458 37.9722" stroke="#2E353A" stroke-width="0.5" stroke-linecap="round" stroke-linejoin="round"/>
<path d="M53.6498 51.3148L42.3656 55.0742L42.597 55.6808L53.8812 51.9214L53.6498 51.3148Z" fill="#2E353A"/>
<path d="M54.1574 52.6503L42.8732 56.4097L43.1046 57.0163L54.3888 53.2569L54.1574 52.6503Z" fill="#2E353A"/>
<path d="M54.667 53.983L43.3828 57.7424L43.6142 58.349L54.8984 54.5896L54.667 53.983Z" fill="#2E353A"/>
<path d="M68.9547 46.2159L57.6706 49.9753L57.9019 50.582L69.1861 46.8226L68.9547 46.2159Z" fill="#2E353A"/>
<path d="M69.4644 47.5507L58.1802 51.3101L58.4116 51.9167L69.6958 48.1573L69.4644 47.5507Z" fill="#2E353A"/>
<path d="M69.972 48.8839L58.6878 52.6433L58.9192 53.2499L70.2034 49.4905L69.972 48.8839Z" fill="#2E353A"/>
<path d="M41.6401 53.9541L68.8801 44.8821" stroke="#2E353A" stroke-width="0.5" stroke-linecap="round" stroke-linejoin="round"/>
<path d="M70.9888 51.5485L44.2679 60.4507L46.5796 66.5111L73.3004 57.6089L70.9888 51.5485Z" fill="#2E353A" stroke="#2E353A" stroke-width="0.5" stroke-linecap="round" stroke-linejoin="round"/>
<path d="M57.4882 21.3887L26.0273 33.9968L44.0966 73.3788L75.5576 60.7707L57.4882 21.3887Z" fill="white" stroke="#2E353A" stroke-width="0.5" stroke-linecap="round" stroke-linejoin="round"/>
<path d="M57.4898 21.3894L26.0288 33.9976L32.6856 48.5059L64.1466 35.8978L57.4898 21.3894Z" fill="white" stroke="#2E353A" stroke-width="0.5" stroke-linecap="round" stroke-linejoin="round"/>
<path d="M57.3521 35.4585C58.8743 33.2046 58.1533 30.2242 55.7416 28.8016C53.3299 27.3789 50.1409 28.0528 48.6186 30.3067C47.0964 32.5606 47.8174 35.541 50.2291 36.9636C52.6408 38.3863 55.8298 37.7124 57.3521 35.4585Z" fill="#2E353A" stroke="#2E353A" stroke-width="0.5" stroke-linecap="round" stroke-linejoin="round"/>
<path d="M55.0215 37.32C55.7199 37.0406 56.3436 36.6202 56.8479 36.0892C57.3521 35.5581 57.7245 34.9293 57.9383 34.248C56.9197 32.43 54.6663 31.58 52.7424 32.352C50.8185 33.124 49.924 35.234 50.6302 37.178C51.3058 37.5024 52.0498 37.6834 52.8089 37.7079C53.568 37.7325 54.3235 37.6 55.0215 37.32Z" fill="white" stroke="#2E353A" stroke-width="0.5" stroke-linecap="round" stroke-linejoin="round"/>
<path d="M54.3659 33.7879C55.4228 32.8664 55.4804 31.3186 54.4944 30.3308C53.5084 29.343 51.8523 29.2892 50.7953 30.2107C49.7384 31.1321 49.6808 32.6799 50.6668 33.6677C51.6528 34.6556 53.3089 34.7093 54.3659 33.7879Z" fill="white" stroke="#2E353A" stroke-width="0.5" stroke-linecap="round" stroke-linejoin="round"/>
<path d="M42.1741 33.6426L31.1639 38.0549L31.7062 39.2368L42.7164 34.8245L42.1741 33.6426Z" fill="white" stroke="#2E353A" stroke-width="0.5" stroke-linecap="round" stroke-linejoin="round"/>
<path d="M43.4772 36.4809L32.467 40.8933L33.0093 42.0752L44.0195 37.6629L43.4772 36.4809Z" fill="white" stroke="#2E353A" stroke-width="0.5" stroke-linecap="round" stroke-linejoin="round"/>
<path d="M44.563 38.8452L33.5529 43.2576L33.8245 43.8494L44.8346 39.4371L44.563 38.8452Z" fill="#2E353A"/>
<path d="M45.2141 40.2646L34.2039 44.677L34.4755 45.2689L45.4856 40.8565L45.2141 40.2646Z" fill="#2E353A"/>
<path d="M48.5253 47.4795L37.5152 51.8918L37.7867 52.4837L48.7969 48.0714L48.5253 47.4795Z" fill="#2E353A"/>
<path d="M49.1223 48.7803L38.1122 53.1926L38.3838 53.7845L49.3939 49.3721L49.1223 48.7803Z" fill="#2E353A"/>
<path d="M49.7174 50.0837L38.7072 54.4961L38.9788 55.088L49.989 50.6756L49.7174 50.0837Z" fill="#2E353A"/>
<path d="M63.4572 41.4975L52.447 45.9099L52.7186 46.5018L63.7287 42.0894L63.4572 41.4975Z" fill="#2E353A"/>
<path d="M64.0533 42.7964L53.0432 47.2087L53.3148 47.8006L64.3249 43.3882L64.0533 42.7964Z" fill="#2E353A"/>
<path d="M64.6525 44.0991L53.6423 48.5115L53.9139 49.1034L64.9241 44.691L64.6525 44.0991Z" fill="#2E353A"/>
<path d="M36.7159 50.816L63.2947 40.166" stroke="#2E353A" stroke-width="0.5" stroke-linecap="round" stroke-linejoin="round"/>
<path d="M51.6176 54.2226L40.6074 58.635L40.879 59.2269L51.8891 54.8145L51.6176 54.2226Z" fill="#2E353A"/>
<path d="M52.2159 55.5217L41.2057 59.9341L41.4773 60.526L52.4874 56.1136L52.2159 55.5217Z" fill="#2E353A"/>
<path d="M52.8129 56.8244L41.8027 61.2368L42.0743 61.8287L53.0845 57.4163L52.8129 56.8244Z" fill="#2E353A"/>
<path d="M66.5526 48.2383L55.5425 52.6506L55.814 53.2425L66.8242 48.8301L66.5526 48.2383Z" fill="#2E353A"/>
<path d="M67.1488 49.5371L56.1386 53.9495L56.4102 54.5413L67.4204 50.129L67.1488 49.5371Z" fill="#2E353A"/>
<path d="M67.7439 50.8406L56.7337 55.2529L57.0053 55.8448L68.0154 51.4324L67.7439 50.8406Z" fill="#2E353A"/>
<path d="M39.8082 57.5582L66.387 46.9082" stroke="#2E353A" stroke-width="0.5" stroke-linecap="round" stroke-linejoin="round"/>
<path d="M68.939 53.4405L42.867 63.8889L45.5802 69.8022L71.6521 59.3538L68.939 53.4405Z" fill="#2E353A" stroke="#2E353A" stroke-width="0.5" stroke-linecap="round" stroke-linejoin="round"/>
<path d="M50.2939 21.1282L21.5817 38.5476L46.5464 74.4887L75.2586 57.0693L50.2939 21.1282Z" fill="white" stroke="#2E353A" stroke-width="0.5" stroke-linecap="round" stroke-linejoin="round"/>
<path d="M50.2951 21.1299L21.5829 38.5493L30.78 51.7901L59.4921 34.3707L50.2951 21.1299Z" fill="white" stroke="#2E353A" stroke-width="0.5" stroke-linecap="round" stroke-linejoin="round"/>
<path d="M48.7714 37.929C51.5864 37.5015 53.4975 35.0222 53.0401 32.3914C52.5826 29.7606 49.9298 27.9744 47.1148 28.4019C44.2999 28.8295 42.3887 31.3087 42.8462 33.9395C43.3036 36.5704 45.9564 38.3565 48.7714 37.929Z" fill="#2E353A" stroke="#2E353A" stroke-width="0.5" stroke-linecap="round" stroke-linejoin="round"/>
<path d="M50.7586 37.2002C51.3962 36.814 51.9346 36.3009 52.3353 35.6976C52.736 35.0942 52.989 34.4156 53.0762 33.7102C51.7409 32.0782 49.3655 31.6022 47.6107 32.6662C45.8559 33.7302 45.3551 35.9542 46.4058 37.7582C47.1305 37.971 47.8966 38.0314 48.6491 37.9349C49.4016 37.8384 50.122 37.5875 50.7586 37.2002Z" fill="#92E3A9" stroke="#2E353A" stroke-width="0.5" stroke-linecap="round" stroke-linejoin="round"/>
<path d="M49.0827 34.2164C50.1829 33.3403 50.315 31.7965 49.3776 30.7682C48.4402 29.7399 46.7883 29.6165 45.688 30.4926C44.5877 31.3687 44.4557 32.9125 45.3931 33.9407C46.3305 34.969 47.9824 35.0924 49.0827 34.2164Z" fill="white" stroke="#2E353A" stroke-width="0.5" stroke-linecap="round" stroke-linejoin="round"/>
<path d="M37.4283 35.6348L27.3801 41.731L28.1293 42.8096L38.1775 36.7135L37.4283 35.6348Z" fill="white" stroke="#2E353A" stroke-width="0.5" stroke-linecap="round" stroke-linejoin="round"/>
<path d="M39.227 38.2254L29.1788 44.3215L29.928 45.4002L39.9762 39.304L39.227 38.2254Z" fill="white" stroke="#2E353A" stroke-width="0.5" stroke-linecap="round" stroke-linejoin="round"/>
<path d="M40.5467 40.6497L30.4838 46.6956L30.8559 47.2365L40.9188 41.1907L40.5467 40.6497Z" fill="#2E353A"/>
<path d="M41.6276 41.678L31.5794 47.7742L31.9546 48.3143L42.0028 42.2182L41.6276 41.678Z" fill="#2E353A"/>
<path d="M46.2024 48.2623L36.1542 54.3584L36.5294 54.8986L46.5776 48.8024L46.2024 48.2623Z" fill="#2E353A"/>
<path d="M47.027 49.4515L36.9789 55.5476L37.3541 56.0878L47.4022 49.9916L47.027 49.4515Z" fill="#2E353A"/>
<path d="M47.8517 50.6407L37.8035 56.7368L38.1787 57.277L48.2269 51.1808L47.8517 50.6407Z" fill="#2E353A"/>
<path d="M59.8316 39.993L49.7834 46.0891L50.1586 46.6293L60.2068 40.5331L59.8316 39.993Z" fill="#2E353A"/>
<path d="M60.658 41.181L50.6099 47.2771L50.9851 47.8173L61.0332 41.7211L60.658 41.181Z" fill="#2E353A"/>
<path d="M61.4827 42.3702L51.4345 48.4663L51.8097 49.0065L61.8579 42.9103L61.4827 42.3702Z" fill="#2E353A"/>
<path d="M35.1751 53.416L59.4299 38.698" stroke="#2E353A" stroke-width="0.5" stroke-linecap="round" stroke-linejoin="round"/>
<path d="M50.4769 54.4173L40.4287 60.5134L40.8039 61.0536L50.8521 54.9575L50.4769 54.4173Z" fill="#2E353A"/>
<path d="M51.3003 55.6048L41.2522 61.7009L41.6274 62.2411L51.6755 56.145L51.3003 55.6048Z" fill="#2E353A"/>
<path d="M52.1268 56.7908L42.0786 62.887L42.4538 63.4271L52.502 57.331L52.1268 56.7908Z" fill="#2E353A"/>
<path d="M64.106 46.148L54.0579 52.2441L54.4331 52.7843L64.4812 46.6882L64.106 46.148Z" fill="#2E353A"/>
<path d="M64.9313 47.3345L54.8831 53.4307L55.2583 53.9708L65.3065 47.8747L64.9313 47.3345Z" fill="#2E353A"/>
<path d="M65.7538 48.5237L55.7057 54.6199L56.0809 55.16L66.129 49.0639L65.7538 48.5237Z" fill="#2E353A"/>
<path d="M39.4487 59.568L63.7035 44.8521" stroke="#2E353A" stroke-width="0.5" stroke-linecap="round" stroke-linejoin="round"/>
<path d="M67.4071 50.8979L43.6131 65.3335L47.3616 70.7301L71.1556 56.2945L67.4071 50.8979Z" fill="#2E353A" stroke="#2E353A" stroke-width="0.5" stroke-linecap="round" stroke-linejoin="round"/>
<path d="M17.7812 36.062L2.56152 25.05L11.618 40.928C11.832 41.312 11.2649 41.384 10.6871 41.044C10.1029 40.702 9.52722 40.778 9.7562 41.166L14.4535 49.1461C14.5281 49.2598 14.6264 49.3584 14.7424 49.436L17.0365 51.0521C17.1558 51.1307 17.2558 51.2323 17.3297 51.35L26.8334 68.2201L43.2707 79.548L17.7812 36.062Z" fill="#92E3A9" stroke="#2E353A" stroke-width="0.5" stroke-linecap="round" stroke-linejoin="round"/>
<path opacity="0.25" d="M17.7812 36.062L2.56152 25.05L11.618 40.928C11.832 41.312 11.2649 41.384 10.6871 41.044C10.1029 40.702 9.52722 40.778 9.7562 41.166L14.4535 49.1461C14.5281 49.2598 14.6264 49.3584 14.7424 49.436L17.0365 51.0521C17.1558 51.1307 17.2558 51.2323 17.3297 51.35L26.8334 68.2201L43.2707 79.548L17.7812 36.062Z" fill="#2E353A" stroke="#2E353A" stroke-width="0.5" stroke-linecap="round" stroke-linejoin="round"/>
<path d="M82.6082 60.304C82.605 60.2968 82.5988 60.2911 82.5911 60.288C82.3407 60.186 80.2371 60.204 80.1815 60.32C80.1815 60.334 80.1922 60.352 80.2243 60.372C80.2692 60.3984 80.3164 60.4212 80.3655 60.44C80.4254 60.464 80.4982 60.49 80.5795 60.516C80.6608 60.542 80.7379 60.568 80.8213 60.592L81.1787 60.696L81.367 60.748L81.4911 60.78L79.3126 62.75C78.8588 63.1372 78.3823 63.5004 77.8852 63.838L77.7868 63.746C77.6444 63.6174 77.4936 63.4972 77.3353 63.386V63.334C77.1509 63.4437 76.9585 63.5413 76.7596 63.626C76.0149 63.976 73.9262 64.852 73.1815 66.256C72.8082 66.9685 72.3939 67.6615 71.9403 68.332V68.424H71.8804C71.1592 68.366 69.7853 68.814 68.7753 69.28C67.9127 69.7258 67.082 70.2235 66.2886 70.77L65.5053 71.028C65.2207 71.066 64.6986 71.128 64.6258 71.21C64.553 71.292 64.0459 71.21 63.8212 71.262C63.5965 71.314 63.6607 71.462 63.6607 71.462L64.0887 71.5L61.266 72.418L63.5365 74.102L66.616 73.034L66.7808 73.072C67.1091 73.1663 67.464 73.1369 67.7695 72.99C67.8781 72.9519 67.9845 72.9085 68.0883 72.86C68.6576 72.79 70.3888 72.434 70.9902 72.31C71.4417 72.882 72.73 73.844 72.9504 74.26C72.9608 74.282 72.9694 74.3048 72.9761 74.328C72.9761 74.328 72.9761 74.338 72.9761 74.344C72.9805 74.3611 72.9805 74.3789 72.9761 74.396C72.8741 74.6287 72.7411 74.8485 72.5802 75.05C72.2869 74.9369 71.9841 74.8466 71.675 74.78C70.5044 74.528 69.8645 75.664 69.6612 75.72C69.4579 75.776 69.2097 75.944 69.4472 76.104C69.6848 76.264 69.3252 76.412 69.1797 76.628C69.0893 76.7987 69.0279 76.9816 68.9978 77.17C68.2253 77.232 67.564 77.53 67.3928 77.97C67.1788 78.532 69.1283 78.944 69.1283 78.944C69.1283 78.944 71.8269 79.93 73.8856 79.312C75.9443 78.694 75.8651 77.664 76.0256 77.112C76.1861 76.56 77.866 75.202 79.7513 74.256C81.6367 73.31 82.4563 72.456 80.663 71.174C79.486 70.332 78.4502 69.928 77.5963 69.896C77.6177 69.848 77.6413 69.8 77.6648 69.754L77.7076 69.666C77.7333 69.616 77.7633 69.568 77.7911 69.518L77.8339 69.446C77.8788 69.374 77.9259 69.304 77.9773 69.234C78.0666 69.1153 78.1447 68.9895 78.2105 68.858C78.4185 68.4516 78.4735 67.9914 78.3667 67.552C78.3302 67.4254 78.31 67.2951 78.3068 67.164C78.3496 66.902 78.8161 65.872 78.936 65.414C78.9404 65.3821 78.9404 65.3499 78.936 65.318C78.9188 65.1888 78.8752 65.0639 78.8076 64.95C79.2891 64.682 80.2585 64.194 80.7036 63.732C81.1487 63.27 82.1224 61.624 82.4862 60.78C82.5012 60.746 82.5141 60.712 82.5269 60.68C82.5397 60.65 82.5504 60.618 82.5611 60.59C82.5697 60.562 82.5783 60.536 82.5868 60.512V60.502C82.5868 60.482 82.5996 60.46 82.6039 60.442C82.6029 60.4387 82.6029 60.4353 82.6039 60.432C82.6039 60.414 82.6039 60.398 82.6039 60.384V60.37C82.6049 60.3594 82.6049 60.3487 82.6039 60.338V60.322C82.6039 60.322 82.6104 60.31 82.6082 60.304ZM71.2384 71.562C70.5771 71.734 69.0535 72.184 68.2424 72.436L66.7444 71.154C67.1082 70.978 67.915 70.65 68.8309 70.282C69.6802 69.9848 70.5612 69.7735 71.4588 69.652C71.5332 69.7807 71.5818 69.921 71.6022 70.066C71.6877 70.3139 71.7951 70.5547 71.9232 70.786C71.7511 71.0839 71.5185 71.3475 71.2384 71.562Z" fill="#2E353A"/>
<path d="M79.8418 50.5297C79.7939 50.5961 79.7815 50.6817 79.8086 50.759C80.2534 52.0238 80.6255 53.31 80.9234 54.6119C81.0743 55.3851 81.3071 56.5738 81.5023 57.5699L81.7523 58.8452L81.8012 59.0942C81.6535 59.1061 81.4635 59.1238 81.2719 59.1483C81.0685 59.1743 80.8534 59.2093 80.6834 59.2559C80.5999 59.2788 80.5135 59.3081 80.4419 59.3477C80.3886 59.3771 80.2557 59.459 80.237 59.6215C80.2248 59.7275 80.2731 59.8087 80.2991 59.846C80.3295 59.8898 80.3677 59.9277 80.403 59.9587C80.4749 60.0218 80.5708 60.0874 80.6754 60.1514C80.8873 60.281 81.1698 60.4252 81.4585 60.5566C81.7476 60.6882 82.0504 60.8103 82.3043 60.8943C82.4307 60.9361 82.5502 60.9701 82.6523 60.9906C82.7034 61.0008 82.7546 61.0085 82.803 61.0113C82.8477 61.0139 82.908 61.0136 82.9682 60.9957C83.0611 60.9681 83.1123 60.9014 83.1334 60.8703C83.1586 60.8331 83.1762 60.7931 83.1889 60.7593C83.2147 60.6904 83.236 60.6044 83.2544 60.5113C83.2917 60.3225 83.3249 60.0639 83.3545 59.7611C83.4138 59.1532 83.4605 58.3411 83.4912 57.4923C83.5523 55.8038 83.5517 53.929 83.4529 53.2177C83.3527 52.4962 83.0395 51.6697 82.7518 50.9887C82.6547 50.7587 82.5581 50.5402 82.4727 50.3469C82.4314 50.2533 82.3927 50.1657 82.3577 50.0855C82.3034 49.9607 82.2582 49.854 82.2245 49.7669C82.1892 49.6759 82.1721 49.6204 82.1668 49.5928C82.1267 49.3843 82.0631 49.0788 82.0099 48.8269C81.9832 48.7006 81.9591 48.5872 81.9415 48.5054L81.9208 48.4087L81.9151 48.3824L81.9136 48.3756L81.9132 48.3738L81.9131 48.3734L81.9131 48.3733L81.9131 48.3732L81.6688 48.426L81.9131 48.3732C81.8923 48.2767 81.8166 48.2015 81.7199 48.1813C81.6233 48.1611 81.5238 48.1997 81.4661 48.2797L79.8418 50.5297Z" fill="white" stroke="#2E353A" stroke-width="0.5" stroke-linecap="round" stroke-linejoin="round"/>
<path d="M82.9654 60.9964C83.0563 60.9706 83.108 60.9074 83.1305 60.8756C83.1565 60.8388 83.1747 60.7991 83.1877 60.7659C83.2142 60.6983 83.2358 60.6141 83.2545 60.5232C83.2926 60.3388 83.3274 60.0846 83.3597 59.7825C83.3701 59.6854 83.323 59.5911 83.2391 59.5411C83.1553 59.4911 83.05 59.4945 82.9695 59.5498C82.7223 59.7197 82.5322 59.7101 82.4104 59.6758C82.3721 59.6649 82.3382 59.6509 82.3095 59.6365L82.3466 59.3613C82.3566 59.2876 82.3332 59.2132 82.2827 59.1584C82.2322 59.1037 82.16 59.0743 82.0857 59.0782L82.0989 59.3279L82.0856 59.0782L82.0855 59.0782L82.0852 59.0783L82.0842 59.0783L82.0805 59.0785L82.0666 59.0793L82.0147 59.0825C81.9702 59.0853 81.9069 59.0896 81.8309 59.0955C81.6792 59.1074 81.4755 59.1258 81.2697 59.1522C81.0663 59.1782 80.8513 59.2131 80.6812 59.2598C80.5978 59.2826 80.5114 59.312 80.4397 59.3516C80.3865 59.381 80.2535 59.4628 80.2348 59.6253C80.2226 59.7315 80.2711 59.8128 80.2971 59.8501C80.3277 59.8939 80.366 59.9317 80.4014 59.9627C80.4733 60.0256 80.5694 60.0909 80.6741 60.1547C80.8862 60.2837 81.169 60.4272 81.4579 60.5579C81.7472 60.6888 82.0502 60.8104 82.3042 60.894C82.4307 60.9356 82.5501 60.9696 82.6522 60.99C82.7032 61.0002 82.7543 61.008 82.8025 61.0109C82.8467 61.0135 82.906 61.0134 82.9654 60.9964ZM82.9654 60.9964C82.965 60.9965 82.9645 60.9966 82.964 60.9968L82.8971 60.7559L82.9668 60.996C82.9664 60.9961 82.9659 60.9962 82.9654 60.9964Z" fill="#92E3A9" stroke="#2E353A" stroke-width="0.5" stroke-linecap="round" stroke-linejoin="round"/>
<path d="M79.1008 32.586L79.3489 32.5558C79.342 32.4988 79.3156 32.4458 79.2742 32.406L79.1008 32.586ZM79.1008 32.586L79.2742 32.4059L79.2741 32.4058L79.2737 32.4055L79.2723 32.4041L79.2668 32.3989L79.2456 32.3784L79.1647 32.3008C79.0948 32.2339 78.9946 32.1382 78.8733 32.0228C78.6307 31.7921 78.3031 31.4825 77.9636 31.1673C77.6244 30.8524 77.2719 30.5307 76.98 30.2763C76.8342 30.1493 76.7016 30.0374 76.5924 29.951C76.4914 29.8712 76.3882 29.7949 76.3097 29.7588C76.1809 29.6997 76.0462 29.6751 75.9162 29.7039C75.7833 29.7332 75.6832 29.8122 75.6186 29.9078C75.499 30.0848 75.492 30.3278 75.5846 30.5095C75.601 30.5417 75.6283 30.5813 75.6512 30.6134C75.6779 30.6511 75.7127 30.6983 75.754 30.7531C75.8366 30.8627 75.9484 31.0072 76.08 31.1746C76.3432 31.5097 76.6882 31.9404 77.0431 32.3772C77.398 32.8139 77.7636 33.2576 78.068 33.6184C78.3679 33.9738 78.6193 34.262 78.74 34.377C78.8104 34.4441 78.9648 34.5563 79.1481 34.4736C79.2264 34.4382 79.2751 34.3792 79.3039 34.3324C79.3332 34.2849 79.3522 34.234 79.3653 34.1885C79.4149 34.0169 79.4231 33.7682 79.4195 33.5423C79.4157 33.3066 79.398 33.0598 79.3815 32.8737C79.3732 32.7802 79.3651 32.7012 79.3591 32.6454L79.3518 32.58L79.3497 32.5624L79.3492 32.5577L79.349 32.5564L79.349 32.556L79.349 32.5559L79.1008 32.586Z" fill="white" stroke="#2E353A" stroke-width="0.5" stroke-linecap="round" stroke-linejoin="round"/>
<path d="M72.7649 25.5635C72.6864 25.4527 72.5338 25.4248 72.4212 25.5007L69.0422 27.7767C68.9855 27.8148 68.947 27.8744 68.9354 27.9417C68.9239 28.009 68.9404 28.0781 68.981 28.1329L72.9785 33.5229C73.0188 33.5772 73.0792 33.6128 73.1462 33.6218C73.2131 33.6308 73.2808 33.6123 73.3339 33.5705L76.424 31.1405C76.5287 31.0582 76.5505 30.9082 76.4735 30.7995L72.7649 25.5635Z" fill="#2E353A" stroke="#2E353A" stroke-width="0.5" stroke-linecap="round" stroke-linejoin="round"/>
<path d="M72.7885 26.1494C72.71 26.0386 72.5574 26.0107 72.4448 26.0866L69.5857 28.0126C69.5291 28.0507 69.4905 28.1104 69.479 28.1777C69.4675 28.245 69.4839 28.314 69.5246 28.3689L72.9079 32.9309C72.9482 32.9851 73.0086 33.0208 73.0755 33.0297C73.1425 33.0387 73.2102 33.0202 73.2633 32.9785L75.8783 30.9225C75.9831 30.8401 76.0048 30.6901 75.9278 30.5814L72.7885 26.1494Z" fill="#92E3A9" stroke="#2E353A" stroke-width="0.5" stroke-linecap="round" stroke-linejoin="round"/>
<mask id="path-98-outside-1_0_1" maskUnits="userSpaceOnUse" x="72.8383" y="28.0286" width="5" height="4" fill="black">
<rect fill="white" x="72.8383" y="28.0286" width="5" height="4"/>
<path d="M76.5071 30.416C76.3974 30.1635 76.2627 29.9211 76.1047 29.692C75.8265 29.292 75.6489 29.078 75.1589 29.104C74.7947 29.114 74.4305 29.0892 74.0717 29.03C73.7914 29.002 73.7871 29.38 73.9348 29.51C74.0824 29.64 74.8978 29.608 74.8978 29.608C74.8143 29.506 74.8764 29.672 75.4157 30.366C75.5676 30.566 76.1005 30.6 76.2203 30.612"/>
</mask>
<path d="M76.5071 30.416C76.3974 30.1635 76.2627 29.9211 76.1047 29.692C75.8265 29.292 75.6489 29.078 75.1589 29.104C74.7947 29.114 74.4305 29.0892 74.0717 29.03C73.7914 29.002 73.7871 29.38 73.9348 29.51C74.0824 29.64 74.8978 29.608 74.8978 29.608C74.8143 29.506 74.8764 29.672 75.4157 30.366C75.5676 30.566 76.1005 30.6 76.2203 30.612" fill="white"/>
<path d="M76.0484 30.6152C76.1584 30.8685 76.4529 30.9847 76.7062 30.8747C76.9595 30.7647 77.0757 30.4702 76.9657 30.2169L76.0484 30.6152ZM76.1047 29.692L76.5164 29.4082L76.5152 29.4066L76.1047 29.692ZM75.1589 29.104L75.1726 29.604L75.1854 29.6033L75.1589 29.104ZM74.0717 29.03L74.1531 28.5367C74.1426 28.535 74.132 28.5336 74.1214 28.5325L74.0717 29.03ZM74.8978 29.608L74.9174 30.1077C75.1069 30.1002 75.2759 29.9862 75.3537 29.8132C75.4316 29.6403 75.4049 29.4382 75.2847 29.2914L74.8978 29.608ZM75.4157 30.366L75.8138 30.0636L75.8105 30.0592L75.4157 30.366ZM76.1705 31.1096C76.4453 31.1371 76.6903 30.9366 76.7178 30.6619C76.7453 30.3871 76.5449 30.142 76.2701 30.1145L76.1705 31.1096ZM76.9657 30.2169C76.843 29.9344 76.6925 29.6636 76.5164 29.4082L75.6931 29.9759C75.8329 30.1786 75.9518 30.3927 76.0484 30.6152L76.9657 30.2169ZM76.5152 29.4066C76.3832 29.2167 76.2236 28.9897 76.0017 28.8313C75.7492 28.6511 75.4633 28.5872 75.1324 28.6047L75.1854 29.6033C75.3445 29.5949 75.3924 29.625 75.4207 29.6452C75.4798 29.6874 75.5481 29.7674 75.6943 29.9775L76.5152 29.4066ZM75.1452 28.6042C74.8128 28.6133 74.4804 28.5907 74.1531 28.5367L73.9903 29.5234C74.3806 29.5878 74.7767 29.6147 75.1726 29.6039L75.1452 28.6042ZM74.1214 28.5325C73.9316 28.5136 73.7341 28.5628 73.5781 28.7021C73.4332 28.8317 73.3712 28.9969 73.3494 29.1296C73.3104 29.3664 73.3731 29.6817 73.6044 29.8853L74.2652 29.1348C74.3156 29.1792 74.3299 29.2211 74.3334 29.2326C74.3376 29.2467 74.3406 29.2651 74.3361 29.292C74.3319 29.3174 74.3144 29.3853 74.2445 29.4477C74.1636 29.5201 74.0717 29.5325 74.022 29.5276L74.1214 28.5325ZM73.6044 29.8853C73.7007 29.9701 73.8082 30.0094 73.8672 30.0281C73.9365 30.0501 74.0074 30.0643 74.0699 30.0741C74.1955 30.0939 74.3337 30.103 74.4531 30.1074C74.5751 30.112 74.6903 30.112 74.7742 30.111C74.8165 30.1105 74.8515 30.1097 74.8762 30.109C74.8886 30.1086 74.8985 30.1083 74.9054 30.1081C74.9089 30.108 74.9117 30.1079 74.9137 30.1078C74.9147 30.1078 74.9155 30.1077 74.9161 30.1077C74.9164 30.1077 74.9167 30.1077 74.9169 30.1077C74.917 30.1077 74.9171 30.1077 74.9172 30.1077C74.9172 30.1077 74.9173 30.1077 74.9173 30.1077C74.9173 30.1077 74.9174 30.1077 74.8978 29.608C74.8782 29.1084 74.8782 29.1084 74.8782 29.1084C74.8783 29.1084 74.8783 29.1084 74.8783 29.1084C74.8783 29.1084 74.8783 29.1084 74.8783 29.1084C74.8784 29.1084 74.8783 29.1084 74.8782 29.1084C74.8781 29.1084 74.8777 29.1084 74.8772 29.1085C74.8761 29.1085 74.8742 29.1086 74.8717 29.1087C74.8667 29.1088 74.8589 29.1091 74.8487 29.1094C74.8283 29.1099 74.7984 29.1106 74.7619 29.111C74.6883 29.112 74.5905 29.1119 74.4902 29.1081C74.3873 29.1043 74.294 29.0971 74.2252 29.0863C74.1905 29.0808 74.1735 29.0762 74.1699 29.075C74.1561 29.0707 74.2058 29.0825 74.2652 29.1348L73.6044 29.8853ZM75.2847 29.2914C75.2744 29.2788 75.2317 29.2255 75.171 29.1806C75.1538 29.168 75.1133 29.1393 75.0556 29.1163C75.0146 29.1 74.8531 29.0405 74.6657 29.1236C74.4427 29.2225 74.3847 29.425 74.3723 29.5121C74.3603 29.597 74.3732 29.6642 74.3781 29.6876C74.396 29.7737 74.4359 29.8446 74.4416 29.8554C74.4582 29.8864 74.4781 29.9199 74.4997 29.9543C74.5852 30.0906 74.7473 30.3208 75.0208 30.6728L75.8105 30.0592C75.5447 29.7173 75.4061 29.5175 75.3467 29.4227C75.3321 29.3994 75.3255 29.3876 75.3239 29.3847C75.3116 29.3616 75.3418 29.41 75.3572 29.4841C75.3614 29.5045 75.3742 29.5693 75.3624 29.6524C75.3503 29.7378 75.293 29.9393 75.0711 30.0377C74.8847 30.1204 74.7247 30.061 74.6856 30.0454C74.6297 30.0231 74.5915 29.9958 74.5769 29.9851C74.5446 29.9612 74.5245 29.9397 74.5211 29.9361C74.5174 29.9323 74.5148 29.9294 74.5134 29.9277C74.5119 29.926 74.511 29.9249 74.5108 29.9247L75.2847 29.2914ZM75.0175 30.6685C75.1309 30.8178 75.2835 30.9002 75.391 30.9464C75.5062 30.996 75.6263 31.0277 75.7276 31.0489C75.9281 31.0909 76.1271 31.1052 76.1705 31.1096L76.2701 30.1145C76.1937 30.1069 76.0663 30.0982 75.9325 30.0702C75.8666 30.0564 75.8174 30.0413 75.7863 30.0279C75.7474 30.0112 75.7764 30.0143 75.8138 30.0636L75.0175 30.6685Z" fill="#2E353A" mask="url(#path-98-outside-1_0_1)"/>
<path d="M79.9126 21.6159C79.8986 21.6379 79.8882 21.6619 79.8817 21.6872C79.7499 22.1954 79.6637 22.7131 79.624 23.2349C79.6235 23.2413 79.6233 23.2476 79.6233 23.2539C79.6233 23.3967 79.6439 23.5324 79.6654 23.6497C79.6734 23.6933 79.6811 23.7325 79.6883 23.7689C79.7018 23.8379 79.7133 23.8967 79.7212 23.9563C79.7329 24.0443 79.7297 24.093 79.7216 24.1208C79.717 24.1367 79.7106 24.1513 79.678 24.1704C79.4037 24.3319 79.3256 24.5963 79.3463 24.8291C79.3647 25.0346 79.4579 25.2296 79.5641 25.362C79.5689 25.3781 79.5748 25.4032 79.5817 25.4398C79.5963 25.517 79.6107 25.6194 79.6287 25.7473L79.6302 25.7581C79.6666 26.0176 79.7152 26.3601 79.803 26.6993C79.89 27.0356 80.021 27.3917 80.235 27.6693C80.4557 27.9556 80.7694 28.1622 81.1967 28.1679C81.9087 28.1774 82.6062 28.0113 83.1654 27.7496C83.7134 27.4931 84.1754 27.122 84.3472 26.6879C84.4868 26.3352 84.7333 25.6481 84.8345 24.924C84.9335 24.2152 84.905 23.3886 84.3972 22.8366C83.947 22.3474 83.0928 21.7026 82.2427 21.3354C81.818 21.152 81.3721 21.0279 80.9657 21.0427C80.5479 21.0579 80.1625 21.2224 79.9126 21.6159ZM79.5594 25.3481C79.5594 25.348 79.5598 25.3489 79.5606 25.351C79.5597 25.3492 79.5594 25.3481 79.5594 25.3481Z" fill="white" stroke="#2E353A" stroke-width="0.5" stroke-linecap="round" stroke-linejoin="round"/>
<mask id="path-101-outside-2_0_1" maskUnits="userSpaceOnUse" x="79.1301" y="23.0479" width="2" height="2" fill="black">
<rect fill="white" x="79.1301" y="23.0479" width="2" height="2"/>
<path d="M80.175 24.0479L80.3869 24.4118L80.1301 24.4199"/>
</mask>
<path d="M80.6071 23.7963C80.4682 23.5577 80.1621 23.4768 79.9235 23.6157C79.6848 23.7546 79.604 24.0607 79.7429 24.2994L80.6071 23.7963ZM80.3869 24.4118L80.4024 24.9116C80.5785 24.9061 80.7387 24.8084 80.8241 24.6543C80.9096 24.5002 80.9076 24.3126 80.819 24.1603L80.3869 24.4118ZM80.1145 23.9201C79.8385 23.9287 79.6217 24.1594 79.6303 24.4354C79.6389 24.7114 79.8696 24.9282 80.1456 24.9196L80.1145 23.9201ZM79.7429 24.2994L79.9547 24.6634L80.819 24.1603L80.6071 23.7963L79.7429 24.2994ZM80.3713 23.9121L80.1145 23.9201L80.1456 24.9196L80.4024 24.9116L80.3713 23.9121Z" fill="#2E353A" mask="url(#path-101-outside-2_0_1)"/>
<path d="M80.1322 23.4639V23.2139C80.0394 23.2139 79.9543 23.2653 79.911 23.3474C79.8678 23.4295 79.8736 23.5288 79.926 23.6053L80.354 24.2293C80.4171 24.3212 80.5334 24.3603 80.6391 24.3251C80.7449 24.2899 80.8146 24.189 80.81 24.0776C80.7948 23.7074 80.6628 23.4743 80.4868 23.342C80.4036 23.2795 80.3208 23.2476 80.2574 23.2314C80.2257 23.2233 80.1982 23.2189 80.1769 23.2166C80.1663 23.2154 80.1571 23.2147 80.1496 23.2144L80.1396 23.214L80.1356 23.2139L80.1338 23.2139L80.133 23.2139L80.1326 23.2139C80.1324 23.2139 80.1322 23.2139 80.1322 23.4639Z" stroke="#2E353A" stroke-width="0.5" stroke-linecap="round" stroke-linejoin="round"/>
<path d="M82.1081 27.3557C82.0462 27.4084 82.0137 27.4879 82.0211 27.5688C82.0704 28.1087 82.0708 28.6515 82.0222 29.1914C82.0125 29.2381 81.9917 29.2833 81.96 29.3237C81.8847 29.4197 81.8896 29.556 81.9717 29.6463C82.0538 29.7365 82.189 29.7544 82.2917 29.6885C82.9444 29.2696 83.6455 28.9203 84.382 28.6471L84.5943 28.5717C84.7053 28.5323 84.7737 28.4208 84.7586 28.3041C84.6505 27.466 84.5969 26.6226 84.598 25.7784C84.5982 25.6809 84.5416 25.5922 84.4531 25.5512C84.3646 25.5102 84.2603 25.5245 84.186 25.5877L82.1081 27.3557Z" fill="white" stroke="#2E353A" stroke-width="0.5" stroke-linecap="round" stroke-linejoin="round"/>
<path d="M76.429 51.2567C76.3412 51.2948 76.2828 51.3797 76.2787 51.4754L76.5285 51.486L76.2787 51.4755L76.2787 51.4756L76.2787 51.476L76.2786 51.4776L76.2784 51.4836L76.2775 51.5069L76.2742 51.5955C76.2715 51.672 76.2679 51.7823 76.2643 51.9174C76.2573 52.1875 76.2504 52.5577 76.2512 52.9573C76.2528 53.7426 76.2834 54.6858 76.4152 55.1857C76.4713 55.399 76.5713 56.0332 76.6904 56.8991C76.8083 57.7563 76.9424 58.8206 77.0678 59.8782C77.1931 60.9358 77.3095 61.9855 77.3922 62.8135C77.4335 63.2276 77.4663 63.5851 77.4875 63.8599C77.5094 64.1423 77.5174 64.3197 77.5137 64.3862C77.4945 64.7305 77.4775 64.9726 77.4654 65.1281C77.4646 65.1376 77.4639 65.1467 77.4632 65.1556L77.3088 65.1769C77.0963 65.2063 76.8103 65.2462 76.5173 65.2881C76.2243 65.3298 75.9236 65.3736 75.6815 65.4108C75.4484 65.4465 75.2493 65.479 75.1763 65.4984C75.0911 65.5209 74.9593 65.5778 74.8926 65.7123C74.81 65.879 74.8812 66.0391 74.973 66.1405C75.0607 66.2374 75.1966 66.3221 75.371 66.4008C75.5501 66.4816 75.7904 66.5649 76.1065 66.6495C76.4074 66.7301 76.6922 66.8217 76.9576 66.9093C76.9997 66.9232 77.0413 66.937 77.0826 66.9507C77.2993 67.0225 77.5048 67.0906 77.6885 67.1426C77.9041 67.2036 78.1146 67.2501 78.2974 67.2487C78.4846 67.2472 78.6902 67.1936 78.8209 67.0039C78.9063 66.8799 78.9868 66.6936 79.0602 66.4873C79.1356 66.2753 79.2104 66.0221 79.2794 65.7512C79.4172 65.2101 79.5353 64.5848 79.5892 64.0533C79.6423 63.5352 79.7045 62.996 79.7665 62.4594C79.8461 61.7689 79.9253 61.0827 79.9839 60.4517C80.088 59.3321 80.1355 58.3177 80.0004 57.6691C79.8859 57.1197 79.691 56.5129 79.5214 55.9848C79.4989 55.9149 79.4769 55.8464 79.4556 55.7796C79.3631 55.4897 79.2841 55.2336 79.2335 55.0265C79.2082 54.9232 79.1915 54.8374 79.1833 54.7694C79.1746 54.6971 79.178 54.6633 79.1799 54.6549C79.2219 54.468 79.587 53.2836 79.9488 52.1245C80.1282 51.5498 80.3048 50.9875 80.4366 50.5689L80.5953 50.0651L80.6396 49.9249L80.6513 49.888L80.6542 49.8786L80.655 49.8762L80.6552 49.8756L80.6552 49.8755L80.4169 49.8L80.6552 49.8754C80.6848 49.782 80.657 49.68 80.5843 49.6144C80.5116 49.5488 80.4073 49.5317 80.3174 49.5707L76.429 51.2567Z" fill="white" stroke="#2E353A" stroke-width="0.5" stroke-linecap="round" stroke-linejoin="round"/>
<path d="M78.8209 67.0038C78.8269 66.9951 78.8323 66.986 78.8372 66.9765C78.985 66.6898 79.0864 66.3837 79.1378 66.0682C79.1529 65.9758 79.115 65.8827 79.0398 65.827C78.9645 65.7713 78.8644 65.7624 78.7804 65.8038C78.5323 65.9262 78.239 65.907 77.9819 65.8399C77.9056 65.8199 77.8357 65.7966 77.7755 65.7737L77.9184 65.4878C77.9599 65.4048 77.952 65.3058 77.8981 65.2304C77.8441 65.1551 77.7528 65.1157 77.661 65.1283L77.6948 65.376L77.661 65.1283L77.6609 65.1283L77.6606 65.1283L77.6594 65.1285L77.6545 65.1292L77.6358 65.1317L77.5646 65.1415L77.3088 65.1768C77.0963 65.2062 76.8103 65.2462 76.5173 65.288C76.2243 65.3298 75.9236 65.3735 75.6815 65.4107C75.4484 65.4464 75.2493 65.479 75.1763 65.4983C75.0911 65.5208 74.9593 65.5777 74.8926 65.7122C74.81 65.879 74.8812 66.0391 74.973 66.1405C75.0607 66.2374 75.1966 66.3221 75.371 66.4007C75.5501 66.4815 75.7904 66.5649 76.1065 66.6495C76.4074 66.73 76.6922 66.8217 76.9576 66.9093C76.9996 66.9231 77.0413 66.9369 77.0825 66.9506C77.2992 67.0224 77.5048 67.0905 77.6885 67.1425C77.9041 67.2035 78.1146 67.25 78.2974 67.2486C78.4846 67.2471 78.6902 67.1935 78.8209 67.0038Z" fill="#92E3A9" stroke="#2E353A" stroke-width="0.5" stroke-linecap="round" stroke-linejoin="round"/>
<path d="M82.1079 27.3558C82.0461 27.4085 82.0138 27.4879 82.0211 27.5688C82.0707 28.1112 82.0708 28.6564 82.0216 29.1988C82.018 29.2213 81.99 29.2926 81.8856 29.4221C81.7865 29.5452 81.6442 29.6902 81.4672 29.8537C81.1638 30.1338 80.7798 30.449 80.3806 30.7767C80.3138 30.8315 80.2467 30.8867 80.1794 30.942C79.7148 31.3244 79.2445 31.7184 78.896 32.0725C78.722 32.2492 78.5702 32.4242 78.4636 32.5896C78.3624 32.7466 78.2743 32.9368 78.2959 33.1316C78.3208 33.3568 78.3681 33.6003 78.4186 33.8463C78.4287 33.8956 78.439 33.9451 78.4493 33.9946C78.4911 34.1959 78.5333 34.3994 78.569 34.6065C78.6582 35.1247 78.6986 35.627 78.5885 36.072C78.482 36.5018 78.1548 37.4213 77.7943 38.4345C77.7511 38.5559 77.7074 38.6787 77.6636 38.8022C77.2601 39.9381 76.8439 41.1292 76.7038 41.7642C76.5639 42.3985 76.2364 45.0652 76.0027 47.6087C75.8855 48.8841 75.7911 50.1375 75.7553 51.0996C75.7374 51.5798 75.7339 51.9932 75.7504 52.3024C75.7585 52.4563 75.772 52.592 75.7933 52.7003C75.8039 52.7542 75.8177 52.8082 75.8369 52.8571C75.8543 52.9014 75.8854 52.9661 75.9436 53.0175C76.1186 53.1721 76.3876 53.2459 76.656 53.2811C76.936 53.3179 77.2641 53.3183 77.6008 53.2899C78.2695 53.2335 79.015 53.0592 79.53 52.7871C80.0396 52.5179 80.7894 51.8958 81.4275 51.2335C81.749 50.8998 82.0494 50.5485 82.2821 50.2166C82.51 49.8917 82.6915 49.5599 82.745 49.2693C82.8326 48.7931 82.9247 48.0085 83.0096 47.2848L83.0122 47.263C83.0996 46.5182 83.1779 45.8576 83.2366 45.6122C83.2606 45.5118 83.3303 45.3628 83.4445 45.1195C83.553 44.8885 83.6883 44.5978 83.8162 44.2473C84.0731 43.5437 84.2989 42.6035 84.2425 41.3865C84.1894 40.2403 84.3842 38.9652 84.6242 37.7331C84.6965 37.3621 84.7733 36.9933 84.8482 36.6334C85.019 35.8129 85.1801 35.0391 85.2555 34.3931C85.3648 33.4564 85.3643 32.3602 85.2943 31.3744C85.2246 30.3937 85.0843 29.4975 84.9034 28.9691C84.746 28.5092 84.6658 27.7241 84.6274 27.0276C84.6085 26.6848 84.6001 26.3723 84.5964 26.1455C84.5945 26.0322 84.5939 25.9404 84.5937 25.8771L84.5937 25.8045L84.5937 25.7859L84.5938 25.7813L84.5938 25.7802L84.5938 25.78L84.5938 25.78C84.5945 25.6821 84.5381 25.5928 84.4494 25.5515C84.3607 25.5101 84.256 25.5243 84.1816 25.5878L82.1079 27.3558Z" fill="#92E3A9" stroke="#2E353A" stroke-width="0.5" stroke-linecap="round" stroke-linejoin="round"/>
<path d="M76.6996 41.7639C76.5584 42.3988 76.231 45.0655 75.9976 47.6086C75.8805 48.8841 75.7863 50.1374 75.7507 51.0995C75.7329 51.5797 75.7295 51.9931 75.746 52.3024C75.7542 52.4562 75.7677 52.5919 75.789 52.7002C75.7996 52.7542 75.8135 52.8082 75.8326 52.857C75.85 52.9013 75.8811 52.966 75.9393 53.0174C76.1143 53.172 76.3834 53.2458 76.6517 53.281C76.9317 53.3178 77.2599 53.3182 77.5965 53.2898C78.2652 53.2334 79.0108 53.0591 79.5257 52.787C80.0354 52.5178 80.7851 51.8957 81.4232 51.2334C81.7447 50.8997 82.0451 50.5484 82.2778 50.2165C82.5056 49.8918 82.687 49.5602 82.7406 49.2698C82.8301 48.789 82.9231 47.9947 83.0084 47.266L83.0087 47.2628C83.0959 46.5178 83.1736 45.8574 83.2323 45.6121C83.2563 45.5117 83.326 45.3627 83.4402 45.1194C83.5487 44.8884 83.684 44.5977 83.8119 44.2472C84.0688 43.5436 84.2946 42.6034 84.2383 41.3864L84.2382 41.386C84.1778 40.1283 84.4197 38.7158 84.6915 37.3736C84.7128 37.2682 84.6644 37.161 84.5713 37.1073C84.4781 37.0537 84.361 37.0656 84.2806 37.1369C83.9317 37.4463 83.3032 37.9612 82.5215 38.4187C81.7377 38.8775 80.8157 39.2694 79.8773 39.3509L79.8771 39.3509C79.1817 39.4121 78.7517 39.3446 78.4905 39.2382C78.2389 39.1357 78.142 38.9974 78.1004 38.8851C78.0639 38.7865 77.9695 38.7213 77.8643 38.722C77.759 38.7227 77.6655 38.7892 77.6304 38.8884C77.237 39.9971 76.8364 41.145 76.6996 41.7639ZM76.6996 41.7639C76.6996 41.7638 76.6996 41.7638 76.6996 41.7637L76.9436 41.818L76.6995 41.764C76.6995 41.764 76.6996 41.7639 76.6996 41.7639Z" fill="#2E353A" stroke="#2E353A" stroke-width="0.5" stroke-linecap="round" stroke-linejoin="round"/>
<path d="M82.0904 46.4919L79.2014 51.1959" stroke="white" stroke-width="0.5" stroke-linecap="round" stroke-linejoin="round"/>
<path d="M80.77 49.5L79.4496 51.968" stroke="white" stroke-width="0.5" stroke-linecap="round" stroke-linejoin="round"/>
<path d="M80.3456 33.5842C80.3687 33.8221 80.4911 34.049 80.643 34.2516C80.7976 34.4578 81.0007 34.6625 81.2193 34.858C81.5434 35.148 81.9229 35.436 82.2583 35.6906C82.3333 35.7476 82.4061 35.8029 82.4756 35.8561C82.4357 36.461 82.4322 37.0675 82.4652 37.6727C81.9689 38.4546 81.7152 39.3527 81.7355 40.2655L81.7355 40.2655L81.7357 40.2708C81.7676 41.0102 82.1568 41.5257 82.7103 41.8019C83.2516 42.072 83.9356 42.1085 84.5841 41.9465L84.5853 41.9462C84.899 41.8662 85.2053 41.7625 85.5012 41.6362C86.1405 41.8411 87.1233 41.8418 88.1071 41.5585C89.1507 41.2579 90.2338 40.6272 90.9399 39.527C91.3013 38.9639 91.497 38.4824 91.577 38.0471C91.6574 37.609 91.6178 37.2322 91.5295 36.8847C91.4675 36.6407 91.3779 36.4008 91.2925 36.1725C91.2605 36.087 91.2292 36.0031 91.2001 35.9212C91.09 35.6111 91 35.3 90.9791 34.9433C90.9449 34.3625 91.1497 34.0038 91.4004 33.5649C91.4487 33.4804 91.4986 33.3929 91.5489 33.3002C91.7022 33.0179 91.8486 32.6978 91.9156 32.2932C91.9828 31.8884 91.9681 31.4143 91.8218 30.822C91.2636 28.5613 89.7167 27.7008 88.3769 26.9555C88.306 26.916 88.2356 26.8769 88.166 26.8379L88.1655 26.8376C87.6242 26.5357 87.4347 26.0209 87.4075 25.5126C87.4073 25.5096 87.4071 25.5066 87.4068 25.5036L87.5405 24.3362C87.5412 24.3331 87.5419 24.33 87.5425 24.3268C87.763 23.1707 87.8676 21.5889 86.5438 19.9414C85.641 18.8171 84.2979 18.4664 83.2174 18.3871C82.6738 18.3473 82.1858 18.3751 81.8338 18.4128C81.6576 18.4316 81.5147 18.453 81.4152 18.4698C81.3654 18.4783 81.3263 18.4856 81.2994 18.4908L81.2852 18.4937C81.2671 18.4936 81.2413 18.4937 81.2088 18.4942C81.1438 18.4952 81.0515 18.498 80.9407 18.5052C80.72 18.5196 80.4209 18.5518 80.1143 18.6239C79.8104 18.6953 79.4825 18.8097 79.2159 18.9979C78.9441 19.1897 78.7263 19.4666 78.6812 19.8508C78.5317 21.1258 79.3913 22.3088 80.5796 22.6218C80.6034 22.6721 80.6348 22.7395 80.672 22.822C80.7469 22.9879 80.8449 23.2144 80.9514 23.4841C80.8643 23.5856 80.7939 23.7002 80.7437 23.824C80.6957 23.9424 80.7448 24.0771 80.8556 24.1374C80.8579 24.1391 80.8626 24.1427 80.8694 24.1488C80.8888 24.1662 80.9265 24.2052 80.9733 24.2795C81.0673 24.4287 81.198 24.7208 81.2872 25.2626C81.3223 25.4756 81.2627 25.7647 81.1203 26.1329C80.9899 26.4699 80.8051 26.8373 80.609 27.2271C80.5943 27.2564 80.5795 27.2857 80.5647 27.3152C80.3555 27.7317 80.1385 28.1705 79.986 28.5945C79.8344 29.0159 79.736 29.45 79.7879 29.8538C79.8914 30.6588 80.4159 31.0629 80.8352 31.3445C80.8839 31.3773 80.93 31.4076 80.9734 31.4362C81.1271 31.5375 81.2479 31.6172 81.3401 31.705C81.4446 31.8047 81.4719 31.8776 81.4612 31.9658C81.4334 32.1941 81.2855 32.2859 81.0075 32.4583C80.9886 32.47 80.9691 32.482 80.949 32.4946C80.8076 32.5827 80.6356 32.6978 80.5115 32.8735C80.3801 33.0595 80.317 33.2908 80.3456 33.5842ZM80.3456 33.5842C80.3456 33.5841 80.3456 33.5841 80.3456 33.584L80.5944 33.56L80.3456 33.5843C80.3456 33.5842 80.3456 33.5842 80.3456 33.5842Z" fill="#2E353A" stroke="#2E353A" stroke-width="0.5" stroke-linecap="round" stroke-linejoin="round"/>
<mask id="path-112-outside-3_0_1" maskUnits="userSpaceOnUse" x="79.5881" y="19.6421" width="7" height="22" fill="black">
<rect fill="white" x="79.5881" y="19.6421" width="7" height="22"/>
<path d="M80.5881 20.6421C81.2642 21.4836 82.0867 22.2131 83.0213 22.8001C84.7889 23.8441 83.5798 26.9741 82.1845 28.3641C80.7892 29.7541 81.0674 31.0601 82.6489 31.7541C84.2304 32.4481 87.0209 33.2321 85.4309 35.7541C83.8409 38.2761 83.6633 40.2741 85.9894 40.8841"/>
</mask>
<path d="M80.9779 20.3289C80.8049 20.1137 80.4902 20.0794 80.2749 20.2523C80.0596 20.4252 80.0253 20.74 80.1983 20.9552L80.9779 20.3289ZM83.0213 22.8001L82.7552 23.2237L82.767 23.2306L83.0213 22.8001ZM85.8626 41.3677C86.1297 41.4378 86.403 41.278 86.4731 41.0109C86.5431 40.7438 86.3834 40.4705 86.1163 40.4004L85.8626 41.3677ZM80.1983 20.9552C80.91 21.8412 81.7747 22.6076 82.7553 23.2235L83.2872 22.3767C82.3987 21.8186 81.6183 21.1261 80.9779 20.3289L80.1983 20.9552ZM82.767 23.2306C83.36 23.5808 83.5419 24.3194 83.3023 25.3378C83.0679 26.3339 82.4631 27.3808 81.8316 28.0099L82.5374 28.7183C83.3012 27.9574 83.9986 26.7443 84.2757 25.5669C84.5475 24.4118 84.4502 23.0633 83.2755 22.3696L82.767 23.2306ZM81.8316 28.0099C81.0793 28.7593 80.6781 29.5855 80.8066 30.3982C80.9364 31.2191 81.574 31.8284 82.448 32.2119L82.8498 31.2962C82.1423 30.9858 81.8501 30.5951 81.7943 30.242C81.7372 29.8807 81.8944 29.3588 82.5374 28.7183L81.8316 28.0099ZM82.448 32.2119C82.8924 32.407 83.2943 32.5555 83.766 32.7717C84.2118 32.9761 84.6087 33.1949 84.9035 33.448C85.1938 33.6972 85.3543 33.9524 85.3944 34.2334C85.435 34.5171 85.3661 34.9193 85.0079 35.4874L85.8539 36.0207C86.2907 35.3278 86.4693 34.6863 86.3844 34.092C86.2991 33.495 85.9612 33.038 85.5549 32.6892C85.1532 32.3443 84.6552 32.0793 84.1827 31.8627C83.7361 31.658 83.1961 31.4482 82.8498 31.2962L82.448 32.2119ZM85.0079 35.4874C84.2006 36.7679 83.686 38.0099 83.7423 39.0628C83.7714 39.6077 83.9543 40.1081 84.3281 40.5172C84.6966 40.9203 85.2174 41.1985 85.8626 41.3677L86.1163 40.4004C85.5984 40.2646 85.269 40.0644 85.0663 39.8425C84.8689 39.6266 84.7594 39.3555 84.7409 39.0094C84.7019 38.2803 85.0711 37.2623 85.8539 36.0207L85.0079 35.4874Z" fill="white" mask="url(#path-112-outside-3_0_1)"/>
<path d="M80.2452 19.7789C80.1649 19.6707 80.0132 19.6457 79.9024 19.7223C79.7915 19.7989 79.7613 19.9496 79.8341 20.063L80.0445 19.928L79.8341 20.0631L79.8342 20.0631L79.8342 20.0632L79.8344 20.0635L79.8349 20.0642L79.8364 20.0665L79.8416 20.0745L79.861 20.1036C79.8779 20.1286 79.9025 20.1644 79.9346 20.2094C79.9987 20.2993 80.0928 20.426 80.2142 20.5755C80.2999 20.6811 80.4542 20.6988 80.5616 20.6154C80.669 20.532 80.6901 20.3781 80.609 20.2689L80.2452 19.7789Z" stroke="white" stroke-width="0.5" stroke-linecap="round" stroke-linejoin="round"/>
<mask id="path-115-outside-4_0_1" maskUnits="userSpaceOnUse" x="86.9775" y="39.4438" width="3" height="2" fill="black">
<rect fill="white" x="86.9775" y="39.4438" width="3" height="2"/>
<path d="M87.9775 40.5858C88.1308 40.6201 88.29 40.6251 88.4455 40.6007C88.601 40.5763 88.7497 40.523 88.8827 40.4438"/>
</mask>
<path d="M88.0863 40.0978C87.8168 40.0377 87.5496 40.2075 87.4895 40.477C87.4294 40.7465 87.5991 41.0137 87.8686 41.0739L88.0863 40.0978ZM89.1383 40.8736C89.3756 40.7324 89.4536 40.4255 89.3124 40.1882C89.1712 39.9509 88.8644 39.873 88.6271 40.0141L89.1383 40.8736ZM87.8686 41.0739C88.0833 41.1217 88.3057 41.1288 88.523 41.0947L88.368 40.1068C88.2743 40.1214 88.1784 40.1184 88.0863 40.0978L87.8686 41.0739ZM88.523 41.0947C88.7403 41.0606 88.9496 40.9858 89.1383 40.8736L88.6271 40.0141C88.5497 40.0601 88.4617 40.0921 88.368 40.1068L88.523 41.0947Z" fill="white" mask="url(#path-115-outside-4_0_1)"/>
<mask id="path-117-outside-5_0_1" maskUnits="userSpaceOnUse" x="85.2698" y="30.0439" width="5" height="11" fill="black">
<rect fill="white" x="85.2698" y="30.0439" width="5" height="11"/>
<path d="M86.2698 31.0439C87.7121 31.5279 89.2658 31.9359 89.4391 33.3159C89.7195 35.5759 86.4624 36.6199 86.4624 38.4439C86.4624 39.3019 86.8112 39.9099 87.267 40.2599"/>
</mask>
<path d="M86.4288 30.5699C86.167 30.4821 85.8836 30.6231 85.7958 30.8849C85.7079 31.1467 85.8489 31.4301 86.1107 31.518L86.4288 30.5699ZM89.4391 33.3159L89.9353 33.2544L89.9352 33.2536L89.4391 33.3159ZM86.9625 40.6565C87.1815 40.8247 87.4954 40.7835 87.6636 40.5645C87.8318 40.3454 87.7906 40.0315 87.5715 39.8634L86.9625 40.6565ZM86.1107 31.518C86.8628 31.7703 87.5472 31.9744 88.0836 32.2788C88.5977 32.5705 88.8834 32.9033 88.943 33.3783L89.9352 33.2536C89.8215 32.3486 89.2437 31.7874 88.5771 31.4091C87.9327 31.0434 87.1191 30.8015 86.4288 30.5699L86.1107 31.518ZM88.9429 33.3775C89.0492 34.2346 88.5038 34.8963 87.7041 35.6881C87.3319 36.0566 86.8985 36.4616 86.5712 36.8854C86.2381 37.3167 85.9624 37.8307 85.9624 38.4439H86.9624C86.9624 38.1452 87.0938 37.8447 87.3626 37.4966C87.6373 37.141 88.0006 36.8018 88.4077 36.3988C89.1664 35.6476 90.1093 34.6573 89.9353 33.2544L88.9429 33.3775ZM85.9624 38.4439C85.9624 39.4469 86.3754 40.2057 86.9625 40.6565L87.5715 39.8634C87.247 39.6142 86.9624 39.157 86.9624 38.4439H85.9624Z" fill="white" mask="url(#path-117-outside-5_0_1)"/>
<mask id="path-119-outside-6_0_1" maskUnits="userSpaceOnUse" x="82.0212" y="21.8" width="5" height="10" fill="black">
<rect fill="white" x="82.0212" y="21.8" width="5" height="10"/>
<path d="M83.0212 22.8C83.0212 22.8 85.2533 23.582 85.8032 24.886C86.3532 26.19 82.9207 28.104 84.0356 29.756C84.3801 30.264 84.9965 30.582 85.6962 30.846"/>
</mask>
<path d="M83.1866 22.3282C82.926 22.2369 82.6407 22.3741 82.5494 22.6347C82.4581 22.8953 82.5953 23.1806 82.8559 23.2719L83.1866 22.3282ZM84.0356 29.756L83.6212 30.0358L83.6218 30.0367L84.0356 29.756ZM85.5198 31.3139C85.7781 31.4113 86.0666 31.2809 86.1641 31.0225C86.2615 30.7642 86.1311 30.4757 85.8727 30.3782L85.5198 31.3139ZM83.0212 22.8C82.8559 23.2719 82.8558 23.2719 82.8557 23.2719C82.8557 23.2719 82.8556 23.2718 82.8556 23.2718C82.8555 23.2718 82.8555 23.2718 82.8555 23.2718C82.8555 23.2718 82.8556 23.2718 82.8559 23.2719C82.8564 23.2721 82.8574 23.2725 82.859 23.273C82.8621 23.2741 82.8672 23.276 82.8743 23.2786C82.8883 23.2837 82.9101 23.2918 82.9385 23.3028C82.9953 23.3247 83.0787 23.3579 83.181 23.4019C83.3866 23.4903 83.6649 23.6206 83.9577 23.7881C84.5715 24.1391 85.1362 24.5912 85.3425 25.0804L86.2639 24.6917C85.9203 23.8769 85.094 23.286 84.4543 22.92C84.1203 22.729 83.8063 22.5823 83.5761 22.4833C83.4607 22.4336 83.3654 22.3956 83.298 22.3696C83.2643 22.3566 83.2375 22.3467 83.2186 22.3397C83.2092 22.3363 83.2017 22.3336 83.1963 22.3316C83.1936 22.3307 83.1915 22.3299 83.1898 22.3293C83.189 22.329 83.1883 22.3288 83.1878 22.3286C83.1875 22.3285 83.1873 22.3284 83.1871 22.3284C83.187 22.3283 83.1868 22.3283 83.1868 22.3283C83.1867 22.3282 83.1866 22.3282 83.0212 22.8ZM85.3425 25.0804C85.3824 25.1748 85.382 25.3506 85.1706 25.7126C84.9645 26.0653 84.6554 26.4367 84.3107 26.8864C83.9869 27.3088 83.6343 27.7985 83.4486 28.3114C83.2534 28.8507 83.2302 29.4565 83.6212 30.0358L84.45 29.4763C84.2835 29.2296 84.2713 28.9766 84.3889 28.6517C84.5161 28.3004 84.7782 27.9203 85.1044 27.4947C85.4097 27.0964 85.786 26.6415 86.034 26.217C86.2766 25.8017 86.4991 25.2493 86.2639 24.6917L85.3425 25.0804ZM83.6218 30.0367C84.0609 30.6841 84.8113 31.0466 85.5198 31.3139L85.8727 30.3782C85.1817 30.1175 84.6994 29.844 84.4494 29.4754L83.6218 30.0367Z" fill="white" mask="url(#path-119-outside-6_0_1)"/>
<mask id="path-121-outside-7_0_1" maskUnits="userSpaceOnUse" x="85.1328" y="19.9639" width="7" height="13" fill="black">
<rect fill="white" x="85.1328" y="19.9639" width="7" height="13"/>
<path d="M86.1328 20.9639C86.1328 20.9639 88.0588 22.8019 87.1793 24.8519C86.2997 26.9019 85.8953 27.8279 86.5373 28.3679C87.1793 28.9079 90.584 29.1399 91.4143 31.5999"/>
</mask>
<path d="M86.478 20.6021C86.2782 20.4115 85.9617 20.4189 85.7711 20.6187C85.5804 20.8184 85.5878 21.1349 85.7876 21.3256L86.478 20.6021ZM90.9406 31.7598C91.0289 32.0214 91.3126 32.1619 91.5742 32.0736C91.8359 31.9853 91.9764 31.7016 91.8881 31.44L90.9406 31.7598ZM86.1328 20.9639C85.7876 21.3256 85.7875 21.3255 85.7874 21.3253C85.7873 21.3253 85.7872 21.3252 85.7872 21.3251C85.787 21.325 85.7869 21.3249 85.7869 21.3249C85.7867 21.3247 85.7867 21.3247 85.7868 21.3248C85.7869 21.3249 85.7875 21.3255 85.7886 21.3265C85.7907 21.3286 85.7944 21.3323 85.7998 21.3377C85.8105 21.3484 85.8274 21.3657 85.8493 21.3891C85.8934 21.436 85.9574 21.5071 86.0327 21.5993C86.184 21.7847 86.3761 22.0497 86.5421 22.3695C86.8765 23.0137 87.0777 23.8204 86.7198 24.6547L87.6388 25.049C88.1603 23.8334 87.8383 22.696 87.4296 21.9087C87.2241 21.5127 86.9896 21.1902 86.8073 20.9669C86.7158 20.8547 86.6362 20.7662 86.5784 20.7046C86.5494 20.6738 86.5258 20.6495 86.5087 20.6324C86.5001 20.6238 86.4932 20.6169 86.488 20.6119C86.4855 20.6093 86.4833 20.6073 86.4816 20.6056C86.4808 20.6048 86.4801 20.6041 86.4795 20.6036C86.4792 20.6033 86.4789 20.603 86.4786 20.6028C86.4785 20.6026 86.4784 20.6025 86.4783 20.6024C86.4782 20.6023 86.478 20.6021 86.1328 20.9639ZM86.7198 24.6547C86.289 25.6588 85.9444 26.4528 85.801 27.0615C85.7278 27.3724 85.6943 27.6822 85.7526 27.9762C85.8143 28.2876 85.9719 28.5457 86.2154 28.7505L86.8591 27.9852C86.7816 27.92 86.749 27.8599 86.7335 27.7817C86.7146 27.6861 86.7168 27.5351 86.7744 27.2908C86.8926 26.789 87.19 26.0949 87.6388 25.049L86.7198 24.6547ZM86.2154 28.7505C86.3594 28.8716 86.5449 28.9581 86.7105 29.0247C86.885 29.095 87.0893 29.1627 87.3 29.2306C87.7318 29.3698 88.2189 29.5188 88.7122 29.7251C89.7065 30.141 90.5957 30.7379 90.9406 31.7598L91.8881 31.44C91.4027 30.0018 90.1743 29.2527 89.0981 28.8026C88.5562 28.5759 88.0199 28.412 87.6067 28.2788C87.395 28.2106 87.2215 28.1525 87.0837 28.097C86.9369 28.038 86.8756 27.9991 86.8591 27.9852L86.2154 28.7505Z" fill="white" mask="url(#path-121-outside-7_0_1)"/>
<path d="M78.516 38.0977C78.4986 38.072 78.4765 38.0498 78.451 38.0321C78.451 38.0321 78.451 38.0321 78.451 38.0321L78.4508 38.032L78.45 38.0315L78.4463 38.0289L78.4308 38.018C78.417 38.0083 78.3964 37.9936 78.3696 37.9744C78.316 37.9358 78.238 37.8787 78.1413 37.8054C77.9477 37.6587 77.68 37.4477 77.384 37.191C76.7883 36.6743 76.0941 35.986 75.654 35.2744C75.1935 34.5298 74.7714 33.8444 74.4669 33.3251C74.3144 33.0651 74.1935 32.8503 74.1125 32.6923C74.0718 32.6127 74.0436 32.5522 74.0267 32.5099C74.0229 32.5005 74.0201 32.4929 74.018 32.487C74.0302 32.38 74.0532 32.1484 74.0458 31.8985C74.0417 31.7577 74.0277 31.6039 73.9938 31.4593C73.9605 31.3178 73.9035 31.1644 73.7992 31.043C73.7076 30.9364 73.5748 30.8379 73.4436 30.7532C73.3085 30.6659 73.157 30.5818 73.0148 30.5071C72.9029 30.4482 72.7933 30.3934 72.7004 30.347C72.6754 30.3345 72.6516 30.3226 72.6294 30.3114C72.5758 30.2845 72.5318 30.2621 72.4982 30.2439C72.4729 30.2303 72.4601 30.2225 72.4554 30.2197C72.4529 30.2181 72.4527 30.218 72.4541 30.2191C72.3363 30.1267 72.1975 30.1346 72.0997 30.1753C72.0044 30.2149 71.9284 30.2901 71.8825 30.3788C71.8348 30.471 71.8162 30.5845 71.8453 30.7023C71.8596 30.76 71.8842 30.8144 71.9176 30.8648L71.0312 30.6527C70.9273 30.6279 70.8191 30.6718 70.7619 30.762C70.6893 30.8765 70.6548 31.0108 70.665 31.1467C70.6753 31.2824 70.7294 31.4099 70.8175 31.5126C70.8235 31.5196 70.8298 31.5262 70.8366 31.5325C70.9192 31.6097 71.0251 31.6615 71.1114 31.6983C71.1751 31.7254 71.2468 31.7516 71.3098 31.7747C71.3332 31.7832 71.3553 31.7913 71.3754 31.7989C71.457 31.8295 71.5118 31.8534 71.5461 31.8746C71.5586 31.9273 71.5803 31.9729 71.601 32.0087C71.6295 32.0581 71.6652 32.1045 71.7015 32.1462C71.7739 32.2295 71.8659 32.3134 71.9574 32.39C72.1003 32.5097 72.2627 32.6285 72.3809 32.7149C72.4092 32.7356 72.4349 32.7544 72.4573 32.771C72.5541 32.8584 72.6663 32.9275 72.7879 32.9757L72.7945 32.996C72.8241 33.0871 72.8671 33.2186 72.921 33.3806C73.0287 33.7045 73.18 34.1504 73.3539 34.6387C73.6998 35.6096 74.142 36.7672 74.5127 37.4581C74.8796 38.1417 75.3432 38.856 75.8157 39.4281C76.0519 39.714 76.294 39.9689 76.531 40.1674C76.7645 40.363 77.0099 40.5181 77.2527 40.5817C77.52 40.6517 77.7836 40.5896 78.0084 40.4864C78.234 40.3829 78.4434 40.2278 78.6179 40.0749C78.7938 39.9208 78.9428 39.7613 79.0474 39.6412C79.1 39.5808 79.1418 39.5298 79.1709 39.4935C79.1854 39.4753 79.1967 39.4607 79.2046 39.4505L79.2138 39.4385L79.2164 39.435L79.2172 39.434L79.2175 39.4336L79.2176 39.4335C79.2176 39.4334 79.2177 39.4334 79.0173 39.2839L79.2177 39.4334C79.2813 39.3481 79.284 39.2318 79.2243 39.1437L78.516 38.0977ZM74.0131 32.4717C74.0121 32.4678 74.0125 32.4682 74.0132 32.472L74.0131 32.4717ZM71.5659 31.8887C71.5658 31.8887 71.5648 31.8879 71.5634 31.8864C71.5652 31.8879 71.566 31.8887 71.5659 31.8887Z" fill="white" stroke="#2E353A" stroke-width="0.5" stroke-linecap="round" stroke-linejoin="round"/>
<path d="M79.9182 40.2019L80.1271 40.3393L80.1272 40.3391L80.1276 40.3384L80.1294 40.3358L80.1363 40.3252L80.1634 40.2841L80.2663 40.1271C80.3552 39.9914 80.4827 39.7963 80.6374 39.5587C80.9467 39.0834 81.3646 38.4378 81.7988 37.7565C82.6609 36.4037 83.6054 34.8828 83.8735 34.2957C84.1788 33.6273 84.0029 32.7917 83.584 32.2092C83.1582 31.6172 82.4274 31.2203 81.5989 31.554C81.5842 31.5599 81.5701 31.5672 81.5568 31.5758L81.6923 31.7859C81.5568 31.5758 81.5568 31.5758 81.5567 31.5759L81.5566 31.5759L81.5562 31.5762L81.5553 31.5768L81.5522 31.5788L81.5418 31.5857C81.533 31.5916 81.5204 31.6 81.5047 31.6109C81.4731 31.6327 81.4285 31.6644 81.3742 31.7052C81.266 31.7865 81.1183 31.9046 80.9598 32.0527C80.6475 32.3446 80.2719 32.7724 80.0895 33.2816C80.0171 33.4837 79.8635 33.7738 79.659 34.1158C79.4569 34.4538 79.2139 34.8279 78.9715 35.1941C78.8779 35.3355 78.784 35.4762 78.6928 35.613C78.5492 35.8282 78.4121 36.0338 78.2929 36.2165C78.1019 36.5096 77.94 36.7694 77.87 36.93L77.8699 36.93L77.8669 36.9377C77.7669 37.1896 77.6304 37.4282 77.4609 37.6466C77.4175 37.7025 77.3999 37.7742 77.4123 37.8438L77.6584 37.7999C77.4123 37.8438 77.4123 37.8439 77.4123 37.8439L77.4123 37.8441L77.4124 37.8446L77.4126 37.8459L77.4134 37.8497L77.4158 37.8624C77.418 37.8731 77.4211 37.8881 77.4253 37.907C77.4337 37.9448 77.4465 37.9983 77.4647 38.064C77.5011 38.1951 77.5591 38.3761 77.6467 38.5783C77.8204 38.979 78.1187 39.4827 78.6132 39.8354C79.0677 40.1597 79.3786 40.3157 79.587 40.3895C79.6918 40.4267 79.7733 40.444 79.836 40.4504C79.8675 40.4536 79.8944 40.4542 79.9172 40.453C79.9286 40.4524 79.939 40.4515 79.9484 40.4502C79.953 40.4496 79.9575 40.4489 79.9616 40.4481L79.9677 40.4469L79.9706 40.4463L79.972 40.446L79.9727 40.4459C79.9731 40.4458 79.9734 40.4457 79.9182 40.2019ZM79.9182 40.2019L80.127 40.3394C80.0915 40.3933 80.0364 40.4315 79.9734 40.4457L79.9182 40.2019Z" fill="#92E3A9" stroke="#2E353A" stroke-width="0.5" stroke-linecap="round" stroke-linejoin="round"/>
</svg>
