
<svg width="30" height="31" viewBox="0 0 30 31" fill="none" xmlns="http://www.w3.org/2000/svg">
<path d="M6.75 24.2617C7.32646 23.6315 10.0263 20.7312 10.8175 20.7312H19.183C20.3295 20.7312 22.67 23.1353 23.25 23.9828M27 15.476C27 21.9456 21.6274 27.1903 15 27.1903C8.37258 27.1903 3 21.9456 3 15.476C3 9.00638 8.37258 3.76172 15 3.76172C21.6274 3.76172 27 9.00638 27 15.476ZM19.2985 11.4833C19.2985 9.24845 17.3659 7.42243 15.0004 7.42243C12.6349 7.42243 10.7022 9.24845 10.7022 11.4833C10.7022 13.7182 12.6349 15.5442 15.0004 15.5442C17.3658 15.5442 19.2985 13.7182 19.2985 11.4833Z" stroke="white" stroke-width="2"/>
</svg>
