<svg width="27" height="24" viewBox="0 0 27 24" fill="none" xmlns="http://www.w3.org/2000/svg">
<path d="M17.2134 4H18.006C19.6628 4 21.006 5.34315 21.006 7V18C21.006 19.6569 19.6628 21 18.006 21H8.83582C7.17896 21 5.83582 19.6569 5.83582 18V7C5.83582 5.34315 7.17896 4 8.83582 4H9.62835" stroke="#92E3A9" stroke-width="1.5"/>
<path d="M9.08658 18H17.7552" stroke="#92E3A9" stroke-width="1.5" stroke-linecap="round"/>
<rect x="9.83658" y="2.75" width="7.16866" height="2.5" rx="1.25" stroke="#92E3A9" stroke-width="1.5"/>
<path d="M14.8381 9C14.8381 9.63481 14.2614 10.25 13.4209 10.25C12.5804 10.25 12.0038 9.63481 12.0038 9C12.0038 8.36519 12.5804 7.75 13.4209 7.75C14.2614 7.75 14.8381 8.36519 14.8381 9Z" stroke="#92E3A9" stroke-width="1.5"/>
<path d="M16.6717 15C16.6717 13.3431 15.2162 12 13.4209 12C11.6256 12 10.1702 13.3431 10.1702 15" stroke="#92E3A9" stroke-width="1.5" stroke-linecap="round"/>
</svg>
