
<svg width="20" height="24" viewBox="0 0 20 24" fill="none" xmlns="http://www.w3.org/2000/svg">
<path d="M13.9167 5.5415L5.52083 10.7082M5.52083 13.9373L13.9167 18.4582M13.9167 5.5415L5.52083 10.7082M5.52083 13.9373L13.9167 18.4582M6.16667 11.9998C6.16667 13.4266 5.01007 14.5832 3.58333 14.5832C2.1566 14.5832 1 13.4266 1 11.9998C1 10.5731 2.1566 9.4165 3.58333 9.4165C5.01007 9.4165 6.16667 10.5731 6.16667 11.9998ZM19.0833 4.24984C19.0833 5.67657 17.9267 6.83317 16.5 6.83317C15.0733 6.83317 13.9167 5.67657 13.9167 4.24984C13.9167 2.8231 15.0733 1.6665 16.5 1.6665C17.9267 1.6665 19.0833 2.8231 19.0833 4.24984ZM19.0833 19.7498C19.0833 21.1766 17.9267 22.3332 16.5 22.3332C15.0733 22.3332 13.9167 21.1766 13.9167 19.7498C13.9167 18.3231 15.0733 17.1665 16.5 17.1665C17.9267 17.1665 19.0833 18.3231 19.0833 19.7498ZM6.16667 11.9998C6.16667 13.4266 5.01007 14.5832 3.58333 14.5832C2.1566 14.5832 1 13.4266 1 11.9998C1 10.5731 2.1566 9.4165 3.58333 9.4165C5.01007 9.4165 6.16667 10.5731 6.16667 11.9998Z" stroke="black" stroke-width="1.5" stroke-linejoin="round"/>
</svg>
