
<svg width="24" height="24" viewBox="0 0 24 24" fill="none" xmlns="http://www.w3.org/2000/svg">
<path d="M15.9167 5.5415L7.52083 10.7082M7.52083 13.9373L15.9167 18.4582M15.9167 5.5415L7.52083 10.7082M7.52083 13.9373L15.9167 18.4582M8.16667 11.9998C8.16667 13.4266 7.01007 14.5832 5.58333 14.5832C4.1566 14.5832 3 13.4266 3 11.9998C3 10.5731 4.1566 9.4165 5.58333 9.4165C7.01007 9.4165 8.16667 10.5731 8.16667 11.9998ZM21.0833 4.24984C21.0833 5.67657 19.9267 6.83317 18.5 6.83317C17.0733 6.83317 15.9167 5.67657 15.9167 4.24984C15.9167 2.8231 17.0733 1.6665 18.5 1.6665C19.9267 1.6665 21.0833 2.8231 21.0833 4.24984ZM21.0833 19.7498C21.0833 21.1766 19.9267 22.3332 18.5 22.3332C17.0733 22.3332 15.9167 21.1766 15.9167 19.7498C15.9167 18.3231 17.0733 17.1665 18.5 17.1665C19.9267 17.1665 21.0833 18.3231 21.0833 19.7498ZM8.16667 11.9998C8.16667 13.4266 7.01007 14.5832 5.58333 14.5832C4.1566 14.5832 3 13.4266 3 11.9998C3 10.5731 4.1566 9.4165 5.58333 9.4165C7.01007 9.4165 8.16667 10.5731 8.16667 11.9998Z" stroke="white" stroke-width="1.5" stroke-linejoin="round"/>
</svg>

