<svg width="29" height="27" viewBox="0 0 29 27" fill="none" xmlns="http://www.w3.org/2000/svg">
<path d="M16.0202 4.67656C16.0202 5.47799 15.3509 6.15635 14.4896 6.15635C13.6282 6.15635 12.959 5.47799 12.959 4.67656C12.959 3.87514 13.6282 3.19678 14.4896 3.19678C15.3509 3.19678 16.0202 3.87514 16.0202 4.67656Z" stroke="#92E3A9" stroke-width="1.5"/>
<path d="M23.6119 15.0753C22.7506 15.0753 22.0813 14.3969 22.0813 13.5955C22.0813 12.7941 22.7506 12.1157 23.6119 12.1157C24.4733 12.1157 25.1425 12.7941 25.1425 13.5955C25.1425 14.3969 24.4733 15.0753 23.6119 15.0753Z" stroke="#92E3A9" stroke-width="1.5"/>
<circle cx="2.25534" cy="2.25534" r="1.50534" transform="matrix(-0.715027 0.699097 -0.715027 -0.699097 24.1653 19.9023)" stroke="#92E3A9" stroke-width="1.5"/>
<circle cx="2.25534" cy="2.25534" r="1.50534" transform="matrix(-0.715027 -0.699097 0.715027 -0.699097 8.03931 23.0562)" stroke="#92E3A9" stroke-width="1.5"/>
<path d="M14.4896 6.34912V8.57891" stroke="#92E3A9" stroke-width="1.5" stroke-linecap="round"/>
<path d="M21.9015 13.5957L19.6209 13.5957" stroke="#92E3A9" stroke-width="1.5" stroke-linecap="round"/>
<path d="M19.7306 18.7202L18.118 17.1435" stroke="#92E3A9" stroke-width="1.5" stroke-linecap="round"/>
<path d="M9.24866 18.7202L10.8613 17.1435" stroke="#92E3A9" stroke-width="1.5" stroke-linecap="round"/>
<path d="M14.4896 19.1704V20.2853" stroke="#92E3A9" stroke-width="1.5" stroke-linecap="round"/>
<path d="M8.78809 13.5957L7.64779 13.5957" stroke="#92E3A9" stroke-width="1.5" stroke-linecap="round"/>
<path d="M10.458 9.65381L9.6517 8.86546" stroke="#92E3A9" stroke-width="1.5" stroke-linecap="round"/>
<path d="M18.5214 9.65381L19.3277 8.86546" stroke="#92E3A9" stroke-width="1.5" stroke-linecap="round"/>
<path d="M16.0202 22.5149C16.0202 23.3164 15.3509 23.9947 14.4896 23.9947C13.6282 23.9947 12.959 23.3164 12.959 22.5149C12.959 21.7135 13.6282 21.0352 14.4896 21.0352C15.3509 21.0352 16.0202 21.7135 16.0202 22.5149Z" stroke="#92E3A9" stroke-width="1.5"/>
<path d="M5.36717 15.0753C4.50582 15.0753 3.83657 14.3969 3.83657 13.5955C3.83657 12.7941 4.50582 12.1157 5.36717 12.1157C6.22851 12.1157 6.89777 12.7941 6.89777 13.5955C6.89777 14.3969 6.22851 15.0753 5.36717 15.0753Z" stroke="#92E3A9" stroke-width="1.5"/>
<circle cx="2.25534" cy="2.25534" r="1.50534" transform="matrix(-0.715027 0.699097 -0.715027 -0.699097 11.2643 7.28906)" stroke="#92E3A9" stroke-width="1.5"/>
<circle cx="2.25534" cy="2.25534" r="1.50534" transform="matrix(-0.715027 -0.699097 0.715027 -0.699097 20.9401 10.4424)" stroke="#92E3A9" stroke-width="1.5"/>
<path d="M19.4411 13.596C19.4411 16.2446 17.2402 18.4204 14.4896 18.4204C11.7389 18.4204 9.53809 16.2446 9.53809 13.596C9.53809 10.9473 11.7389 8.77148 14.4896 8.77148C17.2402 8.77148 19.4411 10.9473 19.4411 13.596Z" stroke="#92E3A9" stroke-width="1.5"/>
<path d="M16.0201 12.387C16.0201 13.1884 15.3508 13.8668 14.4895 13.8668C13.6281 13.8668 12.9589 13.1884 12.9589 12.387C12.9589 11.5856 13.6281 10.9072 14.4895 10.9072C15.3508 10.9072 16.0201 11.5856 16.0201 12.387Z" stroke="#92E3A9" stroke-width="1.5"/>
<path d="M17.4397 17.2058C16.7975 16.2846 15.7157 15.6797 14.4894 15.6797C13.2631 15.6797 12.1813 16.2846 11.5391 17.2058" stroke="#92E3A9" stroke-width="1.5"/>
</svg>
