
<svg width="26" height="26" viewBox="0 0 26 26" fill="none" xmlns="http://www.w3.org/2000/svg">
<path d="M20.7866 6.65829C20.7049 6.66424 20.6227 6.65532 20.5407 6.65532C20.4588 6.65532 20.3765 6.66424 20.2948 6.65829C18.5705 6.53265 17.2147 5.09897 17.2147 3.3325C17.2147 1.48542 18.7001 0 20.5472 0C22.3943 0 23.8797 1.49834 23.8797 3.3325C23.8671 5.09897 22.511 6.53265 20.7866 6.65829Z" fill="#5BA470"/>
<path d="M19.333 16.0683C21.1026 16.3654 23.053 16.0554 24.4222 15.1383C26.2434 13.9242 26.2434 11.935 24.4222 10.7208C23.0401 9.80376 21.0638 9.49375 19.2943 9.80375" fill="#5BA470"/>
<path d="M5.00147 6.65829C5.0832 6.66424 5.16545 6.65532 5.24739 6.65532C5.32934 6.65532 5.41159 6.66424 5.49331 6.65829C7.21763 6.53265 8.57343 5.09897 8.57343 3.3325C8.57343 1.48542 7.08802 0 5.24094 0C3.39385 0 1.90843 1.49834 1.90843 3.3325C1.92105 5.09897 3.27715 6.53265 5.00147 6.65829Z" fill="#5BA470"/>
<path d="M6.4551 16.0683C4.68552 16.3654 2.7351 16.0554 1.36594 15.1383C-0.455312 13.9242 -0.455312 11.935 1.36594 10.7208C2.74802 9.80376 4.72427 9.49375 6.49385 9.80375" fill="#5BA470"/>
<path d="M13.0344 16.308C12.9542 16.3133 12.8735 16.3043 12.793 16.3041C12.7096 16.3038 12.6258 16.313 12.5425 16.3069C10.8193 16.1801 9.46469 14.7469 9.46469 12.9813C9.46469 11.1342 10.9501 9.64875 12.7972 9.64875C14.6443 9.64875 16.1297 11.1471 16.1297 12.9813C16.1171 14.7485 14.7598 16.195 13.0344 16.308Z" fill="#5BA470"/>
<path d="M9.15469 20.3825C7.33344 21.5967 7.33344 23.5858 9.15469 24.8C11.2214 26.1821 14.6055 26.1821 16.6722 24.8C18.4934 23.5858 18.4934 21.5967 16.6722 20.3825C14.6184 19.0133 11.2214 19.0133 9.15469 20.3825Z" fill="#5BA470"/>
</svg>

