<svg width="28" height="28" viewBox="0 0 28 28" fill="none" xmlns="http://www.w3.org/2000/svg">
<path d="M20.333 17.0683C22.1026 17.3654 24.053 17.0554 25.4222 16.1383C27.2434 14.9242 27.2434 12.935 25.4222 11.7208C24.0401 10.8038 22.0638 10.4938 20.2943 10.8038M7.4551 17.0683C5.68552 17.3654 3.7351 17.0554 2.36594 16.1383C0.544688 14.9242 0.544688 12.935 2.36594 11.7208C3.74802 10.8038 5.72427 10.4938 7.49385 10.8038M21.6634 7.665C21.5859 7.65209 21.4955 7.65209 21.418 7.665C19.6355 7.60042 18.2147 6.14084 18.2147 4.3325C18.2147 2.48542 19.7001 1 21.5472 1C23.3943 1 24.8797 2.49834 24.8797 4.3325C24.8668 6.14084 23.4459 7.60042 21.6634 7.665ZM6.12469 7.665C6.20219 7.65209 6.2926 7.65209 6.3701 7.665C8.1526 7.60042 9.57343 6.14084 9.57343 4.3325C9.57343 2.48542 8.08802 1 6.24094 1C4.39385 1 2.90843 2.49834 2.90843 4.3325C2.92135 6.14084 4.34219 7.60042 6.12469 7.665ZM13.9134 17.3138C13.8359 17.3008 13.7455 17.3008 13.668 17.3138C11.8855 17.2492 10.4647 15.7896 10.4647 13.9813C10.4647 12.1342 11.9501 10.6488 13.7972 10.6488C15.6443 10.6488 17.1297 12.1471 17.1297 13.9813C17.1168 15.7896 15.6959 17.2621 13.9134 17.3138ZM10.1547 21.3825C8.33344 22.5967 8.33344 24.5858 10.1547 25.8C12.2214 27.1821 15.6055 27.1821 17.6722 25.8C19.4934 24.5858 19.4934 22.5967 17.6722 21.3825C15.6184 20.0133 12.2214 20.0133 10.1547 21.3825Z" stroke="#292D32" stroke-width="1.5" stroke-linecap="round" stroke-linejoin="round"/>
</svg>

