<svg width="30" height="30" viewBox="0 0 30 30" fill="none" xmlns="http://www.w3.org/2000/svg">
<path d="M20.0318 25.7134L20.0321 21.6962C20.0323 19.4772 18.2335 17.6783 16.0146 17.6783H7.01802C4.79935 17.6783 3.0007 19.4767 3.00045 21.6954L3 25.7134M26.9996 25.7136L27 21.6964C27.0002 19.4774 25.2014 17.6785 22.9824 17.6785M19.2579 5.07564C20.2445 5.80768 20.8839 6.98125 20.8839 8.30416C20.8839 9.62708 20.2445 10.8006 19.2579 11.5327M15.6172 8.30395C15.6172 10.5228 13.8185 12.3215 11.5997 12.3215C9.38084 12.3215 7.58211 10.5228 7.58211 8.30395C7.58211 6.0851 9.38084 4.28638 11.5997 4.28638C13.8185 4.28638 15.6172 6.0851 15.6172 8.30395Z" stroke="black" stroke-width="2" stroke-linecap="round" stroke-linejoin="round"/>
</svg>
