
<svg width="16" height="20" viewBox="0 0 16 20" fill="none" xmlns="http://www.w3.org/2000/svg">
<mask id="path-1-inside-1_549_1503" fill="white">
<path fill-rule="evenodd" clip-rule="evenodd" d="M2.48485 0.000284876C0.928414 0.000284876 0 0.928698 0 2.48513V17.5154C0 19.0719 0.928414 20.0003 2.48485 20.0003H13.0909C14.6474 20.0003 15.5758 19.0719 15.5758 17.5154V7.02093C15.5758 6.2735 15.6952 5.8616 15.1667 5.33308L10 0.499751C9.4715 -0.0287617 9.30252 0.000284876 8.55514 0.000284876H2.48485ZM0.919192 2.48513C0.919192 1.50028 2.00644 0.879073 2.52525 0.879073H8.08081V6.24271C8.08081 7.28033 8.29568 7.1619 9.33333 7.1619H14.6566V17.5154C14.6008 18.5003 13.5693 19.1215 13.0505 19.1215H2.52525C2.00644 19.1215 0.833333 18.5003 0.919192 17.5154V2.48513ZM14.6008 6.24271L9 0.934846V6.24271H14.6008Z"/>
</mask>
<path fill-rule="evenodd" clip-rule="evenodd" d="M2.48485 0.000284876C0.928414 0.000284876 0 0.928698 0 2.48513V17.5154C0 19.0719 0.928414 20.0003 2.48485 20.0003H13.0909C14.6474 20.0003 15.5758 19.0719 15.5758 17.5154V7.02093C15.5758 6.2735 15.6952 5.8616 15.1667 5.33308L10 0.499751C9.4715 -0.0287617 9.30252 0.000284876 8.55514 0.000284876H2.48485ZM0.919192 2.48513C0.919192 1.50028 2.00644 0.879073 2.52525 0.879073H8.08081V6.24271C8.08081 7.28033 8.29568 7.1619 9.33333 7.1619H14.6566V17.5154C14.6008 18.5003 13.5693 19.1215 13.0505 19.1215H2.52525C2.00644 19.1215 0.833333 18.5003 0.919192 17.5154V2.48513ZM14.6008 6.24271L9 0.934846V6.24271H14.6008Z" fill="black"/>
<path d="M15.1667 5.33308L16.2273 4.27243L16.2097 4.25476L16.1914 4.23768L15.1667 5.33308ZM10 0.499751L8.93933 1.5604L8.95701 1.57808L8.97526 1.59516L10 0.499751ZM8.08081 0.879073H9.58081V-0.620927H8.08081V0.879073ZM14.6566 7.1619H16.1566V5.6619H14.6566V7.1619ZM14.6566 17.5154L16.1542 17.6002L16.1566 17.5579V17.5154H14.6566ZM0.919192 17.5154L2.41352 17.6457L2.41919 17.5807V17.5154H0.919192ZM14.6008 6.24271V7.74271H18.3642L15.6326 5.15396L14.6008 6.24271ZM9 0.934846L10.0318 -0.153905L7.5 -2.55329V0.934846H9ZM9 6.24271H7.5V7.74271H9V6.24271ZM2.48485 -1.49972C1.4081 -1.49972 0.369257 -1.17277 -0.401899 -0.401614C-1.17305 0.369541 -1.5 1.40839 -1.5 2.48513H1.5C1.5 2.00544 1.63726 1.80187 1.71942 1.71971C1.80158 1.63755 2.00516 1.50028 2.48485 1.50028V-1.49972ZM-1.5 2.48513V17.5154H1.5V2.48513H-1.5ZM-1.5 17.5154C-1.5 18.5922 -1.17306 19.6311 -0.401891 20.4022C0.369273 21.1734 1.40812 21.5003 2.48485 21.5003V18.5003C2.00514 18.5003 1.80156 18.363 1.71941 18.2809C1.63727 18.1987 1.5 17.9952 1.5 17.5154H-1.5ZM2.48485 21.5003H13.0909V18.5003H2.48485V21.5003ZM13.0909 21.5003C14.1676 21.5003 15.2065 21.1734 15.9777 20.4022C16.7488 19.631 17.0758 18.5922 17.0758 17.5154H14.0758C14.0758 17.9952 13.9385 18.1987 13.8564 18.2809C13.7742 18.363 13.5707 18.5003 13.0909 18.5003V21.5003ZM17.0758 17.5154V7.02093H14.0758V17.5154H17.0758ZM17.0758 7.02093C17.0758 6.84786 17.0819 6.75125 17.0859 6.54519C17.0891 6.37603 17.0901 6.14189 17.0553 5.88991C16.9722 5.28771 16.7113 4.7564 16.2273 4.27243L14.106 6.39373C14.148 6.43577 14.1368 6.43471 14.1154 6.3925C14.1054 6.37259 14.097 6.35123 14.0909 6.33093C14.0851 6.31131 14.0834 6.29946 14.0835 6.29991C14.0849 6.31041 14.089 6.35242 14.0864 6.48723C14.0851 6.55636 14.083 6.61881 14.0804 6.71555C14.078 6.80464 14.0758 6.90803 14.0758 7.02093H17.0758ZM16.1914 4.23768L11.0247 -0.595657L8.97526 1.59516L14.1419 6.42849L16.1914 4.23768ZM11.0607 -0.5609C10.7496 -0.871939 10.3546 -1.22059 9.77942 -1.38824C9.31612 -1.52329 8.80191 -1.49972 8.55514 -1.49972V1.50028C8.66207 1.50028 8.72888 1.49983 8.8055 1.50006C8.87581 1.50028 8.92266 1.50113 8.95768 1.50263C9.02877 1.50568 9.00232 1.51009 8.93988 1.49189C8.8631 1.46951 8.80928 1.4368 8.79367 1.42583C8.79354 1.42573 8.83339 1.45446 8.93933 1.5604L11.0607 -0.5609ZM8.55514 -1.49972H2.48485V1.50028H8.55514V-1.49972ZM2.41919 2.48513C2.41919 2.50156 2.41673 2.51845 2.41272 2.53294C2.40893 2.54667 2.40529 2.55278 2.40632 2.55093C2.41016 2.54407 2.43116 2.51209 2.48359 2.46873C2.50819 2.44839 2.53554 2.42907 2.56389 2.41197C2.59239 2.39478 2.6179 2.38224 2.63745 2.37401C2.65786 2.36541 2.66446 2.36458 2.65488 2.36686C2.64955 2.36813 2.63686 2.37091 2.61711 2.37351C2.59774 2.37605 2.56662 2.37907 2.52525 2.37907V-0.620927C1.81259 -0.620927 1.08418 -0.266925 0.571745 0.15684C0.0186082 0.614264 -0.580808 1.40235 -0.580808 2.48513H2.41919ZM2.52525 2.37907H8.08081V-0.620927H2.52525V2.37907ZM6.58081 0.879073V6.24271H9.58081V0.879073H6.58081ZM6.58081 6.24271C6.58081 6.51515 6.59046 6.87395 6.68234 7.21466C6.79332 7.62619 7.05302 8.10995 7.59942 8.40812C8.02764 8.6418 8.4673 8.65775 8.65373 8.66348C8.84192 8.66927 9.15939 8.6619 9.33333 8.6619V5.6619C9.19229 5.6619 9.06194 5.66394 8.96431 5.66506C8.85817 5.66629 8.79363 5.66637 8.746 5.6649C8.69688 5.66339 8.70586 5.66107 8.74481 5.66803C8.78591 5.67537 8.89856 5.69944 9.03648 5.77471C9.18772 5.85724 9.32511 5.97721 9.42943 6.12517C9.52586 6.26194 9.56467 6.38092 9.57885 6.4335C9.59232 6.48345 9.59053 6.49978 9.58702 6.45715C9.58373 6.41718 9.58081 6.35014 9.58081 6.24271H6.58081ZM9.33333 8.6619H14.6566V5.6619H9.33333V8.6619ZM13.1566 7.1619V17.5154H16.1566V7.1619H13.1566ZM13.159 17.4306C13.1596 17.4187 13.1638 17.4182 13.1533 17.4365C13.1403 17.4593 13.1112 17.498 13.0594 17.5417C13.007 17.586 12.9535 17.6166 12.9179 17.6319C12.9013 17.6391 12.8989 17.6385 12.9126 17.6351C12.9234 17.6325 12.9714 17.6215 13.0505 17.6215V20.6215C13.7759 20.6215 14.4944 20.2565 14.995 19.8338C15.5386 19.3748 16.0964 18.6198 16.1542 17.6002L13.159 17.4306ZM13.0505 17.6215H2.52525V20.6215H13.0505V17.6215ZM2.52525 17.6215C2.56634 17.6215 2.5962 17.6245 2.61301 17.6266C2.63036 17.6289 2.6403 17.6311 2.64255 17.6316C2.64595 17.6324 2.63312 17.6296 2.60697 17.619C2.58169 17.6087 2.55136 17.5942 2.5193 17.5756C2.48732 17.5571 2.45819 17.5371 2.43352 17.5173C2.40875 17.4974 2.39256 17.4811 2.38344 17.4706C2.37435 17.4602 2.37561 17.4595 2.38145 17.4703C2.38769 17.4819 2.39842 17.5054 2.40612 17.5399C2.41408 17.5755 2.41643 17.6124 2.41352 17.6457L-0.57514 17.3852C-0.677833 18.5631 -0.00833076 19.4049 0.55742 19.8583C1.0873 20.2829 1.83115 20.6215 2.52525 20.6215V17.6215ZM2.41919 17.5154V2.48513H-0.580808V17.5154H2.41919ZM15.6326 5.15396L10.0318 -0.153905L7.9682 2.0236L13.569 7.33146L15.6326 5.15396ZM7.5 0.934846V6.24271H10.5V0.934846H7.5ZM9 7.74271H14.6008V4.74271H9V7.74271Z" fill="black" mask="url(#path-1-inside-1_549_1503)"/>
</svg>
