
<svg width="26" height="11" viewBox="0 0 26 11" fill="none" xmlns="http://www.w3.org/2000/svg">
<path d="M8.55 5.2C8.55 7.05016 7.05015 8.55 5.2 8.55V10.25C7.98904 10.25 10.25 7.98904 10.25 5.2H8.55ZM5.2 8.55C3.34985 8.55 1.85 7.05016 1.85 5.2H0.15C0.15 7.98904 2.41096 10.25 5.2 10.25V8.55ZM1.85 5.2C1.85 3.34985 3.34985 1.85 5.2 1.85V0.15C2.41096 0.15 0.15 2.41096 0.15 5.2H1.85ZM5.2 1.85C7.05015 1.85 8.55 3.34985 8.55 5.2H10.25C10.25 2.41096 7.98904 0.15 5.2 0.15V1.85ZM10.0977 4.72562C10.6782 3.72208 11.7611 3.05 13 3.05V1.35C11.1297 1.35 9.49803 2.36715 8.62615 3.87438L10.0977 4.72562ZM13 3.05C14.2389 3.05 15.3219 3.72208 15.9024 4.72562L17.3739 3.87438C16.502 2.36715 14.8703 1.35 13 1.35V3.05ZM24.15 5.2C24.15 7.05016 22.6502 8.55 20.8 8.55V10.25C23.589 10.25 25.85 7.98904 25.85 5.2H24.15ZM20.8 8.55C18.9498 8.55 17.45 7.05016 17.45 5.2H15.75C15.75 7.98904 18.011 10.25 20.8 10.25V8.55ZM17.45 5.2C17.45 3.34985 18.9498 1.85 20.8 1.85V0.15C18.011 0.15 15.75 2.41096 15.75 5.2H17.45ZM20.8 1.85C22.6502 1.85 24.15 3.34985 24.15 5.2H25.85C25.85 2.41096 23.589 0.15 20.8 0.15V1.85Z" fill="black"/>
</svg>
